<svg xmlns="http://www.w3.org/2000/svg">
<g class="mezzanine bottom">
<polygon points="758.0,798.0 780.0,847.0 757.0,866.0 745.0,875.0 719.0,889.0 706.0,895.0 667.0,910.0 628.0,922.0 602.0,928.0 576.0,933.0 537.0,939.0 511.0,942.0 485.0,944.0 459.0,945.0 394.0,945.0 368.0,944.0 342.0,942.0 316.0,939.0 264.0,931.0 225.0,922.0 199.0,915.0 186.0,911.0 147.0,896.0 121.0,883.0 108.0,876.0 96.0,867.0 84.0,857.0 73.0,847.0 95.0,799.0" style="fill:none;stroke:black;stroke-width:1" />
</g>
<g class="orchestra far sides">
<polygon points="125.0,204.0 196.0,133.0 236.0,116.0 260.0,125.0 272.0,130.0 241.0,186.0 209.0,241.0 185.0,232.0 161.0,222.0 137.0,211.0" style="fill:none;stroke:black;stroke-width:1" />
<polygon points="93.0,477.0 93.0,375.0 184.0,417.0 184.0,536.0 119.0,506.0" style="fill:none;stroke:black;stroke-width:1" />
<polygon points="334.0,146.0 516.0,146.0 529.0,159.0 568.0,213.0 575.0,227.0 594.0,268.0 582.0,274.0 569.0,280.0 556.0,285.0 530.0,293.0 504.0,299.0 465.0,305.0 439.0,307.0 413.0,307.0 387.0,305.0 348.0,299.0 322.0,293.0 296.0,285.0 283.0,280.0 257.0,268.0 269.0,240.0 282.0,213.0 321.0,159.0" style="fill:none;stroke:black;stroke-width:1" />
<polygon points="237.0,565.0 237.0,429.0 614.0,429.0 614.0,565.0 601.0,573.0 575.0,585.0 562.0,590.0 536.0,599.0 523.0,603.0 510.0,606.0 471.0,612.0 445.0,614.0 315.0,599.0 302.0,595.0 276.0,585.0 250.0,573.0" style="fill:none;stroke:black;stroke-width:1" />
<polygon points="653.0,133.0 724.0,204.0 712.0,211.0 688.0,222.0 664.0,232.0 640.0,241.0 608.0,186.0 585.0,144.0 578.0,130.0 590.0,125.0 614.0,116.0" style="fill:none;stroke:black;stroke-width:1" />
<polygon points="757.0,375.0 757.0,477.0 731.0,506.0 666.0,536.0 666.0,417.0" style="fill:none;stroke:black;stroke-width:1" />
</g>
</svg>