<svg xmlns="http://www.w3.org/2000/svg">
<g class="primary-clusters">
<g class="orchestra cluster0">
<polygon points="244.0,108.0 244.0,414.0 192.0,424.0 166.0,418.0 153.0,414.0 88.0,337.0 75.0,297.0 75.0,229.0 153.0,125.0 179.0,98.0" style="fill:none;stroke:black;stroke-width:1" />
</g>
<g class="orchestra cluster1">
<polygon points="295.0,113.0 438.0,113.0 445.0,129.0 451.0,146.0 458.0,196.0 458.0,383.0 451.0,452.0 438.0,453.0 295.0,419.0 282.0,401.0 276.0,384.0 276.0,197.0 282.0,146.0" style="fill:none;stroke:black;stroke-width:1" />
</g>
<g class="orchestra cluster2">
<polygon points="493.0,414.0 493.0,108.0 558.0,99.0 584.0,126.0 662.0,230.0 662.0,298.0 649.0,355.0 584.0,415.0 571.0,419.0 545.0,425.0" style="fill:none;stroke:black;stroke-width:1" />
</g>
<g class="mezzanine cluster0">
<polygon points="239.0,528.0 239.0,766.0 226.0,765.0 200.0,761.0 83.0,655.0 70.0,632.0 57.0,541.0 57.0,490.0 70.0,479.0" style="fill:none;stroke:black;stroke-width:1" />
</g>
<g class="mezzanine cluster1">
<polygon points="271.0,769.0 271.0,531.0 466.0,531.0 466.0,769.0 440.0,771.0 388.0,773.0 349.0,773.0 297.0,771.0" style="fill:none;stroke:black;stroke-width:1" />
</g>
<g class="mezzanine cluster2">
<polygon points="498.0,766.0 498.0,528.0 667.0,480.0 680.0,491.0 680.0,542.0 667.0,633.0 654.0,656.0 537.0,762.0 524.0,764.0" style="fill:none;stroke:black;stroke-width:1" />
</g>
<g class="balcony cluster0">
<polygon points="44.0,823.0 44.0,789.0 239.0,851.0 239.0,1021.0 226.0,1020.0 187.0,1014.0 161.0,1008.0 135.0,1000.0 109.0,990.0 96.0,984.0 70.0,921.0" style="fill:none;stroke:black;stroke-width:1" />
</g>
<g class="balcony cluster1">
<polygon points="271.0,956.0 271.0,854.0 466.0,854.0 466.0,956.0 440.0,958.0 388.0,960.0 349.0,960.0 297.0,958.0" style="fill:none;stroke:black;stroke-width:1" />
</g>
<g class="balcony cluster2">
<polygon points="693.0,790.0 693.0,824.0 680.0,882.0 641.0,985.0 628.0,991.0 602.0,1001.0 576.0,1009.0 550.0,1015.0 524.0,1019.0 498.0,1021.0 498.0,851.0" style="fill:none;stroke:black;stroke-width:1" />
</g>
</g>
<g class="mezzanine">
<polygon points="271.0,769.0 271.0,531.0 466.0,531.0 466.0,769.0 440.0,771.0 388.0,773.0 349.0,773.0 297.0,771.0" style="fill:none;stroke:black;stroke-width:1" />
</g>
<g class="orchestra">
<polygon points="244.0,414.0 192.0,424.0 166.0,418.0 153.0,414.0 88.0,337.0 75.0,297.0 75.0,229.0 153.0,125.0 179.0,98.0 244.0,108.0" style="fill:none;stroke:black;stroke-width:1" />
<polygon points="458.0,196.0 458.0,383.0 451.0,452.0 438.0,453.0 295.0,419.0 282.0,401.0 276.0,384.0 276.0,197.0 282.0,146.0 295.0,113.0 438.0,113.0 445.0,129.0 451.0,146.0" style="fill:none;stroke:black;stroke-width:1" />
<polygon points="545.0,425.0 493.0,414.0 493.0,108.0 558.0,99.0 584.0,126.0 662.0,230.0 662.0,298.0 649.0,355.0 584.0,415.0 571.0,419.0" style="fill:none;stroke:black;stroke-width:1" />
</g>
<g class="balcony">
<polygon points="239.0,851.0 239.0,1021.0 226.0,1020.0 187.0,1014.0 161.0,1008.0 135.0,1000.0 109.0,990.0 96.0,984.0 70.0,921.0 44.0,823.0 44.0,789.0" style="fill:none;stroke:black;stroke-width:1" />
<polygon points="271.0,956.0 271.0,854.0 466.0,854.0 466.0,956.0 440.0,958.0 388.0,960.0 349.0,960.0 297.0,958.0" style="fill:none;stroke:black;stroke-width:1" />
<polygon points="498.0,1021.0 498.0,851.0 693.0,790.0 693.0,824.0 680.0,882.0 641.0,985.0 628.0,991.0 602.0,1001.0 576.0,1009.0 550.0,1015.0 524.0,1019.0" style="fill:none;stroke:black;stroke-width:1" />
</g>
</svg>