<?xml version="1.0" encoding="utf-8" ?>
<svg baseProfile="full" height="1000px" version="1.1" width="850px" xmlns="http://www.w3.org/2000/svg" xmlns:ev="http://www.w3.org/2001/xml-events" xmlns:xlink="http://www.w3.org/1999/xlink"><defs /><polygon fill="#C4C4C4" id="section-orchestra-front-sides" points="184.0,383.0 93.0,341.0 93.0,273.0 184.0,315.0" /><polygon fill="#C4C4C4" id="section-orchestra-front-sides" points="272.0,130.00000000000003 248.0,172.00000000000003 224.0,163.00000000000003 200.0,153.00000000000003 188.0,147.00000000000003 196.0,133.00000000000003 236.0,116.00000000000003 260.0,125.00000000000003" /><polygon fill="#C4C4C4" id="section-orchestra-front-sides" points="757.0,341.0 666.0,383.0 666.0,315.0 757.0,273.0" /><polygon fill="#C4C4C4" id="section-orchestra-front-sides" points="585.0,144.00000000000003 578.0,130.00000000000003 590.0,125.00000000000003 614.0,116.00000000000003 653.0,133.00000000000003 661.0,147.00000000000003 649.0,153.00000000000003 625.0,163.00000000000003 601.0,172.00000000000003" /><polygon fill="#C4C4C4" id="section-constant" points="184.0,468.0 93.0,426.0 93.0,358.0 184.0,400.0" /><polygon fill="#C4C4C4" id="section-constant" points="241.0,186.00000000000003 217.0,227.00000000000003 193.0,218.00000000000003 169.0,208.00000000000003 145.0,197.00000000000003 161.0,169.00000000000003 181.0,161.00000000000003" /><polygon fill="#C4C4C4" id="section-constant" points="757.0,426.0 666.0,468.0 666.0,400.0 757.0,358.0" /><polygon fill="#C4C4C4" id="section-constant" points="632.0,227.00000000000003 608.0,186.00000000000003 668.0,161.00000000000003 688.0,169.00000000000003 704.0,197.00000000000003 680.0,208.00000000000003 656.0,218.00000000000003" /><polygon fill="#C4C4C4" id="section-constant" points="102.0,688.0 116.0,693.0 129.0,699.0 143.0,705.0" /><polygon fill="#C4C4C4" id="section-constant" points="758.0,814.0 780.0,847.0 757.0,866.0 745.0,875.0 719.0,889.0 706.0,895.0 667.0,910.0 628.0,922.0 602.0,928.0 576.0,933.0 537.0,939.0 511.0,942.0 485.0,944.0 459.0,945.0 394.0,945.0 368.0,944.0 342.0,942.0 316.0,939.0 264.0,931.0 225.0,922.0 199.0,915.0 186.0,911.0 147.0,896.0 121.0,883.0 108.0,876.0 96.0,867.0 84.0,857.0 73.0,847.0 95.0,815.0" /><polygon fill="#C4C4C4" id="section-constant" points="709.0,705.0 723.0,699.0 736.0,693.0 750.0,688.0" /><polygon fill="#C4C4C4" id="section-orchestra-rear-sides" points="93.0,477.0 93.0,443.0 184.0,485.0 184.0,536.0 119.0,506.0" /><polygon fill="#C4C4C4" id="section-orchestra-rear-sides" points="109.0,232.00000000000003 125.0,204.00000000000003 209.0,241.00000000000003 193.0,269.0 169.0,260.0 145.0,250.00000000000003 121.0,239.00000000000003" /><polygon fill="#C4C4C4" id="section-orchestra-rear-sides" points="757.0,443.0 757.0,477.0 731.0,506.0 666.0,536.0 666.0,485.0" /><polygon fill="#C4C4C4" id="section-orchestra-rear-sides" points="640.0,241.00000000000003 724.0,204.00000000000003 740.0,232.00000000000003 728.0,239.00000000000003 704.0,250.00000000000003 680.0,260.0 656.0,269.0" /><polygon fill="#C4C4C4" id="section-orchestra-center" points="334.0,146.00000000000003 516.0,146.00000000000003 529.0,159.00000000000003 568.0,213.00000000000003 575.0,227.00000000000003 601.0,282.0 614.0,310.0 614.0,565.0 601.0,573.0 575.0,585.0 562.0,590.0 536.0,599.0 523.0,603.0 510.0,606.0 471.0,612.0 445.0,614.0 315.0,599.0 302.0,595.0 276.0,585.0 250.0,573.0 237.0,565.0 237.0,310.0 243.0,296.0 269.0,240.00000000000003 282.0,213.00000000000003 321.0,159.00000000000003" /><polygon fill="#C4C4C4" id="section-mezzanine-front" points="74.0,608.0 88.0,597.0 143.0,618.0 143.0,635.0 129.0,630.0 102.0,620.0" /><polygon fill="#C4C4C4" id="section-mezzanine-front" points="127.0,750.0 127.0,717.0 725.0,717.0 725.0,750.0 712.0,774.0 699.0,780.0 673.0,790.0 660.0,794.0 621.0,805.0 595.0,811.0 569.0,816.0 530.0,822.0 465.0,827.0 400.0,827.0 374.0,826.0 348.0,824.0 322.0,821.0 283.0,816.0 270.0,814.0 218.0,802.0 179.0,790.0 153.0,780.0 140.0,774.0" /><polygon fill="#C4C4C4" id="section-mezzanine-front" points="764.0,597.0 778.0,608.0 750.0,620.0 723.0,630.0 709.0,635.0 709.0,618.0" /><polygon fill="#C4C4C4" id="section-mezzanine-mid" points="102.0,671.0 74.0,625.0 143.0,652.0 143.0,687.0" /><polygon fill="#C4C4C4" id="section-mezzanine-mid" points="95.0,799.0 758.0,798.0 732.0,814.0 719.0,821.0 706.0,827.0 667.0,842.0 641.0,850.0 576.0,865.0 550.0,869.0 524.0,872.0 459.0,877.0 394.0,877.0 316.0,871.0 264.0,863.0 225.0,854.0 173.0,838.0 160.0,833.0 134.0,822.0 121.0,815.0" /><polygon fill="#C4C4C4" id="section-mezzanine-mid" points="709.0,687.0 709.0,652.0 778.0,625.0 750.0,671.0" /></svg>