<?xml version="1.0" encoding="utf-8" ?>
<svg baseProfile="full" height="1000px" version="1.1" width="850px" xmlns="http://www.w3.org/2000/svg" xmlns:ev="http://www.w3.org/2001/xml-events" xmlns:xlink="http://www.w3.org/1999/xlink"><defs /><path d="M 592.82 -24 L 642.005 66.69 C 592.347 118.683 539.475 157 423.885 157 C 308.295 157 259.515 119.131 210.005 67.805 L 256.022 -24 L 592.822 -24 L 592.82 -24 Z" fill="#C4C4C4" transform="matrix(1, 0, 0, 1, 0, -46)" /><text fill="black" x="376.375" y="134.297">Orchestra</text><text fill="black" x="372.811" y="713.297">Mezzanine</text><polygon fill="#C4C4C4" id="section-orchestra" points="93.0,477.0 93.0,273.0 184.0,315.0 184.0,536.0 119.0,506.0" /><polygon fill="#C4C4C4" id="section-orchestra" points="272.0,130.00000000000003 241.0,186.00000000000003 193.0,269.0 169.0,260.0 145.0,250.00000000000003 121.0,239.00000000000003 109.0,232.00000000000003 125.0,204.00000000000003 196.0,133.00000000000003 236.0,116.00000000000003 260.0,125.00000000000003" /><polygon fill="#C4C4C4" id="section-orchestra" points="237.0,565.0 237.0,310.0 243.0,296.0 269.0,240.00000000000003 282.0,213.00000000000003 321.0,159.00000000000003 334.0,146.00000000000003 516.0,146.00000000000003 529.0,159.00000000000003 568.0,213.00000000000003 575.0,227.00000000000003 601.0,282.0 614.0,310.0 614.0,565.0 601.0,573.0 575.0,585.0 562.0,590.0 536.0,599.0 523.0,603.0 510.0,606.0 471.0,612.0 445.0,614.0 315.0,599.0 302.0,595.0 276.0,585.0 250.0,573.0" /><polygon fill="#C4C4C4" id="section-orchestra" points="757.0,273.0 757.0,477.0 731.0,506.0 666.0,536.0 666.0,315.0" /><polygon fill="#C4C4C4" id="section-orchestra" points="656.0,269.0 608.0,186.00000000000003 585.0,144.00000000000003 578.0,130.00000000000003 590.0,125.00000000000003 614.0,116.00000000000003 653.0,133.00000000000003 724.0,204.00000000000003 740.0,232.00000000000003 728.0,239.00000000000003 704.0,250.00000000000003 680.0,260.0" /><polygon fill="#C4C4C4" id="section-orchestra-rear" points="184.0,451.0 184.0,536.0 119.0,506.0 93.0,477.0 93.0,460.0 106.0,449.0" /><polygon fill="#C4C4C4" id="section-orchestra-rear" points="237.0,565.0 237.0,463.0 250.0,454.0 276.0,449.0 575.0,449.0 601.0,454.0 614.0,463.0 614.0,565.0 601.0,573.0 575.0,585.0 562.0,590.0 536.0,599.0 523.0,603.0 510.0,606.0 471.0,612.0 445.0,614.0 315.0,599.0 302.0,595.0 276.0,585.0 250.0,573.0" /><polygon fill="#C4C4C4" id="section-orchestra-rear" points="666.0,536.0 666.0,451.0 744.0,449.0 757.0,460.0 757.0,477.0 731.0,506.0" /><polygon fill="#C4C4C4" id="section-constant" points="184.0,315.0 184.0,536.0 119.0,506.0 93.0,477.0 93.0,290.0 119.0,285.0" /><polygon fill="#C4C4C4" id="section-constant" points="237.0,565.0 237.0,310.0 243.0,296.0 250.0,283.0 321.0,159.00000000000003 334.0,146.00000000000003 516.0,146.00000000000003 529.0,159.00000000000003 601.0,282.0 614.0,310.0 614.0,565.0 601.0,573.0 575.0,585.0 562.0,590.0 536.0,599.0 523.0,603.0 510.0,606.0 471.0,612.0 445.0,614.0 315.0,599.0 302.0,595.0 276.0,585.0 250.0,573.0" /><polygon fill="#C4C4C4" id="section-constant" points="666.0,536.0 666.0,315.0 731.0,285.0 757.0,290.0 757.0,477.0 731.0,506.0" /><polygon fill="#C4C4C4" id="section-constant" points="88.0,597.0 764.0,597.0 778.0,608.0 780.0,847.0 757.0,866.0 745.0,875.0 719.0,889.0 706.0,895.0 667.0,910.0 628.0,922.0 602.0,928.0 576.0,933.0 537.0,939.0 511.0,942.0 485.0,944.0 459.0,945.0 394.0,945.0 368.0,944.0 342.0,942.0 316.0,939.0 264.0,931.0 225.0,922.0 199.0,915.0 186.0,911.0 147.0,896.0 121.0,883.0 108.0,876.0 96.0,867.0 84.0,857.0 73.0,847.0 74.0,608.0" /><polygon fill="#C4C4C4" id="section-orchestra-front-sides" points="93.0,273.0 106.0,279.0" /><polygon fill="#C4C4C4" id="section-orchestra-front-sides" points="272.0,130.00000000000003 241.0,186.00000000000003 193.0,269.0 169.0,260.0 145.0,250.00000000000003 121.0,239.00000000000003 109.0,232.00000000000003 125.0,204.00000000000003 196.0,133.00000000000003 236.0,116.00000000000003 260.0,125.00000000000003" /><polygon fill="#C4C4C4" id="section-orchestra-front-sides" points="283.0,280.0 257.0,268.0 269.0,240.00000000000003 282.0,213.00000000000003 302.0,187.00000000000003 308.0,205.00000000000003 308.0,255.00000000000003 302.0,270.0" /><polygon fill="#C4C4C4" id="section-orchestra-front-sides" points="536.0,274.0 536.0,174.00000000000003 549.0,187.00000000000003 568.0,213.00000000000003 575.0,227.00000000000003 594.0,268.0 582.0,274.0 569.0,280.0" /><polygon fill="#C4C4C4" id="section-orchestra-front-sides" points="744.0,279.0 757.0,273.0" /><polygon fill="#C4C4C4" id="section-orchestra-front-sides" points="656.0,269.0 608.0,186.00000000000003 585.0,144.00000000000003 578.0,130.00000000000003 590.0,125.00000000000003 614.0,116.00000000000003 653.0,133.00000000000003 724.0,204.00000000000003 740.0,232.00000000000003 728.0,239.00000000000003 704.0,250.00000000000003 680.0,260.0" /><polygon fill="#C4C4C4" id="section-orchestra-rear-center" points="523.0,450.0 523.0,603.0 510.0,606.0 471.0,612.0 445.0,614.0 315.0,599.0 315.0,463.0 328.0,450.0" /><polygon fill="#C4C4C4" id="section-mezzanine-sides" points="73.0,847.0 74.0,608.0 88.0,597.0 143.0,618.0 296.0,767.0 303.0,836.0 303.0,937.0 264.0,931.0 225.0,922.0 199.0,915.0 186.0,911.0 147.0,896.0 121.0,883.0 108.0,876.0 96.0,867.0 84.0,857.0" /><polygon fill="#C4C4C4" id="section-mezzanine-sides" points="778.0,608.0 780.0,847.0 757.0,866.0 745.0,875.0 719.0,889.0 706.0,895.0 667.0,910.0 628.0,922.0 602.0,928.0 576.0,933.0 550.0,937.0 550.0,835.0 556.0,768.0 709.0,618.0 764.0,597.0" /><polygon fill="#C4C4C4" id="section-mezzanine-front-sides" points="143.0,618.0 143.0,705.0 102.0,688.0 74.0,625.0 74.0,608.0 88.0,597.0" /><polygon fill="#C4C4C4" id="section-mezzanine-front-sides" points="709.0,705.0 709.0,618.0 764.0,597.0 778.0,608.0 778.0,625.0 750.0,688.0" /><polygon fill="#C4C4C4" id="section-mezzanine-rear" points="589.0,829.0 732.0,830.0 751.1,836.0 780.0,847.0 757.0,866.0 745.0,875.0 719.0,889.0 706.0,895.0 667.0,910.0 628.0,922.0 602.0,928.0 576.0,933.0 537.0,939.0 511.0,942.0 485.0,944.0 459.0,945.0 394.0,945.0 368.0,944.0 342.0,942.0 316.0,939.0 264.0,931.0 225.0,922.0 199.0,915.0 186.0,911.0 147.0,896.0 121.0,883.0 108.0,876.0 96.0,867.0 84.0,857.0 73.0,847.0 101.1,836.0 121.0,831.0 264.0,830.0" /><polygon fill="#C4C4C4" id="section-mezzanine-mid" points="127.0,717.0 725.0,717.0 758.0,798.0 758.0,814.0 745.0,823.0 706.0,827.0 147.0,827.0 108.0,823.0 95.0,815.0 95.0,799.0" /></svg>