<?xml version="1.0" encoding="utf-8" ?>
<svg baseProfile="full" height="1000px" version="1.1" width="850px" xmlns="http://www.w3.org/2000/svg" xmlns:ev="http://www.w3.org/2001/xml-events" xmlns:xlink="http://www.w3.org/1999/xlink"><defs /><path d="M550.159 0L580 74.095C530.917 109.159 478.66 135 364.405 135C250.15 135 201.937 109.461 153 74.8473L182.841 0H550.159Z" fill="#C4C4C4" transform="matrix(1, 0, 0, 1, 0, -46)" /><polygon fill="#C4C4C4" id="section-constant" points="243.9999999999999,91.99999999999999 243.9999999999999,398.0 191.9999999999999,408.0 165.9999999999999,402.0 152.9999999999999,398.0 87.99999999999989,321.0 74.99999999999989,281.0 74.99999999999989,213.0 152.9999999999999,108.99999999999999 178.9999999999999,81.99999999999999" /><polygon fill="#C4C4C4" id="section-constant" points="437.9999999999999,437.0 294.9999999999999,403.0 281.9999999999999,385.0 275.9999999999999,368.0 275.9999999999999,334.0 314.9999999999999,319.0 405.9999999999999,319.0 457.9999999999999,333.0 457.9999999999999,367.0 450.9999999999999,436.0" /><polygon fill="#C4C4C4" id="section-constant" points="294.9999999999999,96.99999999999999 437.9999999999999,96.99999999999999 444.9999999999999,112.99999999999999 450.9999999999999,130.0 457.9999999999999,180.0 457.9999999999999,214.0 444.9999999999999,215.0 392.9999999999999,218.0 340.9999999999999,218.0 288.9999999999999,216.0 275.9999999999999,215.0 275.9999999999999,181.0 281.9999999999999,130.0" /><polygon fill="#C4C4C4" id="section-constant" points="492.9999999999999,398.0 492.9999999999999,91.99999999999999 557.9999999999999,82.99999999999999 583.9999999999999,109.99999999999999 661.9999999999999,214.0 661.9999999999999,282.0 648.9999999999999,339.0 583.9999999999999,399.0 570.9999999999999,403.0 544.9999999999999,409.0" /><polygon fill="#C4C4C4" id="section-constant" points="238.9999999999999,519.0 238.9999999999999,757.0 225.9999999999999,756.0 199.9999999999999,752.0 82.99999999999989,646.0 69.99999999999989,623.0 56.99999999999989,532.0 56.99999999999989,481.0 69.99999999999989,470.0" /><polygon fill="#C4C4C4" id="section-constant" points="270.9999999999999,760.0 270.9999999999999,522.0 465.9999999999999,522.0 465.9999999999999,760.0 439.9999999999999,762.0 387.9999999999999,764.0 348.9999999999999,764.0 296.9999999999999,762.0" /><polygon fill="#C4C4C4" id="section-constant" points="694.4739999999999,742.995 694.4739999999999,742.995 707.4739999999999,742.995 707.4739999999999,742.995" /><polygon fill="#C4C4C4" id="section-constant" points="497.9999999999999,757.0 497.9999999999999,519.0 666.9999999999999,471.0 679.9999999999999,482.0 679.9999999999999,533.0 666.9999999999999,624.0 653.9999999999999,647.0 536.9999999999999,753.0 523.9999999999999,755.0" /><polygon fill="#C4C4C4" id="section-constant" points="43.99999999999989,823.0 43.99999999999989,789.0 238.9999999999999,851.0 238.9999999999999,953.0 225.9999999999999,952.0 108.99999999999989,939.0 69.99999999999989,921.0" /><polygon fill="#C4C4C4" id="section-constant" points="270.9999999999999,956.0 270.9999999999999,854.0 465.9999999999999,854.0 465.9999999999999,956.0 439.9999999999999,958.0 387.9999999999999,960.0 348.9999999999999,960.0 296.9999999999999,958.0" /><polygon fill="#C4C4C4" id="section-constant" points="692.9999999999999,790.0 692.9999999999999,824.0 679.9999999999999,882.0 653.9999999999999,928.0 627.9999999999999,940.0 523.9999999999999,951.0 497.9999999999999,953.0 497.9999999999999,851.0" /><polygon fill="#C4C4C4" id="section-orchestra-rear-sides" points="87.99999999999989,321.0 178.9999999999999,320.0 243.9999999999999,330.0 243.9999999999999,398.0 191.9999999999999,408.0 165.9999999999999,402.0 152.9999999999999,398.0" /><polygon fill="#C4C4C4" id="section-orchestra-rear-sides" points="492.9999999999999,398.0 492.9999999999999,330.0 557.9999999999999,321.0 648.9999999999999,322.0 648.9999999999999,339.0 583.9999999999999,399.0 570.9999999999999,403.0 544.9999999999999,409.0" /><polygon fill="#C4C4C4" id="section-orchestra-front-sides" points="243.9999999999999,91.99999999999999 243.9999999999999,211.0 204.9999999999999,223.0 87.99999999999989,219.0 74.99999999999989,213.0 152.9999999999999,108.99999999999999 178.9999999999999,81.99999999999999" /><polygon fill="#C4C4C4" id="section-orchestra-front-sides" points="492.9999999999999,211.0 492.9999999999999,91.99999999999999 557.9999999999999,82.99999999999999 583.9999999999999,109.99999999999999 661.9999999999999,214.0 648.9999999999999,220.0 544.9999999999999,222.0" /><polygon fill="#C4C4C4" id="section-orchestra-center" points="294.9999999999999,96.99999999999999 437.9999999999999,96.99999999999999 444.9999999999999,112.99999999999999 450.9999999999999,130.0 457.9999999999999,180.0 457.9999999999999,367.0 450.9999999999999,436.0 437.9999999999999,437.0 294.9999999999999,403.0 281.9999999999999,385.0 275.9999999999999,368.0 275.9999999999999,181.0 281.9999999999999,130.0" /><polygon fill="#C4C4C4" id="section-mezzanine-mid" points="69.99999999999989,623.0 69.99999999999989,589.0 160.9999999999999,591.0 238.9999999999999,604.0 238.9999999999999,655.0 186.9999999999999,665.0 121.99999999999989,663.0 108.99999999999989,658.0 82.99999999999989,646.0" /><polygon fill="#C4C4C4" id="section-mezzanine-mid" points="270.9999999999999,658.0 270.9999999999999,590.0 465.9999999999999,590.0 465.9999999999999,658.0 452.9999999999999,659.0 413.9999999999999,661.0 387.9999999999999,662.0 348.9999999999999,662.0 296.9999999999999,660.0" /><polygon fill="#C4C4C4" id="section-mezzanine-mid" points="497.9999999999999,655.0 497.9999999999999,604.0 588.9999999999999,588.0 666.9999999999999,590.0 666.9999999999999,624.0 653.9999999999999,647.0 627.9999999999999,659.0 614.9999999999999,664.0 562.9999999999999,663.0" /><polygon fill="#C4C4C4" id="section-mezzanine-front" points="238.9999999999999,519.0 238.9999999999999,587.0 147.9999999999999,587.0 95.99999999999989,584.0 69.99999999999989,572.0 56.99999999999989,532.0 56.99999999999989,481.0 69.99999999999989,470.0" /><polygon fill="#C4C4C4" id="section-mezzanine-front" points="270.9999999999999,573.0 270.9999999999999,522.0 465.9999999999999,522.0 465.9999999999999,573.0 439.9999999999999,575.0 387.9999999999999,577.0 348.9999999999999,577.0 296.9999999999999,575.0" /><polygon fill="#C4C4C4" id="section-mezzanine-front" points="497.9999999999999,587.0 497.9999999999999,519.0 666.9999999999999,471.0 679.9999999999999,482.0 679.9999999999999,533.0 666.9999999999999,573.0 640.9999999999999,585.0" /><polygon fill="#C4C4C4" id="section-balcony-rear-rows-h-l" points="238.9999999999999,970.0 238.9999999999999,1021.0 225.9999999999999,1020.0 186.9999999999999,1014.0 160.9999999999999,1008.0 134.9999999999999,1000.0 108.99999999999989,990.0 95.99999999999989,984.0 95.99999999999989,950.0 121.99999999999989,944.0" /><polygon fill="#C4C4C4" id="section-balcony-rear-rows-h-l" points="497.9999999999999,1021.0 497.9999999999999,970.0 614.9999999999999,945.0 640.9999999999999,951.0 640.9999999999999,985.0 627.9999999999999,991.0 601.9999999999999,1001.0 575.9999999999999,1009.0 549.9999999999999,1015.0 523.9999999999999,1019.0" /></svg>