<?xml version="1.0" encoding="utf-8" ?>
<svg baseProfile="full" height="1000px" version="1.1" width="850px" xmlns="http://www.w3.org/2000/svg" xmlns:ev="http://www.w3.org/2001/xml-events" xmlns:xlink="http://www.w3.org/1999/xlink"><defs /><polygon fill="#C4C4C4" id="section-orchestra-front-sides" points="244.0,108.0 244.0,210.0 231.0,209.0 192.0,203.0 166.0,197.0 140.0,189.0 114.0,179.0 153.0,125.0 179.0,98.0" /><polygon fill="#C4C4C4" id="section-orchestra-front-sides" points="493.0,210.0 493.0,108.0 558.0,99.0 584.0,126.0 623.0,180.0 597.0,190.0 571.0,198.0 545.0,204.0 519.0,208.0" /><polygon fill="#C4C4C4" id="section-constant" points="244.0,227.0 244.0,329.0 231.0,328.0 192.0,322.0 166.0,316.0 140.0,308.0 114.0,298.0 75.0,280.0 75.0,229.0 114.0,196.0" /><polygon fill="#C4C4C4" id="section-constant" points="493.0,329.0 493.0,227.0 623.0,197.0 662.0,230.0 662.0,281.0 623.0,299.0 597.0,309.0 571.0,317.0 545.0,323.0 519.0,327.0" /><polygon fill="#C4C4C4" id="section-constant" points="200.0,761.0 83.0,655.0 239.0,698.0 239.0,766.0 226.0,765.0" /><polygon fill="#C4C4C4" id="section-constant" points="271.0,769.0 271.0,701.0 466.0,701.0 466.0,769.0 440.0,771.0 388.0,773.0 349.0,773.0 297.0,771.0" /><polygon fill="#C4C4C4" id="section-constant" points="498.0,766.0 498.0,698.0 654.0,656.0 537.0,762.0 524.0,764.0" /><polygon fill="#C4C4C4" id="section-constant" points="70.0,921.0 44.0,823.0 44.0,789.0 239.0,851.0 239.0,970.0 226.0,969.0 187.0,963.0 161.0,957.0 135.0,949.0 109.0,939.0" /><polygon fill="#C4C4C4" id="section-constant" points="271.0,956.0 271.0,854.0 466.0,854.0 466.0,956.0 440.0,958.0 388.0,960.0 349.0,960.0 297.0,958.0" /><polygon fill="#C4C4C4" id="section-constant" points="498.0,970.0 498.0,851.0 693.0,790.0 693.0,824.0 680.0,882.0 654.0,928.0 628.0,940.0 602.0,950.0 576.0,958.0 550.0,964.0 524.0,968.0" /><polygon fill="#C4C4C4" id="section-orchestra-rear-sides" points="244.0,414.0 192.0,424.0 166.0,418.0 153.0,414.0 88.0,337.0 75.0,297.0 244.0,346.0" /><polygon fill="#C4C4C4" id="section-orchestra-rear-sides" points="545.0,425.0 493.0,414.0 493.0,346.0 662.0,298.0 649.0,355.0 584.0,415.0 571.0,419.0" /><polygon fill="#C4C4C4" id="section-orchestra-center" points="458.0,196.0 458.0,383.0 451.0,452.0 438.0,453.0 295.0,419.0 282.0,401.0 276.0,384.0 276.0,197.0 282.0,146.0 295.0,113.0 438.0,113.0 445.0,129.0 451.0,146.0" /><polygon fill="#C4C4C4" id="section-mezzanine-front" points="239.0,528.0 239.0,596.0 226.0,595.0 187.0,589.0 161.0,583.0 135.0,575.0 109.0,565.0 57.0,541.0 57.0,490.0 70.0,479.0" /><polygon fill="#C4C4C4" id="section-mezzanine-front" points="273.47400000000005,88.99500000000006 273.47400000000005,88.99500000000006" /><polygon fill="#C4C4C4" id="section-mezzanine-front" points="271.0,599.0 271.0,531.0 466.0,531.0 466.0,599.0 440.0,601.0 388.0,603.0 349.0,603.0 297.0,601.0" /><polygon fill="#C4C4C4" id="section-mezzanine-front" points="498.0,596.0 498.0,528.0 667.0,480.0 680.0,491.0 680.0,542.0 628.0,566.0 602.0,576.0 576.0,584.0 550.0,590.0 524.0,594.0" /><polygon fill="#C4C4C4" id="section-mezzanine-mid" points="70.0,632.0 70.0,564.0 239.0,613.0 239.0,681.0 226.0,680.0 187.0,674.0 161.0,668.0 135.0,660.0 109.0,650.0" /><polygon fill="#C4C4C4" id="section-mezzanine-mid" points="271.0,684.0 271.0,616.0 466.0,616.0 466.0,684.0 440.0,686.0 388.0,688.0 349.0,688.0 297.0,686.0" /><polygon fill="#C4C4C4" id="section-mezzanine-mid" points="667.0,565.0 667.0,633.0 628.0,651.0 602.0,661.0 576.0,669.0 550.0,675.0 524.0,679.0 498.0,681.0 498.0,613.0" /><polygon fill="#C4C4C4" id="section-balcony-rear-rows-h-l" points="96.0,984.0 96.0,950.0 239.0,987.0 239.0,1021.0 226.0,1020.0 187.0,1014.0 161.0,1008.0 135.0,1000.0 109.0,990.0" /><polygon fill="#C4C4C4" id="section-balcony-rear-rows-h-l" points="641.0,951.0 641.0,985.0 628.0,991.0 602.0,1001.0 576.0,1009.0 550.0,1015.0 524.0,1019.0 498.0,1021.0 498.0,987.0" /></svg>