<svg xmlns="http://www.w3.org/2000/svg">
<g class="primary-clusters">
<g class="orchestra cluster0">
<polygon points="101.0,207.0 88.0,218.0 75.0,229.0 75.0,246.0 75.0,263.0 75.0,280.0 75.0,297.0 88.0,320.0 88.0,337.0 101.0,343.0 114.0,366.0 127.0,371.0 140.0,376.0 153.0,397.0 153.0,414.0 166.0,418.0 179.0,421.0 192.0,424.0 205.0,409.0 218.0,411.0 231.0,413.0 244.0,414.0 244.0,397.0 244.0,380.0 244.0,363.0 244.0,346.0 244.0,329.0 244.0,312.0 244.0,295.0 244.0,278.0 244.0,261.0 244.0,244.0 244.0,227.0 244.0,210.0 244.0,193.0 244.0,176.0 244.0,159.0 244.0,142.0 244.0,125.0 244.0,108.0 218.0,105.0 205.0,103.0 179.0,98.0 166.0,112.0 153.0,125.0 153.0,142.0 140.0,155.0 127.0,167.0 114.0,179.0 114.0,196.0 101.0,207.0" style="fill:none;stroke:black;stroke-width:1" />
</g>
<g class="orchestra cluster1">
<polygon points="282.0,248.0 276.0,265.0 276.0,282.0 276.0,299.0 276.0,316.0 276.0,333.0 276.0,350.0 276.0,367.0 276.0,384.0 282.0,401.0 295.0,419.0 321.0,420.0 347.0,421.0 360.0,421.0 373.0,421.0 386.0,421.0 399.0,420.0 412.0,420.0 425.0,419.0 438.0,436.0 438.0,453.0 451.0,452.0 451.0,435.0 438.0,419.0 451.0,401.0 458.0,383.0 458.0,366.0 458.0,349.0 458.0,332.0 458.0,315.0 458.0,298.0 458.0,281.0 458.0,264.0 451.0,248.0 458.0,230.0 451.0,214.0 458.0,196.0 451.0,180.0 451.0,163.0 451.0,146.0 445.0,129.0 438.0,113.0 425.0,113.0 399.0,114.0 373.0,115.0 360.0,115.0 334.0,114.0 308.0,113.0 295.0,113.0 289.0,129.0 282.0,146.0 282.0,163.0 282.0,180.0 276.0,197.0 282.0,214.0 276.0,231.0 282.0,248.0" style="fill:none;stroke:black;stroke-width:1" />
</g>
<g class="orchestra cluster2">
<polygon points="493.0,176.0 493.0,193.0 493.0,210.0 493.0,227.0 493.0,244.0 493.0,261.0 493.0,278.0 493.0,295.0 493.0,312.0 493.0,329.0 493.0,346.0 493.0,363.0 493.0,380.0 493.0,397.0 493.0,414.0 506.0,413.0 519.0,412.0 532.0,410.0 545.0,425.0 558.0,422.0 571.0,419.0 584.0,415.0 584.0,398.0 597.0,377.0 610.0,372.0 623.0,367.0 636.0,361.0 649.0,355.0 649.0,338.0 649.0,321.0 662.0,298.0 662.0,281.0 662.0,264.0 662.0,247.0 662.0,230.0 649.0,219.0 636.0,208.0 623.0,197.0 623.0,180.0 610.0,168.0 597.0,156.0 584.0,143.0 584.0,126.0 571.0,113.0 558.0,99.0 532.0,104.0 506.0,107.0 493.0,108.0 493.0,125.0 493.0,142.0 493.0,159.0 493.0,176.0" style="fill:none;stroke:black;stroke-width:1" />
</g>
<g class="mezzanine cluster0">
<polygon points="57.0,541.0 70.0,564.0 70.0,581.0 70.0,598.0 70.0,615.0 70.0,632.0 83.0,655.0 96.0,661.0 109.0,667.0 122.0,672.0 135.0,677.0 148.0,681.0 161.0,685.0 174.0,688.0 187.0,691.0 200.0,710.0 200.0,727.0 200.0,744.0 200.0,761.0 213.0,763.0 226.0,765.0 239.0,766.0 239.0,749.0 239.0,732.0 239.0,715.0 239.0,698.0 239.0,681.0 239.0,664.0 239.0,647.0 239.0,630.0 239.0,613.0 239.0,596.0 239.0,579.0 239.0,562.0 239.0,545.0 239.0,528.0 213.0,525.0 200.0,523.0 174.0,518.0 148.0,511.0 122.0,502.0 96.0,491.0 83.0,485.0 70.0,479.0 57.0,490.0 57.0,507.0 57.0,524.0 57.0,541.0" style="fill:none;stroke:black;stroke-width:1" />
</g>
<g class="mezzanine cluster1">
<polygon points="271.0,616.0 271.0,633.0 271.0,650.0 271.0,667.0 271.0,684.0 271.0,701.0 271.0,718.0 271.0,735.0 271.0,752.0 271.0,769.0 284.0,770.0 297.0,771.0 323.0,772.0 349.0,773.0 362.0,773.0 375.0,773.0 388.0,773.0 414.0,772.0 440.0,771.0 453.0,770.0 466.0,769.0 466.0,752.0 466.0,735.0 466.0,718.0 466.0,701.0 466.0,684.0 466.0,667.0 466.0,650.0 466.0,633.0 466.0,616.0 466.0,599.0 466.0,582.0 466.0,565.0 466.0,548.0 466.0,531.0 453.0,532.0 427.0,533.0 401.0,534.0 375.0,535.0 362.0,535.0 336.0,534.0 310.0,533.0 284.0,532.0 271.0,531.0 271.0,548.0 271.0,565.0 271.0,582.0 271.0,599.0 271.0,616.0" style="fill:none;stroke:black;stroke-width:1" />
</g>
<g class="mezzanine cluster2">
<polygon points="498.0,613.0 498.0,630.0 498.0,647.0 498.0,664.0 498.0,681.0 498.0,698.0 498.0,715.0 498.0,732.0 498.0,749.0 498.0,766.0 511.0,765.0 524.0,764.0 537.0,762.0 537.0,745.0 537.0,728.0 537.0,711.0 550.0,692.0 563.0,689.0 576.0,686.0 589.0,682.0 602.0,678.0 615.0,673.0 628.0,668.0 641.0,662.0 654.0,656.0 667.0,633.0 667.0,616.0 667.0,599.0 667.0,582.0 667.0,565.0 680.0,542.0 680.0,525.0 680.0,508.0 680.0,491.0 667.0,480.0 654.0,486.0 641.0,492.0 615.0,503.0 589.0,512.0 563.0,519.0 537.0,524.0 511.0,527.0 498.0,528.0 498.0,545.0 498.0,562.0 498.0,579.0 498.0,596.0 498.0,613.0" style="fill:none;stroke:black;stroke-width:1" />
</g>
<g class="balcony cluster0">
<polygon points="57.0,864.0 70.0,887.0 70.0,904.0 70.0,921.0 83.0,927.0 96.0,950.0 96.0,967.0 96.0,984.0 109.0,990.0 122.0,995.0 135.0,1000.0 148.0,1004.0 161.0,1008.0 174.0,1011.0 187.0,1014.0 200.0,1016.0 213.0,1018.0 226.0,1020.0 239.0,1021.0 239.0,1004.0 239.0,987.0 239.0,970.0 239.0,953.0 239.0,936.0 239.0,919.0 239.0,902.0 239.0,885.0 239.0,868.0 239.0,851.0 213.0,848.0 200.0,846.0 174.0,841.0 148.0,834.0 122.0,825.0 96.0,814.0 83.0,808.0 70.0,802.0 57.0,796.0 44.0,789.0 44.0,806.0 44.0,823.0 57.0,847.0 57.0,864.0" style="fill:none;stroke:black;stroke-width:1" />
</g>
<g class="balcony cluster1">
<polygon points="271.0,905.0 271.0,922.0 271.0,939.0 271.0,956.0 284.0,957.0 297.0,958.0 323.0,959.0 349.0,960.0 362.0,960.0 375.0,960.0 388.0,960.0 414.0,959.0 440.0,958.0 453.0,957.0 466.0,956.0 466.0,939.0 466.0,922.0 466.0,905.0 466.0,888.0 466.0,871.0 466.0,854.0 453.0,855.0 427.0,856.0 401.0,857.0 375.0,858.0 362.0,858.0 336.0,857.0 310.0,856.0 284.0,855.0 271.0,854.0 271.0,871.0 271.0,888.0 271.0,905.0" style="fill:none;stroke:black;stroke-width:1" />
</g>
<g class="balcony cluster2">
<polygon points="498.0,936.0 498.0,953.0 498.0,970.0 498.0,987.0 498.0,1004.0 498.0,1021.0 511.0,1020.0 524.0,1019.0 537.0,1017.0 550.0,1015.0 563.0,1012.0 576.0,1009.0 589.0,1005.0 602.0,1001.0 615.0,996.0 628.0,991.0 641.0,985.0 641.0,968.0 641.0,951.0 654.0,928.0 667.0,905.0 680.0,882.0 680.0,865.0 680.0,848.0 693.0,824.0 693.0,807.0 693.0,790.0 667.0,803.0 654.0,809.0 641.0,815.0 615.0,826.0 589.0,835.0 563.0,842.0 537.0,847.0 511.0,850.0 498.0,851.0 498.0,868.0 498.0,885.0 498.0,902.0 498.0,919.0 498.0,936.0" style="fill:none;stroke:black;stroke-width:1" />
</g>
</g>
<g class="mezzanine">
<polygon points="271.0,616.0 271.0,633.0 271.0,650.0 271.0,667.0 271.0,684.0 271.0,701.0 271.0,718.0 271.0,735.0 271.0,752.0 271.0,769.0 284.0,770.0 297.0,771.0 323.0,772.0 349.0,773.0 362.0,773.0 375.0,773.0 388.0,773.0 414.0,772.0 440.0,771.0 453.0,770.0 466.0,769.0 466.0,752.0 466.0,735.0 466.0,718.0 466.0,701.0 466.0,684.0 466.0,667.0 466.0,650.0 466.0,633.0 466.0,616.0 466.0,599.0 466.0,582.0 466.0,565.0 466.0,548.0 466.0,531.0 453.0,532.0 427.0,533.0 401.0,534.0 375.0,535.0 362.0,535.0 336.0,534.0 310.0,533.0 284.0,532.0 271.0,531.0 271.0,548.0 271.0,565.0 271.0,582.0 271.0,599.0 271.0,616.0" style="fill:none;stroke:black;stroke-width:1" />
</g>
<g class="orchestra">
<polygon points="88.0,218.0 75.0,229.0 75.0,246.0 75.0,263.0 75.0,280.0 75.0,297.0 88.0,320.0 88.0,337.0 101.0,343.0 114.0,366.0 127.0,371.0 140.0,376.0 153.0,397.0 153.0,414.0 166.0,418.0 179.0,421.0 192.0,424.0 205.0,409.0 218.0,411.0 231.0,413.0 244.0,414.0 244.0,397.0 244.0,380.0 244.0,363.0 244.0,346.0 244.0,329.0 244.0,312.0 244.0,295.0 244.0,278.0 244.0,261.0 244.0,244.0 244.0,227.0 244.0,210.0 244.0,193.0 244.0,176.0 244.0,159.0 244.0,142.0 244.0,125.0 244.0,108.0 218.0,105.0 205.0,103.0 179.0,98.0 166.0,112.0 153.0,125.0 153.0,142.0 140.0,155.0 127.0,167.0 114.0,179.0 114.0,196.0 101.0,207.0 88.0,218.0" style="fill:none;stroke:black;stroke-width:1" />
<polygon points="276.0,231.0 282.0,248.0 276.0,265.0 276.0,282.0 276.0,299.0 276.0,316.0 276.0,333.0 276.0,350.0 276.0,367.0 276.0,384.0 282.0,401.0 295.0,419.0 321.0,420.0 347.0,421.0 360.0,421.0 373.0,421.0 386.0,421.0 399.0,420.0 412.0,420.0 425.0,419.0 438.0,436.0 438.0,453.0 451.0,452.0 451.0,435.0 438.0,419.0 451.0,401.0 458.0,383.0 458.0,366.0 458.0,349.0 458.0,332.0 458.0,315.0 458.0,298.0 458.0,281.0 458.0,264.0 451.0,248.0 458.0,230.0 451.0,214.0 458.0,196.0 451.0,180.0 451.0,163.0 451.0,146.0 445.0,129.0 438.0,113.0 425.0,113.0 399.0,114.0 373.0,115.0 360.0,115.0 334.0,114.0 308.0,113.0 295.0,113.0 289.0,129.0 282.0,146.0 282.0,163.0 282.0,180.0 276.0,197.0 282.0,214.0 276.0,231.0" style="fill:none;stroke:black;stroke-width:1" />
<polygon points="493.0,210.0 493.0,227.0 493.0,244.0 493.0,261.0 493.0,278.0 493.0,295.0 493.0,312.0 493.0,329.0 493.0,346.0 493.0,363.0 493.0,380.0 493.0,397.0 493.0,414.0 506.0,413.0 519.0,412.0 532.0,410.0 545.0,425.0 558.0,422.0 571.0,419.0 584.0,415.0 584.0,398.0 597.0,377.0 610.0,372.0 623.0,367.0 636.0,361.0 649.0,355.0 649.0,338.0 649.0,321.0 662.0,298.0 662.0,281.0 662.0,264.0 662.0,247.0 662.0,230.0 649.0,219.0 636.0,208.0 623.0,197.0 623.0,180.0 610.0,168.0 597.0,156.0 584.0,143.0 584.0,126.0 571.0,113.0 558.0,99.0 532.0,104.0 506.0,107.0 493.0,108.0 493.0,125.0 493.0,142.0 493.0,159.0 493.0,176.0 493.0,193.0 493.0,210.0" style="fill:none;stroke:black;stroke-width:1" />
</g>
<g class="balcony">
<polygon points="57.0,864.0 70.0,887.0 70.0,904.0 70.0,921.0 83.0,927.0 96.0,950.0 96.0,967.0 96.0,984.0 109.0,990.0 122.0,995.0 135.0,1000.0 148.0,1004.0 161.0,1008.0 174.0,1011.0 187.0,1014.0 200.0,1016.0 213.0,1018.0 226.0,1020.0 239.0,1021.0 239.0,1004.0 239.0,987.0 239.0,970.0 239.0,953.0 239.0,936.0 239.0,919.0 239.0,902.0 239.0,885.0 239.0,868.0 239.0,851.0 213.0,848.0 200.0,846.0 174.0,841.0 148.0,834.0 122.0,825.0 96.0,814.0 83.0,808.0 70.0,802.0 57.0,796.0 44.0,789.0 44.0,806.0 44.0,823.0 57.0,847.0 57.0,864.0" style="fill:none;stroke:black;stroke-width:1" />
<polygon points="271.0,922.0 271.0,939.0 271.0,956.0 284.0,957.0 297.0,958.0 323.0,959.0 349.0,960.0 362.0,960.0 375.0,960.0 388.0,960.0 414.0,959.0 440.0,958.0 453.0,957.0 466.0,956.0 466.0,939.0 466.0,922.0 466.0,905.0 466.0,888.0 466.0,871.0 466.0,854.0 453.0,855.0 427.0,856.0 401.0,857.0 375.0,858.0 362.0,858.0 336.0,857.0 310.0,856.0 284.0,855.0 271.0,854.0 271.0,871.0 271.0,888.0 271.0,905.0 271.0,922.0" style="fill:none;stroke:black;stroke-width:1" />
<polygon points="498.0,919.0 498.0,936.0 498.0,953.0 498.0,970.0 498.0,987.0 498.0,1004.0 498.0,1021.0 511.0,1020.0 524.0,1019.0 537.0,1017.0 550.0,1015.0 563.0,1012.0 576.0,1009.0 589.0,1005.0 602.0,1001.0 615.0,996.0 628.0,991.0 641.0,985.0 641.0,968.0 641.0,951.0 654.0,928.0 667.0,905.0 680.0,882.0 680.0,865.0 680.0,848.0 693.0,824.0 693.0,807.0 693.0,790.0 667.0,803.0 654.0,809.0 641.0,815.0 615.0,826.0 589.0,835.0 563.0,842.0 537.0,847.0 511.0,850.0 498.0,851.0 498.0,868.0 498.0,885.0 498.0,902.0 498.0,919.0" style="fill:none;stroke:black;stroke-width:1" />
</g>
</svg>