<svg viewbox="0 0 689.0 1131.577" xmlns="http://www.w3.org/2000/svg">
<g id="stage">
<rect x="200" y="0" width="289.0" height="100" fill="#222222" />
<text font-size="28px" x="344.5" y="50.0" text-anchor="middle" fill="#ffffff" dominant-baseline="middle">STAGE</text>
</g>
<g transform="translate(0, 100)">
<g class="primary-clusters">
<text x="344.5" y="85" font-size="28px" text-anchor="middle" dominant-baseline="middle">ORCHESTRA</text><text x="344.5" y="607.0" font-size="28px" text-anchor="middle" dominant-baseline="middle">MEZZANINE</text><g class="grouped-orchestra cluster0">
<polygon data-section="orchestra" data-priority="-1" class="n/a" points="65.0,393.0 79.0,467.0 92.0,473.0 105.0,478.0 118.0,483.0 131.0,487.0 144.0,491.0 157.0,494.0 183.0,499.0 196.0,501.0 209.0,503.0 222.0,504.0 221.0,402.0 221.0,385.0 221.0,368.0 221.0,351.0 221.0,334.0 221.0,317.0 221.0,300.0 221.0,283.0 221.0,266.0 182.0,261.0 117.0,279.0 65.0,291.0 65.0,308.0 65.0,325.0 65.0,342.0 65.0,359.0 65.0,376.0 65.0,393.0" style="fill:#C4C4C4;" />
</g>
<g class="grouped-orchestra cluster1">
<polygon data-section="orchestra" data-priority="-1" class="n/a" points="253.0,355.0 253.0,372.0 253.0,389.0 253.0,406.0 253.0,423.0 253.0,440.0 253.0,457.0 253.0,474.0 253.0,491.0 253.0,508.0 253.0,525.0 253.0,542.0 253.0,559.0 266.0,560.0 292.0,561.0 318.0,562.0 331.0,562.0 344.0,562.0 357.0,562.0 370.0,562.0 422.0,559.0 435.0,558.0 435.0,541.0 435.0,524.0 435.0,507.0 435.0,490.0 435.0,473.0 435.0,456.0 435.0,439.0 435.0,422.0 435.0,405.0 435.0,388.0 435.0,371.0 435.0,354.0 435.0,337.0 435.0,320.0 435.0,303.0 435.0,286.0 435.0,269.0 435.0,252.0 416.0,236.0 403.0,236.0 338.0,238.0 286.0,237.0 273.0,237.0 253.0,253.0 253.0,270.0 253.0,287.0 253.0,304.0 253.0,321.0 253.0,338.0 253.0,355.0" style="fill:#C4C4C4;" />
</g>
<g class="grouped-orchestra cluster2">
<polygon data-section="orchestra" data-priority="-1" class="n/a" points="467.0,351.0 467.0,368.0 467.0,385.0 467.0,402.0 467.0,419.0 467.0,436.0 467.0,453.0 467.0,470.0 467.0,487.0 467.0,504.0 480.0,503.0 493.0,502.0 506.0,500.0 532.0,495.0 545.0,492.0 558.0,488.0 571.0,484.0 584.0,479.0 597.0,474.0 610.0,468.0 623.0,394.0 623.0,377.0 623.0,360.0 623.0,343.0 623.0,326.0 623.0,309.0 623.0,292.0 571.0,280.0 506.0,262.0 467.0,266.0 467.0,283.0 467.0,300.0 467.0,317.0 467.0,334.0 467.0,351.0" style="fill:#C4C4C4;" />
</g>
<g class="grouped-mezzanine cluster0">
<polygon data-section="mezzanine" data-priority="-1" class="n/a" points="65.0,805.0 65.0,822.0 65.0,839.0 65.0,856.0 65.0,873.0 65.0,890.0 78.0,896.0 91.0,902.0 104.0,907.0 117.0,912.0 130.0,916.0 143.0,920.0 156.0,923.0 169.0,926.0 221.0,916.0 221.0,899.0 221.0,882.0 221.0,865.0 221.0,848.0 221.0,831.0 221.0,814.0 221.0,797.0 221.0,780.0 221.0,763.0 221.0,746.0 221.0,729.0 143.0,716.0 91.0,732.0 65.0,754.0 65.0,771.0 65.0,788.0 65.0,805.0" style="fill:#C4C4C4;" />
</g>
<g class="grouped-mezzanine cluster1">
<polygon data-section="mezzanine" data-priority="-1" class="n/a" points="78.0,607.0 65.0,618.0 65.0,635.0 78.0,641.0 91.0,647.0 104.0,652.0 117.0,657.0 130.0,661.0 143.0,665.0 156.0,668.0 169.0,671.0 182.0,673.0 195.0,675.0 208.0,677.0 221.0,678.0 221.0,661.0 221.0,644.0 221.0,627.0 195.0,624.0 104.0,601.0 91.0,596.0 78.0,607.0" style="fill:#C4C4C4;" />
</g>
<g class="grouped-mezzanine cluster2">
<polygon data-section="mezzanine" data-priority="-1" class="n/a" points="253.0,750.0 253.0,767.0 253.0,784.0 253.0,801.0 253.0,818.0 253.0,835.0 253.0,852.0 253.0,869.0 253.0,886.0 253.0,903.0 253.0,920.0 266.0,921.0 292.0,922.0 318.0,923.0 331.0,923.0 344.0,923.0 357.0,923.0 370.0,923.0 422.0,920.0 435.0,919.0 435.0,902.0 435.0,885.0 435.0,868.0 435.0,851.0 435.0,834.0 435.0,817.0 435.0,800.0 435.0,783.0 435.0,766.0 435.0,749.0 435.0,732.0 435.0,715.0 435.0,698.0 435.0,681.0 435.0,664.0 435.0,647.0 435.0,630.0 409.0,631.0 396.0,632.0 344.0,634.0 305.0,633.0 279.0,632.0 253.0,631.0 253.0,648.0 253.0,665.0 253.0,682.0 253.0,699.0 253.0,716.0 253.0,733.0 253.0,750.0" style="fill:#C4C4C4;" />
</g>
<g class="grouped-mezzanine cluster3">
<polygon data-section="mezzanine" data-priority="-1" class="n/a" points="467.0,780.0 467.0,797.0 467.0,814.0 467.0,831.0 467.0,848.0 467.0,865.0 467.0,882.0 467.0,899.0 467.0,916.0 519.0,927.0 532.0,924.0 545.0,921.0 558.0,917.0 571.0,913.0 584.0,908.0 597.0,903.0 610.0,897.0 623.0,891.0 623.0,874.0 623.0,857.0 623.0,840.0 623.0,823.0 623.0,806.0 623.0,789.0 623.0,772.0 623.0,755.0 597.0,733.0 545.0,717.0 467.0,729.0 467.0,746.0 467.0,763.0 467.0,780.0" style="fill:#C4C4C4;" />
</g>
<g class="grouped-mezzanine cluster4">
<polygon data-section="mezzanine" data-priority="-1" class="n/a" points="467.0,644.0 467.0,661.0 467.0,678.0 480.0,677.0 493.0,676.0 506.0,674.0 519.0,672.0 532.0,669.0 545.0,666.0 558.0,662.0 571.0,658.0 584.0,653.0 597.0,648.0 610.0,642.0 623.0,636.0 623.0,619.0 610.0,608.0 597.0,597.0 584.0,602.0 558.0,611.0 480.0,626.0 467.0,627.0 467.0,644.0" style="fill:#C4C4C4;" />
</g>
</g>
<g class="tour-sections"><g class="grouped-Mezzanine Center R-S, Side O-Q">
<polygon data-section="Mezzanine Center R-S, Side O-Q" data-priority="2" class="57849" points="292.0,922.0 318.0,923.0 331.0,923.0 344.0,923.0 357.0,923.0 370.0,923.0 422.0,920.0 435.0,919.0 435.0,902.0 409.0,903.0 279.0,904.0 253.0,903.0 253.0,920.0 266.0,921.0 292.0,922.0" style="fill:#C4C4C4;" />
<polygon data-section="Mezzanine Center R-S, Side O-Q" data-priority="2" class="57849" points="467.0,865.0 467.0,882.0 480.0,881.0 493.0,880.0 506.0,878.0 519.0,876.0 532.0,873.0 545.0,870.0 558.0,866.0 571.0,862.0 584.0,857.0 597.0,852.0 610.0,846.0 623.0,840.0 623.0,823.0 623.0,806.0 610.0,812.0 584.0,823.0 480.0,847.0 467.0,848.0 467.0,865.0" style="fill:#C4C4C4;" />
<polygon data-section="Mezzanine Center R-S, Side O-Q" data-priority="2" class="57849" points="65.0,822.0 65.0,839.0 78.0,845.0 91.0,851.0 104.0,856.0 117.0,861.0 130.0,865.0 143.0,869.0 156.0,872.0 169.0,875.0 182.0,877.0 195.0,879.0 208.0,881.0 221.0,882.0 221.0,865.0 221.0,848.0 195.0,845.0 182.0,843.0 78.0,811.0 65.0,805.0 65.0,822.0" style="fill:#C4C4C4;" />
</g>
<g class="grouped-Orchestra Center F-O, Side E-J/Mezzanine Center C-D, Side A-B">
<polygon data-section="Orchestra Center F-O, Side E-J/Mezzanine Center C-D, Side A-B" data-priority="2" class="57853" points="253.0,372.0 253.0,389.0 253.0,406.0 253.0,423.0 266.0,424.0 292.0,425.0 318.0,426.0 331.0,426.0 344.0,426.0 357.0,426.0 370.0,426.0 422.0,423.0 435.0,422.0 435.0,405.0 435.0,388.0 435.0,371.0 435.0,354.0 435.0,337.0 435.0,320.0 435.0,303.0 435.0,286.0 409.0,287.0 396.0,288.0 305.0,289.0 279.0,288.0 253.0,287.0 253.0,304.0 253.0,321.0 253.0,338.0 253.0,355.0 253.0,372.0" style="fill:#C4C4C4;" />
<polygon data-section="Orchestra Center F-O, Side E-J/Mezzanine Center C-D, Side A-B" data-priority="2" class="57853" points="65.0,291.0 78.0,297.0 91.0,303.0 104.0,308.0 117.0,313.0 130.0,317.0 143.0,321.0 156.0,324.0 169.0,327.0 182.0,329.0 195.0,331.0 208.0,333.0 221.0,334.0 221.0,317.0 221.0,300.0 221.0,283.0 221.0,266.0 182.0,261.0 117.0,279.0 65.0,291.0" style="fill:#C4C4C4;" />
<polygon data-section="Orchestra Center F-O, Side E-J/Mezzanine Center C-D, Side A-B" data-priority="2" class="57853" points="467.0,300.0 467.0,317.0 467.0,334.0 480.0,333.0 493.0,332.0 506.0,330.0 519.0,328.0 532.0,325.0 545.0,322.0 558.0,318.0 571.0,314.0 584.0,309.0 597.0,304.0 610.0,298.0 623.0,292.0 571.0,280.0 506.0,262.0 467.0,266.0 467.0,283.0 467.0,300.0" style="fill:#C4C4C4;" />
<polygon data-section="Orchestra Center F-O, Side E-J/Mezzanine Center C-D, Side A-B" data-priority="2" class="57853" points="266.0,683.0 292.0,684.0 318.0,685.0 331.0,685.0 344.0,685.0 357.0,685.0 370.0,685.0 422.0,682.0 435.0,681.0 435.0,664.0 409.0,665.0 279.0,666.0 253.0,665.0 253.0,682.0 266.0,683.0" style="fill:#C4C4C4;" />
<polygon data-section="Orchestra Center F-O, Side E-J/Mezzanine Center C-D, Side A-B" data-priority="2" class="57853" points="117.0,623.0 130.0,627.0 143.0,631.0 156.0,634.0 169.0,637.0 182.0,639.0 195.0,641.0 208.0,643.0 221.0,644.0 221.0,627.0 195.0,624.0 91.0,596.0 78.0,607.0 91.0,613.0 104.0,618.0 117.0,623.0" style="fill:#C4C4C4;" />
<polygon data-section="Orchestra Center F-O, Side E-J/Mezzanine Center C-D, Side A-B" data-priority="2" class="57853" points="467.0,627.0 467.0,644.0 480.0,643.0 493.0,642.0 506.0,640.0 519.0,638.0 532.0,635.0 545.0,632.0 558.0,628.0 571.0,624.0 584.0,619.0 597.0,614.0 610.0,608.0 597.0,597.0 584.0,602.0 467.0,627.0" style="fill:#C4C4C4;" />
</g>
<g class="grouped-Mezzanine Center P-Q, Side L-N">
<polygon data-section="Mezzanine Center P-Q, Side L-N" data-priority="2" class="57854" points="292.0,888.0 318.0,889.0 331.0,889.0 344.0,889.0 357.0,889.0 370.0,889.0 422.0,886.0 435.0,885.0 435.0,868.0 409.0,869.0 279.0,870.0 253.0,869.0 253.0,886.0 266.0,887.0 292.0,888.0" style="fill:#C4C4C4;" />
<polygon data-section="Mezzanine Center P-Q, Side L-N" data-priority="2" class="57854" points="65.0,771.0 65.0,788.0 78.0,794.0 91.0,800.0 104.0,805.0 117.0,810.0 130.0,814.0 143.0,818.0 156.0,821.0 169.0,824.0 182.0,826.0 195.0,828.0 208.0,830.0 221.0,831.0 221.0,814.0 221.0,797.0 195.0,794.0 182.0,792.0 78.0,760.0 65.0,754.0 65.0,771.0" style="fill:#C4C4C4;" />
<polygon data-section="Mezzanine Center P-Q, Side L-N" data-priority="2" class="57854" points="467.0,814.0 467.0,831.0 480.0,830.0 493.0,829.0 506.0,827.0 519.0,825.0 532.0,822.0 545.0,819.0 558.0,815.0 571.0,811.0 584.0,806.0 597.0,801.0 610.0,795.0 623.0,789.0 623.0,772.0 623.0,755.0 610.0,761.0 584.0,772.0 480.0,796.0 467.0,797.0 467.0,814.0" style="fill:#C4C4C4;" />
</g>
<g class="grouped-Mezzanine Center L-O, Side H-K">
<polygon data-section="Mezzanine Center L-O, Side H-K" data-priority="2" class="57855" points="253.0,801.0 253.0,818.0 253.0,835.0 253.0,852.0 266.0,853.0 292.0,854.0 318.0,855.0 331.0,855.0 344.0,855.0 357.0,855.0 370.0,855.0 422.0,852.0 435.0,851.0 435.0,834.0 435.0,817.0 435.0,800.0 409.0,801.0 305.0,803.0 279.0,802.0 253.0,801.0" style="fill:#C4C4C4;" />
<polygon data-section="Mezzanine Center L-O, Side H-K" data-priority="2" class="57855" points="78.0,760.0 195.0,777.0 208.0,779.0 221.0,780.0 221.0,763.0 221.0,746.0 143.0,733.0 91.0,732.0 78.0,760.0" style="fill:#C4C4C4;" />
<polygon data-section="Mezzanine Center L-O, Side H-K" data-priority="2" class="57855" points="467.0,780.0 480.0,779.0 493.0,778.0 506.0,776.0 519.0,774.0 532.0,771.0 545.0,768.0 558.0,764.0 571.0,760.0 584.0,755.0 597.0,750.0 597.0,733.0 545.0,734.0 467.0,746.0 467.0,763.0 467.0,780.0" style="fill:#C4C4C4;" />
</g>
<g class="grouped-Orchestra Center V-W, Rear Side S-T, Outer Side K-O/Mezzanine Center L-O, Side H">
<polygon data-section="Orchestra Center V-W, Rear Side S-T, Outer Side K-O/Mezzanine Center L-O, Side H" data-priority="3" class="57850" points="266.0,560.0 292.0,561.0 318.0,562.0 331.0,562.0 344.0,562.0 357.0,562.0 370.0,562.0 422.0,559.0 435.0,558.0 435.0,541.0 409.0,542.0 279.0,543.0 253.0,542.0 253.0,559.0 266.0,560.0" style="fill:#C4C4C4;" />
<polygon data-section="Orchestra Center V-W, Rear Side S-T, Outer Side K-O/Mezzanine Center L-O, Side H" data-priority="3" class="57850" points="105.0,478.0 118.0,483.0 131.0,487.0 144.0,491.0 157.0,494.0 183.0,499.0 196.0,501.0 209.0,503.0 222.0,504.0 221.0,487.0 195.0,484.0 78.0,450.0 79.0,467.0 92.0,473.0 105.0,478.0" style="fill:#C4C4C4;" />
<polygon data-section="Orchestra Center V-W, Rear Side S-T, Outer Side K-O/Mezzanine Center L-O, Side H" data-priority="3" class="57850" points="480.0,486.0 467.0,487.0 467.0,504.0 480.0,503.0 493.0,502.0 506.0,500.0 532.0,495.0 545.0,492.0 558.0,488.0 571.0,484.0 584.0,479.0 597.0,474.0 610.0,468.0 610.0,451.0 584.0,462.0 480.0,486.0" style="fill:#C4C4C4;" />
<polygon data-section="Orchestra Center V-W, Rear Side S-T, Outer Side K-O/Mezzanine Center L-O, Side H" data-priority="3" class="57850" points="65.0,342.0 65.0,359.0 65.0,376.0 78.0,382.0 91.0,388.0 104.0,393.0 117.0,398.0 130.0,402.0 143.0,406.0 156.0,409.0 169.0,412.0 182.0,414.0 195.0,416.0 208.0,418.0 221.0,419.0 221.0,402.0 221.0,385.0 221.0,368.0 221.0,351.0 195.0,348.0 182.0,346.0 104.0,325.0 78.0,314.0 65.0,308.0 65.0,325.0 65.0,342.0" style="fill:#C4C4C4;" />
<polygon data-section="Orchestra Center V-W, Rear Side S-T, Outer Side K-O/Mezzanine Center L-O, Side H" data-priority="3" class="57850" points="467.0,368.0 467.0,385.0 467.0,402.0 467.0,419.0 480.0,418.0 493.0,417.0 506.0,415.0 519.0,413.0 532.0,410.0 545.0,407.0 558.0,403.0 571.0,399.0 584.0,394.0 597.0,389.0 610.0,383.0 623.0,377.0 623.0,360.0 623.0,343.0 623.0,326.0 623.0,309.0 610.0,315.0 584.0,326.0 558.0,335.0 480.0,350.0 467.0,351.0 467.0,368.0" style="fill:#C4C4C4;" />
<polygon data-section="Orchestra Center V-W, Rear Side S-T, Outer Side K-O/Mezzanine Center L-O, Side H" data-priority="3" class="57850" points="253.0,801.0 253.0,818.0 253.0,835.0 253.0,852.0 266.0,853.0 292.0,854.0 318.0,855.0 331.0,855.0 344.0,855.0 357.0,855.0 370.0,855.0 422.0,852.0 435.0,851.0 435.0,834.0 435.0,817.0 435.0,800.0 409.0,801.0 305.0,803.0 279.0,802.0 253.0,801.0" style="fill:#C4C4C4;" />
<polygon data-section="Orchestra Center V-W, Rear Side S-T, Outer Side K-O/Mezzanine Center L-O, Side H" data-priority="3" class="57850" points="467.0,729.0 467.0,746.0 467.0,763.0 480.0,762.0 493.0,761.0 506.0,759.0 519.0,757.0 532.0,754.0 545.0,751.0 558.0,747.0 571.0,743.0 545.0,717.0 467.0,729.0" style="fill:#C4C4C4;" />
<polygon data-section="Orchestra Center V-W, Rear Side S-T, Outer Side K-O/Mezzanine Center L-O, Side H" data-priority="3" class="57850" points="117.0,742.0 130.0,746.0 143.0,750.0 156.0,753.0 169.0,756.0 182.0,758.0 195.0,760.0 208.0,762.0 221.0,763.0 221.0,746.0 221.0,729.0 143.0,716.0 117.0,742.0" style="fill:#C4C4C4;" />
</g>
<g class="grouped-Mezzanine Center H-K, Far Side C-D, Side G">
<polygon data-section="Mezzanine Center H-K, Far Side C-D, Side G" data-priority="4" class="57851" points="253.0,767.0 253.0,784.0 266.0,785.0 292.0,786.0 318.0,787.0 331.0,787.0 344.0,787.0 357.0,787.0 370.0,787.0 422.0,784.0 435.0,783.0 435.0,766.0 435.0,749.0 409.0,750.0 305.0,752.0 279.0,751.0 253.0,750.0 253.0,767.0" style="fill:#C4C4C4;" />
<polygon data-section="Mezzanine Center H-K, Far Side C-D, Side G" data-priority="4" class="57851" points="65.0,635.0 78.0,641.0 91.0,647.0 104.0,652.0 104.0,635.0 65.0,618.0 65.0,635.0" style="fill:#C4C4C4;" />
<polygon data-section="Mezzanine Center H-K, Far Side C-D, Side G" data-priority="4" class="57851" points="623.0,619.0 584.0,636.0 584.0,653.0 597.0,648.0 610.0,642.0 623.0,636.0 623.0,619.0" style="fill:#C4C4C4;" />
<polygon data-section="Mezzanine Center H-K, Far Side C-D, Side G" data-priority="4" class="57851" points="493.0,744.0 506.0,742.0 519.0,740.0 532.0,737.0 545.0,734.0 545.0,717.0 467.0,729.0 467.0,746.0 480.0,745.0 493.0,744.0" style="fill:#C4C4C4;" />
<polygon data-section="Mezzanine Center H-K, Far Side C-D, Side G" data-priority="4" class="57851" points="143.0,716.0 143.0,733.0 156.0,736.0 169.0,739.0 182.0,741.0 195.0,743.0 208.0,745.0 221.0,746.0 221.0,729.0 143.0,716.0" style="fill:#C4C4C4;" />
</g>
<g class="grouped-Orchestra Center P-R, Side K-O/Mezzanine Center E-G, Far Side A-B, Side C-D">
<polygon data-section="Orchestra Center P-R, Side K-O/Mezzanine Center E-G, Far Side A-B, Side C-D" data-priority="4" class="57852" points="266.0,475.0 292.0,476.0 318.0,477.0 331.0,477.0 344.0,477.0 357.0,477.0 370.0,477.0 422.0,474.0 435.0,473.0 435.0,456.0 435.0,439.0 409.0,440.0 305.0,442.0 279.0,441.0 253.0,440.0 253.0,457.0 253.0,474.0 266.0,475.0" style="fill:#C4C4C4;" />
<polygon data-section="Orchestra Center P-R, Side K-O/Mezzanine Center E-G, Far Side A-B, Side C-D" data-priority="4" class="57852" points="65.0,342.0 65.0,359.0 65.0,376.0 78.0,382.0 91.0,388.0 104.0,393.0 117.0,398.0 130.0,402.0 143.0,406.0 156.0,409.0 169.0,412.0 182.0,414.0 195.0,416.0 208.0,418.0 221.0,419.0 221.0,402.0 221.0,385.0 221.0,368.0 221.0,351.0 195.0,348.0 182.0,346.0 104.0,325.0 78.0,314.0 65.0,308.0 65.0,325.0 65.0,342.0" style="fill:#C4C4C4;" />
<polygon data-section="Orchestra Center P-R, Side K-O/Mezzanine Center E-G, Far Side A-B, Side C-D" data-priority="4" class="57852" points="467.0,368.0 467.0,385.0 467.0,402.0 467.0,419.0 480.0,418.0 493.0,417.0 506.0,415.0 519.0,413.0 532.0,410.0 545.0,407.0 558.0,403.0 571.0,399.0 584.0,394.0 597.0,389.0 610.0,383.0 623.0,377.0 623.0,360.0 623.0,343.0 623.0,326.0 623.0,309.0 610.0,315.0 584.0,326.0 558.0,335.0 480.0,350.0 467.0,351.0 467.0,368.0" style="fill:#C4C4C4;" />
<polygon data-section="Orchestra Center P-R, Side K-O/Mezzanine Center E-G, Far Side A-B, Side C-D" data-priority="4" class="57852" points="266.0,734.0 292.0,735.0 318.0,736.0 331.0,736.0 344.0,736.0 357.0,736.0 370.0,736.0 422.0,733.0 435.0,732.0 435.0,715.0 435.0,698.0 409.0,699.0 305.0,701.0 279.0,700.0 253.0,699.0 253.0,716.0 253.0,733.0 266.0,734.0" style="fill:#C4C4C4;" />
<polygon data-section="Orchestra Center P-R, Side K-O/Mezzanine Center E-G, Far Side A-B, Side C-D" data-priority="4" class="57852" points="65.0,635.0 78.0,641.0 91.0,647.0 104.0,652.0 117.0,657.0 130.0,661.0 143.0,665.0 156.0,668.0 169.0,671.0 182.0,673.0 195.0,675.0 208.0,677.0 221.0,678.0 221.0,661.0 208.0,660.0 117.0,606.0 104.0,601.0 91.0,596.0 78.0,607.0 65.0,618.0 65.0,635.0" style="fill:#C4C4C4;" />
<polygon data-section="Orchestra Center P-R, Side K-O/Mezzanine Center E-G, Far Side A-B, Side C-D" data-priority="4" class="57852" points="467.0,661.0 467.0,678.0 480.0,677.0 493.0,676.0 506.0,674.0 519.0,672.0 532.0,669.0 545.0,666.0 558.0,662.0 571.0,658.0 584.0,653.0 597.0,648.0 610.0,642.0 623.0,636.0 623.0,619.0 610.0,608.0 597.0,597.0 584.0,602.0 571.0,607.0 480.0,660.0 467.0,661.0" style="fill:#C4C4C4;" />
</g>
</g></g></svg>