<svg viewbox="0 0 671.0 906.488" xmlns="http://www.w3.org/2000/svg">
<g id="stage">
<rect x="200" y="0" width="271.0" height="100" fill="#222222" />
<text font-size="28px" x="335.5" y="50.0" text-anchor="middle" fill="#ffffff" dominant-baseline="middle">STAGE</text>
</g>
<g transform="translate(0, 100)">
<g class="primary-clusters">
<text x="335.5" y="85" font-size="28px" text-anchor="middle" dominant-baseline="middle">ORCHESTRA</text><text x="335.5" y="421.0" font-size="28px" text-anchor="middle" dominant-baseline="middle">MEZZANINE</text><text x="335.5" y="628.0" font-size="28px" text-anchor="middle" dominant-baseline="middle">BALCONY</text><g class="grouped-orchestra cluster0">
<polygon data-section="orchestra" data-priority="-1" class="n/a" points="81.0,342.0 94.0,346.0 107.0,350.0 120.0,353.0 133.0,356.0 146.0,359.0 159.0,362.0 172.0,364.0 185.0,366.0 198.0,368.0 211.0,370.0 211.0,353.0 211.0,336.0 202.0,302.0 199.0,285.0 198.0,198.0 222.0,132.0 226.0,115.0 187.0,110.0 144.0,119.0 107.0,163.0 64.0,236.0 75.0,290.0 81.0,342.0" style="fill:#C4C4C4;" />
</g>
<g class="grouped-orchestra cluster1">
<polygon data-section="orchestra" data-priority="-1" class="n/a" points="225.0,236.0 225.0,253.0 225.0,270.0 238.0,305.0 264.0,374.0 290.0,375.0 316.0,376.0 329.0,376.0 342.0,376.0 355.0,376.0 381.0,375.0 407.0,374.0 427.0,323.0 440.0,288.0 446.0,270.0 446.0,253.0 446.0,236.0 446.0,219.0 440.0,186.0 427.0,152.0 414.0,135.0 388.0,136.0 362.0,137.0 297.0,137.0 271.0,136.0 258.0,136.0 245.0,152.0 238.0,168.0 232.0,186.0 225.0,219.0 225.0,236.0" style="fill:#C4C4C4;" />
</g>
<g class="grouped-orchestra cluster2">
<polygon data-section="orchestra" data-priority="-1" class="n/a" points="469.0,302.0 460.0,336.0 460.0,353.0 460.0,370.0 473.0,368.0 486.0,366.0 499.0,364.0 512.0,362.0 525.0,359.0 538.0,356.0 551.0,353.0 564.0,350.0 577.0,346.0 590.0,342.0 596.0,290.0 607.0,236.0 564.0,163.0 527.0,119.0 484.0,110.0 445.0,115.0 449.0,132.0 473.0,198.0 472.0,285.0 469.0,302.0" style="fill:#C4C4C4;" />
</g>
<g class="grouped-mezzanine cluster0">
<polygon data-section="mezzanine" data-priority="-1" class="n/a" points="63.0,516.0 63.0,533.0 76.0,556.0 89.0,562.0 102.0,567.0 115.0,572.0 128.0,576.0 141.0,580.0 219.0,576.0 219.0,559.0 219.0,542.0 219.0,525.0 219.0,508.0 219.0,491.0 219.0,474.0 219.0,457.0 193.0,454.0 180.0,452.0 102.0,431.0 89.0,426.0 63.0,431.0 63.0,448.0 63.0,465.0 63.0,482.0 63.0,499.0 63.0,516.0" style="fill:#C4C4C4;" />
</g>
<g class="grouped-mezzanine cluster1">
<polygon data-section="mezzanine" data-priority="-1" class="n/a" points="251.0,546.0 251.0,563.0 251.0,580.0 264.0,581.0 290.0,582.0 316.0,583.0 329.0,583.0 342.0,583.0 355.0,583.0 381.0,582.0 407.0,581.0 420.0,580.0 420.0,563.0 420.0,546.0 420.0,529.0 420.0,512.0 420.0,495.0 420.0,478.0 420.0,461.0 394.0,462.0 303.0,463.0 277.0,462.0 251.0,461.0 251.0,478.0 251.0,495.0 251.0,512.0 251.0,529.0 251.0,546.0" style="fill:#C4C4C4;" />
</g>
<g class="grouped-mezzanine cluster2">
<polygon data-section="mezzanine" data-priority="-1" class="n/a" points="452.0,508.0 452.0,525.0 452.0,542.0 452.0,559.0 530.0,563.0 543.0,559.0 556.0,555.0 569.0,550.0 582.0,545.0 595.0,539.0 608.0,533.0 608.0,516.0 608.0,499.0 608.0,482.0 608.0,465.0 608.0,448.0 608.0,431.0 582.0,426.0 569.0,431.0 491.0,452.0 478.0,454.0 452.0,457.0 452.0,474.0 452.0,491.0 452.0,508.0" style="fill:#C4C4C4;" />
</g>
<g class="grouped-balcony cluster0">
<polygon data-section="balcony" data-priority="-1" class="n/a" points="88.0,657.0 101.0,661.0 114.0,664.0 127.0,667.0 140.0,670.0 153.0,673.0 166.0,676.0 179.0,678.0 192.0,680.0 205.0,682.0 218.0,684.0 231.0,685.0 244.0,686.0 257.0,687.0 283.0,672.0 270.0,671.0 257.0,670.0 127.0,650.0 75.0,636.0 62.0,632.0 62.0,649.0 75.0,653.0 88.0,657.0" style="fill:#C4C4C4;" />
</g>
<g class="grouped-balcony cluster1">
<polygon data-section="balcony" data-priority="-1" class="n/a" points="426.0,669.0 387.0,672.0 413.0,688.0 452.0,684.0 465.0,682.0 478.0,680.0 491.0,678.0 517.0,673.0 530.0,670.0 543.0,667.0 556.0,664.0 582.0,657.0 595.0,653.0 608.0,648.0 608.0,631.0 504.0,658.0 426.0,669.0" style="fill:#C4C4C4;" />
</g>
</g>
<g class="tour-sections"><g class="grouped-Balcony">
<polygon data-section="Balcony" data-priority="0" class="49006" points="88.0,657.0 101.0,661.0 114.0,664.0 127.0,667.0 140.0,670.0 153.0,673.0 166.0,676.0 179.0,678.0 192.0,680.0 205.0,682.0 218.0,684.0 231.0,685.0 244.0,686.0 257.0,687.0 283.0,672.0 270.0,671.0 257.0,670.0 127.0,650.0 75.0,636.0 62.0,632.0 62.0,649.0 75.0,653.0 88.0,657.0" style="fill:#C4C4C4;" />
<polygon data-section="Balcony" data-priority="0" class="49006" points="426.0,669.0 387.0,672.0 413.0,688.0 452.0,684.0 465.0,682.0 478.0,680.0 491.0,678.0 517.0,673.0 530.0,670.0 543.0,667.0 556.0,664.0 582.0,657.0 595.0,653.0 608.0,648.0 608.0,631.0 504.0,658.0 426.0,669.0" style="fill:#C4C4C4;" />
</g>
<g class="grouped-Orchestra Center Q-S">
<polygon data-section="Orchestra Center Q-S" data-priority="1" class="49031" points="264.0,357.0 264.0,374.0 290.0,375.0 316.0,376.0 329.0,376.0 342.0,376.0 355.0,376.0 381.0,375.0 407.0,374.0 407.0,357.0 407.0,340.0 394.0,340.0 303.0,341.0 277.0,340.0 264.0,340.0 264.0,357.0" style="fill:#C4C4C4;" />
</g>
<g class="grouped-Mezzanine Center H, Sides B-H">
<polygon data-section="Mezzanine Center H, Sides B-H" data-priority="2" class="18522" points="264.0,581.0 290.0,582.0 316.0,583.0 329.0,583.0 342.0,583.0 355.0,583.0 381.0,582.0 407.0,581.0 420.0,580.0 420.0,563.0 394.0,564.0 277.0,564.0 251.0,563.0 251.0,580.0 264.0,581.0" style="fill:#C4C4C4;" />
<polygon data-section="Mezzanine Center H, Sides B-H" data-priority="2" class="18522" points="452.0,542.0 452.0,559.0 530.0,563.0 543.0,559.0 556.0,555.0 569.0,550.0 582.0,545.0 595.0,539.0 608.0,533.0 608.0,516.0 608.0,499.0 608.0,482.0 608.0,465.0 608.0,448.0 608.0,431.0 595.0,437.0 569.0,448.0 491.0,469.0 478.0,471.0 452.0,474.0 452.0,491.0 452.0,508.0 452.0,525.0 452.0,542.0" style="fill:#C4C4C4;" />
<polygon data-section="Mezzanine Center H, Sides B-H" data-priority="2" class="18522" points="63.0,516.0 63.0,533.0 76.0,539.0 89.0,545.0 102.0,550.0 115.0,555.0 128.0,559.0 141.0,563.0 154.0,566.0 167.0,569.0 180.0,571.0 193.0,573.0 206.0,575.0 219.0,576.0 219.0,559.0 219.0,542.0 219.0,525.0 219.0,508.0 219.0,491.0 219.0,474.0 193.0,471.0 180.0,469.0 102.0,448.0 76.0,437.0 63.0,431.0 63.0,448.0 63.0,465.0 63.0,482.0 63.0,499.0 63.0,516.0" style="fill:#C4C4C4;" />
</g>
<g class="grouped-Mezzanine Center F-G, Sides B-F">
<polygon data-section="Mezzanine Center F-G, Sides B-F" data-priority="2" class="38289" points="264.0,564.0 290.0,565.0 316.0,566.0 329.0,566.0 342.0,566.0 355.0,566.0 381.0,565.0 407.0,564.0 420.0,563.0 420.0,546.0 394.0,547.0 277.0,547.0 251.0,546.0 251.0,563.0 264.0,564.0" style="fill:#C4C4C4;" />
<polygon data-section="Mezzanine Center F-G, Sides B-F" data-priority="2" class="38289" points="63.0,465.0 63.0,482.0 63.0,499.0 76.0,505.0 89.0,511.0 102.0,516.0 115.0,521.0 128.0,525.0 141.0,529.0 154.0,532.0 167.0,535.0 180.0,537.0 193.0,539.0 206.0,541.0 219.0,542.0 219.0,525.0 219.0,508.0 219.0,491.0 219.0,474.0 193.0,471.0 180.0,469.0 102.0,448.0 76.0,437.0 63.0,431.0 63.0,448.0 63.0,465.0" style="fill:#C4C4C4;" />
<polygon data-section="Mezzanine Center F-G, Sides B-F" data-priority="2" class="38289" points="452.0,491.0 452.0,508.0 452.0,525.0 452.0,542.0 465.0,541.0 478.0,539.0 491.0,537.0 504.0,535.0 517.0,532.0 530.0,529.0 543.0,525.0 556.0,521.0 569.0,516.0 582.0,511.0 595.0,505.0 608.0,499.0 608.0,482.0 608.0,465.0 608.0,448.0 608.0,431.0 595.0,437.0 569.0,448.0 491.0,469.0 478.0,471.0 452.0,474.0 452.0,491.0" style="fill:#C4C4C4;" />
</g>
<g class="grouped-Orchestra Center J-L, Sides H-K">
<polygon data-section="Orchestra Center J-L, Sides H-K" data-priority="2" class="38290" points="225.0,270.0 238.0,271.0 251.0,272.0 264.0,273.0 290.0,274.0 316.0,275.0 329.0,275.0 342.0,275.0 355.0,275.0 381.0,274.0 407.0,273.0 420.0,272.0 433.0,271.0 446.0,270.0 446.0,253.0 446.0,236.0 394.0,239.0 368.0,240.0 277.0,239.0 225.0,236.0 225.0,253.0 225.0,270.0" style="fill:#C4C4C4;" />
<polygon data-section="Orchestra Center J-L, Sides H-K" data-priority="2" class="38290" points="103.0,196.0 90.0,227.0 103.0,231.0 116.0,234.0 129.0,237.0 142.0,240.0 155.0,243.0 168.0,245.0 181.0,247.0 194.0,249.0 194.0,232.0 194.0,215.0 103.0,196.0" style="fill:#C4C4C4;" />
<polygon data-section="Orchestra Center J-L, Sides H-K" data-priority="2" class="38290" points="477.0,232.0 477.0,249.0 490.0,247.0 503.0,245.0 516.0,243.0 529.0,240.0 542.0,237.0 555.0,234.0 568.0,231.0 581.0,227.0 568.0,196.0 477.0,215.0 477.0,232.0" style="fill:#C4C4C4;" />
</g>
<g class="grouped-Mezzanine Center D-E, Sides A-E">
<polygon data-section="Mezzanine Center D-E, Sides A-E" data-priority="2" class="49008" points="264.0,530.0 290.0,531.0 316.0,532.0 329.0,532.0 342.0,532.0 355.0,532.0 381.0,531.0 407.0,530.0 420.0,529.0 420.0,512.0 394.0,513.0 277.0,513.0 251.0,512.0 251.0,529.0 264.0,530.0" style="fill:#C4C4C4;" />
<polygon data-section="Mezzanine Center D-E, Sides A-E" data-priority="2" class="49008" points="63.0,448.0 63.0,465.0 63.0,482.0 76.0,488.0 89.0,494.0 102.0,499.0 115.0,504.0 128.0,508.0 141.0,512.0 154.0,515.0 167.0,518.0 180.0,520.0 193.0,522.0 206.0,524.0 219.0,525.0 219.0,508.0 219.0,491.0 219.0,474.0 219.0,457.0 193.0,454.0 102.0,431.0 89.0,426.0 63.0,431.0 63.0,448.0" style="fill:#C4C4C4;" />
<polygon data-section="Mezzanine Center D-E, Sides A-E" data-priority="2" class="49008" points="452.0,474.0 452.0,491.0 452.0,508.0 452.0,525.0 465.0,524.0 478.0,522.0 491.0,520.0 504.0,518.0 517.0,515.0 530.0,512.0 543.0,508.0 556.0,504.0 569.0,499.0 582.0,494.0 595.0,488.0 608.0,482.0 608.0,465.0 608.0,448.0 608.0,431.0 582.0,426.0 569.0,431.0 478.0,454.0 452.0,457.0 452.0,474.0" style="fill:#C4C4C4;" />
</g>
<g class="grouped-Orchestra Center Q-S/Mezzanine Center D-E, Sides A-E">
<polygon data-section="Orchestra Center Q-S/Mezzanine Center D-E, Sides A-E" data-priority="2" class="49033" points="264.0,357.0 264.0,374.0 290.0,375.0 316.0,376.0 329.0,376.0 342.0,376.0 355.0,376.0 381.0,375.0 407.0,374.0 407.0,357.0 407.0,340.0 394.0,340.0 303.0,341.0 277.0,340.0 264.0,340.0 264.0,357.0" style="fill:#C4C4C4;" />
<polygon data-section="Orchestra Center Q-S/Mezzanine Center D-E, Sides A-E" data-priority="2" class="49033" points="264.0,530.0 290.0,531.0 316.0,532.0 329.0,532.0 342.0,532.0 355.0,532.0 381.0,531.0 407.0,530.0 420.0,529.0 420.0,512.0 394.0,513.0 277.0,513.0 251.0,512.0 251.0,529.0 264.0,530.0" style="fill:#C4C4C4;" />
<polygon data-section="Orchestra Center Q-S/Mezzanine Center D-E, Sides A-E" data-priority="2" class="49033" points="63.0,448.0 63.0,465.0 63.0,482.0 76.0,488.0 89.0,494.0 102.0,499.0 115.0,504.0 128.0,508.0 141.0,512.0 154.0,515.0 167.0,518.0 180.0,520.0 193.0,522.0 206.0,524.0 219.0,525.0 219.0,508.0 219.0,491.0 219.0,474.0 219.0,457.0 193.0,454.0 102.0,431.0 89.0,426.0 63.0,431.0 63.0,448.0" style="fill:#C4C4C4;" />
<polygon data-section="Orchestra Center Q-S/Mezzanine Center D-E, Sides A-E" data-priority="2" class="49033" points="452.0,474.0 452.0,491.0 452.0,508.0 452.0,525.0 465.0,524.0 478.0,522.0 491.0,520.0 504.0,518.0 517.0,515.0 530.0,512.0 543.0,508.0 556.0,504.0 569.0,499.0 582.0,494.0 595.0,488.0 608.0,482.0 608.0,465.0 608.0,448.0 608.0,431.0 582.0,426.0 569.0,431.0 478.0,454.0 452.0,457.0 452.0,474.0" style="fill:#C4C4C4;" />
</g>
<g class="grouped-Orchestra Far Sides C-S">
<polygon data-section="Orchestra Far Sides C-S" data-priority="4" class="49032" points="81.0,342.0 94.0,346.0 107.0,350.0 107.0,333.0 107.0,316.0 116.0,234.0 157.0,122.0 144.0,119.0 107.0,163.0 64.0,236.0 81.0,342.0" style="fill:#C4C4C4;" />
<polygon data-section="Orchestra Far Sides C-S" data-priority="4" class="49032" points="555.0,234.0 564.0,316.0 564.0,333.0 564.0,350.0 577.0,346.0 590.0,342.0 607.0,236.0 564.0,163.0 527.0,119.0 514.0,122.0 555.0,234.0" style="fill:#C4C4C4;" />
</g>
<g class="grouped-Orchestra Far Sides P-S">
<polygon data-section="Orchestra Far Sides P-S" data-priority="4" class="55322" points="564.0,333.0 564.0,350.0 577.0,346.0 590.0,342.0 596.0,290.0 583.0,294.0 570.0,298.0 564.0,316.0 564.0,333.0" style="fill:#C4C4C4;" />
<polygon data-section="Orchestra Far Sides P-S" data-priority="4" class="55322" points="75.0,290.0 81.0,342.0 94.0,346.0 107.0,350.0 107.0,333.0 107.0,316.0 101.0,298.0 88.0,294.0 75.0,290.0" style="fill:#C4C4C4;" />
</g>
</g></g></svg>