<svg viewbox="0 0 727.0 885.7" xmlns="http://www.w3.org/2000/svg">
<g id="stage">
<rect x="200" y="0" width="327.0" height="100" fill="#222222" />
<text font-size="28px" x="363.5" y="50.0" text-anchor="middle" fill="#ffffff" dominant-baseline="middle">STAGE</text>
</g>
<g transform="translate(0, 100)">
<g class="primary-clusters">
<text x="363.5" y="85" font-size="28px" text-anchor="middle" dominant-baseline="middle">ORCHESTRA</text><text x="363.5" y="460.0" font-size="28px" text-anchor="middle" dominant-baseline="middle">MEZZANINE</text><g class="grouped-orchestra cluster0">
<polygon data-section="orchestra" data-priority="-1" class="n/a" points="88.0,279.0 88.0,296.0 88.0,313.0 101.0,370.0 114.0,376.0 127.0,381.0 140.0,386.0 153.0,390.0 166.0,394.0 244.0,390.0 244.0,373.0 244.0,356.0 244.0,339.0 244.0,322.0 244.0,305.0 244.0,288.0 244.0,271.0 244.0,254.0 244.0,237.0 244.0,220.0 244.0,203.0 244.0,186.0 244.0,169.0 244.0,152.0 244.0,135.0 244.0,118.0 231.0,117.0 205.0,130.0 127.0,160.0 114.0,189.0 101.0,234.0 88.0,279.0" style="fill:#C4C4C4;" />
</g>
<g class="grouped-orchestra cluster1">
<polygon data-section="orchestra" data-priority="-1" class="n/a" points="276.0,225.0 276.0,242.0 276.0,259.0 276.0,276.0 276.0,293.0 276.0,310.0 276.0,327.0 276.0,344.0 276.0,361.0 289.0,413.0 315.0,414.0 341.0,415.0 380.0,415.0 406.0,414.0 432.0,413.0 445.0,361.0 445.0,344.0 445.0,327.0 445.0,310.0 445.0,293.0 445.0,276.0 445.0,259.0 445.0,242.0 445.0,225.0 445.0,208.0 445.0,191.0 445.0,174.0 445.0,157.0 445.0,140.0 445.0,123.0 419.0,124.0 393.0,125.0 328.0,125.0 302.0,124.0 276.0,123.0 276.0,140.0 276.0,157.0 276.0,174.0 276.0,191.0 276.0,208.0 276.0,225.0" style="fill:#C4C4C4;" />
</g>
<g class="grouped-orchestra cluster2">
<polygon data-section="orchestra" data-priority="-1" class="n/a" points="477.0,220.0 477.0,237.0 477.0,254.0 477.0,271.0 477.0,288.0 477.0,305.0 477.0,322.0 477.0,338.0 477.0,355.0 490.0,371.0 503.0,387.0 516.0,385.0 529.0,383.0 542.0,380.0 555.0,377.0 568.0,373.0 581.0,369.0 594.0,364.0 607.0,359.0 620.0,353.0 633.0,347.0 633.0,330.0 633.0,313.0 633.0,296.0 633.0,280.0 633.0,263.0 633.0,229.0 620.0,184.0 581.0,149.0 503.0,116.0 490.0,117.0 477.0,118.0 477.0,135.0 477.0,152.0 477.0,169.0 477.0,186.0 477.0,203.0 477.0,220.0" style="fill:#C4C4C4;" />
</g>
<g class="grouped-mezzanine cluster0">
<polygon data-section="mezzanine" data-priority="-1" class="n/a" points="38.0,615.0 51.0,623.0 64.0,630.0 77.0,637.0 90.0,643.0 103.0,649.0 116.0,654.0 129.0,659.0 142.0,663.0 142.0,646.0 142.0,629.0 142.0,612.0 142.0,595.0 142.0,578.0 142.0,561.0 142.0,544.0 116.0,535.0 64.0,562.0 38.0,615.0" style="fill:#C4C4C4;" />
</g>
<g class="grouped-mezzanine cluster1">
<polygon data-section="mezzanine" data-priority="-1" class="n/a" points="174.0,621.0 174.0,638.0 174.0,655.0 187.0,658.0 200.0,660.0 213.0,662.0 226.0,664.0 239.0,666.0 252.0,668.0 265.0,669.0 278.0,670.0 291.0,671.0 304.0,671.0 317.0,671.0 330.0,671.0 343.0,671.0 343.0,654.0 343.0,637.0 343.0,620.0 343.0,603.0 343.0,586.0 343.0,569.0 330.0,569.0 317.0,569.0 226.0,562.0 213.0,560.0 174.0,553.0 174.0,570.0 174.0,587.0 174.0,604.0 174.0,621.0" style="fill:#C4C4C4;" />
</g>
<g class="grouped-mezzanine cluster2">
<polygon data-section="mezzanine" data-priority="-1" class="n/a" points="382.0,585.0 382.0,602.0 382.0,619.0 382.0,636.0 382.0,653.0 382.0,670.0 395.0,670.0 408.0,670.0 421.0,670.0 434.0,670.0 447.0,669.0 460.0,668.0 473.0,667.0 486.0,665.0 499.0,663.0 512.0,661.0 525.0,659.0 538.0,657.0 551.0,654.0 551.0,637.0 551.0,620.0 551.0,603.0 551.0,586.0 551.0,569.0 551.0,553.0 512.0,560.0 499.0,562.0 408.0,569.0 395.0,569.0 382.0,569.0 382.0,585.0" style="fill:#C4C4C4;" />
</g>
<g class="grouped-mezzanine cluster3">
<polygon data-section="mezzanine" data-priority="-1" class="n/a" points="583.0,612.0 583.0,629.0 583.0,646.0 583.0,663.0 596.0,659.0 609.0,654.0 622.0,649.0 635.0,643.0 648.0,637.0 661.0,630.0 674.0,623.0 687.0,615.0 661.0,562.0 609.0,535.0 583.0,544.0 583.0,561.0 583.0,578.0 583.0,595.0 583.0,612.0" style="fill:#C4C4C4;" />
</g>
<g class="grouped-mezzanine cluster4">
<polygon data-section="mezzanine" data-priority="-1" class="n/a" points="90.0,455.0 90.0,472.0 90.0,489.0 103.0,495.0 116.0,501.0 129.0,506.0 142.0,511.0 155.0,515.0 168.0,519.0 181.0,522.0 194.0,525.0 207.0,527.0 220.0,529.0 233.0,531.0 246.0,532.0 246.0,515.0 246.0,498.0 246.0,481.0 220.0,478.0 129.0,455.0 116.0,450.0 90.0,455.0" style="fill:#C4C4C4;" />
</g>
<g class="grouped-mezzanine cluster5">
<polygon data-section="mezzanine" data-priority="-1" class="n/a" points="291.0,535.0 317.0,536.0 343.0,537.0 356.0,537.0 369.0,537.0 382.0,537.0 408.0,536.0 434.0,535.0 447.0,534.0 447.0,518.0 447.0,502.0 447.0,485.0 421.0,486.0 330.0,487.0 304.0,486.0 278.0,485.0 278.0,502.0 278.0,518.0 278.0,534.0 291.0,535.0" style="fill:#C4C4C4;" />
</g>
<g class="grouped-mezzanine cluster6">
<polygon data-section="mezzanine" data-priority="-1" class="n/a" points="479.0,498.0 479.0,515.0 479.0,532.0 492.0,531.0 505.0,530.0 518.0,528.0 531.0,526.0 544.0,523.0 557.0,520.0 570.0,516.0 583.0,512.0 596.0,507.0 609.0,502.0 622.0,496.0 635.0,490.0 635.0,473.0 635.0,456.0 609.0,451.0 596.0,456.0 570.0,465.0 492.0,480.0 479.0,481.0 479.0,498.0" style="fill:#C4C4C4;" />
</g>
</g>
<g class="tour-sections"><g class="grouped-Mid Orchestra">
<polygon data-section="Mid Orchestra" data-priority="1" class="53080" points="101.0,234.0 101.0,251.0 114.0,274.0 127.0,279.0 140.0,284.0 153.0,288.0 166.0,292.0 179.0,295.0 192.0,298.0 205.0,300.0 218.0,302.0 231.0,304.0 244.0,305.0 244.0,288.0 244.0,271.0 244.0,254.0 244.0,237.0 244.0,220.0 218.0,217.0 127.0,194.0 114.0,189.0 101.0,234.0" style="fill:#C4C4C4;" />
<polygon data-section="Mid Orchestra" data-priority="1" class="53080" points="276.0,242.0 276.0,259.0 276.0,276.0 276.0,293.0 276.0,310.0 289.0,311.0 315.0,312.0 341.0,313.0 354.0,313.0 367.0,313.0 380.0,313.0 406.0,312.0 432.0,311.0 445.0,310.0 445.0,293.0 445.0,276.0 445.0,259.0 445.0,242.0 445.0,225.0 419.0,226.0 393.0,227.0 302.0,226.0 276.0,225.0 276.0,242.0" style="fill:#C4C4C4;" />
<polygon data-section="Mid Orchestra" data-priority="1" class="53080" points="477.0,237.0 477.0,254.0 477.0,271.0 477.0,288.0 477.0,305.0 490.0,304.0 503.0,303.0 516.0,301.0 529.0,299.0 542.0,296.0 555.0,293.0 568.0,289.0 581.0,285.0 594.0,280.0 607.0,275.0 620.0,269.0 633.0,263.0 633.0,229.0 620.0,184.0 594.0,195.0 568.0,204.0 490.0,219.0 477.0,220.0 477.0,237.0" style="fill:#C4C4C4;" />
</g>
<g class="grouped-Rear Mezzanine/Last Rows Mezzanine">
<polygon data-section="Rear Mezzanine/Last Rows Mezzanine" data-priority="1" class="53084" points="64.0,630.0 77.0,637.0 90.0,643.0 103.0,649.0 116.0,654.0 129.0,659.0 142.0,663.0 142.0,646.0 142.0,629.0 142.0,612.0 64.0,579.0 38.0,615.0 51.0,623.0 64.0,630.0" style="fill:#C4C4C4;" />
<polygon data-section="Rear Mezzanine/Last Rows Mezzanine" data-priority="1" class="53084" points="583.0,646.0 583.0,663.0 596.0,659.0 609.0,654.0 622.0,649.0 635.0,643.0 648.0,637.0 661.0,630.0 674.0,623.0 687.0,615.0 661.0,579.0 583.0,612.0 583.0,629.0 583.0,646.0" style="fill:#C4C4C4;" />
<polygon data-section="Rear Mezzanine/Last Rows Mezzanine" data-priority="1" class="53084" points="395.0,636.0 382.0,636.0 382.0,653.0 382.0,670.0 395.0,670.0 408.0,670.0 421.0,670.0 434.0,670.0 447.0,669.0 460.0,668.0 473.0,667.0 486.0,665.0 499.0,663.0 512.0,661.0 525.0,659.0 538.0,657.0 551.0,654.0 551.0,637.0 551.0,620.0 512.0,627.0 499.0,629.0 395.0,636.0" style="fill:#C4C4C4;" />
<polygon data-section="Rear Mezzanine/Last Rows Mezzanine" data-priority="1" class="53084" points="187.0,658.0 200.0,660.0 213.0,662.0 226.0,664.0 239.0,666.0 252.0,668.0 265.0,669.0 278.0,670.0 291.0,671.0 304.0,671.0 317.0,671.0 330.0,671.0 343.0,671.0 343.0,654.0 343.0,637.0 330.0,637.0 226.0,630.0 213.0,628.0 174.0,621.0 174.0,638.0 174.0,655.0 187.0,658.0" style="fill:#C4C4C4;" />
</g>
<g class="grouped-Mid Mezzanine">
<polygon data-section="Mid Mezzanine" data-priority="1" class="53085" points="382.0,585.0 382.0,602.0 382.0,619.0 395.0,619.0 408.0,619.0 421.0,619.0 434.0,619.0 447.0,618.0 460.0,617.0 473.0,616.0 486.0,614.0 499.0,612.0 512.0,610.0 525.0,608.0 538.0,606.0 551.0,603.0 551.0,586.0 551.0,569.0 551.0,553.0 512.0,560.0 499.0,562.0 395.0,569.0 382.0,569.0 382.0,585.0" style="fill:#C4C4C4;" />
<polygon data-section="Mid Mezzanine" data-priority="1" class="53085" points="583.0,578.0 583.0,595.0 596.0,591.0 609.0,586.0 622.0,581.0 635.0,575.0 609.0,535.0 583.0,544.0 583.0,561.0 583.0,578.0" style="fill:#C4C4C4;" />
<polygon data-section="Mid Mezzanine" data-priority="1" class="53085" points="174.0,604.0 187.0,607.0 200.0,609.0 213.0,611.0 226.0,613.0 239.0,615.0 252.0,617.0 265.0,618.0 278.0,619.0 291.0,620.0 304.0,620.0 317.0,620.0 330.0,620.0 343.0,620.0 343.0,603.0 343.0,586.0 343.0,569.0 330.0,569.0 226.0,562.0 213.0,560.0 174.0,553.0 174.0,570.0 174.0,587.0 174.0,604.0" style="fill:#C4C4C4;" />
<polygon data-section="Mid Mezzanine" data-priority="1" class="53085" points="90.0,575.0 103.0,581.0 116.0,586.0 129.0,591.0 142.0,595.0 142.0,578.0 142.0,561.0 142.0,544.0 116.0,535.0 90.0,575.0" style="fill:#C4C4C4;" />
</g>
<g class="grouped-Front Orchestra">
<polygon data-section="Front Orchestra" data-priority="1" class="53647" points="127.0,177.0 140.0,182.0 153.0,186.0 166.0,190.0 179.0,193.0 192.0,196.0 205.0,198.0 218.0,200.0 231.0,202.0 244.0,203.0 244.0,186.0 244.0,169.0 244.0,152.0 244.0,135.0 244.0,118.0 231.0,117.0 205.0,130.0 127.0,160.0 127.0,177.0" style="fill:#C4C4C4;" />
<polygon data-section="Front Orchestra" data-priority="1" class="53647" points="276.0,191.0 276.0,208.0 289.0,209.0 315.0,210.0 341.0,211.0 354.0,211.0 367.0,211.0 380.0,211.0 406.0,210.0 432.0,209.0 445.0,208.0 445.0,191.0 445.0,174.0 445.0,157.0 445.0,140.0 445.0,123.0 419.0,124.0 393.0,125.0 302.0,124.0 276.0,123.0 276.0,140.0 276.0,157.0 276.0,174.0 276.0,191.0" style="fill:#C4C4C4;" />
<polygon data-section="Front Orchestra" data-priority="1" class="53647" points="477.0,152.0 477.0,169.0 477.0,186.0 477.0,203.0 490.0,202.0 503.0,201.0 516.0,199.0 529.0,197.0 542.0,194.0 555.0,191.0 568.0,187.0 581.0,183.0 594.0,178.0 594.0,161.0 581.0,149.0 503.0,116.0 490.0,117.0 477.0,118.0 477.0,135.0 477.0,152.0" style="fill:#C4C4C4;" />
</g>
<g class="grouped-Last Rows Mezzanine">
<polygon data-section="Last Rows Mezzanine" data-priority="1" class="61068" points="609.0,654.0 622.0,649.0 635.0,643.0 648.0,637.0 661.0,630.0 674.0,623.0 687.0,615.0 661.0,613.0 583.0,646.0 583.0,663.0 596.0,659.0 609.0,654.0" style="fill:#C4C4C4;" />
<polygon data-section="Last Rows Mezzanine" data-priority="1" class="61068" points="64.0,630.0 77.0,637.0 90.0,643.0 103.0,649.0 116.0,654.0 129.0,659.0 142.0,663.0 142.0,646.0 64.0,613.0 38.0,615.0 51.0,623.0 64.0,630.0" style="fill:#C4C4C4;" />
</g>
<g class="grouped-Rear Mezzanine">
<polygon data-section="Rear Mezzanine" data-priority="1" class="61070" points="583.0,646.0 583.0,663.0 596.0,659.0 609.0,654.0 622.0,649.0 635.0,643.0 648.0,637.0 661.0,630.0 674.0,623.0 687.0,615.0 661.0,579.0 583.0,612.0 583.0,629.0 583.0,646.0" style="fill:#C4C4C4;" />
<polygon data-section="Rear Mezzanine" data-priority="1" class="61070" points="395.0,636.0 382.0,636.0 382.0,653.0 382.0,670.0 395.0,670.0 408.0,670.0 421.0,670.0 434.0,670.0 447.0,669.0 460.0,668.0 473.0,667.0 486.0,665.0 499.0,663.0 512.0,661.0 525.0,659.0 538.0,657.0 551.0,654.0 551.0,637.0 551.0,620.0 512.0,627.0 499.0,629.0 395.0,636.0" style="fill:#C4C4C4;" />
<polygon data-section="Rear Mezzanine" data-priority="1" class="61070" points="187.0,658.0 200.0,660.0 213.0,662.0 226.0,664.0 239.0,666.0 252.0,668.0 265.0,669.0 278.0,670.0 291.0,671.0 304.0,671.0 317.0,671.0 330.0,671.0 343.0,671.0 343.0,654.0 343.0,637.0 330.0,637.0 226.0,630.0 213.0,628.0 174.0,621.0 174.0,638.0 174.0,655.0 187.0,658.0" style="fill:#C4C4C4;" />
<polygon data-section="Rear Mezzanine" data-priority="1" class="61070" points="64.0,630.0 77.0,637.0 90.0,643.0 103.0,649.0 116.0,654.0 129.0,659.0 142.0,663.0 142.0,646.0 142.0,629.0 142.0,612.0 64.0,579.0 38.0,615.0 51.0,623.0 64.0,630.0" style="fill:#C4C4C4;" />
</g>
<g class="grouped-Mid Orchestra/Front Mezzanine Center">
<polygon data-section="Mid Orchestra/Front Mezzanine Center" data-priority="2" class="53081" points="101.0,234.0 101.0,251.0 114.0,274.0 127.0,279.0 140.0,284.0 153.0,288.0 166.0,292.0 179.0,295.0 192.0,298.0 205.0,300.0 218.0,302.0 231.0,304.0 244.0,305.0 244.0,288.0 244.0,271.0 244.0,254.0 244.0,237.0 244.0,220.0 218.0,217.0 127.0,194.0 114.0,189.0 101.0,234.0" style="fill:#C4C4C4;" />
<polygon data-section="Mid Orchestra/Front Mezzanine Center" data-priority="2" class="53081" points="276.0,242.0 276.0,259.0 276.0,276.0 276.0,293.0 276.0,310.0 289.0,311.0 315.0,312.0 341.0,313.0 354.0,313.0 367.0,313.0 380.0,313.0 406.0,312.0 432.0,311.0 445.0,310.0 445.0,293.0 445.0,276.0 445.0,259.0 445.0,242.0 445.0,225.0 419.0,226.0 393.0,227.0 302.0,226.0 276.0,225.0 276.0,242.0" style="fill:#C4C4C4;" />
<polygon data-section="Mid Orchestra/Front Mezzanine Center" data-priority="2" class="53081" points="477.0,237.0 477.0,254.0 477.0,271.0 477.0,288.0 477.0,305.0 490.0,304.0 503.0,303.0 516.0,301.0 529.0,299.0 542.0,296.0 555.0,293.0 568.0,289.0 581.0,285.0 594.0,280.0 607.0,275.0 620.0,269.0 633.0,263.0 633.0,229.0 620.0,184.0 594.0,195.0 568.0,204.0 490.0,219.0 477.0,220.0 477.0,237.0" style="fill:#C4C4C4;" />
<polygon data-section="Mid Orchestra/Front Mezzanine Center" data-priority="2" class="53081" points="278.0,534.0 291.0,535.0 317.0,536.0 343.0,537.0 356.0,537.0 369.0,537.0 382.0,537.0 408.0,536.0 434.0,535.0 447.0,534.0 447.0,518.0 447.0,502.0 434.0,486.0 421.0,486.0 395.0,487.0 304.0,486.0 291.0,486.0 278.0,502.0 278.0,518.0 278.0,534.0" style="fill:#C4C4C4;" />
</g>
<g class="grouped-Rear Orchestra Center">
<polygon data-section="Rear Orchestra Center" data-priority="2" class="53086" points="315.0,414.0 341.0,415.0 380.0,415.0 406.0,414.0 432.0,413.0 445.0,361.0 445.0,344.0 445.0,327.0 419.0,328.0 393.0,329.0 302.0,328.0 276.0,327.0 276.0,344.0 276.0,361.0 289.0,413.0 315.0,414.0" style="fill:#C4C4C4;" />
</g>
<g class="grouped-Front Mezzanine Center">
<polygon data-section="Front Mezzanine Center" data-priority="2" class="61062" points="278.0,534.0 291.0,535.0 317.0,536.0 343.0,537.0 356.0,537.0 369.0,537.0 382.0,537.0 408.0,536.0 434.0,535.0 447.0,534.0 447.0,518.0 447.0,502.0 434.0,486.0 421.0,486.0 395.0,487.0 304.0,486.0 291.0,486.0 278.0,502.0 278.0,518.0 278.0,534.0" style="fill:#C4C4C4;" />
</g>
<g class="grouped-Front Orchestra/Front Mezzanine Center">
<polygon data-section="Front Orchestra/Front Mezzanine Center" data-priority="2" class="61063" points="127.0,177.0 140.0,182.0 153.0,186.0 166.0,190.0 179.0,193.0 192.0,196.0 205.0,198.0 218.0,200.0 231.0,202.0 244.0,203.0 244.0,186.0 244.0,169.0 244.0,152.0 244.0,135.0 244.0,118.0 231.0,117.0 205.0,130.0 127.0,160.0 127.0,177.0" style="fill:#C4C4C4;" />
<polygon data-section="Front Orchestra/Front Mezzanine Center" data-priority="2" class="61063" points="276.0,191.0 276.0,208.0 289.0,209.0 315.0,210.0 341.0,211.0 354.0,211.0 367.0,211.0 380.0,211.0 406.0,210.0 432.0,209.0 445.0,208.0 445.0,191.0 445.0,174.0 445.0,157.0 445.0,140.0 445.0,123.0 419.0,124.0 393.0,125.0 302.0,124.0 276.0,123.0 276.0,140.0 276.0,157.0 276.0,174.0 276.0,191.0" style="fill:#C4C4C4;" />
<polygon data-section="Front Orchestra/Front Mezzanine Center" data-priority="2" class="61063" points="477.0,152.0 477.0,169.0 477.0,186.0 477.0,203.0 490.0,202.0 503.0,201.0 516.0,199.0 529.0,197.0 542.0,194.0 555.0,191.0 568.0,187.0 581.0,183.0 594.0,178.0 594.0,161.0 581.0,149.0 503.0,116.0 490.0,117.0 477.0,118.0 477.0,135.0 477.0,152.0" style="fill:#C4C4C4;" />
<polygon data-section="Front Orchestra/Front Mezzanine Center" data-priority="2" class="61063" points="278.0,534.0 291.0,535.0 317.0,536.0 343.0,537.0 356.0,537.0 369.0,537.0 382.0,537.0 408.0,536.0 434.0,535.0 447.0,534.0 447.0,518.0 447.0,502.0 434.0,486.0 421.0,486.0 395.0,487.0 304.0,486.0 291.0,486.0 278.0,502.0 278.0,518.0 278.0,534.0" style="fill:#C4C4C4;" />
</g>
<g class="grouped-Mid Orchestra Sides/Rear Orchestra Center">
<polygon data-section="Mid Orchestra Sides/Rear Orchestra Center" data-priority="3" class="53077" points="101.0,234.0 101.0,251.0 114.0,274.0 127.0,279.0 140.0,284.0 153.0,288.0 166.0,292.0 179.0,295.0 192.0,298.0 205.0,300.0 218.0,302.0 231.0,304.0 244.0,305.0 244.0,288.0 244.0,271.0 244.0,254.0 244.0,237.0 244.0,220.0 218.0,217.0 127.0,194.0 114.0,189.0 101.0,234.0" style="fill:#C4C4C4;" />
<polygon data-section="Mid Orchestra Sides/Rear Orchestra Center" data-priority="3" class="53077" points="477.0,237.0 477.0,254.0 477.0,271.0 477.0,288.0 477.0,305.0 490.0,304.0 503.0,303.0 516.0,301.0 529.0,299.0 542.0,296.0 555.0,293.0 568.0,289.0 581.0,285.0 594.0,280.0 607.0,275.0 620.0,269.0 633.0,263.0 633.0,229.0 620.0,184.0 594.0,195.0 568.0,204.0 490.0,219.0 477.0,220.0 477.0,237.0" style="fill:#C4C4C4;" />
<polygon data-section="Mid Orchestra Sides/Rear Orchestra Center" data-priority="3" class="53077" points="315.0,414.0 341.0,415.0 380.0,415.0 406.0,414.0 432.0,413.0 445.0,361.0 445.0,344.0 445.0,327.0 419.0,328.0 393.0,329.0 302.0,328.0 276.0,327.0 276.0,344.0 276.0,361.0 289.0,413.0 315.0,414.0" style="fill:#C4C4C4;" />
</g>
<g class="grouped-Front Mezzanine Sides">
<polygon data-section="Front Mezzanine Sides" data-priority="3" class="53078" points="90.0,489.0 103.0,495.0 116.0,501.0 129.0,506.0 142.0,511.0 155.0,515.0 168.0,519.0 181.0,522.0 194.0,525.0 207.0,527.0 220.0,529.0 233.0,531.0 246.0,532.0 246.0,515.0 246.0,498.0 246.0,481.0 220.0,478.0 129.0,455.0 116.0,450.0 90.0,455.0 90.0,472.0 90.0,489.0" style="fill:#C4C4C4;" />
<polygon data-section="Front Mezzanine Sides" data-priority="3" class="53078" points="479.0,498.0 479.0,515.0 479.0,532.0 492.0,531.0 505.0,530.0 518.0,528.0 531.0,526.0 544.0,523.0 557.0,520.0 570.0,516.0 583.0,512.0 596.0,507.0 609.0,502.0 622.0,496.0 635.0,490.0 635.0,473.0 635.0,456.0 609.0,451.0 596.0,456.0 570.0,465.0 492.0,480.0 479.0,481.0 479.0,498.0" style="fill:#C4C4C4;" />
</g>
<g class="grouped-Front Orchestra Sides">
<polygon data-section="Front Orchestra Sides" data-priority="3" class="53079" points="127.0,177.0 140.0,182.0 153.0,186.0 166.0,190.0 179.0,193.0 192.0,196.0 205.0,198.0 218.0,200.0 231.0,202.0 244.0,203.0 244.0,186.0 244.0,169.0 244.0,152.0 244.0,135.0 244.0,118.0 231.0,117.0 205.0,130.0 127.0,160.0 127.0,177.0" style="fill:#C4C4C4;" />
<polygon data-section="Front Orchestra Sides" data-priority="3" class="53079" points="477.0,152.0 477.0,169.0 477.0,186.0 477.0,203.0 490.0,202.0 503.0,201.0 516.0,199.0 529.0,197.0 542.0,194.0 555.0,191.0 568.0,187.0 581.0,183.0 594.0,178.0 594.0,161.0 581.0,149.0 503.0,116.0 490.0,117.0 477.0,118.0 477.0,135.0 477.0,152.0" style="fill:#C4C4C4;" />
</g>
<g class="grouped-Front Mezzanine Sides/Mid Mezzanine">
<polygon data-section="Front Mezzanine Sides/Mid Mezzanine" data-priority="3" class="61059" points="90.0,489.0 103.0,495.0 116.0,501.0 129.0,506.0 142.0,511.0 155.0,515.0 168.0,519.0 181.0,522.0 194.0,525.0 207.0,527.0 220.0,529.0 233.0,531.0 246.0,532.0 246.0,515.0 246.0,498.0 246.0,481.0 220.0,478.0 129.0,455.0 116.0,450.0 90.0,455.0 90.0,472.0 90.0,489.0" style="fill:#C4C4C4;" />
<polygon data-section="Front Mezzanine Sides/Mid Mezzanine" data-priority="3" class="61059" points="479.0,498.0 479.0,515.0 479.0,532.0 492.0,531.0 505.0,530.0 518.0,528.0 531.0,526.0 544.0,523.0 557.0,520.0 570.0,516.0 583.0,512.0 596.0,507.0 609.0,502.0 622.0,496.0 635.0,490.0 635.0,473.0 635.0,456.0 609.0,451.0 596.0,456.0 570.0,465.0 492.0,480.0 479.0,481.0 479.0,498.0" style="fill:#C4C4C4;" />
<polygon data-section="Front Mezzanine Sides/Mid Mezzanine" data-priority="3" class="61059" points="382.0,585.0 382.0,602.0 382.0,619.0 395.0,619.0 408.0,619.0 421.0,619.0 434.0,619.0 447.0,618.0 460.0,617.0 473.0,616.0 486.0,614.0 499.0,612.0 512.0,610.0 525.0,608.0 538.0,606.0 551.0,603.0 551.0,586.0 551.0,569.0 551.0,553.0 512.0,560.0 499.0,562.0 395.0,569.0 382.0,569.0 382.0,585.0" style="fill:#C4C4C4;" />
<polygon data-section="Front Mezzanine Sides/Mid Mezzanine" data-priority="3" class="61059" points="583.0,578.0 583.0,595.0 596.0,591.0 609.0,586.0 622.0,581.0 635.0,575.0 609.0,535.0 583.0,544.0 583.0,561.0 583.0,578.0" style="fill:#C4C4C4;" />
<polygon data-section="Front Mezzanine Sides/Mid Mezzanine" data-priority="3" class="61059" points="174.0,604.0 187.0,607.0 200.0,609.0 213.0,611.0 226.0,613.0 239.0,615.0 252.0,617.0 265.0,618.0 278.0,619.0 291.0,620.0 304.0,620.0 317.0,620.0 330.0,620.0 343.0,620.0 343.0,603.0 343.0,586.0 343.0,569.0 330.0,569.0 226.0,562.0 213.0,560.0 174.0,553.0 174.0,570.0 174.0,587.0 174.0,604.0" style="fill:#C4C4C4;" />
<polygon data-section="Front Mezzanine Sides/Mid Mezzanine" data-priority="3" class="61059" points="90.0,575.0 103.0,581.0 116.0,586.0 129.0,591.0 142.0,595.0 142.0,578.0 142.0,561.0 142.0,544.0 116.0,535.0 90.0,575.0" style="fill:#C4C4C4;" />
</g>
<g class="grouped-Front Orchestra Sides/Mid Orchestra Sides">
<polygon data-section="Front Orchestra Sides/Mid Orchestra Sides" data-priority="3" class="61060" points="114.0,189.0 101.0,234.0 101.0,251.0 114.0,274.0 127.0,279.0 140.0,284.0 153.0,288.0 166.0,292.0 179.0,295.0 192.0,298.0 205.0,300.0 218.0,302.0 231.0,304.0 244.0,305.0 244.0,288.0 244.0,271.0 244.0,254.0 244.0,237.0 244.0,220.0 244.0,203.0 244.0,186.0 244.0,169.0 244.0,152.0 244.0,135.0 244.0,118.0 231.0,117.0 205.0,130.0 127.0,160.0 114.0,189.0" style="fill:#C4C4C4;" />
<polygon data-section="Front Orchestra Sides/Mid Orchestra Sides" data-priority="3" class="61060" points="477.0,203.0 477.0,220.0 477.0,237.0 477.0,254.0 477.0,271.0 477.0,288.0 477.0,305.0 490.0,304.0 503.0,303.0 516.0,301.0 529.0,299.0 542.0,296.0 555.0,293.0 568.0,289.0 581.0,285.0 594.0,280.0 607.0,275.0 620.0,269.0 633.0,263.0 633.0,229.0 620.0,184.0 581.0,149.0 503.0,116.0 490.0,117.0 477.0,118.0 477.0,135.0 477.0,152.0 477.0,169.0 477.0,186.0 477.0,203.0" style="fill:#C4C4C4;" />
</g>
<g class="grouped-Front Orchestra Sides/Front Mezzanine Sides">
<polygon data-section="Front Orchestra Sides/Front Mezzanine Sides" data-priority="3" class="61061" points="127.0,177.0 140.0,182.0 153.0,186.0 166.0,190.0 179.0,193.0 192.0,196.0 205.0,198.0 218.0,200.0 231.0,202.0 244.0,203.0 244.0,186.0 244.0,169.0 244.0,152.0 244.0,135.0 244.0,118.0 231.0,117.0 205.0,130.0 127.0,160.0 127.0,177.0" style="fill:#C4C4C4;" />
<polygon data-section="Front Orchestra Sides/Front Mezzanine Sides" data-priority="3" class="61061" points="477.0,152.0 477.0,169.0 477.0,186.0 477.0,203.0 490.0,202.0 503.0,201.0 516.0,199.0 529.0,197.0 542.0,194.0 555.0,191.0 568.0,187.0 581.0,183.0 594.0,178.0 594.0,161.0 581.0,149.0 503.0,116.0 490.0,117.0 477.0,118.0 477.0,135.0 477.0,152.0" style="fill:#C4C4C4;" />
<polygon data-section="Front Orchestra Sides/Front Mezzanine Sides" data-priority="3" class="61061" points="90.0,489.0 103.0,495.0 116.0,501.0 129.0,506.0 142.0,511.0 155.0,515.0 168.0,519.0 181.0,522.0 194.0,525.0 207.0,527.0 220.0,529.0 233.0,531.0 246.0,532.0 246.0,515.0 246.0,498.0 246.0,481.0 220.0,478.0 129.0,455.0 116.0,450.0 90.0,455.0 90.0,472.0 90.0,489.0" style="fill:#C4C4C4;" />
<polygon data-section="Front Orchestra Sides/Front Mezzanine Sides" data-priority="3" class="61061" points="479.0,498.0 479.0,515.0 479.0,532.0 492.0,531.0 505.0,530.0 518.0,528.0 531.0,526.0 544.0,523.0 557.0,520.0 570.0,516.0 583.0,512.0 596.0,507.0 609.0,502.0 622.0,496.0 635.0,490.0 635.0,473.0 635.0,456.0 609.0,451.0 596.0,456.0 570.0,465.0 492.0,480.0 479.0,481.0 479.0,498.0" style="fill:#C4C4C4;" />
</g>
<g class="grouped-Rear Orchestra Sides/Rear Mezzanine/Last Rows Mezzanine">
<polygon data-section="Rear Orchestra Sides/Rear Mezzanine/Last Rows Mezzanine" data-priority="3" class="61064" points="477.0,338.0 477.0,355.0 490.0,371.0 503.0,387.0 516.0,385.0 529.0,383.0 542.0,380.0 555.0,377.0 568.0,373.0 581.0,369.0 594.0,364.0 607.0,359.0 620.0,353.0 633.0,347.0 633.0,330.0 633.0,313.0 633.0,296.0 633.0,280.0 620.0,286.0 594.0,297.0 568.0,306.0 490.0,321.0 477.0,322.0 477.0,338.0" style="fill:#C4C4C4;" />
<polygon data-section="Rear Orchestra Sides/Rear Mezzanine/Last Rows Mezzanine" data-priority="3" class="61064" points="88.0,279.0 88.0,296.0 88.0,313.0 101.0,370.0 114.0,376.0 127.0,381.0 140.0,386.0 153.0,390.0 166.0,394.0 244.0,390.0 244.0,373.0 244.0,356.0 244.0,339.0 244.0,322.0 218.0,319.0 205.0,317.0 127.0,296.0 101.0,285.0 88.0,279.0" style="fill:#C4C4C4;" />
<polygon data-section="Rear Orchestra Sides/Rear Mezzanine/Last Rows Mezzanine" data-priority="3" class="61064" points="64.0,630.0 77.0,637.0 90.0,643.0 103.0,649.0 116.0,654.0 129.0,659.0 142.0,663.0 142.0,646.0 142.0,629.0 142.0,612.0 64.0,579.0 38.0,615.0 51.0,623.0 64.0,630.0" style="fill:#C4C4C4;" />
<polygon data-section="Rear Orchestra Sides/Rear Mezzanine/Last Rows Mezzanine" data-priority="3" class="61064" points="583.0,646.0 583.0,663.0 596.0,659.0 609.0,654.0 622.0,649.0 635.0,643.0 648.0,637.0 661.0,630.0 674.0,623.0 687.0,615.0 661.0,579.0 583.0,612.0 583.0,629.0 583.0,646.0" style="fill:#C4C4C4;" />
<polygon data-section="Rear Orchestra Sides/Rear Mezzanine/Last Rows Mezzanine" data-priority="3" class="61064" points="395.0,636.0 382.0,636.0 382.0,653.0 382.0,670.0 395.0,670.0 408.0,670.0 421.0,670.0 434.0,670.0 447.0,669.0 460.0,668.0 473.0,667.0 486.0,665.0 499.0,663.0 512.0,661.0 525.0,659.0 538.0,657.0 551.0,654.0 551.0,637.0 551.0,620.0 512.0,627.0 499.0,629.0 395.0,636.0" style="fill:#C4C4C4;" />
<polygon data-section="Rear Orchestra Sides/Rear Mezzanine/Last Rows Mezzanine" data-priority="3" class="61064" points="187.0,658.0 200.0,660.0 213.0,662.0 226.0,664.0 239.0,666.0 252.0,668.0 265.0,669.0 278.0,670.0 291.0,671.0 304.0,671.0 317.0,671.0 330.0,671.0 343.0,671.0 343.0,654.0 343.0,637.0 330.0,637.0 226.0,630.0 213.0,628.0 174.0,621.0 174.0,638.0 174.0,655.0 187.0,658.0" style="fill:#C4C4C4;" />
</g>
<g class="grouped-Mid Orchestra Sides/Mid Mezzanine">
<polygon data-section="Mid Orchestra Sides/Mid Mezzanine" data-priority="3" class="61066" points="101.0,234.0 101.0,251.0 114.0,274.0 127.0,279.0 140.0,284.0 153.0,288.0 166.0,292.0 179.0,295.0 192.0,298.0 205.0,300.0 218.0,302.0 231.0,304.0 244.0,305.0 244.0,288.0 244.0,271.0 244.0,254.0 244.0,237.0 244.0,220.0 218.0,217.0 127.0,194.0 114.0,189.0 101.0,234.0" style="fill:#C4C4C4;" />
<polygon data-section="Mid Orchestra Sides/Mid Mezzanine" data-priority="3" class="61066" points="477.0,237.0 477.0,254.0 477.0,271.0 477.0,288.0 477.0,305.0 490.0,304.0 503.0,303.0 516.0,301.0 529.0,299.0 542.0,296.0 555.0,293.0 568.0,289.0 581.0,285.0 594.0,280.0 607.0,275.0 620.0,269.0 633.0,263.0 633.0,229.0 620.0,184.0 594.0,195.0 568.0,204.0 490.0,219.0 477.0,220.0 477.0,237.0" style="fill:#C4C4C4;" />
<polygon data-section="Mid Orchestra Sides/Mid Mezzanine" data-priority="3" class="61066" points="382.0,585.0 382.0,602.0 382.0,619.0 395.0,619.0 408.0,619.0 421.0,619.0 434.0,619.0 447.0,618.0 460.0,617.0 473.0,616.0 486.0,614.0 499.0,612.0 512.0,610.0 525.0,608.0 538.0,606.0 551.0,603.0 551.0,586.0 551.0,569.0 551.0,553.0 512.0,560.0 499.0,562.0 395.0,569.0 382.0,569.0 382.0,585.0" style="fill:#C4C4C4;" />
<polygon data-section="Mid Orchestra Sides/Mid Mezzanine" data-priority="3" class="61066" points="583.0,578.0 583.0,595.0 596.0,591.0 609.0,586.0 622.0,581.0 635.0,575.0 609.0,535.0 583.0,544.0 583.0,561.0 583.0,578.0" style="fill:#C4C4C4;" />
<polygon data-section="Mid Orchestra Sides/Mid Mezzanine" data-priority="3" class="61066" points="174.0,604.0 187.0,607.0 200.0,609.0 213.0,611.0 226.0,613.0 239.0,615.0 252.0,617.0 265.0,618.0 278.0,619.0 291.0,620.0 304.0,620.0 317.0,620.0 330.0,620.0 343.0,620.0 343.0,603.0 343.0,586.0 343.0,569.0 330.0,569.0 226.0,562.0 213.0,560.0 174.0,553.0 174.0,570.0 174.0,587.0 174.0,604.0" style="fill:#C4C4C4;" />
<polygon data-section="Mid Orchestra Sides/Mid Mezzanine" data-priority="3" class="61066" points="90.0,575.0 103.0,581.0 116.0,586.0 129.0,591.0 142.0,595.0 142.0,578.0 142.0,561.0 142.0,544.0 116.0,535.0 90.0,575.0" style="fill:#C4C4C4;" />
</g>
<g class="grouped-Rear Orchestra Sides">
<polygon data-section="Rear Orchestra Sides" data-priority="3" class="61067" points="477.0,338.0 477.0,355.0 490.0,371.0 503.0,387.0 516.0,385.0 529.0,383.0 542.0,380.0 555.0,377.0 568.0,373.0 581.0,369.0 594.0,364.0 607.0,359.0 620.0,353.0 633.0,347.0 633.0,330.0 633.0,313.0 633.0,296.0 633.0,280.0 620.0,286.0 594.0,297.0 568.0,306.0 490.0,321.0 477.0,322.0 477.0,338.0" style="fill:#C4C4C4;" />
<polygon data-section="Rear Orchestra Sides" data-priority="3" class="61067" points="88.0,279.0 88.0,296.0 88.0,313.0 101.0,370.0 114.0,376.0 127.0,381.0 140.0,386.0 153.0,390.0 166.0,394.0 244.0,390.0 244.0,373.0 244.0,356.0 244.0,339.0 244.0,322.0 218.0,319.0 205.0,317.0 127.0,296.0 101.0,285.0 88.0,279.0" style="fill:#C4C4C4;" />
</g>
<g class="grouped-Rear Orchestra Center/Rear Orchestra Sides">
<polygon data-section="Rear Orchestra Center/Rear Orchestra Sides" data-priority="3" class="61069" points="315.0,414.0 341.0,415.0 380.0,415.0 406.0,414.0 432.0,413.0 445.0,361.0 445.0,344.0 445.0,327.0 419.0,328.0 393.0,329.0 302.0,328.0 276.0,327.0 276.0,344.0 276.0,361.0 289.0,413.0 315.0,414.0" style="fill:#C4C4C4;" />
<polygon data-section="Rear Orchestra Center/Rear Orchestra Sides" data-priority="3" class="61069" points="477.0,338.0 477.0,355.0 490.0,371.0 503.0,387.0 516.0,385.0 529.0,383.0 542.0,380.0 555.0,377.0 568.0,373.0 581.0,369.0 594.0,364.0 607.0,359.0 620.0,353.0 633.0,347.0 633.0,330.0 633.0,313.0 633.0,296.0 633.0,280.0 620.0,286.0 594.0,297.0 568.0,306.0 490.0,321.0 477.0,322.0 477.0,338.0" style="fill:#C4C4C4;" />
<polygon data-section="Rear Orchestra Center/Rear Orchestra Sides" data-priority="3" class="61069" points="88.0,279.0 88.0,296.0 88.0,313.0 101.0,370.0 114.0,376.0 127.0,381.0 140.0,386.0 153.0,390.0 166.0,394.0 244.0,390.0 244.0,373.0 244.0,356.0 244.0,339.0 244.0,322.0 218.0,319.0 205.0,317.0 127.0,296.0 101.0,285.0 88.0,279.0" style="fill:#C4C4C4;" />
</g>
<g class="grouped-Front Orchestra Sides/Rear Orchestra Center">
<polygon data-section="Front Orchestra Sides/Rear Orchestra Center" data-priority="3" class="61073" points="127.0,177.0 140.0,182.0 153.0,186.0 166.0,190.0 179.0,193.0 192.0,196.0 205.0,198.0 218.0,200.0 231.0,202.0 244.0,203.0 244.0,186.0 244.0,169.0 244.0,152.0 244.0,135.0 244.0,118.0 231.0,117.0 205.0,130.0 127.0,160.0 127.0,177.0" style="fill:#C4C4C4;" />
<polygon data-section="Front Orchestra Sides/Rear Orchestra Center" data-priority="3" class="61073" points="477.0,152.0 477.0,169.0 477.0,186.0 477.0,203.0 490.0,202.0 503.0,201.0 516.0,199.0 529.0,197.0 542.0,194.0 555.0,191.0 568.0,187.0 581.0,183.0 594.0,178.0 594.0,161.0 581.0,149.0 503.0,116.0 490.0,117.0 477.0,118.0 477.0,135.0 477.0,152.0" style="fill:#C4C4C4;" />
<polygon data-section="Front Orchestra Sides/Rear Orchestra Center" data-priority="3" class="61073" points="315.0,414.0 341.0,415.0 380.0,415.0 406.0,414.0 432.0,413.0 445.0,361.0 445.0,344.0 445.0,327.0 419.0,328.0 393.0,329.0 302.0,328.0 276.0,327.0 276.0,344.0 276.0,361.0 289.0,413.0 315.0,414.0" style="fill:#C4C4C4;" />
</g>
</g></g></svg>