<svg viewbox="0 0 653.0 1101.632" xmlns="http://www.w3.org/2000/svg">
<g id="stage">
<rect x="200" y="0" width="253.0" height="100" fill="#222222" />
<text font-size="28px" x="326.5" y="50.0" text-anchor="middle" fill="#ffffff" dominant-baseline="middle">STAGE</text>
</g>
<g transform="translate(0, 100)">
<g class="primary-clusters">
<text x="326.5" y="85" font-size="28px" text-anchor="middle" dominant-baseline="middle">ORCHESTRA</text><text x="326.5" y="587.0" font-size="28px" text-anchor="middle" dominant-baseline="middle">MEZZANINE</text><g class="grouped-orchestra cluster0">
<polygon data-section="orchestra" data-priority="-1" class="n/a" points="87.0,307.0 87.0,324.0 87.0,341.0 87.0,358.0 87.0,375.0 87.0,392.0 87.0,409.0 87.0,426.0 113.0,452.0 126.0,456.0 139.0,459.0 152.0,462.0 165.0,464.0 178.0,466.0 191.0,468.0 204.0,469.0 204.0,452.0 204.0,435.0 204.0,418.0 204.0,401.0 204.0,384.0 204.0,367.0 204.0,350.0 204.0,333.0 204.0,316.0 204.0,299.0 204.0,282.0 204.0,265.0 204.0,248.0 219.0,129.0 224.0,112.0 198.0,109.0 167.0,122.0 144.0,136.0 113.0,197.0 87.0,273.0 87.0,290.0 87.0,307.0" style="fill:#C4C4C4;" />
</g>
<g class="grouped-orchestra cluster1">
<polygon data-section="orchestra" data-priority="-1" class="n/a" points="236.0,299.0 236.0,316.0 236.0,333.0 236.0,350.0 236.0,367.0 236.0,384.0 236.0,401.0 236.0,418.0 236.0,435.0 275.0,472.0 288.0,524.0 288.0,541.0 314.0,542.0 327.0,542.0 340.0,542.0 353.0,542.0 366.0,542.0 392.0,541.0 405.0,540.0 418.0,539.0 418.0,522.0 418.0,505.0 418.0,488.0 418.0,470.0 418.0,453.0 418.0,436.0 418.0,419.0 418.0,402.0 418.0,385.0 418.0,368.0 418.0,351.0 418.0,334.0 418.0,317.0 418.0,300.0 418.0,282.0 418.0,265.0 418.0,249.0 418.0,232.0 405.0,168.0 385.0,120.0 359.0,121.0 294.0,121.0 268.0,120.0 261.0,137.0 249.0,168.0 242.0,199.0 236.0,231.0 236.0,248.0 236.0,264.0 236.0,281.0 236.0,299.0" style="fill:#C4C4C4;" />
</g>
<g class="grouped-orchestra cluster2">
<polygon data-section="orchestra" data-priority="-1" class="n/a" points="450.0,247.0 450.0,264.0 450.0,281.0 450.0,298.0 450.0,315.0 450.0,332.0 450.0,349.0 450.0,366.0 450.0,383.0 450.0,400.0 450.0,417.0 450.0,434.0 463.0,450.0 528.0,456.0 541.0,452.0 554.0,448.0 567.0,443.0 567.0,426.0 567.0,409.0 567.0,392.0 567.0,375.0 567.0,358.0 567.0,341.0 567.0,324.0 567.0,307.0 567.0,290.0 567.0,273.0 541.0,197.0 510.0,136.0 488.0,122.0 456.0,109.0 443.0,110.0 430.0,111.0 450.0,213.0 450.0,230.0 450.0,247.0" style="fill:#C4C4C4;" />
</g>
<g class="grouped-mezzanine cluster0">
<polygon data-section="mezzanine" data-priority="-1" class="n/a" points="45.0,859.0 58.0,865.0 71.0,870.0 111.0,863.0 125.0,833.0 125.0,816.0 125.0,799.0 125.0,782.0 125.0,765.0 125.0,748.0 125.0,731.0 125.0,714.0 125.0,697.0 125.0,680.0 112.0,676.0 86.0,684.0 34.0,711.0 34.0,728.0 34.0,745.0 34.0,762.0 32.0,853.0 45.0,859.0" style="fill:#C4C4C4;" />
</g>
<g class="grouped-mezzanine cluster1">
<polygon data-section="mezzanine" data-priority="-1" class="n/a" points="60.0,588.0 60.0,605.0 60.0,622.0 73.0,628.0 86.0,633.0 99.0,638.0 112.0,642.0 125.0,646.0 125.0,629.0 125.0,612.0 125.0,595.0 125.0,578.0 60.0,554.0 60.0,571.0 60.0,588.0" style="fill:#C4C4C4;" />
</g>
<g class="grouped-mezzanine cluster2">
<polygon data-section="mezzanine" data-priority="-1" class="n/a" points="177.0,742.0 177.0,759.0 177.0,776.0 157.0,871.0 223.0,900.0 236.0,901.0 249.0,902.0 262.0,903.0 275.0,904.0 288.0,905.0 301.0,905.0 314.0,905.0 327.0,905.0 340.0,905.0 353.0,905.0 379.0,904.0 392.0,903.0 405.0,902.0 418.0,901.0 431.0,900.0 495.0,873.0 476.0,777.0 476.0,760.0 476.0,743.0 476.0,726.0 476.0,709.0 489.0,622.0 489.0,605.0 489.0,588.0 424.0,595.0 411.0,596.0 398.0,597.0 359.0,599.0 268.0,598.0 255.0,597.0 164.0,586.0 164.0,603.0 164.0,620.0 177.0,708.0 177.0,725.0 177.0,742.0" style="fill:#C4C4C4;" />
</g>
<g class="grouped-mezzanine cluster3">
<polygon data-section="mezzanine" data-priority="-1" class="n/a" points="527.0,748.0 527.0,765.0 527.0,782.0 527.0,799.0 527.0,816.0 527.0,833.0 541.0,863.0 580.0,867.0 593.0,862.0 606.0,857.0 619.0,851.0 619.0,833.0 618.0,745.0 618.0,728.0 618.0,711.0 566.0,684.0 540.0,676.0 527.0,680.0 527.0,697.0 527.0,714.0 527.0,731.0 527.0,748.0" style="fill:#C4C4C4;" />
</g>
<g class="grouped-mezzanine cluster4">
<polygon data-section="mezzanine" data-priority="-1" class="n/a" points="527.0,612.0 527.0,629.0 527.0,646.0 540.0,642.0 553.0,638.0 566.0,633.0 579.0,628.0 592.0,622.0 592.0,605.0 592.0,588.0 592.0,571.0 592.0,554.0 527.0,578.0 527.0,595.0 527.0,612.0" style="fill:#C4C4C4;" />
</g>
</g>
<g class="tour-sections"><g class="grouped-Rear Mezzanine">
<polygon data-section="Rear Mezzanine" data-priority="1" class="22653" points="236.0,901.0 249.0,902.0 262.0,903.0 275.0,904.0 288.0,905.0 301.0,905.0 314.0,905.0 327.0,905.0 340.0,905.0 353.0,905.0 379.0,904.0 392.0,903.0 405.0,902.0 418.0,901.0 431.0,900.0 495.0,873.0 476.0,811.0 424.0,816.0 411.0,817.0 398.0,818.0 359.0,820.0 255.0,818.0 242.0,817.0 177.0,810.0 157.0,871.0 223.0,900.0 236.0,901.0" style="fill:#C4C4C4;" />
<polygon data-section="Rear Mezzanine" data-priority="1" class="22653" points="527.0,833.0 541.0,863.0 580.0,867.0 593.0,862.0 606.0,857.0 619.0,851.0 619.0,833.0 618.0,762.0 527.0,799.0 527.0,816.0 527.0,833.0" style="fill:#C4C4C4;" />
<polygon data-section="Rear Mezzanine" data-priority="1" class="22653" points="45.0,859.0 58.0,865.0 71.0,870.0 111.0,863.0 125.0,833.0 125.0,816.0 125.0,799.0 34.0,762.0 32.0,853.0 45.0,859.0" style="fill:#C4C4C4;" />
</g>
<g class="grouped-Front Orchestra/Front Mezzanine">
<polygon data-section="Front Orchestra/Front Mezzanine" data-priority="1" class="38095" points="450.0,230.0 450.0,247.0 450.0,264.0 463.0,263.0 476.0,262.0 489.0,260.0 502.0,258.0 515.0,255.0 528.0,252.0 541.0,248.0 554.0,244.0 541.0,197.0 510.0,136.0 488.0,122.0 456.0,109.0 443.0,110.0 430.0,111.0 450.0,213.0 450.0,230.0" style="fill:#C4C4C4;" />
<polygon data-section="Front Orchestra/Front Mezzanine" data-priority="1" class="38095" points="236.0,248.0 236.0,264.0 249.0,265.0 262.0,266.0 275.0,267.0 288.0,268.0 314.0,269.0 327.0,269.0 340.0,269.0 353.0,269.0 379.0,268.0 392.0,267.0 405.0,266.0 418.0,265.0 418.0,249.0 418.0,232.0 405.0,168.0 385.0,120.0 359.0,121.0 294.0,121.0 268.0,120.0 261.0,137.0 249.0,168.0 242.0,199.0 236.0,231.0 236.0,248.0" style="fill:#C4C4C4;" />
<polygon data-section="Front Orchestra/Front Mezzanine" data-priority="1" class="38095" points="100.0,244.0 113.0,248.0 126.0,252.0 139.0,255.0 152.0,258.0 165.0,260.0 178.0,262.0 191.0,264.0 204.0,265.0 204.0,248.0 204.0,231.0 219.0,129.0 224.0,112.0 198.0,109.0 167.0,122.0 144.0,136.0 113.0,197.0 100.0,244.0" style="fill:#C4C4C4;" />
<polygon data-section="Front Orchestra/Front Mezzanine" data-priority="1" class="38095" points="164.0,620.0 177.0,708.0 190.0,710.0 203.0,712.0 216.0,713.0 229.0,714.0 242.0,715.0 255.0,716.0 268.0,717.0 281.0,718.0 294.0,719.0 307.0,719.0 320.0,719.0 333.0,719.0 346.0,719.0 372.0,718.0 385.0,717.0 398.0,716.0 411.0,715.0 424.0,714.0 437.0,713.0 450.0,712.0 463.0,711.0 476.0,709.0 489.0,622.0 489.0,605.0 489.0,588.0 424.0,595.0 411.0,596.0 398.0,597.0 359.0,599.0 268.0,598.0 255.0,597.0 164.0,586.0 164.0,603.0 164.0,620.0" style="fill:#C4C4C4;" />
<polygon data-section="Front Orchestra/Front Mezzanine" data-priority="1" class="38095" points="527.0,612.0 527.0,629.0 527.0,646.0 540.0,642.0 553.0,638.0 566.0,633.0 579.0,628.0 592.0,622.0 592.0,605.0 592.0,588.0 592.0,571.0 592.0,554.0 527.0,578.0 527.0,595.0 527.0,612.0" style="fill:#C4C4C4;" />
<polygon data-section="Front Orchestra/Front Mezzanine" data-priority="1" class="38095" points="99.0,689.0 112.0,693.0 125.0,697.0 125.0,680.0 112.0,676.0 86.0,684.0 99.0,689.0" style="fill:#C4C4C4;" />
<polygon data-section="Front Orchestra/Front Mezzanine" data-priority="1" class="38095" points="60.0,605.0 60.0,622.0 73.0,628.0 86.0,633.0 99.0,638.0 112.0,642.0 125.0,646.0 125.0,629.0 125.0,612.0 125.0,595.0 125.0,578.0 60.0,554.0 60.0,571.0 60.0,588.0 60.0,605.0" style="fill:#C4C4C4;" />
<polygon data-section="Front Orchestra/Front Mezzanine" data-priority="1" class="38095" points="540.0,676.0 527.0,680.0 527.0,697.0 540.0,693.0 553.0,689.0 566.0,684.0 540.0,676.0" style="fill:#C4C4C4;" />
</g>
<g class="grouped-Mid Mezzanine">
<polygon data-section="Mid Mezzanine" data-priority="1" class="38096" points="177.0,793.0 190.0,795.0 203.0,797.0 216.0,798.0 229.0,799.0 242.0,800.0 255.0,801.0 268.0,802.0 281.0,803.0 294.0,804.0 307.0,804.0 320.0,804.0 333.0,804.0 346.0,804.0 372.0,803.0 385.0,802.0 398.0,801.0 411.0,800.0 424.0,799.0 437.0,798.0 450.0,797.0 463.0,796.0 476.0,794.0 476.0,777.0 476.0,760.0 476.0,743.0 476.0,726.0 424.0,731.0 411.0,732.0 398.0,733.0 359.0,735.0 255.0,733.0 242.0,732.0 177.0,725.0 177.0,742.0 177.0,759.0 177.0,776.0 177.0,793.0" style="fill:#C4C4C4;" />
<polygon data-section="Mid Mezzanine" data-priority="1" class="38096" points="47.0,752.0 60.0,758.0 73.0,764.0 86.0,769.0 99.0,774.0 112.0,778.0 125.0,782.0 125.0,765.0 125.0,748.0 125.0,731.0 125.0,714.0 86.0,701.0 34.0,711.0 34.0,728.0 34.0,745.0 47.0,752.0" style="fill:#C4C4C4;" />
<polygon data-section="Mid Mezzanine" data-priority="1" class="38096" points="527.0,748.0 527.0,765.0 527.0,782.0 540.0,778.0 553.0,774.0 566.0,769.0 579.0,764.0 592.0,758.0 605.0,752.0 618.0,745.0 618.0,728.0 618.0,711.0 566.0,701.0 527.0,714.0 527.0,731.0 527.0,748.0" style="fill:#C4C4C4;" />
</g>
<g class="grouped-Front Orchestra/Mid Orchestra/Front Mezzanine">
<polygon data-section="Front Orchestra/Mid Orchestra/Front Mezzanine" data-priority="1" class="49635" points="450.0,247.0 450.0,264.0 450.0,281.0 450.0,298.0 450.0,315.0 450.0,332.0 450.0,349.0 450.0,366.0 450.0,383.0 463.0,382.0 476.0,381.0 489.0,379.0 502.0,377.0 515.0,374.0 528.0,371.0 541.0,367.0 554.0,363.0 567.0,358.0 567.0,341.0 567.0,324.0 567.0,307.0 567.0,290.0 567.0,273.0 541.0,197.0 510.0,136.0 488.0,122.0 456.0,109.0 443.0,110.0 430.0,111.0 450.0,213.0 450.0,230.0 450.0,247.0" style="fill:#C4C4C4;" />
<polygon data-section="Front Orchestra/Mid Orchestra/Front Mezzanine" data-priority="1" class="49635" points="236.0,281.0 236.0,299.0 236.0,316.0 236.0,333.0 236.0,350.0 236.0,367.0 236.0,384.0 249.0,385.0 262.0,386.0 275.0,387.0 288.0,388.0 314.0,389.0 327.0,389.0 340.0,389.0 353.0,389.0 379.0,388.0 392.0,387.0 405.0,386.0 418.0,385.0 418.0,368.0 418.0,351.0 418.0,334.0 418.0,317.0 418.0,300.0 418.0,282.0 418.0,265.0 418.0,249.0 418.0,232.0 405.0,168.0 385.0,120.0 359.0,121.0 294.0,121.0 268.0,120.0 261.0,137.0 249.0,168.0 242.0,199.0 236.0,231.0 236.0,248.0 236.0,264.0 236.0,281.0" style="fill:#C4C4C4;" />
<polygon data-section="Front Orchestra/Mid Orchestra/Front Mezzanine" data-priority="1" class="49635" points="87.0,307.0 87.0,324.0 87.0,341.0 87.0,358.0 100.0,363.0 113.0,367.0 126.0,371.0 139.0,374.0 152.0,377.0 165.0,379.0 178.0,381.0 191.0,383.0 204.0,384.0 204.0,367.0 204.0,350.0 204.0,333.0 204.0,316.0 204.0,299.0 204.0,282.0 204.0,265.0 204.0,248.0 204.0,231.0 219.0,129.0 224.0,112.0 198.0,109.0 167.0,122.0 144.0,136.0 113.0,197.0 87.0,273.0 87.0,290.0 87.0,307.0" style="fill:#C4C4C4;" />
<polygon data-section="Front Orchestra/Mid Orchestra/Front Mezzanine" data-priority="1" class="49635" points="164.0,620.0 177.0,708.0 190.0,710.0 203.0,712.0 216.0,713.0 229.0,714.0 242.0,715.0 255.0,716.0 268.0,717.0 281.0,718.0 294.0,719.0 307.0,719.0 320.0,719.0 333.0,719.0 346.0,719.0 372.0,718.0 385.0,717.0 398.0,716.0 411.0,715.0 424.0,714.0 437.0,713.0 450.0,712.0 463.0,711.0 476.0,709.0 489.0,622.0 489.0,605.0 489.0,588.0 424.0,595.0 411.0,596.0 398.0,597.0 359.0,599.0 268.0,598.0 255.0,597.0 164.0,586.0 164.0,603.0 164.0,620.0" style="fill:#C4C4C4;" />
<polygon data-section="Front Orchestra/Mid Orchestra/Front Mezzanine" data-priority="1" class="49635" points="527.0,612.0 527.0,629.0 527.0,646.0 540.0,642.0 553.0,638.0 566.0,633.0 579.0,628.0 592.0,622.0 592.0,605.0 592.0,588.0 592.0,571.0 592.0,554.0 527.0,578.0 527.0,595.0 527.0,612.0" style="fill:#C4C4C4;" />
<polygon data-section="Front Orchestra/Mid Orchestra/Front Mezzanine" data-priority="1" class="49635" points="99.0,689.0 112.0,693.0 125.0,697.0 125.0,680.0 112.0,676.0 86.0,684.0 99.0,689.0" style="fill:#C4C4C4;" />
<polygon data-section="Front Orchestra/Mid Orchestra/Front Mezzanine" data-priority="1" class="49635" points="60.0,605.0 60.0,622.0 73.0,628.0 86.0,633.0 99.0,638.0 112.0,642.0 125.0,646.0 125.0,629.0 125.0,612.0 125.0,595.0 125.0,578.0 60.0,554.0 60.0,571.0 60.0,588.0 60.0,605.0" style="fill:#C4C4C4;" />
<polygon data-section="Front Orchestra/Mid Orchestra/Front Mezzanine" data-priority="1" class="49635" points="540.0,676.0 527.0,680.0 527.0,697.0 540.0,693.0 553.0,689.0 566.0,684.0 540.0,676.0" style="fill:#C4C4C4;" />
</g>
<g class="grouped-Mid Mezzanine H-K">
<polygon data-section="Mid Mezzanine H-K" data-priority="1" class="52656" points="190.0,744.0 203.0,746.0 216.0,747.0 229.0,748.0 242.0,749.0 255.0,750.0 268.0,751.0 281.0,752.0 294.0,753.0 307.0,753.0 320.0,753.0 333.0,753.0 346.0,753.0 372.0,752.0 385.0,751.0 398.0,750.0 411.0,749.0 424.0,748.0 437.0,747.0 450.0,746.0 463.0,745.0 476.0,743.0 476.0,726.0 424.0,731.0 411.0,732.0 398.0,733.0 255.0,733.0 242.0,732.0 177.0,725.0 177.0,742.0 190.0,744.0" style="fill:#C4C4C4;" />
<polygon data-section="Mid Mezzanine H-K" data-priority="1" class="52656" points="566.0,718.0 566.0,701.0 527.0,714.0 527.0,731.0 540.0,727.0 553.0,723.0 566.0,718.0" style="fill:#C4C4C4;" />
<polygon data-section="Mid Mezzanine H-K" data-priority="1" class="52656" points="86.0,701.0 86.0,718.0 99.0,723.0 112.0,727.0 125.0,731.0 125.0,714.0 86.0,701.0" style="fill:#C4C4C4;" />
</g>
<g class="grouped-Last Rows Orchestra/Mid Mezzanine">
<polygon data-section="Last Rows Orchestra/Mid Mezzanine" data-priority="1" class="52665" points="288.0,524.0 288.0,541.0 314.0,542.0 327.0,542.0 340.0,542.0 353.0,542.0 366.0,542.0 392.0,541.0 405.0,540.0 418.0,539.0 418.0,522.0 301.0,524.0 288.0,524.0" style="fill:#C4C4C4;" />
<polygon data-section="Last Rows Orchestra/Mid Mezzanine" data-priority="1" class="52665" points="177.0,793.0 190.0,795.0 203.0,797.0 216.0,798.0 229.0,799.0 242.0,800.0 255.0,801.0 268.0,802.0 281.0,803.0 294.0,804.0 307.0,804.0 320.0,804.0 333.0,804.0 346.0,804.0 372.0,803.0 385.0,802.0 398.0,801.0 411.0,800.0 424.0,799.0 437.0,798.0 450.0,797.0 463.0,796.0 476.0,794.0 476.0,777.0 476.0,760.0 476.0,743.0 476.0,726.0 424.0,731.0 411.0,732.0 398.0,733.0 359.0,735.0 255.0,733.0 242.0,732.0 177.0,725.0 177.0,742.0 177.0,759.0 177.0,776.0 177.0,793.0" style="fill:#C4C4C4;" />
<polygon data-section="Last Rows Orchestra/Mid Mezzanine" data-priority="1" class="52665" points="47.0,752.0 60.0,758.0 73.0,764.0 86.0,769.0 99.0,774.0 112.0,778.0 125.0,782.0 125.0,765.0 125.0,748.0 125.0,731.0 125.0,714.0 86.0,701.0 34.0,711.0 34.0,728.0 34.0,745.0 47.0,752.0" style="fill:#C4C4C4;" />
<polygon data-section="Last Rows Orchestra/Mid Mezzanine" data-priority="1" class="52665" points="527.0,748.0 527.0,765.0 527.0,782.0 540.0,778.0 553.0,774.0 566.0,769.0 579.0,764.0 592.0,758.0 605.0,752.0 618.0,745.0 618.0,728.0 618.0,711.0 566.0,701.0 527.0,714.0 527.0,731.0 527.0,748.0" style="fill:#C4C4C4;" />
</g>
<g class="grouped-Last Rows Orchestra and Mid Mezzanine">
<polygon data-section="Last Rows Orchestra and Mid Mezzanine" data-priority="1" class="52667" points="288.0,524.0 288.0,541.0 314.0,542.0 327.0,542.0 340.0,542.0 353.0,542.0 366.0,542.0 392.0,541.0 405.0,540.0 418.0,539.0 418.0,522.0 301.0,524.0 288.0,524.0" style="fill:#C4C4C4;" />
<polygon data-section="Last Rows Orchestra and Mid Mezzanine" data-priority="1" class="52667" points="177.0,793.0 190.0,795.0 203.0,797.0 216.0,798.0 229.0,799.0 242.0,800.0 255.0,801.0 268.0,802.0 281.0,803.0 294.0,804.0 307.0,804.0 320.0,804.0 333.0,804.0 346.0,804.0 372.0,803.0 385.0,802.0 398.0,801.0 411.0,800.0 424.0,799.0 437.0,798.0 450.0,797.0 463.0,796.0 476.0,794.0 476.0,777.0 476.0,760.0 476.0,743.0 476.0,726.0 424.0,731.0 411.0,732.0 398.0,733.0 359.0,735.0 255.0,733.0 242.0,732.0 177.0,725.0 177.0,742.0 177.0,759.0 177.0,776.0 177.0,793.0" style="fill:#C4C4C4;" />
<polygon data-section="Last Rows Orchestra and Mid Mezzanine" data-priority="1" class="52667" points="47.0,752.0 60.0,758.0 73.0,764.0 86.0,769.0 99.0,774.0 112.0,778.0 125.0,782.0 125.0,765.0 125.0,748.0 125.0,731.0 125.0,714.0 86.0,701.0 34.0,711.0 34.0,728.0 34.0,745.0 47.0,752.0" style="fill:#C4C4C4;" />
<polygon data-section="Last Rows Orchestra and Mid Mezzanine" data-priority="1" class="52667" points="527.0,748.0 527.0,765.0 527.0,782.0 540.0,778.0 553.0,774.0 566.0,769.0 579.0,764.0 592.0,758.0 605.0,752.0 618.0,745.0 618.0,728.0 618.0,711.0 566.0,701.0 527.0,714.0 527.0,731.0 527.0,748.0" style="fill:#C4C4C4;" />
</g>
<g class="grouped-Mid Orchestra">
<polygon data-section="Mid Orchestra" data-priority="1" class="52670" points="450.0,298.0 450.0,315.0 450.0,332.0 450.0,349.0 450.0,366.0 450.0,383.0 463.0,382.0 476.0,381.0 489.0,379.0 502.0,377.0 515.0,374.0 528.0,371.0 541.0,367.0 554.0,363.0 567.0,358.0 567.0,341.0 567.0,324.0 567.0,307.0 567.0,290.0 567.0,273.0 554.0,261.0 541.0,265.0 463.0,280.0 450.0,281.0 450.0,298.0" style="fill:#C4C4C4;" />
<polygon data-section="Mid Orchestra" data-priority="1" class="52670" points="236.0,316.0 236.0,333.0 236.0,350.0 236.0,367.0 236.0,384.0 249.0,385.0 262.0,386.0 275.0,387.0 288.0,388.0 314.0,389.0 327.0,389.0 340.0,389.0 353.0,389.0 379.0,388.0 392.0,387.0 405.0,386.0 418.0,385.0 418.0,368.0 418.0,351.0 418.0,334.0 418.0,317.0 418.0,300.0 418.0,282.0 405.0,283.0 366.0,285.0 301.0,285.0 262.0,283.0 249.0,282.0 236.0,281.0 236.0,299.0 236.0,316.0" style="fill:#C4C4C4;" />
<polygon data-section="Mid Orchestra" data-priority="1" class="52670" points="87.0,307.0 87.0,324.0 87.0,341.0 87.0,358.0 100.0,363.0 113.0,367.0 126.0,371.0 139.0,374.0 152.0,377.0 165.0,379.0 178.0,381.0 191.0,383.0 204.0,384.0 204.0,367.0 204.0,350.0 204.0,333.0 204.0,316.0 204.0,299.0 204.0,282.0 178.0,279.0 100.0,261.0 87.0,273.0 87.0,290.0 87.0,307.0" style="fill:#C4C4C4;" />
</g>
<g class="grouped-Front Mezzanine">
<polygon data-section="Front Mezzanine" data-priority="1" class="52673" points="164.0,620.0 177.0,708.0 190.0,710.0 203.0,712.0 216.0,713.0 229.0,714.0 242.0,715.0 255.0,716.0 268.0,717.0 281.0,718.0 294.0,719.0 307.0,719.0 320.0,719.0 333.0,719.0 346.0,719.0 372.0,718.0 385.0,717.0 398.0,716.0 411.0,715.0 424.0,714.0 437.0,713.0 450.0,712.0 463.0,711.0 476.0,709.0 489.0,622.0 489.0,605.0 489.0,588.0 424.0,595.0 411.0,596.0 398.0,597.0 359.0,599.0 268.0,598.0 255.0,597.0 164.0,586.0 164.0,603.0 164.0,620.0" style="fill:#C4C4C4;" />
<polygon data-section="Front Mezzanine" data-priority="1" class="52673" points="527.0,612.0 527.0,629.0 527.0,646.0 540.0,642.0 553.0,638.0 566.0,633.0 579.0,628.0 592.0,622.0 592.0,605.0 592.0,588.0 592.0,571.0 592.0,554.0 527.0,578.0 527.0,595.0 527.0,612.0" style="fill:#C4C4C4;" />
<polygon data-section="Front Mezzanine" data-priority="1" class="52673" points="99.0,689.0 112.0,693.0 125.0,697.0 125.0,680.0 112.0,676.0 86.0,684.0 99.0,689.0" style="fill:#C4C4C4;" />
<polygon data-section="Front Mezzanine" data-priority="1" class="52673" points="60.0,605.0 60.0,622.0 73.0,628.0 86.0,633.0 99.0,638.0 112.0,642.0 125.0,646.0 125.0,629.0 125.0,612.0 125.0,595.0 125.0,578.0 60.0,554.0 60.0,571.0 60.0,588.0 60.0,605.0" style="fill:#C4C4C4;" />
<polygon data-section="Front Mezzanine" data-priority="1" class="52673" points="540.0,676.0 527.0,680.0 527.0,697.0 540.0,693.0 553.0,689.0 566.0,684.0 540.0,676.0" style="fill:#C4C4C4;" />
</g>
<g class="grouped-Rear Orchestra/Mid Mezzanine">
<polygon data-section="Rear Orchestra/Mid Mezzanine" data-priority="1" class="62254" points="450.0,417.0 450.0,434.0 463.0,450.0 528.0,456.0 541.0,452.0 554.0,448.0 567.0,443.0 567.0,426.0 567.0,409.0 567.0,392.0 567.0,375.0 541.0,384.0 463.0,399.0 450.0,400.0 450.0,417.0" style="fill:#C4C4C4;" />
<polygon data-section="Rear Orchestra/Mid Mezzanine" data-priority="1" class="62254" points="236.0,435.0 275.0,472.0 288.0,524.0 288.0,541.0 314.0,542.0 327.0,542.0 340.0,542.0 353.0,542.0 366.0,542.0 392.0,541.0 405.0,540.0 418.0,539.0 418.0,522.0 418.0,505.0 418.0,488.0 418.0,470.0 418.0,453.0 418.0,436.0 418.0,419.0 418.0,402.0 405.0,403.0 366.0,405.0 301.0,405.0 262.0,403.0 249.0,402.0 236.0,401.0 236.0,418.0 236.0,435.0" style="fill:#C4C4C4;" />
<polygon data-section="Rear Orchestra/Mid Mezzanine" data-priority="1" class="62254" points="87.0,409.0 87.0,426.0 113.0,452.0 126.0,456.0 139.0,459.0 152.0,462.0 165.0,464.0 178.0,466.0 191.0,468.0 204.0,469.0 204.0,452.0 204.0,435.0 204.0,418.0 204.0,401.0 178.0,398.0 87.0,375.0 87.0,392.0 87.0,409.0" style="fill:#C4C4C4;" />
<polygon data-section="Rear Orchestra/Mid Mezzanine" data-priority="1" class="62254" points="177.0,793.0 190.0,795.0 203.0,797.0 216.0,798.0 229.0,799.0 242.0,800.0 255.0,801.0 268.0,802.0 281.0,803.0 294.0,804.0 307.0,804.0 320.0,804.0 333.0,804.0 346.0,804.0 372.0,803.0 385.0,802.0 398.0,801.0 411.0,800.0 424.0,799.0 437.0,798.0 450.0,797.0 463.0,796.0 476.0,794.0 476.0,777.0 476.0,760.0 476.0,743.0 476.0,726.0 424.0,731.0 411.0,732.0 398.0,733.0 359.0,735.0 255.0,733.0 242.0,732.0 177.0,725.0 177.0,742.0 177.0,759.0 177.0,776.0 177.0,793.0" style="fill:#C4C4C4;" />
<polygon data-section="Rear Orchestra/Mid Mezzanine" data-priority="1" class="62254" points="47.0,752.0 60.0,758.0 73.0,764.0 86.0,769.0 99.0,774.0 112.0,778.0 125.0,782.0 125.0,765.0 125.0,748.0 125.0,731.0 125.0,714.0 86.0,701.0 34.0,711.0 34.0,728.0 34.0,745.0 47.0,752.0" style="fill:#C4C4C4;" />
<polygon data-section="Rear Orchestra/Mid Mezzanine" data-priority="1" class="62254" points="527.0,748.0 527.0,765.0 527.0,782.0 540.0,778.0 553.0,774.0 566.0,769.0 579.0,764.0 592.0,758.0 605.0,752.0 618.0,745.0 618.0,728.0 618.0,711.0 566.0,701.0 527.0,714.0 527.0,731.0 527.0,748.0" style="fill:#C4C4C4;" />
</g>
<g class="grouped-Mid Mezzanine Center L-P">
<polygon data-section="Mid Mezzanine Center L-P" data-priority="2" class="52653" points="190.0,795.0 203.0,797.0 216.0,798.0 229.0,799.0 242.0,800.0 255.0,801.0 268.0,802.0 281.0,803.0 294.0,804.0 307.0,804.0 320.0,804.0 333.0,804.0 346.0,804.0 372.0,803.0 385.0,802.0 398.0,801.0 411.0,800.0 424.0,799.0 437.0,798.0 450.0,797.0 463.0,796.0 476.0,794.0 476.0,777.0 476.0,760.0 424.0,765.0 411.0,766.0 398.0,767.0 359.0,769.0 255.0,767.0 242.0,766.0 177.0,759.0 177.0,776.0 177.0,793.0 190.0,795.0" style="fill:#C4C4C4;" />
</g>
<g class="grouped-Mid Premiums">
<polygon data-section="Mid Premiums" data-priority="2" class="52663" points="236.0,248.0 236.0,264.0 236.0,281.0 236.0,299.0 236.0,316.0 236.0,333.0 236.0,350.0 236.0,367.0 236.0,384.0 249.0,385.0 262.0,386.0 275.0,387.0 288.0,388.0 314.0,389.0 327.0,389.0 340.0,389.0 353.0,389.0 379.0,388.0 392.0,387.0 405.0,386.0 418.0,385.0 418.0,368.0 418.0,351.0 418.0,334.0 418.0,317.0 418.0,300.0 418.0,282.0 418.0,265.0 418.0,249.0 418.0,232.0 405.0,168.0 385.0,120.0 359.0,121.0 294.0,121.0 268.0,120.0 261.0,137.0 249.0,168.0 242.0,199.0 236.0,231.0 236.0,248.0" style="fill:#C4C4C4;" />
</g>
<g class="grouped-Premiums">
<polygon data-section="Premiums" data-priority="2" class="52664" points="236.0,248.0 236.0,264.0 249.0,265.0 262.0,266.0 275.0,267.0 288.0,268.0 314.0,269.0 327.0,269.0 340.0,269.0 353.0,269.0 379.0,268.0 392.0,267.0 405.0,266.0 418.0,265.0 418.0,249.0 418.0,232.0 405.0,168.0 385.0,120.0 359.0,121.0 294.0,121.0 268.0,120.0 261.0,137.0 249.0,168.0 242.0,199.0 236.0,231.0 236.0,248.0" style="fill:#C4C4C4;" />
</g>
<g class="grouped-Last Rows Orchestra/Mid Mezzanine Sides/Rear Mezzanine">
<polygon data-section="Last Rows Orchestra/Mid Mezzanine Sides/Rear Mezzanine" data-priority="3" class="52654" points="288.0,524.0 288.0,541.0 314.0,542.0 327.0,542.0 340.0,542.0 353.0,542.0 366.0,542.0 392.0,541.0 405.0,540.0 418.0,539.0 418.0,522.0 301.0,524.0 288.0,524.0" style="fill:#C4C4C4;" />
<polygon data-section="Last Rows Orchestra/Mid Mezzanine Sides/Rear Mezzanine" data-priority="3" class="52654" points="45.0,859.0 58.0,865.0 71.0,870.0 111.0,863.0 125.0,833.0 125.0,816.0 125.0,799.0 125.0,782.0 125.0,765.0 125.0,748.0 125.0,731.0 125.0,714.0 86.0,701.0 34.0,711.0 34.0,728.0 34.0,745.0 34.0,762.0 32.0,853.0 45.0,859.0" style="fill:#C4C4C4;" />
<polygon data-section="Last Rows Orchestra/Mid Mezzanine Sides/Rear Mezzanine" data-priority="3" class="52654" points="527.0,782.0 527.0,799.0 527.0,816.0 527.0,833.0 541.0,863.0 580.0,867.0 593.0,862.0 606.0,857.0 619.0,851.0 619.0,833.0 618.0,745.0 618.0,728.0 618.0,711.0 566.0,701.0 527.0,714.0 527.0,731.0 527.0,748.0 527.0,765.0 527.0,782.0" style="fill:#C4C4C4;" />
<polygon data-section="Last Rows Orchestra/Mid Mezzanine Sides/Rear Mezzanine" data-priority="3" class="52654" points="236.0,901.0 249.0,902.0 262.0,903.0 275.0,904.0 288.0,905.0 301.0,905.0 314.0,905.0 327.0,905.0 340.0,905.0 353.0,905.0 379.0,904.0 392.0,903.0 405.0,902.0 418.0,901.0 431.0,900.0 495.0,873.0 476.0,811.0 424.0,816.0 411.0,817.0 398.0,818.0 359.0,820.0 255.0,818.0 242.0,817.0 177.0,810.0 157.0,871.0 223.0,900.0 236.0,901.0" style="fill:#C4C4C4;" />
</g>
<g class="grouped-Mid Orchestra Sides/Rear Orchestra">
<polygon data-section="Mid Orchestra Sides/Rear Orchestra" data-priority="3" class="52655" points="450.0,349.0 450.0,366.0 450.0,383.0 450.0,400.0 450.0,417.0 450.0,434.0 463.0,450.0 528.0,456.0 541.0,452.0 554.0,448.0 567.0,443.0 567.0,426.0 567.0,409.0 567.0,392.0 567.0,375.0 567.0,358.0 567.0,341.0 567.0,324.0 567.0,307.0 567.0,290.0 567.0,273.0 554.0,261.0 541.0,265.0 463.0,280.0 450.0,281.0 450.0,298.0 450.0,315.0 450.0,332.0 450.0,349.0" style="fill:#C4C4C4;" />
<polygon data-section="Mid Orchestra Sides/Rear Orchestra" data-priority="3" class="52655" points="87.0,358.0 87.0,375.0 87.0,392.0 87.0,409.0 87.0,426.0 113.0,452.0 126.0,456.0 139.0,459.0 152.0,462.0 165.0,464.0 178.0,466.0 191.0,468.0 204.0,469.0 204.0,452.0 204.0,435.0 204.0,418.0 204.0,401.0 204.0,384.0 204.0,367.0 204.0,350.0 204.0,333.0 204.0,316.0 204.0,299.0 204.0,282.0 178.0,279.0 100.0,261.0 87.0,273.0 87.0,290.0 87.0,307.0 87.0,324.0 87.0,341.0 87.0,358.0" style="fill:#C4C4C4;" />
<polygon data-section="Mid Orchestra Sides/Rear Orchestra" data-priority="3" class="52655" points="236.0,435.0 275.0,472.0 288.0,524.0 288.0,541.0 314.0,542.0 327.0,542.0 340.0,542.0 353.0,542.0 366.0,542.0 392.0,541.0 405.0,540.0 418.0,539.0 418.0,522.0 418.0,505.0 418.0,488.0 418.0,470.0 418.0,453.0 418.0,436.0 418.0,419.0 418.0,402.0 405.0,403.0 366.0,405.0 301.0,405.0 262.0,403.0 249.0,402.0 236.0,401.0 236.0,418.0 236.0,435.0" style="fill:#C4C4C4;" />
</g>
<g class="grouped-Mid Orchestra Sides/Rear Orchestra/Mid Mezzanine">
<polygon data-section="Mid Orchestra Sides/Rear Orchestra/Mid Mezzanine" data-priority="3" class="52657" points="450.0,349.0 450.0,366.0 450.0,383.0 450.0,400.0 450.0,417.0 450.0,434.0 463.0,450.0 528.0,456.0 541.0,452.0 554.0,448.0 567.0,443.0 567.0,426.0 567.0,409.0 567.0,392.0 567.0,375.0 567.0,358.0 567.0,341.0 567.0,324.0 567.0,307.0 567.0,290.0 567.0,273.0 554.0,261.0 541.0,265.0 463.0,280.0 450.0,281.0 450.0,298.0 450.0,315.0 450.0,332.0 450.0,349.0" style="fill:#C4C4C4;" />
<polygon data-section="Mid Orchestra Sides/Rear Orchestra/Mid Mezzanine" data-priority="3" class="52657" points="87.0,358.0 87.0,375.0 87.0,392.0 87.0,409.0 87.0,426.0 113.0,452.0 126.0,456.0 139.0,459.0 152.0,462.0 165.0,464.0 178.0,466.0 191.0,468.0 204.0,469.0 204.0,452.0 204.0,435.0 204.0,418.0 204.0,401.0 204.0,384.0 204.0,367.0 204.0,350.0 204.0,333.0 204.0,316.0 204.0,299.0 204.0,282.0 178.0,279.0 100.0,261.0 87.0,273.0 87.0,290.0 87.0,307.0 87.0,324.0 87.0,341.0 87.0,358.0" style="fill:#C4C4C4;" />
<polygon data-section="Mid Orchestra Sides/Rear Orchestra/Mid Mezzanine" data-priority="3" class="52657" points="236.0,435.0 275.0,472.0 288.0,524.0 288.0,541.0 314.0,542.0 327.0,542.0 340.0,542.0 353.0,542.0 366.0,542.0 392.0,541.0 405.0,540.0 418.0,539.0 418.0,522.0 418.0,505.0 418.0,488.0 418.0,470.0 418.0,453.0 418.0,436.0 418.0,419.0 418.0,402.0 405.0,403.0 366.0,405.0 301.0,405.0 262.0,403.0 249.0,402.0 236.0,401.0 236.0,418.0 236.0,435.0" style="fill:#C4C4C4;" />
<polygon data-section="Mid Orchestra Sides/Rear Orchestra/Mid Mezzanine" data-priority="3" class="52657" points="177.0,793.0 190.0,795.0 203.0,797.0 216.0,798.0 229.0,799.0 242.0,800.0 255.0,801.0 268.0,802.0 281.0,803.0 294.0,804.0 307.0,804.0 320.0,804.0 333.0,804.0 346.0,804.0 372.0,803.0 385.0,802.0 398.0,801.0 411.0,800.0 424.0,799.0 437.0,798.0 450.0,797.0 463.0,796.0 476.0,794.0 476.0,777.0 476.0,760.0 476.0,743.0 476.0,726.0 424.0,731.0 411.0,732.0 398.0,733.0 359.0,735.0 255.0,733.0 242.0,732.0 177.0,725.0 177.0,742.0 177.0,759.0 177.0,776.0 177.0,793.0" style="fill:#C4C4C4;" />
<polygon data-section="Mid Orchestra Sides/Rear Orchestra/Mid Mezzanine" data-priority="3" class="52657" points="47.0,752.0 60.0,758.0 73.0,764.0 86.0,769.0 99.0,774.0 112.0,778.0 125.0,782.0 125.0,765.0 125.0,748.0 125.0,731.0 125.0,714.0 86.0,701.0 34.0,711.0 34.0,728.0 34.0,745.0 47.0,752.0" style="fill:#C4C4C4;" />
<polygon data-section="Mid Orchestra Sides/Rear Orchestra/Mid Mezzanine" data-priority="3" class="52657" points="527.0,748.0 527.0,765.0 527.0,782.0 540.0,778.0 553.0,774.0 566.0,769.0 579.0,764.0 592.0,758.0 605.0,752.0 618.0,745.0 618.0,728.0 618.0,711.0 566.0,701.0 527.0,714.0 527.0,731.0 527.0,748.0" style="fill:#C4C4C4;" />
</g>
<g class="grouped-Front Orchestra Sides/Front Mezzanine">
<polygon data-section="Front Orchestra Sides/Front Mezzanine" data-priority="3" class="52658" points="450.0,230.0 450.0,247.0 450.0,264.0 463.0,263.0 476.0,262.0 489.0,260.0 502.0,258.0 515.0,255.0 528.0,252.0 541.0,248.0 554.0,244.0 541.0,197.0 510.0,136.0 488.0,122.0 456.0,109.0 443.0,110.0 430.0,111.0 450.0,213.0 450.0,230.0" style="fill:#C4C4C4;" />
<polygon data-section="Front Orchestra Sides/Front Mezzanine" data-priority="3" class="52658" points="100.0,244.0 113.0,248.0 126.0,252.0 139.0,255.0 152.0,258.0 165.0,260.0 178.0,262.0 191.0,264.0 204.0,265.0 204.0,248.0 204.0,231.0 219.0,129.0 224.0,112.0 198.0,109.0 167.0,122.0 144.0,136.0 113.0,197.0 100.0,244.0" style="fill:#C4C4C4;" />
<polygon data-section="Front Orchestra Sides/Front Mezzanine" data-priority="3" class="52658" points="164.0,620.0 177.0,708.0 190.0,710.0 203.0,712.0 216.0,713.0 229.0,714.0 242.0,715.0 255.0,716.0 268.0,717.0 281.0,718.0 294.0,719.0 307.0,719.0 320.0,719.0 333.0,719.0 346.0,719.0 372.0,718.0 385.0,717.0 398.0,716.0 411.0,715.0 424.0,714.0 437.0,713.0 450.0,712.0 463.0,711.0 476.0,709.0 489.0,622.0 489.0,605.0 489.0,588.0 424.0,595.0 411.0,596.0 398.0,597.0 359.0,599.0 268.0,598.0 255.0,597.0 164.0,586.0 164.0,603.0 164.0,620.0" style="fill:#C4C4C4;" />
<polygon data-section="Front Orchestra Sides/Front Mezzanine" data-priority="3" class="52658" points="527.0,612.0 527.0,629.0 527.0,646.0 540.0,642.0 553.0,638.0 566.0,633.0 579.0,628.0 592.0,622.0 592.0,605.0 592.0,588.0 592.0,571.0 592.0,554.0 527.0,578.0 527.0,595.0 527.0,612.0" style="fill:#C4C4C4;" />
<polygon data-section="Front Orchestra Sides/Front Mezzanine" data-priority="3" class="52658" points="99.0,689.0 112.0,693.0 125.0,697.0 125.0,680.0 112.0,676.0 86.0,684.0 99.0,689.0" style="fill:#C4C4C4;" />
<polygon data-section="Front Orchestra Sides/Front Mezzanine" data-priority="3" class="52658" points="60.0,605.0 60.0,622.0 73.0,628.0 86.0,633.0 99.0,638.0 112.0,642.0 125.0,646.0 125.0,629.0 125.0,612.0 125.0,595.0 125.0,578.0 60.0,554.0 60.0,571.0 60.0,588.0 60.0,605.0" style="fill:#C4C4C4;" />
<polygon data-section="Front Orchestra Sides/Front Mezzanine" data-priority="3" class="52658" points="540.0,676.0 527.0,680.0 527.0,697.0 540.0,693.0 553.0,689.0 566.0,684.0 540.0,676.0" style="fill:#C4C4C4;" />
</g>
<g class="grouped-Mid Orchestra Sides/Mid Mezzanine">
<polygon data-section="Mid Orchestra Sides/Mid Mezzanine" data-priority="3" class="52660" points="450.0,332.0 450.0,349.0 450.0,366.0 450.0,383.0 463.0,382.0 476.0,381.0 489.0,379.0 502.0,377.0 515.0,374.0 528.0,371.0 541.0,367.0 554.0,363.0 567.0,358.0 567.0,341.0 567.0,324.0 567.0,307.0 567.0,290.0 567.0,273.0 554.0,261.0 541.0,265.0 463.0,280.0 450.0,281.0 450.0,298.0 450.0,315.0 450.0,332.0" style="fill:#C4C4C4;" />
<polygon data-section="Mid Orchestra Sides/Mid Mezzanine" data-priority="3" class="52660" points="87.0,307.0 87.0,324.0 87.0,341.0 87.0,358.0 100.0,363.0 113.0,367.0 126.0,371.0 139.0,374.0 152.0,377.0 165.0,379.0 178.0,381.0 191.0,383.0 204.0,384.0 204.0,367.0 204.0,350.0 204.0,333.0 204.0,316.0 204.0,299.0 204.0,282.0 178.0,279.0 100.0,261.0 87.0,273.0 87.0,290.0 87.0,307.0" style="fill:#C4C4C4;" />
<polygon data-section="Mid Orchestra Sides/Mid Mezzanine" data-priority="3" class="52660" points="177.0,793.0 190.0,795.0 203.0,797.0 216.0,798.0 229.0,799.0 242.0,800.0 255.0,801.0 268.0,802.0 281.0,803.0 294.0,804.0 307.0,804.0 320.0,804.0 333.0,804.0 346.0,804.0 372.0,803.0 385.0,802.0 398.0,801.0 411.0,800.0 424.0,799.0 437.0,798.0 450.0,797.0 463.0,796.0 476.0,794.0 476.0,777.0 476.0,760.0 476.0,743.0 476.0,726.0 424.0,731.0 411.0,732.0 398.0,733.0 359.0,735.0 255.0,733.0 242.0,732.0 177.0,725.0 177.0,742.0 177.0,759.0 177.0,776.0 177.0,793.0" style="fill:#C4C4C4;" />
<polygon data-section="Mid Orchestra Sides/Mid Mezzanine" data-priority="3" class="52660" points="47.0,752.0 60.0,758.0 73.0,764.0 86.0,769.0 99.0,774.0 112.0,778.0 125.0,782.0 125.0,765.0 125.0,748.0 125.0,731.0 125.0,714.0 86.0,701.0 34.0,711.0 34.0,728.0 34.0,745.0 47.0,752.0" style="fill:#C4C4C4;" />
<polygon data-section="Mid Orchestra Sides/Mid Mezzanine" data-priority="3" class="52660" points="527.0,748.0 527.0,765.0 527.0,782.0 540.0,778.0 553.0,774.0 566.0,769.0 579.0,764.0 592.0,758.0 605.0,752.0 618.0,745.0 618.0,728.0 618.0,711.0 566.0,701.0 527.0,714.0 527.0,731.0 527.0,748.0" style="fill:#C4C4C4;" />
</g>
<g class="grouped-Mid Orchestra/Front Orchestra Sides/Front Mezzanine Sides/Front Mezzanine">
<polygon data-section="Mid Orchestra/Front Orchestra Sides/Front Mezzanine Sides/Front Mezzanine" data-priority="3" class="52661" points="450.0,213.0 450.0,230.0 450.0,247.0 450.0,264.0 450.0,281.0 450.0,298.0 450.0,315.0 450.0,332.0 450.0,349.0 450.0,366.0 450.0,383.0 463.0,382.0 476.0,381.0 489.0,379.0 502.0,377.0 515.0,374.0 528.0,371.0 541.0,367.0 554.0,363.0 567.0,358.0 567.0,341.0 567.0,324.0 567.0,307.0 567.0,290.0 567.0,273.0 541.0,197.0 510.0,136.0 488.0,122.0 456.0,109.0 443.0,110.0 430.0,111.0 450.0,213.0" style="fill:#C4C4C4;" />
<polygon data-section="Mid Orchestra/Front Orchestra Sides/Front Mezzanine Sides/Front Mezzanine" data-priority="3" class="52661" points="236.0,316.0 236.0,333.0 236.0,350.0 236.0,367.0 236.0,384.0 249.0,385.0 262.0,386.0 275.0,387.0 288.0,388.0 314.0,389.0 327.0,389.0 340.0,389.0 353.0,389.0 379.0,388.0 392.0,387.0 405.0,386.0 418.0,385.0 418.0,368.0 418.0,351.0 418.0,334.0 418.0,317.0 418.0,300.0 418.0,282.0 405.0,283.0 366.0,285.0 301.0,285.0 262.0,283.0 249.0,282.0 236.0,281.0 236.0,299.0 236.0,316.0" style="fill:#C4C4C4;" />
<polygon data-section="Mid Orchestra/Front Orchestra Sides/Front Mezzanine Sides/Front Mezzanine" data-priority="3" class="52661" points="87.0,307.0 87.0,324.0 87.0,341.0 87.0,358.0 100.0,363.0 113.0,367.0 126.0,371.0 139.0,374.0 152.0,377.0 165.0,379.0 178.0,381.0 191.0,383.0 204.0,384.0 204.0,367.0 204.0,350.0 204.0,333.0 204.0,316.0 204.0,299.0 204.0,282.0 204.0,265.0 204.0,248.0 204.0,231.0 219.0,129.0 224.0,112.0 198.0,109.0 167.0,122.0 144.0,136.0 113.0,197.0 87.0,273.0 87.0,290.0 87.0,307.0" style="fill:#C4C4C4;" />
<polygon data-section="Mid Orchestra/Front Orchestra Sides/Front Mezzanine Sides/Front Mezzanine" data-priority="3" class="52661" points="60.0,605.0 60.0,622.0 73.0,628.0 86.0,633.0 99.0,638.0 112.0,642.0 125.0,646.0 125.0,629.0 125.0,612.0 125.0,595.0 125.0,578.0 60.0,554.0 60.0,571.0 60.0,588.0 60.0,605.0" style="fill:#C4C4C4;" />
<polygon data-section="Mid Orchestra/Front Orchestra Sides/Front Mezzanine Sides/Front Mezzanine" data-priority="3" class="52661" points="527.0,612.0 527.0,629.0 527.0,646.0 540.0,642.0 553.0,638.0 566.0,633.0 579.0,628.0 592.0,622.0 592.0,605.0 592.0,588.0 592.0,571.0 592.0,554.0 527.0,578.0 527.0,595.0 527.0,612.0" style="fill:#C4C4C4;" />
<polygon data-section="Mid Orchestra/Front Orchestra Sides/Front Mezzanine Sides/Front Mezzanine" data-priority="3" class="52661" points="99.0,689.0 112.0,693.0 125.0,697.0 125.0,680.0 112.0,676.0 86.0,684.0 99.0,689.0" style="fill:#C4C4C4;" />
<polygon data-section="Mid Orchestra/Front Orchestra Sides/Front Mezzanine Sides/Front Mezzanine" data-priority="3" class="52661" points="540.0,676.0 527.0,680.0 527.0,697.0 540.0,693.0 553.0,689.0 566.0,684.0 540.0,676.0" style="fill:#C4C4C4;" />
<polygon data-section="Mid Orchestra/Front Orchestra Sides/Front Mezzanine Sides/Front Mezzanine" data-priority="3" class="52661" points="164.0,620.0 177.0,708.0 190.0,710.0 203.0,712.0 216.0,713.0 229.0,714.0 242.0,715.0 255.0,716.0 268.0,717.0 281.0,718.0 294.0,719.0 307.0,719.0 320.0,719.0 333.0,719.0 346.0,719.0 372.0,718.0 385.0,717.0 398.0,716.0 411.0,715.0 424.0,714.0 437.0,713.0 450.0,712.0 463.0,711.0 476.0,709.0 489.0,622.0 489.0,605.0 489.0,588.0 424.0,595.0 411.0,596.0 398.0,597.0 359.0,599.0 268.0,598.0 255.0,597.0 164.0,586.0 164.0,603.0 164.0,620.0" style="fill:#C4C4C4;" />
</g>
<g class="grouped-Mid Mezzanine Sides/Rear Mezzanine">
<polygon data-section="Mid Mezzanine Sides/Rear Mezzanine" data-priority="3" class="52666" points="45.0,859.0 58.0,865.0 71.0,870.0 111.0,863.0 125.0,833.0 125.0,816.0 125.0,799.0 125.0,782.0 125.0,765.0 125.0,748.0 125.0,731.0 125.0,714.0 86.0,701.0 34.0,711.0 34.0,728.0 34.0,745.0 34.0,762.0 32.0,853.0 45.0,859.0" style="fill:#C4C4C4;" />
<polygon data-section="Mid Mezzanine Sides/Rear Mezzanine" data-priority="3" class="52666" points="527.0,782.0 527.0,799.0 527.0,816.0 527.0,833.0 541.0,863.0 580.0,867.0 593.0,862.0 606.0,857.0 619.0,851.0 619.0,833.0 618.0,745.0 618.0,728.0 618.0,711.0 566.0,701.0 527.0,714.0 527.0,731.0 527.0,748.0 527.0,765.0 527.0,782.0" style="fill:#C4C4C4;" />
<polygon data-section="Mid Mezzanine Sides/Rear Mezzanine" data-priority="3" class="52666" points="236.0,901.0 249.0,902.0 262.0,903.0 275.0,904.0 288.0,905.0 301.0,905.0 314.0,905.0 327.0,905.0 340.0,905.0 353.0,905.0 379.0,904.0 392.0,903.0 405.0,902.0 418.0,901.0 431.0,900.0 495.0,873.0 476.0,811.0 424.0,816.0 411.0,817.0 398.0,818.0 359.0,820.0 255.0,818.0 242.0,817.0 177.0,810.0 157.0,871.0 223.0,900.0 236.0,901.0" style="fill:#C4C4C4;" />
</g>
<g class="grouped-Front Orchestra Sides/Mid Orchestra Sides/Front Mezzanine">
<polygon data-section="Front Orchestra Sides/Mid Orchestra Sides/Front Mezzanine" data-priority="3" class="52668" points="450.0,247.0 450.0,264.0 450.0,281.0 450.0,298.0 450.0,315.0 450.0,332.0 450.0,349.0 450.0,366.0 450.0,383.0 463.0,382.0 476.0,381.0 489.0,379.0 502.0,377.0 515.0,374.0 528.0,371.0 541.0,367.0 554.0,363.0 567.0,358.0 567.0,341.0 567.0,324.0 567.0,307.0 567.0,290.0 567.0,273.0 541.0,197.0 510.0,136.0 488.0,122.0 456.0,109.0 443.0,110.0 430.0,111.0 450.0,213.0 450.0,230.0 450.0,247.0" style="fill:#C4C4C4;" />
<polygon data-section="Front Orchestra Sides/Mid Orchestra Sides/Front Mezzanine" data-priority="3" class="52668" points="87.0,273.0 87.0,290.0 87.0,307.0 87.0,324.0 87.0,341.0 87.0,358.0 100.0,363.0 113.0,367.0 126.0,371.0 139.0,374.0 152.0,377.0 165.0,379.0 178.0,381.0 191.0,383.0 204.0,384.0 204.0,367.0 204.0,350.0 204.0,333.0 204.0,316.0 204.0,299.0 204.0,282.0 204.0,265.0 204.0,248.0 204.0,231.0 219.0,129.0 224.0,112.0 198.0,109.0 167.0,122.0 144.0,136.0 113.0,197.0 87.0,273.0" style="fill:#C4C4C4;" />
<polygon data-section="Front Orchestra Sides/Mid Orchestra Sides/Front Mezzanine" data-priority="3" class="52668" points="164.0,620.0 177.0,708.0 190.0,710.0 203.0,712.0 216.0,713.0 229.0,714.0 242.0,715.0 255.0,716.0 268.0,717.0 281.0,718.0 294.0,719.0 307.0,719.0 320.0,719.0 333.0,719.0 346.0,719.0 372.0,718.0 385.0,717.0 398.0,716.0 411.0,715.0 424.0,714.0 437.0,713.0 450.0,712.0 463.0,711.0 476.0,709.0 489.0,622.0 489.0,605.0 489.0,588.0 424.0,595.0 411.0,596.0 398.0,597.0 359.0,599.0 268.0,598.0 255.0,597.0 164.0,586.0 164.0,603.0 164.0,620.0" style="fill:#C4C4C4;" />
<polygon data-section="Front Orchestra Sides/Mid Orchestra Sides/Front Mezzanine" data-priority="3" class="52668" points="527.0,612.0 527.0,629.0 527.0,646.0 540.0,642.0 553.0,638.0 566.0,633.0 579.0,628.0 592.0,622.0 592.0,605.0 592.0,588.0 592.0,571.0 592.0,554.0 527.0,578.0 527.0,595.0 527.0,612.0" style="fill:#C4C4C4;" />
<polygon data-section="Front Orchestra Sides/Mid Orchestra Sides/Front Mezzanine" data-priority="3" class="52668" points="99.0,689.0 112.0,693.0 125.0,697.0 125.0,680.0 112.0,676.0 86.0,684.0 99.0,689.0" style="fill:#C4C4C4;" />
<polygon data-section="Front Orchestra Sides/Mid Orchestra Sides/Front Mezzanine" data-priority="3" class="52668" points="60.0,605.0 60.0,622.0 73.0,628.0 86.0,633.0 99.0,638.0 112.0,642.0 125.0,646.0 125.0,629.0 125.0,612.0 125.0,595.0 125.0,578.0 60.0,554.0 60.0,571.0 60.0,588.0 60.0,605.0" style="fill:#C4C4C4;" />
<polygon data-section="Front Orchestra Sides/Mid Orchestra Sides/Front Mezzanine" data-priority="3" class="52668" points="540.0,676.0 527.0,680.0 527.0,697.0 540.0,693.0 553.0,689.0 566.0,684.0 540.0,676.0" style="fill:#C4C4C4;" />
</g>
<g class="grouped-Mid Orchestra Sides and Rear Orchestra and Mid Mezzanine">
<polygon data-section="Mid Orchestra Sides and Rear Orchestra and Mid Mezzanine" data-priority="3" class="52669" points="450.0,349.0 450.0,366.0 450.0,383.0 450.0,400.0 450.0,417.0 450.0,434.0 463.0,450.0 528.0,456.0 541.0,452.0 554.0,448.0 567.0,443.0 567.0,426.0 567.0,409.0 567.0,392.0 567.0,375.0 567.0,358.0 567.0,341.0 567.0,324.0 567.0,307.0 567.0,290.0 567.0,273.0 554.0,261.0 541.0,265.0 463.0,280.0 450.0,281.0 450.0,298.0 450.0,315.0 450.0,332.0 450.0,349.0" style="fill:#C4C4C4;" />
<polygon data-section="Mid Orchestra Sides and Rear Orchestra and Mid Mezzanine" data-priority="3" class="52669" points="87.0,358.0 87.0,375.0 87.0,392.0 87.0,409.0 87.0,426.0 113.0,452.0 126.0,456.0 139.0,459.0 152.0,462.0 165.0,464.0 178.0,466.0 191.0,468.0 204.0,469.0 204.0,452.0 204.0,435.0 204.0,418.0 204.0,401.0 204.0,384.0 204.0,367.0 204.0,350.0 204.0,333.0 204.0,316.0 204.0,299.0 204.0,282.0 178.0,279.0 100.0,261.0 87.0,273.0 87.0,290.0 87.0,307.0 87.0,324.0 87.0,341.0 87.0,358.0" style="fill:#C4C4C4;" />
<polygon data-section="Mid Orchestra Sides and Rear Orchestra and Mid Mezzanine" data-priority="3" class="52669" points="236.0,435.0 275.0,472.0 288.0,524.0 288.0,541.0 314.0,542.0 327.0,542.0 340.0,542.0 353.0,542.0 366.0,542.0 392.0,541.0 405.0,540.0 418.0,539.0 418.0,522.0 418.0,505.0 418.0,488.0 418.0,470.0 418.0,453.0 418.0,436.0 418.0,419.0 418.0,402.0 405.0,403.0 366.0,405.0 301.0,405.0 262.0,403.0 249.0,402.0 236.0,401.0 236.0,418.0 236.0,435.0" style="fill:#C4C4C4;" />
<polygon data-section="Mid Orchestra Sides and Rear Orchestra and Mid Mezzanine" data-priority="3" class="52669" points="177.0,793.0 190.0,795.0 203.0,797.0 216.0,798.0 229.0,799.0 242.0,800.0 255.0,801.0 268.0,802.0 281.0,803.0 294.0,804.0 307.0,804.0 320.0,804.0 333.0,804.0 346.0,804.0 372.0,803.0 385.0,802.0 398.0,801.0 411.0,800.0 424.0,799.0 437.0,798.0 450.0,797.0 463.0,796.0 476.0,794.0 476.0,777.0 476.0,760.0 476.0,743.0 476.0,726.0 424.0,731.0 411.0,732.0 398.0,733.0 359.0,735.0 255.0,733.0 242.0,732.0 177.0,725.0 177.0,742.0 177.0,759.0 177.0,776.0 177.0,793.0" style="fill:#C4C4C4;" />
<polygon data-section="Mid Orchestra Sides and Rear Orchestra and Mid Mezzanine" data-priority="3" class="52669" points="47.0,752.0 60.0,758.0 73.0,764.0 86.0,769.0 99.0,774.0 112.0,778.0 125.0,782.0 125.0,765.0 125.0,748.0 125.0,731.0 125.0,714.0 86.0,701.0 34.0,711.0 34.0,728.0 34.0,745.0 47.0,752.0" style="fill:#C4C4C4;" />
<polygon data-section="Mid Orchestra Sides and Rear Orchestra and Mid Mezzanine" data-priority="3" class="52669" points="527.0,748.0 527.0,765.0 527.0,782.0 540.0,778.0 553.0,774.0 566.0,769.0 579.0,764.0 592.0,758.0 605.0,752.0 618.0,745.0 618.0,728.0 618.0,711.0 566.0,701.0 527.0,714.0 527.0,731.0 527.0,748.0" style="fill:#C4C4C4;" />
</g>
<g class="grouped-Front Orchestra Sides/Mid Orchestra Sides/Front Mezzanine Sides/Front Mezzanine">
<polygon data-section="Front Orchestra Sides/Mid Orchestra Sides/Front Mezzanine Sides/Front Mezzanine" data-priority="3" class="52671" points="450.0,247.0 450.0,264.0 450.0,281.0 450.0,298.0 450.0,315.0 450.0,332.0 450.0,349.0 450.0,366.0 450.0,383.0 463.0,382.0 476.0,381.0 489.0,379.0 502.0,377.0 515.0,374.0 528.0,371.0 541.0,367.0 554.0,363.0 567.0,358.0 567.0,341.0 567.0,324.0 567.0,307.0 567.0,290.0 567.0,273.0 541.0,197.0 510.0,136.0 488.0,122.0 456.0,109.0 443.0,110.0 430.0,111.0 450.0,213.0 450.0,230.0 450.0,247.0" style="fill:#C4C4C4;" />
<polygon data-section="Front Orchestra Sides/Mid Orchestra Sides/Front Mezzanine Sides/Front Mezzanine" data-priority="3" class="52671" points="87.0,273.0 87.0,290.0 87.0,307.0 87.0,324.0 87.0,341.0 87.0,358.0 100.0,363.0 113.0,367.0 126.0,371.0 139.0,374.0 152.0,377.0 165.0,379.0 178.0,381.0 191.0,383.0 204.0,384.0 204.0,367.0 204.0,350.0 204.0,333.0 204.0,316.0 204.0,299.0 204.0,282.0 204.0,265.0 204.0,248.0 204.0,231.0 219.0,129.0 224.0,112.0 198.0,109.0 167.0,122.0 144.0,136.0 113.0,197.0 87.0,273.0" style="fill:#C4C4C4;" />
<polygon data-section="Front Orchestra Sides/Mid Orchestra Sides/Front Mezzanine Sides/Front Mezzanine" data-priority="3" class="52671" points="60.0,605.0 60.0,622.0 73.0,628.0 86.0,633.0 99.0,638.0 112.0,642.0 125.0,646.0 125.0,629.0 125.0,612.0 125.0,595.0 125.0,578.0 60.0,554.0 60.0,571.0 60.0,588.0 60.0,605.0" style="fill:#C4C4C4;" />
<polygon data-section="Front Orchestra Sides/Mid Orchestra Sides/Front Mezzanine Sides/Front Mezzanine" data-priority="3" class="52671" points="527.0,612.0 527.0,629.0 527.0,646.0 540.0,642.0 553.0,638.0 566.0,633.0 579.0,628.0 592.0,622.0 592.0,605.0 592.0,588.0 592.0,571.0 592.0,554.0 527.0,578.0 527.0,595.0 527.0,612.0" style="fill:#C4C4C4;" />
<polygon data-section="Front Orchestra Sides/Mid Orchestra Sides/Front Mezzanine Sides/Front Mezzanine" data-priority="3" class="52671" points="99.0,689.0 112.0,693.0 125.0,697.0 125.0,680.0 112.0,676.0 86.0,684.0 99.0,689.0" style="fill:#C4C4C4;" />
<polygon data-section="Front Orchestra Sides/Mid Orchestra Sides/Front Mezzanine Sides/Front Mezzanine" data-priority="3" class="52671" points="540.0,676.0 527.0,680.0 527.0,697.0 540.0,693.0 553.0,689.0 566.0,684.0 540.0,676.0" style="fill:#C4C4C4;" />
<polygon data-section="Front Orchestra Sides/Mid Orchestra Sides/Front Mezzanine Sides/Front Mezzanine" data-priority="3" class="52671" points="164.0,620.0 177.0,708.0 190.0,710.0 203.0,712.0 216.0,713.0 229.0,714.0 242.0,715.0 255.0,716.0 268.0,717.0 281.0,718.0 294.0,719.0 307.0,719.0 320.0,719.0 333.0,719.0 346.0,719.0 372.0,718.0 385.0,717.0 398.0,716.0 411.0,715.0 424.0,714.0 437.0,713.0 450.0,712.0 463.0,711.0 476.0,709.0 489.0,622.0 489.0,605.0 489.0,588.0 424.0,595.0 411.0,596.0 398.0,597.0 359.0,599.0 268.0,598.0 255.0,597.0 164.0,586.0 164.0,603.0 164.0,620.0" style="fill:#C4C4C4;" />
</g>
<g class="grouped-Front Orchestra Sides/Mid Orchestra Sides/Mid Mezzanine">
<polygon data-section="Front Orchestra Sides/Mid Orchestra Sides/Mid Mezzanine" data-priority="3" class="52672" points="450.0,247.0 450.0,264.0 450.0,281.0 450.0,298.0 450.0,315.0 450.0,332.0 450.0,349.0 450.0,366.0 450.0,383.0 463.0,382.0 476.0,381.0 489.0,379.0 502.0,377.0 515.0,374.0 528.0,371.0 541.0,367.0 554.0,363.0 567.0,358.0 567.0,341.0 567.0,324.0 567.0,307.0 567.0,290.0 567.0,273.0 541.0,197.0 510.0,136.0 488.0,122.0 456.0,109.0 443.0,110.0 430.0,111.0 450.0,213.0 450.0,230.0 450.0,247.0" style="fill:#C4C4C4;" />
<polygon data-section="Front Orchestra Sides/Mid Orchestra Sides/Mid Mezzanine" data-priority="3" class="52672" points="87.0,273.0 87.0,290.0 87.0,307.0 87.0,324.0 87.0,341.0 87.0,358.0 100.0,363.0 113.0,367.0 126.0,371.0 139.0,374.0 152.0,377.0 165.0,379.0 178.0,381.0 191.0,383.0 204.0,384.0 204.0,367.0 204.0,350.0 204.0,333.0 204.0,316.0 204.0,299.0 204.0,282.0 204.0,265.0 204.0,248.0 204.0,231.0 219.0,129.0 224.0,112.0 198.0,109.0 167.0,122.0 144.0,136.0 113.0,197.0 87.0,273.0" style="fill:#C4C4C4;" />
<polygon data-section="Front Orchestra Sides/Mid Orchestra Sides/Mid Mezzanine" data-priority="3" class="52672" points="177.0,793.0 190.0,795.0 203.0,797.0 216.0,798.0 229.0,799.0 242.0,800.0 255.0,801.0 268.0,802.0 281.0,803.0 294.0,804.0 307.0,804.0 320.0,804.0 333.0,804.0 346.0,804.0 372.0,803.0 385.0,802.0 398.0,801.0 411.0,800.0 424.0,799.0 437.0,798.0 450.0,797.0 463.0,796.0 476.0,794.0 476.0,777.0 476.0,760.0 476.0,743.0 476.0,726.0 424.0,731.0 411.0,732.0 398.0,733.0 359.0,735.0 255.0,733.0 242.0,732.0 177.0,725.0 177.0,742.0 177.0,759.0 177.0,776.0 177.0,793.0" style="fill:#C4C4C4;" />
<polygon data-section="Front Orchestra Sides/Mid Orchestra Sides/Mid Mezzanine" data-priority="3" class="52672" points="47.0,752.0 60.0,758.0 73.0,764.0 86.0,769.0 99.0,774.0 112.0,778.0 125.0,782.0 125.0,765.0 125.0,748.0 125.0,731.0 125.0,714.0 86.0,701.0 34.0,711.0 34.0,728.0 34.0,745.0 47.0,752.0" style="fill:#C4C4C4;" />
<polygon data-section="Front Orchestra Sides/Mid Orchestra Sides/Mid Mezzanine" data-priority="3" class="52672" points="527.0,748.0 527.0,765.0 527.0,782.0 540.0,778.0 553.0,774.0 566.0,769.0 579.0,764.0 592.0,758.0 605.0,752.0 618.0,745.0 618.0,728.0 618.0,711.0 566.0,701.0 527.0,714.0 527.0,731.0 527.0,748.0" style="fill:#C4C4C4;" />
</g>
<g class="grouped-Front Orchestra Sides and Mid Orchestra Sides and Mid Mezzanine">
<polygon data-section="Front Orchestra Sides and Mid Orchestra Sides and Mid Mezzanine" data-priority="3" class="52674" points="450.0,247.0 450.0,264.0 450.0,281.0 450.0,298.0 450.0,315.0 450.0,332.0 450.0,349.0 450.0,366.0 450.0,383.0 463.0,382.0 476.0,381.0 489.0,379.0 502.0,377.0 515.0,374.0 528.0,371.0 541.0,367.0 554.0,363.0 567.0,358.0 567.0,341.0 567.0,324.0 567.0,307.0 567.0,290.0 567.0,273.0 541.0,197.0 510.0,136.0 488.0,122.0 456.0,109.0 443.0,110.0 430.0,111.0 450.0,213.0 450.0,230.0 450.0,247.0" style="fill:#C4C4C4;" />
<polygon data-section="Front Orchestra Sides and Mid Orchestra Sides and Mid Mezzanine" data-priority="3" class="52674" points="87.0,273.0 87.0,290.0 87.0,307.0 87.0,324.0 87.0,341.0 87.0,358.0 100.0,363.0 113.0,367.0 126.0,371.0 139.0,374.0 152.0,377.0 165.0,379.0 178.0,381.0 191.0,383.0 204.0,384.0 204.0,367.0 204.0,350.0 204.0,333.0 204.0,316.0 204.0,299.0 204.0,282.0 204.0,265.0 204.0,248.0 204.0,231.0 219.0,129.0 224.0,112.0 198.0,109.0 167.0,122.0 144.0,136.0 113.0,197.0 87.0,273.0" style="fill:#C4C4C4;" />
<polygon data-section="Front Orchestra Sides and Mid Orchestra Sides and Mid Mezzanine" data-priority="3" class="52674" points="177.0,793.0 190.0,795.0 203.0,797.0 216.0,798.0 229.0,799.0 242.0,800.0 255.0,801.0 268.0,802.0 281.0,803.0 294.0,804.0 307.0,804.0 320.0,804.0 333.0,804.0 346.0,804.0 372.0,803.0 385.0,802.0 398.0,801.0 411.0,800.0 424.0,799.0 437.0,798.0 450.0,797.0 463.0,796.0 476.0,794.0 476.0,777.0 476.0,760.0 476.0,743.0 476.0,726.0 424.0,731.0 411.0,732.0 398.0,733.0 359.0,735.0 255.0,733.0 242.0,732.0 177.0,725.0 177.0,742.0 177.0,759.0 177.0,776.0 177.0,793.0" style="fill:#C4C4C4;" />
<polygon data-section="Front Orchestra Sides and Mid Orchestra Sides and Mid Mezzanine" data-priority="3" class="52674" points="47.0,752.0 60.0,758.0 73.0,764.0 86.0,769.0 99.0,774.0 112.0,778.0 125.0,782.0 125.0,765.0 125.0,748.0 125.0,731.0 125.0,714.0 86.0,701.0 34.0,711.0 34.0,728.0 34.0,745.0 47.0,752.0" style="fill:#C4C4C4;" />
<polygon data-section="Front Orchestra Sides and Mid Orchestra Sides and Mid Mezzanine" data-priority="3" class="52674" points="527.0,748.0 527.0,765.0 527.0,782.0 540.0,778.0 553.0,774.0 566.0,769.0 579.0,764.0 592.0,758.0 605.0,752.0 618.0,745.0 618.0,728.0 618.0,711.0 566.0,701.0 527.0,714.0 527.0,731.0 527.0,748.0" style="fill:#C4C4C4;" />
</g>
<g class="grouped-Mid Orchestra/Front Mezzanine Sides/Front Mezzanine">
<polygon data-section="Mid Orchestra/Front Mezzanine Sides/Front Mezzanine" data-priority="3" class="52675" points="450.0,298.0 450.0,315.0 450.0,332.0 450.0,349.0 450.0,366.0 450.0,383.0 463.0,382.0 476.0,381.0 489.0,379.0 502.0,377.0 515.0,374.0 528.0,371.0 541.0,367.0 554.0,363.0 567.0,358.0 567.0,341.0 567.0,324.0 567.0,307.0 567.0,290.0 567.0,273.0 554.0,261.0 541.0,265.0 463.0,280.0 450.0,281.0 450.0,298.0" style="fill:#C4C4C4;" />
<polygon data-section="Mid Orchestra/Front Mezzanine Sides/Front Mezzanine" data-priority="3" class="52675" points="236.0,316.0 236.0,333.0 236.0,350.0 236.0,367.0 236.0,384.0 249.0,385.0 262.0,386.0 275.0,387.0 288.0,388.0 314.0,389.0 327.0,389.0 340.0,389.0 353.0,389.0 379.0,388.0 392.0,387.0 405.0,386.0 418.0,385.0 418.0,368.0 418.0,351.0 418.0,334.0 418.0,317.0 418.0,300.0 418.0,282.0 405.0,283.0 366.0,285.0 301.0,285.0 262.0,283.0 249.0,282.0 236.0,281.0 236.0,299.0 236.0,316.0" style="fill:#C4C4C4;" />
<polygon data-section="Mid Orchestra/Front Mezzanine Sides/Front Mezzanine" data-priority="3" class="52675" points="87.0,307.0 87.0,324.0 87.0,341.0 87.0,358.0 100.0,363.0 113.0,367.0 126.0,371.0 139.0,374.0 152.0,377.0 165.0,379.0 178.0,381.0 191.0,383.0 204.0,384.0 204.0,367.0 204.0,350.0 204.0,333.0 204.0,316.0 204.0,299.0 204.0,282.0 178.0,279.0 100.0,261.0 87.0,273.0 87.0,290.0 87.0,307.0" style="fill:#C4C4C4;" />
<polygon data-section="Mid Orchestra/Front Mezzanine Sides/Front Mezzanine" data-priority="3" class="52675" points="60.0,605.0 60.0,622.0 73.0,628.0 86.0,633.0 99.0,638.0 112.0,642.0 125.0,646.0 125.0,629.0 125.0,612.0 125.0,595.0 125.0,578.0 60.0,554.0 60.0,571.0 60.0,588.0 60.0,605.0" style="fill:#C4C4C4;" />
<polygon data-section="Mid Orchestra/Front Mezzanine Sides/Front Mezzanine" data-priority="3" class="52675" points="527.0,612.0 527.0,629.0 527.0,646.0 540.0,642.0 553.0,638.0 566.0,633.0 579.0,628.0 592.0,622.0 592.0,605.0 592.0,588.0 592.0,571.0 592.0,554.0 527.0,578.0 527.0,595.0 527.0,612.0" style="fill:#C4C4C4;" />
<polygon data-section="Mid Orchestra/Front Mezzanine Sides/Front Mezzanine" data-priority="3" class="52675" points="99.0,689.0 112.0,693.0 125.0,697.0 125.0,680.0 112.0,676.0 86.0,684.0 99.0,689.0" style="fill:#C4C4C4;" />
<polygon data-section="Mid Orchestra/Front Mezzanine Sides/Front Mezzanine" data-priority="3" class="52675" points="540.0,676.0 527.0,680.0 527.0,697.0 540.0,693.0 553.0,689.0 566.0,684.0 540.0,676.0" style="fill:#C4C4C4;" />
<polygon data-section="Mid Orchestra/Front Mezzanine Sides/Front Mezzanine" data-priority="3" class="52675" points="164.0,620.0 177.0,708.0 190.0,710.0 203.0,712.0 216.0,713.0 229.0,714.0 242.0,715.0 255.0,716.0 268.0,717.0 281.0,718.0 294.0,719.0 307.0,719.0 320.0,719.0 333.0,719.0 346.0,719.0 372.0,718.0 385.0,717.0 398.0,716.0 411.0,715.0 424.0,714.0 437.0,713.0 450.0,712.0 463.0,711.0 476.0,709.0 489.0,622.0 489.0,605.0 489.0,588.0 424.0,595.0 411.0,596.0 398.0,597.0 359.0,599.0 268.0,598.0 255.0,597.0 164.0,586.0 164.0,603.0 164.0,620.0" style="fill:#C4C4C4;" />
</g>
<g class="grouped-Front Orchestra Sides/Mid Orchestra Sides">
<polygon data-section="Front Orchestra Sides/Mid Orchestra Sides" data-priority="3" class="60323" points="450.0,247.0 450.0,264.0 450.0,281.0 450.0,298.0 450.0,315.0 450.0,332.0 450.0,349.0 450.0,366.0 450.0,383.0 463.0,382.0 476.0,381.0 489.0,379.0 502.0,377.0 515.0,374.0 528.0,371.0 541.0,367.0 554.0,363.0 567.0,358.0 567.0,341.0 567.0,324.0 567.0,307.0 567.0,290.0 567.0,273.0 541.0,197.0 510.0,136.0 488.0,122.0 456.0,109.0 443.0,110.0 430.0,111.0 450.0,213.0 450.0,230.0 450.0,247.0" style="fill:#C4C4C4;" />
<polygon data-section="Front Orchestra Sides/Mid Orchestra Sides" data-priority="3" class="60323" points="87.0,273.0 87.0,290.0 87.0,307.0 87.0,324.0 87.0,341.0 87.0,358.0 100.0,363.0 113.0,367.0 126.0,371.0 139.0,374.0 152.0,377.0 165.0,379.0 178.0,381.0 191.0,383.0 204.0,384.0 204.0,367.0 204.0,350.0 204.0,333.0 204.0,316.0 204.0,299.0 204.0,282.0 204.0,265.0 204.0,248.0 204.0,231.0 219.0,129.0 224.0,112.0 198.0,109.0 167.0,122.0 144.0,136.0 113.0,197.0 87.0,273.0" style="fill:#C4C4C4;" />
</g>
<g class="grouped-Mid Orchestra Sides">
<polygon data-section="Mid Orchestra Sides" data-priority="3" class="60326" points="450.0,332.0 450.0,349.0 450.0,366.0 450.0,383.0 463.0,382.0 476.0,381.0 489.0,379.0 502.0,377.0 515.0,374.0 528.0,371.0 541.0,367.0 554.0,363.0 567.0,358.0 567.0,341.0 567.0,324.0 567.0,307.0 567.0,290.0 567.0,273.0 554.0,261.0 541.0,265.0 463.0,280.0 450.0,281.0 450.0,298.0 450.0,315.0 450.0,332.0" style="fill:#C4C4C4;" />
<polygon data-section="Mid Orchestra Sides" data-priority="3" class="60326" points="87.0,307.0 87.0,324.0 87.0,341.0 87.0,358.0 100.0,363.0 113.0,367.0 126.0,371.0 139.0,374.0 152.0,377.0 165.0,379.0 178.0,381.0 191.0,383.0 204.0,384.0 204.0,367.0 204.0,350.0 204.0,333.0 204.0,316.0 204.0,299.0 204.0,282.0 178.0,279.0 100.0,261.0 87.0,273.0 87.0,290.0 87.0,307.0" style="fill:#C4C4C4;" />
</g>
<g class="grouped-Front Orchestra Sides and Mid Orchestra Sides">
<polygon data-section="Front Orchestra Sides and Mid Orchestra Sides" data-priority="3" class="60327" points="450.0,247.0 450.0,264.0 450.0,281.0 450.0,298.0 450.0,315.0 450.0,332.0 450.0,349.0 450.0,366.0 450.0,383.0 463.0,382.0 476.0,381.0 489.0,379.0 502.0,377.0 515.0,374.0 528.0,371.0 541.0,367.0 554.0,363.0 567.0,358.0 567.0,341.0 567.0,324.0 567.0,307.0 567.0,290.0 567.0,273.0 541.0,197.0 510.0,136.0 488.0,122.0 456.0,109.0 443.0,110.0 430.0,111.0 450.0,213.0 450.0,230.0 450.0,247.0" style="fill:#C4C4C4;" />
<polygon data-section="Front Orchestra Sides and Mid Orchestra Sides" data-priority="3" class="60327" points="87.0,273.0 87.0,290.0 87.0,307.0 87.0,324.0 87.0,341.0 87.0,358.0 100.0,363.0 113.0,367.0 126.0,371.0 139.0,374.0 152.0,377.0 165.0,379.0 178.0,381.0 191.0,383.0 204.0,384.0 204.0,367.0 204.0,350.0 204.0,333.0 204.0,316.0 204.0,299.0 204.0,282.0 204.0,265.0 204.0,248.0 204.0,231.0 219.0,129.0 224.0,112.0 198.0,109.0 167.0,122.0 144.0,136.0 113.0,197.0 87.0,273.0" style="fill:#C4C4C4;" />
</g>
<g class="grouped-Rear Mezzanine Sides">
<polygon data-section="Rear Mezzanine Sides" data-priority="3" class="62249" points="527.0,833.0 541.0,863.0 580.0,867.0 593.0,862.0 606.0,857.0 619.0,851.0 619.0,833.0 618.0,762.0 527.0,799.0 527.0,816.0 527.0,833.0" style="fill:#C4C4C4;" />
<polygon data-section="Rear Mezzanine Sides" data-priority="3" class="62249" points="45.0,859.0 58.0,865.0 71.0,870.0 111.0,863.0 125.0,833.0 125.0,816.0 125.0,799.0 34.0,762.0 32.0,853.0 45.0,859.0" style="fill:#C4C4C4;" />
</g>
<g class="grouped-Orchestra Last Rows/Mid Mezzanine/Mid Mezzanine Sides">
<polygon data-section="Orchestra Last Rows/Mid Mezzanine/Mid Mezzanine Sides" data-priority="3" class="62251" points="288.0,524.0 288.0,541.0 314.0,542.0 327.0,542.0 340.0,542.0 353.0,542.0 366.0,542.0 392.0,541.0 405.0,540.0 418.0,539.0 418.0,522.0 301.0,524.0 288.0,524.0" style="fill:#C4C4C4;" />
<polygon data-section="Orchestra Last Rows/Mid Mezzanine/Mid Mezzanine Sides" data-priority="3" class="62251" points="177.0,793.0 190.0,795.0 203.0,797.0 216.0,798.0 229.0,799.0 242.0,800.0 255.0,801.0 268.0,802.0 281.0,803.0 294.0,804.0 307.0,804.0 320.0,804.0 333.0,804.0 346.0,804.0 372.0,803.0 385.0,802.0 398.0,801.0 411.0,800.0 424.0,799.0 437.0,798.0 450.0,797.0 463.0,796.0 476.0,794.0 476.0,777.0 476.0,760.0 476.0,743.0 476.0,726.0 424.0,731.0 411.0,732.0 398.0,733.0 359.0,735.0 255.0,733.0 242.0,732.0 177.0,725.0 177.0,742.0 177.0,759.0 177.0,776.0 177.0,793.0" style="fill:#C4C4C4;" />
<polygon data-section="Orchestra Last Rows/Mid Mezzanine/Mid Mezzanine Sides" data-priority="3" class="62251" points="47.0,752.0 60.0,758.0 73.0,764.0 86.0,769.0 99.0,774.0 112.0,778.0 125.0,782.0 125.0,765.0 125.0,748.0 125.0,731.0 125.0,714.0 86.0,701.0 34.0,711.0 34.0,728.0 34.0,745.0 47.0,752.0" style="fill:#C4C4C4;" />
<polygon data-section="Orchestra Last Rows/Mid Mezzanine/Mid Mezzanine Sides" data-priority="3" class="62251" points="527.0,748.0 527.0,765.0 527.0,782.0 540.0,778.0 553.0,774.0 566.0,769.0 579.0,764.0 592.0,758.0 605.0,752.0 618.0,745.0 618.0,728.0 618.0,711.0 566.0,701.0 527.0,714.0 527.0,731.0 527.0,748.0" style="fill:#C4C4C4;" />
</g>
<g class="grouped-Mid Orchestra/Front Orchestra Sides/Front Mezzanine/Front Mezzanine Sides">
<polygon data-section="Mid Orchestra/Front Orchestra Sides/Front Mezzanine/Front Mezzanine Sides" data-priority="3" class="62252" points="450.0,213.0 450.0,230.0 450.0,247.0 450.0,264.0 450.0,281.0 450.0,298.0 450.0,315.0 450.0,332.0 450.0,349.0 450.0,366.0 450.0,383.0 463.0,382.0 476.0,381.0 489.0,379.0 502.0,377.0 515.0,374.0 528.0,371.0 541.0,367.0 554.0,363.0 567.0,358.0 567.0,341.0 567.0,324.0 567.0,307.0 567.0,290.0 567.0,273.0 541.0,197.0 510.0,136.0 488.0,122.0 456.0,109.0 443.0,110.0 430.0,111.0 450.0,213.0" style="fill:#C4C4C4;" />
<polygon data-section="Mid Orchestra/Front Orchestra Sides/Front Mezzanine/Front Mezzanine Sides" data-priority="3" class="62252" points="236.0,316.0 236.0,333.0 236.0,350.0 236.0,367.0 236.0,384.0 249.0,385.0 262.0,386.0 275.0,387.0 288.0,388.0 314.0,389.0 327.0,389.0 340.0,389.0 353.0,389.0 379.0,388.0 392.0,387.0 405.0,386.0 418.0,385.0 418.0,368.0 418.0,351.0 418.0,334.0 418.0,317.0 418.0,300.0 418.0,282.0 405.0,283.0 366.0,285.0 301.0,285.0 262.0,283.0 249.0,282.0 236.0,281.0 236.0,299.0 236.0,316.0" style="fill:#C4C4C4;" />
<polygon data-section="Mid Orchestra/Front Orchestra Sides/Front Mezzanine/Front Mezzanine Sides" data-priority="3" class="62252" points="87.0,307.0 87.0,324.0 87.0,341.0 87.0,358.0 100.0,363.0 113.0,367.0 126.0,371.0 139.0,374.0 152.0,377.0 165.0,379.0 178.0,381.0 191.0,383.0 204.0,384.0 204.0,367.0 204.0,350.0 204.0,333.0 204.0,316.0 204.0,299.0 204.0,282.0 204.0,265.0 204.0,248.0 204.0,231.0 219.0,129.0 224.0,112.0 198.0,109.0 167.0,122.0 144.0,136.0 113.0,197.0 87.0,273.0 87.0,290.0 87.0,307.0" style="fill:#C4C4C4;" />
<polygon data-section="Mid Orchestra/Front Orchestra Sides/Front Mezzanine/Front Mezzanine Sides" data-priority="3" class="62252" points="164.0,620.0 177.0,708.0 190.0,710.0 203.0,712.0 216.0,713.0 229.0,714.0 242.0,715.0 255.0,716.0 268.0,717.0 281.0,718.0 294.0,719.0 307.0,719.0 320.0,719.0 333.0,719.0 346.0,719.0 372.0,718.0 385.0,717.0 398.0,716.0 411.0,715.0 424.0,714.0 437.0,713.0 450.0,712.0 463.0,711.0 476.0,709.0 489.0,622.0 489.0,605.0 489.0,588.0 424.0,595.0 411.0,596.0 398.0,597.0 359.0,599.0 268.0,598.0 255.0,597.0 164.0,586.0 164.0,603.0 164.0,620.0" style="fill:#C4C4C4;" />
<polygon data-section="Mid Orchestra/Front Orchestra Sides/Front Mezzanine/Front Mezzanine Sides" data-priority="3" class="62252" points="527.0,612.0 527.0,629.0 527.0,646.0 540.0,642.0 553.0,638.0 566.0,633.0 579.0,628.0 592.0,622.0 592.0,605.0 592.0,588.0 592.0,571.0 592.0,554.0 527.0,578.0 527.0,595.0 527.0,612.0" style="fill:#C4C4C4;" />
<polygon data-section="Mid Orchestra/Front Orchestra Sides/Front Mezzanine/Front Mezzanine Sides" data-priority="3" class="62252" points="99.0,689.0 112.0,693.0 125.0,697.0 125.0,680.0 112.0,676.0 86.0,684.0 99.0,689.0" style="fill:#C4C4C4;" />
<polygon data-section="Mid Orchestra/Front Orchestra Sides/Front Mezzanine/Front Mezzanine Sides" data-priority="3" class="62252" points="60.0,588.0 60.0,605.0 60.0,622.0 73.0,628.0 86.0,633.0 99.0,638.0 112.0,642.0 125.0,646.0 125.0,629.0 125.0,612.0 125.0,595.0 125.0,578.0 60.0,554.0 60.0,571.0 60.0,588.0" style="fill:#C4C4C4;" />
<polygon data-section="Mid Orchestra/Front Orchestra Sides/Front Mezzanine/Front Mezzanine Sides" data-priority="3" class="62252" points="540.0,676.0 527.0,680.0 527.0,697.0 540.0,693.0 553.0,689.0 566.0,684.0 540.0,676.0" style="fill:#C4C4C4;" />
</g>
<g class="grouped-Orchestra Last Rows/Mid Mezzanine Sides/Rear Mezzanine">
<polygon data-section="Orchestra Last Rows/Mid Mezzanine Sides/Rear Mezzanine" data-priority="3" class="62253" points="288.0,524.0 288.0,541.0 314.0,542.0 327.0,542.0 340.0,542.0 353.0,542.0 366.0,542.0 392.0,541.0 405.0,540.0 418.0,539.0 418.0,522.0 301.0,524.0 288.0,524.0" style="fill:#C4C4C4;" />
<polygon data-section="Orchestra Last Rows/Mid Mezzanine Sides/Rear Mezzanine" data-priority="3" class="62253" points="45.0,859.0 58.0,865.0 71.0,870.0 111.0,863.0 125.0,833.0 125.0,816.0 125.0,799.0 125.0,782.0 125.0,765.0 125.0,748.0 125.0,731.0 125.0,714.0 86.0,701.0 34.0,711.0 34.0,728.0 34.0,745.0 34.0,762.0 32.0,853.0 45.0,859.0" style="fill:#C4C4C4;" />
<polygon data-section="Orchestra Last Rows/Mid Mezzanine Sides/Rear Mezzanine" data-priority="3" class="62253" points="527.0,782.0 527.0,799.0 527.0,816.0 527.0,833.0 541.0,863.0 580.0,867.0 593.0,862.0 606.0,857.0 619.0,851.0 619.0,833.0 618.0,745.0 618.0,728.0 618.0,711.0 566.0,701.0 527.0,714.0 527.0,731.0 527.0,748.0 527.0,765.0 527.0,782.0" style="fill:#C4C4C4;" />
<polygon data-section="Orchestra Last Rows/Mid Mezzanine Sides/Rear Mezzanine" data-priority="3" class="62253" points="236.0,901.0 249.0,902.0 262.0,903.0 275.0,904.0 288.0,905.0 301.0,905.0 314.0,905.0 327.0,905.0 340.0,905.0 353.0,905.0 379.0,904.0 392.0,903.0 405.0,902.0 418.0,901.0 431.0,900.0 495.0,873.0 476.0,811.0 424.0,816.0 411.0,817.0 398.0,818.0 359.0,820.0 255.0,818.0 242.0,817.0 177.0,810.0 157.0,871.0 223.0,900.0 236.0,901.0" style="fill:#C4C4C4;" />
</g>
<g class="grouped-Mid Mezzanine Far Sides/Rear Mezzanine Sides">
<polygon data-section="Mid Mezzanine Far Sides/Rear Mezzanine Sides" data-priority="5" class="52651" points="527.0,833.0 541.0,863.0 580.0,867.0 593.0,862.0 606.0,857.0 619.0,851.0 619.0,833.0 618.0,728.0 618.0,711.0 605.0,718.0 527.0,799.0 527.0,816.0 527.0,833.0" style="fill:#C4C4C4;" />
<polygon data-section="Mid Mezzanine Far Sides/Rear Mezzanine Sides" data-priority="5" class="52651" points="34.0,728.0 34.0,745.0 32.0,853.0 45.0,859.0 58.0,865.0 71.0,870.0 111.0,863.0 125.0,833.0 125.0,816.0 125.0,799.0 47.0,718.0 34.0,711.0 34.0,728.0" style="fill:#C4C4C4;" />
</g>
<g class="grouped-Mid Mezzanine Far Sides/Rear Mezzanine/Rear Mezzanine Sides">
<polygon data-section="Mid Mezzanine Far Sides/Rear Mezzanine/Rear Mezzanine Sides" data-priority="5" class="59519" points="527.0,833.0 541.0,863.0 580.0,867.0 593.0,862.0 606.0,857.0 619.0,851.0 619.0,833.0 618.0,728.0 618.0,711.0 605.0,718.0 527.0,799.0 527.0,816.0 527.0,833.0" style="fill:#C4C4C4;" />
<polygon data-section="Mid Mezzanine Far Sides/Rear Mezzanine/Rear Mezzanine Sides" data-priority="5" class="59519" points="34.0,728.0 34.0,745.0 32.0,853.0 45.0,859.0 58.0,865.0 71.0,870.0 111.0,863.0 125.0,833.0 125.0,816.0 125.0,799.0 47.0,718.0 34.0,711.0 34.0,728.0" style="fill:#C4C4C4;" />
<polygon data-section="Mid Mezzanine Far Sides/Rear Mezzanine/Rear Mezzanine Sides" data-priority="5" class="59519" points="236.0,901.0 249.0,902.0 262.0,903.0 275.0,904.0 288.0,905.0 301.0,905.0 314.0,905.0 327.0,905.0 340.0,905.0 353.0,905.0 379.0,904.0 392.0,903.0 405.0,902.0 418.0,901.0 431.0,900.0 495.0,873.0 476.0,811.0 424.0,816.0 411.0,817.0 398.0,818.0 359.0,820.0 255.0,818.0 242.0,817.0 177.0,810.0 157.0,871.0 223.0,900.0 236.0,901.0" style="fill:#C4C4C4;" />
</g>
<g class="grouped-Mid Mezzanine Far Sides/Rear Mezzanine">
<polygon data-section="Mid Mezzanine Far Sides/Rear Mezzanine" data-priority="5" class="62250" points="527.0,833.0 541.0,863.0 580.0,867.0 593.0,862.0 606.0,857.0 619.0,851.0 619.0,833.0 618.0,728.0 618.0,711.0 605.0,718.0 527.0,799.0 527.0,816.0 527.0,833.0" style="fill:#C4C4C4;" />
<polygon data-section="Mid Mezzanine Far Sides/Rear Mezzanine" data-priority="5" class="62250" points="34.0,728.0 34.0,745.0 32.0,853.0 45.0,859.0 58.0,865.0 71.0,870.0 111.0,863.0 125.0,833.0 125.0,816.0 125.0,799.0 47.0,718.0 34.0,711.0 34.0,728.0" style="fill:#C4C4C4;" />
<polygon data-section="Mid Mezzanine Far Sides/Rear Mezzanine" data-priority="5" class="62250" points="236.0,901.0 249.0,902.0 262.0,903.0 275.0,904.0 288.0,905.0 301.0,905.0 314.0,905.0 327.0,905.0 340.0,905.0 353.0,905.0 379.0,904.0 392.0,903.0 405.0,902.0 418.0,901.0 431.0,900.0 495.0,873.0 476.0,811.0 424.0,816.0 411.0,817.0 398.0,818.0 359.0,820.0 255.0,818.0 242.0,817.0 177.0,810.0 157.0,871.0 223.0,900.0 236.0,901.0" style="fill:#C4C4C4;" />
</g>
</g></g></svg>