<svg viewbox="0 0 692.0 1074.007" xmlns="http://www.w3.org/2000/svg">
<g id="stage">
<rect x="200" y="0" width="292.0" height="100" fill="#222222" />
<text font-size="28px" x="346.0" y="50.0" text-anchor="middle" fill="#ffffff" dominant-baseline="middle">STAGE</text>
</g>
<g transform="translate(0, 100)">
<g class="primary-clusters">
<text x="346.0" y="85" font-size="28px" text-anchor="middle" dominant-baseline="middle">ORCHESTRA</text><text x="346.0" y="543.0" font-size="28px" text-anchor="middle" dominant-baseline="middle">MEZZANINE</text><g class="grouped-orchestra cluster0">
<polygon data-section="orchestra" data-priority="-1" class="n/a" points="67.0,307.0 67.0,324.0 67.0,341.0 67.0,358.0 67.0,375.0 67.0,392.0 67.0,409.0 67.0,426.0 80.0,466.0 93.0,472.0 106.0,478.0 119.0,483.0 132.0,488.0 145.0,492.0 236.0,492.0 236.0,475.0 236.0,458.0 236.0,441.0 236.0,424.0 236.0,407.0 236.0,390.0 236.0,373.0 236.0,356.0 236.0,339.0 236.0,322.0 236.0,305.0 210.0,302.0 197.0,300.0 119.0,279.0 93.0,268.0 80.0,262.0 67.0,256.0 67.0,273.0 67.0,290.0 67.0,307.0" style="fill:#C4C4C4;" />
</g>
<g class="grouped-orchestra cluster1">
<polygon data-section="orchestra" data-priority="-1" class="n/a" points="93.0,167.0 106.0,206.0 119.0,228.0 132.0,233.0 145.0,237.0 158.0,241.0 171.0,244.0 184.0,247.0 197.0,249.0 210.0,251.0 223.0,253.0 236.0,254.0 236.0,237.0 236.0,220.0 236.0,203.0 236.0,186.0 236.0,169.0 236.0,152.0 236.0,135.0 236.0,118.0 197.0,113.0 119.0,143.0 106.0,155.0 93.0,167.0" style="fill:#C4C4C4;" />
</g>
<g class="grouped-orchestra cluster2">
<polygon data-section="orchestra" data-priority="-1" class="n/a" points="268.0,240.0 268.0,257.0 268.0,274.0 268.0,291.0 268.0,308.0 268.0,325.0 268.0,342.0 268.0,359.0 268.0,376.0 268.0,393.0 268.0,410.0 268.0,427.0 268.0,444.0 268.0,461.0 268.0,478.0 268.0,495.0 281.0,496.0 307.0,497.0 333.0,498.0 359.0,498.0 385.0,497.0 411.0,496.0 424.0,495.0 424.0,478.0 424.0,461.0 424.0,444.0 424.0,427.0 424.0,410.0 424.0,393.0 424.0,376.0 424.0,359.0 424.0,342.0 424.0,325.0 424.0,308.0 424.0,291.0 424.0,274.0 424.0,257.0 424.0,240.0 424.0,223.0 424.0,206.0 424.0,189.0 424.0,172.0 424.0,155.0 424.0,138.0 424.0,121.0 398.0,122.0 320.0,123.0 294.0,122.0 268.0,121.0 268.0,138.0 268.0,155.0 268.0,172.0 268.0,189.0 268.0,206.0 268.0,223.0 268.0,240.0" style="fill:#C4C4C4;" />
</g>
<g class="grouped-orchestra cluster3">
<polygon data-section="orchestra" data-priority="-1" class="n/a" points="456.0,356.0 456.0,373.0 456.0,390.0 456.0,407.0 456.0,424.0 456.0,441.0 456.0,458.0 456.0,475.0 456.0,492.0 469.0,491.0 482.0,490.0 495.0,488.0 508.0,486.0 521.0,483.0 534.0,480.0 612.0,433.0 625.0,427.0 625.0,410.0 625.0,393.0 625.0,376.0 625.0,359.0 625.0,342.0 625.0,325.0 625.0,308.0 625.0,292.0 625.0,275.0 625.0,258.0 612.0,264.0 573.0,280.0 547.0,289.0 469.0,304.0 456.0,305.0 456.0,322.0 456.0,339.0 456.0,356.0" style="fill:#C4C4C4;" />
</g>
<g class="grouped-orchestra cluster4">
<polygon data-section="orchestra" data-priority="-1" class="n/a" points="456.0,186.0 456.0,203.0 456.0,220.0 456.0,237.0 456.0,254.0 469.0,253.0 482.0,252.0 495.0,250.0 508.0,248.0 521.0,245.0 534.0,242.0 547.0,238.0 560.0,234.0 573.0,229.0 586.0,208.0 599.0,169.0 573.0,144.0 495.0,114.0 456.0,118.0 456.0,135.0 456.0,152.0 456.0,169.0 456.0,186.0" style="fill:#C4C4C4;" />
</g>
<g class="grouped-mezzanine cluster0">
<polygon data-section="mezzanine" data-priority="-1" class="n/a" points="60.0,588.0 60.0,605.0 60.0,621.0 73.0,627.0 86.0,633.0 99.0,639.0 112.0,644.0 125.0,649.0 138.0,653.0 151.0,657.0 164.0,660.0 177.0,663.0 190.0,665.0 203.0,667.0 216.0,669.0 229.0,670.0 229.0,654.0 229.0,637.0 229.0,620.0 229.0,603.0 229.0,586.0 203.0,583.0 190.0,581.0 112.0,560.0 86.0,549.0 73.0,543.0 60.0,537.0 60.0,554.0 60.0,571.0 60.0,588.0" style="fill:#C4C4C4;" />
</g>
<g class="grouped-mezzanine cluster1">
<polygon data-section="mezzanine" data-priority="-1" class="n/a" points="261.0,624.0 261.0,641.0 261.0,658.0 261.0,675.0 274.0,676.0 300.0,677.0 326.0,678.0 339.0,678.0 352.0,678.0 365.0,678.0 391.0,677.0 417.0,676.0 430.0,675.0 430.0,658.0 430.0,641.0 430.0,624.0 430.0,607.0 430.0,590.0 404.0,591.0 378.0,592.0 287.0,591.0 261.0,590.0 261.0,607.0 261.0,624.0" style="fill:#C4C4C4;" />
</g>
<g class="grouped-mezzanine cluster2">
<polygon data-section="mezzanine" data-priority="-1" class="n/a" points="462.0,603.0 462.0,620.0 462.0,637.0 462.0,654.0 462.0,671.0 475.0,670.0 488.0,669.0 501.0,667.0 514.0,665.0 527.0,662.0 540.0,659.0 553.0,655.0 566.0,651.0 579.0,646.0 592.0,641.0 605.0,635.0 618.0,629.0 631.0,623.0 631.0,606.0 631.0,589.0 631.0,572.0 631.0,555.0 631.0,538.0 618.0,544.0 605.0,550.0 579.0,561.0 553.0,570.0 475.0,585.0 462.0,586.0 462.0,603.0" style="fill:#C4C4C4;" />
</g>
<g class="grouped-mezzanine cluster3">
<polygon data-section="mezzanine" data-priority="-1" class="n/a" points="60.0,729.0 60.0,746.0 60.0,762.0 60.0,779.0 60.0,796.0 73.0,802.0 164.0,818.0 177.0,821.0 190.0,823.0 203.0,825.0 216.0,827.0 229.0,828.0 229.0,811.0 229.0,795.0 229.0,778.0 151.0,714.0 60.0,678.0 60.0,695.0 60.0,712.0 60.0,729.0" style="fill:#C4C4C4;" />
</g>
<g class="grouped-mezzanine cluster4">
<polygon data-section="mezzanine" data-priority="-1" class="n/a" points="261.0,800.0 261.0,817.0 261.0,834.0 274.0,835.0 339.0,820.0 417.0,835.0 430.0,834.0 430.0,817.0 430.0,800.0 430.0,783.0 430.0,766.0 430.0,749.0 430.0,732.0 404.0,733.0 378.0,734.0 287.0,733.0 261.0,732.0 261.0,749.0 261.0,766.0 261.0,783.0 261.0,800.0" style="fill:#C4C4C4;" />
</g>
<g class="grouped-mezzanine cluster5">
<polygon data-section="mezzanine" data-priority="-1" class="n/a" points="462.0,796.0 462.0,813.0 462.0,830.0 475.0,829.0 488.0,828.0 501.0,826.0 514.0,824.0 527.0,821.0 618.0,805.0 631.0,799.0 631.0,782.0 631.0,765.0 631.0,748.0 631.0,731.0 631.0,714.0 631.0,697.0 631.0,680.0 540.0,716.0 462.0,779.0 462.0,796.0" style="fill:#C4C4C4;" />
</g>
</g>
<g class="tour-sections"><g class="grouped-Front Orchestra">
<polygon data-section="Front Orchestra" data-priority="1" class="38083" points="93.0,167.0 106.0,206.0 119.0,211.0 132.0,216.0 145.0,220.0 158.0,224.0 171.0,227.0 184.0,230.0 197.0,232.0 210.0,234.0 223.0,236.0 236.0,237.0 236.0,220.0 236.0,203.0 236.0,186.0 236.0,169.0 236.0,152.0 236.0,135.0 236.0,118.0 197.0,113.0 119.0,143.0 106.0,155.0 93.0,167.0" style="fill:#C4C4C4;" />
<polygon data-section="Front Orchestra" data-priority="1" class="38083" points="268.0,172.0 268.0,189.0 268.0,206.0 268.0,223.0 268.0,240.0 281.0,241.0 307.0,242.0 333.0,243.0 346.0,243.0 359.0,243.0 385.0,242.0 411.0,241.0 424.0,240.0 424.0,223.0 424.0,206.0 424.0,189.0 424.0,172.0 424.0,155.0 424.0,138.0 424.0,121.0 398.0,122.0 372.0,123.0 294.0,122.0 268.0,121.0 268.0,138.0 268.0,155.0 268.0,172.0" style="fill:#C4C4C4;" />
<polygon data-section="Front Orchestra" data-priority="1" class="38083" points="456.0,186.0 456.0,203.0 456.0,220.0 456.0,237.0 469.0,236.0 482.0,235.0 495.0,233.0 508.0,231.0 521.0,228.0 534.0,225.0 547.0,221.0 560.0,217.0 586.0,208.0 599.0,169.0 573.0,144.0 495.0,114.0 456.0,118.0 456.0,135.0 456.0,152.0 456.0,169.0 456.0,186.0" style="fill:#C4C4C4;" />
</g>
<g class="grouped-Front Mezzanine">
<polygon data-section="Front Mezzanine" data-priority="1" class="49781" points="261.0,590.0 261.0,607.0 261.0,624.0 261.0,641.0 261.0,658.0 261.0,675.0 274.0,676.0 300.0,677.0 326.0,678.0 339.0,678.0 352.0,678.0 365.0,678.0 391.0,677.0 417.0,676.0 430.0,675.0 430.0,658.0 430.0,641.0 430.0,624.0 430.0,607.0 430.0,590.0 404.0,591.0 313.0,592.0 287.0,591.0 261.0,590.0" style="fill:#C4C4C4;" />
<polygon data-section="Front Mezzanine" data-priority="1" class="49781" points="60.0,588.0 60.0,605.0 60.0,621.0 73.0,627.0 86.0,633.0 99.0,639.0 112.0,644.0 125.0,649.0 138.0,653.0 151.0,657.0 164.0,660.0 177.0,663.0 190.0,665.0 203.0,667.0 216.0,669.0 229.0,670.0 229.0,654.0 229.0,637.0 229.0,620.0 229.0,603.0 229.0,586.0 203.0,583.0 190.0,581.0 112.0,560.0 86.0,549.0 73.0,543.0 60.0,537.0 60.0,554.0 60.0,571.0 60.0,588.0" style="fill:#C4C4C4;" />
<polygon data-section="Front Mezzanine" data-priority="1" class="49781" points="462.0,603.0 462.0,620.0 462.0,637.0 462.0,654.0 462.0,671.0 475.0,670.0 488.0,669.0 501.0,667.0 514.0,665.0 527.0,662.0 540.0,659.0 553.0,655.0 566.0,651.0 579.0,646.0 592.0,641.0 605.0,635.0 618.0,629.0 631.0,623.0 631.0,606.0 631.0,589.0 631.0,572.0 631.0,555.0 631.0,538.0 618.0,544.0 605.0,550.0 579.0,561.0 553.0,570.0 475.0,585.0 462.0,586.0 462.0,603.0" style="fill:#C4C4C4;" />
</g>
<g class="grouped-Last Rows Orchestra">
<polygon data-section="Last Rows Orchestra" data-priority="1" class="62235" points="106.0,478.0 119.0,483.0 132.0,488.0 145.0,492.0 236.0,492.0 80.0,449.0 80.0,466.0 93.0,472.0 106.0,478.0" style="fill:#C4C4C4;" />
<polygon data-section="Last Rows Orchestra" data-priority="1" class="62235" points="508.0,486.0 521.0,483.0 534.0,480.0 456.0,492.0 469.0,491.0 482.0,490.0 495.0,488.0 508.0,486.0" style="fill:#C4C4C4;" />
<polygon data-section="Last Rows Orchestra" data-priority="1" class="62235" points="300.6523636658496,490.9082624936399 307.0,497.0 328.44394050695394,501.9410887602159 333.0,498.0 321.81961405424767,486.336922596052 300.6523636658496,490.9082624936399" style="fill:#C4C4C4;" />
<polygon data-section="Last Rows Orchestra" data-priority="1" class="62235" points="390.97193765071876,487.7531038423372 346.30260178304354,495.3226968856459 359.0,498.0 385.0,497.0 390.97193765071876,487.7531038423372" style="fill:#C4C4C4;" />
</g>
<g class="grouped-Mid Premiums">
<polygon data-section="Mid Premiums" data-priority="2" class="38084" points="268.0,223.0 268.0,240.0 268.0,257.0 268.0,274.0 268.0,291.0 268.0,308.0 268.0,325.0 268.0,342.0 268.0,359.0 268.0,376.0 281.0,377.0 307.0,378.0 333.0,379.0 346.0,379.0 359.0,379.0 385.0,378.0 411.0,377.0 424.0,376.0 424.0,359.0 424.0,342.0 424.0,325.0 424.0,308.0 424.0,291.0 424.0,274.0 424.0,257.0 424.0,240.0 424.0,223.0 424.0,206.0 424.0,189.0 424.0,172.0 424.0,155.0 424.0,138.0 424.0,121.0 398.0,122.0 320.0,123.0 294.0,122.0 268.0,121.0 268.0,138.0 268.0,155.0 268.0,172.0 268.0,189.0 268.0,206.0 268.0,223.0" style="fill:#C4C4C4;" />
</g>
<g class="grouped-Premiums">
<polygon data-section="Premiums" data-priority="2" class="38085" points="268.0,189.0 268.0,206.0 268.0,223.0 268.0,240.0 281.0,241.0 307.0,242.0 333.0,243.0 346.0,243.0 359.0,243.0 385.0,242.0 411.0,241.0 424.0,240.0 424.0,223.0 424.0,206.0 424.0,189.0 424.0,172.0 424.0,155.0 424.0,138.0 424.0,121.0 398.0,122.0 372.0,123.0 294.0,122.0 268.0,121.0 268.0,138.0 268.0,155.0 268.0,172.0 268.0,189.0" style="fill:#C4C4C4;" />
</g>
<g class="grouped-Front Mezzanine Center">
<polygon data-section="Front Mezzanine Center" data-priority="2" class="49789" points="261.0,590.0 261.0,607.0 261.0,624.0 261.0,641.0 261.0,658.0 261.0,675.0 274.0,676.0 300.0,677.0 326.0,678.0 339.0,678.0 352.0,678.0 365.0,678.0 391.0,677.0 417.0,676.0 430.0,675.0 430.0,658.0 430.0,641.0 430.0,624.0 430.0,607.0 430.0,590.0 404.0,591.0 313.0,592.0 287.0,591.0 261.0,590.0" style="fill:#C4C4C4;" />
</g>
<g class="grouped-Mid Orchestra/Rear Orchestra Center/Front Mezzanine Center">
<polygon data-section="Mid Orchestra/Rear Orchestra Center/Front Mezzanine Center" data-priority="2" class="49791" points="67.0,256.0 67.0,273.0 67.0,290.0 67.0,307.0 67.0,324.0 80.0,330.0 93.0,336.0 106.0,342.0 119.0,347.0 132.0,352.0 145.0,356.0 158.0,360.0 171.0,363.0 184.0,366.0 197.0,368.0 210.0,370.0 223.0,372.0 236.0,373.0 236.0,356.0 236.0,339.0 236.0,322.0 236.0,305.0 210.0,302.0 197.0,300.0 119.0,279.0 93.0,268.0 80.0,262.0 67.0,256.0" style="fill:#C4C4C4;" />
<polygon data-section="Mid Orchestra/Rear Orchestra Center/Front Mezzanine Center" data-priority="2" class="49791" points="456.0,322.0 456.0,339.0 456.0,356.0 456.0,373.0 469.0,372.0 482.0,371.0 495.0,369.0 508.0,367.0 521.0,364.0 534.0,361.0 547.0,357.0 560.0,353.0 573.0,348.0 586.0,343.0 599.0,337.0 612.0,331.0 625.0,325.0 625.0,308.0 625.0,292.0 625.0,275.0 625.0,258.0 612.0,264.0 573.0,280.0 547.0,289.0 469.0,304.0 456.0,305.0 456.0,322.0" style="fill:#C4C4C4;" />
<polygon data-section="Mid Orchestra/Rear Orchestra Center/Front Mezzanine Center" data-priority="2" class="49791" points="210.0,251.0 223.0,253.0 236.0,254.0 119.0,228.0 132.0,233.0 145.0,237.0 158.0,241.0 171.0,244.0 184.0,247.0 197.0,249.0 210.0,251.0" style="fill:#C4C4C4;" />
<polygon data-section="Mid Orchestra/Rear Orchestra Center/Front Mezzanine Center" data-priority="2" class="49791" points="268.0,359.0 268.0,376.0 268.0,393.0 268.0,410.0 268.0,427.0 268.0,444.0 268.0,461.0 268.0,478.0 268.0,495.0 281.0,496.0 307.0,497.0 333.0,498.0 359.0,498.0 385.0,497.0 411.0,496.0 424.0,495.0 424.0,478.0 424.0,461.0 424.0,444.0 424.0,427.0 424.0,410.0 424.0,393.0 424.0,376.0 424.0,359.0 424.0,342.0 424.0,325.0 424.0,308.0 424.0,291.0 424.0,274.0 424.0,257.0 398.0,258.0 320.0,259.0 294.0,258.0 268.0,257.0 268.0,274.0 268.0,291.0 268.0,308.0 268.0,325.0 268.0,342.0 268.0,359.0" style="fill:#C4C4C4;" />
<polygon data-section="Mid Orchestra/Rear Orchestra Center/Front Mezzanine Center" data-priority="2" class="49791" points="560.0,234.0 573.0,229.0 456.0,254.0 469.0,253.0 482.0,252.0 495.0,250.0 508.0,248.0 521.0,245.0 534.0,242.0 547.0,238.0 560.0,234.0" style="fill:#C4C4C4;" />
<polygon data-section="Mid Orchestra/Rear Orchestra Center/Front Mezzanine Center" data-priority="2" class="49791" points="261.0,590.0 261.0,607.0 261.0,624.0 261.0,641.0 261.0,658.0 261.0,675.0 274.0,676.0 300.0,677.0 326.0,678.0 339.0,678.0 352.0,678.0 365.0,678.0 391.0,677.0 417.0,676.0 430.0,675.0 430.0,658.0 430.0,641.0 430.0,624.0 430.0,607.0 430.0,590.0 404.0,591.0 313.0,592.0 287.0,591.0 261.0,590.0" style="fill:#C4C4C4;" />
</g>
<g class="grouped-Mid Mezzanine Center/Rear Mezzanine Center">
<polygon data-section="Mid Mezzanine Center/Rear Mezzanine Center" data-priority="2" class="49802" points="261.0,817.0 261.0,834.0 274.0,835.0 352.0,820.0 417.0,835.0 430.0,834.0 430.0,817.0 430.0,800.0 430.0,783.0 404.0,733.0 313.0,734.0 287.0,733.0 261.0,783.0 261.0,800.0 261.0,817.0" style="fill:#C4C4C4;" />
<polygon data-section="Mid Mezzanine Center/Rear Mezzanine Center" data-priority="2" class="49802" points="179.86244991010514,820.7636500475063 196.46687169542128,835.1224776386208 238.1770430539514,830.6775739383468 229.0,828.0 179.86244991010514,820.7636500475063" style="fill:#C4C4C4;" />
<polygon data-section="Mid Mezzanine Center/Rear Mezzanine Center" data-priority="2" class="49802" points="493.5490798784294,821.6944941434264 458.331359888311,823.957877399045 462.0,830.0 500.48325038506283,832.3937354676301 501.0,826.0 493.5490798784294,821.6944941434264" style="fill:#C4C4C4;" />
</g>
<g class="grouped-Rear Mezzanine Center">
<polygon data-section="Rear Mezzanine Center" data-priority="2" class="62234" points="261.0,800.0 261.0,817.0 261.0,834.0 274.0,835.0 352.0,820.0 417.0,835.0 430.0,834.0 430.0,817.0 430.0,800.0 430.0,783.0 404.0,784.0 287.0,784.0 261.0,783.0 261.0,800.0" style="fill:#C4C4C4;" />
<polygon data-section="Rear Mezzanine Center" data-priority="2" class="62234" points="190.83482575494818,809.7024387769195 190.0,823.0 199.30591836518502,830.7473996280133 218.9110009827206,836.3679527804521 229.0,828.0 190.83482575494818,809.7024387769195" style="fill:#C4C4C4;" />
<polygon data-section="Rear Mezzanine Center" data-priority="2" class="62234" points="462.0,830.0 496.0363856666157,832.7790130487656 506.37553738583625,824.0492109112216 461.9863558279908,821.0691192514028 462.0,830.0" style="fill:#C4C4C4;" />
</g>
<g class="grouped-Front Orchestra/Front Mezzanine Center">
<polygon data-section="Front Orchestra/Front Mezzanine Center" data-priority="2" class="62239" points="93.0,167.0 106.0,206.0 119.0,211.0 132.0,216.0 145.0,220.0 158.0,224.0 171.0,227.0 184.0,230.0 197.0,232.0 210.0,234.0 223.0,236.0 236.0,237.0 236.0,220.0 236.0,203.0 236.0,186.0 236.0,169.0 236.0,152.0 236.0,135.0 236.0,118.0 197.0,113.0 119.0,143.0 106.0,155.0 93.0,167.0" style="fill:#C4C4C4;" />
<polygon data-section="Front Orchestra/Front Mezzanine Center" data-priority="2" class="62239" points="268.0,172.0 268.0,189.0 268.0,206.0 268.0,223.0 268.0,240.0 281.0,241.0 307.0,242.0 333.0,243.0 346.0,243.0 359.0,243.0 385.0,242.0 411.0,241.0 424.0,240.0 424.0,223.0 424.0,206.0 424.0,189.0 424.0,172.0 424.0,155.0 424.0,138.0 424.0,121.0 398.0,122.0 372.0,123.0 294.0,122.0 268.0,121.0 268.0,138.0 268.0,155.0 268.0,172.0" style="fill:#C4C4C4;" />
<polygon data-section="Front Orchestra/Front Mezzanine Center" data-priority="2" class="62239" points="456.0,186.0 456.0,203.0 456.0,220.0 456.0,237.0 469.0,236.0 482.0,235.0 495.0,233.0 508.0,231.0 521.0,228.0 534.0,225.0 547.0,221.0 560.0,217.0 586.0,208.0 599.0,169.0 573.0,144.0 495.0,114.0 456.0,118.0 456.0,135.0 456.0,152.0 456.0,169.0 456.0,186.0" style="fill:#C4C4C4;" />
<polygon data-section="Front Orchestra/Front Mezzanine Center" data-priority="2" class="62239" points="261.0,590.0 261.0,607.0 261.0,624.0 261.0,641.0 261.0,658.0 261.0,675.0 274.0,676.0 300.0,677.0 326.0,678.0 339.0,678.0 352.0,678.0 365.0,678.0 391.0,677.0 417.0,676.0 430.0,675.0 430.0,658.0 430.0,641.0 430.0,624.0 430.0,607.0 430.0,590.0 404.0,591.0 313.0,592.0 287.0,591.0 261.0,590.0" style="fill:#C4C4C4;" />
</g>
<g class="grouped-Last Rows Orchestra/Mid Mezzanine Center/Rear Mezzanine Center">
<polygon data-section="Last Rows Orchestra/Mid Mezzanine Center/Rear Mezzanine Center" data-priority="2" class="62241" points="106.0,478.0 119.0,483.0 132.0,488.0 145.0,492.0 236.0,492.0 80.0,449.0 80.0,466.0 93.0,472.0 106.0,478.0" style="fill:#C4C4C4;" />
<polygon data-section="Last Rows Orchestra/Mid Mezzanine Center/Rear Mezzanine Center" data-priority="2" class="62241" points="508.0,486.0 521.0,483.0 534.0,480.0 456.0,492.0 469.0,491.0 482.0,490.0 495.0,488.0 508.0,486.0" style="fill:#C4C4C4;" />
<polygon data-section="Last Rows Orchestra/Mid Mezzanine Center/Rear Mezzanine Center" data-priority="2" class="62241" points="311.2238065934352,485.8413843566429 307.0,497.0 333.0,498.0 334.1178339738353,492.0686348074669 325.0318325831269,489.046832013649 311.2238065934352,485.8413843566429" style="fill:#C4C4C4;" />
<polygon data-section="Last Rows Orchestra/Mid Mezzanine Center/Rear Mezzanine Center" data-priority="2" class="62241" points="386.5509023380024,484.68101220491803 366.6963499871954,491.8162842843334 353.38034611825697,500.9151359705949 385.0,497.0 386.5509023380024,484.68101220491803" style="fill:#C4C4C4;" />
<polygon data-section="Last Rows Orchestra/Mid Mezzanine Center/Rear Mezzanine Center" data-priority="2" class="62241" points="261.0,817.0 261.0,834.0 274.0,835.0 352.0,820.0 417.0,835.0 430.0,834.0 430.0,817.0 430.0,800.0 430.0,783.0 404.0,733.0 313.0,734.0 287.0,733.0 261.0,783.0 261.0,800.0 261.0,817.0" style="fill:#C4C4C4;" />
<polygon data-section="Last Rows Orchestra/Mid Mezzanine Center/Rear Mezzanine Center" data-priority="2" class="62241" points="199.8210493762367,830.8529140587143 226.04455179224007,835.9823724659549 229.0,828.0 190.0,823.0 199.8210493762367,830.8529140587143" style="fill:#C4C4C4;" />
<polygon data-section="Last Rows Orchestra/Mid Mezzanine Center/Rear Mezzanine Center" data-priority="2" class="62241" points="464.7570107634151,824.4689992134535 463.18901539883416,825.5647902985467 462.0,830.0 506.44928560732376,827.6109272456596 483.1635511919599,816.9002891396912 464.7570107634151,824.4689992134535" style="fill:#C4C4C4;" />
</g>
<g class="grouped-Mid Orchestra Sides/Front Mezzanine">
<polygon data-section="Mid Orchestra Sides/Front Mezzanine" data-priority="3" class="49782" points="67.0,256.0 67.0,273.0 67.0,290.0 67.0,307.0 67.0,324.0 80.0,330.0 93.0,336.0 106.0,342.0 119.0,347.0 132.0,352.0 145.0,356.0 158.0,360.0 171.0,363.0 184.0,366.0 197.0,368.0 210.0,370.0 223.0,372.0 236.0,373.0 236.0,356.0 236.0,339.0 236.0,322.0 236.0,305.0 210.0,302.0 197.0,300.0 119.0,279.0 93.0,268.0 80.0,262.0 67.0,256.0" style="fill:#C4C4C4;" />
<polygon data-section="Mid Orchestra Sides/Front Mezzanine" data-priority="3" class="49782" points="456.0,339.0 456.0,356.0 456.0,373.0 469.0,372.0 482.0,371.0 495.0,369.0 508.0,367.0 521.0,364.0 534.0,361.0 547.0,357.0 560.0,353.0 573.0,348.0 586.0,343.0 599.0,337.0 612.0,331.0 625.0,325.0 625.0,308.0 625.0,292.0 625.0,275.0 625.0,258.0 612.0,264.0 573.0,280.0 547.0,289.0 469.0,304.0 456.0,305.0 456.0,322.0 456.0,339.0" style="fill:#C4C4C4;" />
<polygon data-section="Mid Orchestra Sides/Front Mezzanine" data-priority="3" class="49782" points="210.0,251.0 223.0,253.0 236.0,254.0 119.0,228.0 132.0,233.0 145.0,237.0 158.0,241.0 171.0,244.0 184.0,247.0 197.0,249.0 210.0,251.0" style="fill:#C4C4C4;" />
<polygon data-section="Mid Orchestra Sides/Front Mezzanine" data-priority="3" class="49782" points="560.0,234.0 573.0,229.0 456.0,254.0 469.0,253.0 482.0,252.0 495.0,250.0 508.0,248.0 521.0,245.0 534.0,242.0 547.0,238.0 560.0,234.0" style="fill:#C4C4C4;" />
<polygon data-section="Mid Orchestra Sides/Front Mezzanine" data-priority="3" class="49782" points="261.0,590.0 261.0,607.0 261.0,624.0 261.0,641.0 261.0,658.0 261.0,675.0 274.0,676.0 300.0,677.0 326.0,678.0 339.0,678.0 352.0,678.0 365.0,678.0 391.0,677.0 417.0,676.0 430.0,675.0 430.0,658.0 430.0,641.0 430.0,624.0 430.0,607.0 430.0,590.0 404.0,591.0 313.0,592.0 287.0,591.0 261.0,590.0" style="fill:#C4C4C4;" />
<polygon data-section="Mid Orchestra Sides/Front Mezzanine" data-priority="3" class="49782" points="60.0,588.0 60.0,605.0 60.0,621.0 73.0,627.0 86.0,633.0 99.0,639.0 112.0,644.0 125.0,649.0 138.0,653.0 151.0,657.0 164.0,660.0 177.0,663.0 190.0,665.0 203.0,667.0 216.0,669.0 229.0,670.0 229.0,654.0 229.0,637.0 229.0,620.0 229.0,603.0 229.0,586.0 203.0,583.0 190.0,581.0 112.0,560.0 86.0,549.0 73.0,543.0 60.0,537.0 60.0,554.0 60.0,571.0 60.0,588.0" style="fill:#C4C4C4;" />
<polygon data-section="Mid Orchestra Sides/Front Mezzanine" data-priority="3" class="49782" points="462.0,603.0 462.0,620.0 462.0,637.0 462.0,654.0 462.0,671.0 475.0,670.0 488.0,669.0 501.0,667.0 514.0,665.0 527.0,662.0 540.0,659.0 553.0,655.0 566.0,651.0 579.0,646.0 592.0,641.0 605.0,635.0 618.0,629.0 631.0,623.0 631.0,606.0 631.0,589.0 631.0,572.0 631.0,555.0 631.0,538.0 618.0,544.0 605.0,550.0 579.0,561.0 553.0,570.0 475.0,585.0 462.0,586.0 462.0,603.0" style="fill:#C4C4C4;" />
</g>
<g class="grouped-Mid Orchestra/Rear Orchestra Center/Front Orchestra Sides/Front Mezzanine Center">
<polygon data-section="Mid Orchestra/Rear Orchestra Center/Front Orchestra Sides/Front Mezzanine Center" data-priority="3" class="49783" points="67.0,256.0 67.0,273.0 67.0,290.0 67.0,307.0 67.0,324.0 80.0,330.0 93.0,336.0 106.0,342.0 119.0,347.0 132.0,352.0 145.0,356.0 158.0,360.0 171.0,363.0 184.0,366.0 197.0,368.0 210.0,370.0 223.0,372.0 236.0,373.0 236.0,356.0 236.0,339.0 236.0,322.0 236.0,305.0 210.0,302.0 197.0,300.0 119.0,279.0 93.0,268.0 80.0,262.0 67.0,256.0" style="fill:#C4C4C4;" />
<polygon data-section="Mid Orchestra/Rear Orchestra Center/Front Orchestra Sides/Front Mezzanine Center" data-priority="3" class="49783" points="456.0,322.0 456.0,339.0 456.0,356.0 456.0,373.0 469.0,372.0 482.0,371.0 495.0,369.0 508.0,367.0 521.0,364.0 534.0,361.0 547.0,357.0 560.0,353.0 573.0,348.0 586.0,343.0 599.0,337.0 612.0,331.0 625.0,325.0 625.0,308.0 625.0,292.0 625.0,275.0 625.0,258.0 612.0,264.0 573.0,280.0 547.0,289.0 469.0,304.0 456.0,305.0 456.0,322.0" style="fill:#C4C4C4;" />
<polygon data-section="Mid Orchestra/Rear Orchestra Center/Front Orchestra Sides/Front Mezzanine Center" data-priority="3" class="49783" points="93.0,167.0 106.0,206.0 119.0,228.0 132.0,233.0 145.0,237.0 158.0,241.0 171.0,244.0 184.0,247.0 197.0,249.0 210.0,251.0 223.0,253.0 236.0,254.0 236.0,237.0 236.0,220.0 236.0,203.0 236.0,186.0 236.0,169.0 236.0,152.0 236.0,135.0 236.0,118.0 197.0,113.0 119.0,143.0 106.0,155.0 93.0,167.0" style="fill:#C4C4C4;" />
<polygon data-section="Mid Orchestra/Rear Orchestra Center/Front Orchestra Sides/Front Mezzanine Center" data-priority="3" class="49783" points="268.0,359.0 268.0,376.0 268.0,393.0 268.0,410.0 268.0,427.0 268.0,444.0 268.0,461.0 268.0,478.0 268.0,495.0 281.0,496.0 307.0,497.0 333.0,498.0 359.0,498.0 385.0,497.0 411.0,496.0 424.0,495.0 424.0,478.0 424.0,461.0 424.0,444.0 424.0,427.0 424.0,410.0 424.0,393.0 424.0,376.0 424.0,359.0 424.0,342.0 424.0,325.0 424.0,308.0 424.0,291.0 424.0,274.0 424.0,257.0 398.0,258.0 320.0,259.0 294.0,258.0 268.0,257.0 268.0,274.0 268.0,291.0 268.0,308.0 268.0,325.0 268.0,342.0 268.0,359.0" style="fill:#C4C4C4;" />
<polygon data-section="Mid Orchestra/Rear Orchestra Center/Front Orchestra Sides/Front Mezzanine Center" data-priority="3" class="49783" points="456.0,186.0 456.0,203.0 456.0,220.0 456.0,237.0 456.0,254.0 469.0,253.0 482.0,252.0 495.0,250.0 508.0,248.0 521.0,245.0 534.0,242.0 547.0,238.0 560.0,234.0 573.0,229.0 586.0,208.0 599.0,169.0 573.0,144.0 495.0,114.0 456.0,118.0 456.0,135.0 456.0,152.0 456.0,169.0 456.0,186.0" style="fill:#C4C4C4;" />
<polygon data-section="Mid Orchestra/Rear Orchestra Center/Front Orchestra Sides/Front Mezzanine Center" data-priority="3" class="49783" points="261.0,590.0 261.0,607.0 261.0,624.0 261.0,641.0 261.0,658.0 261.0,675.0 274.0,676.0 300.0,677.0 326.0,678.0 339.0,678.0 352.0,678.0 365.0,678.0 391.0,677.0 417.0,676.0 430.0,675.0 430.0,658.0 430.0,641.0 430.0,624.0 430.0,607.0 430.0,590.0 404.0,591.0 313.0,592.0 287.0,591.0 261.0,590.0" style="fill:#C4C4C4;" />
</g>
<g class="grouped-Mid Mezzanine Sides/Rear Mezzanine Sides">
<polygon data-section="Mid Mezzanine Sides/Rear Mezzanine Sides" data-priority="3" class="49786" points="462.0,796.0 462.0,813.0 514.0,824.0 527.0,821.0 631.0,799.0 631.0,782.0 631.0,765.0 631.0,748.0 631.0,731.0 631.0,714.0 631.0,697.0 631.0,680.0 540.0,716.0 462.0,779.0 462.0,796.0" style="fill:#C4C4C4;" />
<polygon data-section="Mid Mezzanine Sides/Rear Mezzanine Sides" data-priority="3" class="49786" points="60.0,712.0 60.0,729.0 60.0,746.0 60.0,762.0 60.0,779.0 60.0,796.0 164.0,818.0 177.0,821.0 229.0,811.0 229.0,795.0 229.0,778.0 151.0,714.0 60.0,678.0 60.0,695.0 60.0,712.0" style="fill:#C4C4C4;" />
<polygon data-section="Mid Mezzanine Sides/Rear Mezzanine Sides" data-priority="3" class="49786" points="417.0,733.0 417.0,750.0 417.0,767.0 430.0,766.0 430.0,749.0 430.0,732.0 417.0,733.0" style="fill:#C4C4C4;" />
<polygon data-section="Mid Mezzanine Sides/Rear Mezzanine Sides" data-priority="3" class="49786" points="274.0,733.0 261.0,732.0 261.0,749.0 261.0,766.0 274.0,767.0 274.0,750.0 274.0,733.0" style="fill:#C4C4C4;" />
</g>
<g class="grouped-Mid Orchestra/Rear Orchestra Center/Front Orchestra Sides/Front Mezzanine">
<polygon data-section="Mid Orchestra/Rear Orchestra Center/Front Orchestra Sides/Front Mezzanine" data-priority="3" class="49788" points="67.0,256.0 67.0,273.0 67.0,290.0 67.0,307.0 67.0,324.0 80.0,330.0 93.0,336.0 106.0,342.0 119.0,347.0 132.0,352.0 145.0,356.0 158.0,360.0 171.0,363.0 184.0,366.0 197.0,368.0 210.0,370.0 223.0,372.0 236.0,373.0 236.0,356.0 236.0,339.0 236.0,322.0 236.0,305.0 210.0,302.0 197.0,300.0 119.0,279.0 93.0,268.0 80.0,262.0 67.0,256.0" style="fill:#C4C4C4;" />
<polygon data-section="Mid Orchestra/Rear Orchestra Center/Front Orchestra Sides/Front Mezzanine" data-priority="3" class="49788" points="456.0,322.0 456.0,339.0 456.0,356.0 456.0,373.0 469.0,372.0 482.0,371.0 495.0,369.0 508.0,367.0 521.0,364.0 534.0,361.0 547.0,357.0 560.0,353.0 573.0,348.0 586.0,343.0 599.0,337.0 612.0,331.0 625.0,325.0 625.0,308.0 625.0,292.0 625.0,275.0 625.0,258.0 612.0,264.0 573.0,280.0 547.0,289.0 469.0,304.0 456.0,305.0 456.0,322.0" style="fill:#C4C4C4;" />
<polygon data-section="Mid Orchestra/Rear Orchestra Center/Front Orchestra Sides/Front Mezzanine" data-priority="3" class="49788" points="93.0,167.0 106.0,206.0 119.0,228.0 132.0,233.0 145.0,237.0 158.0,241.0 171.0,244.0 184.0,247.0 197.0,249.0 210.0,251.0 223.0,253.0 236.0,254.0 236.0,237.0 236.0,220.0 236.0,203.0 236.0,186.0 236.0,169.0 236.0,152.0 236.0,135.0 236.0,118.0 197.0,113.0 119.0,143.0 106.0,155.0 93.0,167.0" style="fill:#C4C4C4;" />
<polygon data-section="Mid Orchestra/Rear Orchestra Center/Front Orchestra Sides/Front Mezzanine" data-priority="3" class="49788" points="268.0,359.0 268.0,376.0 268.0,393.0 268.0,410.0 268.0,427.0 268.0,444.0 268.0,461.0 268.0,478.0 268.0,495.0 281.0,496.0 307.0,497.0 333.0,498.0 359.0,498.0 385.0,497.0 411.0,496.0 424.0,495.0 424.0,478.0 424.0,461.0 424.0,444.0 424.0,427.0 424.0,410.0 424.0,393.0 424.0,376.0 424.0,359.0 424.0,342.0 424.0,325.0 424.0,308.0 424.0,291.0 424.0,274.0 424.0,257.0 398.0,258.0 320.0,259.0 294.0,258.0 268.0,257.0 268.0,274.0 268.0,291.0 268.0,308.0 268.0,325.0 268.0,342.0 268.0,359.0" style="fill:#C4C4C4;" />
<polygon data-section="Mid Orchestra/Rear Orchestra Center/Front Orchestra Sides/Front Mezzanine" data-priority="3" class="49788" points="456.0,186.0 456.0,203.0 456.0,220.0 456.0,237.0 456.0,254.0 469.0,253.0 482.0,252.0 495.0,250.0 508.0,248.0 521.0,245.0 534.0,242.0 547.0,238.0 560.0,234.0 573.0,229.0 586.0,208.0 599.0,169.0 573.0,144.0 495.0,114.0 456.0,118.0 456.0,135.0 456.0,152.0 456.0,169.0 456.0,186.0" style="fill:#C4C4C4;" />
<polygon data-section="Mid Orchestra/Rear Orchestra Center/Front Orchestra Sides/Front Mezzanine" data-priority="3" class="49788" points="261.0,590.0 261.0,607.0 261.0,624.0 261.0,641.0 261.0,658.0 261.0,675.0 274.0,676.0 300.0,677.0 326.0,678.0 339.0,678.0 352.0,678.0 365.0,678.0 391.0,677.0 417.0,676.0 430.0,675.0 430.0,658.0 430.0,641.0 430.0,624.0 430.0,607.0 430.0,590.0 404.0,591.0 313.0,592.0 287.0,591.0 261.0,590.0" style="fill:#C4C4C4;" />
<polygon data-section="Mid Orchestra/Rear Orchestra Center/Front Orchestra Sides/Front Mezzanine" data-priority="3" class="49788" points="60.0,588.0 60.0,605.0 60.0,621.0 73.0,627.0 86.0,633.0 99.0,639.0 112.0,644.0 125.0,649.0 138.0,653.0 151.0,657.0 164.0,660.0 177.0,663.0 190.0,665.0 203.0,667.0 216.0,669.0 229.0,670.0 229.0,654.0 229.0,637.0 229.0,620.0 229.0,603.0 229.0,586.0 203.0,583.0 190.0,581.0 112.0,560.0 86.0,549.0 73.0,543.0 60.0,537.0 60.0,554.0 60.0,571.0 60.0,588.0" style="fill:#C4C4C4;" />
<polygon data-section="Mid Orchestra/Rear Orchestra Center/Front Orchestra Sides/Front Mezzanine" data-priority="3" class="49788" points="462.0,603.0 462.0,620.0 462.0,637.0 462.0,654.0 462.0,671.0 475.0,670.0 488.0,669.0 501.0,667.0 514.0,665.0 527.0,662.0 540.0,659.0 553.0,655.0 566.0,651.0 579.0,646.0 592.0,641.0 605.0,635.0 618.0,629.0 631.0,623.0 631.0,606.0 631.0,589.0 631.0,572.0 631.0,555.0 631.0,538.0 618.0,544.0 605.0,550.0 579.0,561.0 553.0,570.0 475.0,585.0 462.0,586.0 462.0,603.0" style="fill:#C4C4C4;" />
</g>
<g class="grouped-Front Orchestra Sides">
<polygon data-section="Front Orchestra Sides" data-priority="3" class="49790" points="106.0,206.0 119.0,211.0 132.0,216.0 145.0,220.0 158.0,224.0 171.0,227.0 184.0,230.0 197.0,232.0 210.0,234.0 223.0,236.0 236.0,237.0 236.0,220.0 236.0,203.0 236.0,186.0 236.0,169.0 236.0,152.0 236.0,135.0 236.0,118.0 197.0,113.0 119.0,143.0 106.0,155.0 93.0,167.0 106.0,206.0" style="fill:#C4C4C4;" />
<polygon data-section="Front Orchestra Sides" data-priority="3" class="49790" points="456.0,186.0 456.0,203.0 456.0,220.0 456.0,237.0 469.0,236.0 482.0,235.0 495.0,233.0 508.0,231.0 521.0,228.0 534.0,225.0 547.0,221.0 560.0,217.0 586.0,208.0 599.0,169.0 573.0,144.0 495.0,114.0 456.0,118.0 456.0,135.0 456.0,152.0 456.0,169.0 456.0,186.0" style="fill:#C4C4C4;" />
</g>
<g class="grouped-Mid Orchestra Sides">
<polygon data-section="Mid Orchestra Sides" data-priority="3" class="51035" points="67.0,256.0 67.0,273.0 67.0,290.0 67.0,307.0 67.0,324.0 80.0,330.0 93.0,336.0 106.0,342.0 119.0,347.0 132.0,352.0 145.0,356.0 158.0,360.0 171.0,363.0 184.0,366.0 197.0,368.0 210.0,370.0 223.0,372.0 236.0,373.0 236.0,356.0 236.0,339.0 236.0,322.0 236.0,305.0 210.0,302.0 197.0,300.0 119.0,279.0 93.0,268.0 80.0,262.0 67.0,256.0" style="fill:#C4C4C4;" />
<polygon data-section="Mid Orchestra Sides" data-priority="3" class="51035" points="456.0,339.0 456.0,356.0 456.0,373.0 469.0,372.0 482.0,371.0 495.0,369.0 508.0,367.0 521.0,364.0 534.0,361.0 547.0,357.0 560.0,353.0 573.0,348.0 586.0,343.0 599.0,337.0 612.0,331.0 625.0,325.0 625.0,308.0 625.0,292.0 625.0,275.0 625.0,258.0 612.0,264.0 573.0,280.0 547.0,289.0 469.0,304.0 456.0,305.0 456.0,322.0 456.0,339.0" style="fill:#C4C4C4;" />
<polygon data-section="Mid Orchestra Sides" data-priority="3" class="51035" points="210.0,251.0 223.0,253.0 236.0,254.0 119.0,228.0 132.0,233.0 145.0,237.0 158.0,241.0 171.0,244.0 184.0,247.0 197.0,249.0 210.0,251.0" style="fill:#C4C4C4;" />
<polygon data-section="Mid Orchestra Sides" data-priority="3" class="51035" points="560.0,234.0 573.0,229.0 456.0,254.0 469.0,253.0 482.0,252.0 495.0,250.0 508.0,248.0 521.0,245.0 534.0,242.0 547.0,238.0 560.0,234.0" style="fill:#C4C4C4;" />
</g>
<g class="grouped-Mid Orchestra/Rear Orchestra Center/Front Orchestra Sides/Mid Orchestra Sides/Fr">
<polygon data-section="Mid Orchestra/Rear Orchestra Center/Front Orchestra Sides/Mid Orchestra Sides/Fr" data-priority="3" class="52304" points="67.0,256.0 67.0,273.0 67.0,290.0 67.0,307.0 67.0,324.0 80.0,330.0 93.0,336.0 106.0,342.0 119.0,347.0 132.0,352.0 145.0,356.0 158.0,360.0 171.0,363.0 184.0,366.0 197.0,368.0 210.0,370.0 223.0,372.0 236.0,373.0 236.0,356.0 236.0,339.0 236.0,322.0 236.0,305.0 210.0,302.0 197.0,300.0 119.0,279.0 93.0,268.0 80.0,262.0 67.0,256.0" style="fill:#C4C4C4;" />
<polygon data-section="Mid Orchestra/Rear Orchestra Center/Front Orchestra Sides/Mid Orchestra Sides/Fr" data-priority="3" class="52304" points="456.0,356.0 456.0,373.0 469.0,372.0 482.0,371.0 495.0,369.0 508.0,367.0 521.0,364.0 534.0,361.0 547.0,357.0 560.0,353.0 573.0,348.0 586.0,343.0 599.0,337.0 612.0,331.0 625.0,325.0 625.0,308.0 625.0,292.0 625.0,275.0 625.0,258.0 612.0,264.0 573.0,280.0 547.0,289.0 469.0,304.0 456.0,305.0 456.0,322.0 456.0,339.0 456.0,356.0" style="fill:#C4C4C4;" />
<polygon data-section="Mid Orchestra/Rear Orchestra Center/Front Orchestra Sides/Mid Orchestra Sides/Fr" data-priority="3" class="52304" points="93.0,167.0 106.0,206.0 119.0,228.0 132.0,233.0 145.0,237.0 158.0,241.0 171.0,244.0 184.0,247.0 197.0,249.0 210.0,251.0 223.0,253.0 236.0,254.0 236.0,237.0 236.0,220.0 236.0,203.0 236.0,186.0 236.0,169.0 236.0,152.0 236.0,135.0 236.0,118.0 197.0,113.0 119.0,143.0 106.0,155.0 93.0,167.0" style="fill:#C4C4C4;" />
<polygon data-section="Mid Orchestra/Rear Orchestra Center/Front Orchestra Sides/Mid Orchestra Sides/Fr" data-priority="3" class="52304" points="268.0,172.0 268.0,189.0 268.0,206.0 268.0,223.0 268.0,240.0 268.0,257.0 268.0,274.0 268.0,291.0 268.0,308.0 268.0,325.0 268.0,342.0 268.0,359.0 268.0,376.0 268.0,393.0 268.0,410.0 268.0,427.0 268.0,444.0 268.0,461.0 268.0,478.0 268.0,495.0 281.0,496.0 307.0,497.0 333.0,498.0 359.0,498.0 385.0,497.0 411.0,496.0 424.0,495.0 424.0,478.0 424.0,461.0 424.0,444.0 424.0,427.0 424.0,410.0 424.0,393.0 424.0,376.0 424.0,359.0 424.0,342.0 424.0,325.0 424.0,308.0 424.0,291.0 424.0,274.0 424.0,257.0 424.0,240.0 424.0,223.0 424.0,206.0 424.0,189.0 424.0,172.0 424.0,155.0 424.0,138.0 424.0,121.0 398.0,122.0 320.0,123.0 294.0,122.0 268.0,121.0 268.0,138.0 268.0,155.0 268.0,172.0" style="fill:#C4C4C4;" />
<polygon data-section="Mid Orchestra/Rear Orchestra Center/Front Orchestra Sides/Mid Orchestra Sides/Fr" data-priority="3" class="52304" points="456.0,152.0 456.0,169.0 456.0,186.0 456.0,203.0 456.0,220.0 456.0,237.0 456.0,254.0 469.0,253.0 482.0,252.0 495.0,250.0 508.0,248.0 521.0,245.0 534.0,242.0 547.0,238.0 560.0,234.0 573.0,229.0 586.0,208.0 599.0,169.0 573.0,144.0 495.0,114.0 456.0,118.0 456.0,135.0 456.0,152.0" style="fill:#C4C4C4;" />
</g>
<g class="grouped-Rear Orchestra Sides/Last Rows Orchestra/Front Mezzanine Sides">
<polygon data-section="Rear Orchestra Sides/Last Rows Orchestra/Front Mezzanine Sides" data-priority="3" class="53475" points="67.0,426.0 80.0,466.0 93.0,472.0 106.0,478.0 119.0,483.0 132.0,488.0 145.0,492.0 236.0,492.0 236.0,475.0 236.0,458.0 236.0,441.0 236.0,424.0 236.0,407.0 236.0,390.0 210.0,387.0 197.0,385.0 119.0,364.0 93.0,353.0 80.0,347.0 67.0,341.0 67.0,358.0 67.0,375.0 67.0,392.0 67.0,409.0 67.0,426.0" style="fill:#C4C4C4;" />
<polygon data-section="Rear Orchestra Sides/Last Rows Orchestra/Front Mezzanine Sides" data-priority="3" class="53475" points="456.0,407.0 456.0,424.0 456.0,441.0 456.0,458.0 456.0,475.0 456.0,492.0 469.0,491.0 482.0,490.0 495.0,488.0 508.0,486.0 521.0,483.0 534.0,480.0 612.0,433.0 625.0,427.0 625.0,410.0 625.0,393.0 625.0,376.0 625.0,359.0 625.0,342.0 612.0,348.0 599.0,354.0 573.0,365.0 547.0,374.0 469.0,389.0 456.0,390.0 456.0,407.0" style="fill:#C4C4C4;" />
<polygon data-section="Rear Orchestra Sides/Last Rows Orchestra/Front Mezzanine Sides" data-priority="3" class="53475" points="320.0,497.0 307.0,497.0 301.34522049315973,504.2818134531772 336.0866711694168,506.4423861723728 333.0,498.0 320.0,497.0" style="fill:#C4C4C4;" />
<polygon data-section="Rear Orchestra Sides/Last Rows Orchestra/Front Mezzanine Sides" data-priority="3" class="53475" points="372.0,497.0 359.0,498.0 386.90491580140696,511.1411397992665 385.0,497.0 372.0,497.0" style="fill:#C4C4C4;" />
<polygon data-section="Rear Orchestra Sides/Last Rows Orchestra/Front Mezzanine Sides" data-priority="3" class="53475" points="60.0,588.0 60.0,605.0 60.0,621.0 73.0,627.0 86.0,633.0 99.0,639.0 112.0,644.0 125.0,649.0 138.0,653.0 151.0,657.0 164.0,660.0 177.0,663.0 190.0,665.0 203.0,667.0 216.0,669.0 229.0,670.0 229.0,654.0 229.0,637.0 229.0,620.0 229.0,603.0 229.0,586.0 203.0,583.0 190.0,581.0 112.0,560.0 86.0,549.0 73.0,543.0 60.0,537.0 60.0,554.0 60.0,571.0 60.0,588.0" style="fill:#C4C4C4;" />
<polygon data-section="Rear Orchestra Sides/Last Rows Orchestra/Front Mezzanine Sides" data-priority="3" class="53475" points="462.0,603.0 462.0,620.0 462.0,637.0 462.0,654.0 462.0,671.0 475.0,670.0 488.0,669.0 501.0,667.0 514.0,665.0 527.0,662.0 540.0,659.0 553.0,655.0 566.0,651.0 579.0,646.0 592.0,641.0 605.0,635.0 618.0,629.0 631.0,623.0 631.0,606.0 631.0,589.0 631.0,572.0 631.0,555.0 631.0,538.0 618.0,544.0 605.0,550.0 579.0,561.0 553.0,570.0 475.0,585.0 462.0,586.0 462.0,603.0" style="fill:#C4C4C4;" />
</g>
<g class="grouped-Rear Mezzanine Sides">
<polygon data-section="Rear Mezzanine Sides" data-priority="3" class="62230" points="462.0,796.0 462.0,813.0 514.0,824.0 631.0,799.0 631.0,782.0 631.0,765.0 631.0,748.0 631.0,731.0 618.0,737.0 605.0,743.0 579.0,754.0 475.0,778.0 462.0,779.0 462.0,796.0" style="fill:#C4C4C4;" />
<polygon data-section="Rear Mezzanine Sides" data-priority="3" class="62230" points="60.0,746.0 60.0,762.0 60.0,779.0 60.0,796.0 177.0,821.0 229.0,811.0 229.0,795.0 229.0,778.0 203.0,775.0 86.0,741.0 73.0,735.0 60.0,729.0 60.0,746.0" style="fill:#C4C4C4;" />
</g>
<g class="grouped-Front Orchestra Sides/Mid Orchestra Sides">
<polygon data-section="Front Orchestra Sides/Mid Orchestra Sides" data-priority="3" class="62231" points="93.0,167.0 106.0,206.0 119.0,228.0 132.0,233.0 145.0,237.0 158.0,241.0 171.0,244.0 184.0,247.0 197.0,249.0 210.0,251.0 223.0,253.0 236.0,254.0 236.0,237.0 236.0,220.0 236.0,203.0 236.0,186.0 236.0,169.0 236.0,152.0 236.0,135.0 236.0,118.0 197.0,113.0 119.0,143.0 106.0,155.0 93.0,167.0" style="fill:#C4C4C4;" />
<polygon data-section="Front Orchestra Sides/Mid Orchestra Sides" data-priority="3" class="62231" points="456.0,152.0 456.0,169.0 456.0,186.0 456.0,203.0 456.0,220.0 456.0,237.0 456.0,254.0 469.0,253.0 482.0,252.0 495.0,250.0 508.0,248.0 521.0,245.0 534.0,242.0 547.0,238.0 560.0,234.0 573.0,229.0 586.0,208.0 599.0,169.0 573.0,144.0 495.0,114.0 456.0,118.0 456.0,135.0 456.0,152.0" style="fill:#C4C4C4;" />
<polygon data-section="Front Orchestra Sides/Mid Orchestra Sides" data-priority="3" class="62231" points="67.0,256.0 67.0,273.0 67.0,290.0 67.0,307.0 67.0,324.0 80.0,330.0 93.0,336.0 106.0,342.0 119.0,347.0 132.0,352.0 145.0,356.0 158.0,360.0 171.0,363.0 184.0,366.0 197.0,368.0 210.0,370.0 223.0,372.0 236.0,373.0 236.0,356.0 236.0,339.0 236.0,322.0 236.0,305.0 210.0,302.0 197.0,300.0 119.0,279.0 93.0,268.0 80.0,262.0 67.0,256.0" style="fill:#C4C4C4;" />
<polygon data-section="Front Orchestra Sides/Mid Orchestra Sides" data-priority="3" class="62231" points="456.0,339.0 456.0,356.0 456.0,373.0 469.0,372.0 482.0,371.0 495.0,369.0 508.0,367.0 521.0,364.0 534.0,361.0 547.0,357.0 560.0,353.0 573.0,348.0 586.0,343.0 599.0,337.0 612.0,331.0 625.0,325.0 625.0,308.0 625.0,292.0 625.0,275.0 625.0,258.0 612.0,264.0 573.0,280.0 547.0,289.0 469.0,304.0 456.0,305.0 456.0,322.0 456.0,339.0" style="fill:#C4C4C4;" />
</g>
<g class="grouped-Front Orchestra Sides/Mid Orchestra Sides/Front Mezzanine">
<polygon data-section="Front Orchestra Sides/Mid Orchestra Sides/Front Mezzanine" data-priority="3" class="62233" points="93.0,167.0 106.0,206.0 119.0,228.0 132.0,233.0 145.0,237.0 158.0,241.0 171.0,244.0 184.0,247.0 197.0,249.0 210.0,251.0 223.0,253.0 236.0,254.0 236.0,237.0 236.0,220.0 236.0,203.0 236.0,186.0 236.0,169.0 236.0,152.0 236.0,135.0 236.0,118.0 197.0,113.0 119.0,143.0 106.0,155.0 93.0,167.0" style="fill:#C4C4C4;" />
<polygon data-section="Front Orchestra Sides/Mid Orchestra Sides/Front Mezzanine" data-priority="3" class="62233" points="456.0,152.0 456.0,169.0 456.0,186.0 456.0,203.0 456.0,220.0 456.0,237.0 456.0,254.0 469.0,253.0 482.0,252.0 495.0,250.0 508.0,248.0 521.0,245.0 534.0,242.0 547.0,238.0 560.0,234.0 573.0,229.0 586.0,208.0 599.0,169.0 573.0,144.0 495.0,114.0 456.0,118.0 456.0,135.0 456.0,152.0" style="fill:#C4C4C4;" />
<polygon data-section="Front Orchestra Sides/Mid Orchestra Sides/Front Mezzanine" data-priority="3" class="62233" points="67.0,256.0 67.0,273.0 67.0,290.0 67.0,307.0 67.0,324.0 80.0,330.0 93.0,336.0 106.0,342.0 119.0,347.0 132.0,352.0 145.0,356.0 158.0,360.0 171.0,363.0 184.0,366.0 197.0,368.0 210.0,370.0 223.0,372.0 236.0,373.0 236.0,356.0 236.0,339.0 236.0,322.0 236.0,305.0 210.0,302.0 197.0,300.0 119.0,279.0 93.0,268.0 80.0,262.0 67.0,256.0" style="fill:#C4C4C4;" />
<polygon data-section="Front Orchestra Sides/Mid Orchestra Sides/Front Mezzanine" data-priority="3" class="62233" points="456.0,339.0 456.0,356.0 456.0,373.0 469.0,372.0 482.0,371.0 495.0,369.0 508.0,367.0 521.0,364.0 534.0,361.0 547.0,357.0 560.0,353.0 573.0,348.0 586.0,343.0 599.0,337.0 612.0,331.0 625.0,325.0 625.0,308.0 625.0,292.0 625.0,275.0 625.0,258.0 612.0,264.0 573.0,280.0 547.0,289.0 469.0,304.0 456.0,305.0 456.0,322.0 456.0,339.0" style="fill:#C4C4C4;" />
<polygon data-section="Front Orchestra Sides/Mid Orchestra Sides/Front Mezzanine" data-priority="3" class="62233" points="261.0,590.0 261.0,607.0 261.0,624.0 261.0,641.0 261.0,658.0 261.0,675.0 274.0,676.0 300.0,677.0 326.0,678.0 339.0,678.0 352.0,678.0 365.0,678.0 391.0,677.0 417.0,676.0 430.0,675.0 430.0,658.0 430.0,641.0 430.0,624.0 430.0,607.0 430.0,590.0 404.0,591.0 313.0,592.0 287.0,591.0 261.0,590.0" style="fill:#C4C4C4;" />
<polygon data-section="Front Orchestra Sides/Mid Orchestra Sides/Front Mezzanine" data-priority="3" class="62233" points="60.0,588.0 60.0,605.0 60.0,621.0 73.0,627.0 86.0,633.0 99.0,639.0 112.0,644.0 125.0,649.0 138.0,653.0 151.0,657.0 164.0,660.0 177.0,663.0 190.0,665.0 203.0,667.0 216.0,669.0 229.0,670.0 229.0,654.0 229.0,637.0 229.0,620.0 229.0,603.0 229.0,586.0 203.0,583.0 190.0,581.0 112.0,560.0 86.0,549.0 73.0,543.0 60.0,537.0 60.0,554.0 60.0,571.0 60.0,588.0" style="fill:#C4C4C4;" />
<polygon data-section="Front Orchestra Sides/Mid Orchestra Sides/Front Mezzanine" data-priority="3" class="62233" points="462.0,603.0 462.0,620.0 462.0,637.0 462.0,654.0 462.0,671.0 475.0,670.0 488.0,669.0 501.0,667.0 514.0,665.0 527.0,662.0 540.0,659.0 553.0,655.0 566.0,651.0 579.0,646.0 592.0,641.0 605.0,635.0 618.0,629.0 631.0,623.0 631.0,606.0 631.0,589.0 631.0,572.0 631.0,555.0 631.0,538.0 618.0,544.0 605.0,550.0 579.0,561.0 553.0,570.0 475.0,585.0 462.0,586.0 462.0,603.0" style="fill:#C4C4C4;" />
</g>
<g class="grouped-Front Mezzanine Sides">
<polygon data-section="Front Mezzanine Sides" data-priority="3" class="62236" points="60.0,588.0 60.0,605.0 60.0,621.0 73.0,627.0 86.0,633.0 99.0,639.0 112.0,644.0 125.0,649.0 138.0,653.0 151.0,657.0 164.0,660.0 177.0,663.0 190.0,665.0 203.0,667.0 216.0,669.0 229.0,670.0 229.0,654.0 229.0,637.0 229.0,620.0 229.0,603.0 229.0,586.0 203.0,583.0 190.0,581.0 112.0,560.0 86.0,549.0 73.0,543.0 60.0,537.0 60.0,554.0 60.0,571.0 60.0,588.0" style="fill:#C4C4C4;" />
<polygon data-section="Front Mezzanine Sides" data-priority="3" class="62236" points="462.0,603.0 462.0,620.0 462.0,637.0 462.0,654.0 462.0,671.0 475.0,670.0 488.0,669.0 501.0,667.0 514.0,665.0 527.0,662.0 540.0,659.0 553.0,655.0 566.0,651.0 579.0,646.0 592.0,641.0 605.0,635.0 618.0,629.0 631.0,623.0 631.0,606.0 631.0,589.0 631.0,572.0 631.0,555.0 631.0,538.0 618.0,544.0 605.0,550.0 579.0,561.0 553.0,570.0 475.0,585.0 462.0,586.0 462.0,603.0" style="fill:#C4C4C4;" />
</g>
<g class="grouped-Mid Orchestra Sides/Rear Orchestra Sides">
<polygon data-section="Mid Orchestra Sides/Rear Orchestra Sides" data-priority="3" class="62237" points="67.0,358.0 67.0,375.0 67.0,392.0 67.0,409.0 67.0,426.0 80.0,466.0 93.0,472.0 106.0,478.0 119.0,483.0 132.0,488.0 145.0,492.0 236.0,492.0 236.0,475.0 236.0,458.0 236.0,441.0 236.0,424.0 236.0,407.0 236.0,390.0 236.0,373.0 236.0,356.0 236.0,339.0 236.0,322.0 236.0,305.0 210.0,302.0 197.0,300.0 119.0,279.0 93.0,268.0 80.0,262.0 67.0,256.0 67.0,273.0 67.0,290.0 67.0,307.0 67.0,324.0 67.0,341.0 67.0,358.0" style="fill:#C4C4C4;" />
<polygon data-section="Mid Orchestra Sides/Rear Orchestra Sides" data-priority="3" class="62237" points="456.0,390.0 456.0,407.0 456.0,424.0 456.0,441.0 456.0,458.0 456.0,475.0 456.0,492.0 469.0,491.0 482.0,490.0 495.0,488.0 508.0,486.0 521.0,483.0 534.0,480.0 612.0,433.0 625.0,427.0 625.0,410.0 625.0,393.0 625.0,376.0 625.0,359.0 625.0,342.0 625.0,325.0 625.0,308.0 625.0,292.0 625.0,275.0 625.0,258.0 612.0,264.0 573.0,280.0 547.0,289.0 469.0,304.0 456.0,305.0 456.0,322.0 456.0,339.0 456.0,356.0 456.0,373.0 456.0,390.0" style="fill:#C4C4C4;" />
<polygon data-section="Mid Orchestra Sides/Rear Orchestra Sides" data-priority="3" class="62237" points="210.0,251.0 223.0,253.0 236.0,254.0 119.0,228.0 132.0,233.0 145.0,237.0 158.0,241.0 171.0,244.0 184.0,247.0 197.0,249.0 210.0,251.0" style="fill:#C4C4C4;" />
<polygon data-section="Mid Orchestra Sides/Rear Orchestra Sides" data-priority="3" class="62237" points="560.0,234.0 573.0,229.0 456.0,254.0 469.0,253.0 482.0,252.0 495.0,250.0 508.0,248.0 521.0,245.0 534.0,242.0 547.0,238.0 560.0,234.0" style="fill:#C4C4C4;" />
</g>
<g class="grouped-Mid Orchestra/Rear Orchestra Center/Front Orchestra Sides">
<polygon data-section="Mid Orchestra/Rear Orchestra Center/Front Orchestra Sides" data-priority="3" class="62238" points="67.0,256.0 67.0,273.0 67.0,290.0 67.0,307.0 67.0,324.0 80.0,330.0 93.0,336.0 106.0,342.0 119.0,347.0 132.0,352.0 145.0,356.0 158.0,360.0 171.0,363.0 184.0,366.0 197.0,368.0 210.0,370.0 223.0,372.0 236.0,373.0 236.0,356.0 236.0,339.0 236.0,322.0 236.0,305.0 210.0,302.0 197.0,300.0 119.0,279.0 93.0,268.0 80.0,262.0 67.0,256.0" style="fill:#C4C4C4;" />
<polygon data-section="Mid Orchestra/Rear Orchestra Center/Front Orchestra Sides" data-priority="3" class="62238" points="456.0,322.0 456.0,339.0 456.0,356.0 456.0,373.0 469.0,372.0 482.0,371.0 495.0,369.0 508.0,367.0 521.0,364.0 534.0,361.0 547.0,357.0 560.0,353.0 573.0,348.0 586.0,343.0 599.0,337.0 612.0,331.0 625.0,325.0 625.0,308.0 625.0,292.0 625.0,275.0 625.0,258.0 612.0,264.0 573.0,280.0 547.0,289.0 469.0,304.0 456.0,305.0 456.0,322.0" style="fill:#C4C4C4;" />
<polygon data-section="Mid Orchestra/Rear Orchestra Center/Front Orchestra Sides" data-priority="3" class="62238" points="93.0,167.0 106.0,206.0 119.0,228.0 132.0,233.0 145.0,237.0 158.0,241.0 171.0,244.0 184.0,247.0 197.0,249.0 210.0,251.0 223.0,253.0 236.0,254.0 236.0,237.0 236.0,220.0 236.0,203.0 236.0,186.0 236.0,169.0 236.0,152.0 236.0,135.0 236.0,118.0 197.0,113.0 119.0,143.0 106.0,155.0 93.0,167.0" style="fill:#C4C4C4;" />
<polygon data-section="Mid Orchestra/Rear Orchestra Center/Front Orchestra Sides" data-priority="3" class="62238" points="268.0,359.0 268.0,376.0 268.0,393.0 268.0,410.0 268.0,427.0 268.0,444.0 268.0,461.0 268.0,478.0 268.0,495.0 281.0,496.0 307.0,497.0 333.0,498.0 359.0,498.0 385.0,497.0 411.0,496.0 424.0,495.0 424.0,478.0 424.0,461.0 424.0,444.0 424.0,427.0 424.0,410.0 424.0,393.0 424.0,376.0 424.0,359.0 424.0,342.0 424.0,325.0 424.0,308.0 424.0,291.0 424.0,274.0 424.0,257.0 398.0,258.0 320.0,259.0 294.0,258.0 268.0,257.0 268.0,274.0 268.0,291.0 268.0,308.0 268.0,325.0 268.0,342.0 268.0,359.0" style="fill:#C4C4C4;" />
<polygon data-section="Mid Orchestra/Rear Orchestra Center/Front Orchestra Sides" data-priority="3" class="62238" points="456.0,186.0 456.0,203.0 456.0,220.0 456.0,237.0 456.0,254.0 469.0,253.0 482.0,252.0 495.0,250.0 508.0,248.0 521.0,245.0 534.0,242.0 547.0,238.0 560.0,234.0 573.0,229.0 586.0,208.0 599.0,169.0 573.0,144.0 495.0,114.0 456.0,118.0 456.0,135.0 456.0,152.0 456.0,169.0 456.0,186.0" style="fill:#C4C4C4;" />
</g>
<g class="grouped-Rear Orchestra Sides/Last Rows Orchestra">
<polygon data-section="Rear Orchestra Sides/Last Rows Orchestra" data-priority="3" class="62242" points="67.0,426.0 80.0,466.0 93.0,472.0 106.0,478.0 119.0,483.0 132.0,488.0 145.0,492.0 236.0,492.0 236.0,475.0 236.0,458.0 236.0,441.0 236.0,424.0 236.0,407.0 236.0,390.0 210.0,387.0 197.0,385.0 119.0,364.0 93.0,353.0 80.0,347.0 67.0,341.0 67.0,358.0 67.0,375.0 67.0,392.0 67.0,409.0 67.0,426.0" style="fill:#C4C4C4;" />
<polygon data-section="Rear Orchestra Sides/Last Rows Orchestra" data-priority="3" class="62242" points="456.0,407.0 456.0,424.0 456.0,441.0 456.0,458.0 456.0,475.0 456.0,492.0 469.0,491.0 482.0,490.0 495.0,488.0 508.0,486.0 521.0,483.0 534.0,480.0 612.0,433.0 625.0,427.0 625.0,410.0 625.0,393.0 625.0,376.0 625.0,359.0 625.0,342.0 612.0,348.0 599.0,354.0 573.0,365.0 547.0,374.0 469.0,389.0 456.0,390.0 456.0,407.0" style="fill:#C4C4C4;" />
<polygon data-section="Rear Orchestra Sides/Last Rows Orchestra" data-priority="3" class="62242" points="330.0848478543643,488.8566836286906 303.47035259492253,489.96162474107007 307.0,497.0 320.8243702050074,502.02682074573084 333.0,498.0 330.0848478543643,488.8566836286906" style="fill:#C4C4C4;" />
<polygon data-section="Rear Orchestra Sides/Last Rows Orchestra" data-priority="3" class="62242" points="372.06633442098547,490.92915386384556 364.37833034363234,494.2191034367761 359.0,498.0 380.83321836660673,504.7118614911976 385.0,497.0 372.06633442098547,490.92915386384556" style="fill:#C4C4C4;" />
</g>
</g></g></svg>