<svg viewbox="0 0 1029.0 1026.2069999999999" xmlns="http://www.w3.org/2000/svg">
<g id="stage">
<rect x="200" y="0" width="629.0" height="100" fill="#222222" />
<text font-size="28px" x="514.5" y="50.0" text-anchor="middle" fill="#ffffff" dominant-baseline="middle">STAGE</text>
</g>
<g transform="translate(0, 100)">
<g class="primary-clusters">
<text x="514.5" y="85" font-size="28px" text-anchor="middle" dominant-baseline="middle">ORCHESTRA</text><text x="514.5" y="575.0" font-size="28px" text-anchor="middle" dominant-baseline="middle">MEZZANINE</text><g class="grouped-orchestra cluster0">
<polygon data-section="orchestra" data-priority="-1" class="n/a" points="171.421,419.751 183.459,427.502 195.498,435.253 219.714,449.764 244.347,461.305 268.981,472.845 293.893,482.405 306.488,486.195 319.083,489.985 331.818,492.785 344.552,495.584 347.552,478.584 350.552,461.584 361.552,393.584 372.552,325.584 380.552,274.584 391.552,206.584 403.552,138.584 352.893,125.405 323.981,132.845 308.664,144.075 293.347,155.305 248.675,187.013 233.498,197.253 189.522,224.01 131.62,252.094 135.102,314.806 138.862,375.537 171.421,419.751" style="fill:#C4C4C4;" />
</g>
<g class="grouped-orchestra cluster1">
<polygon data-section="orchestra" data-priority="-1" class="n/a" points="417.0,229.0 410.0,299.0 404.0,351.0 397.0,404.0 391.0,475.0 391.0,493.0 410.0,518.0 423.0,521.0 436.0,524.0 495.0,512.0 553.0,530.0 566.0,528.0 579.0,526.0 592.0,524.0 605.0,521.0 618.0,518.0 638.0,493.0 638.0,475.0 631.0,404.0 625.0,351.0 618.0,299.0 612.0,229.0 605.0,177.0 599.0,144.0 573.0,131.0 547.0,134.0 456.0,131.0 430.0,144.0 423.0,177.0 417.0,229.0" style="fill:#C4C4C4;" />
</g>
<g class="grouped-orchestra cluster2">
<polygon data-section="orchestra" data-priority="-1" class="n/a" points="672.448,427.584 683.448,495.584 696.182,492.785 708.917,489.985 721.512,486.195 746.563,477.625 759.019,472.845 783.653,461.305 808.286,449.764 832.502,435.253 856.579,419.751 880.378,402.269 892.138,392.537 924.861,342.382 921.861,325.382 922.343,245.67 907.861,240.382 821.579,198.751 806.541,189.502 791.502,180.253 719.336,144.075 705.019,132.845 676.107,125.405 625.448,138.584 636.448,206.584 650.448,291.584 664.448,376.584 672.448,427.584" style="fill:#C4C4C4;" />
</g>
<g class="grouped-mezzanine cluster0">
<polygon data-section="mezzanine" data-priority="-1" class="n/a" points="71.5001,524.5 105.5,610.5 116.5,617.5 127.5,624.5 140.5,614.5 153.5,604.5 166.5,594.5 179.5,584.5 204.5,564.5 193.5,557.5 110.5,495.5 100.5,486.5 90.5001,477.5 80.5001,468.5 58.5001,469.5 71.5001,524.5" style="fill:#C4C4C4;" />
</g>
<g class="grouped-mezzanine cluster1">
<polygon data-section="mezzanine" data-priority="-1" class="n/a" points="192.865,670.865 204.865,677.865 216.865,684.865 228.865,690.865 292.865,695.865 381.865,716.865 394.365,718.865 406.865,720.865 409.865,704.865 412.865,687.865 415.865,670.865 420.865,636.865 407.865,634.865 394.865,632.865 343.865,622.865 268.865,599.865 243.865,589.865 203.865,603.865 176.865,622.865 173.865,638.865 181.865,663.865 192.865,670.865" style="fill:#C4C4C4;" />
</g>
<g class="grouped-mezzanine cluster2">
<polygon data-section="mezzanine" data-priority="-1" class="n/a" points="445.404,727.404 444.404,744.404 457.404,745.404 470.404,746.404 496.404,747.404 509.404,747.404 561.404,745.404 663.404,743.404 676.404,738.404 689.404,733.404 715.404,706.404 716.404,689.404 707.404,643.404 697.404,614.404 684.404,619.404 581.404,642.404 568.404,643.404 555.404,644.404 529.404,645.404 516.404,645.404 464.404,643.404 451.404,642.404 448.404,676.404 447.404,693.404 446.404,710.404 445.404,727.404" style="fill:#C4C4C4;" />
</g>
<g class="grouped-mezzanine cluster3">
<polygon data-section="mezzanine" data-priority="-1" class="n/a" points="766.116,699.116 778.56,728.56 791.56,724.56 816.56,715.56 828.56,710.56 840.56,705.56 865.56,694.56 888.56,681.06 899.56,674.06 922.56,658.06 933.56,650.06 944.56,642.06 959.116,585.116 974.777,524.777 975.594,496.594 961.5,461.5 945.594,455.594 936.594,465.594 917.594,485.594 878.594,521.594 834.594,551.594 812.594,564.594 741.594,598.594 729.594,603.594 766.116,699.116" style="fill:#C4C4C4;" />
</g>
</g>
<g class="tour-sections"><g class="grouped-Orchestra Rows T-V">
<polygon data-section="Orchestra Rows T-V" data-priority="0" class="38686" points="391.0,493.0 410.0,518.0 423.0,521.0 436.0,524.0 553.0,530.0 566.0,528.0 579.0,526.0 592.0,524.0 605.0,521.0 618.0,518.0 638.0,493.0 638.0,475.0 599.0,485.0 521.0,494.0 430.0,485.0 417.0,482.0 391.0,475.0 391.0,493.0" style="fill:#C4C4C4;" />
<polygon data-section="Orchestra Rows T-V" data-priority="0" class="38686" points="171.421,419.751 183.459,427.502 195.498,435.253 219.714,449.764 244.347,461.305 268.981,472.845 293.893,482.405 306.488,486.195 319.083,489.985 331.818,492.785 344.552,495.584 347.552,478.584 350.552,461.584 250.347,427.305 213.675,408.013 141.862,358.537 138.862,375.537 171.421,419.751" style="fill:#C4C4C4;" />
<polygon data-section="Orchestra Rows T-V" data-priority="0" class="38686" points="683.448,495.584 696.182,492.785 708.917,489.985 721.512,486.195 746.563,477.625 759.019,472.845 783.653,461.305 808.286,449.764 832.502,435.253 856.579,419.751 880.378,402.269 892.138,392.537 924.861,342.382 921.861,325.382 839.541,393.502 815.325,408.013 778.653,427.305 678.448,461.584 683.448,495.584" style="fill:#C4C4C4;" />
</g>
<g class="grouped-Orchestra Rows C-V">
<polygon data-section="Orchestra Rows C-V" data-priority="0" class="53117" points="404.0,351.0 397.0,404.0 391.0,475.0 391.0,493.0 410.0,518.0 423.0,521.0 436.0,524.0 495.0,512.0 553.0,530.0 566.0,528.0 579.0,526.0 592.0,524.0 605.0,521.0 618.0,518.0 638.0,493.0 638.0,475.0 631.0,404.0 625.0,351.0 618.0,299.0 612.0,229.0 605.0,195.0 579.0,200.0 566.0,202.0 540.0,205.0 462.0,202.0 449.0,200.0 423.0,195.0 417.0,229.0 410.0,299.0 404.0,351.0" style="fill:#C4C4C4;" />
<polygon data-section="Orchestra Rows C-V" data-priority="0" class="53117" points="683.448,495.584 696.182,492.785 708.917,489.985 721.512,486.195 746.563,477.625 759.019,472.845 783.653,461.305 808.286,449.764 832.502,435.253 856.579,419.751 880.378,402.269 892.138,392.537 924.861,342.382 921.861,325.382 922.343,245.67 907.861,240.382 894.38,235.094 821.579,198.751 806.541,189.502 791.502,180.253 734.653,155.305 722.336,161.075 634.448,189.584 636.448,206.584 650.448,291.584 664.448,376.584 672.448,427.584 683.448,495.584" style="fill:#C4C4C4;" />
<polygon data-section="Orchestra Rows C-V" data-priority="0" class="53117" points="183.459,427.502 195.498,435.253 219.714,449.764 244.347,461.305 268.981,472.845 293.893,482.405 306.488,486.195 319.083,489.985 331.818,492.785 344.552,495.584 347.552,478.584 350.552,461.584 361.552,393.584 372.552,325.584 380.552,274.584 391.552,206.584 342.893,176.405 293.347,155.305 248.675,187.013 233.498,197.253 189.522,224.01 131.62,252.094 135.102,314.806 138.862,375.537 171.421,419.751 183.459,427.502" style="fill:#C4C4C4;" />
</g>
<g class="grouped-Orchestra Rows A-P">
<polygon data-section="Orchestra Rows A-P" data-priority="0" class="53121" points="636.448,206.584 650.448,291.584 664.448,376.584 667.448,393.584 680.182,390.785 692.917,387.985 718.107,380.405 730.563,375.625 743.019,370.845 767.653,359.305 792.286,347.764 816.502,333.253 828.541,325.502 840.579,317.751 864.378,300.269 887.898,280.806 899.38,269.094 922.343,245.67 907.861,240.382 821.579,198.751 806.541,189.502 791.502,180.253 719.336,144.075 705.019,132.845 629.448,155.584 631.448,172.584 636.448,206.584" style="fill:#C4C4C4;" />
<polygon data-section="Orchestra Rows A-P" data-priority="0" class="53121" points="152.862,290.537 164.622,300.269 188.421,317.751 200.459,325.502 212.498,333.253 236.714,347.764 261.347,359.305 285.981,370.845 310.893,380.405 323.488,384.195 336.083,387.985 348.818,390.785 361.552,393.584 372.552,325.584 380.552,274.584 391.552,206.584 399.552,155.584 323.981,132.845 308.664,144.075 293.347,155.305 248.675,187.013 233.498,197.253 189.522,224.01 131.62,252.094 152.862,290.537" style="fill:#C4C4C4;" />
<polygon data-section="Orchestra Rows A-P" data-priority="0" class="53121" points="410.0,408.0 423.0,411.0 436.0,414.0 449.0,416.0 462.0,418.0 475.0,420.0 488.0,421.0 501.0,422.0 514.0,422.0 527.0,422.0 540.0,421.0 553.0,420.0 566.0,418.0 579.0,416.0 592.0,414.0 605.0,411.0 618.0,408.0 631.0,404.0 625.0,351.0 618.0,299.0 612.0,229.0 605.0,177.0 599.0,161.0 586.0,163.0 573.0,165.0 547.0,168.0 456.0,165.0 443.0,163.0 430.0,161.0 423.0,177.0 417.0,229.0 410.0,299.0 404.0,351.0 397.0,404.0 410.0,408.0" style="fill:#C4C4C4;" />
</g>
<g class="grouped-Mezzanine Rows A-G">
<polygon data-section="Mezzanine Rows A-G" data-priority="0" class="53126" points="71.5001,524.5 105.5,610.5 116.5,617.5 127.5,624.5 140.5,614.5 153.5,604.5 166.5,594.5 179.5,584.5 204.5,564.5 193.5,557.5 110.5,495.5 100.5,486.5 90.5001,477.5 80.5001,468.5 58.5001,469.5 71.5001,524.5" style="fill:#C4C4C4;" />
<polygon data-section="Mezzanine Rows A-G" data-priority="0" class="53126" points="446.404,710.404 445.404,727.404 444.404,744.404 457.404,745.404 470.404,746.404 496.404,747.404 509.404,747.404 561.404,745.404 574.404,744.404 587.404,743.404 600.404,742.404 613.404,740.404 626.404,737.404 639.404,734.404 664.404,726.404 677.404,721.404 690.404,716.404 703.404,711.404 715.404,706.404 716.404,689.404 707.404,643.404 697.404,614.404 684.404,619.404 594.404,641.404 581.404,642.404 568.404,643.404 555.404,644.404 529.404,645.404 516.404,645.404 464.404,643.404 451.404,642.404 448.404,676.404 447.404,693.404 446.404,710.404" style="fill:#C4C4C4;" />
<polygon data-section="Mezzanine Rows A-G" data-priority="0" class="53126" points="766.116,699.116 791.116,690.116 803.116,685.116 815.116,680.116 840.116,669.116 875.116,652.116 897.116,637.116 908.116,629.116 918.116,621.116 939.116,603.116 949.116,594.116 959.116,585.116 974.777,524.777 975.594,496.594 961.5,461.5 945.594,455.594 936.594,465.594 917.594,485.594 878.594,521.594 834.594,551.594 812.594,564.594 741.594,598.594 729.594,603.594 766.116,699.116" style="fill:#C4C4C4;" />
<polygon data-section="Mezzanine Rows A-G" data-priority="0" class="53126" points="173.865,638.865 181.865,663.865 192.865,670.865 204.865,677.865 216.865,684.865 228.865,690.865 292.865,695.865 381.865,716.865 394.365,718.865 406.865,720.865 409.865,704.865 412.865,687.865 415.865,670.865 420.865,636.865 407.865,634.865 394.865,632.865 343.865,622.865 268.865,599.865 243.865,589.865 203.865,603.865 176.865,622.865 173.865,638.865" style="fill:#C4C4C4;" />
</g>
<g class="grouped-Orchestra Rows B-S">
<polygon data-section="Orchestra Rows B-S" data-priority="0" class="53136" points="397.0,440.0 397.0,458.0 410.0,462.0 423.0,465.0 436.0,468.0 449.0,470.0 462.0,472.0 475.0,474.0 488.0,475.0 501.0,476.0 514.0,476.0 527.0,476.0 540.0,475.0 553.0,474.0 566.0,472.0 579.0,470.0 592.0,468.0 605.0,465.0 618.0,462.0 631.0,458.0 631.0,440.0 631.0,422.0 631.0,404.0 625.0,351.0 618.0,299.0 612.0,229.0 605.0,177.0 579.0,182.0 566.0,184.0 540.0,187.0 462.0,184.0 449.0,182.0 423.0,177.0 417.0,229.0 410.0,299.0 404.0,351.0 397.0,404.0 397.0,422.0 397.0,440.0" style="fill:#C4C4C4;" />
<polygon data-section="Orchestra Rows B-S" data-priority="0" class="53136" points="675.448,444.584 688.182,441.785 700.917,438.985 726.107,431.405 738.563,426.625 751.019,421.845 775.653,410.305 800.286,398.764 824.502,384.253 836.541,376.502 848.579,368.751 872.378,351.269 895.898,331.806 907.38,320.094 918.861,308.382 922.343,245.67 907.861,240.382 894.38,235.094 821.579,198.751 806.541,189.502 791.502,180.253 719.336,144.075 631.448,172.584 636.448,206.584 650.448,291.584 664.448,376.584 672.448,427.584 675.448,444.584" style="fill:#C4C4C4;" />
<polygon data-section="Orchestra Rows B-S" data-priority="0" class="53136" points="143.862,341.537 155.622,351.269 179.421,368.751 191.459,376.502 203.498,384.253 227.714,398.764 252.347,410.305 276.981,421.845 301.893,431.405 314.488,435.195 327.083,438.985 339.818,441.785 352.552,444.584 355.552,427.584 358.552,410.584 361.552,393.584 372.552,325.584 380.552,274.584 391.552,206.584 396.552,172.584 308.664,144.075 293.347,155.305 248.675,187.013 233.498,197.253 189.522,224.01 131.62,252.094 135.102,314.806 143.862,341.537" style="fill:#C4C4C4;" />
</g>
<g class="grouped-Orchestra Rows B-V Mezzanine Rows A-G">
<polygon data-section="Orchestra Rows B-V Mezzanine Rows A-G" data-priority="0" class="53139" points="397.0,404.0 391.0,475.0 391.0,493.0 410.0,518.0 423.0,521.0 436.0,524.0 495.0,512.0 553.0,530.0 566.0,528.0 579.0,526.0 592.0,524.0 605.0,521.0 618.0,518.0 638.0,493.0 638.0,475.0 631.0,404.0 625.0,351.0 618.0,299.0 612.0,229.0 605.0,177.0 579.0,182.0 566.0,184.0 540.0,187.0 462.0,184.0 449.0,182.0 423.0,177.0 417.0,229.0 410.0,299.0 404.0,351.0 397.0,404.0" style="fill:#C4C4C4;" />
<polygon data-section="Orchestra Rows B-V Mezzanine Rows A-G" data-priority="0" class="53139" points="683.448,495.584 696.182,492.785 708.917,489.985 721.512,486.195 746.563,477.625 759.019,472.845 783.653,461.305 808.286,449.764 832.502,435.253 856.579,419.751 880.378,402.269 892.138,392.537 924.861,342.382 921.861,325.382 922.343,245.67 907.861,240.382 821.579,198.751 806.541,189.502 791.502,180.253 719.336,144.075 631.448,172.584 636.448,206.584 650.448,291.584 664.448,376.584 672.448,427.584 683.448,495.584" style="fill:#C4C4C4;" />
<polygon data-section="Orchestra Rows B-V Mezzanine Rows A-G" data-priority="0" class="53139" points="138.862,375.537 171.421,419.751 183.459,427.502 195.498,435.253 219.714,449.764 244.347,461.305 268.981,472.845 293.893,482.405 306.488,486.195 319.083,489.985 331.818,492.785 344.552,495.584 347.552,478.584 350.552,461.584 361.552,393.584 372.552,325.584 380.552,274.584 391.552,206.584 396.552,172.584 308.664,144.075 293.347,155.305 248.675,187.013 233.498,197.253 189.522,224.01 131.62,252.094 135.102,314.806 138.862,375.537" style="fill:#C4C4C4;" />
<polygon data-section="Orchestra Rows B-V Mezzanine Rows A-G" data-priority="0" class="53139" points="71.5001,524.5 105.5,610.5 116.5,617.5 127.5,624.5 140.5,614.5 153.5,604.5 166.5,594.5 179.5,584.5 204.5,564.5 193.5,557.5 110.5,495.5 100.5,486.5 90.5001,477.5 80.5001,468.5 58.5001,469.5 71.5001,524.5" style="fill:#C4C4C4;" />
<polygon data-section="Orchestra Rows B-V Mezzanine Rows A-G" data-priority="0" class="53139" points="446.404,710.404 445.404,727.404 444.404,744.404 457.404,745.404 470.404,746.404 496.404,747.404 509.404,747.404 561.404,745.404 574.404,744.404 587.404,743.404 600.404,742.404 613.404,740.404 626.404,737.404 639.404,734.404 664.404,726.404 677.404,721.404 690.404,716.404 703.404,711.404 715.404,706.404 716.404,689.404 707.404,643.404 697.404,614.404 684.404,619.404 594.404,641.404 581.404,642.404 568.404,643.404 555.404,644.404 529.404,645.404 516.404,645.404 464.404,643.404 451.404,642.404 448.404,676.404 447.404,693.404 446.404,710.404" style="fill:#C4C4C4;" />
<polygon data-section="Orchestra Rows B-V Mezzanine Rows A-G" data-priority="0" class="53139" points="766.116,699.116 791.116,690.116 803.116,685.116 815.116,680.116 840.116,669.116 875.116,652.116 897.116,637.116 908.116,629.116 918.116,621.116 939.116,603.116 949.116,594.116 959.116,585.116 974.777,524.777 975.594,496.594 961.5,461.5 945.594,455.594 936.594,465.594 917.594,485.594 878.594,521.594 834.594,551.594 812.594,564.594 741.594,598.594 729.594,603.594 766.116,699.116" style="fill:#C4C4C4;" />
<polygon data-section="Orchestra Rows B-V Mezzanine Rows A-G" data-priority="0" class="53139" points="173.865,638.865 181.865,663.865 192.865,670.865 204.865,677.865 216.865,684.865 228.865,690.865 292.865,695.865 381.865,716.865 394.365,718.865 406.865,720.865 409.865,704.865 412.865,687.865 415.865,670.865 420.865,636.865 407.865,634.865 394.865,632.865 343.865,622.865 268.865,599.865 243.865,589.865 203.865,603.865 176.865,622.865 173.865,638.865" style="fill:#C4C4C4;" />
</g>
<g class="grouped-Orchestra Rows B-S Mezzanine Rows A-G">
<polygon data-section="Orchestra Rows B-S Mezzanine Rows A-G" data-priority="0" class="53144" points="397.0,440.0 397.0,458.0 410.0,462.0 423.0,465.0 436.0,468.0 449.0,470.0 462.0,472.0 475.0,474.0 488.0,475.0 501.0,476.0 514.0,476.0 527.0,476.0 540.0,475.0 553.0,474.0 566.0,472.0 579.0,470.0 592.0,468.0 605.0,465.0 618.0,462.0 631.0,458.0 631.0,440.0 631.0,422.0 631.0,404.0 625.0,351.0 618.0,299.0 612.0,229.0 605.0,177.0 579.0,182.0 566.0,184.0 540.0,187.0 462.0,184.0 449.0,182.0 423.0,177.0 417.0,229.0 410.0,299.0 404.0,351.0 397.0,404.0 397.0,422.0 397.0,440.0" style="fill:#C4C4C4;" />
<polygon data-section="Orchestra Rows B-S Mezzanine Rows A-G" data-priority="0" class="53144" points="675.448,444.584 688.182,441.785 700.917,438.985 726.107,431.405 738.563,426.625 751.019,421.845 775.653,410.305 800.286,398.764 824.502,384.253 836.541,376.502 848.579,368.751 872.378,351.269 895.898,331.806 907.38,320.094 918.861,308.382 922.343,245.67 907.861,240.382 894.38,235.094 821.579,198.751 806.541,189.502 791.502,180.253 719.336,144.075 631.448,172.584 636.448,206.584 650.448,291.584 664.448,376.584 672.448,427.584 675.448,444.584" style="fill:#C4C4C4;" />
<polygon data-section="Orchestra Rows B-S Mezzanine Rows A-G" data-priority="0" class="53144" points="143.862,341.537 155.622,351.269 179.421,368.751 191.459,376.502 203.498,384.253 227.714,398.764 252.347,410.305 276.981,421.845 301.893,431.405 314.488,435.195 327.083,438.985 339.818,441.785 352.552,444.584 355.552,427.584 358.552,410.584 361.552,393.584 372.552,325.584 380.552,274.584 391.552,206.584 396.552,172.584 308.664,144.075 293.347,155.305 248.675,187.013 233.498,197.253 189.522,224.01 131.62,252.094 135.102,314.806 143.862,341.537" style="fill:#C4C4C4;" />
<polygon data-section="Orchestra Rows B-S Mezzanine Rows A-G" data-priority="0" class="53144" points="71.5001,524.5 105.5,610.5 116.5,617.5 127.5,624.5 140.5,614.5 153.5,604.5 166.5,594.5 179.5,584.5 204.5,564.5 193.5,557.5 110.5,495.5 100.5,486.5 90.5001,477.5 80.5001,468.5 58.5001,469.5 71.5001,524.5" style="fill:#C4C4C4;" />
<polygon data-section="Orchestra Rows B-S Mezzanine Rows A-G" data-priority="0" class="53144" points="446.404,710.404 445.404,727.404 444.404,744.404 457.404,745.404 470.404,746.404 496.404,747.404 509.404,747.404 561.404,745.404 574.404,744.404 587.404,743.404 600.404,742.404 613.404,740.404 626.404,737.404 639.404,734.404 664.404,726.404 677.404,721.404 690.404,716.404 703.404,711.404 715.404,706.404 716.404,689.404 707.404,643.404 697.404,614.404 684.404,619.404 594.404,641.404 581.404,642.404 568.404,643.404 555.404,644.404 529.404,645.404 516.404,645.404 464.404,643.404 451.404,642.404 448.404,676.404 447.404,693.404 446.404,710.404" style="fill:#C4C4C4;" />
<polygon data-section="Orchestra Rows B-S Mezzanine Rows A-G" data-priority="0" class="53144" points="766.116,699.116 791.116,690.116 803.116,685.116 815.116,680.116 840.116,669.116 875.116,652.116 897.116,637.116 908.116,629.116 918.116,621.116 939.116,603.116 949.116,594.116 959.116,585.116 974.777,524.777 975.594,496.594 961.5,461.5 945.594,455.594 936.594,465.594 917.594,485.594 878.594,521.594 834.594,551.594 812.594,564.594 741.594,598.594 729.594,603.594 766.116,699.116" style="fill:#C4C4C4;" />
<polygon data-section="Orchestra Rows B-S Mezzanine Rows A-G" data-priority="0" class="53144" points="173.865,638.865 181.865,663.865 192.865,670.865 204.865,677.865 216.865,684.865 228.865,690.865 292.865,695.865 381.865,716.865 394.365,718.865 406.865,720.865 409.865,704.865 412.865,687.865 415.865,670.865 420.865,636.865 407.865,634.865 394.865,632.865 343.865,622.865 268.865,599.865 243.865,589.865 203.865,603.865 176.865,622.865 173.865,638.865" style="fill:#C4C4C4;" />
</g>
<g class="grouped-Orchestra Rows T-V Mezzanine Rows A-G">
<polygon data-section="Orchestra Rows T-V Mezzanine Rows A-G" data-priority="0" class="53540" points="391.0,493.0 410.0,518.0 423.0,521.0 436.0,524.0 553.0,530.0 566.0,528.0 579.0,526.0 592.0,524.0 605.0,521.0 618.0,518.0 638.0,493.0 638.0,475.0 599.0,485.0 521.0,494.0 430.0,485.0 417.0,482.0 391.0,475.0 391.0,493.0" style="fill:#C4C4C4;" />
<polygon data-section="Orchestra Rows T-V Mezzanine Rows A-G" data-priority="0" class="53540" points="171.421,419.751 183.459,427.502 195.498,435.253 219.714,449.764 244.347,461.305 268.981,472.845 293.893,482.405 306.488,486.195 319.083,489.985 331.818,492.785 344.552,495.584 347.552,478.584 350.552,461.584 250.347,427.305 213.675,408.013 141.862,358.537 138.862,375.537 171.421,419.751" style="fill:#C4C4C4;" />
<polygon data-section="Orchestra Rows T-V Mezzanine Rows A-G" data-priority="0" class="53540" points="683.448,495.584 696.182,492.785 708.917,489.985 721.512,486.195 746.563,477.625 759.019,472.845 783.653,461.305 808.286,449.764 832.502,435.253 856.579,419.751 880.378,402.269 892.138,392.537 924.861,342.382 921.861,325.382 839.541,393.502 815.325,408.013 778.653,427.305 678.448,461.584 683.448,495.584" style="fill:#C4C4C4;" />
<polygon data-section="Orchestra Rows T-V Mezzanine Rows A-G" data-priority="0" class="53540" points="71.5001,524.5 105.5,610.5 116.5,617.5 127.5,624.5 140.5,614.5 153.5,604.5 166.5,594.5 179.5,584.5 204.5,564.5 193.5,557.5 110.5,495.5 100.5,486.5 90.5001,477.5 80.5001,468.5 58.5001,469.5 71.5001,524.5" style="fill:#C4C4C4;" />
<polygon data-section="Orchestra Rows T-V Mezzanine Rows A-G" data-priority="0" class="53540" points="446.404,710.404 445.404,727.404 444.404,744.404 457.404,745.404 470.404,746.404 496.404,747.404 509.404,747.404 561.404,745.404 574.404,744.404 587.404,743.404 600.404,742.404 613.404,740.404 626.404,737.404 639.404,734.404 664.404,726.404 677.404,721.404 690.404,716.404 703.404,711.404 715.404,706.404 716.404,689.404 707.404,643.404 697.404,614.404 684.404,619.404 594.404,641.404 581.404,642.404 568.404,643.404 555.404,644.404 529.404,645.404 516.404,645.404 464.404,643.404 451.404,642.404 448.404,676.404 447.404,693.404 446.404,710.404" style="fill:#C4C4C4;" />
<polygon data-section="Orchestra Rows T-V Mezzanine Rows A-G" data-priority="0" class="53540" points="766.116,699.116 791.116,690.116 803.116,685.116 815.116,680.116 840.116,669.116 875.116,652.116 897.116,637.116 908.116,629.116 918.116,621.116 939.116,603.116 949.116,594.116 959.116,585.116 974.777,524.777 975.594,496.594 961.5,461.5 945.594,455.594 936.594,465.594 917.594,485.594 878.594,521.594 834.594,551.594 812.594,564.594 741.594,598.594 729.594,603.594 766.116,699.116" style="fill:#C4C4C4;" />
<polygon data-section="Orchestra Rows T-V Mezzanine Rows A-G" data-priority="0" class="53540" points="173.865,638.865 181.865,663.865 192.865,670.865 204.865,677.865 216.865,684.865 228.865,690.865 292.865,695.865 381.865,716.865 394.365,718.865 406.865,720.865 409.865,704.865 412.865,687.865 415.865,670.865 420.865,636.865 407.865,634.865 394.865,632.865 343.865,622.865 268.865,599.865 243.865,589.865 203.865,603.865 176.865,622.865 173.865,638.865" style="fill:#C4C4C4;" />
</g>
<g class="grouped-Orchestra Rows C-V Mezzanine Rows A-G">
<polygon data-section="Orchestra Rows C-V Mezzanine Rows A-G" data-priority="0" class="59286" points="404.0,351.0 397.0,404.0 391.0,475.0 391.0,493.0 410.0,518.0 423.0,521.0 436.0,524.0 495.0,512.0 553.0,530.0 566.0,528.0 579.0,526.0 592.0,524.0 605.0,521.0 618.0,518.0 638.0,493.0 638.0,475.0 631.0,404.0 625.0,351.0 618.0,299.0 612.0,229.0 605.0,195.0 579.0,200.0 566.0,202.0 540.0,205.0 462.0,202.0 449.0,200.0 423.0,195.0 417.0,229.0 410.0,299.0 404.0,351.0" style="fill:#C4C4C4;" />
<polygon data-section="Orchestra Rows C-V Mezzanine Rows A-G" data-priority="0" class="59286" points="683.448,495.584 696.182,492.785 708.917,489.985 721.512,486.195 746.563,477.625 759.019,472.845 783.653,461.305 808.286,449.764 832.502,435.253 856.579,419.751 880.378,402.269 892.138,392.537 924.861,342.382 921.861,325.382 922.343,245.67 907.861,240.382 894.38,235.094 821.579,198.751 806.541,189.502 791.502,180.253 734.653,155.305 722.336,161.075 634.448,189.584 636.448,206.584 650.448,291.584 664.448,376.584 672.448,427.584 683.448,495.584" style="fill:#C4C4C4;" />
<polygon data-section="Orchestra Rows C-V Mezzanine Rows A-G" data-priority="0" class="59286" points="183.459,427.502 195.498,435.253 219.714,449.764 244.347,461.305 268.981,472.845 293.893,482.405 306.488,486.195 319.083,489.985 331.818,492.785 344.552,495.584 347.552,478.584 350.552,461.584 361.552,393.584 372.552,325.584 380.552,274.584 391.552,206.584 342.893,176.405 293.347,155.305 248.675,187.013 233.498,197.253 189.522,224.01 131.62,252.094 135.102,314.806 138.862,375.537 171.421,419.751 183.459,427.502" style="fill:#C4C4C4;" />
<polygon data-section="Orchestra Rows C-V Mezzanine Rows A-G" data-priority="0" class="59286" points="71.5001,524.5 105.5,610.5 116.5,617.5 127.5,624.5 140.5,614.5 153.5,604.5 166.5,594.5 179.5,584.5 204.5,564.5 193.5,557.5 110.5,495.5 100.5,486.5 90.5001,477.5 80.5001,468.5 58.5001,469.5 71.5001,524.5" style="fill:#C4C4C4;" />
<polygon data-section="Orchestra Rows C-V Mezzanine Rows A-G" data-priority="0" class="59286" points="446.404,710.404 445.404,727.404 444.404,744.404 457.404,745.404 470.404,746.404 496.404,747.404 509.404,747.404 561.404,745.404 574.404,744.404 587.404,743.404 600.404,742.404 613.404,740.404 626.404,737.404 639.404,734.404 664.404,726.404 677.404,721.404 690.404,716.404 703.404,711.404 715.404,706.404 716.404,689.404 707.404,643.404 697.404,614.404 684.404,619.404 594.404,641.404 581.404,642.404 568.404,643.404 555.404,644.404 529.404,645.404 516.404,645.404 464.404,643.404 451.404,642.404 448.404,676.404 447.404,693.404 446.404,710.404" style="fill:#C4C4C4;" />
<polygon data-section="Orchestra Rows C-V Mezzanine Rows A-G" data-priority="0" class="59286" points="766.116,699.116 791.116,690.116 803.116,685.116 815.116,680.116 840.116,669.116 875.116,652.116 897.116,637.116 908.116,629.116 918.116,621.116 939.116,603.116 949.116,594.116 959.116,585.116 974.777,524.777 975.594,496.594 961.5,461.5 945.594,455.594 936.594,465.594 917.594,485.594 878.594,521.594 834.594,551.594 812.594,564.594 741.594,598.594 729.594,603.594 766.116,699.116" style="fill:#C4C4C4;" />
<polygon data-section="Orchestra Rows C-V Mezzanine Rows A-G" data-priority="0" class="59286" points="173.865,638.865 181.865,663.865 192.865,670.865 204.865,677.865 216.865,684.865 228.865,690.865 292.865,695.865 381.865,716.865 394.365,718.865 406.865,720.865 409.865,704.865 412.865,687.865 415.865,670.865 420.865,636.865 407.865,634.865 394.865,632.865 343.865,622.865 268.865,599.865 243.865,589.865 203.865,603.865 176.865,622.865 173.865,638.865" style="fill:#C4C4C4;" />
</g>
<g class="grouped-Orchestra Rows A-S">
<polygon data-section="Orchestra Rows A-S" data-priority="0" class="61074" points="410.0,299.0 404.0,351.0 397.0,404.0 397.0,422.0 397.0,440.0 397.0,458.0 410.0,462.0 423.0,465.0 436.0,468.0 449.0,470.0 462.0,472.0 475.0,474.0 488.0,475.0 501.0,476.0 514.0,476.0 527.0,476.0 540.0,475.0 553.0,474.0 566.0,472.0 579.0,470.0 592.0,468.0 605.0,465.0 618.0,462.0 631.0,458.0 631.0,440.0 631.0,422.0 631.0,404.0 625.0,351.0 618.0,299.0 612.0,229.0 605.0,177.0 599.0,161.0 586.0,163.0 573.0,165.0 482.0,168.0 456.0,165.0 443.0,163.0 430.0,161.0 423.0,177.0 417.0,229.0 410.0,299.0" style="fill:#C4C4C4;" />
<polygon data-section="Orchestra Rows A-S" data-priority="0" class="61074" points="664.448,376.584 672.448,427.584 675.448,444.584 688.182,441.785 700.917,438.985 726.107,431.405 738.563,426.625 751.019,421.845 775.653,410.305 800.286,398.764 824.502,384.253 836.541,376.502 848.579,368.751 872.378,351.269 895.898,331.806 907.38,320.094 918.861,308.382 922.343,245.67 907.861,240.382 894.38,235.094 821.579,198.751 806.541,189.502 791.502,180.253 719.336,144.075 705.019,132.845 629.448,155.584 631.448,172.584 636.448,206.584 650.448,291.584 664.448,376.584" style="fill:#C4C4C4;" />
<polygon data-section="Orchestra Rows A-S" data-priority="0" class="61074" points="143.862,341.537 155.622,351.269 179.421,368.751 191.459,376.502 203.498,384.253 227.714,398.764 252.347,410.305 276.981,421.845 301.893,431.405 314.488,435.195 327.083,438.985 339.818,441.785 352.552,444.584 355.552,427.584 358.552,410.584 361.552,393.584 372.552,325.584 380.552,274.584 391.552,206.584 399.552,155.584 323.981,132.845 308.664,144.075 293.347,155.305 248.675,187.013 233.498,197.253 189.522,224.01 131.62,252.094 135.102,314.806 143.862,341.537" style="fill:#C4C4C4;" />
</g>
<g class="grouped-Mezzanine Center Rows A-D">
<polygon data-section="Mezzanine Center Rows A-D" data-priority="1" class="53130" points="235.865,639.865 247.865,645.865 260.865,650.865 272.865,654.865 297.865,662.865 322.865,670.865 360.865,679.865 373.865,681.865 386.865,683.865 399.865,685.865 412.865,687.865 415.865,670.865 420.865,636.865 407.865,634.865 394.865,632.865 343.865,622.865 268.865,599.865 243.865,589.865 203.865,603.865 200.865,620.865 212.865,627.865 235.865,639.865" style="fill:#C4C4C4;" />
<polygon data-section="Mezzanine Center Rows A-D" data-priority="1" class="53130" points="447.404,693.404 460.404,694.404 473.404,695.404 486.404,696.404 499.404,696.404 512.404,696.404 525.404,696.404 538.404,696.404 578.404,693.404 591.404,692.404 604.404,691.404 617.404,689.404 630.404,686.404 642.404,683.404 655.404,679.404 668.404,675.404 681.404,670.404 706.404,660.404 707.404,643.404 697.404,614.404 684.404,619.404 581.404,642.404 568.404,643.404 555.404,644.404 529.404,645.404 516.404,645.404 464.404,643.404 451.404,642.404 448.404,676.404 447.404,693.404" style="fill:#C4C4C4;" />
</g>
<g class="grouped-Orchestra Rows A-P Mezzanine Center Rows A-D">
<polygon data-section="Orchestra Rows A-P Mezzanine Center Rows A-D" data-priority="1" class="53147" points="636.448,206.584 650.448,291.584 664.448,376.584 667.448,393.584 680.182,390.785 692.917,387.985 718.107,380.405 730.563,375.625 743.019,370.845 767.653,359.305 792.286,347.764 816.502,333.253 828.541,325.502 840.579,317.751 864.378,300.269 887.898,280.806 899.38,269.094 922.343,245.67 907.861,240.382 821.579,198.751 806.541,189.502 791.502,180.253 719.336,144.075 705.019,132.845 629.448,155.584 631.448,172.584 636.448,206.584" style="fill:#C4C4C4;" />
<polygon data-section="Orchestra Rows A-P Mezzanine Center Rows A-D" data-priority="1" class="53147" points="152.862,290.537 164.622,300.269 188.421,317.751 200.459,325.502 212.498,333.253 236.714,347.764 261.347,359.305 285.981,370.845 310.893,380.405 323.488,384.195 336.083,387.985 348.818,390.785 361.552,393.584 372.552,325.584 380.552,274.584 391.552,206.584 399.552,155.584 323.981,132.845 308.664,144.075 293.347,155.305 248.675,187.013 233.498,197.253 189.522,224.01 131.62,252.094 152.862,290.537" style="fill:#C4C4C4;" />
<polygon data-section="Orchestra Rows A-P Mezzanine Center Rows A-D" data-priority="1" class="53147" points="410.0,408.0 423.0,411.0 436.0,414.0 449.0,416.0 462.0,418.0 475.0,420.0 488.0,421.0 501.0,422.0 514.0,422.0 527.0,422.0 540.0,421.0 553.0,420.0 566.0,418.0 579.0,416.0 592.0,414.0 605.0,411.0 618.0,408.0 631.0,404.0 625.0,351.0 618.0,299.0 612.0,229.0 605.0,177.0 599.0,161.0 586.0,163.0 573.0,165.0 547.0,168.0 456.0,165.0 443.0,163.0 430.0,161.0 423.0,177.0 417.0,229.0 410.0,299.0 404.0,351.0 397.0,404.0 410.0,408.0" style="fill:#C4C4C4;" />
<polygon data-section="Orchestra Rows A-P Mezzanine Center Rows A-D" data-priority="1" class="53147" points="235.865,639.865 247.865,645.865 260.865,650.865 272.865,654.865 297.865,662.865 322.865,670.865 360.865,679.865 373.865,681.865 386.865,683.865 399.865,685.865 412.865,687.865 415.865,670.865 420.865,636.865 407.865,634.865 394.865,632.865 343.865,622.865 268.865,599.865 243.865,589.865 203.865,603.865 200.865,620.865 212.865,627.865 235.865,639.865" style="fill:#C4C4C4;" />
<polygon data-section="Orchestra Rows A-P Mezzanine Center Rows A-D" data-priority="1" class="53147" points="447.404,693.404 460.404,694.404 473.404,695.404 486.404,696.404 499.404,696.404 512.404,696.404 525.404,696.404 538.404,696.404 578.404,693.404 591.404,692.404 604.404,691.404 617.404,689.404 630.404,686.404 642.404,683.404 655.404,679.404 668.404,675.404 681.404,670.404 706.404,660.404 707.404,643.404 697.404,614.404 684.404,619.404 581.404,642.404 568.404,643.404 555.404,644.404 529.404,645.404 516.404,645.404 464.404,643.404 451.404,642.404 448.404,676.404 447.404,693.404" style="fill:#C4C4C4;" />
</g>
<g class="grouped-Orchestra Rows A-S Mezzanine Center Rows A-D">
<polygon data-section="Orchestra Rows A-S Mezzanine Center Rows A-D" data-priority="1" class="53541" points="410.0,299.0 404.0,351.0 397.0,404.0 397.0,422.0 397.0,440.0 397.0,458.0 410.0,462.0 423.0,465.0 436.0,468.0 449.0,470.0 462.0,472.0 475.0,474.0 488.0,475.0 501.0,476.0 514.0,476.0 527.0,476.0 540.0,475.0 553.0,474.0 566.0,472.0 579.0,470.0 592.0,468.0 605.0,465.0 618.0,462.0 631.0,458.0 631.0,440.0 631.0,422.0 631.0,404.0 625.0,351.0 618.0,299.0 612.0,229.0 605.0,177.0 599.0,161.0 586.0,163.0 573.0,165.0 482.0,168.0 456.0,165.0 443.0,163.0 430.0,161.0 423.0,177.0 417.0,229.0 410.0,299.0" style="fill:#C4C4C4;" />
<polygon data-section="Orchestra Rows A-S Mezzanine Center Rows A-D" data-priority="1" class="53541" points="664.448,376.584 672.448,427.584 675.448,444.584 688.182,441.785 700.917,438.985 726.107,431.405 738.563,426.625 751.019,421.845 775.653,410.305 800.286,398.764 824.502,384.253 836.541,376.502 848.579,368.751 872.378,351.269 895.898,331.806 907.38,320.094 918.861,308.382 922.343,245.67 907.861,240.382 894.38,235.094 821.579,198.751 806.541,189.502 791.502,180.253 719.336,144.075 705.019,132.845 629.448,155.584 631.448,172.584 636.448,206.584 650.448,291.584 664.448,376.584" style="fill:#C4C4C4;" />
<polygon data-section="Orchestra Rows A-S Mezzanine Center Rows A-D" data-priority="1" class="53541" points="143.862,341.537 155.622,351.269 179.421,368.751 191.459,376.502 203.498,384.253 227.714,398.764 252.347,410.305 276.981,421.845 301.893,431.405 314.488,435.195 327.083,438.985 339.818,441.785 352.552,444.584 355.552,427.584 358.552,410.584 361.552,393.584 372.552,325.584 380.552,274.584 391.552,206.584 399.552,155.584 323.981,132.845 308.664,144.075 293.347,155.305 248.675,187.013 233.498,197.253 189.522,224.01 131.62,252.094 135.102,314.806 143.862,341.537" style="fill:#C4C4C4;" />
<polygon data-section="Orchestra Rows A-S Mezzanine Center Rows A-D" data-priority="1" class="53541" points="235.865,639.865 247.865,645.865 260.865,650.865 272.865,654.865 297.865,662.865 322.865,670.865 360.865,679.865 373.865,681.865 386.865,683.865 399.865,685.865 412.865,687.865 415.865,670.865 420.865,636.865 407.865,634.865 394.865,632.865 343.865,622.865 268.865,599.865 243.865,589.865 203.865,603.865 200.865,620.865 212.865,627.865 235.865,639.865" style="fill:#C4C4C4;" />
<polygon data-section="Orchestra Rows A-S Mezzanine Center Rows A-D" data-priority="1" class="53541" points="447.404,693.404 460.404,694.404 473.404,695.404 486.404,696.404 499.404,696.404 512.404,696.404 525.404,696.404 538.404,696.404 578.404,693.404 591.404,692.404 604.404,691.404 617.404,689.404 630.404,686.404 642.404,683.404 655.404,679.404 668.404,675.404 681.404,670.404 706.404,660.404 707.404,643.404 697.404,614.404 684.404,619.404 581.404,642.404 568.404,643.404 555.404,644.404 529.404,645.404 516.404,645.404 464.404,643.404 451.404,642.404 448.404,676.404 447.404,693.404" style="fill:#C4C4C4;" />
</g>
<g class="grouped-Orchestra Rows B-S Mezzanine Center Rows A-D">
<polygon data-section="Orchestra Rows B-S Mezzanine Center Rows A-D" data-priority="1" class="53548" points="397.0,440.0 397.0,458.0 410.0,462.0 423.0,465.0 436.0,468.0 449.0,470.0 462.0,472.0 475.0,474.0 488.0,475.0 501.0,476.0 514.0,476.0 527.0,476.0 540.0,475.0 553.0,474.0 566.0,472.0 579.0,470.0 592.0,468.0 605.0,465.0 618.0,462.0 631.0,458.0 631.0,440.0 631.0,422.0 631.0,404.0 625.0,351.0 618.0,299.0 612.0,229.0 605.0,177.0 579.0,182.0 566.0,184.0 540.0,187.0 462.0,184.0 449.0,182.0 423.0,177.0 417.0,229.0 410.0,299.0 404.0,351.0 397.0,404.0 397.0,422.0 397.0,440.0" style="fill:#C4C4C4;" />
<polygon data-section="Orchestra Rows B-S Mezzanine Center Rows A-D" data-priority="1" class="53548" points="675.448,444.584 688.182,441.785 700.917,438.985 726.107,431.405 738.563,426.625 751.019,421.845 775.653,410.305 800.286,398.764 824.502,384.253 836.541,376.502 848.579,368.751 872.378,351.269 895.898,331.806 907.38,320.094 918.861,308.382 922.343,245.67 907.861,240.382 894.38,235.094 821.579,198.751 806.541,189.502 791.502,180.253 719.336,144.075 631.448,172.584 636.448,206.584 650.448,291.584 664.448,376.584 672.448,427.584 675.448,444.584" style="fill:#C4C4C4;" />
<polygon data-section="Orchestra Rows B-S Mezzanine Center Rows A-D" data-priority="1" class="53548" points="143.862,341.537 155.622,351.269 179.421,368.751 191.459,376.502 203.498,384.253 227.714,398.764 252.347,410.305 276.981,421.845 301.893,431.405 314.488,435.195 327.083,438.985 339.818,441.785 352.552,444.584 355.552,427.584 358.552,410.584 361.552,393.584 372.552,325.584 380.552,274.584 391.552,206.584 396.552,172.584 308.664,144.075 293.347,155.305 248.675,187.013 233.498,197.253 189.522,224.01 131.62,252.094 135.102,314.806 143.862,341.537" style="fill:#C4C4C4;" />
<polygon data-section="Orchestra Rows B-S Mezzanine Center Rows A-D" data-priority="1" class="53548" points="235.865,639.865 247.865,645.865 260.865,650.865 272.865,654.865 297.865,662.865 322.865,670.865 360.865,679.865 373.865,681.865 386.865,683.865 399.865,685.865 412.865,687.865 415.865,670.865 420.865,636.865 407.865,634.865 394.865,632.865 343.865,622.865 268.865,599.865 243.865,589.865 203.865,603.865 200.865,620.865 212.865,627.865 235.865,639.865" style="fill:#C4C4C4;" />
<polygon data-section="Orchestra Rows B-S Mezzanine Center Rows A-D" data-priority="1" class="53548" points="447.404,693.404 460.404,694.404 473.404,695.404 486.404,696.404 499.404,696.404 512.404,696.404 525.404,696.404 538.404,696.404 578.404,693.404 591.404,692.404 604.404,691.404 617.404,689.404 630.404,686.404 642.404,683.404 655.404,679.404 668.404,675.404 681.404,670.404 706.404,660.404 707.404,643.404 697.404,614.404 684.404,619.404 581.404,642.404 568.404,643.404 555.404,644.404 529.404,645.404 516.404,645.404 464.404,643.404 451.404,642.404 448.404,676.404 447.404,693.404" style="fill:#C4C4C4;" />
</g>
<g class="grouped-Orchestra Rows B-V Mezzanine Center Rows A-D">
<polygon data-section="Orchestra Rows B-V Mezzanine Center Rows A-D" data-priority="1" class="62048" points="397.0,404.0 391.0,475.0 391.0,493.0 410.0,518.0 423.0,521.0 436.0,524.0 495.0,512.0 553.0,530.0 566.0,528.0 579.0,526.0 592.0,524.0 605.0,521.0 618.0,518.0 638.0,493.0 638.0,475.0 631.0,404.0 625.0,351.0 618.0,299.0 612.0,229.0 605.0,177.0 579.0,182.0 566.0,184.0 540.0,187.0 462.0,184.0 449.0,182.0 423.0,177.0 417.0,229.0 410.0,299.0 404.0,351.0 397.0,404.0" style="fill:#C4C4C4;" />
<polygon data-section="Orchestra Rows B-V Mezzanine Center Rows A-D" data-priority="1" class="62048" points="683.448,495.584 696.182,492.785 708.917,489.985 721.512,486.195 746.563,477.625 759.019,472.845 783.653,461.305 808.286,449.764 832.502,435.253 856.579,419.751 880.378,402.269 892.138,392.537 924.861,342.382 921.861,325.382 922.343,245.67 907.861,240.382 821.579,198.751 806.541,189.502 791.502,180.253 719.336,144.075 631.448,172.584 636.448,206.584 650.448,291.584 664.448,376.584 672.448,427.584 683.448,495.584" style="fill:#C4C4C4;" />
<polygon data-section="Orchestra Rows B-V Mezzanine Center Rows A-D" data-priority="1" class="62048" points="138.862,375.537 171.421,419.751 183.459,427.502 195.498,435.253 219.714,449.764 244.347,461.305 268.981,472.845 293.893,482.405 306.488,486.195 319.083,489.985 331.818,492.785 344.552,495.584 347.552,478.584 350.552,461.584 361.552,393.584 372.552,325.584 380.552,274.584 391.552,206.584 396.552,172.584 308.664,144.075 293.347,155.305 248.675,187.013 233.498,197.253 189.522,224.01 131.62,252.094 135.102,314.806 138.862,375.537" style="fill:#C4C4C4;" />
<polygon data-section="Orchestra Rows B-V Mezzanine Center Rows A-D" data-priority="1" class="62048" points="235.865,639.865 247.865,645.865 260.865,650.865 272.865,654.865 297.865,662.865 322.865,670.865 360.865,679.865 373.865,681.865 386.865,683.865 399.865,685.865 412.865,687.865 415.865,670.865 420.865,636.865 407.865,634.865 394.865,632.865 343.865,622.865 268.865,599.865 243.865,589.865 203.865,603.865 200.865,620.865 212.865,627.865 235.865,639.865" style="fill:#C4C4C4;" />
<polygon data-section="Orchestra Rows B-V Mezzanine Center Rows A-D" data-priority="1" class="62048" points="447.404,693.404 460.404,694.404 473.404,695.404 486.404,696.404 499.404,696.404 512.404,696.404 525.404,696.404 538.404,696.404 578.404,693.404 591.404,692.404 604.404,691.404 617.404,689.404 630.404,686.404 642.404,683.404 655.404,679.404 668.404,675.404 681.404,670.404 706.404,660.404 707.404,643.404 697.404,614.404 684.404,619.404 581.404,642.404 568.404,643.404 555.404,644.404 529.404,645.404 516.404,645.404 464.404,643.404 451.404,642.404 448.404,676.404 447.404,693.404" style="fill:#C4C4C4;" />
</g>
<g class="grouped-Premium Seats">
<polygon data-section="Premium Seats" data-priority="2" class="38672" points="417.0,229.0 417.0,246.0 417.0,264.0 430.0,268.0 443.0,270.0 456.0,272.0 469.0,274.0 482.0,275.0 495.0,276.0 508.0,277.0 521.0,277.0 534.0,276.0 547.0,275.0 560.0,274.0 573.0,272.0 586.0,270.0 599.0,268.0 612.0,264.0 612.0,246.0 612.0,229.0 605.0,177.0 599.0,144.0 573.0,131.0 482.0,134.0 456.0,131.0 430.0,144.0 423.0,177.0 417.0,229.0" style="fill:#C4C4C4;" />
</g>
<g class="grouped-Orchestra Center Rows Q-S, Side Rows B-S">
<polygon data-section="Orchestra Center Rows Q-S, Side Rows B-S" data-priority="2" class="53129" points="397.0,458.0 410.0,462.0 423.0,465.0 436.0,468.0 449.0,470.0 462.0,472.0 475.0,474.0 488.0,475.0 501.0,476.0 514.0,476.0 527.0,476.0 540.0,475.0 553.0,474.0 566.0,472.0 579.0,470.0 592.0,468.0 605.0,465.0 618.0,462.0 631.0,458.0 631.0,440.0 631.0,422.0 579.0,434.0 566.0,436.0 462.0,436.0 449.0,434.0 397.0,422.0 397.0,440.0 397.0,458.0" style="fill:#C4C4C4;" />
<polygon data-section="Orchestra Center Rows Q-S, Side Rows B-S" data-priority="2" class="53129" points="664.448,376.584 672.448,427.584 675.448,444.584 688.182,441.785 700.917,438.985 726.107,431.405 738.563,426.625 751.019,421.845 775.653,410.305 800.286,398.764 824.502,384.253 836.541,376.502 848.579,368.751 872.378,351.269 895.898,331.806 907.38,320.094 918.861,308.382 922.343,245.67 907.861,240.382 894.38,235.094 821.579,198.751 806.541,189.502 791.502,180.253 719.336,144.075 631.448,172.584 636.448,206.584 650.448,291.584 664.448,376.584" style="fill:#C4C4C4;" />
<polygon data-section="Orchestra Center Rows Q-S, Side Rows B-S" data-priority="2" class="53129" points="143.862,341.537 155.622,351.269 179.421,368.751 191.459,376.502 203.498,384.253 227.714,398.764 252.347,410.305 276.981,421.845 301.893,431.405 314.488,435.195 327.083,438.985 339.818,441.785 352.552,444.584 355.552,427.584 358.552,410.584 361.552,393.584 372.552,325.584 380.552,274.584 391.552,206.584 396.552,172.584 308.664,144.075 293.347,155.305 248.675,187.013 233.498,197.253 189.522,224.01 131.62,252.094 135.102,314.806 143.862,341.537" style="fill:#C4C4C4;" />
</g>
<g class="grouped-Mezzanine Side Rows A-J">
<polygon data-section="Mezzanine Side Rows A-J" data-priority="2" class="53138" points="71.5001,524.5 105.5,610.5 116.5,617.5 127.5,624.5 140.5,614.5 153.5,604.5 166.5,594.5 179.5,584.5 204.5,564.5 193.5,557.5 110.5,495.5 100.5,486.5 90.5001,477.5 80.5001,468.5 58.5001,469.5 71.5001,524.5" style="fill:#C4C4C4;" />
<polygon data-section="Mezzanine Side Rows A-J" data-priority="2" class="53138" points="766.116,699.116 778.56,728.56 791.56,724.56 816.56,715.56 828.56,710.56 840.56,705.56 865.56,694.56 888.56,681.06 899.56,674.06 922.56,658.06 933.56,650.06 944.56,642.06 959.116,585.116 974.777,524.777 975.594,496.594 961.5,461.5 945.594,455.594 936.594,465.594 917.594,485.594 878.594,521.594 834.594,551.594 812.594,564.594 741.594,598.594 729.594,603.594 766.116,699.116" style="fill:#C4C4C4;" />
</g>
<g class="grouped-Mezzanine Side Rows A-D, Center Rows E-G">
<polygon data-section="Mezzanine Side Rows A-D, Center Rows E-G" data-priority="2" class="53551" points="80.5001,468.5 58.5001,469.5 71.5001,524.5 81.5001,533.5 91.5001,542.5 101.5,550.5 122.5,566.5 133.5,573.5 144.5,580.5 155.5,587.5 166.5,594.5 179.5,584.5 204.5,564.5 193.5,557.5 110.5,495.5 100.5,486.5 90.5001,477.5 80.5001,468.5" style="fill:#C4C4C4;" />
<polygon data-section="Mezzanine Side Rows A-D, Center Rows E-G" data-priority="2" class="53551" points="747.594,649.594 760.594,646.594 796.594,630.594 819.594,619.594 830.594,613.594 842.594,606.594 887.594,579.594 898.594,572.594 919.594,555.594 929.594,546.594 938.594,537.594 957.594,517.594 975.594,496.594 961.5,461.5 945.594,455.594 936.594,465.594 917.594,485.594 834.594,551.594 812.594,564.594 741.594,598.594 729.594,603.594 747.594,649.594" style="fill:#C4C4C4;" />
<polygon data-section="Mezzanine Side Rows A-D, Center Rows E-G" data-priority="2" class="53551" points="192.865,670.865 204.865,677.865 216.865,684.865 228.865,690.865 381.865,716.865 394.365,718.865 406.865,720.865 409.865,704.865 396.865,702.865 345.865,692.865 307.865,682.865 176.865,622.865 173.865,638.865 181.865,663.865 192.865,670.865" style="fill:#C4C4C4;" />
<polygon data-section="Mezzanine Side Rows A-D, Center Rows E-G" data-priority="2" class="53551" points="445.404,727.404 444.404,744.404 457.404,745.404 470.404,746.404 496.404,747.404 509.404,747.404 561.404,745.404 574.404,744.404 587.404,743.404 600.404,742.404 613.404,740.404 626.404,737.404 639.404,734.404 664.404,726.404 677.404,721.404 690.404,716.404 703.404,711.404 715.404,706.404 716.404,689.404 705.404,677.404 692.404,682.404 563.404,711.404 550.404,712.404 524.404,713.404 511.404,713.404 459.404,711.404 446.404,710.404 445.404,727.404" style="fill:#C4C4C4;" />
</g>
<g class="grouped-Mezzanine Side Rows E-J">
<polygon data-section="Mezzanine Side Rows E-J" data-priority="2" class="58773" points="766.116,699.116 778.56,728.56 791.56,724.56 816.56,715.56 828.56,710.56 840.56,705.56 865.56,694.56 888.56,681.06 899.56,674.06 922.56,658.06 933.56,650.06 944.56,642.06 959.116,585.116 974.777,524.777 955.777,544.777 904.777,588.777 848.777,623.777 813.777,641.777 778.777,656.777 753.777,665.777 766.116,699.116" style="fill:#C4C4C4;" />
<polygon data-section="Mezzanine Side Rows E-J" data-priority="2" class="58773" points="105.5,610.5 116.5,617.5 127.5,624.5 140.5,614.5 153.5,604.5 99.5001,568.5 105.5,610.5" style="fill:#C4C4C4;" />
</g>
<g class="grouped-Orchestra Far Side Rows T-V, Extreme Side Rows F-S">
<polygon data-section="Orchestra Far Side Rows T-V, Extreme Side Rows F-S" data-priority="4" class="53125" points="845.579,351.751 848.579,368.751 851.579,385.751 856.579,419.751 880.378,402.269 892.138,392.537 924.861,342.382 922.343,245.67 907.861,240.382 806.541,189.502 791.502,180.253 754.969,200.534 773.286,228.764 790.325,255.013 845.579,351.751" style="fill:#C4C4C4;" />
<polygon data-section="Orchestra Far Side Rows T-V, Extreme Side Rows F-S" data-priority="4" class="53125" points="135.102,314.806 138.862,375.537 171.421,419.751 183.459,427.502 195.498,435.253 219.714,449.764 203.498,384.253 212.498,333.253 252.714,245.764 285.347,206.305 248.675,187.013 233.498,197.253 189.522,224.01 131.62,252.094 135.102,314.806" style="fill:#C4C4C4;" />
</g>
<g class="grouped-Orchestra Far Side Rows C-S">
<polygon data-section="Orchestra Far Side Rows C-S" data-priority="4" class="53128" points="155.622,351.269 179.421,368.751 191.459,376.502 203.498,384.253 212.498,333.253 252.714,245.764 285.347,206.305 303.664,178.075 293.347,155.305 248.675,187.013 233.498,197.253 131.62,252.094 135.102,314.806 143.862,341.537 155.622,351.269" style="fill:#C4C4C4;" />
<polygon data-section="Orchestra Far Side Rows C-S" data-priority="4" class="53128" points="790.325,255.013 845.579,351.751 848.579,368.751 872.378,351.269 895.898,331.806 907.38,320.094 918.861,308.382 922.343,245.67 907.861,240.382 806.541,189.502 791.502,180.253 734.653,155.305 722.336,161.075 710.019,166.845 724.336,178.075 790.325,255.013" style="fill:#C4C4C4;" />
</g>
<g class="grouped-Mezzanine Far Side Rows A-D">
<polygon data-section="Mezzanine Far Side Rows A-D" data-priority="4" class="53132" points="902.686,546.687 919.594,555.594 929.594,546.594 938.594,537.594 957.594,517.594 975.594,496.594 961.5,461.5 945.594,455.594 889.594,513.594 902.686,546.687" style="fill:#C4C4C4;" />
<polygon data-section="Mezzanine Far Side Rows A-D" data-priority="4" class="53132" points="80.5001,468.5 58.5001,469.5 71.5001,524.5 81.5001,533.5 91.5001,542.5 110.5,495.5 90.5001,477.5 80.5001,468.5" style="fill:#C4C4C4;" />
</g>
<g class="grouped-Mezzanine Far Side Rows E-J">
<polygon data-section="Mezzanine Far Side Rows E-J" data-priority="4" class="53140" points="910.56,666.06 922.56,658.06 933.56,650.06 944.56,642.06 959.116,585.116 974.777,524.777 916.777,581.777 892.492,658.492 910.56,666.06" style="fill:#C4C4C4;" />
<polygon data-section="Mezzanine Far Side Rows E-J" data-priority="4" class="53140" points="99.10215912630679,576.6383799288324 105.5,610.5 111.74327109819825,619.213587207203 115.38779286888456,577.2126404619319 99.5001,568.5 99.10215912630679,576.6383799288324" style="fill:#C4C4C4;" />
</g>
<g class="grouped-Orchestra Far Side Rows C-S Mezzanine Side Rows A-J">
<polygon data-section="Orchestra Far Side Rows C-S Mezzanine Side Rows A-J" data-priority="4" class="53539" points="155.622,351.269 179.421,368.751 191.459,376.502 203.498,384.253 212.498,333.253 252.714,245.764 285.347,206.305 303.664,178.075 293.347,155.305 248.675,187.013 233.498,197.253 131.62,252.094 135.102,314.806 143.862,341.537 155.622,351.269" style="fill:#C4C4C4;" />
<polygon data-section="Orchestra Far Side Rows C-S Mezzanine Side Rows A-J" data-priority="4" class="53539" points="790.325,255.013 845.579,351.751 848.579,368.751 872.378,351.269 895.898,331.806 907.38,320.094 918.861,308.382 922.343,245.67 907.861,240.382 806.541,189.502 791.502,180.253 734.653,155.305 722.336,161.075 710.019,166.845 724.336,178.075 790.325,255.013" style="fill:#C4C4C4;" />
<polygon data-section="Orchestra Far Side Rows C-S Mezzanine Side Rows A-J" data-priority="4" class="53539" points="71.5001,524.5 105.5,610.5 116.5,617.5 127.5,624.5 140.5,614.5 153.5,604.5 166.5,594.5 179.5,584.5 204.5,564.5 193.5,557.5 110.5,495.5 100.5,486.5 90.5001,477.5 80.5001,468.5 58.5001,469.5 71.5001,524.5" style="fill:#C4C4C4;" />
<polygon data-section="Orchestra Far Side Rows C-S Mezzanine Side Rows A-J" data-priority="4" class="53539" points="766.116,699.116 778.56,728.56 791.56,724.56 816.56,715.56 828.56,710.56 840.56,705.56 865.56,694.56 888.56,681.06 899.56,674.06 922.56,658.06 933.56,650.06 944.56,642.06 959.116,585.116 974.777,524.777 975.594,496.594 961.5,461.5 945.594,455.594 936.594,465.594 917.594,485.594 878.594,521.594 834.594,551.594 812.594,564.594 741.594,598.594 729.594,603.594 766.116,699.116" style="fill:#C4C4C4;" />
</g>
<g class="grouped-Orchestra Far Side Rows C-S Mezzanine Rows A-G">
<polygon data-section="Orchestra Far Side Rows C-S Mezzanine Rows A-G" data-priority="4" class="53543" points="155.622,351.269 179.421,368.751 191.459,376.502 203.498,384.253 212.498,333.253 252.714,245.764 285.347,206.305 303.664,178.075 293.347,155.305 248.675,187.013 233.498,197.253 131.62,252.094 135.102,314.806 143.862,341.537 155.622,351.269" style="fill:#C4C4C4;" />
<polygon data-section="Orchestra Far Side Rows C-S Mezzanine Rows A-G" data-priority="4" class="53543" points="790.325,255.013 845.579,351.751 848.579,368.751 872.378,351.269 895.898,331.806 907.38,320.094 918.861,308.382 922.343,245.67 907.861,240.382 806.541,189.502 791.502,180.253 734.653,155.305 722.336,161.075 710.019,166.845 724.336,178.075 790.325,255.013" style="fill:#C4C4C4;" />
<polygon data-section="Orchestra Far Side Rows C-S Mezzanine Rows A-G" data-priority="4" class="53543" points="71.5001,524.5 105.5,610.5 116.5,617.5 127.5,624.5 140.5,614.5 153.5,604.5 166.5,594.5 179.5,584.5 204.5,564.5 193.5,557.5 110.5,495.5 100.5,486.5 90.5001,477.5 80.5001,468.5 58.5001,469.5 71.5001,524.5" style="fill:#C4C4C4;" />
<polygon data-section="Orchestra Far Side Rows C-S Mezzanine Rows A-G" data-priority="4" class="53543" points="446.404,710.404 445.404,727.404 444.404,744.404 457.404,745.404 470.404,746.404 496.404,747.404 509.404,747.404 561.404,745.404 574.404,744.404 587.404,743.404 600.404,742.404 613.404,740.404 626.404,737.404 639.404,734.404 664.404,726.404 677.404,721.404 690.404,716.404 703.404,711.404 715.404,706.404 716.404,689.404 707.404,643.404 697.404,614.404 684.404,619.404 594.404,641.404 581.404,642.404 568.404,643.404 555.404,644.404 529.404,645.404 516.404,645.404 464.404,643.404 451.404,642.404 448.404,676.404 447.404,693.404 446.404,710.404" style="fill:#C4C4C4;" />
<polygon data-section="Orchestra Far Side Rows C-S Mezzanine Rows A-G" data-priority="4" class="53543" points="766.116,699.116 791.116,690.116 803.116,685.116 815.116,680.116 840.116,669.116 875.116,652.116 897.116,637.116 908.116,629.116 918.116,621.116 939.116,603.116 949.116,594.116 959.116,585.116 974.777,524.777 975.594,496.594 961.5,461.5 945.594,455.594 936.594,465.594 917.594,485.594 878.594,521.594 834.594,551.594 812.594,564.594 741.594,598.594 729.594,603.594 766.116,699.116" style="fill:#C4C4C4;" />
<polygon data-section="Orchestra Far Side Rows C-S Mezzanine Rows A-G" data-priority="4" class="53543" points="173.865,638.865 181.865,663.865 192.865,670.865 204.865,677.865 216.865,684.865 228.865,690.865 292.865,695.865 381.865,716.865 394.365,718.865 406.865,720.865 409.865,704.865 412.865,687.865 415.865,670.865 420.865,636.865 407.865,634.865 394.865,632.865 343.865,622.865 268.865,599.865 243.865,589.865 203.865,603.865 176.865,622.865 173.865,638.865" style="fill:#C4C4C4;" />
</g>
<g class="grouped-Orchestra Far Side Rows T-V Side Rows F-S Extreme Mezzanine Side Rows A-J">
<polygon data-section="Orchestra Far Side Rows T-V Side Rows F-S Extreme Mezzanine Side Rows A-J" data-priority="4" class="53547" points="675.448,444.584 688.182,441.785 700.917,438.985 713.512,435.195 726.107,431.405 738.563,426.625 751.019,421.845 763.336,416.075 856.579,419.751 880.378,402.269 892.138,392.537 924.861,342.382 922.343,245.67 907.861,240.382 821.579,198.751 806.541,189.502 791.502,180.253 779.325,187.013 742.653,206.305 730.336,212.075 642.448,240.584 650.448,291.584 664.448,376.584 672.448,427.584 675.448,444.584" style="fill:#C4C4C4;" />
<polygon data-section="Orchestra Far Side Rows T-V Side Rows F-S Extreme Mezzanine Side Rows A-J" data-priority="4" class="53547" points="171.421,419.751 183.459,427.502 195.498,435.253 219.714,449.764 314.488,435.195 327.083,438.985 339.818,441.785 352.552,444.584 355.552,427.584 358.552,410.584 361.552,393.584 372.552,325.584 380.552,274.584 385.552,240.584 297.664,212.075 285.347,206.305 248.675,187.013 233.498,197.253 189.522,224.01 131.62,252.094 135.102,314.806 138.862,375.537 171.421,419.751" style="fill:#C4C4C4;" />
<polygon data-section="Orchestra Far Side Rows T-V Side Rows F-S Extreme Mezzanine Side Rows A-J" data-priority="4" class="53547" points="892.492,658.492 910.56,666.06 922.56,658.06 933.56,650.06 944.56,642.06 959.116,585.116 974.777,524.777 975.594,496.594 961.5,461.5 945.594,455.594 889.594,513.594 902.686,546.687 913.035,606.035 892.492,658.492" style="fill:#C4C4C4;" />
<polygon data-section="Orchestra Far Side Rows T-V Side Rows F-S Extreme Mezzanine Side Rows A-J" data-priority="4" class="53547" points="80.5001,468.5 58.5001,469.5 71.5001,524.5 81.5001,533.5 91.5001,542.5 110.5,495.5 90.5001,477.5 80.5001,468.5" style="fill:#C4C4C4;" />
<polygon data-section="Orchestra Far Side Rows T-V Side Rows F-S Extreme Mezzanine Side Rows A-J" data-priority="4" class="53547" points="92.92159473971138,567.8078331058852 105.37376375261296,619.0604126137912 111.60844736489857,596.7985256953082 109.5,576.5 99.5001,568.5 92.92159473971138,567.8078331058852" style="fill:#C4C4C4;" />
</g>
<g class="grouped-Orchestra Far Side Rows T-V Side Rows F-S Extreme Mezzanine Side Rows E-J">
<polygon data-section="Orchestra Far Side Rows T-V Side Rows F-S Extreme Mezzanine Side Rows E-J" data-priority="4" class="58250" points="675.448,444.584 688.182,441.785 700.917,438.985 713.512,435.195 726.107,431.405 738.563,426.625 751.019,421.845 763.336,416.075 856.579,419.751 880.378,402.269 892.138,392.537 924.861,342.382 922.343,245.67 907.861,240.382 821.579,198.751 806.541,189.502 791.502,180.253 779.325,187.013 742.653,206.305 730.336,212.075 642.448,240.584 650.448,291.584 664.448,376.584 672.448,427.584 675.448,444.584" style="fill:#C4C4C4;" />
<polygon data-section="Orchestra Far Side Rows T-V Side Rows F-S Extreme Mezzanine Side Rows E-J" data-priority="4" class="58250" points="171.421,419.751 183.459,427.502 195.498,435.253 219.714,449.764 314.488,435.195 327.083,438.985 339.818,441.785 352.552,444.584 355.552,427.584 358.552,410.584 361.552,393.584 372.552,325.584 380.552,274.584 385.552,240.584 297.664,212.075 285.347,206.305 248.675,187.013 233.498,197.253 189.522,224.01 131.62,252.094 135.102,314.806 138.862,375.537 171.421,419.751" style="fill:#C4C4C4;" />
<polygon data-section="Orchestra Far Side Rows T-V Side Rows F-S Extreme Mezzanine Side Rows E-J" data-priority="4" class="58250" points="910.56,666.06 922.56,658.06 933.56,650.06 944.56,642.06 959.116,585.116 974.777,524.777 916.777,581.777 892.492,658.492 910.56,666.06" style="fill:#C4C4C4;" />
<polygon data-section="Orchestra Far Side Rows T-V Side Rows F-S Extreme Mezzanine Side Rows E-J" data-priority="4" class="58250" points="99.5001,568.5 99.03300142022019,618.2158842525643 105.5,610.5 119.62009437757074,589.0350358035826 109.5,576.5 99.5001,568.5" style="fill:#C4C4C4;" />
</g>
<g class="grouped-Orchestra Far Side Rows C-S Mezzanine Far Side Rows A-D">
<polygon data-section="Orchestra Far Side Rows C-S Mezzanine Far Side Rows A-D" data-priority="4" class="58772" points="155.622,351.269 179.421,368.751 191.459,376.502 203.498,384.253 212.498,333.253 252.714,245.764 285.347,206.305 303.664,178.075 293.347,155.305 248.675,187.013 233.498,197.253 131.62,252.094 135.102,314.806 143.862,341.537 155.622,351.269" style="fill:#C4C4C4;" />
<polygon data-section="Orchestra Far Side Rows C-S Mezzanine Far Side Rows A-D" data-priority="4" class="58772" points="790.325,255.013 845.579,351.751 848.579,368.751 872.378,351.269 895.898,331.806 907.38,320.094 918.861,308.382 922.343,245.67 907.861,240.382 806.541,189.502 791.502,180.253 734.653,155.305 722.336,161.075 710.019,166.845 724.336,178.075 790.325,255.013" style="fill:#C4C4C4;" />
<polygon data-section="Orchestra Far Side Rows C-S Mezzanine Far Side Rows A-D" data-priority="4" class="58772" points="902.686,546.687 919.594,555.594 929.594,546.594 938.594,537.594 957.594,517.594 975.594,496.594 961.5,461.5 945.594,455.594 889.594,513.594 902.686,546.687" style="fill:#C4C4C4;" />
<polygon data-section="Orchestra Far Side Rows C-S Mezzanine Far Side Rows A-D" data-priority="4" class="58772" points="80.5001,468.5 58.5001,469.5 71.5001,524.5 81.5001,533.5 91.5001,542.5 110.5,495.5 90.5001,477.5 80.5001,468.5" style="fill:#C4C4C4;" />
</g>
<g class="grouped-Mezzanine Far Side Rows E-J Mezzanine Extreme Far Side Rows A-J">
<polygon data-section="Mezzanine Far Side Rows E-J Mezzanine Extreme Far Side Rows A-J" data-priority="8" class="53137" points="892.492,658.492 910.56,666.06 922.56,658.06 933.56,650.06 944.56,642.06 959.116,585.116 974.777,524.777 975.594,496.594 961.5,461.5 945.594,455.594 889.594,513.594 902.686,546.687 913.035,606.035 892.492,658.492" style="fill:#C4C4C4;" />
<polygon data-section="Mezzanine Far Side Rows E-J Mezzanine Extreme Far Side Rows A-J" data-priority="8" class="53137" points="99.5001,568.5 105.5,610.5 109.5,576.5 99.5001,568.5" style="fill:#C4C4C4;" />
<polygon data-section="Mezzanine Far Side Rows E-J Mezzanine Extreme Far Side Rows A-J" data-priority="8" class="53137" points="80.5001,468.5 58.5001,469.5 71.5001,524.5 81.5001,533.5 91.5001,542.5 110.5,495.5 90.5001,477.5 80.5001,468.5" style="fill:#C4C4C4;" />
</g>
<g class="grouped-Mezzanine Extreme Far Side Rows A-J">
<polygon data-section="Mezzanine Extreme Far Side Rows A-J" data-priority="8" class="53549" points="892.492,658.492 910.56,666.06 922.56,658.06 933.56,650.06 944.56,642.06 959.116,585.116 974.777,524.777 975.594,496.594 961.5,461.5 945.594,455.594 889.594,513.594 902.686,546.687 913.035,606.035 892.492,658.492" style="fill:#C4C4C4;" />
<polygon data-section="Mezzanine Extreme Far Side Rows A-J" data-priority="8" class="53549" points="80.5001,468.5 58.5001,469.5 71.5001,524.5 81.5001,533.5 91.5001,542.5 110.5,495.5 90.5001,477.5 80.5001,468.5" style="fill:#C4C4C4;" />
<polygon data-section="Mezzanine Extreme Far Side Rows A-J" data-priority="8" class="53549" points="91.20477268923544,570.309319983018 105.5,610.5 113.22505309378332,621.1870864727744 117.74628786034818,593.2460339166208 109.5,576.5 99.5001,568.5 91.20477268923544,570.309319983018" style="fill:#C4C4C4;" />
</g>
</g></g></svg>