<svg viewbox="0 0 339.0 487.506" xmlns="http://www.w3.org/2000/svg">
<g id="stage">
<rect x="0" y="0" width="339.0" height="50" fill="#222222" />
<text font-size="16px" x="169.5" y="25.0" text-anchor="middle" fill="#ffffff" dominant-baseline="middle">STAGE</text>
</g>
<g transform="translate(0, 10)">
<g class="primary-clusters">
<text x="169.5" y="85" font-size="16px" text-anchor="middle" dominant-baseline="middle">ORCHESTRA</text><g class="grouped-orchestra cluster0">
<polygon data-section="orchestra" data-priority="-1" class="n/a" points="27.0,300.0 27.0,317.0 40.0,317.0 53.0,317.0 66.0,317.0 66.0,300.0 66.0,283.0 66.0,266.0 66.0,249.0 66.0,232.0 53.0,232.0 27.0,266.0 27.0,283.0 27.0,300.0" style="fill:#C4C4C4;" />
</g>
<g class="grouped-orchestra cluster1">
<polygon data-section="orchestra" data-priority="-1" class="n/a" points="27.0,147.0 27.0,164.0 27.0,181.0 40.0,181.0 53.0,181.0 66.0,181.0 66.0,164.0 66.0,147.0 66.0,130.0 66.0,113.0 53.0,113.0 27.0,130.0 27.0,147.0" style="fill:#C4C4C4;" />
</g>
<g class="grouped-orchestra cluster2">
<polygon data-section="orchestra" data-priority="-1" class="n/a" points="98.0,164.0 98.0,181.0 98.0,198.0 98.0,215.0 98.0,232.0 98.0,249.0 98.0,266.0 98.0,283.0 98.0,300.0 98.0,317.0 98.0,334.0 98.0,351.0 98.0,368.0 112.0,385.0 125.0,385.0 138.0,385.0 151.0,385.0 164.0,385.0 177.0,385.0 190.0,385.0 203.0,385.0 216.0,385.0 229.0,385.0 241.0,368.0 241.0,351.0 241.0,334.0 241.0,317.0 241.0,300.0 241.0,283.0 241.0,266.0 241.0,249.0 241.0,232.0 241.0,215.0 241.0,198.0 241.0,181.0 241.0,164.0 241.0,147.0 241.0,130.0 241.0,113.0 228.0,113.0 215.0,113.0 202.0,113.0 189.0,113.0 176.0,113.0 163.0,113.0 150.0,113.0 137.0,113.0 124.0,113.0 111.0,113.0 98.0,113.0 98.0,130.0 98.0,147.0 98.0,164.0" style="fill:#C4C4C4;" />
</g>
<g class="grouped-orchestra cluster3">
<polygon data-section="orchestra" data-priority="-1" class="n/a" points="273.0,249.0 273.0,266.0 273.0,283.0 286.0,283.0 299.0,283.0 312.0,283.0 312.0,266.0 286.0,232.0 273.0,232.0 273.0,249.0" style="fill:#C4C4C4;" />
</g>
<g class="grouped-orchestra cluster4">
<polygon data-section="orchestra" data-priority="-1" class="n/a" points="273.0,130.0 273.0,147.0 273.0,164.0 273.0,181.0 286.0,181.0 299.0,181.0 312.0,181.0 312.0,164.0 312.0,147.0 312.0,130.0 286.0,113.0 273.0,113.0 273.0,130.0" style="fill:#C4C4C4;" />
</g>
</g>
<g class="tour-sections"><g class="grouped-Orchestra Center K-N">
<polygon data-section="Orchestra Center K-N" data-priority="1" class="50201" points="124.0,266.0 111.0,266.0 98.0,266.0 98.0,283.0 98.0,300.0 98.0,317.0 111.0,317.0 124.0,317.0 137.0,317.0 150.0,317.0 163.0,317.0 176.0,317.0 189.0,317.0 202.0,317.0 215.0,317.0 228.0,317.0 241.0,317.0 241.0,300.0 241.0,283.0 241.0,266.0 228.0,266.0 215.0,266.0 202.0,266.0 189.0,266.0 176.0,266.0 163.0,266.0 150.0,266.0 137.0,266.0 124.0,266.0" style="fill:#C4C4C4;" />
</g>
<g class="grouped-Orchestra Center A-J">
<polygon data-section="Orchestra Center A-J" data-priority="1" class="50202" points="98.0,198.0 98.0,215.0 98.0,232.0 98.0,249.0 111.0,249.0 124.0,249.0 137.0,249.0 150.0,249.0 163.0,249.0 176.0,249.0 189.0,249.0 202.0,249.0 215.0,249.0 228.0,249.0 241.0,249.0 241.0,232.0 241.0,215.0 241.0,198.0 241.0,181.0 241.0,164.0 241.0,147.0 241.0,130.0 241.0,113.0 228.0,113.0 215.0,113.0 202.0,113.0 189.0,113.0 176.0,113.0 163.0,113.0 150.0,113.0 137.0,113.0 124.0,113.0 111.0,113.0 98.0,113.0 98.0,130.0 98.0,147.0 98.0,164.0 98.0,181.0 98.0,198.0" style="fill:#C4C4C4;" />
</g>
<g class="grouped-Orchestra Center A-N">
<polygon data-section="Orchestra Center A-N" data-priority="1" class="50203" points="98.0,147.0 98.0,164.0 98.0,181.0 98.0,198.0 98.0,215.0 98.0,232.0 98.0,249.0 98.0,266.0 98.0,283.0 98.0,300.0 98.0,317.0 111.0,317.0 124.0,317.0 137.0,317.0 150.0,317.0 163.0,317.0 176.0,317.0 189.0,317.0 202.0,317.0 215.0,317.0 228.0,317.0 241.0,317.0 241.0,300.0 241.0,283.0 241.0,266.0 241.0,249.0 241.0,232.0 241.0,215.0 241.0,198.0 241.0,181.0 241.0,164.0 241.0,147.0 241.0,130.0 241.0,113.0 228.0,113.0 215.0,113.0 202.0,113.0 189.0,113.0 176.0,113.0 163.0,113.0 150.0,113.0 137.0,113.0 124.0,113.0 111.0,113.0 98.0,113.0 98.0,130.0 98.0,147.0" style="fill:#C4C4C4;" />
</g>
<g class="grouped-PREMIUM">
<polygon data-section="PREMIUM" data-priority="2" class="50187" points="98.0,130.0 98.0,147.0 98.0,164.0 98.0,181.0 98.0,198.0 98.0,215.0 111.0,215.0 124.0,215.0 137.0,215.0 150.0,215.0 163.0,215.0 176.0,215.0 189.0,215.0 202.0,215.0 215.0,215.0 228.0,215.0 241.0,215.0 241.0,198.0 241.0,181.0 241.0,164.0 241.0,147.0 241.0,130.0 241.0,113.0 228.0,113.0 215.0,113.0 202.0,113.0 189.0,113.0 176.0,113.0 163.0,113.0 150.0,113.0 137.0,113.0 124.0,113.0 111.0,113.0 98.0,113.0 98.0,130.0" style="fill:#C4C4C4;" />
</g>
<g class="grouped-Orchestra Side A-J">
<polygon data-section="Orchestra Side A-J" data-priority="2" class="50198" points="27.0,147.0 27.0,164.0 27.0,181.0 40.0,181.0 53.0,181.0 66.0,181.0 66.0,164.0 66.0,147.0 66.0,130.0 66.0,113.0 53.0,113.0 27.0,130.0 27.0,147.0" style="fill:#C4C4C4;" />
<polygon data-section="Orchestra Side A-J" data-priority="2" class="50198" points="68.67630916634529,226.1550626218156 53.0,232.0 43.42020637443133,241.93162031664448 53.0,249.0 66.0,249.0 70.3866902396382,242.31852924617706 68.67630916634529,226.1550626218156" style="fill:#C4C4C4;" />
<polygon data-section="Orchestra Side A-J" data-priority="2" class="50198" points="273.0,232.0 271.84369568011965,241.46121048578962 273.0,249.0 276.4527898746926,254.17026843411085 286.0,249.0 286.0,232.0 280.0935476822557,227.06401877930335 274.4197053686278,224.89377049365817 273.0,232.0" style="fill:#C4C4C4;" />
<polygon data-section="Orchestra Side A-J" data-priority="2" class="50198" points="273.0,147.0 273.0,164.0 273.0,181.0 286.0,181.0 299.0,181.0 312.0,181.0 312.0,164.0 312.0,147.0 312.0,130.0 286.0,113.0 273.0,113.0 273.0,130.0 273.0,147.0" style="fill:#C4C4C4;" />
</g>
</g></g></svg>