<svg viewbox="0 0 661.0 879.174" xmlns="http://www.w3.org/2000/svg">
<g id="stage">
<rect x="200" y="0" width="261.0" height="100" fill="#222222" />
<text font-size="28px" x="330.5" y="50.0" text-anchor="middle" fill="#ffffff" dominant-baseline="middle">STAGE</text>
</g>
<g transform="translate(0, 100)">
<g class="primary-clusters">
<text x="330.5" y="85" font-size="28px" text-anchor="middle" dominant-baseline="middle">ORCHESTRA</text><text x="330.5" y="518.0" font-size="28px" text-anchor="middle" dominant-baseline="middle">MEZZANINE</text><g class="grouped-orchestra cluster0">
<polygon data-section="orchestra" data-priority="-1" class="n/a" points="46.0,314.0 46.0,331.0 46.0,348.0 46.0,365.0 46.0,382.0 46.0,399.0 85.0,430.0 124.0,457.0 137.0,459.0 150.0,461.0 163.0,463.0 176.0,465.0 176.0,448.0 176.0,431.0 176.0,414.0 176.0,397.0 176.0,380.0 176.0,363.0 176.0,346.0 176.0,329.0 176.0,312.0 176.0,295.0 176.0,278.0 176.0,261.0 176.0,244.0 176.0,227.0 98.0,213.0 85.0,226.0 59.0,268.0 46.0,297.0 46.0,314.0" style="fill:#C4C4C4;" />
</g>
<g class="grouped-orchestra cluster1">
<polygon data-section="orchestra" data-priority="-1" class="n/a" points="98.0,181.0 111.0,184.0 124.0,187.0 137.0,189.0 150.0,191.0 163.0,193.0 176.0,195.0 186.0,178.0 196.0,161.0 206.0,144.0 193.0,142.0 180.0,140.0 167.0,138.0 154.0,136.0 108.0,164.0 98.0,181.0" style="fill:#C4C4C4;" />
</g>
<g class="grouped-orchestra cluster2">
<polygon data-section="orchestra" data-priority="-1" class="n/a" points="208.0,349.0 208.0,366.0 208.0,383.0 215.0,418.0 228.0,471.0 241.0,472.0 254.0,473.0 332.0,458.0 397.0,473.0 410.0,472.0 423.0,471.0 436.0,418.0 442.0,383.0 442.0,366.0 442.0,349.0 442.0,332.0 442.0,315.0 442.0,298.0 442.0,281.0 436.0,231.0 429.0,197.0 410.0,149.0 384.0,150.0 358.0,151.0 293.0,151.0 267.0,150.0 241.0,149.0 234.0,166.0 221.0,198.0 215.0,231.0 208.0,281.0 208.0,298.0 208.0,315.0 208.0,332.0 208.0,349.0" style="fill:#C4C4C4;" />
</g>
<g class="grouped-orchestra cluster3">
<polygon data-section="orchestra" data-priority="-1" class="n/a" points="474.0,329.0 474.0,346.0 474.0,363.0 474.0,380.0 474.0,397.0 474.0,414.0 474.0,431.0 474.0,448.0 474.0,465.0 500.0,462.0 513.0,460.0 526.0,458.0 565.0,431.0 604.0,400.0 604.0,383.0 604.0,366.0 604.0,349.0 604.0,332.0 604.0,315.0 604.0,298.0 591.0,269.0 565.0,227.0 552.0,214.0 474.0,227.0 474.0,244.0 474.0,261.0 474.0,278.0 474.0,295.0 474.0,312.0 474.0,329.0" style="fill:#C4C4C4;" />
</g>
<g class="grouped-orchestra cluster4">
<polygon data-section="orchestra" data-priority="-1" class="n/a" points="457.0,142.0 444.0,144.0 454.0,161.0 464.0,178.0 474.0,195.0 500.0,192.0 513.0,190.0 526.0,188.0 539.0,185.0 552.0,182.0 496.0,137.0 457.0,142.0" style="fill:#C4C4C4;" />
</g>
<g class="grouped-mezzanine cluster0">
<polygon data-section="mezzanine" data-priority="-1" class="n/a" points="47.0,626.0 73.0,652.0 86.0,657.0 99.0,661.0 125.0,668.0 138.0,671.0 151.0,674.0 164.0,677.0 164.0,660.0 164.0,643.0 164.0,626.0 164.0,609.0 164.0,592.0 164.0,575.0 164.0,558.0 164.0,541.0 86.0,521.0 73.0,533.0 47.0,558.0 47.0,575.0 47.0,592.0 47.0,609.0 47.0,626.0" style="fill:#C4C4C4;" />
</g>
<g class="grouped-mezzanine cluster1">
<polygon data-section="mezzanine" data-priority="-1" class="n/a" points="196.0,631.0 196.0,648.0 196.0,665.0 222.0,685.0 235.0,686.0 248.0,687.0 261.0,688.0 274.0,689.0 287.0,690.0 300.0,691.0 313.0,691.0 326.0,691.0 339.0,691.0 352.0,691.0 378.0,690.0 391.0,689.0 404.0,688.0 417.0,687.0 430.0,686.0 456.0,666.0 456.0,649.0 456.0,632.0 456.0,615.0 456.0,598.0 456.0,581.0 456.0,564.0 456.0,547.0 417.0,551.0 404.0,552.0 365.0,554.0 274.0,553.0 261.0,552.0 248.0,551.0 196.0,546.0 196.0,563.0 196.0,580.0 196.0,597.0 196.0,614.0 196.0,631.0" style="fill:#C4C4C4;" />
</g>
<g class="grouped-mezzanine cluster2">
<polygon data-section="mezzanine" data-priority="-1" class="n/a" points="488.0,575.0 488.0,592.0 488.0,609.0 488.0,626.0 488.0,643.0 488.0,660.0 488.0,677.0 501.0,674.0 514.0,671.0 527.0,668.0 553.0,661.0 566.0,657.0 579.0,652.0 605.0,626.0 605.0,609.0 605.0,592.0 605.0,575.0 605.0,558.0 579.0,533.0 566.0,521.0 488.0,541.0 488.0,558.0 488.0,575.0" style="fill:#C4C4C4;" />
</g>
</g>
<g class="tour-sections"><g class="grouped-Orchestra Center N-Q/Mezzanine Center AA-BB/Mezzanine Center CC-DD">
<polygon data-section="Orchestra Center N-Q/Mezzanine Center AA-BB/Mezzanine Center CC-DD" data-priority="1" class="62222" points="215.0,401.0 228.0,403.0 241.0,404.0 254.0,405.0 280.0,406.0 306.0,407.0 319.0,407.0 332.0,407.0 345.0,407.0 371.0,406.0 397.0,405.0 410.0,404.0 423.0,403.0 436.0,401.0 442.0,383.0 442.0,366.0 442.0,349.0 429.0,350.0 390.0,353.0 286.0,355.0 208.0,349.0 208.0,366.0 208.0,383.0 215.0,401.0" style="fill:#C4C4C4;" />
<polygon data-section="Orchestra Center N-Q/Mezzanine Center AA-BB/Mezzanine Center CC-DD" data-priority="1" class="62222" points="196.0,597.0 209.0,599.0 222.0,600.0 235.0,601.0 248.0,602.0 261.0,603.0 274.0,604.0 287.0,605.0 300.0,606.0 313.0,606.0 326.0,606.0 339.0,606.0 352.0,606.0 378.0,605.0 391.0,604.0 404.0,603.0 417.0,602.0 430.0,601.0 443.0,600.0 456.0,598.0 456.0,581.0 456.0,564.0 456.0,547.0 417.0,551.0 404.0,552.0 365.0,554.0 261.0,552.0 248.0,551.0 196.0,546.0 196.0,563.0 196.0,580.0 196.0,597.0" style="fill:#C4C4C4;" />
</g>
<g class="grouped-Mid-Premium">
<polygon data-section="Mid-Premium" data-priority="2" class="50175" points="215.0,231.0 215.0,248.0 215.0,265.0 228.0,267.0 241.0,268.0 254.0,269.0 280.0,270.0 306.0,271.0 319.0,271.0 332.0,271.0 345.0,271.0 371.0,270.0 397.0,269.0 410.0,268.0 423.0,267.0 436.0,265.0 436.0,248.0 436.0,231.0 429.0,197.0 410.0,149.0 384.0,150.0 293.0,151.0 267.0,150.0 241.0,149.0 234.0,166.0 221.0,198.0 215.0,231.0" style="fill:#C4C4C4;" />
</g>
<g class="grouped-Premium">
<polygon data-section="Premium" data-priority="2" class="50176" points="215.0,231.0 215.0,248.0 215.0,265.0 228.0,267.0 241.0,268.0 254.0,269.0 280.0,270.0 306.0,271.0 319.0,271.0 332.0,271.0 345.0,271.0 371.0,270.0 397.0,269.0 410.0,268.0 423.0,267.0 436.0,265.0 436.0,248.0 436.0,231.0 429.0,197.0 410.0,149.0 384.0,150.0 293.0,151.0 267.0,150.0 241.0,149.0 234.0,166.0 221.0,198.0 215.0,231.0" style="fill:#C4C4C4;" />
</g>
<g class="grouped-Orchestra Side A-D, N-Q/Orchestra Center R-U">
<polygon data-section="Orchestra Side A-D, N-Q/Orchestra Center R-U" data-priority="2" class="62223" points="46.0,348.0 46.0,365.0 59.0,370.0 72.0,375.0 85.0,379.0 98.0,383.0 111.0,386.0 124.0,389.0 137.0,391.0 150.0,393.0 163.0,395.0 176.0,397.0 176.0,380.0 176.0,363.0 176.0,346.0 163.0,344.0 150.0,342.0 59.0,319.0 46.0,314.0 46.0,331.0 46.0,348.0" style="fill:#C4C4C4;" />
<polygon data-section="Orchestra Side A-D, N-Q/Orchestra Center R-U" data-priority="2" class="62223" points="474.0,380.0 474.0,397.0 500.0,394.0 513.0,392.0 526.0,390.0 539.0,387.0 552.0,384.0 565.0,380.0 578.0,376.0 591.0,371.0 604.0,366.0 604.0,349.0 604.0,332.0 604.0,315.0 591.0,320.0 565.0,329.0 487.0,344.0 474.0,346.0 474.0,363.0 474.0,380.0" style="fill:#C4C4C4;" />
<polygon data-section="Orchestra Side A-D, N-Q/Orchestra Center R-U" data-priority="2" class="62223" points="241.0,472.0 254.0,473.0 332.0,458.0 397.0,473.0 410.0,472.0 423.0,471.0 436.0,418.0 358.0,423.0 293.0,423.0 215.0,418.0 228.0,471.0 241.0,472.0" style="fill:#C4C4C4;" />
</g>
<g class="grouped-Orchestra Center A-C/Orchestra Side J-M">
<polygon data-section="Orchestra Center A-C/Orchestra Side J-M" data-priority="2" class="62224" points="241.0,183.0 254.0,184.0 280.0,185.0 306.0,186.0 319.0,186.0 332.0,186.0 345.0,186.0 371.0,185.0 397.0,184.0 410.0,183.0 423.0,182.0 410.0,149.0 384.0,150.0 358.0,151.0 267.0,150.0 241.0,149.0 234.0,166.0 228.0,182.0 241.0,183.0" style="fill:#C4C4C4;" />
<polygon data-section="Orchestra Center A-C/Orchestra Side J-M" data-priority="2" class="62224" points="46.0,297.0 59.0,302.0 72.0,307.0 85.0,311.0 98.0,315.0 111.0,318.0 124.0,321.0 137.0,323.0 150.0,325.0 163.0,327.0 176.0,329.0 176.0,312.0 176.0,295.0 176.0,278.0 85.0,260.0 59.0,268.0 46.0,297.0" style="fill:#C4C4C4;" />
<polygon data-section="Orchestra Center A-C/Orchestra Side J-M" data-priority="2" class="62224" points="474.0,312.0 474.0,329.0 500.0,326.0 513.0,324.0 526.0,322.0 539.0,319.0 552.0,316.0 565.0,312.0 578.0,308.0 591.0,303.0 604.0,298.0 591.0,269.0 565.0,261.0 474.0,278.0 474.0,295.0 474.0,312.0" style="fill:#C4C4C4;" />
</g>
<g class="grouped-Orchestra Center D-H, J-M/Orchestra Side F-H">
<polygon data-section="Orchestra Center D-H, J-M/Orchestra Side F-H" data-priority="2" class="62225" points="221.0,334.0 234.0,336.0 247.0,337.0 273.0,338.0 299.0,339.0 312.0,339.0 325.0,339.0 338.0,339.0 351.0,339.0 403.0,336.0 416.0,335.0 442.0,332.0 442.0,315.0 442.0,298.0 442.0,281.0 429.0,282.0 390.0,285.0 286.0,287.0 208.0,281.0 208.0,298.0 208.0,315.0 208.0,332.0 221.0,334.0" style="fill:#C4C4C4;" />
<polygon data-section="Orchestra Center D-H, J-M/Orchestra Side F-H" data-priority="2" class="62225" points="85.0,243.0 98.0,247.0 111.0,250.0 124.0,253.0 137.0,255.0 150.0,257.0 163.0,259.0 176.0,261.0 176.0,244.0 176.0,227.0 98.0,213.0 85.0,226.0 85.0,243.0" style="fill:#C4C4C4;" />
<polygon data-section="Orchestra Center D-H, J-M/Orchestra Side F-H" data-priority="2" class="62225" points="474.0,227.0 474.0,244.0 474.0,261.0 500.0,258.0 513.0,256.0 526.0,254.0 539.0,251.0 552.0,248.0 565.0,244.0 565.0,227.0 552.0,214.0 474.0,227.0" style="fill:#C4C4C4;" />
</g>
<g class="grouped-Orchestra Center D-H/Orchestra Side F-H/Orchestra Center J-M">
<polygon data-section="Orchestra Center D-H/Orchestra Side F-H/Orchestra Center J-M" data-priority="2" class="62228" points="208.0,315.0 208.0,332.0 221.0,334.0 234.0,336.0 247.0,337.0 273.0,338.0 299.0,339.0 312.0,339.0 325.0,339.0 338.0,339.0 351.0,339.0 403.0,336.0 416.0,335.0 442.0,332.0 442.0,315.0 442.0,298.0 442.0,281.0 436.0,231.0 429.0,197.0 390.0,200.0 377.0,201.0 286.0,202.0 221.0,198.0 215.0,231.0 208.0,281.0 208.0,298.0 208.0,315.0" style="fill:#C4C4C4;" />
<polygon data-section="Orchestra Center D-H/Orchestra Side F-H/Orchestra Center J-M" data-priority="2" class="62228" points="85.0,243.0 98.0,247.0 111.0,250.0 124.0,253.0 137.0,255.0 150.0,257.0 163.0,259.0 176.0,261.0 176.0,244.0 176.0,227.0 98.0,213.0 85.0,226.0 85.0,243.0" style="fill:#C4C4C4;" />
<polygon data-section="Orchestra Center D-H/Orchestra Side F-H/Orchestra Center J-M" data-priority="2" class="62228" points="474.0,227.0 474.0,244.0 474.0,261.0 500.0,258.0 513.0,256.0 526.0,254.0 539.0,251.0 552.0,248.0 565.0,244.0 565.0,227.0 552.0,214.0 474.0,227.0" style="fill:#C4C4C4;" />
</g>
<g class="grouped-Orchestra Side A-D/Orchestra Side N-Q/Orchestra Center R-U">
<polygon data-section="Orchestra Side A-D/Orchestra Side N-Q/Orchestra Center R-U" data-priority="2" class="62229" points="98.0,181.0 111.0,184.0 124.0,187.0 137.0,189.0 150.0,191.0 163.0,193.0 176.0,195.0 186.0,178.0 196.0,161.0 206.0,144.0 193.0,142.0 180.0,140.0 167.0,138.0 154.0,136.0 108.0,164.0 98.0,181.0" style="fill:#C4C4C4;" />
<polygon data-section="Orchestra Side A-D/Orchestra Side N-Q/Orchestra Center R-U" data-priority="2" class="62229" points="457.0,142.0 444.0,144.0 454.0,161.0 464.0,178.0 474.0,195.0 500.0,192.0 513.0,190.0 526.0,188.0 539.0,185.0 552.0,182.0 496.0,137.0 457.0,142.0" style="fill:#C4C4C4;" />
<polygon data-section="Orchestra Side A-D/Orchestra Side N-Q/Orchestra Center R-U" data-priority="2" class="62229" points="46.0,348.0 46.0,365.0 59.0,370.0 72.0,375.0 85.0,379.0 98.0,383.0 111.0,386.0 124.0,389.0 137.0,391.0 150.0,393.0 163.0,395.0 176.0,397.0 176.0,380.0 176.0,363.0 176.0,346.0 163.0,344.0 150.0,342.0 59.0,319.0 46.0,314.0 46.0,331.0 46.0,348.0" style="fill:#C4C4C4;" />
<polygon data-section="Orchestra Side A-D/Orchestra Side N-Q/Orchestra Center R-U" data-priority="2" class="62229" points="474.0,380.0 474.0,397.0 500.0,394.0 513.0,392.0 526.0,390.0 539.0,387.0 552.0,384.0 565.0,380.0 578.0,376.0 591.0,371.0 604.0,366.0 604.0,349.0 604.0,332.0 604.0,315.0 591.0,320.0 565.0,329.0 487.0,344.0 474.0,346.0 474.0,363.0 474.0,380.0" style="fill:#C4C4C4;" />
<polygon data-section="Orchestra Side A-D/Orchestra Side N-Q/Orchestra Center R-U" data-priority="2" class="62229" points="241.0,472.0 254.0,473.0 332.0,458.0 397.0,473.0 410.0,472.0 423.0,471.0 436.0,418.0 358.0,423.0 293.0,423.0 215.0,418.0 228.0,471.0 241.0,472.0" style="fill:#C4C4C4;" />
</g>
<g class="grouped-Mezzanine Side GG-JJ/Mezzanine Far Side GG-JJ">
<polygon data-section="Mezzanine Side GG-JJ/Mezzanine Far Side GG-JJ" data-priority="4" class="62220" points="488.0,660.0 488.0,677.0 501.0,674.0 514.0,671.0 527.0,668.0 553.0,661.0 566.0,657.0 579.0,652.0 605.0,626.0 605.0,609.0 579.0,618.0 501.0,640.0 488.0,643.0 488.0,660.0" style="fill:#C4C4C4;" />
<polygon data-section="Mezzanine Side GG-JJ/Mezzanine Far Side GG-JJ" data-priority="4" class="62220" points="73.0,652.0 86.0,657.0 99.0,661.0 125.0,668.0 138.0,671.0 151.0,674.0 164.0,677.0 164.0,660.0 164.0,643.0 151.0,640.0 73.0,618.0 47.0,609.0 47.0,626.0 73.0,652.0" style="fill:#C4C4C4;" />
</g>
<g class="grouped-Orchestra Far Side A-D/Orchestra Far Side R-U/Mezzanine Far Side AA-FF/Mezzanine">
<polygon data-section="Orchestra Far Side A-D/Orchestra Far Side R-U/Mezzanine Far Side AA-FF/Mezzanine" data-priority="4" class="62221" points="496.0,137.0 506.0,154.0 516.0,171.0 539.0,185.0 552.0,182.0 496.0,137.0" style="fill:#C4C4C4;" />
<polygon data-section="Orchestra Far Side A-D/Orchestra Far Side R-U/Mezzanine Far Side AA-FF/Mezzanine" data-priority="4" class="62221" points="102.53891832505654,159.7012050028667 98.0,181.0 118.05315068359103,190.0192310450708 126.78681706440216,159.7355780285155 102.53891832505654,159.7012050028667" style="fill:#C4C4C4;" />
<polygon data-section="Orchestra Far Side A-D/Orchestra Far Side R-U/Mezzanine Far Side AA-FF/Mezzanine" data-priority="4" class="62221" points="604.0,383.0 591.0,388.0 578.0,393.0 578.0,410.0 591.0,405.0 604.0,400.0 604.0,383.0" style="fill:#C4C4C4;" />
<polygon data-section="Orchestra Far Side A-D/Orchestra Far Side R-U/Mezzanine Far Side AA-FF/Mezzanine" data-priority="4" class="62221" points="59.0,404.0 72.0,409.0 72.0,392.0 59.0,387.0 46.0,382.0 46.0,399.0 59.0,404.0" style="fill:#C4C4C4;" />
<polygon data-section="Orchestra Far Side A-D/Orchestra Far Side R-U/Mezzanine Far Side AA-FF/Mezzanine" data-priority="4" class="62221" points="488.0,575.0 488.0,592.0 488.0,609.0 488.0,626.0 488.0,643.0 488.0,660.0 488.0,677.0 501.0,674.0 514.0,671.0 527.0,668.0 553.0,661.0 566.0,657.0 579.0,652.0 605.0,626.0 605.0,609.0 605.0,592.0 605.0,575.0 605.0,558.0 579.0,533.0 566.0,521.0 488.0,541.0 488.0,558.0 488.0,575.0" style="fill:#C4C4C4;" />
<polygon data-section="Orchestra Far Side A-D/Orchestra Far Side R-U/Mezzanine Far Side AA-FF/Mezzanine" data-priority="4" class="62221" points="47.0,575.0 47.0,592.0 47.0,609.0 47.0,626.0 73.0,652.0 86.0,657.0 99.0,661.0 125.0,668.0 138.0,671.0 151.0,674.0 164.0,677.0 164.0,660.0 164.0,643.0 164.0,626.0 164.0,609.0 164.0,592.0 164.0,575.0 164.0,558.0 164.0,541.0 86.0,521.0 73.0,533.0 47.0,558.0 47.0,575.0" style="fill:#C4C4C4;" />
<polygon data-section="Orchestra Far Side A-D/Orchestra Far Side R-U/Mezzanine Far Side AA-FF/Mezzanine" data-priority="4" class="62221" points="196.0,631.0 196.0,648.0 196.0,665.0 222.0,685.0 235.0,686.0 248.0,687.0 261.0,688.0 274.0,689.0 287.0,690.0 300.0,691.0 313.0,691.0 326.0,691.0 339.0,691.0 352.0,691.0 378.0,690.0 391.0,689.0 404.0,688.0 417.0,687.0 430.0,686.0 456.0,666.0 456.0,649.0 456.0,632.0 456.0,615.0 456.0,598.0 456.0,581.0 456.0,564.0 456.0,547.0 417.0,551.0 404.0,552.0 365.0,554.0 274.0,553.0 261.0,552.0 248.0,551.0 196.0,546.0 196.0,563.0 196.0,580.0 196.0,597.0 196.0,614.0 196.0,631.0" style="fill:#C4C4C4;" />
</g>
<g class="grouped-Orchestra Far Side F-Q/Orchestra Side R-T/Orchestra Rear Side Accessible/Mezzani">
<polygon data-section="Orchestra Far Side F-Q/Orchestra Side R-T/Orchestra Rear Side Accessible/Mezzani" data-priority="4" class="62226" points="474.0,414.0 474.0,431.0 474.0,448.0 474.0,465.0 500.0,462.0 513.0,460.0 526.0,458.0 565.0,431.0 604.0,400.0 604.0,383.0 604.0,366.0 604.0,349.0 604.0,332.0 604.0,315.0 604.0,298.0 591.0,269.0 565.0,227.0 552.0,214.0 539.0,217.0 552.0,265.0 513.0,358.0 500.0,360.0 487.0,361.0 474.0,363.0 474.0,380.0 474.0,397.0 474.0,414.0" style="fill:#C4C4C4;" />
<polygon data-section="Orchestra Far Side F-Q/Orchestra Side R-T/Orchestra Rear Side Accessible/Mezzani" data-priority="4" class="62226" points="46.0,331.0 46.0,348.0 46.0,365.0 46.0,382.0 46.0,399.0 85.0,430.0 124.0,457.0 137.0,459.0 150.0,461.0 163.0,463.0 176.0,465.0 176.0,448.0 176.0,431.0 176.0,414.0 176.0,397.0 176.0,380.0 176.0,363.0 163.0,361.0 150.0,359.0 137.0,357.0 98.0,264.0 111.0,216.0 98.0,213.0 85.0,226.0 59.0,268.0 46.0,297.0 46.0,314.0 46.0,331.0" style="fill:#C4C4C4;" />
<polygon data-section="Orchestra Far Side F-Q/Orchestra Side R-T/Orchestra Rear Side Accessible/Mezzani" data-priority="4" class="62226" points="47.0,558.0 47.0,575.0 47.0,592.0 47.0,609.0 47.0,626.0 73.0,652.0 86.0,657.0 99.0,661.0 125.0,668.0 138.0,671.0 151.0,674.0 164.0,677.0 164.0,660.0 164.0,643.0 164.0,626.0 164.0,609.0 164.0,592.0 164.0,575.0 164.0,558.0 164.0,541.0 86.0,521.0 73.0,533.0 47.0,558.0" style="fill:#C4C4C4;" />
<polygon data-section="Orchestra Far Side F-Q/Orchestra Side R-T/Orchestra Rear Side Accessible/Mezzani" data-priority="4" class="62226" points="196.0,631.0 196.0,648.0 196.0,665.0 222.0,685.0 235.0,686.0 248.0,687.0 261.0,688.0 274.0,689.0 287.0,690.0 300.0,691.0 313.0,691.0 326.0,691.0 339.0,691.0 352.0,691.0 378.0,690.0 391.0,689.0 404.0,688.0 417.0,687.0 430.0,686.0 456.0,666.0 456.0,649.0 456.0,632.0 456.0,615.0 456.0,598.0 456.0,581.0 456.0,564.0 456.0,547.0 417.0,551.0 404.0,552.0 365.0,554.0 274.0,553.0 261.0,552.0 248.0,551.0 196.0,546.0 196.0,563.0 196.0,580.0 196.0,597.0 196.0,614.0 196.0,631.0" style="fill:#C4C4C4;" />
<polygon data-section="Orchestra Far Side F-Q/Orchestra Side R-T/Orchestra Rear Side Accessible/Mezzani" data-priority="4" class="62226" points="488.0,575.0 488.0,592.0 488.0,609.0 488.0,626.0 488.0,643.0 488.0,660.0 488.0,677.0 501.0,674.0 514.0,671.0 527.0,668.0 553.0,661.0 566.0,657.0 579.0,652.0 605.0,626.0 605.0,609.0 605.0,592.0 605.0,575.0 605.0,558.0 579.0,533.0 566.0,521.0 488.0,541.0 488.0,558.0 488.0,575.0" style="fill:#C4C4C4;" />
</g>
<g class="grouped-Orchestra Far Side F-Q/Orchestra Side R-T/Mezzanine Side AA-CC/Mezzanine Center ">
<polygon data-section="Orchestra Far Side F-Q/Orchestra Side R-T/Mezzanine Side AA-CC/Mezzanine Center " data-priority="4" class="62227" points="487.0,412.0 474.0,414.0 474.0,431.0 474.0,448.0 500.0,445.0 513.0,443.0 526.0,441.0 539.0,438.0 552.0,435.0 565.0,431.0 604.0,400.0 604.0,383.0 604.0,366.0 604.0,349.0 604.0,332.0 604.0,315.0 604.0,298.0 591.0,269.0 565.0,227.0 552.0,214.0 539.0,217.0 552.0,265.0 565.0,295.0 513.0,409.0 500.0,411.0 487.0,412.0" style="fill:#C4C4C4;" />
<polygon data-section="Orchestra Far Side F-Q/Orchestra Side R-T/Mezzanine Side AA-CC/Mezzanine Center " data-priority="4" class="62227" points="46.0,331.0 46.0,348.0 46.0,365.0 46.0,382.0 46.0,399.0 85.0,430.0 98.0,434.0 111.0,437.0 124.0,440.0 137.0,442.0 150.0,444.0 163.0,446.0 176.0,448.0 176.0,431.0 176.0,414.0 163.0,412.0 150.0,410.0 137.0,408.0 85.0,294.0 98.0,264.0 111.0,216.0 98.0,213.0 85.0,226.0 59.0,268.0 46.0,297.0 46.0,314.0 46.0,331.0" style="fill:#C4C4C4;" />
<polygon data-section="Orchestra Far Side F-Q/Orchestra Side R-T/Mezzanine Side AA-CC/Mezzanine Center " data-priority="4" class="62227" points="60.0,546.0 86.0,555.0 99.0,559.0 125.0,566.0 138.0,569.0 151.0,572.0 164.0,575.0 164.0,558.0 164.0,541.0 86.0,521.0 73.0,533.0 60.0,546.0" style="fill:#C4C4C4;" />
<polygon data-section="Orchestra Far Side F-Q/Orchestra Side R-T/Mezzanine Side AA-CC/Mezzanine Center " data-priority="4" class="62227" points="488.0,541.0 488.0,558.0 488.0,575.0 501.0,572.0 514.0,569.0 527.0,566.0 553.0,559.0 566.0,555.0 592.0,546.0 579.0,533.0 566.0,521.0 488.0,541.0" style="fill:#C4C4C4;" />
<polygon data-section="Orchestra Far Side F-Q/Orchestra Side R-T/Mezzanine Side AA-CC/Mezzanine Center " data-priority="4" class="62227" points="196.0,614.0 196.0,631.0 196.0,648.0 196.0,665.0 222.0,685.0 235.0,686.0 248.0,687.0 261.0,688.0 274.0,689.0 287.0,690.0 300.0,691.0 313.0,691.0 326.0,691.0 339.0,691.0 352.0,691.0 378.0,690.0 391.0,689.0 404.0,688.0 417.0,687.0 430.0,686.0 456.0,666.0 456.0,649.0 456.0,632.0 456.0,615.0 456.0,598.0 456.0,581.0 456.0,564.0 456.0,547.0 417.0,551.0 404.0,552.0 365.0,554.0 274.0,553.0 261.0,552.0 248.0,551.0 196.0,546.0 196.0,563.0 196.0,580.0 196.0,597.0 196.0,614.0" style="fill:#C4C4C4;" />
</g>
</g></g></svg>