<svg viewbox="0 0 692.0 818.447" xmlns="http://www.w3.org/2000/svg">
<g id="stage">
<rect x="200" y="0" width="292.0" height="100" fill="#222222" />
<text font-size="28px" x="346.0" y="50.0" text-anchor="middle" fill="#ffffff" dominant-baseline="middle">STAGE</text>
</g>
<g transform="translate(0, 100)">
<g class="primary-clusters">
<text x="346.0" y="85" font-size="28px" text-anchor="middle" dominant-baseline="middle">ORCHESTRA</text><text x="346.0" y="458.0" font-size="28px" text-anchor="middle" dominant-baseline="middle">MEZZANINE</text><g class="grouped-orchestra cluster0">
<polygon data-section="orchestra" data-priority="-1" class="n/a" points="60.0,273.0 73.0,346.0 112.0,380.0 125.0,385.0 138.0,389.0 151.0,393.0 164.0,396.0 177.0,399.0 190.0,401.0 203.0,403.0 216.0,405.0 229.0,406.0 229.0,389.0 229.0,372.0 229.0,355.0 229.0,338.0 229.0,321.0 229.0,304.0 229.0,287.0 229.0,270.0 229.0,253.0 229.0,236.0 229.0,219.0 229.0,202.0 229.0,185.0 229.0,168.0 229.0,151.0 229.0,134.0 164.0,124.0 138.0,134.0 99.0,171.0 60.0,239.0 60.0,256.0 60.0,273.0" style="fill:#C4C4C4;" />
</g>
<g class="grouped-orchestra cluster1">
<polygon data-section="orchestra" data-priority="-1" class="n/a" points="261.0,257.0 261.0,274.0 261.0,291.0 261.0,308.0 261.0,325.0 261.0,342.0 261.0,359.0 261.0,376.0 261.0,393.0 261.0,410.0 274.0,411.0 300.0,412.0 326.0,413.0 339.0,413.0 352.0,413.0 365.0,413.0 391.0,412.0 404.0,411.0 430.0,376.0 430.0,359.0 430.0,342.0 430.0,325.0 430.0,308.0 430.0,291.0 430.0,274.0 430.0,257.0 430.0,240.0 430.0,223.0 430.0,206.0 430.0,189.0 430.0,172.0 430.0,155.0 430.0,138.0 404.0,139.0 378.0,140.0 313.0,140.0 287.0,139.0 261.0,138.0 261.0,155.0 261.0,172.0 261.0,189.0 261.0,206.0 261.0,223.0 261.0,240.0 261.0,257.0" style="fill:#C4C4C4;" />
</g>
<g class="grouped-orchestra cluster2">
<polygon data-section="orchestra" data-priority="-1" class="n/a" points="462.0,202.0 462.0,219.0 462.0,236.0 462.0,253.0 462.0,270.0 462.0,287.0 462.0,304.0 462.0,321.0 462.0,338.0 462.0,355.0 462.0,372.0 462.0,389.0 462.0,406.0 475.0,405.0 488.0,404.0 501.0,402.0 514.0,400.0 527.0,397.0 540.0,394.0 553.0,390.0 566.0,386.0 579.0,381.0 618.0,347.0 631.0,274.0 631.0,257.0 631.0,240.0 592.0,172.0 553.0,135.0 527.0,125.0 462.0,134.0 462.0,151.0 462.0,168.0 462.0,185.0 462.0,202.0" style="fill:#C4C4C4;" />
</g>
<g class="grouped-mezzanine cluster0">
<polygon data-section="mezzanine" data-priority="-1" class="n/a" points="60.0,537.0 60.0,554.0 73.0,576.0 125.0,615.0 138.0,619.0 151.0,623.0 164.0,626.0 177.0,629.0 190.0,631.0 203.0,633.0 216.0,635.0 229.0,636.0 229.0,619.0 229.0,603.0 229.0,586.0 229.0,569.0 229.0,553.0 229.0,536.0 229.0,519.0 229.0,502.0 229.0,485.0 203.0,482.0 190.0,480.0 112.0,459.0 86.0,448.0 60.0,453.0 60.0,470.0 60.0,487.0 60.0,504.0 60.0,520.0 60.0,537.0" style="fill:#C4C4C4;" />
</g>
<g class="grouped-mezzanine cluster1">
<polygon data-section="mezzanine" data-priority="-1" class="n/a" points="261.0,574.0 261.0,591.0 261.0,608.0 261.0,642.0 274.0,643.0 300.0,644.0 326.0,645.0 339.0,645.0 352.0,645.0 365.0,645.0 378.0,644.0 404.0,626.0 430.0,574.0 430.0,557.0 430.0,540.0 430.0,523.0 430.0,506.0 430.0,489.0 404.0,490.0 378.0,491.0 287.0,490.0 261.0,489.0 261.0,506.0 261.0,523.0 261.0,540.0 261.0,557.0 261.0,574.0" style="fill:#C4C4C4;" />
</g>
<g class="grouped-mezzanine cluster2">
<polygon data-section="mezzanine" data-priority="-1" class="n/a" points="462.0,519.0 462.0,536.0 462.0,553.0 462.0,570.0 462.0,587.0 462.0,604.0 462.0,621.0 462.0,638.0 475.0,637.0 488.0,636.0 501.0,634.0 514.0,632.0 527.0,629.0 540.0,626.0 553.0,622.0 566.0,618.0 618.0,579.0 631.0,556.0 631.0,539.0 631.0,522.0 631.0,505.0 631.0,488.0 631.0,471.0 631.0,454.0 605.0,449.0 579.0,460.0 553.0,469.0 475.0,484.0 462.0,485.0 462.0,502.0 462.0,519.0" style="fill:#C4C4C4;" />
</g>
</g>
<g class="tour-sections"><g class="grouped-Mezzanine Rows D-K">
<polygon data-section="Mezzanine Rows D-K" data-priority="0" class="52514" points="462.0,553.0 462.0,570.0 462.0,587.0 462.0,604.0 462.0,621.0 462.0,638.0 475.0,637.0 488.0,636.0 501.0,634.0 514.0,632.0 527.0,629.0 540.0,626.0 553.0,622.0 566.0,618.0 618.0,579.0 631.0,556.0 631.0,539.0 631.0,522.0 631.0,505.0 631.0,488.0 618.0,494.0 605.0,500.0 579.0,511.0 553.0,520.0 475.0,535.0 462.0,536.0 462.0,553.0" style="fill:#C4C4C4;" />
<polygon data-section="Mezzanine Rows D-K" data-priority="0" class="52514" points="261.0,608.0 261.0,642.0 274.0,643.0 300.0,644.0 326.0,645.0 339.0,645.0 352.0,645.0 365.0,645.0 378.0,644.0 404.0,626.0 430.0,574.0 430.0,557.0 430.0,540.0 404.0,541.0 378.0,542.0 287.0,541.0 261.0,540.0 261.0,557.0 261.0,574.0 261.0,591.0 261.0,608.0" style="fill:#C4C4C4;" />
<polygon data-section="Mezzanine Rows D-K" data-priority="0" class="52514" points="60.0,537.0 60.0,554.0 73.0,576.0 125.0,615.0 138.0,619.0 151.0,623.0 164.0,626.0 177.0,629.0 190.0,631.0 203.0,633.0 216.0,635.0 229.0,636.0 229.0,619.0 229.0,603.0 229.0,586.0 229.0,569.0 229.0,553.0 229.0,536.0 203.0,533.0 190.0,531.0 112.0,510.0 86.0,499.0 73.0,493.0 60.0,487.0 60.0,504.0 60.0,520.0 60.0,537.0" style="fill:#C4C4C4;" />
</g>
<g class="grouped-Mezzanine Rows A-G">
<polygon data-section="Mezzanine Rows A-G" data-priority="0" class="52686" points="60.0,504.0 60.0,520.0 60.0,537.0 73.0,543.0 86.0,549.0 99.0,555.0 112.0,560.0 125.0,565.0 138.0,569.0 151.0,573.0 164.0,576.0 177.0,579.0 190.0,581.0 203.0,583.0 216.0,585.0 229.0,586.0 229.0,569.0 229.0,553.0 229.0,536.0 229.0,519.0 229.0,502.0 229.0,485.0 203.0,482.0 190.0,480.0 112.0,459.0 86.0,448.0 60.0,453.0 60.0,470.0 60.0,487.0 60.0,504.0" style="fill:#C4C4C4;" />
<polygon data-section="Mezzanine Rows A-G" data-priority="0" class="52686" points="462.0,536.0 462.0,553.0 462.0,570.0 462.0,587.0 475.0,586.0 488.0,585.0 501.0,583.0 514.0,581.0 527.0,578.0 540.0,575.0 553.0,571.0 566.0,567.0 579.0,562.0 592.0,557.0 605.0,551.0 618.0,545.0 631.0,539.0 631.0,522.0 631.0,505.0 631.0,488.0 631.0,471.0 631.0,454.0 605.0,449.0 579.0,460.0 553.0,469.0 475.0,484.0 462.0,485.0 462.0,502.0 462.0,519.0 462.0,536.0" style="fill:#C4C4C4;" />
<polygon data-section="Mezzanine Rows A-G" data-priority="0" class="52686" points="261.0,574.0 261.0,591.0 274.0,592.0 300.0,593.0 326.0,594.0 339.0,594.0 352.0,594.0 365.0,594.0 391.0,593.0 404.0,592.0 430.0,574.0 430.0,557.0 430.0,540.0 430.0,523.0 430.0,506.0 430.0,489.0 404.0,490.0 378.0,491.0 287.0,490.0 261.0,489.0 261.0,506.0 261.0,523.0 261.0,540.0 261.0,557.0 261.0,574.0" style="fill:#C4C4C4;" />
</g>
<g class="grouped-Orchestra Rows L-O">
<polygon data-section="Orchestra Rows L-O" data-priority="0" class="52687" points="86.0,302.0 99.0,307.0 112.0,312.0 125.0,317.0 138.0,321.0 151.0,325.0 164.0,328.0 177.0,331.0 190.0,333.0 203.0,335.0 216.0,337.0 229.0,338.0 229.0,321.0 229.0,304.0 229.0,287.0 203.0,284.0 112.0,261.0 99.0,256.0 73.0,245.0 60.0,239.0 60.0,256.0 60.0,273.0 73.0,296.0 86.0,302.0" style="fill:#C4C4C4;" />
<polygon data-section="Orchestra Rows L-O" data-priority="0" class="52687" points="261.0,342.0 274.0,343.0 300.0,344.0 326.0,345.0 339.0,345.0 352.0,345.0 365.0,345.0 391.0,344.0 417.0,343.0 430.0,342.0 430.0,325.0 430.0,308.0 430.0,291.0 404.0,292.0 378.0,293.0 287.0,292.0 261.0,291.0 261.0,308.0 261.0,325.0 261.0,342.0" style="fill:#C4C4C4;" />
<polygon data-section="Orchestra Rows L-O" data-priority="0" class="52687" points="462.0,304.0 462.0,321.0 462.0,338.0 475.0,337.0 488.0,336.0 501.0,334.0 514.0,332.0 527.0,329.0 540.0,326.0 553.0,322.0 566.0,318.0 579.0,313.0 592.0,308.0 605.0,303.0 618.0,297.0 631.0,274.0 631.0,257.0 631.0,240.0 618.0,246.0 592.0,257.0 579.0,262.0 475.0,286.0 462.0,287.0 462.0,304.0" style="fill:#C4C4C4;" />
</g>
<g class="grouped-Orchestra Rows P-S">
<polygon data-section="Orchestra Rows P-S" data-priority="0" class="57727" points="462.0,372.0 462.0,389.0 462.0,406.0 475.0,405.0 488.0,404.0 501.0,402.0 514.0,400.0 527.0,397.0 540.0,394.0 553.0,390.0 566.0,386.0 579.0,381.0 618.0,347.0 618.0,330.0 618.0,314.0 605.0,319.0 592.0,324.0 501.0,351.0 475.0,354.0 462.0,355.0 462.0,372.0" style="fill:#C4C4C4;" />
<polygon data-section="Orchestra Rows P-S" data-priority="0" class="57727" points="112.0,380.0 125.0,385.0 138.0,389.0 151.0,393.0 164.0,396.0 177.0,399.0 190.0,401.0 203.0,403.0 216.0,405.0 229.0,406.0 229.0,389.0 229.0,372.0 229.0,355.0 203.0,352.0 112.0,329.0 99.0,324.0 73.0,313.0 73.0,329.0 73.0,346.0 112.0,380.0" style="fill:#C4C4C4;" />
<polygon data-section="Orchestra Rows P-S" data-priority="0" class="57727" points="261.0,359.0 261.0,376.0 261.0,393.0 261.0,410.0 274.0,411.0 300.0,412.0 326.0,413.0 339.0,413.0 352.0,413.0 365.0,413.0 391.0,412.0 404.0,411.0 430.0,376.0 430.0,359.0 404.0,360.0 313.0,361.0 287.0,360.0 261.0,359.0" style="fill:#C4C4C4;" />
</g>
<g class="grouped-Orchestra Center Rows P-S">
<polygon data-section="Orchestra Center Rows P-S" data-priority="1" class="57725" points="261.0,376.0 261.0,393.0 261.0,410.0 274.0,411.0 300.0,412.0 326.0,413.0 339.0,413.0 352.0,413.0 365.0,413.0 391.0,412.0 404.0,411.0 430.0,376.0 430.0,359.0 404.0,360.0 378.0,361.0 287.0,360.0 261.0,359.0 261.0,376.0" style="fill:#C4C4C4;" />
</g>
<g class="grouped-Orchestra Far Side Rows C-K">
<polygon data-section="Orchestra Far Side Rows C-K" data-priority="4" class="57724" points="73.0,228.0 86.0,234.0 99.0,239.0 112.0,244.0 125.0,232.0 151.0,155.0 151.0,138.0 138.0,134.0 99.0,171.0 86.0,199.0 73.0,228.0" style="fill:#C4C4C4;" />
<polygon data-section="Orchestra Far Side Rows C-K" data-priority="4" class="57724" points="566.0,233.0 579.0,245.0 592.0,240.0 605.0,234.0 618.0,228.0 605.0,200.0 592.0,172.0 553.0,135.0 540.0,139.0 540.0,156.0 540.0,173.0 566.0,233.0" style="fill:#C4C4C4;" />
</g>
<g class="grouped-Orchestra Far Side Rows C-S Mezzanine Rows D-G">
<polygon data-section="Orchestra Far Side Rows C-S Mezzanine Rows D-G" data-priority="4" class="57726" points="60.0,273.0 73.0,346.0 112.0,380.0 125.0,385.0 138.0,389.0 112.0,312.0 125.0,232.0 151.0,155.0 151.0,138.0 138.0,134.0 99.0,171.0 60.0,239.0 60.0,256.0 60.0,273.0" style="fill:#C4C4C4;" />
<polygon data-section="Orchestra Far Side Rows C-S Mezzanine Rows D-G" data-priority="4" class="57726" points="579.0,313.0 553.0,390.0 566.0,386.0 579.0,381.0 618.0,347.0 631.0,274.0 631.0,257.0 631.0,240.0 592.0,172.0 553.0,135.0 540.0,139.0 540.0,156.0 540.0,173.0 566.0,233.0 579.0,313.0" style="fill:#C4C4C4;" />
<polygon data-section="Orchestra Far Side Rows C-S Mezzanine Rows D-G" data-priority="4" class="57726" points="462.0,553.0 462.0,570.0 462.0,587.0 475.0,586.0 488.0,585.0 501.0,583.0 514.0,581.0 527.0,578.0 540.0,575.0 553.0,571.0 566.0,567.0 579.0,562.0 592.0,557.0 605.0,551.0 618.0,545.0 631.0,539.0 631.0,522.0 631.0,505.0 631.0,488.0 618.0,494.0 605.0,500.0 579.0,511.0 475.0,535.0 462.0,536.0 462.0,553.0" style="fill:#C4C4C4;" />
<polygon data-section="Orchestra Far Side Rows C-S Mezzanine Rows D-G" data-priority="4" class="57726" points="261.0,540.0 261.0,557.0 261.0,574.0 261.0,591.0 274.0,592.0 300.0,593.0 326.0,594.0 339.0,594.0 352.0,594.0 365.0,594.0 391.0,593.0 404.0,592.0 430.0,574.0 430.0,557.0 430.0,540.0 404.0,541.0 313.0,542.0 287.0,541.0 261.0,540.0" style="fill:#C4C4C4;" />
<polygon data-section="Orchestra Far Side Rows C-S Mezzanine Rows D-G" data-priority="4" class="57726" points="60.0,520.0 60.0,537.0 73.0,543.0 86.0,549.0 99.0,555.0 112.0,560.0 125.0,565.0 138.0,569.0 151.0,573.0 164.0,576.0 177.0,579.0 190.0,581.0 203.0,583.0 216.0,585.0 229.0,586.0 229.0,569.0 229.0,553.0 229.0,536.0 203.0,533.0 190.0,531.0 112.0,510.0 86.0,499.0 73.0,493.0 60.0,487.0 60.0,504.0 60.0,520.0" style="fill:#C4C4C4;" />
</g>
<g class="grouped-Orchestra Far Side Rows C-S Mezzanine Center Rows D-G">
<polygon data-section="Orchestra Far Side Rows C-S Mezzanine Center Rows D-G" data-priority="4" class="57728" points="60.0,273.0 73.0,346.0 112.0,380.0 125.0,385.0 138.0,389.0 112.0,312.0 125.0,232.0 151.0,155.0 151.0,138.0 138.0,134.0 99.0,171.0 60.0,239.0 60.0,256.0 60.0,273.0" style="fill:#C4C4C4;" />
<polygon data-section="Orchestra Far Side Rows C-S Mezzanine Center Rows D-G" data-priority="4" class="57728" points="579.0,313.0 553.0,390.0 566.0,386.0 579.0,381.0 618.0,347.0 631.0,274.0 631.0,257.0 631.0,240.0 592.0,172.0 553.0,135.0 540.0,139.0 540.0,156.0 540.0,173.0 566.0,233.0 579.0,313.0" style="fill:#C4C4C4;" />
<polygon data-section="Orchestra Far Side Rows C-S Mezzanine Center Rows D-G" data-priority="4" class="57728" points="261.0,557.0 261.0,574.0 261.0,591.0 274.0,592.0 300.0,593.0 326.0,594.0 339.0,594.0 352.0,594.0 365.0,594.0 391.0,593.0 404.0,592.0 430.0,574.0 430.0,557.0 430.0,540.0 404.0,541.0 378.0,542.0 287.0,541.0 261.0,540.0 261.0,557.0" style="fill:#C4C4C4;" />
</g>
<g class="grouped-Mezzanine Far Side Rows A-C">
<polygon data-section="Mezzanine Far Side Rows A-C" data-priority="4" class="57729" points="73.0,476.0 86.0,482.0 99.0,488.0 125.0,464.0 86.0,448.0 60.0,453.0 60.0,470.0 73.0,476.0" style="fill:#C4C4C4;" />
<polygon data-section="Mezzanine Far Side Rows A-C" data-priority="4" class="57729" points="592.0,489.0 605.0,483.0 618.0,477.0 631.0,471.0 631.0,454.0 605.0,449.0 566.0,465.0 592.0,489.0" style="fill:#C4C4C4;" />
</g>
</g></g></svg>