<svg viewbox="0 0 702.0 902.094" xmlns="http://www.w3.org/2000/svg">
<g id="stage">
<rect x="200" y="0" width="302.0" height="100" fill="#222222" />
<text font-size="28px" x="351.0" y="50.0" text-anchor="middle" fill="#ffffff" dominant-baseline="middle">STAGE</text>
</g>
<g transform="translate(0, 100)">
<g class="primary-clusters">
<text x="351.0" y="85" font-size="28px" text-anchor="middle" dominant-baseline="middle">ORCHESTRA</text><text x="351.0" y="473.0" font-size="28px" text-anchor="middle" dominant-baseline="middle">MEZZANINE</text><g class="grouped-orchestra cluster0">
<polygon data-section="orchestra" data-priority="-1" class="n/a" points="69.0,384.0 95.0,395.0 108.0,400.0 121.0,404.0 210.0,403.0 210.0,386.0 208.0,368.0 205.0,333.0 202.0,299.0 204.0,214.0 211.0,181.0 218.0,148.0 205.0,147.0 192.0,146.0 161.0,158.0 146.0,172.0 81.0,240.0 69.0,251.0 59.0,263.0 49.0,308.0 54.0,361.0 56.0,378.0 69.0,384.0" style="fill:#C4C4C4;" />
</g>
<g class="grouped-orchestra cluster1">
<polygon data-section="orchestra" data-priority="-1" class="n/a" points="236.0,252.0 236.0,269.0 236.0,286.0 242.0,321.0 255.0,408.0 262.0,425.0 275.0,426.0 301.0,427.0 327.0,428.0 340.0,428.0 353.0,428.0 366.0,428.0 392.0,427.0 418.0,426.0 431.0,425.0 437.0,407.0 444.0,356.0 457.0,286.0 457.0,269.0 457.0,252.0 457.0,235.0 444.0,169.0 431.0,136.0 418.0,121.0 405.0,121.0 392.0,121.0 379.0,121.0 314.0,121.0 301.0,121.0 288.0,121.0 275.0,121.0 262.0,136.0 255.0,153.0 249.0,169.0 242.0,202.0 236.0,235.0 236.0,252.0" style="fill:#C4C4C4;" />
</g>
<g class="grouped-orchestra cluster2">
<polygon data-section="orchestra" data-priority="-1" class="n/a" points="488.0,333.0 485.0,368.0 483.0,386.0 481.0,420.0 494.0,419.0 507.0,418.0 520.0,416.0 533.0,414.0 546.0,411.0 559.0,408.0 572.0,404.0 585.0,400.0 598.0,395.0 624.0,384.0 637.0,378.0 639.0,361.0 644.0,308.0 644.0,291.0 634.0,263.0 624.0,251.0 612.0,240.0 547.0,172.0 532.0,158.0 501.0,146.0 488.0,147.0 475.0,148.0 482.0,181.0 489.0,214.0 491.0,299.0 488.0,333.0" style="fill:#C4C4C4;" />
</g>
<g class="grouped-mezzanine cluster0">
<polygon data-section="mezzanine" data-priority="-1" class="n/a" points="35.0,590.0 35.0,607.0 48.0,613.0 61.0,619.0 61.0,602.0 61.0,585.0 61.0,568.0 35.0,555.0 35.0,573.0 35.0,590.0" style="fill:#C4C4C4;" />
</g>
<g class="grouped-mezzanine cluster1">
<polygon data-section="mezzanine" data-priority="-1" class="n/a" points="87.0,632.0 100.0,638.0 113.0,643.0 126.0,648.0 139.0,652.0 152.0,656.0 165.0,659.0 178.0,662.0 191.0,664.0 204.0,666.0 217.0,668.0 230.0,669.0 230.0,652.0 230.0,635.0 230.0,618.0 230.0,601.0 230.0,584.0 204.0,581.0 191.0,579.0 113.0,558.0 87.0,547.0 87.0,564.0 87.0,581.0 87.0,598.0 87.0,615.0 87.0,632.0" style="fill:#C4C4C4;" />
</g>
<g class="grouped-mezzanine cluster2">
<polygon data-section="mezzanine" data-priority="-1" class="n/a" points="74.0,514.0 87.0,520.0 100.0,526.0 113.0,531.0 126.0,536.0 139.0,540.0 152.0,544.0 165.0,547.0 178.0,550.0 191.0,552.0 204.0,554.0 217.0,556.0 230.0,557.0 230.0,540.0 230.0,523.0 230.0,506.0 204.0,503.0 191.0,501.0 113.0,480.0 87.0,469.0 61.0,456.0 61.0,473.0 61.0,490.0 61.0,507.0 74.0,514.0" style="fill:#C4C4C4;" />
</g>
<g class="grouped-mezzanine cluster3">
<polygon data-section="mezzanine" data-priority="-1" class="n/a" points="262.0,622.0 262.0,639.0 262.0,656.0 262.0,673.0 275.0,674.0 301.0,675.0 327.0,676.0 340.0,676.0 353.0,676.0 366.0,676.0 392.0,675.0 418.0,674.0 431.0,673.0 431.0,656.0 431.0,639.0 431.0,622.0 431.0,605.0 431.0,588.0 405.0,589.0 379.0,590.0 288.0,589.0 262.0,588.0 262.0,605.0 262.0,622.0" style="fill:#C4C4C4;" />
</g>
<g class="grouped-mezzanine cluster4">
<polygon data-section="mezzanine" data-priority="-1" class="n/a" points="262.0,561.0 275.0,562.0 301.0,563.0 327.0,564.0 340.0,564.0 353.0,564.0 366.0,564.0 392.0,563.0 418.0,562.0 431.0,561.0 431.0,544.0 431.0,527.0 431.0,510.0 405.0,511.0 379.0,512.0 288.0,511.0 262.0,510.0 262.0,527.0 262.0,544.0 262.0,561.0" style="fill:#C4C4C4;" />
</g>
<g class="grouped-mezzanine cluster5">
<polygon data-section="mezzanine" data-priority="-1" class="n/a" points="463.0,652.0 463.0,669.0 476.0,668.0 489.0,666.0 502.0,664.0 515.0,662.0 528.0,659.0 541.0,656.0 554.0,652.0 567.0,648.0 580.0,643.0 593.0,638.0 606.0,632.0 606.0,615.0 606.0,598.0 606.0,581.0 606.0,564.0 606.0,547.0 580.0,558.0 502.0,579.0 489.0,581.0 463.0,584.0 463.0,601.0 463.0,618.0 463.0,635.0 463.0,652.0" style="fill:#C4C4C4;" />
</g>
<g class="grouped-mezzanine cluster6">
<polygon data-section="mezzanine" data-priority="-1" class="n/a" points="632.0,585.0 632.0,602.0 632.0,619.0 645.0,613.0 658.0,607.0 658.0,590.0 658.0,573.0 658.0,556.0 645.0,562.0 632.0,568.0 632.0,585.0" style="fill:#C4C4C4;" />
</g>
<g class="grouped-mezzanine cluster7">
<polygon data-section="mezzanine" data-priority="-1" class="n/a" points="463.0,506.0 463.0,523.0 463.0,540.0 463.0,557.0 476.0,556.0 489.0,554.0 502.0,552.0 515.0,550.0 528.0,547.0 541.0,544.0 554.0,540.0 567.0,536.0 580.0,531.0 593.0,526.0 606.0,520.0 619.0,514.0 632.0,507.0 632.0,490.0 632.0,473.0 632.0,456.0 606.0,469.0 580.0,480.0 502.0,501.0 489.0,503.0 463.0,506.0" style="fill:#C4C4C4;" />
</g>
</g>
<g class="tour-sections"><g class="grouped-Orchestra Rows O-R">
<polygon data-section="Orchestra Rows O-R" data-priority="0" class="54115" points="275.0,426.0 301.0,427.0 327.0,428.0 340.0,428.0 353.0,428.0 366.0,428.0 392.0,427.0 418.0,426.0 431.0,425.0 437.0,407.0 437.0,390.0 411.0,391.0 307.0,393.0 281.0,392.0 255.0,391.0 255.0,408.0 262.0,425.0 275.0,426.0" style="fill:#C4C4C4;" />
<polygon data-section="Orchestra Rows O-R" data-priority="0" class="54115" points="481.0,420.0 494.0,419.0 507.0,418.0 520.0,416.0 533.0,414.0 546.0,411.0 559.0,408.0 572.0,404.0 585.0,400.0 598.0,395.0 624.0,384.0 637.0,378.0 639.0,361.0 639.0,344.0 613.0,355.0 522.0,382.0 496.0,385.0 483.0,386.0 481.0,420.0" style="fill:#C4C4C4;" />
<polygon data-section="Orchestra Rows O-R" data-priority="0" class="54115" points="56.0,378.0 69.0,384.0 95.0,395.0 108.0,400.0 121.0,404.0 210.0,403.0 210.0,386.0 197.0,385.0 80.0,355.0 54.0,344.0 54.0,361.0 56.0,378.0" style="fill:#C4C4C4;" />
</g>
<g class="grouped-Orchestra Rows AA-N">
<polygon data-section="Orchestra Rows AA-N" data-priority="0" class="58495" points="236.0,286.0 242.0,321.0 249.0,356.0 255.0,374.0 268.0,375.0 294.0,376.0 320.0,377.0 333.0,377.0 346.0,377.0 359.0,377.0 372.0,377.0 424.0,374.0 437.0,373.0 444.0,356.0 457.0,286.0 457.0,269.0 457.0,252.0 457.0,235.0 444.0,169.0 431.0,136.0 418.0,121.0 405.0,121.0 392.0,121.0 379.0,121.0 314.0,121.0 301.0,121.0 288.0,121.0 275.0,121.0 262.0,136.0 255.0,153.0 249.0,169.0 242.0,202.0 236.0,235.0 236.0,252.0 236.0,269.0 236.0,286.0" style="fill:#C4C4C4;" />
<polygon data-section="Orchestra Rows AA-N" data-priority="0" class="58495" points="491.0,299.0 488.0,333.0 485.0,368.0 498.0,367.0 511.0,366.0 524.0,364.0 537.0,362.0 550.0,359.0 563.0,356.0 576.0,352.0 589.0,348.0 602.0,343.0 628.0,332.0 641.0,326.0 644.0,308.0 644.0,291.0 634.0,263.0 624.0,251.0 612.0,240.0 547.0,172.0 532.0,158.0 501.0,146.0 488.0,147.0 475.0,148.0 482.0,181.0 489.0,214.0 491.0,299.0" style="fill:#C4C4C4;" />
<polygon data-section="Orchestra Rows AA-N" data-priority="0" class="58495" points="65.0,332.0 91.0,343.0 104.0,348.0 117.0,352.0 130.0,356.0 143.0,359.0 156.0,362.0 169.0,364.0 182.0,366.0 195.0,367.0 208.0,368.0 205.0,333.0 202.0,299.0 204.0,214.0 211.0,181.0 218.0,148.0 205.0,147.0 192.0,146.0 161.0,158.0 146.0,172.0 81.0,240.0 69.0,251.0 59.0,263.0 49.0,308.0 52.0,326.0 65.0,332.0" style="fill:#C4C4C4;" />
</g>
<g class="grouped-Orchestra Rows L-N">
<polygon data-section="Orchestra Rows L-N" data-priority="0" class="58780" points="65.0,332.0 91.0,343.0 104.0,348.0 117.0,352.0 130.0,356.0 143.0,359.0 156.0,362.0 169.0,364.0 182.0,366.0 195.0,367.0 208.0,368.0 205.0,333.0 192.0,332.0 166.0,329.0 75.0,302.0 62.0,297.0 49.0,308.0 52.0,326.0 65.0,332.0" style="fill:#C4C4C4;" />
<polygon data-section="Orchestra Rows L-N" data-priority="0" class="58780" points="268.0,375.0 294.0,376.0 320.0,377.0 333.0,377.0 346.0,377.0 359.0,377.0 372.0,377.0 424.0,374.0 437.0,373.0 444.0,356.0 444.0,339.0 405.0,341.0 314.0,342.0 288.0,341.0 249.0,339.0 249.0,356.0 255.0,374.0 268.0,375.0" style="fill:#C4C4C4;" />
<polygon data-section="Orchestra Rows L-N" data-priority="0" class="58780" points="485.0,368.0 498.0,367.0 511.0,366.0 524.0,364.0 537.0,362.0 550.0,359.0 563.0,356.0 576.0,352.0 589.0,348.0 602.0,343.0 628.0,332.0 641.0,326.0 644.0,308.0 644.0,291.0 618.0,302.0 527.0,329.0 501.0,332.0 488.0,333.0 485.0,368.0" style="fill:#C4C4C4;" />
</g>
<g class="grouped-Mezzanine Rows G-K">
<polygon data-section="Mezzanine Rows G-K" data-priority="0" class="59048" points="87.0,598.0 87.0,615.0 87.0,632.0 100.0,638.0 113.0,643.0 126.0,648.0 139.0,652.0 152.0,656.0 165.0,659.0 178.0,662.0 191.0,664.0 204.0,666.0 217.0,668.0 230.0,669.0 230.0,652.0 230.0,635.0 230.0,618.0 204.0,615.0 191.0,613.0 113.0,592.0 87.0,581.0 87.0,598.0" style="fill:#C4C4C4;" />
<polygon data-section="Mezzanine Rows G-K" data-priority="0" class="59048" points="463.0,669.0 476.0,668.0 489.0,666.0 502.0,664.0 515.0,662.0 528.0,659.0 541.0,656.0 554.0,652.0 567.0,648.0 580.0,643.0 593.0,638.0 606.0,632.0 606.0,615.0 606.0,598.0 606.0,581.0 580.0,592.0 502.0,613.0 489.0,615.0 463.0,618.0 463.0,635.0 463.0,652.0 463.0,669.0" style="fill:#C4C4C4;" />
<polygon data-section="Mezzanine Rows G-K" data-priority="0" class="59048" points="275.0,674.0 301.0,675.0 327.0,676.0 340.0,676.0 353.0,676.0 366.0,676.0 392.0,675.0 418.0,674.0 431.0,673.0 431.0,656.0 431.0,639.0 431.0,622.0 405.0,623.0 314.0,624.0 288.0,623.0 262.0,622.0 262.0,639.0 262.0,656.0 262.0,673.0 275.0,674.0" style="fill:#C4C4C4;" />
<polygon data-section="Mezzanine Rows G-K" data-priority="0" class="59048" points="632.0,602.0 632.0,619.0 645.0,613.0 658.0,607.0 658.0,590.0 658.0,573.0 658.0,556.0 645.0,562.0 632.0,568.0 632.0,585.0 632.0,602.0" style="fill:#C4C4C4;" />
<polygon data-section="Mezzanine Rows G-K" data-priority="0" class="59048" points="35.0,573.0 35.0,590.0 35.0,607.0 48.0,613.0 61.0,619.0 61.0,602.0 61.0,585.0 61.0,568.0 35.0,555.0 35.0,573.0" style="fill:#C4C4C4;" />
</g>
<g class="grouped-Orchestra Rows AA-K">
<polygon data-section="Orchestra Rows AA-K" data-priority="0" class="59527" points="491.0,299.0 491.0,316.0 504.0,315.0 517.0,314.0 530.0,312.0 543.0,310.0 556.0,307.0 569.0,304.0 582.0,300.0 595.0,296.0 608.0,291.0 634.0,280.0 634.0,263.0 624.0,251.0 612.0,240.0 547.0,172.0 532.0,158.0 501.0,146.0 488.0,147.0 475.0,148.0 482.0,181.0 489.0,214.0 491.0,299.0" style="fill:#C4C4C4;" />
<polygon data-section="Orchestra Rows AA-K" data-priority="0" class="59527" points="236.0,269.0 236.0,286.0 242.0,321.0 255.0,323.0 268.0,324.0 294.0,325.0 320.0,326.0 333.0,326.0 346.0,326.0 359.0,326.0 372.0,326.0 424.0,323.0 437.0,322.0 450.0,320.0 457.0,286.0 457.0,269.0 457.0,252.0 457.0,235.0 444.0,169.0 431.0,136.0 418.0,121.0 405.0,121.0 392.0,121.0 379.0,121.0 314.0,121.0 301.0,121.0 288.0,121.0 275.0,121.0 262.0,136.0 255.0,153.0 249.0,169.0 242.0,202.0 236.0,235.0 236.0,252.0 236.0,269.0" style="fill:#C4C4C4;" />
<polygon data-section="Orchestra Rows AA-K" data-priority="0" class="59527" points="59.0,280.0 85.0,291.0 98.0,296.0 111.0,300.0 124.0,304.0 137.0,307.0 150.0,310.0 163.0,312.0 176.0,314.0 189.0,315.0 202.0,316.0 202.0,299.0 204.0,214.0 211.0,181.0 218.0,148.0 205.0,147.0 192.0,146.0 161.0,158.0 146.0,172.0 81.0,240.0 69.0,251.0 59.0,263.0 59.0,280.0" style="fill:#C4C4C4;" />
</g>
<g class="grouped-Mezzanine Center Rows E-G">
<polygon data-section="Mezzanine Center Rows E-G" data-priority="1" class="56889" points="275.0,623.0 301.0,624.0 327.0,625.0 340.0,625.0 353.0,625.0 366.0,625.0 392.0,624.0 418.0,623.0 431.0,622.0 431.0,605.0 431.0,588.0 405.0,589.0 314.0,590.0 288.0,589.0 262.0,588.0 262.0,605.0 262.0,622.0 275.0,623.0" style="fill:#C4C4C4;" />
</g>
<g class="grouped-Mezzanine Center Rows A-D">
<polygon data-section="Mezzanine Center Rows A-D" data-priority="1" class="59299" points="275.0,562.0 301.0,563.0 327.0,564.0 340.0,564.0 353.0,564.0 366.0,564.0 392.0,563.0 418.0,562.0 431.0,561.0 431.0,544.0 431.0,527.0 431.0,510.0 405.0,511.0 314.0,512.0 288.0,511.0 262.0,510.0 262.0,527.0 262.0,544.0 262.0,561.0 275.0,562.0" style="fill:#C4C4C4;" />
</g>
<g class="grouped-Orchestra Rows O-R Mezzanine Center Rows E-G">
<polygon data-section="Orchestra Rows O-R Mezzanine Center Rows E-G" data-priority="1" class="60768" points="275.0,426.0 301.0,427.0 327.0,428.0 340.0,428.0 353.0,428.0 366.0,428.0 392.0,427.0 418.0,426.0 431.0,425.0 437.0,407.0 437.0,390.0 411.0,391.0 307.0,393.0 281.0,392.0 255.0,391.0 255.0,408.0 262.0,425.0 275.0,426.0" style="fill:#C4C4C4;" />
<polygon data-section="Orchestra Rows O-R Mezzanine Center Rows E-G" data-priority="1" class="60768" points="481.0,420.0 494.0,419.0 507.0,418.0 520.0,416.0 533.0,414.0 546.0,411.0 559.0,408.0 572.0,404.0 585.0,400.0 598.0,395.0 624.0,384.0 637.0,378.0 639.0,361.0 639.0,344.0 613.0,355.0 522.0,382.0 496.0,385.0 483.0,386.0 481.0,420.0" style="fill:#C4C4C4;" />
<polygon data-section="Orchestra Rows O-R Mezzanine Center Rows E-G" data-priority="1" class="60768" points="56.0,378.0 69.0,384.0 95.0,395.0 108.0,400.0 121.0,404.0 210.0,403.0 210.0,386.0 197.0,385.0 80.0,355.0 54.0,344.0 54.0,361.0 56.0,378.0" style="fill:#C4C4C4;" />
<polygon data-section="Orchestra Rows O-R Mezzanine Center Rows E-G" data-priority="1" class="60768" points="275.0,623.0 301.0,624.0 327.0,625.0 340.0,625.0 353.0,625.0 366.0,625.0 392.0,624.0 418.0,623.0 431.0,622.0 431.0,605.0 431.0,588.0 405.0,589.0 314.0,590.0 288.0,589.0 262.0,588.0 262.0,605.0 262.0,622.0 275.0,623.0" style="fill:#C4C4C4;" />
</g>
<g class="grouped-Premium Seats">
<polygon data-section="Premium Seats" data-priority="2" class="54111" points="242.0,202.0 236.0,235.0 249.0,237.0 262.0,238.0 275.0,239.0 301.0,240.0 327.0,241.0 340.0,241.0 353.0,241.0 366.0,241.0 392.0,240.0 418.0,239.0 431.0,238.0 444.0,237.0 457.0,235.0 444.0,169.0 431.0,136.0 418.0,121.0 405.0,121.0 392.0,121.0 379.0,121.0 314.0,121.0 301.0,121.0 288.0,121.0 275.0,121.0 262.0,136.0 255.0,153.0 249.0,169.0 242.0,202.0" style="fill:#C4C4C4;" />
</g>
<g class="grouped-Orchestra Center Rows O-R, Side Rows O-R">
<polygon data-section="Orchestra Center Rows O-R, Side Rows O-R" data-priority="2" class="54114" points="275.0,426.0 301.0,427.0 327.0,428.0 340.0,428.0 353.0,428.0 366.0,428.0 392.0,427.0 418.0,426.0 431.0,425.0 437.0,407.0 437.0,390.0 411.0,391.0 307.0,393.0 281.0,392.0 255.0,391.0 255.0,408.0 262.0,425.0 275.0,426.0" style="fill:#C4C4C4;" />
<polygon data-section="Orchestra Center Rows O-R, Side Rows O-R" data-priority="2" class="54114" points="69.0,384.0 95.0,395.0 108.0,400.0 121.0,404.0 210.0,403.0 210.0,386.0 197.0,385.0 80.0,355.0 54.0,344.0 54.0,361.0 56.0,378.0 69.0,384.0" style="fill:#C4C4C4;" />
<polygon data-section="Orchestra Center Rows O-R, Side Rows O-R" data-priority="2" class="54114" points="481.0,420.0 494.0,419.0 507.0,418.0 520.0,416.0 533.0,414.0 546.0,411.0 559.0,408.0 572.0,404.0 585.0,400.0 598.0,395.0 624.0,384.0 637.0,378.0 639.0,361.0 639.0,344.0 613.0,355.0 522.0,382.0 496.0,385.0 483.0,386.0 481.0,420.0" style="fill:#C4C4C4;" />
</g>
<g class="grouped-Mezzanine Side Rows A-G">
<polygon data-section="Mezzanine Side Rows A-G" data-priority="2" class="56891" points="463.0,523.0 463.0,540.0 463.0,557.0 476.0,556.0 489.0,554.0 502.0,552.0 515.0,550.0 528.0,547.0 541.0,544.0 554.0,540.0 567.0,536.0 580.0,531.0 593.0,526.0 606.0,520.0 619.0,514.0 632.0,507.0 632.0,490.0 632.0,473.0 632.0,456.0 606.0,469.0 580.0,480.0 502.0,501.0 489.0,503.0 463.0,506.0 463.0,523.0" style="fill:#C4C4C4;" />
<polygon data-section="Mezzanine Side Rows A-G" data-priority="2" class="56891" points="74.0,514.0 87.0,520.0 100.0,526.0 113.0,531.0 126.0,536.0 139.0,540.0 152.0,544.0 165.0,547.0 178.0,550.0 191.0,552.0 204.0,554.0 217.0,556.0 230.0,557.0 230.0,540.0 230.0,523.0 230.0,506.0 204.0,503.0 191.0,501.0 113.0,480.0 87.0,469.0 61.0,456.0 61.0,473.0 61.0,490.0 61.0,507.0 74.0,514.0" style="fill:#C4C4C4;" />
<polygon data-section="Mezzanine Side Rows A-G" data-priority="2" class="56891" points="463.0,601.0 476.0,617.0 489.0,615.0 502.0,613.0 515.0,611.0 528.0,608.0 541.0,605.0 554.0,601.0 567.0,597.0 580.0,592.0 593.0,587.0 606.0,581.0 606.0,564.0 606.0,547.0 580.0,558.0 502.0,579.0 489.0,581.0 463.0,584.0 463.0,601.0" style="fill:#C4C4C4;" />
<polygon data-section="Mezzanine Side Rows A-G" data-priority="2" class="56891" points="100.0,587.0 113.0,592.0 126.0,597.0 139.0,601.0 152.0,605.0 165.0,608.0 178.0,611.0 191.0,613.0 204.0,615.0 217.0,617.0 230.0,601.0 230.0,584.0 204.0,581.0 191.0,579.0 113.0,558.0 87.0,547.0 87.0,564.0 87.0,581.0 100.0,587.0" style="fill:#C4C4C4;" />
</g>
<g class="grouped-Mezzanine Side Rows A-D">
<polygon data-section="Mezzanine Side Rows A-D" data-priority="2" class="56894" points="463.0,506.0 463.0,523.0 463.0,540.0 463.0,557.0 476.0,556.0 489.0,554.0 502.0,552.0 515.0,550.0 528.0,547.0 541.0,544.0 554.0,540.0 567.0,536.0 580.0,531.0 593.0,526.0 606.0,520.0 619.0,514.0 632.0,507.0 632.0,490.0 632.0,473.0 632.0,456.0 606.0,469.0 580.0,480.0 502.0,501.0 489.0,503.0 463.0,506.0" style="fill:#C4C4C4;" />
<polygon data-section="Mezzanine Side Rows A-D" data-priority="2" class="56894" points="74.0,514.0 87.0,520.0 100.0,526.0 113.0,531.0 126.0,536.0 139.0,540.0 152.0,544.0 165.0,547.0 178.0,550.0 191.0,552.0 204.0,554.0 217.0,556.0 230.0,557.0 230.0,540.0 230.0,523.0 230.0,506.0 204.0,503.0 191.0,501.0 113.0,480.0 87.0,469.0 61.0,456.0 61.0,473.0 61.0,490.0 61.0,507.0 74.0,514.0" style="fill:#C4C4C4;" />
</g>
<g class="grouped-Mezzanine Center Rows H-K, Side Rows H-J">
<polygon data-section="Mezzanine Center Rows H-K, Side Rows H-J" data-priority="2" class="57845" points="275.0,674.0 301.0,675.0 327.0,676.0 340.0,676.0 353.0,676.0 366.0,676.0 392.0,675.0 418.0,674.0 431.0,673.0 431.0,656.0 431.0,639.0 405.0,640.0 314.0,641.0 288.0,640.0 262.0,639.0 262.0,656.0 262.0,673.0 275.0,674.0" style="fill:#C4C4C4;" />
<polygon data-section="Mezzanine Center Rows H-K, Side Rows H-J" data-priority="2" class="57845" points="126.0,631.0 230.0,669.0 230.0,652.0 230.0,635.0 87.0,598.0 87.0,615.0 100.0,621.0 113.0,626.0 126.0,631.0" style="fill:#C4C4C4;" />
<polygon data-section="Mezzanine Center Rows H-K, Side Rows H-J" data-priority="2" class="57845" points="463.0,652.0 463.0,669.0 567.0,631.0 580.0,626.0 593.0,621.0 606.0,615.0 606.0,598.0 463.0,635.0 463.0,652.0" style="fill:#C4C4C4;" />
<polygon data-section="Mezzanine Center Rows H-K, Side Rows H-J" data-priority="2" class="57845" points="658.0,573.0 645.0,579.0 632.0,585.0 632.0,602.0 645.0,596.0 658.0,590.0 658.0,573.0" style="fill:#C4C4C4;" />
<polygon data-section="Mezzanine Center Rows H-K, Side Rows H-J" data-priority="2" class="57845" points="35.0,590.0 48.0,596.0 61.0,602.0 61.0,585.0 35.0,573.0 35.0,590.0" style="fill:#C4C4C4;" />
</g>
<g class="grouped-Mezzanine Side Rows E-G">
<polygon data-section="Mezzanine Side Rows E-G" data-priority="2" class="58497" points="463.0,601.0 476.0,617.0 489.0,615.0 502.0,613.0 515.0,611.0 528.0,608.0 541.0,605.0 554.0,601.0 567.0,597.0 580.0,592.0 593.0,587.0 606.0,581.0 606.0,564.0 606.0,547.0 580.0,558.0 502.0,579.0 489.0,581.0 463.0,584.0 463.0,601.0" style="fill:#C4C4C4;" />
<polygon data-section="Mezzanine Side Rows E-G" data-priority="2" class="58497" points="87.0,564.0 87.0,581.0 100.0,587.0 113.0,592.0 126.0,597.0 139.0,601.0 152.0,605.0 165.0,608.0 178.0,611.0 191.0,613.0 204.0,615.0 217.0,617.0 230.0,601.0 230.0,584.0 204.0,581.0 191.0,579.0 113.0,558.0 87.0,547.0 87.0,564.0" style="fill:#C4C4C4;" />
</g>
<g class="grouped-Orchestra Center Rows AA-K, Side Rows BB-K">
<polygon data-section="Orchestra Center Rows AA-K, Side Rows BB-K" data-priority="2" class="59298" points="236.0,286.0 242.0,321.0 255.0,323.0 268.0,324.0 294.0,325.0 320.0,326.0 333.0,326.0 346.0,326.0 359.0,326.0 372.0,326.0 424.0,323.0 437.0,322.0 450.0,320.0 457.0,286.0 457.0,269.0 457.0,252.0 457.0,235.0 444.0,169.0 431.0,136.0 418.0,121.0 405.0,121.0 392.0,121.0 379.0,121.0 314.0,121.0 301.0,121.0 288.0,121.0 275.0,121.0 262.0,136.0 255.0,153.0 249.0,169.0 242.0,202.0 236.0,235.0 236.0,252.0 236.0,269.0 236.0,286.0" style="fill:#C4C4C4;" />
<polygon data-section="Orchestra Center Rows AA-K, Side Rows BB-K" data-priority="2" class="59298" points="59.0,280.0 85.0,291.0 98.0,296.0 111.0,300.0 124.0,304.0 137.0,307.0 150.0,310.0 163.0,312.0 176.0,314.0 189.0,315.0 202.0,316.0 202.0,299.0 204.0,214.0 211.0,181.0 218.0,148.0 205.0,147.0 192.0,146.0 161.0,158.0 146.0,172.0 81.0,240.0 69.0,251.0 59.0,263.0 59.0,280.0" style="fill:#C4C4C4;" />
<polygon data-section="Orchestra Center Rows AA-K, Side Rows BB-K" data-priority="2" class="59298" points="489.0,214.0 491.0,299.0 491.0,316.0 504.0,315.0 517.0,314.0 530.0,312.0 543.0,310.0 556.0,307.0 569.0,304.0 582.0,300.0 595.0,296.0 608.0,291.0 634.0,280.0 634.0,263.0 624.0,251.0 612.0,240.0 547.0,172.0 532.0,158.0 501.0,146.0 488.0,147.0 475.0,148.0 482.0,181.0 489.0,214.0" style="fill:#C4C4C4;" />
</g>
<g class="grouped-Orchestra Center Rows L-N, Side Rows L-N">
<polygon data-section="Orchestra Center Rows L-N, Side Rows L-N" data-priority="2" class="59300" points="268.0,375.0 294.0,376.0 320.0,377.0 333.0,377.0 346.0,377.0 359.0,377.0 372.0,377.0 424.0,374.0 437.0,373.0 444.0,356.0 444.0,339.0 405.0,341.0 314.0,342.0 288.0,341.0 249.0,339.0 249.0,356.0 255.0,374.0 268.0,375.0" style="fill:#C4C4C4;" />
<polygon data-section="Orchestra Center Rows L-N, Side Rows L-N" data-priority="2" class="59300" points="65.0,332.0 91.0,343.0 104.0,348.0 117.0,352.0 130.0,356.0 143.0,359.0 156.0,362.0 169.0,364.0 182.0,366.0 195.0,367.0 208.0,368.0 205.0,333.0 192.0,332.0 166.0,329.0 75.0,302.0 62.0,297.0 49.0,308.0 52.0,326.0 65.0,332.0" style="fill:#C4C4C4;" />
<polygon data-section="Orchestra Center Rows L-N, Side Rows L-N" data-priority="2" class="59300" points="485.0,368.0 498.0,367.0 511.0,366.0 524.0,364.0 537.0,362.0 550.0,359.0 563.0,356.0 576.0,352.0 589.0,348.0 602.0,343.0 628.0,332.0 641.0,326.0 644.0,308.0 644.0,291.0 618.0,302.0 527.0,329.0 501.0,332.0 488.0,333.0 485.0,368.0" style="fill:#C4C4C4;" />
</g>
<g class="grouped-Orchestra Far Side Rows O-R">
<polygon data-section="Orchestra Far Side Rows O-R" data-priority="4" class="54106" points="54.0,361.0 56.0,378.0 69.0,384.0 93.0,378.0 93.0,361.0 80.0,355.0 54.0,344.0 54.0,361.0" style="fill:#C4C4C4;" />
<polygon data-section="Orchestra Far Side Rows O-R" data-priority="4" class="54106" points="598.0,395.0 624.0,384.0 637.0,378.0 639.0,361.0 639.0,344.0 613.0,355.0 600.0,361.0 598.0,395.0" style="fill:#C4C4C4;" />
</g>
<g class="grouped-Orchestra Far Side Rows L-N">
<polygon data-section="Orchestra Far Side Rows L-N" data-priority="4" class="54108" points="605.0,308.0 602.0,343.0 628.0,332.0 641.0,326.0 644.0,308.0 644.0,291.0 618.0,302.0 605.0,308.0" style="fill:#C4C4C4;" />
<polygon data-section="Orchestra Far Side Rows L-N" data-priority="4" class="54108" points="62.0,297.0 49.0,308.0 52.0,326.0 65.0,332.0 91.0,343.0 101.0,313.0 75.0,302.0 62.0,297.0" style="fill:#C4C4C4;" />
</g>
<g class="grouped-Orchestra Far Side Rows L-R">
<polygon data-section="Orchestra Far Side Rows L-R" data-priority="4" class="54112" points="56.0,378.0 69.0,384.0 93.0,378.0 101.0,313.0 75.0,302.0 62.0,297.0 49.0,308.0 54.0,361.0 56.0,378.0" style="fill:#C4C4C4;" />
<polygon data-section="Orchestra Far Side Rows L-R" data-priority="4" class="54112" points="605.0,308.0 600.0,361.0 598.0,395.0 624.0,384.0 637.0,378.0 639.0,361.0 644.0,308.0 644.0,291.0 618.0,302.0 605.0,308.0" style="fill:#C4C4C4;" />
</g>
<g class="grouped-Orchestra Far Side Rows E-K">
<polygon data-section="Orchestra Far Side Rows E-K" data-priority="4" class="54116" points="567.0,202.0 554.0,205.0 595.0,296.0 608.0,291.0 634.0,280.0 634.0,263.0 624.0,251.0 586.0,215.0 567.0,202.0" style="fill:#C4C4C4;" />
<polygon data-section="Orchestra Far Side Rows E-K" data-priority="4" class="54116" points="59.0,280.0 85.0,291.0 98.0,296.0 139.0,205.0 126.0,202.0 107.0,215.0 69.0,251.0 59.0,263.0 59.0,280.0" style="fill:#C4C4C4;" />
</g>
<g class="grouped-Mezzanine Far Side Rows E-G">
<polygon data-section="Mezzanine Far Side Rows E-G" data-priority="4" class="56890" points="87.0,564.0 87.0,581.0 126.0,580.0 126.0,563.0 87.0,547.0 87.0,564.0" style="fill:#C4C4C4;" />
<polygon data-section="Mezzanine Far Side Rows E-G" data-priority="4" class="56890" points="567.0,563.0 567.0,580.0 606.0,581.0 606.0,564.0 606.0,547.0 567.0,563.0" style="fill:#C4C4C4;" />
</g>
<g class="grouped-Orchestra Far Side Rows O-R Mezzanine Far Side Rows E-G">
<polygon data-section="Orchestra Far Side Rows O-R Mezzanine Far Side Rows E-G" data-priority="4" class="56892" points="54.0,361.0 56.0,378.0 69.0,384.0 93.0,378.0 93.0,361.0 80.0,355.0 54.0,344.0 54.0,361.0" style="fill:#C4C4C4;" />
<polygon data-section="Orchestra Far Side Rows O-R Mezzanine Far Side Rows E-G" data-priority="4" class="56892" points="598.0,395.0 624.0,384.0 637.0,378.0 639.0,361.0 639.0,344.0 613.0,355.0 600.0,361.0 598.0,395.0" style="fill:#C4C4C4;" />
<polygon data-section="Orchestra Far Side Rows O-R Mezzanine Far Side Rows E-G" data-priority="4" class="56892" points="87.0,564.0 87.0,581.0 126.0,580.0 126.0,563.0 87.0,547.0 87.0,564.0" style="fill:#C4C4C4;" />
<polygon data-section="Orchestra Far Side Rows O-R Mezzanine Far Side Rows E-G" data-priority="4" class="56892" points="567.0,563.0 567.0,580.0 606.0,581.0 606.0,564.0 606.0,547.0 567.0,563.0" style="fill:#C4C4C4;" />
</g>
<g class="grouped- Mezzanine Far Side Rows A-D">
<polygon data-section=" Mezzanine Far Side Rows A-D" data-priority="4" class="58496" points="61.0,456.0 61.0,473.0 61.0,490.0 61.0,507.0 74.0,514.0 87.0,520.0 100.0,526.0 100.0,509.0 100.0,492.0 100.0,475.0 61.0,456.0" style="fill:#C4C4C4;" />
<polygon data-section=" Mezzanine Far Side Rows A-D" data-priority="4" class="58496" points="593.0,492.0 593.0,509.0 593.0,526.0 606.0,520.0 619.0,514.0 632.0,507.0 632.0,490.0 632.0,473.0 632.0,456.0 593.0,475.0 593.0,492.0" style="fill:#C4C4C4;" />
</g>
<g class="grouped-Orchestra Far Side Rows E-N">
<polygon data-section="Orchestra Far Side Rows E-N" data-priority="4" class="59301" points="595.0,296.0 602.0,343.0 628.0,332.0 641.0,326.0 644.0,308.0 644.0,291.0 634.0,263.0 624.0,251.0 586.0,215.0 567.0,202.0 554.0,205.0 595.0,296.0" style="fill:#C4C4C4;" />
<polygon data-section="Orchestra Far Side Rows E-N" data-priority="4" class="59301" points="49.0,308.0 52.0,326.0 65.0,332.0 91.0,343.0 101.0,313.0 120.0,236.0 139.0,205.0 126.0,202.0 107.0,215.0 69.0,251.0 59.0,263.0 49.0,308.0" style="fill:#C4C4C4;" />
</g>
<g class="grouped-Orchestra Far Side Rows E-K Mezzanine Side Rows E-G">
<polygon data-section="Orchestra Far Side Rows E-K Mezzanine Side Rows E-G" data-priority="4" class="59303" points="567.0,202.0 554.0,205.0 595.0,296.0 608.0,291.0 634.0,280.0 634.0,263.0 624.0,251.0 586.0,215.0 567.0,202.0" style="fill:#C4C4C4;" />
<polygon data-section="Orchestra Far Side Rows E-K Mezzanine Side Rows E-G" data-priority="4" class="59303" points="59.0,280.0 85.0,291.0 98.0,296.0 139.0,205.0 126.0,202.0 107.0,215.0 69.0,251.0 59.0,263.0 59.0,280.0" style="fill:#C4C4C4;" />
<polygon data-section="Orchestra Far Side Rows E-K Mezzanine Side Rows E-G" data-priority="4" class="59303" points="463.0,601.0 476.0,617.0 489.0,615.0 502.0,613.0 515.0,611.0 528.0,608.0 541.0,605.0 554.0,601.0 567.0,597.0 580.0,592.0 593.0,587.0 606.0,581.0 606.0,564.0 606.0,547.0 580.0,558.0 502.0,579.0 489.0,581.0 463.0,584.0 463.0,601.0" style="fill:#C4C4C4;" />
<polygon data-section="Orchestra Far Side Rows E-K Mezzanine Side Rows E-G" data-priority="4" class="59303" points="87.0,564.0 87.0,581.0 100.0,587.0 113.0,592.0 126.0,597.0 139.0,601.0 152.0,605.0 165.0,608.0 178.0,611.0 191.0,613.0 204.0,615.0 217.0,617.0 230.0,601.0 230.0,584.0 204.0,581.0 191.0,579.0 113.0,558.0 87.0,547.0 87.0,564.0" style="fill:#C4C4C4;" />
</g>
<g class="grouped-Orchestra Far Side Rows E-N Mezzanine Side Rows A-G">
<polygon data-section="Orchestra Far Side Rows E-N Mezzanine Side Rows A-G" data-priority="4" class="59304" points="595.0,296.0 602.0,343.0 628.0,332.0 641.0,326.0 644.0,308.0 644.0,291.0 634.0,263.0 624.0,251.0 586.0,215.0 567.0,202.0 554.0,205.0 595.0,296.0" style="fill:#C4C4C4;" />
<polygon data-section="Orchestra Far Side Rows E-N Mezzanine Side Rows A-G" data-priority="4" class="59304" points="49.0,308.0 52.0,326.0 65.0,332.0 91.0,343.0 101.0,313.0 120.0,236.0 139.0,205.0 126.0,202.0 107.0,215.0 69.0,251.0 59.0,263.0 49.0,308.0" style="fill:#C4C4C4;" />
<polygon data-section="Orchestra Far Side Rows E-N Mezzanine Side Rows A-G" data-priority="4" class="59304" points="463.0,523.0 463.0,540.0 463.0,557.0 476.0,556.0 489.0,554.0 502.0,552.0 515.0,550.0 528.0,547.0 541.0,544.0 554.0,540.0 567.0,536.0 580.0,531.0 593.0,526.0 606.0,520.0 619.0,514.0 632.0,507.0 632.0,490.0 632.0,473.0 632.0,456.0 606.0,469.0 580.0,480.0 502.0,501.0 489.0,503.0 463.0,506.0 463.0,523.0" style="fill:#C4C4C4;" />
<polygon data-section="Orchestra Far Side Rows E-N Mezzanine Side Rows A-G" data-priority="4" class="59304" points="74.0,514.0 87.0,520.0 100.0,526.0 113.0,531.0 126.0,536.0 139.0,540.0 152.0,544.0 165.0,547.0 178.0,550.0 191.0,552.0 204.0,554.0 217.0,556.0 230.0,557.0 230.0,540.0 230.0,523.0 230.0,506.0 204.0,503.0 191.0,501.0 113.0,480.0 87.0,469.0 61.0,456.0 61.0,473.0 61.0,490.0 61.0,507.0 74.0,514.0" style="fill:#C4C4C4;" />
<polygon data-section="Orchestra Far Side Rows E-N Mezzanine Side Rows A-G" data-priority="4" class="59304" points="463.0,601.0 476.0,617.0 489.0,615.0 502.0,613.0 515.0,611.0 528.0,608.0 541.0,605.0 554.0,601.0 567.0,597.0 580.0,592.0 593.0,587.0 606.0,581.0 606.0,564.0 606.0,547.0 580.0,558.0 502.0,579.0 489.0,581.0 463.0,584.0 463.0,601.0" style="fill:#C4C4C4;" />
<polygon data-section="Orchestra Far Side Rows E-N Mezzanine Side Rows A-G" data-priority="4" class="59304" points="100.0,587.0 113.0,592.0 126.0,597.0 139.0,601.0 152.0,605.0 165.0,608.0 178.0,611.0 191.0,613.0 204.0,615.0 217.0,617.0 230.0,601.0 230.0,584.0 204.0,581.0 191.0,579.0 113.0,558.0 87.0,547.0 87.0,564.0 87.0,581.0 100.0,587.0" style="fill:#C4C4C4;" />
</g>
<g class="grouped-Orchestra Far Side Rows E-R">
<polygon data-section="Orchestra Far Side Rows E-R" data-priority="4" class="60769" points="600.0,361.0 598.0,395.0 624.0,384.0 637.0,378.0 639.0,361.0 644.0,308.0 644.0,291.0 634.0,263.0 624.0,251.0 586.0,215.0 567.0,202.0 554.0,205.0 573.0,236.0 595.0,296.0 600.0,361.0" style="fill:#C4C4C4;" />
<polygon data-section="Orchestra Far Side Rows E-R" data-priority="4" class="60769" points="56.0,378.0 69.0,384.0 93.0,378.0 101.0,313.0 120.0,236.0 139.0,205.0 126.0,202.0 107.0,215.0 69.0,251.0 59.0,263.0 49.0,308.0 54.0,361.0 56.0,378.0" style="fill:#C4C4C4;" />
</g>
</g></g></svg>