<svg viewbox="0 0 832.0 982.094" xmlns="http://www.w3.org/2000/svg">
<g id="stage">
<rect x="200" y="0" width="432.0" height="100" fill="#222222" />
<text font-size="28px" x="416.0" y="50.0" text-anchor="middle" fill="#ffffff" dominant-baseline="middle">STAGE</text>
</g>
<g transform="translate(0, 100)">
<g class="primary-clusters">
<text x="416.0" y="85" font-size="28px" text-anchor="middle" dominant-baseline="middle">ORCHESTRA</text><text x="416.0" y="436.0" font-size="28px" text-anchor="middle" dominant-baseline="middle">FRONTMEZZANINE</text><text x="416.0" y="609.0" font-size="28px" text-anchor="middle" dominant-baseline="middle">REARMEZZANINE</text><g class="grouped-orchestra cluster0">
<polygon data-section="orchestra" data-priority="-1" class="n/a" points="170.0,343.0 183.0,348.0 196.0,353.0 274.0,388.0 287.0,390.0 300.0,391.0 300.0,374.0 300.0,357.0 300.0,340.0 300.0,323.0 300.0,306.0 300.0,289.0 300.0,272.0 300.0,255.0 300.0,238.0 300.0,221.0 300.0,204.0 300.0,187.0 300.0,170.0 300.0,153.0 300.0,136.0 248.0,129.0 196.0,149.0 183.0,161.0 157.0,184.0 105.0,224.0 118.0,283.0 170.0,343.0" style="fill:#C4C4C4;" />
</g>
<g class="grouped-orchestra cluster1">
<polygon data-section="orchestra" data-priority="-1" class="n/a" points="332.0,239.0 332.0,256.0 332.0,273.0 332.0,290.0 332.0,307.0 332.0,324.0 332.0,341.0 332.0,358.0 332.0,375.0 345.0,376.0 371.0,377.0 397.0,378.0 410.0,378.0 423.0,378.0 436.0,378.0 462.0,377.0 488.0,376.0 501.0,375.0 501.0,358.0 501.0,341.0 501.0,324.0 501.0,307.0 501.0,290.0 501.0,273.0 501.0,256.0 501.0,239.0 501.0,222.0 501.0,205.0 501.0,188.0 501.0,171.0 501.0,154.0 501.0,137.0 501.0,120.0 475.0,121.0 449.0,122.0 384.0,122.0 358.0,121.0 332.0,120.0 332.0,137.0 332.0,154.0 332.0,171.0 332.0,188.0 332.0,205.0 332.0,222.0 332.0,239.0" style="fill:#C4C4C4;" />
</g>
<g class="grouped-orchestra cluster2">
<polygon data-section="orchestra" data-priority="-1" class="n/a" points="533.0,221.0 533.0,238.0 533.0,255.0 533.0,272.0 533.0,289.0 533.0,306.0 533.0,323.0 533.0,340.0 533.0,357.0 533.0,374.0 546.0,373.0 559.0,372.0 572.0,370.0 585.0,368.0 598.0,365.0 611.0,362.0 624.0,358.0 637.0,354.0 650.0,349.0 663.0,344.0 689.0,315.0 715.0,284.0 715.0,267.0 715.0,250.0 715.0,233.0 715.0,216.0 663.0,174.0 611.0,141.0 585.0,130.0 533.0,136.0 533.0,153.0 533.0,170.0 533.0,187.0 533.0,204.0 533.0,221.0" style="fill:#C4C4C4;" />
</g>
<g class="grouped-frontmezzanine cluster0">
<polygon data-section="frontmezzanine" data-priority="-1" class="n/a" points="43.0,424.0 43.0,441.0 43.0,458.0 56.0,467.0 69.0,476.0 82.0,484.0 95.0,492.0 108.0,499.0 121.0,506.0 134.0,512.0 147.0,518.0 160.0,523.0 173.0,528.0 186.0,532.0 199.0,536.0 199.0,519.0 199.0,502.0 199.0,485.0 199.0,468.0 186.0,464.0 108.0,431.0 82.0,416.0 43.0,407.0 43.0,424.0" style="fill:#C4C4C4;" />
</g>
<g class="grouped-frontmezzanine cluster1">
<polygon data-section="frontmezzanine" data-priority="-1" class="n/a" points="231.0,513.0 231.0,530.0 231.0,547.0 244.0,550.0 257.0,553.0 270.0,555.0 283.0,557.0 296.0,558.0 309.0,559.0 322.0,560.0 335.0,561.0 348.0,562.0 361.0,563.0 374.0,564.0 387.0,564.0 400.0,564.0 400.0,547.0 400.0,530.0 400.0,513.0 400.0,496.0 335.0,493.0 322.0,492.0 231.0,479.0 231.0,496.0 231.0,513.0" style="fill:#C4C4C4;" />
</g>
<g class="grouped-frontmezzanine cluster2">
<polygon data-section="frontmezzanine" data-priority="-1" class="n/a" points="432.0,547.0 432.0,564.0 445.0,564.0 471.0,563.0 484.0,562.0 497.0,561.0 510.0,560.0 523.0,559.0 536.0,558.0 549.0,557.0 562.0,556.0 575.0,554.0 588.0,552.0 601.0,549.0 601.0,532.0 601.0,515.0 601.0,498.0 601.0,481.0 510.0,492.0 458.0,495.0 432.0,496.0 432.0,513.0 432.0,530.0 432.0,547.0" style="fill:#C4C4C4;" />
</g>
<g class="grouped-frontmezzanine cluster3">
<polygon data-section="frontmezzanine" data-priority="-1" class="n/a" points="633.0,486.0 633.0,503.0 633.0,520.0 633.0,538.0 646.0,534.0 659.0,530.0 672.0,525.0 685.0,519.0 698.0,513.0 711.0,507.0 724.0,500.0 737.0,493.0 750.0,485.0 763.0,476.0 776.0,467.0 789.0,458.0 789.0,441.0 789.0,424.0 789.0,407.0 750.0,417.0 724.0,432.0 646.0,465.0 633.0,469.0 633.0,486.0" style="fill:#C4C4C4;" />
</g>
<g class="grouped-rearmezzanine cluster0">
<polygon data-section="rearmezzanine" data-priority="-1" class="n/a" points="95.0,567.0 43.0,535.0 30.0,526.0 43.0,552.0 82.0,594.0 134.0,639.0 147.0,644.0 160.0,649.0 160.0,632.0 160.0,615.0 160.0,598.0 95.0,567.0" style="fill:#C4C4C4;" />
</g>
<g class="grouped-rearmezzanine cluster1">
<polygon data-section="rearmezzanine" data-priority="-1" class="n/a" points="192.0,657.0 192.0,674.0 205.0,695.0 270.0,746.0 296.0,767.0 309.0,768.0 322.0,769.0 322.0,752.0 322.0,735.0 322.0,718.0 322.0,701.0 322.0,684.0 322.0,667.0 322.0,650.0 322.0,633.0 244.0,621.0 192.0,640.0 192.0,657.0" style="fill:#C4C4C4;" />
</g>
<g class="grouped-rearmezzanine cluster2">
<polygon data-section="rearmezzanine" data-priority="-1" class="n/a" points="354.0,668.0 354.0,685.0 354.0,702.0 354.0,719.0 354.0,736.0 354.0,753.0 354.0,770.0 354.0,787.0 367.0,787.0 380.0,787.0 393.0,787.0 406.0,787.0 471.0,734.0 484.0,717.0 497.0,683.0 484.0,666.0 432.0,634.0 419.0,634.0 406.0,634.0 393.0,634.0 380.0,634.0 367.0,634.0 354.0,634.0 354.0,651.0 354.0,668.0" style="fill:#C4C4C4;" />
</g>
<g class="grouped-rearmezzanine cluster3">
<polygon data-section="rearmezzanine" data-priority="-1" class="n/a" points="529.0,665.0 529.0,682.0 542.0,681.0 555.0,680.0 568.0,678.0 581.0,676.0 594.0,673.0 607.0,670.0 620.0,666.0 633.0,662.0 711.0,614.0 763.0,567.0 776.0,540.0 672.0,597.0 633.0,611.0 529.0,631.0 529.0,648.0 529.0,665.0" style="fill:#C4C4C4;" />
</g>
</g>
<g class="tour-sections"><g class="grouped-Rear Mezzanine Rows A-D">
<polygon data-section="Rear Mezzanine Rows A-D" data-priority="0" class="50587" points="529.0,665.0 529.0,682.0 542.0,681.0 555.0,680.0 568.0,678.0 581.0,676.0 594.0,673.0 607.0,670.0 620.0,666.0 633.0,662.0 711.0,614.0 763.0,567.0 776.0,540.0 672.0,597.0 633.0,611.0 529.0,631.0 529.0,648.0 529.0,665.0" style="fill:#C4C4C4;" />
<polygon data-section="Rear Mezzanine Rows A-D" data-priority="0" class="50587" points="95.0,567.0 43.0,535.0 30.0,526.0 43.0,552.0 82.0,594.0 134.0,639.0 147.0,644.0 160.0,649.0 160.0,632.0 160.0,615.0 160.0,598.0 95.0,567.0" style="fill:#C4C4C4;" />
<polygon data-section="Rear Mezzanine Rows A-D" data-priority="0" class="50587" points="192.0,657.0 205.0,661.0 218.0,665.0 244.0,672.0 257.0,675.0 270.0,678.0 283.0,680.0 296.0,682.0 309.0,683.0 322.0,684.0 322.0,667.0 322.0,650.0 322.0,633.0 244.0,621.0 192.0,640.0 192.0,657.0" style="fill:#C4C4C4;" />
<polygon data-section="Rear Mezzanine Rows A-D" data-priority="0" class="50587" points="367.0,634.0 354.0,634.0 354.0,651.0 354.0,668.0 354.0,685.0 367.0,685.0 380.0,685.0 393.0,685.0 406.0,685.0 419.0,685.0 432.0,685.0 445.0,685.0 497.0,683.0 484.0,666.0 432.0,634.0 419.0,634.0 406.0,634.0 393.0,634.0 380.0,634.0 367.0,634.0" style="fill:#C4C4C4;" />
</g>
<g class="grouped-Orchestra Rows C-O">
<polygon data-section="Orchestra Rows C-O" data-priority="0" class="51190" points="533.0,272.0 533.0,289.0 533.0,306.0 533.0,323.0 533.0,340.0 533.0,357.0 533.0,374.0 546.0,373.0 559.0,372.0 572.0,370.0 585.0,368.0 598.0,365.0 611.0,362.0 624.0,358.0 637.0,354.0 650.0,349.0 663.0,344.0 689.0,315.0 715.0,284.0 715.0,267.0 715.0,250.0 715.0,233.0 715.0,216.0 663.0,174.0 637.0,167.0 624.0,171.0 546.0,186.0 533.0,187.0 533.0,204.0 533.0,221.0 533.0,238.0 533.0,255.0 533.0,272.0" style="fill:#C4C4C4;" />
<polygon data-section="Orchestra Rows C-O" data-priority="0" class="51190" points="170.0,343.0 183.0,348.0 196.0,353.0 209.0,357.0 222.0,361.0 235.0,364.0 248.0,367.0 261.0,369.0 274.0,371.0 287.0,373.0 300.0,374.0 300.0,357.0 300.0,340.0 300.0,323.0 300.0,306.0 300.0,289.0 300.0,272.0 300.0,255.0 300.0,238.0 300.0,221.0 300.0,204.0 300.0,187.0 274.0,184.0 261.0,182.0 183.0,161.0 157.0,184.0 105.0,224.0 118.0,283.0 170.0,343.0" style="fill:#C4C4C4;" />
<polygon data-section="Orchestra Rows C-O" data-priority="0" class="51190" points="332.0,290.0 332.0,307.0 332.0,324.0 332.0,341.0 332.0,358.0 332.0,375.0 345.0,376.0 371.0,377.0 397.0,378.0 410.0,378.0 423.0,378.0 436.0,378.0 462.0,377.0 488.0,376.0 501.0,375.0 501.0,358.0 501.0,341.0 501.0,324.0 501.0,307.0 501.0,290.0 501.0,273.0 501.0,256.0 501.0,239.0 501.0,222.0 501.0,205.0 501.0,188.0 475.0,189.0 384.0,190.0 358.0,189.0 332.0,188.0 332.0,205.0 332.0,222.0 332.0,239.0 332.0,256.0 332.0,273.0 332.0,290.0" style="fill:#C4C4C4;" />
</g>
<g class="grouped-Orchestra Rows BB-L">
<polygon data-section="Orchestra Rows BB-L" data-priority="0" class="52815" points="533.0,187.0 533.0,204.0 533.0,221.0 533.0,238.0 533.0,255.0 533.0,272.0 533.0,289.0 533.0,306.0 533.0,323.0 546.0,322.0 559.0,321.0 572.0,319.0 585.0,317.0 598.0,314.0 611.0,311.0 624.0,307.0 637.0,303.0 650.0,298.0 663.0,293.0 676.0,287.0 689.0,281.0 702.0,274.0 715.0,267.0 715.0,250.0 715.0,233.0 715.0,216.0 663.0,174.0 611.0,141.0 585.0,130.0 533.0,136.0 533.0,153.0 533.0,170.0 533.0,187.0" style="fill:#C4C4C4;" />
<polygon data-section="Orchestra Rows BB-L" data-priority="0" class="52815" points="131.0,273.0 144.0,280.0 157.0,286.0 170.0,292.0 183.0,297.0 196.0,302.0 209.0,306.0 222.0,310.0 235.0,313.0 248.0,316.0 261.0,318.0 274.0,320.0 287.0,322.0 300.0,323.0 300.0,306.0 300.0,289.0 300.0,272.0 300.0,255.0 300.0,238.0 300.0,221.0 300.0,204.0 300.0,187.0 300.0,170.0 300.0,153.0 300.0,136.0 248.0,129.0 196.0,149.0 183.0,161.0 157.0,184.0 105.0,224.0 118.0,266.0 131.0,273.0" style="fill:#C4C4C4;" />
<polygon data-section="Orchestra Rows BB-L" data-priority="0" class="52815" points="332.0,171.0 332.0,188.0 332.0,205.0 332.0,222.0 332.0,239.0 332.0,256.0 332.0,273.0 332.0,290.0 332.0,307.0 332.0,324.0 345.0,325.0 371.0,326.0 397.0,327.0 410.0,327.0 423.0,327.0 436.0,327.0 462.0,326.0 488.0,325.0 501.0,324.0 501.0,307.0 501.0,290.0 501.0,273.0 501.0,256.0 501.0,239.0 501.0,222.0 501.0,205.0 501.0,188.0 501.0,171.0 501.0,154.0 501.0,137.0 501.0,120.0 475.0,121.0 449.0,122.0 384.0,122.0 358.0,121.0 332.0,120.0 332.0,137.0 332.0,154.0 332.0,171.0" style="fill:#C4C4C4;" />
</g>
<g class="grouped-Rear Mezzanine Left Side Rows G-J">
<polygon data-section="Rear Mezzanine Left Side Rows G-J" data-priority="1" class="33012" points="354.0,753.0 354.0,770.0 367.0,770.0 380.0,770.0 393.0,770.0 406.0,770.0 419.0,770.0 445.0,753.0 471.0,734.0 354.0,736.0 354.0,753.0" style="fill:#C4C4C4;" />
<polygon data-section="Rear Mezzanine Left Side Rows G-J" data-priority="1" class="33012" points="244.0,723.0 270.0,746.0 296.0,767.0 309.0,768.0 322.0,769.0 322.0,752.0 322.0,735.0 244.0,723.0" style="fill:#C4C4C4;" />
</g>
<g class="grouped-Orchestra Center Rows A-H">
<polygon data-section="Orchestra Center Rows A-H" data-priority="1" class="33021" points="332.0,239.0 332.0,256.0 332.0,273.0 345.0,274.0 371.0,275.0 397.0,276.0 410.0,276.0 423.0,276.0 436.0,276.0 462.0,275.0 488.0,274.0 501.0,273.0 501.0,256.0 501.0,239.0 501.0,222.0 501.0,205.0 501.0,188.0 501.0,171.0 501.0,154.0 475.0,155.0 449.0,156.0 358.0,155.0 332.0,154.0 332.0,171.0 332.0,188.0 332.0,205.0 332.0,222.0 332.0,239.0" style="fill:#C4C4C4;" />
</g>
<g class="grouped-Front Mezzanine Center Rows A-B">
<polygon data-section="Front Mezzanine Center Rows A-B" data-priority="1" class="33022" points="523.0,508.0 536.0,507.0 549.0,506.0 562.0,505.0 575.0,503.0 588.0,501.0 601.0,498.0 601.0,481.0 510.0,492.0 458.0,495.0 432.0,496.0 432.0,513.0 445.0,513.0 471.0,512.0 484.0,511.0 497.0,510.0 510.0,509.0 523.0,508.0" style="fill:#C4C4C4;" />
<polygon data-section="Front Mezzanine Center Rows A-B" data-priority="1" class="33022" points="231.0,479.0 231.0,496.0 244.0,499.0 257.0,502.0 270.0,504.0 283.0,506.0 296.0,507.0 309.0,508.0 322.0,509.0 335.0,510.0 348.0,511.0 361.0,512.0 374.0,513.0 387.0,513.0 400.0,513.0 400.0,496.0 335.0,493.0 231.0,479.0" style="fill:#C4C4C4;" />
</g>
<g class="grouped-Front Mezzanine Center Rows A-E">
<polygon data-section="Front Mezzanine Center Rows A-E" data-priority="1" class="33025" points="432.0,547.0 432.0,564.0 445.0,564.0 471.0,563.0 484.0,562.0 497.0,561.0 510.0,560.0 523.0,559.0 536.0,558.0 549.0,557.0 562.0,556.0 575.0,554.0 588.0,552.0 601.0,549.0 601.0,532.0 601.0,515.0 601.0,498.0 601.0,481.0 510.0,492.0 458.0,495.0 432.0,496.0 432.0,513.0 432.0,530.0 432.0,547.0" style="fill:#C4C4C4;" />
<polygon data-section="Front Mezzanine Center Rows A-E" data-priority="1" class="33025" points="231.0,496.0 231.0,513.0 231.0,530.0 231.0,547.0 244.0,550.0 257.0,553.0 270.0,555.0 283.0,557.0 296.0,558.0 309.0,559.0 322.0,560.0 335.0,561.0 348.0,562.0 361.0,563.0 374.0,564.0 387.0,564.0 400.0,564.0 400.0,547.0 400.0,530.0 400.0,513.0 400.0,496.0 335.0,493.0 322.0,492.0 231.0,479.0 231.0,496.0" style="fill:#C4C4C4;" />
</g>
<g class="grouped-Rear Mezzanine Center Rows E-F">
<polygon data-section="Rear Mezzanine Center Rows E-F" data-priority="1" class="50553" points="244.0,706.0 257.0,709.0 270.0,712.0 283.0,714.0 296.0,716.0 309.0,717.0 322.0,718.0 322.0,701.0 231.0,685.0 192.0,674.0 205.0,695.0 218.0,699.0 244.0,706.0" style="fill:#C4C4C4;" />
<polygon data-section="Rear Mezzanine Center Rows E-F" data-priority="1" class="50553" points="354.0,702.0 354.0,719.0 367.0,719.0 380.0,719.0 393.0,719.0 406.0,719.0 419.0,719.0 432.0,719.0 445.0,719.0 484.0,717.0 484.0,700.0 471.0,700.0 354.0,702.0" style="fill:#C4C4C4;" />
</g>
<g class="grouped-Rear Mezzanine Center Rows A-D">
<polygon data-section="Rear Mezzanine Center Rows A-D" data-priority="1" class="50557" points="354.0,668.0 354.0,685.0 367.0,685.0 380.0,685.0 393.0,685.0 406.0,685.0 419.0,685.0 432.0,685.0 445.0,685.0 497.0,683.0 484.0,666.0 432.0,634.0 419.0,634.0 406.0,634.0 393.0,634.0 380.0,634.0 367.0,634.0 354.0,634.0 354.0,651.0 354.0,668.0" style="fill:#C4C4C4;" />
<polygon data-section="Rear Mezzanine Center Rows A-D" data-priority="1" class="50557" points="205.0,661.0 218.0,665.0 244.0,672.0 257.0,675.0 270.0,678.0 283.0,680.0 296.0,682.0 309.0,683.0 322.0,684.0 322.0,667.0 322.0,650.0 322.0,633.0 244.0,621.0 192.0,640.0 192.0,657.0 205.0,661.0" style="fill:#C4C4C4;" />
</g>
<g class="grouped-Orchestra Center Rows M-O">
<polygon data-section="Orchestra Center Rows M-O" data-priority="1" class="50559" points="345.0,376.0 371.0,377.0 397.0,378.0 410.0,378.0 423.0,378.0 436.0,378.0 462.0,377.0 488.0,376.0 501.0,375.0 501.0,358.0 501.0,341.0 475.0,342.0 384.0,343.0 358.0,342.0 332.0,341.0 332.0,358.0 332.0,375.0 345.0,376.0" style="fill:#C4C4C4;" />
</g>
<g class="grouped-Rear Mezzanine Left Side Rows A-D">
<polygon data-section="Rear Mezzanine Left Side Rows A-D" data-priority="1" class="50617" points="43.0,535.0 30.0,526.0 43.0,552.0 82.0,594.0 134.0,639.0 147.0,644.0 160.0,649.0 160.0,632.0 160.0,615.0 160.0,598.0 95.0,567.0 43.0,535.0" style="fill:#C4C4C4;" />
</g>
<g class="grouped-Orchestra Rows C-O Front Mezzanine Center Rows C-E">
<polygon data-section="Orchestra Rows C-O Front Mezzanine Center Rows C-E" data-priority="1" class="50624" points="533.0,272.0 533.0,289.0 533.0,306.0 533.0,323.0 533.0,340.0 533.0,357.0 533.0,374.0 546.0,373.0 559.0,372.0 572.0,370.0 585.0,368.0 598.0,365.0 611.0,362.0 624.0,358.0 637.0,354.0 650.0,349.0 663.0,344.0 689.0,315.0 715.0,284.0 715.0,267.0 715.0,250.0 715.0,233.0 715.0,216.0 663.0,174.0 637.0,167.0 624.0,171.0 546.0,186.0 533.0,187.0 533.0,204.0 533.0,221.0 533.0,238.0 533.0,255.0 533.0,272.0" style="fill:#C4C4C4;" />
<polygon data-section="Orchestra Rows C-O Front Mezzanine Center Rows C-E" data-priority="1" class="50624" points="170.0,343.0 183.0,348.0 196.0,353.0 209.0,357.0 222.0,361.0 235.0,364.0 248.0,367.0 261.0,369.0 274.0,371.0 287.0,373.0 300.0,374.0 300.0,357.0 300.0,340.0 300.0,323.0 300.0,306.0 300.0,289.0 300.0,272.0 300.0,255.0 300.0,238.0 300.0,221.0 300.0,204.0 300.0,187.0 274.0,184.0 261.0,182.0 183.0,161.0 157.0,184.0 105.0,224.0 118.0,283.0 170.0,343.0" style="fill:#C4C4C4;" />
<polygon data-section="Orchestra Rows C-O Front Mezzanine Center Rows C-E" data-priority="1" class="50624" points="332.0,290.0 332.0,307.0 332.0,324.0 332.0,341.0 332.0,358.0 332.0,375.0 345.0,376.0 371.0,377.0 397.0,378.0 410.0,378.0 423.0,378.0 436.0,378.0 462.0,377.0 488.0,376.0 501.0,375.0 501.0,358.0 501.0,341.0 501.0,324.0 501.0,307.0 501.0,290.0 501.0,273.0 501.0,256.0 501.0,239.0 501.0,222.0 501.0,205.0 501.0,188.0 475.0,189.0 384.0,190.0 358.0,189.0 332.0,188.0 332.0,205.0 332.0,222.0 332.0,239.0 332.0,256.0 332.0,273.0 332.0,290.0" style="fill:#C4C4C4;" />
<polygon data-section="Orchestra Rows C-O Front Mezzanine Center Rows C-E" data-priority="1" class="50624" points="432.0,564.0 445.0,564.0 471.0,563.0 484.0,562.0 497.0,561.0 510.0,560.0 523.0,559.0 536.0,558.0 549.0,557.0 562.0,556.0 575.0,554.0 588.0,552.0 601.0,549.0 601.0,532.0 601.0,515.0 510.0,526.0 458.0,529.0 432.0,530.0 432.0,547.0 432.0,564.0" style="fill:#C4C4C4;" />
<polygon data-section="Orchestra Rows C-O Front Mezzanine Center Rows C-E" data-priority="1" class="50624" points="231.0,547.0 244.0,550.0 257.0,553.0 270.0,555.0 283.0,557.0 296.0,558.0 309.0,559.0 322.0,560.0 335.0,561.0 348.0,562.0 361.0,563.0 374.0,564.0 387.0,564.0 400.0,564.0 400.0,547.0 400.0,530.0 335.0,527.0 231.0,513.0 231.0,530.0 231.0,547.0" style="fill:#C4C4C4;" />
</g>
<g class="grouped-Orchestra Center Rows M-O Front Mezzanine Center Rows A-E">
<polygon data-section="Orchestra Center Rows M-O Front Mezzanine Center Rows A-E" data-priority="1" class="52290" points="345.0,376.0 371.0,377.0 397.0,378.0 410.0,378.0 423.0,378.0 436.0,378.0 462.0,377.0 488.0,376.0 501.0,375.0 501.0,358.0 501.0,341.0 475.0,342.0 384.0,343.0 358.0,342.0 332.0,341.0 332.0,358.0 332.0,375.0 345.0,376.0" style="fill:#C4C4C4;" />
<polygon data-section="Orchestra Center Rows M-O Front Mezzanine Center Rows A-E" data-priority="1" class="52290" points="432.0,547.0 432.0,564.0 445.0,564.0 471.0,563.0 484.0,562.0 497.0,561.0 510.0,560.0 523.0,559.0 536.0,558.0 549.0,557.0 562.0,556.0 575.0,554.0 588.0,552.0 601.0,549.0 601.0,532.0 601.0,515.0 601.0,498.0 601.0,481.0 510.0,492.0 458.0,495.0 432.0,496.0 432.0,513.0 432.0,530.0 432.0,547.0" style="fill:#C4C4C4;" />
<polygon data-section="Orchestra Center Rows M-O Front Mezzanine Center Rows A-E" data-priority="1" class="52290" points="231.0,496.0 231.0,513.0 231.0,530.0 231.0,547.0 244.0,550.0 257.0,553.0 270.0,555.0 283.0,557.0 296.0,558.0 309.0,559.0 322.0,560.0 335.0,561.0 348.0,562.0 361.0,563.0 374.0,564.0 387.0,564.0 400.0,564.0 400.0,547.0 400.0,530.0 400.0,513.0 400.0,496.0 335.0,493.0 322.0,492.0 231.0,479.0 231.0,496.0" style="fill:#C4C4C4;" />
</g>
<g class="grouped-Orchestra Center Rows BB-O Front Mezzanine Center Rows A-B">
<polygon data-section="Orchestra Center Rows BB-O Front Mezzanine Center Rows A-B" data-priority="1" class="52292" points="332.0,239.0 332.0,256.0 332.0,273.0 332.0,290.0 332.0,307.0 332.0,324.0 332.0,341.0 332.0,358.0 332.0,375.0 345.0,376.0 371.0,377.0 397.0,378.0 410.0,378.0 423.0,378.0 436.0,378.0 462.0,377.0 488.0,376.0 501.0,375.0 501.0,358.0 501.0,341.0 501.0,324.0 501.0,307.0 501.0,290.0 501.0,273.0 501.0,256.0 501.0,239.0 501.0,222.0 501.0,205.0 501.0,188.0 501.0,171.0 501.0,154.0 501.0,137.0 501.0,120.0 475.0,121.0 449.0,122.0 384.0,122.0 358.0,121.0 332.0,120.0 332.0,137.0 332.0,154.0 332.0,171.0 332.0,188.0 332.0,205.0 332.0,222.0 332.0,239.0" style="fill:#C4C4C4;" />
<polygon data-section="Orchestra Center Rows BB-O Front Mezzanine Center Rows A-B" data-priority="1" class="52292" points="523.0,508.0 536.0,507.0 549.0,506.0 562.0,505.0 575.0,503.0 588.0,501.0 601.0,498.0 601.0,481.0 510.0,492.0 458.0,495.0 432.0,496.0 432.0,513.0 445.0,513.0 471.0,512.0 484.0,511.0 497.0,510.0 510.0,509.0 523.0,508.0" style="fill:#C4C4C4;" />
<polygon data-section="Orchestra Center Rows BB-O Front Mezzanine Center Rows A-B" data-priority="1" class="52292" points="231.0,479.0 231.0,496.0 244.0,499.0 257.0,502.0 270.0,504.0 283.0,506.0 296.0,507.0 309.0,508.0 322.0,509.0 335.0,510.0 348.0,511.0 361.0,512.0 374.0,513.0 387.0,513.0 400.0,513.0 400.0,496.0 335.0,493.0 231.0,479.0" style="fill:#C4C4C4;" />
</g>
<g class="grouped-Orchestra Center Rows J-L">
<polygon data-section="Orchestra Center Rows J-L" data-priority="1" class="52293" points="358.0,291.0 332.0,290.0 332.0,307.0 332.0,324.0 345.0,325.0 371.0,326.0 397.0,327.0 410.0,327.0 423.0,327.0 436.0,327.0 462.0,326.0 488.0,325.0 501.0,324.0 501.0,307.0 501.0,290.0 475.0,291.0 449.0,292.0 358.0,291.0" style="fill:#C4C4C4;" />
</g>
<g class="grouped-Orchestra Center Rows BB-L Front Mezzanine Center Rows C-E">
<polygon data-section="Orchestra Center Rows BB-L Front Mezzanine Center Rows C-E" data-priority="1" class="52811" points="332.0,222.0 332.0,239.0 332.0,256.0 332.0,273.0 332.0,290.0 332.0,307.0 332.0,324.0 345.0,325.0 371.0,326.0 397.0,327.0 410.0,327.0 423.0,327.0 436.0,327.0 462.0,326.0 488.0,325.0 501.0,324.0 501.0,307.0 501.0,290.0 501.0,273.0 501.0,256.0 501.0,239.0 501.0,222.0 501.0,205.0 501.0,188.0 501.0,171.0 501.0,154.0 501.0,137.0 501.0,120.0 475.0,121.0 449.0,122.0 384.0,122.0 358.0,121.0 332.0,120.0 332.0,137.0 332.0,154.0 332.0,171.0 332.0,188.0 332.0,205.0 332.0,222.0" style="fill:#C4C4C4;" />
<polygon data-section="Orchestra Center Rows BB-L Front Mezzanine Center Rows C-E" data-priority="1" class="52811" points="432.0,564.0 445.0,564.0 471.0,563.0 484.0,562.0 497.0,561.0 510.0,560.0 523.0,559.0 536.0,558.0 549.0,557.0 562.0,556.0 575.0,554.0 588.0,552.0 601.0,549.0 601.0,532.0 601.0,515.0 510.0,526.0 458.0,529.0 432.0,530.0 432.0,547.0 432.0,564.0" style="fill:#C4C4C4;" />
<polygon data-section="Orchestra Center Rows BB-L Front Mezzanine Center Rows C-E" data-priority="1" class="52811" points="231.0,547.0 244.0,550.0 257.0,553.0 270.0,555.0 283.0,557.0 296.0,558.0 309.0,559.0 322.0,560.0 335.0,561.0 348.0,562.0 361.0,563.0 374.0,564.0 387.0,564.0 400.0,564.0 400.0,547.0 400.0,530.0 335.0,527.0 231.0,513.0 231.0,530.0 231.0,547.0" style="fill:#C4C4C4;" />
</g>
<g class="grouped-Orchestra Center Rows BB-L Front Mezzanine Center Rows A-B">
<polygon data-section="Orchestra Center Rows BB-L Front Mezzanine Center Rows A-B" data-priority="1" class="52816" points="332.0,222.0 332.0,239.0 332.0,256.0 332.0,273.0 332.0,290.0 332.0,307.0 332.0,324.0 345.0,325.0 371.0,326.0 397.0,327.0 410.0,327.0 423.0,327.0 436.0,327.0 462.0,326.0 488.0,325.0 501.0,324.0 501.0,307.0 501.0,290.0 501.0,273.0 501.0,256.0 501.0,239.0 501.0,222.0 501.0,205.0 501.0,188.0 501.0,171.0 501.0,154.0 501.0,137.0 501.0,120.0 475.0,121.0 449.0,122.0 384.0,122.0 358.0,121.0 332.0,120.0 332.0,137.0 332.0,154.0 332.0,171.0 332.0,188.0 332.0,205.0 332.0,222.0" style="fill:#C4C4C4;" />
<polygon data-section="Orchestra Center Rows BB-L Front Mezzanine Center Rows A-B" data-priority="1" class="52816" points="523.0,508.0 536.0,507.0 549.0,506.0 562.0,505.0 575.0,503.0 588.0,501.0 601.0,498.0 601.0,481.0 510.0,492.0 458.0,495.0 432.0,496.0 432.0,513.0 445.0,513.0 471.0,512.0 484.0,511.0 497.0,510.0 510.0,509.0 523.0,508.0" style="fill:#C4C4C4;" />
<polygon data-section="Orchestra Center Rows BB-L Front Mezzanine Center Rows A-B" data-priority="1" class="52816" points="231.0,479.0 231.0,496.0 244.0,499.0 257.0,502.0 270.0,504.0 283.0,506.0 296.0,507.0 309.0,508.0 322.0,509.0 335.0,510.0 348.0,511.0 361.0,512.0 374.0,513.0 387.0,513.0 400.0,513.0 400.0,496.0 335.0,493.0 231.0,479.0" style="fill:#C4C4C4;" />
</g>
<g class="grouped-Orchestra Center Rows BB-CC Front Mezzanine Center Rows A-B">
<polygon data-section="Orchestra Center Rows BB-CC Front Mezzanine Center Rows A-B" data-priority="1" class="52817" points="345.0,138.0 371.0,139.0 397.0,140.0 410.0,140.0 423.0,140.0 436.0,140.0 462.0,139.0 488.0,138.0 501.0,137.0 501.0,120.0 475.0,121.0 358.0,121.0 332.0,120.0 332.0,137.0 345.0,138.0" style="fill:#C4C4C4;" />
<polygon data-section="Orchestra Center Rows BB-CC Front Mezzanine Center Rows A-B" data-priority="1" class="52817" points="523.0,508.0 536.0,507.0 549.0,506.0 562.0,505.0 575.0,503.0 588.0,501.0 601.0,498.0 601.0,481.0 510.0,492.0 458.0,495.0 432.0,496.0 432.0,513.0 445.0,513.0 471.0,512.0 484.0,511.0 497.0,510.0 510.0,509.0 523.0,508.0" style="fill:#C4C4C4;" />
<polygon data-section="Orchestra Center Rows BB-CC Front Mezzanine Center Rows A-B" data-priority="1" class="52817" points="231.0,479.0 231.0,496.0 244.0,499.0 257.0,502.0 270.0,504.0 283.0,506.0 296.0,507.0 309.0,508.0 322.0,509.0 335.0,510.0 348.0,511.0 361.0,512.0 374.0,513.0 387.0,513.0 400.0,513.0 400.0,496.0 335.0,493.0 231.0,479.0" style="fill:#C4C4C4;" />
</g>
<g class="grouped-PREMIUM">
<polygon data-section="PREMIUM" data-priority="2" class="33011" points="332.0,171.0 332.0,188.0 332.0,205.0 332.0,222.0 345.0,223.0 371.0,224.0 397.0,225.0 410.0,225.0 423.0,225.0 436.0,225.0 462.0,224.0 488.0,223.0 501.0,222.0 501.0,205.0 501.0,188.0 501.0,171.0 501.0,154.0 501.0,137.0 501.0,120.0 475.0,121.0 449.0,122.0 358.0,121.0 332.0,120.0 332.0,137.0 332.0,154.0 332.0,171.0" style="fill:#C4C4C4;" />
</g>
<g class="grouped-Orchestra Side Rows K-P">
<polygon data-section="Orchestra Side Rows K-P" data-priority="2" class="33015" points="533.0,357.0 533.0,374.0 546.0,373.0 559.0,372.0 572.0,370.0 585.0,368.0 598.0,365.0 611.0,362.0 624.0,358.0 637.0,354.0 650.0,349.0 663.0,344.0 689.0,315.0 715.0,284.0 715.0,267.0 715.0,250.0 702.0,257.0 676.0,270.0 650.0,281.0 624.0,290.0 546.0,305.0 533.0,306.0 533.0,323.0 533.0,340.0 533.0,357.0" style="fill:#C4C4C4;" />
<polygon data-section="Orchestra Side Rows K-P" data-priority="2" class="33015" points="118.0,283.0 170.0,343.0 274.0,388.0 287.0,390.0 300.0,391.0 300.0,374.0 300.0,357.0 300.0,340.0 300.0,323.0 300.0,306.0 274.0,303.0 261.0,301.0 157.0,269.0 131.0,256.0 118.0,249.0 118.0,266.0 118.0,283.0" style="fill:#C4C4C4;" />
</g>
<g class="grouped-Orchestra Side Rows K-P Front Mezzanine Side Rows A-E">
<polygon data-section="Orchestra Side Rows K-P Front Mezzanine Side Rows A-E" data-priority="2" class="50562" points="533.0,357.0 533.0,374.0 546.0,373.0 559.0,372.0 572.0,370.0 585.0,368.0 598.0,365.0 611.0,362.0 624.0,358.0 637.0,354.0 650.0,349.0 663.0,344.0 689.0,315.0 715.0,284.0 715.0,267.0 715.0,250.0 702.0,257.0 676.0,270.0 650.0,281.0 624.0,290.0 546.0,305.0 533.0,306.0 533.0,323.0 533.0,340.0 533.0,357.0" style="fill:#C4C4C4;" />
<polygon data-section="Orchestra Side Rows K-P Front Mezzanine Side Rows A-E" data-priority="2" class="50562" points="118.0,283.0 170.0,343.0 274.0,388.0 287.0,390.0 300.0,391.0 300.0,374.0 300.0,357.0 300.0,340.0 300.0,323.0 300.0,306.0 274.0,303.0 261.0,301.0 157.0,269.0 131.0,256.0 118.0,249.0 118.0,266.0 118.0,283.0" style="fill:#C4C4C4;" />
<polygon data-section="Orchestra Side Rows K-P Front Mezzanine Side Rows A-E" data-priority="2" class="50562" points="633.0,486.0 633.0,503.0 633.0,520.0 633.0,538.0 646.0,534.0 659.0,530.0 672.0,525.0 685.0,519.0 698.0,513.0 711.0,507.0 724.0,500.0 737.0,493.0 750.0,485.0 763.0,476.0 776.0,467.0 789.0,458.0 789.0,441.0 789.0,424.0 789.0,407.0 750.0,417.0 724.0,432.0 646.0,465.0 633.0,469.0 633.0,486.0" style="fill:#C4C4C4;" />
<polygon data-section="Orchestra Side Rows K-P Front Mezzanine Side Rows A-E" data-priority="2" class="50562" points="43.0,441.0 43.0,458.0 56.0,467.0 69.0,476.0 82.0,484.0 95.0,492.0 108.0,499.0 121.0,506.0 134.0,512.0 147.0,518.0 160.0,523.0 173.0,528.0 186.0,532.0 199.0,536.0 199.0,519.0 199.0,502.0 199.0,485.0 199.0,468.0 186.0,464.0 108.0,431.0 82.0,416.0 43.0,407.0 43.0,424.0 43.0,441.0" style="fill:#C4C4C4;" />
</g>
<g class="grouped-Rear Mezzanine Side Rows A-D">
<polygon data-section="Rear Mezzanine Side Rows A-D" data-priority="2" class="50591" points="529.0,665.0 529.0,682.0 542.0,681.0 555.0,680.0 568.0,678.0 581.0,676.0 594.0,673.0 607.0,670.0 620.0,666.0 633.0,662.0 711.0,614.0 763.0,567.0 776.0,540.0 672.0,597.0 633.0,611.0 529.0,631.0 529.0,648.0 529.0,665.0" style="fill:#C4C4C4;" />
<polygon data-section="Rear Mezzanine Side Rows A-D" data-priority="2" class="50591" points="95.0,567.0 43.0,535.0 30.0,526.0 43.0,552.0 82.0,594.0 134.0,639.0 147.0,644.0 160.0,649.0 160.0,632.0 160.0,615.0 160.0,598.0 95.0,567.0" style="fill:#C4C4C4;" />
</g>
<g class="grouped-Rear Mezzanine Side Rows G-J">
<polygon data-section="Rear Mezzanine Side Rows G-J" data-priority="2" class="50614" points="354.0,753.0 354.0,770.0 367.0,770.0 380.0,770.0 393.0,770.0 406.0,770.0 419.0,770.0 445.0,753.0 471.0,734.0 354.0,736.0 354.0,753.0" style="fill:#C4C4C4;" />
<polygon data-section="Rear Mezzanine Side Rows G-J" data-priority="2" class="50614" points="244.0,723.0 270.0,746.0 296.0,767.0 309.0,768.0 322.0,769.0 322.0,752.0 322.0,735.0 244.0,723.0" style="fill:#C4C4C4;" />
</g>
<g class="grouped-Orchestra Side Rows BB-B Front Mezzanine Side Rows A-E">
<polygon data-section="Orchestra Side Rows BB-B Front Mezzanine Side Rows A-E" data-priority="2" class="50621" points="533.0,136.0 533.0,153.0 533.0,170.0 546.0,169.0 559.0,168.0 572.0,166.0 585.0,164.0 598.0,161.0 611.0,158.0 624.0,154.0 611.0,141.0 585.0,130.0 533.0,136.0" style="fill:#C4C4C4;" />
<polygon data-section="Orchestra Side Rows BB-B Front Mezzanine Side Rows A-E" data-priority="2" class="50621" points="196.0,149.0 209.0,153.0 222.0,157.0 235.0,160.0 248.0,163.0 261.0,165.0 274.0,167.0 287.0,169.0 300.0,170.0 300.0,153.0 300.0,136.0 248.0,129.0 196.0,149.0" style="fill:#C4C4C4;" />
<polygon data-section="Orchestra Side Rows BB-B Front Mezzanine Side Rows A-E" data-priority="2" class="50621" points="633.0,486.0 633.0,503.0 633.0,520.0 633.0,538.0 646.0,534.0 659.0,530.0 672.0,525.0 685.0,519.0 698.0,513.0 711.0,507.0 724.0,500.0 737.0,493.0 750.0,485.0 763.0,476.0 776.0,467.0 789.0,458.0 789.0,441.0 789.0,424.0 789.0,407.0 750.0,417.0 724.0,432.0 646.0,465.0 633.0,469.0 633.0,486.0" style="fill:#C4C4C4;" />
<polygon data-section="Orchestra Side Rows BB-B Front Mezzanine Side Rows A-E" data-priority="2" class="50621" points="43.0,441.0 43.0,458.0 56.0,467.0 69.0,476.0 82.0,484.0 95.0,492.0 108.0,499.0 121.0,506.0 134.0,512.0 147.0,518.0 160.0,523.0 173.0,528.0 186.0,532.0 199.0,536.0 199.0,519.0 199.0,502.0 199.0,485.0 199.0,468.0 186.0,464.0 108.0,431.0 82.0,416.0 43.0,407.0 43.0,424.0 43.0,441.0" style="fill:#C4C4C4;" />
</g>
<g class="grouped-Orchestra Side Rows C-J Front Mezzanine Center Rows C-E">
<polygon data-section="Orchestra Side Rows C-J Front Mezzanine Center Rows C-E" data-priority="2" class="51188" points="533.0,204.0 533.0,221.0 533.0,238.0 533.0,255.0 533.0,272.0 533.0,289.0 546.0,288.0 559.0,287.0 572.0,285.0 585.0,283.0 598.0,280.0 611.0,277.0 624.0,273.0 637.0,269.0 650.0,264.0 663.0,259.0 676.0,253.0 689.0,247.0 702.0,240.0 715.0,233.0 715.0,216.0 663.0,174.0 637.0,167.0 624.0,171.0 546.0,186.0 533.0,187.0 533.0,204.0" style="fill:#C4C4C4;" />
<polygon data-section="Orchestra Side Rows C-J Front Mezzanine Center Rows C-E" data-priority="2" class="51188" points="131.0,239.0 144.0,246.0 157.0,252.0 170.0,258.0 183.0,263.0 196.0,268.0 209.0,272.0 222.0,276.0 235.0,279.0 248.0,282.0 261.0,284.0 274.0,286.0 287.0,288.0 300.0,289.0 300.0,272.0 300.0,255.0 300.0,238.0 300.0,221.0 300.0,204.0 300.0,187.0 274.0,184.0 261.0,182.0 183.0,161.0 157.0,184.0 105.0,224.0 118.0,232.0 131.0,239.0" style="fill:#C4C4C4;" />
<polygon data-section="Orchestra Side Rows C-J Front Mezzanine Center Rows C-E" data-priority="2" class="51188" points="432.0,564.0 445.0,564.0 471.0,563.0 484.0,562.0 497.0,561.0 510.0,560.0 523.0,559.0 536.0,558.0 549.0,557.0 562.0,556.0 575.0,554.0 588.0,552.0 601.0,549.0 601.0,532.0 601.0,515.0 510.0,526.0 458.0,529.0 432.0,530.0 432.0,547.0 432.0,564.0" style="fill:#C4C4C4;" />
<polygon data-section="Orchestra Side Rows C-J Front Mezzanine Center Rows C-E" data-priority="2" class="51188" points="231.0,547.0 244.0,550.0 257.0,553.0 270.0,555.0 283.0,557.0 296.0,558.0 309.0,559.0 322.0,560.0 335.0,561.0 348.0,562.0 361.0,563.0 374.0,564.0 387.0,564.0 400.0,564.0 400.0,547.0 400.0,530.0 335.0,527.0 231.0,513.0 231.0,530.0 231.0,547.0" style="fill:#C4C4C4;" />
</g>
<g class="grouped-Orchestra Side Rows C-P Front Mezzanine Center Rows C-E">
<polygon data-section="Orchestra Side Rows C-P Front Mezzanine Center Rows C-E" data-priority="2" class="51189" points="533.0,272.0 533.0,289.0 533.0,306.0 533.0,323.0 533.0,340.0 533.0,357.0 533.0,374.0 546.0,373.0 559.0,372.0 572.0,370.0 585.0,368.0 598.0,365.0 611.0,362.0 624.0,358.0 637.0,354.0 650.0,349.0 663.0,344.0 689.0,315.0 715.0,284.0 715.0,267.0 715.0,250.0 715.0,233.0 715.0,216.0 663.0,174.0 637.0,167.0 624.0,171.0 546.0,186.0 533.0,187.0 533.0,204.0 533.0,221.0 533.0,238.0 533.0,255.0 533.0,272.0" style="fill:#C4C4C4;" />
<polygon data-section="Orchestra Side Rows C-P Front Mezzanine Center Rows C-E" data-priority="2" class="51189" points="170.0,343.0 183.0,348.0 196.0,353.0 274.0,388.0 287.0,390.0 300.0,391.0 300.0,374.0 300.0,357.0 300.0,340.0 300.0,323.0 300.0,306.0 300.0,289.0 300.0,272.0 300.0,255.0 300.0,238.0 300.0,221.0 300.0,204.0 300.0,187.0 274.0,184.0 183.0,161.0 157.0,184.0 105.0,224.0 118.0,283.0 170.0,343.0" style="fill:#C4C4C4;" />
<polygon data-section="Orchestra Side Rows C-P Front Mezzanine Center Rows C-E" data-priority="2" class="51189" points="432.0,564.0 445.0,564.0 471.0,563.0 484.0,562.0 497.0,561.0 510.0,560.0 523.0,559.0 536.0,558.0 549.0,557.0 562.0,556.0 575.0,554.0 588.0,552.0 601.0,549.0 601.0,532.0 601.0,515.0 510.0,526.0 458.0,529.0 432.0,530.0 432.0,547.0 432.0,564.0" style="fill:#C4C4C4;" />
<polygon data-section="Orchestra Side Rows C-P Front Mezzanine Center Rows C-E" data-priority="2" class="51189" points="231.0,547.0 244.0,550.0 257.0,553.0 270.0,555.0 283.0,557.0 296.0,558.0 309.0,559.0 322.0,560.0 335.0,561.0 348.0,562.0 361.0,563.0 374.0,564.0 387.0,564.0 400.0,564.0 400.0,547.0 400.0,530.0 335.0,527.0 231.0,513.0 231.0,530.0 231.0,547.0" style="fill:#C4C4C4;" />
</g>
<g class="grouped-Orchestra Side Rows BB-O Front Mezzanine Side Rows A-E">
<polygon data-section="Orchestra Side Rows BB-O Front Mezzanine Side Rows A-E" data-priority="2" class="62047" points="533.0,238.0 533.0,255.0 533.0,272.0 533.0,289.0 533.0,306.0 533.0,323.0 533.0,340.0 533.0,357.0 533.0,374.0 546.0,373.0 559.0,372.0 572.0,370.0 585.0,368.0 598.0,365.0 611.0,362.0 624.0,358.0 637.0,354.0 650.0,349.0 663.0,344.0 689.0,315.0 715.0,284.0 715.0,267.0 715.0,250.0 715.0,233.0 715.0,216.0 663.0,174.0 611.0,141.0 585.0,130.0 533.0,136.0 533.0,153.0 533.0,170.0 533.0,187.0 533.0,204.0 533.0,221.0 533.0,238.0" style="fill:#C4C4C4;" />
<polygon data-section="Orchestra Side Rows BB-O Front Mezzanine Side Rows A-E" data-priority="2" class="62047" points="170.0,343.0 183.0,348.0 196.0,353.0 209.0,357.0 222.0,361.0 235.0,364.0 248.0,367.0 261.0,369.0 274.0,371.0 287.0,373.0 300.0,374.0 300.0,357.0 300.0,340.0 300.0,323.0 300.0,306.0 300.0,289.0 300.0,272.0 300.0,255.0 300.0,238.0 300.0,221.0 300.0,204.0 300.0,187.0 300.0,170.0 300.0,153.0 300.0,136.0 248.0,129.0 196.0,149.0 183.0,161.0 157.0,184.0 105.0,224.0 118.0,283.0 170.0,343.0" style="fill:#C4C4C4;" />
<polygon data-section="Orchestra Side Rows BB-O Front Mezzanine Side Rows A-E" data-priority="2" class="62047" points="633.0,486.0 633.0,503.0 633.0,520.0 633.0,538.0 646.0,534.0 659.0,530.0 672.0,525.0 685.0,519.0 698.0,513.0 711.0,507.0 724.0,500.0 737.0,493.0 750.0,485.0 763.0,476.0 776.0,467.0 789.0,458.0 789.0,441.0 789.0,424.0 789.0,407.0 750.0,417.0 724.0,432.0 646.0,465.0 633.0,469.0 633.0,486.0" style="fill:#C4C4C4;" />
<polygon data-section="Orchestra Side Rows BB-O Front Mezzanine Side Rows A-E" data-priority="2" class="62047" points="43.0,441.0 43.0,458.0 56.0,467.0 69.0,476.0 82.0,484.0 95.0,492.0 108.0,499.0 121.0,506.0 134.0,512.0 147.0,518.0 160.0,523.0 173.0,528.0 186.0,532.0 199.0,536.0 199.0,519.0 199.0,502.0 199.0,485.0 199.0,468.0 186.0,464.0 108.0,431.0 82.0,416.0 43.0,407.0 43.0,424.0 43.0,441.0" style="fill:#C4C4C4;" />
</g>
<g class="grouped-Front Mezzanine Far Side Rows A-E">
<polygon data-section="Front Mezzanine Far Side Rows A-E" data-priority="4" class="33023" points="43.0,458.0 56.0,467.0 69.0,476.0 82.0,484.0 108.0,431.0 82.0,416.0 43.0,407.0 43.0,424.0 43.0,441.0 43.0,458.0" style="fill:#C4C4C4;" />
<polygon data-section="Front Mezzanine Far Side Rows A-E" data-priority="4" class="33023" points="724.0,432.0 750.0,485.0 763.0,476.0 776.0,467.0 789.0,458.0 789.0,441.0 789.0,424.0 789.0,407.0 750.0,417.0 724.0,432.0" style="fill:#C4C4C4;" />
</g>
<g class="grouped-Orchestra Side Rows BB-B Front Mezzanine Far Side Rows A-E">
<polygon data-section="Orchestra Side Rows BB-B Front Mezzanine Far Side Rows A-E" data-priority="4" class="50552" points="533.0,136.0 533.0,153.0 533.0,170.0 546.0,169.0 559.0,168.0 572.0,166.0 585.0,164.0 598.0,161.0 611.0,158.0 624.0,154.0 611.0,141.0 585.0,130.0 533.0,136.0" style="fill:#C4C4C4;" />
<polygon data-section="Orchestra Side Rows BB-B Front Mezzanine Far Side Rows A-E" data-priority="4" class="50552" points="196.0,149.0 209.0,153.0 222.0,157.0 235.0,160.0 248.0,163.0 261.0,165.0 274.0,167.0 287.0,169.0 300.0,170.0 300.0,153.0 300.0,136.0 248.0,129.0 196.0,149.0" style="fill:#C4C4C4;" />
<polygon data-section="Orchestra Side Rows BB-B Front Mezzanine Far Side Rows A-E" data-priority="4" class="50552" points="43.0,458.0 56.0,467.0 69.0,476.0 82.0,484.0 108.0,431.0 82.0,416.0 43.0,407.0 43.0,424.0 43.0,441.0 43.0,458.0" style="fill:#C4C4C4;" />
<polygon data-section="Orchestra Side Rows BB-B Front Mezzanine Far Side Rows A-E" data-priority="4" class="50552" points="724.0,432.0 750.0,485.0 763.0,476.0 776.0,467.0 789.0,458.0 789.0,441.0 789.0,424.0 789.0,407.0 750.0,417.0 724.0,432.0" style="fill:#C4C4C4;" />
</g>
<g class="grouped-Orchestra Side Rows BB-O Front Mezzanine Far Side Rows A-E">
<polygon data-section="Orchestra Side Rows BB-O Front Mezzanine Far Side Rows A-E" data-priority="4" class="52287" points="533.0,238.0 533.0,255.0 533.0,272.0 533.0,289.0 533.0,306.0 533.0,323.0 533.0,340.0 533.0,357.0 533.0,374.0 546.0,373.0 559.0,372.0 572.0,370.0 585.0,368.0 598.0,365.0 611.0,362.0 624.0,358.0 637.0,354.0 650.0,349.0 663.0,344.0 689.0,315.0 715.0,284.0 715.0,267.0 715.0,250.0 715.0,233.0 715.0,216.0 663.0,174.0 611.0,141.0 585.0,130.0 533.0,136.0 533.0,153.0 533.0,170.0 533.0,187.0 533.0,204.0 533.0,221.0 533.0,238.0" style="fill:#C4C4C4;" />
<polygon data-section="Orchestra Side Rows BB-O Front Mezzanine Far Side Rows A-E" data-priority="4" class="52287" points="170.0,343.0 183.0,348.0 196.0,353.0 209.0,357.0 222.0,361.0 235.0,364.0 248.0,367.0 261.0,369.0 274.0,371.0 287.0,373.0 300.0,374.0 300.0,357.0 300.0,340.0 300.0,323.0 300.0,306.0 300.0,289.0 300.0,272.0 300.0,255.0 300.0,238.0 300.0,221.0 300.0,204.0 300.0,187.0 300.0,170.0 300.0,153.0 300.0,136.0 248.0,129.0 196.0,149.0 183.0,161.0 157.0,184.0 105.0,224.0 118.0,283.0 170.0,343.0" style="fill:#C4C4C4;" />
<polygon data-section="Orchestra Side Rows BB-O Front Mezzanine Far Side Rows A-E" data-priority="4" class="52287" points="43.0,458.0 56.0,467.0 69.0,476.0 82.0,484.0 108.0,431.0 82.0,416.0 43.0,407.0 43.0,424.0 43.0,441.0 43.0,458.0" style="fill:#C4C4C4;" />
<polygon data-section="Orchestra Side Rows BB-O Front Mezzanine Far Side Rows A-E" data-priority="4" class="52287" points="724.0,432.0 750.0,485.0 763.0,476.0 776.0,467.0 789.0,458.0 789.0,441.0 789.0,424.0 789.0,407.0 750.0,417.0 724.0,432.0" style="fill:#C4C4C4;" />
</g>
<g class="grouped-Orchestra Far Side Rows C-J">
<polygon data-section="Orchestra Far Side Rows C-J" data-priority="4" class="52810" points="663.0,259.0 676.0,253.0 689.0,247.0 702.0,240.0 715.0,233.0 715.0,216.0 663.0,174.0 637.0,167.0 624.0,171.0 611.0,175.0 663.0,259.0" style="fill:#C4C4C4;" />
<polygon data-section="Orchestra Far Side Rows C-J" data-priority="4" class="52810" points="131.0,239.0 144.0,246.0 157.0,252.0 170.0,241.0 196.0,200.0 209.0,170.0 183.0,161.0 157.0,184.0 105.0,224.0 118.0,232.0 131.0,239.0" style="fill:#C4C4C4;" />
</g>
<g class="grouped-Orchestra Side Rows BB-J Front Mezzanine Far Side Rows A-E">
<polygon data-section="Orchestra Side Rows BB-J Front Mezzanine Far Side Rows A-E" data-priority="4" class="52814" points="533.0,204.0 533.0,221.0 533.0,238.0 533.0,255.0 533.0,272.0 533.0,289.0 546.0,288.0 559.0,287.0 572.0,285.0 585.0,283.0 598.0,280.0 611.0,277.0 624.0,273.0 637.0,269.0 650.0,264.0 663.0,259.0 676.0,253.0 689.0,247.0 702.0,240.0 715.0,233.0 715.0,216.0 663.0,174.0 611.0,141.0 585.0,130.0 533.0,136.0 533.0,153.0 533.0,170.0 533.0,187.0 533.0,204.0" style="fill:#C4C4C4;" />
<polygon data-section="Orchestra Side Rows BB-J Front Mezzanine Far Side Rows A-E" data-priority="4" class="52814" points="118.0,232.0 131.0,239.0 144.0,246.0 157.0,252.0 170.0,258.0 183.0,263.0 196.0,268.0 209.0,272.0 222.0,276.0 235.0,279.0 248.0,282.0 261.0,284.0 274.0,286.0 287.0,288.0 300.0,289.0 300.0,272.0 300.0,255.0 300.0,238.0 300.0,221.0 300.0,204.0 300.0,187.0 300.0,170.0 300.0,153.0 300.0,136.0 248.0,129.0 196.0,149.0 183.0,161.0 157.0,184.0 105.0,224.0 118.0,232.0" style="fill:#C4C4C4;" />
<polygon data-section="Orchestra Side Rows BB-J Front Mezzanine Far Side Rows A-E" data-priority="4" class="52814" points="43.0,458.0 56.0,467.0 69.0,476.0 82.0,484.0 108.0,431.0 82.0,416.0 43.0,407.0 43.0,424.0 43.0,441.0 43.0,458.0" style="fill:#C4C4C4;" />
<polygon data-section="Orchestra Side Rows BB-J Front Mezzanine Far Side Rows A-E" data-priority="4" class="52814" points="724.0,432.0 750.0,485.0 763.0,476.0 776.0,467.0 789.0,458.0 789.0,441.0 789.0,424.0 789.0,407.0 750.0,417.0 724.0,432.0" style="fill:#C4C4C4;" />
</g>
<g class="grouped-Orchestra Far Side Rows C-J Front Mezzanine Side Rows A-E">
<polygon data-section="Orchestra Far Side Rows C-J Front Mezzanine Side Rows A-E" data-priority="4" class="60028" points="663.0,259.0 676.0,253.0 689.0,247.0 702.0,240.0 715.0,233.0 715.0,216.0 663.0,174.0 637.0,167.0 624.0,171.0 611.0,175.0 663.0,259.0" style="fill:#C4C4C4;" />
<polygon data-section="Orchestra Far Side Rows C-J Front Mezzanine Side Rows A-E" data-priority="4" class="60028" points="131.0,239.0 144.0,246.0 157.0,252.0 170.0,241.0 196.0,200.0 209.0,170.0 183.0,161.0 157.0,184.0 105.0,224.0 118.0,232.0 131.0,239.0" style="fill:#C4C4C4;" />
<polygon data-section="Orchestra Far Side Rows C-J Front Mezzanine Side Rows A-E" data-priority="4" class="60028" points="633.0,486.0 633.0,503.0 633.0,520.0 633.0,538.0 646.0,534.0 659.0,530.0 672.0,525.0 685.0,519.0 698.0,513.0 711.0,507.0 724.0,500.0 737.0,493.0 750.0,485.0 763.0,476.0 776.0,467.0 789.0,458.0 789.0,441.0 789.0,424.0 789.0,407.0 750.0,417.0 724.0,432.0 646.0,465.0 633.0,469.0 633.0,486.0" style="fill:#C4C4C4;" />
<polygon data-section="Orchestra Far Side Rows C-J Front Mezzanine Side Rows A-E" data-priority="4" class="60028" points="43.0,441.0 43.0,458.0 56.0,467.0 69.0,476.0 82.0,484.0 95.0,492.0 108.0,499.0 121.0,506.0 134.0,512.0 147.0,518.0 160.0,523.0 173.0,528.0 186.0,532.0 199.0,536.0 199.0,519.0 199.0,502.0 199.0,485.0 199.0,468.0 186.0,464.0 108.0,431.0 82.0,416.0 43.0,407.0 43.0,424.0 43.0,441.0" style="fill:#C4C4C4;" />
</g>
<g class="grouped-Orchestra Far Side Rows K-O Front Mezzanine Side Rows A-E">
<polygon data-section="Orchestra Far Side Rows K-O Front Mezzanine Side Rows A-E" data-priority="4" class="62045" points="637.0,354.0 650.0,349.0 663.0,344.0 689.0,315.0 715.0,284.0 715.0,267.0 715.0,250.0 663.0,276.0 637.0,354.0" style="fill:#C4C4C4;" />
<polygon data-section="Orchestra Far Side Rows K-O Front Mezzanine Side Rows A-E" data-priority="4" class="62045" points="118.0,283.0 170.0,343.0 183.0,348.0 196.0,353.0 196.0,336.0 170.0,275.0 118.0,249.0 118.0,266.0 118.0,283.0" style="fill:#C4C4C4;" />
<polygon data-section="Orchestra Far Side Rows K-O Front Mezzanine Side Rows A-E" data-priority="4" class="62045" points="633.0,486.0 633.0,503.0 633.0,520.0 633.0,538.0 646.0,534.0 659.0,530.0 672.0,525.0 685.0,519.0 698.0,513.0 711.0,507.0 724.0,500.0 737.0,493.0 750.0,485.0 763.0,476.0 776.0,467.0 789.0,458.0 789.0,441.0 789.0,424.0 789.0,407.0 750.0,417.0 724.0,432.0 646.0,465.0 633.0,469.0 633.0,486.0" style="fill:#C4C4C4;" />
<polygon data-section="Orchestra Far Side Rows K-O Front Mezzanine Side Rows A-E" data-priority="4" class="62045" points="43.0,441.0 43.0,458.0 56.0,467.0 69.0,476.0 82.0,484.0 95.0,492.0 108.0,499.0 121.0,506.0 134.0,512.0 147.0,518.0 160.0,523.0 173.0,528.0 186.0,532.0 199.0,536.0 199.0,519.0 199.0,502.0 199.0,485.0 199.0,468.0 186.0,464.0 108.0,431.0 82.0,416.0 43.0,407.0 43.0,424.0 43.0,441.0" style="fill:#C4C4C4;" />
</g>
<g class="grouped-Orchestra Far Side Rows  K-O">
<polygon data-section="Orchestra Far Side Rows  K-O" data-priority="4" class="62046" points="637.0,354.0 650.0,349.0 663.0,344.0 689.0,315.0 715.0,284.0 715.0,267.0 715.0,250.0 663.0,276.0 637.0,354.0" style="fill:#C4C4C4;" />
<polygon data-section="Orchestra Far Side Rows  K-O" data-priority="4" class="62046" points="118.0,283.0 170.0,343.0 183.0,348.0 196.0,353.0 196.0,336.0 170.0,275.0 118.0,249.0 118.0,266.0 118.0,283.0" style="fill:#C4C4C4;" />
</g>
</g></g></svg>