<svg viewbox="0 0 443.0 479.973" xmlns="http://www.w3.org/2000/svg">
<g id="stage">
<rect x="0" y="0" width="443.0" height="50" fill="#222222" />
<text font-size="16px" x="221.5" y="25.0" text-anchor="middle" fill="#ffffff" dominant-baseline="middle">STAGE</text>
</g>
<g transform="translate(0, 10)">
<g class="primary-clusters">
<text x="221.5" y="85" font-size="16px" text-anchor="middle" dominant-baseline="middle">ORCHESTRA</text><g class="grouped-orchestra cluster0">
<polygon data-section="orchestra" data-priority="-1" class="n/a" points="27.0,337.0 40.0,341.0 53.0,344.0 66.0,347.0 79.0,349.0 92.0,351.0 105.0,353.0 118.0,354.0 118.0,337.0 118.0,320.0 118.0,303.0 118.0,286.0 118.0,269.0 118.0,252.0 118.0,235.0 118.0,218.0 118.0,201.0 53.0,191.0 53.0,208.0 40.0,290.0 27.0,320.0 27.0,337.0" style="fill:#C4C4C4;" />
</g>
<g class="grouped-orchestra cluster1">
<polygon data-section="orchestra" data-priority="-1" class="n/a" points="53.0,123.0 53.0,140.0 53.0,157.0 66.0,160.0 79.0,162.0 92.0,164.0 105.0,166.0 118.0,167.0 118.0,150.0 118.0,133.0 118.0,116.0 53.0,106.0 53.0,123.0" style="fill:#C4C4C4;" />
</g>
<g class="grouped-orchestra cluster2">
<polygon data-section="orchestra" data-priority="-1" class="n/a" points="150.0,170.0 150.0,187.0 150.0,204.0 150.0,221.0 150.0,238.0 150.0,255.0 150.0,272.0 150.0,289.0 150.0,306.0 150.0,323.0 150.0,340.0 170.0,358.0 183.0,359.0 209.0,360.0 222.0,360.0 235.0,360.0 248.0,360.0 261.0,359.0 274.0,358.0 293.0,340.0 293.0,323.0 293.0,306.0 293.0,289.0 293.0,272.0 293.0,255.0 293.0,238.0 293.0,221.0 293.0,204.0 293.0,187.0 293.0,170.0 293.0,153.0 293.0,136.0 293.0,119.0 254.0,121.0 189.0,121.0 150.0,119.0 150.0,136.0 150.0,153.0 150.0,170.0" style="fill:#C4C4C4;" />
</g>
<g class="grouped-orchestra cluster3">
<polygon data-section="orchestra" data-priority="-1" class="n/a" points="325.0,252.0 325.0,269.0 325.0,286.0 325.0,303.0 325.0,320.0 325.0,337.0 325.0,354.0 338.0,353.0 351.0,352.0 364.0,350.0 377.0,348.0 390.0,345.0 403.0,342.0 416.0,338.0 416.0,303.0 390.0,226.0 390.0,209.0 390.0,192.0 325.0,201.0 325.0,218.0 325.0,235.0 325.0,252.0" style="fill:#C4C4C4;" />
</g>
<g class="grouped-orchestra cluster4">
<polygon data-section="orchestra" data-priority="-1" class="n/a" points="325.0,133.0 325.0,150.0 325.0,167.0 338.0,166.0 351.0,165.0 364.0,163.0 377.0,161.0 390.0,158.0 390.0,141.0 390.0,124.0 390.0,107.0 325.0,116.0 325.0,133.0" style="fill:#C4C4C4;" />
</g>
</g>
<g class="tour-sections"><g class="grouped-Orchestra Rows A-P">
<polygon data-section="Orchestra Rows A-P" data-priority="0" class="10660" points="40.0,290.0 27.0,320.0 27.0,337.0 40.0,341.0 53.0,344.0 66.0,347.0 79.0,349.0 92.0,351.0 105.0,353.0 118.0,354.0 118.0,337.0 118.0,320.0 118.0,303.0 118.0,286.0 118.0,269.0 118.0,252.0 118.0,235.0 118.0,218.0 118.0,201.0 53.0,191.0 53.0,208.0 40.0,290.0" style="fill:#C4C4C4;" />
<polygon data-section="Orchestra Rows A-P" data-priority="0" class="10660" points="150.0,221.0 150.0,238.0 150.0,255.0 150.0,272.0 150.0,289.0 150.0,306.0 150.0,323.0 150.0,340.0 170.0,358.0 183.0,359.0 209.0,360.0 222.0,360.0 235.0,360.0 248.0,360.0 261.0,359.0 274.0,358.0 293.0,340.0 293.0,323.0 293.0,306.0 293.0,289.0 293.0,272.0 293.0,255.0 293.0,238.0 293.0,221.0 293.0,204.0 293.0,187.0 293.0,170.0 293.0,153.0 293.0,136.0 293.0,119.0 254.0,121.0 189.0,121.0 150.0,119.0 150.0,136.0 150.0,153.0 150.0,170.0 150.0,187.0 150.0,204.0 150.0,221.0" style="fill:#C4C4C4;" />
<polygon data-section="Orchestra Rows A-P" data-priority="0" class="10660" points="325.0,269.0 325.0,286.0 325.0,303.0 325.0,320.0 325.0,337.0 325.0,354.0 338.0,353.0 351.0,352.0 364.0,350.0 377.0,348.0 390.0,345.0 403.0,342.0 416.0,338.0 416.0,303.0 390.0,226.0 390.0,209.0 390.0,192.0 325.0,201.0 325.0,218.0 325.0,235.0 325.0,252.0 325.0,269.0" style="fill:#C4C4C4;" />
<polygon data-section="Orchestra Rows A-P" data-priority="0" class="10660" points="53.0,123.0 53.0,140.0 53.0,157.0 66.0,160.0 79.0,162.0 92.0,164.0 105.0,166.0 118.0,167.0 118.0,150.0 118.0,133.0 118.0,116.0 53.0,106.0 53.0,123.0" style="fill:#C4C4C4;" />
<polygon data-section="Orchestra Rows A-P" data-priority="0" class="10660" points="325.0,133.0 325.0,150.0 325.0,167.0 338.0,166.0 351.0,165.0 364.0,163.0 377.0,161.0 390.0,158.0 390.0,141.0 390.0,124.0 390.0,107.0 325.0,116.0 325.0,133.0" style="fill:#C4C4C4;" />
</g>
</g></g></svg>