<svg viewbox="0 0 676.0 879.602" xmlns="http://www.w3.org/2000/svg">
<g id="stage">
<rect x="200" y="0" width="276.0" height="100" fill="#222222" />
<text font-size="28px" x="338.0" y="50.0" text-anchor="middle" fill="#ffffff" dominant-baseline="middle">STAGE</text>
</g>
<g transform="translate(0, 100)">
<g class="primary-clusters">
<text x="338.0" y="85" font-size="28px" text-anchor="middle" dominant-baseline="middle">ORCHESTRA</text><text x="338.0" y="466.0" font-size="28px" text-anchor="middle" dominant-baseline="middle">MEZZANINE</text><g class="grouped-orchestra cluster0">
<polygon data-section="orchestra" data-priority="-1" class="n/a" points="66.0,303.0 79.0,360.0 92.0,383.0 105.0,388.0 118.0,393.0 131.0,397.0 144.0,401.0 157.0,404.0 196.0,411.0 222.0,380.0 222.0,363.0 222.0,346.0 222.0,329.0 222.0,312.0 222.0,295.0 222.0,278.0 222.0,261.0 222.0,244.0 222.0,227.0 222.0,210.0 222.0,193.0 222.0,176.0 222.0,159.0 222.0,142.0 222.0,125.0 222.0,108.0 157.0,98.0 131.0,108.0 92.0,145.0 79.0,173.0 66.0,201.0 66.0,218.0 66.0,252.0 66.0,269.0 66.0,286.0 66.0,303.0" style="fill:#C4C4C4;" />
</g>
<g class="grouped-orchestra cluster1">
<polygon data-section="orchestra" data-priority="-1" class="n/a" points="254.0,231.0 254.0,248.0 254.0,265.0 254.0,282.0 254.0,299.0 247.0,418.0 260.0,419.0 286.0,420.0 325.0,421.0 338.0,421.0 351.0,421.0 390.0,420.0 416.0,419.0 429.0,418.0 423.0,299.0 423.0,282.0 423.0,265.0 423.0,248.0 423.0,231.0 423.0,214.0 423.0,197.0 423.0,180.0 423.0,163.0 423.0,146.0 423.0,129.0 423.0,112.0 397.0,113.0 280.0,113.0 254.0,112.0 254.0,129.0 254.0,146.0 254.0,163.0 254.0,180.0 254.0,197.0 254.0,214.0 254.0,231.0" style="fill:#C4C4C4;" />
</g>
<g class="grouped-orchestra cluster2">
<polygon data-section="orchestra" data-priority="-1" class="n/a" points="455.0,193.0 455.0,210.0 455.0,227.0 455.0,244.0 455.0,261.0 455.0,278.0 455.0,295.0 455.0,312.0 455.0,329.0 455.0,346.0 455.0,363.0 455.0,380.0 481.0,395.0 494.0,393.0 507.0,391.0 520.0,388.0 533.0,385.0 546.0,381.0 559.0,377.0 572.0,372.0 585.0,367.0 598.0,344.0 611.0,304.0 611.0,287.0 611.0,270.0 611.0,253.0 611.0,219.0 611.0,202.0 598.0,174.0 585.0,146.0 546.0,109.0 520.0,99.0 455.0,108.0 455.0,125.0 455.0,142.0 455.0,159.0 455.0,176.0 455.0,193.0" style="fill:#C4C4C4;" />
</g>
<g class="grouped-mezzanine cluster0">
<polygon data-section="mezzanine" data-priority="-1" class="n/a" points="37.0,605.0 76.0,641.0 89.0,646.0 102.0,651.0 115.0,655.0 115.0,638.0 115.0,621.0 115.0,604.0 115.0,587.0 115.0,570.0 115.0,553.0 89.0,544.0 37.0,588.0 37.0,605.0" style="fill:#C4C4C4;" />
</g>
<g class="grouped-mezzanine cluster1">
<polygon data-section="mezzanine" data-priority="-1" class="n/a" points="147.0,630.0 147.0,647.0 160.0,650.0 277.0,646.0 290.0,646.0 303.0,646.0 316.0,646.0 316.0,629.0 316.0,612.0 316.0,595.0 316.0,578.0 303.0,578.0 186.0,569.0 147.0,562.0 147.0,579.0 147.0,596.0 147.0,613.0 147.0,630.0" style="fill:#C4C4C4;" />
</g>
<g class="grouped-mezzanine cluster2">
<polygon data-section="mezzanine" data-priority="-1" class="n/a" points="355.0,612.0 355.0,629.0 355.0,646.0 368.0,646.0 381.0,646.0 394.0,646.0 511.0,650.0 524.0,647.0 524.0,630.0 524.0,613.0 524.0,596.0 524.0,579.0 524.0,562.0 485.0,569.0 368.0,578.0 355.0,578.0 355.0,595.0 355.0,612.0" style="fill:#C4C4C4;" />
</g>
<g class="grouped-mezzanine cluster3">
<polygon data-section="mezzanine" data-priority="-1" class="n/a" points="556.0,604.0 556.0,621.0 556.0,638.0 556.0,655.0 569.0,651.0 582.0,646.0 595.0,641.0 634.0,605.0 634.0,588.0 582.0,544.0 556.0,553.0 556.0,570.0 556.0,587.0 556.0,604.0" style="fill:#C4C4C4;" />
</g>
<g class="grouped-mezzanine cluster4">
<polygon data-section="mezzanine" data-priority="-1" class="n/a" points="50.0,458.0 50.0,475.0 50.0,492.0 63.0,498.0 76.0,504.0 89.0,510.0 102.0,515.0 115.0,520.0 128.0,524.0 141.0,528.0 154.0,531.0 167.0,534.0 180.0,536.0 193.0,538.0 206.0,540.0 219.0,541.0 219.0,524.0 219.0,507.0 219.0,490.0 193.0,487.0 102.0,464.0 89.0,459.0 50.0,458.0" style="fill:#C4C4C4;" />
</g>
<g class="grouped-mezzanine cluster5">
<polygon data-section="mezzanine" data-priority="-1" class="n/a" points="264.0,546.0 290.0,547.0 316.0,548.0 329.0,548.0 342.0,548.0 355.0,548.0 381.0,547.0 407.0,546.0 420.0,545.0 420.0,528.0 420.0,511.0 420.0,494.0 394.0,495.0 368.0,496.0 277.0,495.0 251.0,494.0 251.0,511.0 251.0,528.0 251.0,545.0 264.0,546.0" style="fill:#C4C4C4;" />
</g>
<g class="grouped-mezzanine cluster6">
<polygon data-section="mezzanine" data-priority="-1" class="n/a" points="452.0,490.0 452.0,507.0 452.0,524.0 452.0,541.0 465.0,540.0 478.0,539.0 491.0,537.0 504.0,535.0 517.0,532.0 530.0,529.0 543.0,525.0 556.0,521.0 569.0,516.0 582.0,511.0 595.0,505.0 608.0,499.0 621.0,493.0 621.0,476.0 621.0,459.0 582.0,460.0 569.0,465.0 543.0,474.0 465.0,489.0 452.0,490.0" style="fill:#C4C4C4;" />
</g>
</g>
<g class="tour-sections"><g class="grouped-Orchestra Center E-F">
<polygon data-section="Orchestra Center E-F" data-priority="1" class="38262" points="267.0,198.0 293.0,199.0 319.0,200.0 332.0,200.0 345.0,200.0 358.0,200.0 384.0,199.0 410.0,198.0 423.0,197.0 423.0,180.0 397.0,181.0 280.0,181.0 254.0,180.0 254.0,197.0 267.0,198.0" style="fill:#C4C4C4;" />
</g>
<g class="grouped-Mezzanine Center J-K, Sides E-H">
<polygon data-section="Mezzanine Center J-K, Sides E-H" data-priority="2" class="948" points="147.0,596.0 147.0,613.0 160.0,616.0 173.0,618.0 186.0,620.0 199.0,622.0 212.0,624.0 225.0,626.0 238.0,627.0 238.0,610.0 238.0,593.0 238.0,576.0 147.0,562.0 147.0,579.0 147.0,596.0" style="fill:#C4C4C4;" />
<polygon data-section="Mezzanine Center J-K, Sides E-H" data-priority="2" class="948" points="433.0,610.0 433.0,627.0 446.0,626.0 459.0,624.0 472.0,622.0 485.0,620.0 498.0,618.0 511.0,616.0 524.0,613.0 524.0,596.0 524.0,579.0 524.0,562.0 433.0,576.0 433.0,593.0 433.0,610.0" style="fill:#C4C4C4;" />
<polygon data-section="Mezzanine Center J-K, Sides E-H" data-priority="2" class="948" points="89.0,561.0 89.0,578.0 89.0,595.0 102.0,600.0 115.0,604.0 115.0,587.0 115.0,570.0 115.0,553.0 89.0,544.0 89.0,561.0" style="fill:#C4C4C4;" />
<polygon data-section="Mezzanine Center J-K, Sides E-H" data-priority="2" class="948" points="556.0,570.0 556.0,587.0 556.0,604.0 569.0,600.0 582.0,595.0 582.0,578.0 582.0,561.0 582.0,544.0 556.0,553.0 556.0,570.0" style="fill:#C4C4C4;" />
</g>
<g class="grouped-Mezzanine Sides A-D">
<polygon data-section="Mezzanine Sides A-D" data-priority="2" class="38273" points="50.0,458.0 50.0,475.0 50.0,492.0 63.0,498.0 76.0,504.0 89.0,510.0 102.0,515.0 115.0,520.0 128.0,524.0 141.0,528.0 154.0,531.0 167.0,534.0 180.0,536.0 193.0,538.0 206.0,540.0 219.0,541.0 219.0,524.0 219.0,507.0 219.0,490.0 193.0,487.0 102.0,464.0 89.0,459.0 50.0,458.0" style="fill:#C4C4C4;" />
<polygon data-section="Mezzanine Sides A-D" data-priority="2" class="38273" points="452.0,507.0 452.0,524.0 452.0,541.0 465.0,540.0 478.0,539.0 491.0,537.0 504.0,535.0 517.0,532.0 530.0,529.0 543.0,525.0 556.0,521.0 569.0,516.0 582.0,511.0 595.0,505.0 608.0,499.0 621.0,493.0 621.0,476.0 621.0,459.0 582.0,460.0 569.0,465.0 543.0,474.0 465.0,489.0 452.0,490.0 452.0,507.0" style="fill:#C4C4C4;" />
</g>
</g></g></svg>