<svg viewbox="0 0 676.0 879.602" xmlns="http://www.w3.org/2000/svg">
<g id="stage">
<rect x="200" y="0" width="276.0" height="100" fill="#222222" />
<text font-size="28px" x="338.0" y="50.0" text-anchor="middle" fill="#ffffff" dominant-baseline="middle">STAGE</text>
</g>
<g transform="translate(0, 100)">
<g class="primary-clusters">
<text x="338.0" y="85" font-size="28px" text-anchor="middle" dominant-baseline="middle">ORCHESTRA</text><text x="338.0" y="466.0" font-size="28px" text-anchor="middle" dominant-baseline="middle">MEZZANINE</text><g class="grouped-orchestra cluster0">
<polygon data-section="orchestra" data-priority="-1" class="n/a" points="66.0,303.0 79.0,360.0 92.0,383.0 105.0,388.0 118.0,393.0 131.0,397.0 144.0,401.0 157.0,404.0 196.0,411.0 222.0,380.0 222.0,363.0 222.0,346.0 222.0,329.0 222.0,312.0 222.0,295.0 222.0,278.0 222.0,261.0 222.0,244.0 222.0,227.0 222.0,210.0 222.0,193.0 222.0,176.0 222.0,159.0 222.0,142.0 222.0,125.0 222.0,108.0 157.0,98.0 131.0,108.0 92.0,145.0 79.0,173.0 66.0,201.0 66.0,218.0 66.0,252.0 66.0,269.0 66.0,286.0 66.0,303.0" style="fill:#C4C4C4;" />
</g>
<g class="grouped-orchestra cluster1">
<polygon data-section="orchestra" data-priority="-1" class="n/a" points="254.0,231.0 254.0,248.0 254.0,265.0 254.0,282.0 254.0,299.0 247.0,418.0 260.0,419.0 286.0,420.0 325.0,421.0 338.0,421.0 351.0,421.0 390.0,420.0 416.0,419.0 429.0,418.0 423.0,299.0 423.0,282.0 423.0,265.0 423.0,248.0 423.0,231.0 423.0,214.0 423.0,197.0 423.0,180.0 423.0,163.0 423.0,146.0 423.0,129.0 423.0,112.0 397.0,113.0 280.0,113.0 254.0,112.0 254.0,129.0 254.0,146.0 254.0,163.0 254.0,180.0 254.0,197.0 254.0,214.0 254.0,231.0" style="fill:#C4C4C4;" />
</g>
<g class="grouped-orchestra cluster2">
<polygon data-section="orchestra" data-priority="-1" class="n/a" points="455.0,193.0 455.0,210.0 455.0,227.0 455.0,244.0 455.0,261.0 455.0,278.0 455.0,295.0 455.0,312.0 455.0,329.0 455.0,346.0 455.0,363.0 455.0,380.0 481.0,395.0 494.0,393.0 507.0,391.0 520.0,388.0 533.0,385.0 546.0,381.0 559.0,377.0 572.0,372.0 585.0,367.0 598.0,344.0 611.0,304.0 611.0,287.0 611.0,270.0 611.0,253.0 611.0,219.0 611.0,202.0 598.0,174.0 585.0,146.0 546.0,109.0 520.0,99.0 455.0,108.0 455.0,125.0 455.0,142.0 455.0,159.0 455.0,176.0 455.0,193.0" style="fill:#C4C4C4;" />
</g>
<g class="grouped-mezzanine cluster0">
<polygon data-section="mezzanine" data-priority="-1" class="n/a" points="37.0,605.0 76.0,641.0 89.0,646.0 102.0,651.0 115.0,655.0 115.0,638.0 115.0,621.0 115.0,604.0 115.0,587.0 115.0,570.0 115.0,553.0 89.0,544.0 37.0,588.0 37.0,605.0" style="fill:#C4C4C4;" />
</g>
<g class="grouped-mezzanine cluster1">
<polygon data-section="mezzanine" data-priority="-1" class="n/a" points="147.0,630.0 147.0,647.0 160.0,650.0 277.0,646.0 290.0,646.0 303.0,646.0 316.0,646.0 316.0,629.0 316.0,612.0 316.0,595.0 316.0,578.0 303.0,578.0 186.0,569.0 147.0,562.0 147.0,579.0 147.0,596.0 147.0,613.0 147.0,630.0" style="fill:#C4C4C4;" />
</g>
<g class="grouped-mezzanine cluster2">
<polygon data-section="mezzanine" data-priority="-1" class="n/a" points="355.0,612.0 355.0,629.0 355.0,646.0 368.0,646.0 381.0,646.0 394.0,646.0 511.0,650.0 524.0,647.0 524.0,630.0 524.0,613.0 524.0,596.0 524.0,579.0 524.0,562.0 485.0,569.0 368.0,578.0 355.0,578.0 355.0,595.0 355.0,612.0" style="fill:#C4C4C4;" />
</g>
<g class="grouped-mezzanine cluster3">
<polygon data-section="mezzanine" data-priority="-1" class="n/a" points="556.0,604.0 556.0,621.0 556.0,638.0 556.0,655.0 569.0,651.0 582.0,646.0 595.0,641.0 634.0,605.0 634.0,588.0 582.0,544.0 556.0,553.0 556.0,570.0 556.0,587.0 556.0,604.0" style="fill:#C4C4C4;" />
</g>
<g class="grouped-mezzanine cluster4">
<polygon data-section="mezzanine" data-priority="-1" class="n/a" points="50.0,458.0 50.0,475.0 50.0,492.0 63.0,498.0 76.0,504.0 89.0,510.0 102.0,515.0 115.0,520.0 128.0,524.0 141.0,528.0 154.0,531.0 167.0,534.0 180.0,536.0 193.0,538.0 206.0,540.0 219.0,541.0 219.0,524.0 219.0,507.0 219.0,490.0 193.0,487.0 102.0,464.0 89.0,459.0 50.0,458.0" style="fill:#C4C4C4;" />
</g>
<g class="grouped-mezzanine cluster5">
<polygon data-section="mezzanine" data-priority="-1" class="n/a" points="264.0,546.0 290.0,547.0 316.0,548.0 329.0,548.0 342.0,548.0 355.0,548.0 381.0,547.0 407.0,546.0 420.0,545.0 420.0,528.0 420.0,511.0 420.0,494.0 394.0,495.0 368.0,496.0 277.0,495.0 251.0,494.0 251.0,511.0 251.0,528.0 251.0,545.0 264.0,546.0" style="fill:#C4C4C4;" />
</g>
<g class="grouped-mezzanine cluster6">
<polygon data-section="mezzanine" data-priority="-1" class="n/a" points="452.0,490.0 452.0,507.0 452.0,524.0 452.0,541.0 465.0,540.0 478.0,539.0 491.0,537.0 504.0,535.0 517.0,532.0 530.0,529.0 543.0,525.0 556.0,521.0 569.0,516.0 582.0,511.0 595.0,505.0 608.0,499.0 621.0,493.0 621.0,476.0 621.0,459.0 582.0,460.0 569.0,465.0 543.0,474.0 465.0,489.0 452.0,490.0" style="fill:#C4C4C4;" />
</g>
</g>
<g class="tour-sections"><g class="grouped-Orchestra Center B-J">
<polygon data-section="Orchestra Center B-J" data-priority="1" class="38260" points="254.0,214.0 254.0,231.0 254.0,248.0 267.0,249.0 293.0,250.0 319.0,251.0 332.0,251.0 345.0,251.0 358.0,251.0 384.0,250.0 410.0,249.0 423.0,248.0 423.0,231.0 423.0,214.0 423.0,197.0 423.0,180.0 423.0,163.0 423.0,146.0 423.0,129.0 397.0,130.0 371.0,131.0 280.0,130.0 254.0,129.0 254.0,146.0 254.0,163.0 254.0,180.0 254.0,197.0 254.0,214.0" style="fill:#C4C4C4;" />
</g>
<g class="grouped-Orchestra Center E-F">
<polygon data-section="Orchestra Center E-F" data-priority="1" class="38262" points="267.0,198.0 293.0,199.0 319.0,200.0 332.0,200.0 345.0,200.0 358.0,200.0 384.0,199.0 410.0,198.0 423.0,197.0 423.0,180.0 397.0,181.0 280.0,181.0 254.0,180.0 254.0,197.0 267.0,198.0" style="fill:#C4C4C4;" />
</g>
<g class="grouped-Mezzanine Center E-F">
<polygon data-section="Mezzanine Center E-F" data-priority="1" class="38275" points="251.0,594.0 264.0,595.0 277.0,595.0 290.0,595.0 303.0,595.0 316.0,595.0 316.0,578.0 251.0,577.0 251.0,594.0" style="fill:#C4C4C4;" />
<polygon data-section="Mezzanine Center E-F" data-priority="1" class="38275" points="355.0,595.0 368.0,595.0 381.0,595.0 394.0,595.0 407.0,595.0 420.0,594.0 420.0,577.0 355.0,578.0 355.0,595.0" style="fill:#C4C4C4;" />
</g>
<g class="grouped-Mezzanine Center J-K, Sides E-H">
<polygon data-section="Mezzanine Center J-K, Sides E-H" data-priority="2" class="948" points="147.0,596.0 147.0,613.0 160.0,616.0 173.0,618.0 186.0,620.0 199.0,622.0 212.0,624.0 225.0,626.0 238.0,627.0 238.0,610.0 238.0,593.0 238.0,576.0 147.0,562.0 147.0,579.0 147.0,596.0" style="fill:#C4C4C4;" />
<polygon data-section="Mezzanine Center J-K, Sides E-H" data-priority="2" class="948" points="433.0,610.0 433.0,627.0 446.0,626.0 459.0,624.0 472.0,622.0 485.0,620.0 498.0,618.0 511.0,616.0 524.0,613.0 524.0,596.0 524.0,579.0 524.0,562.0 433.0,576.0 433.0,593.0 433.0,610.0" style="fill:#C4C4C4;" />
<polygon data-section="Mezzanine Center J-K, Sides E-H" data-priority="2" class="948" points="89.0,561.0 89.0,578.0 89.0,595.0 102.0,600.0 115.0,604.0 115.0,587.0 115.0,570.0 115.0,553.0 89.0,544.0 89.0,561.0" style="fill:#C4C4C4;" />
<polygon data-section="Mezzanine Center J-K, Sides E-H" data-priority="2" class="948" points="556.0,570.0 556.0,587.0 556.0,604.0 569.0,600.0 582.0,595.0 582.0,578.0 582.0,561.0 582.0,544.0 556.0,553.0 556.0,570.0" style="fill:#C4C4C4;" />
</g>
<g class="grouped-Mezzanine Center E-H, Sides A-D">
<polygon data-section="Mezzanine Center E-H, Sides A-D" data-priority="2" class="38254" points="355.0,629.0 368.0,629.0 381.0,629.0 394.0,629.0 407.0,629.0 420.0,628.0 420.0,611.0 420.0,594.0 420.0,577.0 355.0,578.0 355.0,595.0 355.0,612.0 355.0,629.0" style="fill:#C4C4C4;" />
<polygon data-section="Mezzanine Center E-H, Sides A-D" data-priority="2" class="38254" points="251.0,594.0 251.0,611.0 251.0,628.0 264.0,629.0 277.0,629.0 290.0,629.0 303.0,629.0 316.0,629.0 316.0,612.0 316.0,595.0 316.0,578.0 251.0,577.0 251.0,594.0" style="fill:#C4C4C4;" />
<polygon data-section="Mezzanine Center E-H, Sides A-D" data-priority="2" class="38254" points="50.0,458.0 50.0,475.0 50.0,492.0 63.0,498.0 76.0,504.0 89.0,510.0 102.0,515.0 115.0,520.0 128.0,524.0 141.0,528.0 154.0,531.0 167.0,534.0 180.0,536.0 193.0,538.0 206.0,540.0 219.0,541.0 219.0,524.0 219.0,507.0 219.0,490.0 193.0,487.0 102.0,464.0 89.0,459.0 50.0,458.0" style="fill:#C4C4C4;" />
<polygon data-section="Mezzanine Center E-H, Sides A-D" data-priority="2" class="38254" points="452.0,507.0 452.0,524.0 452.0,541.0 465.0,540.0 478.0,539.0 491.0,537.0 504.0,535.0 517.0,532.0 530.0,529.0 543.0,525.0 556.0,521.0 569.0,516.0 582.0,511.0 595.0,505.0 608.0,499.0 621.0,493.0 621.0,476.0 621.0,459.0 582.0,460.0 569.0,465.0 543.0,474.0 465.0,489.0 452.0,490.0 452.0,507.0" style="fill:#C4C4C4;" />
</g>
<g class="grouped-Orchestra Center R-S/Orchestra Sides F-R">
<polygon data-section="Orchestra Center R-S/Orchestra Sides F-R" data-priority="2" class="38255" points="267.0,402.0 293.0,403.0 319.0,404.0 332.0,404.0 345.0,404.0 358.0,404.0 384.0,403.0 410.0,402.0 423.0,401.0 423.0,384.0 397.0,385.0 280.0,385.0 254.0,384.0 254.0,401.0 267.0,402.0" style="fill:#C4C4C4;" />
<polygon data-section="Orchestra Center R-S/Orchestra Sides F-R" data-priority="2" class="38255" points="66.0,286.0 66.0,303.0 79.0,343.0 92.0,349.0 105.0,354.0 118.0,359.0 131.0,363.0 144.0,367.0 157.0,370.0 170.0,373.0 183.0,375.0 196.0,377.0 209.0,379.0 222.0,380.0 222.0,363.0 222.0,346.0 222.0,329.0 222.0,312.0 222.0,295.0 222.0,278.0 222.0,261.0 222.0,244.0 222.0,227.0 222.0,210.0 222.0,193.0 196.0,190.0 183.0,188.0 105.0,167.0 92.0,162.0 79.0,173.0 66.0,201.0 66.0,218.0 66.0,252.0 66.0,269.0 66.0,286.0" style="fill:#C4C4C4;" />
<polygon data-section="Orchestra Center R-S/Orchestra Sides F-R" data-priority="2" class="38255" points="455.0,278.0 455.0,295.0 455.0,312.0 455.0,329.0 455.0,346.0 455.0,363.0 455.0,380.0 468.0,379.0 481.0,378.0 494.0,376.0 507.0,374.0 520.0,371.0 533.0,368.0 546.0,364.0 559.0,360.0 572.0,355.0 585.0,350.0 598.0,344.0 611.0,304.0 611.0,287.0 611.0,270.0 611.0,253.0 611.0,219.0 611.0,202.0 598.0,174.0 585.0,163.0 572.0,168.0 546.0,177.0 468.0,192.0 455.0,193.0 455.0,210.0 455.0,227.0 455.0,244.0 455.0,261.0 455.0,278.0" style="fill:#C4C4C4;" />
</g>
<g class="grouped-Orchestra Center N-Q/Orchestra Sides A-Q/Mezzanine Center E-F">
<polygon data-section="Orchestra Center N-Q/Orchestra Sides A-Q/Mezzanine Center E-F" data-priority="2" class="38256" points="254.0,367.0 267.0,368.0 293.0,369.0 319.0,370.0 332.0,370.0 345.0,370.0 358.0,370.0 384.0,369.0 410.0,368.0 423.0,367.0 423.0,350.0 423.0,333.0 423.0,316.0 397.0,317.0 371.0,318.0 280.0,317.0 254.0,316.0 254.0,333.0 254.0,350.0 254.0,367.0" style="fill:#C4C4C4;" />
<polygon data-section="Orchestra Center N-Q/Orchestra Sides A-Q/Mezzanine Center E-F" data-priority="2" class="38256" points="455.0,193.0 455.0,210.0 455.0,227.0 455.0,244.0 455.0,261.0 455.0,278.0 455.0,295.0 455.0,312.0 455.0,329.0 455.0,346.0 455.0,363.0 468.0,362.0 481.0,361.0 494.0,359.0 507.0,357.0 520.0,354.0 533.0,351.0 546.0,347.0 559.0,343.0 572.0,338.0 585.0,333.0 598.0,327.0 611.0,304.0 611.0,287.0 611.0,270.0 611.0,253.0 611.0,219.0 611.0,202.0 598.0,174.0 585.0,146.0 546.0,109.0 520.0,99.0 455.0,108.0 455.0,125.0 455.0,142.0 455.0,159.0 455.0,176.0 455.0,193.0" style="fill:#C4C4C4;" />
<polygon data-section="Orchestra Center N-Q/Orchestra Sides A-Q/Mezzanine Center E-F" data-priority="2" class="38256" points="66.0,286.0 66.0,303.0 79.0,326.0 92.0,332.0 105.0,337.0 118.0,342.0 131.0,346.0 144.0,350.0 157.0,353.0 170.0,356.0 183.0,358.0 196.0,360.0 209.0,362.0 222.0,363.0 222.0,346.0 222.0,329.0 222.0,312.0 222.0,295.0 222.0,278.0 222.0,261.0 222.0,244.0 222.0,227.0 222.0,210.0 222.0,193.0 222.0,176.0 222.0,159.0 222.0,142.0 222.0,125.0 222.0,108.0 157.0,98.0 131.0,108.0 92.0,145.0 79.0,173.0 66.0,201.0 66.0,218.0 66.0,252.0 66.0,269.0 66.0,286.0" style="fill:#C4C4C4;" />
<polygon data-section="Orchestra Center N-Q/Orchestra Sides A-Q/Mezzanine Center E-F" data-priority="2" class="38256" points="251.0,594.0 264.0,595.0 277.0,595.0 290.0,595.0 303.0,595.0 316.0,595.0 316.0,578.0 251.0,577.0 251.0,594.0" style="fill:#C4C4C4;" />
<polygon data-section="Orchestra Center N-Q/Orchestra Sides A-Q/Mezzanine Center E-F" data-priority="2" class="38256" points="355.0,595.0 368.0,595.0 381.0,595.0 394.0,595.0 407.0,595.0 420.0,594.0 420.0,577.0 355.0,578.0 355.0,595.0" style="fill:#C4C4C4;" />
</g>
<g class="grouped-Orchestra Sides N-P, S-T">
<polygon data-section="Orchestra Sides N-P, S-T" data-priority="2" class="38264" points="455.0,329.0 455.0,346.0 468.0,345.0 481.0,344.0 494.0,342.0 507.0,340.0 520.0,337.0 533.0,334.0 546.0,330.0 559.0,326.0 572.0,321.0 585.0,316.0 598.0,310.0 611.0,304.0 611.0,287.0 611.0,270.0 598.0,276.0 572.0,287.0 468.0,311.0 455.0,312.0 455.0,329.0" style="fill:#C4C4C4;" />
<polygon data-section="Orchestra Sides N-P, S-T" data-priority="2" class="38264" points="66.0,286.0 66.0,303.0 79.0,309.0 92.0,315.0 105.0,320.0 118.0,325.0 131.0,329.0 144.0,333.0 157.0,336.0 170.0,339.0 183.0,341.0 196.0,343.0 209.0,345.0 222.0,346.0 222.0,329.0 222.0,312.0 196.0,309.0 183.0,307.0 79.0,275.0 66.0,269.0 66.0,286.0" style="fill:#C4C4C4;" />
<polygon data-section="Orchestra Sides N-P, S-T" data-priority="2" class="38264" points="79.0,360.0 92.0,383.0 105.0,388.0 118.0,393.0 131.0,397.0 144.0,401.0 157.0,404.0 196.0,411.0 196.0,394.0 79.0,360.0" style="fill:#C4C4C4;" />
</g>
<g class="grouped-Orchestra Sides F-R/Mezzanine Sides A-D">
<polygon data-section="Orchestra Sides F-R/Mezzanine Sides A-D" data-priority="2" class="38265" points="66.0,286.0 66.0,303.0 79.0,343.0 92.0,349.0 105.0,354.0 118.0,359.0 131.0,363.0 144.0,367.0 157.0,370.0 170.0,373.0 183.0,375.0 196.0,377.0 209.0,379.0 222.0,380.0 222.0,363.0 222.0,346.0 222.0,329.0 222.0,312.0 222.0,295.0 222.0,278.0 222.0,261.0 222.0,244.0 222.0,227.0 222.0,210.0 222.0,193.0 196.0,190.0 183.0,188.0 105.0,167.0 92.0,162.0 79.0,173.0 66.0,201.0 66.0,218.0 66.0,252.0 66.0,269.0 66.0,286.0" style="fill:#C4C4C4;" />
<polygon data-section="Orchestra Sides F-R/Mezzanine Sides A-D" data-priority="2" class="38265" points="455.0,278.0 455.0,295.0 455.0,312.0 455.0,329.0 455.0,346.0 455.0,363.0 455.0,380.0 468.0,379.0 481.0,378.0 494.0,376.0 507.0,374.0 520.0,371.0 533.0,368.0 546.0,364.0 559.0,360.0 572.0,355.0 585.0,350.0 598.0,344.0 611.0,304.0 611.0,287.0 611.0,270.0 611.0,253.0 611.0,219.0 611.0,202.0 598.0,174.0 585.0,163.0 572.0,168.0 546.0,177.0 468.0,192.0 455.0,193.0 455.0,210.0 455.0,227.0 455.0,244.0 455.0,261.0 455.0,278.0" style="fill:#C4C4C4;" />
<polygon data-section="Orchestra Sides F-R/Mezzanine Sides A-D" data-priority="2" class="38265" points="50.0,458.0 50.0,475.0 50.0,492.0 63.0,498.0 76.0,504.0 89.0,510.0 102.0,515.0 115.0,520.0 128.0,524.0 141.0,528.0 154.0,531.0 167.0,534.0 180.0,536.0 193.0,538.0 206.0,540.0 219.0,541.0 219.0,524.0 219.0,507.0 219.0,490.0 193.0,487.0 102.0,464.0 89.0,459.0 50.0,458.0" style="fill:#C4C4C4;" />
<polygon data-section="Orchestra Sides F-R/Mezzanine Sides A-D" data-priority="2" class="38265" points="452.0,507.0 452.0,524.0 452.0,541.0 465.0,540.0 478.0,539.0 491.0,537.0 504.0,535.0 517.0,532.0 530.0,529.0 543.0,525.0 556.0,521.0 569.0,516.0 582.0,511.0 595.0,505.0 608.0,499.0 621.0,493.0 621.0,476.0 621.0,459.0 582.0,460.0 569.0,465.0 543.0,474.0 465.0,489.0 452.0,490.0 452.0,507.0" style="fill:#C4C4C4;" />
</g>
<g class="grouped-Orchestra Center R-S/Mezzanine Center E-H, Sides A-D">
<polygon data-section="Orchestra Center R-S/Mezzanine Center E-H, Sides A-D" data-priority="2" class="38266" points="267.0,402.0 293.0,403.0 319.0,404.0 332.0,404.0 345.0,404.0 358.0,404.0 384.0,403.0 410.0,402.0 423.0,401.0 423.0,384.0 397.0,385.0 280.0,385.0 254.0,384.0 254.0,401.0 267.0,402.0" style="fill:#C4C4C4;" />
<polygon data-section="Orchestra Center R-S/Mezzanine Center E-H, Sides A-D" data-priority="2" class="38266" points="355.0,629.0 368.0,629.0 381.0,629.0 394.0,629.0 407.0,629.0 420.0,628.0 420.0,611.0 420.0,594.0 420.0,577.0 355.0,578.0 355.0,595.0 355.0,612.0 355.0,629.0" style="fill:#C4C4C4;" />
<polygon data-section="Orchestra Center R-S/Mezzanine Center E-H, Sides A-D" data-priority="2" class="38266" points="251.0,594.0 251.0,611.0 251.0,628.0 264.0,629.0 277.0,629.0 290.0,629.0 303.0,629.0 316.0,629.0 316.0,612.0 316.0,595.0 316.0,578.0 251.0,577.0 251.0,594.0" style="fill:#C4C4C4;" />
<polygon data-section="Orchestra Center R-S/Mezzanine Center E-H, Sides A-D" data-priority="2" class="38266" points="50.0,458.0 50.0,475.0 50.0,492.0 63.0,498.0 76.0,504.0 89.0,510.0 102.0,515.0 115.0,520.0 128.0,524.0 141.0,528.0 154.0,531.0 167.0,534.0 180.0,536.0 193.0,538.0 206.0,540.0 219.0,541.0 219.0,524.0 219.0,507.0 219.0,490.0 193.0,487.0 102.0,464.0 89.0,459.0 50.0,458.0" style="fill:#C4C4C4;" />
<polygon data-section="Orchestra Center R-S/Mezzanine Center E-H, Sides A-D" data-priority="2" class="38266" points="452.0,507.0 452.0,524.0 452.0,541.0 465.0,540.0 478.0,539.0 491.0,537.0 504.0,535.0 517.0,532.0 530.0,529.0 543.0,525.0 556.0,521.0 569.0,516.0 582.0,511.0 595.0,505.0 608.0,499.0 621.0,493.0 621.0,476.0 621.0,459.0 582.0,460.0 569.0,465.0 543.0,474.0 465.0,489.0 452.0,490.0 452.0,507.0" style="fill:#C4C4C4;" />
</g>
<g class="grouped-Orchestra Center B-J/Mezzanine Center B-C, Sides A-B">
<polygon data-section="Orchestra Center B-J/Mezzanine Center B-C, Sides A-B" data-priority="2" class="38268" points="254.0,214.0 254.0,231.0 254.0,248.0 267.0,249.0 293.0,250.0 319.0,251.0 332.0,251.0 345.0,251.0 358.0,251.0 384.0,250.0 410.0,249.0 423.0,248.0 423.0,231.0 423.0,214.0 423.0,197.0 423.0,180.0 423.0,163.0 423.0,146.0 423.0,129.0 397.0,130.0 371.0,131.0 280.0,130.0 254.0,129.0 254.0,146.0 254.0,163.0 254.0,180.0 254.0,197.0 254.0,214.0" style="fill:#C4C4C4;" />
<polygon data-section="Orchestra Center B-J/Mezzanine Center B-C, Sides A-B" data-priority="2" class="38268" points="251.0,494.0 251.0,511.0 251.0,528.0 264.0,529.0 290.0,530.0 316.0,531.0 329.0,531.0 342.0,531.0 355.0,531.0 381.0,530.0 407.0,529.0 420.0,528.0 420.0,511.0 420.0,494.0 342.0,514.0 251.0,494.0" style="fill:#C4C4C4;" />
<polygon data-section="Orchestra Center B-J/Mezzanine Center B-C, Sides A-B" data-priority="2" class="38268" points="115.0,486.0 128.0,490.0 141.0,494.0 154.0,497.0 167.0,500.0 180.0,502.0 193.0,504.0 206.0,506.0 219.0,507.0 219.0,490.0 193.0,487.0 89.0,459.0 63.0,464.0 76.0,470.0 89.0,476.0 102.0,481.0 115.0,486.0" style="fill:#C4C4C4;" />
<polygon data-section="Orchestra Center B-J/Mezzanine Center B-C, Sides A-B" data-priority="2" class="38268" points="452.0,490.0 452.0,507.0 465.0,506.0 478.0,505.0 491.0,503.0 504.0,501.0 517.0,498.0 530.0,495.0 543.0,491.0 556.0,487.0 569.0,482.0 582.0,477.0 595.0,471.0 608.0,465.0 582.0,460.0 569.0,465.0 452.0,490.0" style="fill:#C4C4C4;" />
</g>
<g class="grouped-Orchestra Center N-Q/Orchestra Sides A-Q">
<polygon data-section="Orchestra Center N-Q/Orchestra Sides A-Q" data-priority="2" class="38270" points="254.0,367.0 267.0,368.0 293.0,369.0 319.0,370.0 332.0,370.0 345.0,370.0 358.0,370.0 384.0,369.0 410.0,368.0 423.0,367.0 423.0,350.0 423.0,333.0 423.0,316.0 397.0,317.0 371.0,318.0 280.0,317.0 254.0,316.0 254.0,333.0 254.0,350.0 254.0,367.0" style="fill:#C4C4C4;" />
<polygon data-section="Orchestra Center N-Q/Orchestra Sides A-Q" data-priority="2" class="38270" points="455.0,193.0 455.0,210.0 455.0,227.0 455.0,244.0 455.0,261.0 455.0,278.0 455.0,295.0 455.0,312.0 455.0,329.0 455.0,346.0 455.0,363.0 468.0,362.0 481.0,361.0 494.0,359.0 507.0,357.0 520.0,354.0 533.0,351.0 546.0,347.0 559.0,343.0 572.0,338.0 585.0,333.0 598.0,327.0 611.0,304.0 611.0,287.0 611.0,270.0 611.0,253.0 611.0,219.0 611.0,202.0 598.0,174.0 585.0,146.0 546.0,109.0 520.0,99.0 455.0,108.0 455.0,125.0 455.0,142.0 455.0,159.0 455.0,176.0 455.0,193.0" style="fill:#C4C4C4;" />
<polygon data-section="Orchestra Center N-Q/Orchestra Sides A-Q" data-priority="2" class="38270" points="66.0,286.0 66.0,303.0 79.0,326.0 92.0,332.0 105.0,337.0 118.0,342.0 131.0,346.0 144.0,350.0 157.0,353.0 170.0,356.0 183.0,358.0 196.0,360.0 209.0,362.0 222.0,363.0 222.0,346.0 222.0,329.0 222.0,312.0 222.0,295.0 222.0,278.0 222.0,261.0 222.0,244.0 222.0,227.0 222.0,210.0 222.0,193.0 222.0,176.0 222.0,159.0 222.0,142.0 222.0,125.0 222.0,108.0 157.0,98.0 131.0,108.0 92.0,145.0 79.0,173.0 66.0,201.0 66.0,218.0 66.0,252.0 66.0,269.0 66.0,286.0" style="fill:#C4C4C4;" />
</g>
<g class="grouped-Orchestra Center A-D, K-M/Orchestra Sides C-D, K-M/Mezzanine Center B-C, Sides A">
<polygon data-section="Orchestra Center A-D, K-M/Orchestra Sides C-D, K-M/Mezzanine Center B-C, Sides A" data-priority="2" class="49359" points="254.0,163.0 267.0,164.0 293.0,165.0 319.0,166.0 332.0,166.0 345.0,166.0 358.0,166.0 384.0,165.0 410.0,164.0 423.0,163.0 423.0,146.0 423.0,129.0 423.0,112.0 397.0,113.0 306.0,114.0 280.0,113.0 254.0,112.0 254.0,129.0 254.0,146.0 254.0,163.0" style="fill:#C4C4C4;" />
<polygon data-section="Orchestra Center A-D, K-M/Orchestra Sides C-D, K-M/Mezzanine Center B-C, Sides A" data-priority="2" class="49359" points="254.0,282.0 254.0,299.0 267.0,300.0 293.0,301.0 319.0,302.0 332.0,302.0 345.0,302.0 358.0,302.0 384.0,301.0 410.0,300.0 423.0,299.0 423.0,282.0 423.0,265.0 397.0,266.0 371.0,267.0 280.0,266.0 254.0,265.0 254.0,282.0" style="fill:#C4C4C4;" />
<polygon data-section="Orchestra Center A-D, K-M/Orchestra Sides C-D, K-M/Mezzanine Center B-C, Sides A" data-priority="2" class="49359" points="455.0,142.0 455.0,159.0 468.0,158.0 481.0,157.0 494.0,155.0 507.0,153.0 520.0,150.0 533.0,147.0 546.0,143.0 559.0,139.0 572.0,134.0 559.0,122.0 455.0,142.0" style="fill:#C4C4C4;" />
<polygon data-section="Orchestra Center A-D, K-M/Orchestra Sides C-D, K-M/Mezzanine Center B-C, Sides A" data-priority="2" class="49359" points="105.0,133.0 118.0,138.0 131.0,142.0 144.0,146.0 157.0,149.0 170.0,152.0 183.0,154.0 196.0,156.0 209.0,158.0 222.0,159.0 222.0,142.0 118.0,121.0 105.0,133.0" style="fill:#C4C4C4;" />
<polygon data-section="Orchestra Center A-D, K-M/Orchestra Sides C-D, K-M/Mezzanine Center B-C, Sides A" data-priority="2" class="49359" points="455.0,278.0 455.0,295.0 468.0,294.0 481.0,293.0 494.0,291.0 507.0,289.0 520.0,286.0 533.0,283.0 546.0,279.0 559.0,275.0 572.0,270.0 585.0,265.0 598.0,259.0 611.0,253.0 611.0,219.0 598.0,225.0 572.0,236.0 468.0,260.0 455.0,261.0 455.0,278.0" style="fill:#C4C4C4;" />
<polygon data-section="Orchestra Center A-D, K-M/Orchestra Sides C-D, K-M/Mezzanine Center B-C, Sides A" data-priority="2" class="49359" points="79.0,258.0 92.0,264.0 105.0,269.0 118.0,274.0 131.0,278.0 144.0,282.0 157.0,285.0 170.0,288.0 183.0,290.0 196.0,292.0 209.0,294.0 222.0,295.0 222.0,278.0 222.0,261.0 196.0,258.0 183.0,256.0 79.0,224.0 66.0,218.0 66.0,252.0 79.0,258.0" style="fill:#C4C4C4;" />
<polygon data-section="Orchestra Center A-D, K-M/Orchestra Sides C-D, K-M/Mezzanine Center B-C, Sides A" data-priority="2" class="49359" points="251.0,494.0 251.0,511.0 251.0,528.0 264.0,529.0 290.0,530.0 316.0,531.0 329.0,531.0 342.0,531.0 355.0,531.0 381.0,530.0 407.0,529.0 420.0,528.0 420.0,511.0 420.0,494.0 342.0,514.0 251.0,494.0" style="fill:#C4C4C4;" />
<polygon data-section="Orchestra Center A-D, K-M/Orchestra Sides C-D, K-M/Mezzanine Center B-C, Sides A" data-priority="2" class="49359" points="115.0,486.0 128.0,490.0 141.0,494.0 154.0,497.0 167.0,500.0 180.0,502.0 193.0,504.0 206.0,506.0 219.0,507.0 219.0,490.0 193.0,487.0 89.0,459.0 63.0,464.0 76.0,470.0 89.0,476.0 102.0,481.0 115.0,486.0" style="fill:#C4C4C4;" />
<polygon data-section="Orchestra Center A-D, K-M/Orchestra Sides C-D, K-M/Mezzanine Center B-C, Sides A" data-priority="2" class="49359" points="452.0,490.0 452.0,507.0 465.0,506.0 478.0,505.0 491.0,503.0 504.0,501.0 517.0,498.0 530.0,495.0 543.0,491.0 556.0,487.0 569.0,482.0 582.0,477.0 595.0,471.0 608.0,465.0 582.0,460.0 569.0,465.0 452.0,490.0" style="fill:#C4C4C4;" />
</g>
<g class="grouped-Orchestra Sides N-P and S-T/Mezzanine Center E-H, Sides A-D">
<polygon data-section="Orchestra Sides N-P and S-T/Mezzanine Center E-H, Sides A-D" data-priority="2" class="50438" points="455.0,329.0 455.0,346.0 468.0,345.0 481.0,344.0 494.0,342.0 507.0,340.0 520.0,337.0 533.0,334.0 546.0,330.0 559.0,326.0 572.0,321.0 585.0,316.0 598.0,310.0 611.0,304.0 611.0,287.0 611.0,270.0 598.0,276.0 572.0,287.0 468.0,311.0 455.0,312.0 455.0,329.0" style="fill:#C4C4C4;" />
<polygon data-section="Orchestra Sides N-P and S-T/Mezzanine Center E-H, Sides A-D" data-priority="2" class="50438" points="66.0,286.0 66.0,303.0 79.0,309.0 92.0,315.0 105.0,320.0 118.0,325.0 131.0,329.0 144.0,333.0 157.0,336.0 170.0,339.0 183.0,341.0 196.0,343.0 209.0,345.0 222.0,346.0 222.0,329.0 222.0,312.0 196.0,309.0 183.0,307.0 79.0,275.0 66.0,269.0 66.0,286.0" style="fill:#C4C4C4;" />
<polygon data-section="Orchestra Sides N-P and S-T/Mezzanine Center E-H, Sides A-D" data-priority="2" class="50438" points="79.0,360.0 92.0,383.0 105.0,388.0 118.0,393.0 131.0,397.0 144.0,401.0 157.0,404.0 196.0,411.0 196.0,394.0 79.0,360.0" style="fill:#C4C4C4;" />
<polygon data-section="Orchestra Sides N-P and S-T/Mezzanine Center E-H, Sides A-D" data-priority="2" class="50438" points="355.0,629.0 368.0,629.0 381.0,629.0 394.0,629.0 407.0,629.0 420.0,628.0 420.0,611.0 420.0,594.0 420.0,577.0 355.0,578.0 355.0,595.0 355.0,612.0 355.0,629.0" style="fill:#C4C4C4;" />
<polygon data-section="Orchestra Sides N-P and S-T/Mezzanine Center E-H, Sides A-D" data-priority="2" class="50438" points="251.0,594.0 251.0,611.0 251.0,628.0 264.0,629.0 277.0,629.0 290.0,629.0 303.0,629.0 316.0,629.0 316.0,612.0 316.0,595.0 316.0,578.0 251.0,577.0 251.0,594.0" style="fill:#C4C4C4;" />
<polygon data-section="Orchestra Sides N-P and S-T/Mezzanine Center E-H, Sides A-D" data-priority="2" class="50438" points="50.0,458.0 50.0,475.0 50.0,492.0 63.0,498.0 76.0,504.0 89.0,510.0 102.0,515.0 115.0,520.0 128.0,524.0 141.0,528.0 154.0,531.0 167.0,534.0 180.0,536.0 193.0,538.0 206.0,540.0 219.0,541.0 219.0,524.0 219.0,507.0 219.0,490.0 193.0,487.0 102.0,464.0 89.0,459.0 50.0,458.0" style="fill:#C4C4C4;" />
<polygon data-section="Orchestra Sides N-P and S-T/Mezzanine Center E-H, Sides A-D" data-priority="2" class="50438" points="452.0,507.0 452.0,524.0 452.0,541.0 465.0,540.0 478.0,539.0 491.0,537.0 504.0,535.0 517.0,532.0 530.0,529.0 543.0,525.0 556.0,521.0 569.0,516.0 582.0,511.0 595.0,505.0 608.0,499.0 621.0,493.0 621.0,476.0 621.0,459.0 582.0,460.0 569.0,465.0 543.0,474.0 465.0,489.0 452.0,490.0 452.0,507.0" style="fill:#C4C4C4;" />
</g>
<g class="grouped-Orchestra Center R-S/Orchestra Sides F-M and N-R/Mezzanine Center E-F">
<polygon data-section="Orchestra Center R-S/Orchestra Sides F-M and N-R/Mezzanine Center E-F" data-priority="2" class="51603" points="267.0,402.0 293.0,403.0 319.0,404.0 332.0,404.0 345.0,404.0 358.0,404.0 384.0,403.0 410.0,402.0 423.0,401.0 423.0,384.0 397.0,385.0 280.0,385.0 254.0,384.0 254.0,401.0 267.0,402.0" style="fill:#C4C4C4;" />
<polygon data-section="Orchestra Center R-S/Orchestra Sides F-M and N-R/Mezzanine Center E-F" data-priority="2" class="51603" points="66.0,286.0 66.0,303.0 79.0,343.0 92.0,349.0 105.0,354.0 118.0,359.0 131.0,363.0 144.0,367.0 157.0,370.0 170.0,373.0 183.0,375.0 196.0,377.0 209.0,379.0 222.0,380.0 222.0,363.0 222.0,346.0 222.0,329.0 222.0,312.0 222.0,295.0 222.0,278.0 222.0,261.0 222.0,244.0 222.0,227.0 222.0,210.0 222.0,193.0 196.0,190.0 183.0,188.0 105.0,167.0 92.0,162.0 79.0,173.0 66.0,201.0 66.0,218.0 66.0,252.0 66.0,269.0 66.0,286.0" style="fill:#C4C4C4;" />
<polygon data-section="Orchestra Center R-S/Orchestra Sides F-M and N-R/Mezzanine Center E-F" data-priority="2" class="51603" points="455.0,278.0 455.0,295.0 455.0,312.0 455.0,329.0 455.0,346.0 455.0,363.0 455.0,380.0 468.0,379.0 481.0,378.0 494.0,376.0 507.0,374.0 520.0,371.0 533.0,368.0 546.0,364.0 559.0,360.0 572.0,355.0 585.0,350.0 598.0,344.0 611.0,304.0 611.0,287.0 611.0,270.0 611.0,253.0 611.0,219.0 611.0,202.0 598.0,174.0 585.0,163.0 572.0,168.0 546.0,177.0 468.0,192.0 455.0,193.0 455.0,210.0 455.0,227.0 455.0,244.0 455.0,261.0 455.0,278.0" style="fill:#C4C4C4;" />
<polygon data-section="Orchestra Center R-S/Orchestra Sides F-M and N-R/Mezzanine Center E-F" data-priority="2" class="51603" points="251.0,594.0 264.0,595.0 277.0,595.0 290.0,595.0 303.0,595.0 316.0,595.0 316.0,578.0 251.0,577.0 251.0,594.0" style="fill:#C4C4C4;" />
<polygon data-section="Orchestra Center R-S/Orchestra Sides F-M and N-R/Mezzanine Center E-F" data-priority="2" class="51603" points="355.0,595.0 368.0,595.0 381.0,595.0 394.0,595.0 407.0,595.0 420.0,594.0 420.0,577.0 355.0,578.0 355.0,595.0" style="fill:#C4C4C4;" />
</g>
<g class="grouped-OrchestraCenterN-Q/OrchestraSidesA-B, C-M and N-Q/Mezzanine Center B-C,Sides A-B">
<polygon data-section="OrchestraCenterN-Q/OrchestraSidesA-B, C-M and N-Q/Mezzanine Center B-C,Sides A-B" data-priority="2" class="51604" points="254.0,367.0 267.0,368.0 293.0,369.0 319.0,370.0 332.0,370.0 345.0,370.0 358.0,370.0 384.0,369.0 410.0,368.0 423.0,367.0 423.0,350.0 423.0,333.0 423.0,316.0 397.0,317.0 371.0,318.0 280.0,317.0 254.0,316.0 254.0,333.0 254.0,350.0 254.0,367.0" style="fill:#C4C4C4;" />
<polygon data-section="OrchestraCenterN-Q/OrchestraSidesA-B, C-M and N-Q/Mezzanine Center B-C,Sides A-B" data-priority="2" class="51604" points="455.0,193.0 455.0,210.0 455.0,227.0 455.0,244.0 455.0,261.0 455.0,278.0 455.0,295.0 455.0,312.0 455.0,329.0 455.0,346.0 455.0,363.0 468.0,362.0 481.0,361.0 494.0,359.0 507.0,357.0 520.0,354.0 533.0,351.0 546.0,347.0 559.0,343.0 572.0,338.0 585.0,333.0 598.0,327.0 611.0,304.0 611.0,287.0 611.0,270.0 611.0,253.0 611.0,219.0 611.0,202.0 598.0,174.0 585.0,146.0 546.0,109.0 520.0,99.0 455.0,108.0 455.0,125.0 455.0,142.0 455.0,159.0 455.0,176.0 455.0,193.0" style="fill:#C4C4C4;" />
<polygon data-section="OrchestraCenterN-Q/OrchestraSidesA-B, C-M and N-Q/Mezzanine Center B-C,Sides A-B" data-priority="2" class="51604" points="66.0,269.0 66.0,286.0 66.0,303.0 79.0,326.0 92.0,332.0 105.0,337.0 118.0,342.0 131.0,346.0 144.0,350.0 157.0,353.0 170.0,356.0 183.0,358.0 196.0,360.0 209.0,362.0 222.0,363.0 222.0,346.0 222.0,329.0 222.0,312.0 222.0,295.0 222.0,278.0 222.0,261.0 222.0,244.0 222.0,227.0 222.0,210.0 222.0,193.0 222.0,176.0 222.0,159.0 222.0,142.0 222.0,125.0 222.0,108.0 157.0,98.0 131.0,108.0 92.0,145.0 79.0,173.0 66.0,201.0 66.0,218.0 66.0,252.0 66.0,269.0" style="fill:#C4C4C4;" />
<polygon data-section="OrchestraCenterN-Q/OrchestraSidesA-B, C-M and N-Q/Mezzanine Center B-C,Sides A-B" data-priority="2" class="51604" points="251.0,494.0 251.0,511.0 251.0,528.0 264.0,529.0 290.0,530.0 316.0,531.0 329.0,531.0 342.0,531.0 355.0,531.0 381.0,530.0 407.0,529.0 420.0,528.0 420.0,511.0 420.0,494.0 342.0,514.0 251.0,494.0" style="fill:#C4C4C4;" />
<polygon data-section="OrchestraCenterN-Q/OrchestraSidesA-B, C-M and N-Q/Mezzanine Center B-C,Sides A-B" data-priority="2" class="51604" points="115.0,486.0 128.0,490.0 141.0,494.0 154.0,497.0 167.0,500.0 180.0,502.0 193.0,504.0 206.0,506.0 219.0,507.0 219.0,490.0 193.0,487.0 89.0,459.0 63.0,464.0 76.0,470.0 89.0,476.0 102.0,481.0 115.0,486.0" style="fill:#C4C4C4;" />
<polygon data-section="OrchestraCenterN-Q/OrchestraSidesA-B, C-M and N-Q/Mezzanine Center B-C,Sides A-B" data-priority="2" class="51604" points="452.0,490.0 452.0,507.0 465.0,506.0 478.0,505.0 491.0,503.0 504.0,501.0 517.0,498.0 530.0,495.0 543.0,491.0 556.0,487.0 569.0,482.0 582.0,477.0 595.0,471.0 608.0,465.0 582.0,460.0 569.0,465.0 452.0,490.0" style="fill:#C4C4C4;" />
</g>
<g class="grouped-Mezzanine Center E-H, Sides A-D/Mezzanine Sides A-D">
<polygon data-section="Mezzanine Center E-H, Sides A-D/Mezzanine Sides A-D" data-priority="2" class="60354" points="355.0,629.0 368.0,629.0 381.0,629.0 394.0,629.0 407.0,629.0 420.0,628.0 420.0,611.0 420.0,594.0 420.0,577.0 355.0,578.0 355.0,595.0 355.0,612.0 355.0,629.0" style="fill:#C4C4C4;" />
<polygon data-section="Mezzanine Center E-H, Sides A-D/Mezzanine Sides A-D" data-priority="2" class="60354" points="251.0,594.0 251.0,611.0 251.0,628.0 264.0,629.0 277.0,629.0 290.0,629.0 303.0,629.0 316.0,629.0 316.0,612.0 316.0,595.0 316.0,578.0 251.0,577.0 251.0,594.0" style="fill:#C4C4C4;" />
<polygon data-section="Mezzanine Center E-H, Sides A-D/Mezzanine Sides A-D" data-priority="2" class="60354" points="50.0,458.0 50.0,475.0 50.0,492.0 63.0,498.0 76.0,504.0 89.0,510.0 102.0,515.0 115.0,520.0 128.0,524.0 141.0,528.0 154.0,531.0 167.0,534.0 180.0,536.0 193.0,538.0 206.0,540.0 219.0,541.0 219.0,524.0 219.0,507.0 219.0,490.0 193.0,487.0 102.0,464.0 89.0,459.0 50.0,458.0" style="fill:#C4C4C4;" />
<polygon data-section="Mezzanine Center E-H, Sides A-D/Mezzanine Sides A-D" data-priority="2" class="60354" points="452.0,507.0 452.0,524.0 452.0,541.0 465.0,540.0 478.0,539.0 491.0,537.0 504.0,535.0 517.0,532.0 530.0,529.0 543.0,525.0 556.0,521.0 569.0,516.0 582.0,511.0 595.0,505.0 608.0,499.0 621.0,493.0 621.0,476.0 621.0,459.0 582.0,460.0 569.0,465.0 543.0,474.0 465.0,489.0 452.0,490.0 452.0,507.0" style="fill:#C4C4C4;" />
</g>
<g class="grouped-Orchestra Center B-D, G-J, A-D, K-M/Orchestra Sides E-J, C-D, K-M/Mezzanine Center A">
<polygon data-section="Orchestra Center B-D, G-J, A-D, K-M/Orchestra Sides E-J, C-D, K-M/Mezzanine Center A" data-priority="2" class="60355" points="267.0,164.0 293.0,165.0 319.0,166.0 332.0,166.0 345.0,166.0 358.0,166.0 384.0,165.0 410.0,164.0 423.0,163.0 423.0,146.0 423.0,129.0 423.0,112.0 397.0,113.0 306.0,114.0 280.0,113.0 254.0,112.0 254.0,129.0 254.0,146.0 254.0,163.0 267.0,164.0" style="fill:#C4C4C4;" />
<polygon data-section="Orchestra Center B-D, G-J, A-D, K-M/Orchestra Sides E-J, C-D, K-M/Mezzanine Center A" data-priority="2" class="60355" points="254.0,214.0 254.0,231.0 254.0,248.0 254.0,265.0 254.0,282.0 254.0,299.0 267.0,300.0 293.0,301.0 319.0,302.0 332.0,302.0 345.0,302.0 358.0,302.0 384.0,301.0 410.0,300.0 423.0,299.0 423.0,282.0 423.0,265.0 423.0,248.0 423.0,231.0 423.0,214.0 397.0,215.0 306.0,216.0 280.0,215.0 254.0,214.0" style="fill:#C4C4C4;" />
<polygon data-section="Orchestra Center B-D, G-J, A-D, K-M/Orchestra Sides E-J, C-D, K-M/Mezzanine Center A" data-priority="2" class="60355" points="79.0,258.0 92.0,264.0 105.0,269.0 118.0,274.0 131.0,278.0 144.0,282.0 157.0,285.0 170.0,288.0 183.0,290.0 196.0,292.0 209.0,294.0 222.0,295.0 222.0,278.0 222.0,261.0 222.0,244.0 222.0,227.0 222.0,210.0 222.0,193.0 222.0,176.0 222.0,159.0 222.0,142.0 196.0,139.0 118.0,121.0 105.0,133.0 92.0,145.0 79.0,173.0 66.0,201.0 66.0,218.0 66.0,252.0 79.0,258.0" style="fill:#C4C4C4;" />
<polygon data-section="Orchestra Center B-D, G-J, A-D, K-M/Orchestra Sides E-J, C-D, K-M/Mezzanine Center A" data-priority="2" class="60355" points="455.0,210.0 455.0,227.0 455.0,244.0 455.0,261.0 455.0,278.0 455.0,295.0 468.0,294.0 481.0,293.0 494.0,291.0 507.0,289.0 520.0,286.0 533.0,283.0 546.0,279.0 559.0,275.0 572.0,270.0 585.0,265.0 598.0,259.0 611.0,253.0 611.0,219.0 611.0,202.0 598.0,174.0 585.0,146.0 572.0,134.0 559.0,122.0 546.0,126.0 468.0,141.0 455.0,142.0 455.0,159.0 455.0,176.0 455.0,193.0 455.0,210.0" style="fill:#C4C4C4;" />
<polygon data-section="Orchestra Center B-D, G-J, A-D, K-M/Orchestra Sides E-J, C-D, K-M/Mezzanine Center A" data-priority="2" class="60355" points="264.0,495.0 251.0,511.0 264.0,512.0 290.0,513.0 316.0,514.0 329.0,514.0 342.0,514.0 355.0,514.0 381.0,513.0 407.0,512.0 420.0,511.0 407.0,495.0 394.0,495.0 303.0,496.0 277.0,495.0 264.0,495.0" style="fill:#C4C4C4;" />
</g>
</g></g></svg>