<svg viewbox="0 0 874.0 1314.71" xmlns="http://www.w3.org/2000/svg">
<g id="stage">
<rect x="200" y="0" width="474.0" height="100" fill="#C4C4C4" />
<text font-size="28px" x="437.0" y="50.0" text-anchor="middle" dominant-baseline="middle">STAGE</text>
</g>
<g transform="translate(0, 100)">
<g class="primary-clusters">
<text x="437.0" y="85" font-size="28px" text-anchor="middle" dominant-baseline="middle">ORCHESTRA</text><text x="437.0" y="654.0" font-size="28px" text-anchor="middle" dominant-baseline="middle">MEZZANINE</text><g class="grouped-orchestra cluster0">
<polygon data-section="orchestra" data-priority="-1" class="n/a" points="56.0,511.0 134.0,571.0 147.0,576.0 160.0,581.0 173.0,585.0 186.0,589.0 199.0,593.0 212.0,596.0 225.0,599.0 238.0,602.0 251.0,605.0 264.0,607.0 277.0,609.0 277.0,592.0 277.0,575.0 277.0,558.0 277.0,541.0 277.0,524.0 277.0,507.0 277.0,490.0 277.0,473.0 277.0,456.0 277.0,439.0 225.0,429.0 212.0,426.0 186.0,419.0 173.0,415.0 121.0,395.0 56.0,358.0 44.0,419.0 43.0,436.0 44.0,470.0 56.0,511.0" style="fill:#C4C4C4;" />
</g>
<g class="grouped-orchestra cluster1">
<polygon data-section="orchestra" data-priority="-1" class="n/a" points="69.0,316.0 82.0,324.0 95.0,331.0 108.0,338.0 121.0,344.0 134.0,350.0 147.0,355.0 160.0,360.0 173.0,364.0 186.0,368.0 199.0,372.0 212.0,375.0 225.0,378.0 238.0,381.0 251.0,384.0 264.0,386.0 277.0,388.0 277.0,371.0 277.0,354.0 277.0,337.0 277.0,320.0 277.0,303.0 277.0,286.0 277.0,269.0 277.0,252.0 277.0,235.0 277.0,218.0 277.0,201.0 277.0,184.0 277.0,167.0 277.0,150.0 277.0,133.0 277.0,116.0 264.0,114.0 251.0,112.0 225.0,123.0 186.0,147.0 121.0,208.0 69.0,282.0 56.0,307.0 69.0,316.0" style="fill:#C4C4C4;" />
</g>
<g class="grouped-orchestra cluster2">
<polygon data-section="orchestra" data-priority="-1" class="n/a" points="312.0,226.0 312.0,243.0 312.0,260.0 312.0,277.0 312.0,294.0 312.0,311.0 312.0,328.0 312.0,345.0 312.0,362.0 312.0,379.0 312.0,396.0 312.0,413.0 312.0,430.0 312.0,464.0 312.0,481.0 312.0,498.0 312.0,515.0 312.0,532.0 312.0,549.0 312.0,566.0 325.0,586.0 338.0,589.0 351.0,591.0 364.0,593.0 377.0,595.0 390.0,596.0 403.0,597.0 416.0,598.0 429.0,598.0 442.0,597.0 455.0,596.0 468.0,595.0 481.0,593.0 494.0,591.0 507.0,589.0 520.0,586.0 533.0,566.0 533.0,549.0 533.0,532.0 533.0,515.0 533.0,498.0 533.0,481.0 533.0,464.0 533.0,430.0 533.0,413.0 533.0,396.0 533.0,379.0 533.0,362.0 533.0,345.0 533.0,328.0 533.0,311.0 533.0,294.0 533.0,277.0 533.0,260.0 533.0,243.0 533.0,226.0 533.0,209.0 533.0,192.0 533.0,175.0 533.0,158.0 533.0,141.0 533.0,124.0 520.0,127.0 494.0,132.0 481.0,134.0 390.0,137.0 364.0,134.0 351.0,132.0 325.0,127.0 312.0,124.0 312.0,141.0 312.0,158.0 312.0,175.0 312.0,192.0 312.0,209.0 312.0,226.0" style="fill:#C4C4C4;" />
</g>
<g class="grouped-orchestra cluster3">
<polygon data-section="orchestra" data-priority="-1" class="n/a" points="568.0,522.0 568.0,539.0 568.0,556.0 568.0,573.0 568.0,590.0 568.0,607.0 581.0,605.0 594.0,603.0 607.0,600.0 620.0,597.0 633.0,594.0 646.0,591.0 659.0,587.0 672.0,583.0 685.0,579.0 698.0,574.0 711.0,569.0 789.0,509.0 801.0,468.0 802.0,434.0 801.0,417.0 789.0,356.0 724.0,393.0 672.0,413.0 659.0,417.0 633.0,424.0 620.0,427.0 568.0,437.0 568.0,454.0 568.0,471.0 568.0,488.0 568.0,505.0 568.0,522.0" style="fill:#C4C4C4;" />
</g>
<g class="grouped-orchestra cluster4">
<polygon data-section="orchestra" data-priority="-1" class="n/a" points="568.0,133.0 568.0,150.0 568.0,167.0 568.0,184.0 568.0,201.0 568.0,218.0 568.0,235.0 568.0,252.0 568.0,269.0 568.0,286.0 568.0,303.0 568.0,320.0 568.0,337.0 568.0,354.0 568.0,371.0 568.0,388.0 581.0,386.0 594.0,384.0 607.0,381.0 620.0,378.0 633.0,375.0 646.0,372.0 659.0,368.0 672.0,364.0 685.0,360.0 698.0,355.0 711.0,350.0 724.0,344.0 737.0,338.0 750.0,331.0 763.0,324.0 776.0,316.0 789.0,307.0 776.0,282.0 724.0,208.0 659.0,147.0 620.0,123.0 594.0,112.0 581.0,114.0 568.0,116.0 568.0,133.0" style="fill:#C4C4C4;" />
</g>
<g class="grouped-mezzanine cluster0">
<polygon data-section="mezzanine" data-priority="-1" class="n/a" points="69.0,918.0 134.0,986.0 147.0,991.0 160.0,996.0 173.0,1000.0 186.0,1004.0 199.0,1008.0 212.0,1011.0 225.0,1014.0 238.0,1017.0 251.0,1020.0 264.0,1022.0 277.0,1024.0 277.0,1007.0 277.0,990.0 277.0,973.0 277.0,956.0 277.0,939.0 277.0,922.0 277.0,905.0 225.0,895.0 212.0,892.0 186.0,885.0 173.0,881.0 69.0,833.0 69.0,884.0 69.0,901.0 69.0,918.0" style="fill:#C4C4C4;" />
</g>
<g class="grouped-mezzanine cluster1">
<polygon data-section="mezzanine" data-priority="-1" class="n/a" points="44.0,732.0 56.0,773.0 82.0,807.0 95.0,814.0 108.0,821.0 121.0,827.0 134.0,833.0 147.0,838.0 160.0,843.0 173.0,847.0 186.0,851.0 199.0,855.0 212.0,858.0 225.0,861.0 238.0,864.0 251.0,867.0 264.0,869.0 277.0,871.0 277.0,854.0 277.0,837.0 277.0,820.0 264.0,818.0 238.0,813.0 225.0,810.0 134.0,765.0 69.0,663.0 56.0,654.0 44.0,647.0 44.0,664.0 44.0,681.0 44.0,698.0 44.0,715.0 44.0,732.0" style="fill:#C4C4C4;" />
</g>
<g class="grouped-mezzanine cluster2">
<polygon data-section="mezzanine" data-priority="-1" class="n/a" points="312.0,946.0 312.0,963.0 351.0,1022.0 364.0,1024.0 377.0,1026.0 390.0,1027.0 403.0,1028.0 416.0,1029.0 429.0,1029.0 442.0,1028.0 455.0,1027.0 468.0,1026.0 481.0,1024.0 494.0,1022.0 533.0,963.0 533.0,946.0 533.0,929.0 533.0,912.0 533.0,861.0 533.0,844.0 533.0,827.0 520.0,830.0 494.0,835.0 481.0,837.0 364.0,837.0 351.0,835.0 325.0,830.0 312.0,827.0 312.0,844.0 312.0,861.0 312.0,912.0 312.0,929.0 312.0,946.0" style="fill:#C4C4C4;" />
</g>
<g class="grouped-mezzanine cluster3">
<polygon data-section="mezzanine" data-priority="-1" class="n/a" points="568.0,936.0 568.0,953.0 568.0,970.0 568.0,987.0 568.0,1004.0 568.0,1021.0 581.0,1019.0 594.0,1017.0 607.0,1014.0 620.0,1011.0 633.0,1008.0 646.0,1005.0 659.0,1001.0 672.0,997.0 685.0,993.0 698.0,988.0 711.0,983.0 724.0,977.0 776.0,915.0 776.0,898.0 776.0,881.0 776.0,830.0 672.0,878.0 659.0,882.0 633.0,889.0 620.0,892.0 568.0,902.0 568.0,919.0 568.0,936.0" style="fill:#C4C4C4;" />
</g>
<g class="grouped-mezzanine cluster4">
<polygon data-section="mezzanine" data-priority="-1" class="n/a" points="581.0,815.0 568.0,817.0 568.0,834.0 568.0,851.0 568.0,868.0 581.0,866.0 594.0,864.0 607.0,861.0 620.0,858.0 633.0,855.0 646.0,852.0 659.0,848.0 672.0,844.0 685.0,840.0 698.0,835.0 711.0,830.0 724.0,824.0 737.0,818.0 750.0,811.0 763.0,804.0 789.0,770.0 801.0,729.0 801.0,712.0 801.0,695.0 801.0,678.0 801.0,661.0 801.0,644.0 789.0,651.0 776.0,660.0 711.0,762.0 620.0,807.0 607.0,810.0 581.0,815.0" style="fill:#C4C4C4;" />
</g>
</g>
<g class="grouped-Rear Mezzanine">
<polygon data-section="Rear Mezzanine" data-priority="1" class="53014" points="568.0,987.0 568.0,1004.0 568.0,1021.0 581.0,1019.0 594.0,1017.0 607.0,1014.0 620.0,1011.0 633.0,1008.0 646.0,1005.0 659.0,1001.0 672.0,997.0 685.0,993.0 698.0,988.0 711.0,983.0 724.0,977.0 776.0,915.0 776.0,898.0 776.0,881.0 659.0,933.0 633.0,940.0 620.0,943.0 568.0,953.0 568.0,970.0 568.0,987.0" style="fill:#C4C4C4;" />
<polygon data-section="Rear Mezzanine" data-priority="1" class="53014" points="312.0,963.0 351.0,1022.0 364.0,1024.0 377.0,1026.0 390.0,1027.0 403.0,1028.0 416.0,1029.0 429.0,1029.0 442.0,1028.0 455.0,1027.0 468.0,1026.0 481.0,1024.0 494.0,1022.0 533.0,963.0 520.0,966.0 494.0,971.0 351.0,971.0 325.0,966.0 312.0,963.0" style="fill:#C4C4C4;" />
<polygon data-section="Rear Mezzanine" data-priority="1" class="53014" points="69.0,901.0 69.0,918.0 134.0,986.0 147.0,991.0 160.0,996.0 173.0,1000.0 186.0,1004.0 199.0,1008.0 212.0,1011.0 225.0,1014.0 238.0,1017.0 251.0,1020.0 264.0,1022.0 277.0,1024.0 277.0,1007.0 277.0,990.0 277.0,973.0 277.0,956.0 225.0,946.0 212.0,943.0 186.0,936.0 69.0,884.0 69.0,901.0" style="fill:#C4C4C4;" />
</g>
<g class="grouped-Rear Orchestra/Mid Mezzanine/Rear Mezzanine">
<polygon data-section="Rear Orchestra/Mid Mezzanine/Rear Mezzanine" data-priority="1" class="53015" points="312.0,549.0 312.0,566.0 325.0,586.0 338.0,589.0 351.0,591.0 364.0,593.0 377.0,595.0 390.0,596.0 403.0,597.0 416.0,598.0 429.0,598.0 442.0,597.0 455.0,596.0 468.0,595.0 481.0,593.0 494.0,591.0 507.0,589.0 520.0,586.0 533.0,566.0 533.0,549.0 533.0,532.0 533.0,515.0 533.0,498.0 533.0,481.0 520.0,484.0 494.0,489.0 481.0,491.0 364.0,491.0 351.0,489.0 325.0,484.0 312.0,481.0 312.0,498.0 312.0,515.0 312.0,532.0 312.0,549.0" style="fill:#C4C4C4;" />
<polygon data-section="Rear Orchestra/Mid Mezzanine/Rear Mezzanine" data-priority="1" class="53015" points="44.0,470.0 56.0,511.0 134.0,571.0 147.0,576.0 160.0,581.0 173.0,585.0 186.0,589.0 199.0,593.0 212.0,596.0 225.0,599.0 238.0,602.0 251.0,605.0 264.0,607.0 277.0,609.0 277.0,592.0 277.0,575.0 277.0,558.0 277.0,541.0 277.0,524.0 277.0,507.0 277.0,490.0 277.0,473.0 225.0,463.0 212.0,460.0 186.0,453.0 173.0,449.0 121.0,429.0 56.0,392.0 44.0,419.0 43.0,436.0 44.0,470.0" style="fill:#C4C4C4;" />
<polygon data-section="Rear Orchestra/Mid Mezzanine/Rear Mezzanine" data-priority="1" class="53015" points="568.0,505.0 568.0,522.0 568.0,539.0 568.0,556.0 568.0,573.0 568.0,590.0 568.0,607.0 581.0,605.0 594.0,603.0 607.0,600.0 620.0,597.0 633.0,594.0 646.0,591.0 659.0,587.0 672.0,583.0 685.0,579.0 698.0,574.0 711.0,569.0 789.0,509.0 801.0,468.0 802.0,434.0 801.0,417.0 789.0,390.0 724.0,427.0 672.0,447.0 659.0,451.0 633.0,458.0 620.0,461.0 568.0,471.0 568.0,488.0 568.0,505.0" style="fill:#C4C4C4;" />
<polygon data-section="Rear Orchestra/Mid Mezzanine/Rear Mezzanine" data-priority="1" class="53015" points="312.0,861.0 312.0,912.0 312.0,929.0 312.0,946.0 312.0,963.0 351.0,1022.0 364.0,1024.0 377.0,1026.0 390.0,1027.0 403.0,1028.0 416.0,1029.0 429.0,1029.0 442.0,1028.0 455.0,1027.0 468.0,1026.0 481.0,1024.0 494.0,1022.0 533.0,963.0 533.0,946.0 533.0,929.0 533.0,912.0 533.0,861.0 520.0,864.0 494.0,869.0 481.0,871.0 364.0,871.0 351.0,869.0 325.0,864.0 312.0,861.0" style="fill:#C4C4C4;" />
<polygon data-section="Rear Orchestra/Mid Mezzanine/Rear Mezzanine" data-priority="1" class="53015" points="69.0,918.0 134.0,986.0 147.0,991.0 160.0,996.0 173.0,1000.0 186.0,1004.0 199.0,1008.0 212.0,1011.0 225.0,1014.0 238.0,1017.0 251.0,1020.0 264.0,1022.0 277.0,1024.0 277.0,1007.0 277.0,990.0 277.0,973.0 277.0,956.0 277.0,939.0 277.0,922.0 277.0,905.0 225.0,895.0 212.0,892.0 186.0,885.0 173.0,881.0 69.0,833.0 69.0,884.0 69.0,901.0 69.0,918.0" style="fill:#C4C4C4;" />
<polygon data-section="Rear Orchestra/Mid Mezzanine/Rear Mezzanine" data-priority="1" class="53015" points="568.0,868.0 581.0,866.0 594.0,864.0 607.0,861.0 620.0,858.0 633.0,855.0 646.0,852.0 659.0,848.0 672.0,844.0 685.0,840.0 698.0,835.0 711.0,830.0 724.0,824.0 737.0,818.0 750.0,811.0 763.0,804.0 776.0,779.0 620.0,841.0 568.0,851.0 568.0,868.0" style="fill:#C4C4C4;" />
<polygon data-section="Rear Orchestra/Mid Mezzanine/Rear Mezzanine" data-priority="1" class="53015" points="568.0,936.0 568.0,953.0 568.0,970.0 568.0,987.0 568.0,1004.0 568.0,1021.0 581.0,1019.0 594.0,1017.0 607.0,1014.0 620.0,1011.0 633.0,1008.0 646.0,1005.0 659.0,1001.0 672.0,997.0 685.0,993.0 698.0,988.0 711.0,983.0 724.0,977.0 776.0,915.0 776.0,898.0 776.0,881.0 776.0,830.0 672.0,878.0 659.0,882.0 633.0,889.0 620.0,892.0 568.0,902.0 568.0,919.0 568.0,936.0" style="fill:#C4C4C4;" />
<polygon data-section="Rear Orchestra/Mid Mezzanine/Rear Mezzanine" data-priority="1" class="53015" points="108.0,821.0 121.0,827.0 134.0,833.0 147.0,838.0 160.0,843.0 173.0,847.0 186.0,851.0 199.0,855.0 212.0,858.0 225.0,861.0 238.0,864.0 251.0,867.0 264.0,869.0 277.0,871.0 277.0,854.0 225.0,844.0 69.0,782.0 82.0,807.0 95.0,814.0 108.0,821.0" style="fill:#C4C4C4;" />
</g>
<g class="grouped-Mid Mezzanine/Rear Mezzanine">
<polygon data-section="Mid Mezzanine/Rear Mezzanine" data-priority="1" class="53019" points="312.0,861.0 312.0,912.0 312.0,929.0 312.0,946.0 312.0,963.0 351.0,1022.0 364.0,1024.0 377.0,1026.0 390.0,1027.0 403.0,1028.0 416.0,1029.0 429.0,1029.0 442.0,1028.0 455.0,1027.0 468.0,1026.0 481.0,1024.0 494.0,1022.0 533.0,963.0 533.0,946.0 533.0,929.0 533.0,912.0 533.0,861.0 520.0,864.0 494.0,869.0 481.0,871.0 364.0,871.0 351.0,869.0 325.0,864.0 312.0,861.0" style="fill:#C4C4C4;" />
<polygon data-section="Mid Mezzanine/Rear Mezzanine" data-priority="1" class="53019" points="69.0,918.0 134.0,986.0 147.0,991.0 160.0,996.0 173.0,1000.0 186.0,1004.0 199.0,1008.0 212.0,1011.0 225.0,1014.0 238.0,1017.0 251.0,1020.0 264.0,1022.0 277.0,1024.0 277.0,1007.0 277.0,990.0 277.0,973.0 277.0,956.0 277.0,939.0 277.0,922.0 277.0,905.0 225.0,895.0 212.0,892.0 186.0,885.0 173.0,881.0 69.0,833.0 69.0,884.0 69.0,901.0 69.0,918.0" style="fill:#C4C4C4;" />
<polygon data-section="Mid Mezzanine/Rear Mezzanine" data-priority="1" class="53019" points="568.0,868.0 581.0,866.0 594.0,864.0 607.0,861.0 620.0,858.0 633.0,855.0 646.0,852.0 659.0,848.0 672.0,844.0 685.0,840.0 698.0,835.0 711.0,830.0 724.0,824.0 737.0,818.0 750.0,811.0 763.0,804.0 776.0,779.0 620.0,841.0 568.0,851.0 568.0,868.0" style="fill:#C4C4C4;" />
<polygon data-section="Mid Mezzanine/Rear Mezzanine" data-priority="1" class="53019" points="568.0,936.0 568.0,953.0 568.0,970.0 568.0,987.0 568.0,1004.0 568.0,1021.0 581.0,1019.0 594.0,1017.0 607.0,1014.0 620.0,1011.0 633.0,1008.0 646.0,1005.0 659.0,1001.0 672.0,997.0 685.0,993.0 698.0,988.0 711.0,983.0 724.0,977.0 776.0,915.0 776.0,898.0 776.0,881.0 776.0,830.0 672.0,878.0 659.0,882.0 633.0,889.0 620.0,892.0 568.0,902.0 568.0,919.0 568.0,936.0" style="fill:#C4C4C4;" />
<polygon data-section="Mid Mezzanine/Rear Mezzanine" data-priority="1" class="53019" points="108.0,821.0 121.0,827.0 134.0,833.0 147.0,838.0 160.0,843.0 173.0,847.0 186.0,851.0 199.0,855.0 212.0,858.0 225.0,861.0 238.0,864.0 251.0,867.0 264.0,869.0 277.0,871.0 277.0,854.0 225.0,844.0 69.0,782.0 82.0,807.0 95.0,814.0 108.0,821.0" style="fill:#C4C4C4;" />
</g>
<g class="grouped-Front Mezzanine">
<polygon data-section="Front Mezzanine" data-priority="1" class="53022" points="44.0,715.0 44.0,732.0 56.0,756.0 69.0,765.0 82.0,773.0 95.0,780.0 108.0,787.0 121.0,793.0 134.0,799.0 147.0,804.0 160.0,809.0 173.0,813.0 186.0,817.0 199.0,821.0 212.0,824.0 225.0,827.0 238.0,830.0 251.0,833.0 264.0,835.0 277.0,837.0 277.0,820.0 264.0,818.0 238.0,813.0 225.0,810.0 134.0,765.0 69.0,663.0 56.0,654.0 44.0,647.0 44.0,664.0 44.0,681.0 44.0,698.0 44.0,715.0" style="fill:#C4C4C4;" />
<polygon data-section="Front Mezzanine" data-priority="1" class="53022" points="325.0,847.0 338.0,850.0 351.0,852.0 364.0,854.0 377.0,856.0 390.0,857.0 403.0,858.0 416.0,859.0 429.0,859.0 442.0,858.0 455.0,857.0 468.0,856.0 481.0,854.0 494.0,852.0 507.0,850.0 520.0,847.0 533.0,844.0 533.0,827.0 520.0,830.0 351.0,835.0 325.0,830.0 312.0,827.0 312.0,844.0 325.0,847.0" style="fill:#C4C4C4;" />
<polygon data-section="Front Mezzanine" data-priority="1" class="53022" points="620.0,807.0 607.0,810.0 581.0,815.0 568.0,817.0 568.0,834.0 581.0,832.0 594.0,830.0 607.0,827.0 620.0,824.0 633.0,821.0 646.0,818.0 659.0,814.0 672.0,810.0 685.0,806.0 698.0,801.0 711.0,796.0 724.0,790.0 737.0,784.0 750.0,777.0 763.0,770.0 776.0,762.0 789.0,753.0 801.0,729.0 801.0,712.0 801.0,695.0 801.0,678.0 801.0,661.0 801.0,644.0 789.0,651.0 776.0,660.0 711.0,762.0 620.0,807.0" style="fill:#C4C4C4;" />
</g>
<g class="grouped-Rear Orchestra/Rear Mezzanine">
<polygon data-section="Rear Orchestra/Rear Mezzanine" data-priority="1" class="53024" points="312.0,549.0 312.0,566.0 325.0,586.0 338.0,589.0 351.0,591.0 364.0,593.0 377.0,595.0 390.0,596.0 403.0,597.0 416.0,598.0 429.0,598.0 442.0,597.0 455.0,596.0 468.0,595.0 481.0,593.0 494.0,591.0 507.0,589.0 520.0,586.0 533.0,566.0 533.0,549.0 533.0,532.0 533.0,515.0 533.0,498.0 533.0,481.0 520.0,484.0 494.0,489.0 481.0,491.0 364.0,491.0 351.0,489.0 325.0,484.0 312.0,481.0 312.0,498.0 312.0,515.0 312.0,532.0 312.0,549.0" style="fill:#C4C4C4;" />
<polygon data-section="Rear Orchestra/Rear Mezzanine" data-priority="1" class="53024" points="44.0,470.0 56.0,511.0 134.0,571.0 147.0,576.0 160.0,581.0 173.0,585.0 186.0,589.0 199.0,593.0 212.0,596.0 225.0,599.0 238.0,602.0 251.0,605.0 264.0,607.0 277.0,609.0 277.0,592.0 277.0,575.0 277.0,558.0 277.0,541.0 277.0,524.0 277.0,507.0 277.0,490.0 277.0,473.0 225.0,463.0 212.0,460.0 186.0,453.0 173.0,449.0 121.0,429.0 56.0,392.0 44.0,419.0 43.0,436.0 44.0,470.0" style="fill:#C4C4C4;" />
<polygon data-section="Rear Orchestra/Rear Mezzanine" data-priority="1" class="53024" points="568.0,505.0 568.0,522.0 568.0,539.0 568.0,556.0 568.0,573.0 568.0,590.0 568.0,607.0 581.0,605.0 594.0,603.0 607.0,600.0 620.0,597.0 633.0,594.0 646.0,591.0 659.0,587.0 672.0,583.0 685.0,579.0 698.0,574.0 711.0,569.0 789.0,509.0 801.0,468.0 802.0,434.0 801.0,417.0 789.0,390.0 724.0,427.0 672.0,447.0 659.0,451.0 633.0,458.0 620.0,461.0 568.0,471.0 568.0,488.0 568.0,505.0" style="fill:#C4C4C4;" />
<polygon data-section="Rear Orchestra/Rear Mezzanine" data-priority="1" class="53024" points="568.0,987.0 568.0,1004.0 568.0,1021.0 581.0,1019.0 594.0,1017.0 607.0,1014.0 620.0,1011.0 633.0,1008.0 646.0,1005.0 659.0,1001.0 672.0,997.0 685.0,993.0 698.0,988.0 711.0,983.0 724.0,977.0 776.0,915.0 776.0,898.0 776.0,881.0 659.0,933.0 633.0,940.0 620.0,943.0 568.0,953.0 568.0,970.0 568.0,987.0" style="fill:#C4C4C4;" />
<polygon data-section="Rear Orchestra/Rear Mezzanine" data-priority="1" class="53024" points="312.0,963.0 351.0,1022.0 364.0,1024.0 377.0,1026.0 390.0,1027.0 403.0,1028.0 416.0,1029.0 429.0,1029.0 442.0,1028.0 455.0,1027.0 468.0,1026.0 481.0,1024.0 494.0,1022.0 533.0,963.0 520.0,966.0 494.0,971.0 351.0,971.0 325.0,966.0 312.0,963.0" style="fill:#C4C4C4;" />
<polygon data-section="Rear Orchestra/Rear Mezzanine" data-priority="1" class="53024" points="69.0,901.0 69.0,918.0 134.0,986.0 147.0,991.0 160.0,996.0 173.0,1000.0 186.0,1004.0 199.0,1008.0 212.0,1011.0 225.0,1014.0 238.0,1017.0 251.0,1020.0 264.0,1022.0 277.0,1024.0 277.0,1007.0 277.0,990.0 277.0,973.0 277.0,956.0 225.0,946.0 212.0,943.0 186.0,936.0 69.0,884.0 69.0,901.0" style="fill:#C4C4C4;" />
</g>
<g class="grouped-Rear Orchestra">
<polygon data-section="Rear Orchestra" data-priority="1" class="53027" points="312.0,549.0 312.0,566.0 325.0,586.0 338.0,589.0 351.0,591.0 364.0,593.0 377.0,595.0 390.0,596.0 403.0,597.0 416.0,598.0 429.0,598.0 442.0,597.0 455.0,596.0 468.0,595.0 481.0,593.0 494.0,591.0 507.0,589.0 520.0,586.0 533.0,566.0 533.0,549.0 533.0,532.0 533.0,515.0 533.0,498.0 533.0,481.0 520.0,484.0 494.0,489.0 481.0,491.0 364.0,491.0 351.0,489.0 325.0,484.0 312.0,481.0 312.0,498.0 312.0,515.0 312.0,532.0 312.0,549.0" style="fill:#C4C4C4;" />
<polygon data-section="Rear Orchestra" data-priority="1" class="53027" points="44.0,470.0 56.0,511.0 134.0,571.0 147.0,576.0 160.0,581.0 173.0,585.0 186.0,589.0 199.0,593.0 212.0,596.0 225.0,599.0 238.0,602.0 251.0,605.0 264.0,607.0 277.0,609.0 277.0,592.0 277.0,575.0 277.0,558.0 277.0,541.0 277.0,524.0 277.0,507.0 277.0,490.0 277.0,473.0 225.0,463.0 212.0,460.0 186.0,453.0 173.0,449.0 121.0,429.0 56.0,392.0 44.0,419.0 43.0,436.0 44.0,470.0" style="fill:#C4C4C4;" />
<polygon data-section="Rear Orchestra" data-priority="1" class="53027" points="568.0,505.0 568.0,522.0 568.0,539.0 568.0,556.0 568.0,573.0 568.0,590.0 568.0,607.0 581.0,605.0 594.0,603.0 607.0,600.0 620.0,597.0 633.0,594.0 646.0,591.0 659.0,587.0 672.0,583.0 685.0,579.0 698.0,574.0 711.0,569.0 789.0,509.0 801.0,468.0 802.0,434.0 801.0,417.0 789.0,390.0 724.0,427.0 672.0,447.0 659.0,451.0 633.0,458.0 620.0,461.0 568.0,471.0 568.0,488.0 568.0,505.0" style="fill:#C4C4C4;" />
</g>
<g class="grouped-Mid Mezzanine">
<polygon data-section="Mid Mezzanine" data-priority="1" class="53028" points="312.0,946.0 325.0,949.0 338.0,952.0 351.0,954.0 364.0,956.0 377.0,958.0 390.0,959.0 403.0,960.0 416.0,961.0 429.0,961.0 442.0,960.0 455.0,959.0 468.0,958.0 481.0,956.0 494.0,954.0 507.0,952.0 520.0,949.0 533.0,946.0 533.0,929.0 533.0,912.0 533.0,861.0 520.0,864.0 494.0,869.0 481.0,871.0 364.0,871.0 351.0,869.0 325.0,864.0 312.0,861.0 312.0,912.0 312.0,929.0 312.0,946.0" style="fill:#C4C4C4;" />
<polygon data-section="Mid Mezzanine" data-priority="1" class="53028" points="82.0,875.0 95.0,882.0 108.0,889.0 121.0,895.0 134.0,901.0 147.0,906.0 160.0,911.0 173.0,915.0 186.0,919.0 199.0,923.0 212.0,926.0 225.0,929.0 238.0,932.0 251.0,935.0 264.0,937.0 277.0,939.0 277.0,922.0 277.0,905.0 225.0,895.0 212.0,892.0 186.0,885.0 69.0,833.0 82.0,875.0" style="fill:#C4C4C4;" />
<polygon data-section="Mid Mezzanine" data-priority="1" class="53028" points="568.0,868.0 581.0,866.0 594.0,864.0 607.0,861.0 620.0,858.0 633.0,855.0 646.0,852.0 659.0,848.0 672.0,844.0 685.0,840.0 698.0,835.0 711.0,830.0 724.0,824.0 737.0,818.0 750.0,811.0 763.0,804.0 776.0,779.0 620.0,841.0 568.0,851.0 568.0,868.0" style="fill:#C4C4C4;" />
<polygon data-section="Mid Mezzanine" data-priority="1" class="53028" points="646.0,920.0 659.0,916.0 672.0,912.0 685.0,908.0 698.0,903.0 711.0,898.0 724.0,892.0 737.0,886.0 750.0,879.0 763.0,872.0 776.0,830.0 659.0,882.0 633.0,889.0 620.0,892.0 568.0,902.0 568.0,919.0 568.0,936.0 581.0,934.0 594.0,932.0 607.0,929.0 620.0,926.0 633.0,923.0 646.0,920.0" style="fill:#C4C4C4;" />
<polygon data-section="Mid Mezzanine" data-priority="1" class="53028" points="108.0,821.0 121.0,827.0 134.0,833.0 147.0,838.0 160.0,843.0 173.0,847.0 186.0,851.0 199.0,855.0 212.0,858.0 225.0,861.0 238.0,864.0 251.0,867.0 264.0,869.0 277.0,871.0 277.0,854.0 225.0,844.0 69.0,782.0 82.0,807.0 95.0,814.0 108.0,821.0" style="fill:#C4C4C4;" />
</g>
<g class="grouped-Rear Orchestra/Mid Mezzanine">
<polygon data-section="Rear Orchestra/Mid Mezzanine" data-priority="1" class="60304" points="312.0,549.0 312.0,566.0 325.0,586.0 338.0,589.0 351.0,591.0 364.0,593.0 377.0,595.0 390.0,596.0 403.0,597.0 416.0,598.0 429.0,598.0 442.0,597.0 455.0,596.0 468.0,595.0 481.0,593.0 494.0,591.0 507.0,589.0 520.0,586.0 533.0,566.0 533.0,549.0 533.0,532.0 533.0,515.0 533.0,498.0 533.0,481.0 520.0,484.0 494.0,489.0 481.0,491.0 364.0,491.0 351.0,489.0 325.0,484.0 312.0,481.0 312.0,498.0 312.0,515.0 312.0,532.0 312.0,549.0" style="fill:#C4C4C4;" />
<polygon data-section="Rear Orchestra/Mid Mezzanine" data-priority="1" class="60304" points="44.0,470.0 56.0,511.0 134.0,571.0 147.0,576.0 160.0,581.0 173.0,585.0 186.0,589.0 199.0,593.0 212.0,596.0 225.0,599.0 238.0,602.0 251.0,605.0 264.0,607.0 277.0,609.0 277.0,592.0 277.0,575.0 277.0,558.0 277.0,541.0 277.0,524.0 277.0,507.0 277.0,490.0 277.0,473.0 225.0,463.0 212.0,460.0 186.0,453.0 173.0,449.0 121.0,429.0 56.0,392.0 44.0,419.0 43.0,436.0 44.0,470.0" style="fill:#C4C4C4;" />
<polygon data-section="Rear Orchestra/Mid Mezzanine" data-priority="1" class="60304" points="568.0,505.0 568.0,522.0 568.0,539.0 568.0,556.0 568.0,573.0 568.0,590.0 568.0,607.0 581.0,605.0 594.0,603.0 607.0,600.0 620.0,597.0 633.0,594.0 646.0,591.0 659.0,587.0 672.0,583.0 685.0,579.0 698.0,574.0 711.0,569.0 789.0,509.0 801.0,468.0 802.0,434.0 801.0,417.0 789.0,390.0 724.0,427.0 672.0,447.0 659.0,451.0 633.0,458.0 620.0,461.0 568.0,471.0 568.0,488.0 568.0,505.0" style="fill:#C4C4C4;" />
<polygon data-section="Rear Orchestra/Mid Mezzanine" data-priority="1" class="60304" points="312.0,946.0 325.0,949.0 338.0,952.0 351.0,954.0 364.0,956.0 377.0,958.0 390.0,959.0 403.0,960.0 416.0,961.0 429.0,961.0 442.0,960.0 455.0,959.0 468.0,958.0 481.0,956.0 494.0,954.0 507.0,952.0 520.0,949.0 533.0,946.0 533.0,929.0 533.0,912.0 533.0,861.0 520.0,864.0 494.0,869.0 481.0,871.0 364.0,871.0 351.0,869.0 325.0,864.0 312.0,861.0 312.0,912.0 312.0,929.0 312.0,946.0" style="fill:#C4C4C4;" />
<polygon data-section="Rear Orchestra/Mid Mezzanine" data-priority="1" class="60304" points="82.0,875.0 95.0,882.0 108.0,889.0 121.0,895.0 134.0,901.0 147.0,906.0 160.0,911.0 173.0,915.0 186.0,919.0 199.0,923.0 212.0,926.0 225.0,929.0 238.0,932.0 251.0,935.0 264.0,937.0 277.0,939.0 277.0,922.0 277.0,905.0 225.0,895.0 212.0,892.0 186.0,885.0 69.0,833.0 82.0,875.0" style="fill:#C4C4C4;" />
<polygon data-section="Rear Orchestra/Mid Mezzanine" data-priority="1" class="60304" points="568.0,868.0 581.0,866.0 594.0,864.0 607.0,861.0 620.0,858.0 633.0,855.0 646.0,852.0 659.0,848.0 672.0,844.0 685.0,840.0 698.0,835.0 711.0,830.0 724.0,824.0 737.0,818.0 750.0,811.0 763.0,804.0 776.0,779.0 620.0,841.0 568.0,851.0 568.0,868.0" style="fill:#C4C4C4;" />
<polygon data-section="Rear Orchestra/Mid Mezzanine" data-priority="1" class="60304" points="646.0,920.0 659.0,916.0 672.0,912.0 685.0,908.0 698.0,903.0 711.0,898.0 724.0,892.0 737.0,886.0 750.0,879.0 763.0,872.0 776.0,830.0 659.0,882.0 633.0,889.0 620.0,892.0 568.0,902.0 568.0,919.0 568.0,936.0 581.0,934.0 594.0,932.0 607.0,929.0 620.0,926.0 633.0,923.0 646.0,920.0" style="fill:#C4C4C4;" />
<polygon data-section="Rear Orchestra/Mid Mezzanine" data-priority="1" class="60304" points="108.0,821.0 121.0,827.0 134.0,833.0 147.0,838.0 160.0,843.0 173.0,847.0 186.0,851.0 199.0,855.0 212.0,858.0 225.0,861.0 238.0,864.0 251.0,867.0 264.0,869.0 277.0,871.0 277.0,854.0 225.0,844.0 69.0,782.0 82.0,807.0 95.0,814.0 108.0,821.0" style="fill:#C4C4C4;" />
</g>
<g class="grouped-Premiums">
<polygon data-section="Premiums" data-priority="2" class="53018" points="312.0,209.0 312.0,226.0 312.0,243.0 312.0,260.0 312.0,277.0 312.0,294.0 325.0,297.0 338.0,300.0 351.0,302.0 364.0,304.0 377.0,306.0 390.0,307.0 403.0,308.0 416.0,309.0 429.0,309.0 442.0,308.0 455.0,307.0 468.0,306.0 481.0,304.0 494.0,302.0 507.0,300.0 520.0,297.0 533.0,294.0 533.0,277.0 533.0,260.0 533.0,243.0 533.0,226.0 533.0,209.0 533.0,192.0 533.0,175.0 533.0,158.0 533.0,141.0 533.0,124.0 520.0,127.0 494.0,132.0 481.0,134.0 390.0,137.0 364.0,134.0 351.0,132.0 325.0,127.0 312.0,124.0 312.0,141.0 312.0,158.0 312.0,175.0 312.0,192.0 312.0,209.0" style="fill:#C4C4C4;" />
</g>
<g class="grouped-Mid Center Orchestra">
<polygon data-section="Mid Center Orchestra" data-priority="2" class="53021" points="312.0,379.0 312.0,396.0 312.0,413.0 312.0,430.0 312.0,464.0 325.0,467.0 338.0,470.0 351.0,472.0 364.0,474.0 377.0,476.0 390.0,477.0 403.0,478.0 416.0,479.0 429.0,479.0 442.0,478.0 455.0,477.0 468.0,476.0 481.0,474.0 494.0,472.0 507.0,470.0 520.0,467.0 533.0,464.0 533.0,430.0 533.0,413.0 533.0,396.0 533.0,379.0 533.0,362.0 533.0,345.0 533.0,328.0 533.0,311.0 520.0,314.0 494.0,319.0 481.0,321.0 390.0,324.0 364.0,321.0 351.0,319.0 325.0,314.0 312.0,311.0 312.0,328.0 312.0,345.0 312.0,362.0 312.0,379.0" style="fill:#C4C4C4;" />
</g>
<g class="grouped-Mid Center Orchestra/Front Mezzanine">
<polygon data-section="Mid Center Orchestra/Front Mezzanine" data-priority="2" class="58781" points="312.0,379.0 312.0,396.0 312.0,413.0 312.0,430.0 312.0,464.0 325.0,467.0 338.0,470.0 351.0,472.0 364.0,474.0 377.0,476.0 390.0,477.0 403.0,478.0 416.0,479.0 429.0,479.0 442.0,478.0 455.0,477.0 468.0,476.0 481.0,474.0 494.0,472.0 507.0,470.0 520.0,467.0 533.0,464.0 533.0,430.0 533.0,413.0 533.0,396.0 533.0,379.0 533.0,362.0 533.0,345.0 533.0,328.0 533.0,311.0 520.0,314.0 494.0,319.0 481.0,321.0 390.0,324.0 364.0,321.0 351.0,319.0 325.0,314.0 312.0,311.0 312.0,328.0 312.0,345.0 312.0,362.0 312.0,379.0" style="fill:#C4C4C4;" />
<polygon data-section="Mid Center Orchestra/Front Mezzanine" data-priority="2" class="58781" points="44.0,715.0 44.0,732.0 56.0,756.0 69.0,765.0 82.0,773.0 95.0,780.0 108.0,787.0 121.0,793.0 134.0,799.0 147.0,804.0 160.0,809.0 173.0,813.0 186.0,817.0 199.0,821.0 212.0,824.0 225.0,827.0 238.0,830.0 251.0,833.0 264.0,835.0 277.0,837.0 277.0,820.0 264.0,818.0 238.0,813.0 225.0,810.0 134.0,765.0 69.0,663.0 56.0,654.0 44.0,647.0 44.0,664.0 44.0,681.0 44.0,698.0 44.0,715.0" style="fill:#C4C4C4;" />
<polygon data-section="Mid Center Orchestra/Front Mezzanine" data-priority="2" class="58781" points="325.0,847.0 338.0,850.0 351.0,852.0 364.0,854.0 377.0,856.0 390.0,857.0 403.0,858.0 416.0,859.0 429.0,859.0 442.0,858.0 455.0,857.0 468.0,856.0 481.0,854.0 494.0,852.0 507.0,850.0 520.0,847.0 533.0,844.0 533.0,827.0 520.0,830.0 351.0,835.0 325.0,830.0 312.0,827.0 312.0,844.0 325.0,847.0" style="fill:#C4C4C4;" />
<polygon data-section="Mid Center Orchestra/Front Mezzanine" data-priority="2" class="58781" points="620.0,807.0 607.0,810.0 581.0,815.0 568.0,817.0 568.0,834.0 581.0,832.0 594.0,830.0 607.0,827.0 620.0,824.0 633.0,821.0 646.0,818.0 659.0,814.0 672.0,810.0 685.0,806.0 698.0,801.0 711.0,796.0 724.0,790.0 737.0,784.0 750.0,777.0 763.0,770.0 776.0,762.0 789.0,753.0 801.0,729.0 801.0,712.0 801.0,695.0 801.0,678.0 801.0,661.0 801.0,644.0 789.0,651.0 776.0,660.0 711.0,762.0 620.0,807.0" style="fill:#C4C4C4;" />
</g>
<g class="grouped-Mid Side Orchestra/Front Mezzanine/Front Mezzanine Sides">
<polygon data-section="Mid Side Orchestra/Front Mezzanine/Front Mezzanine Sides" data-priority="3" class="53016" points="568.0,337.0 568.0,354.0 568.0,371.0 568.0,388.0 581.0,386.0 594.0,384.0 607.0,381.0 620.0,378.0 633.0,375.0 646.0,372.0 659.0,368.0 672.0,364.0 685.0,360.0 698.0,355.0 711.0,350.0 724.0,344.0 737.0,338.0 750.0,331.0 763.0,324.0 776.0,316.0 789.0,307.0 776.0,282.0 737.0,253.0 633.0,290.0 620.0,293.0 568.0,303.0 568.0,320.0 568.0,337.0" style="fill:#C4C4C4;" />
<polygon data-section="Mid Side Orchestra/Front Mezzanine/Front Mezzanine Sides" data-priority="3" class="53016" points="633.0,424.0 620.0,427.0 568.0,437.0 568.0,454.0 581.0,452.0 594.0,450.0 607.0,447.0 620.0,444.0 633.0,441.0 646.0,438.0 659.0,434.0 672.0,430.0 685.0,426.0 698.0,421.0 711.0,416.0 724.0,410.0 737.0,404.0 750.0,397.0 763.0,390.0 776.0,382.0 789.0,373.0 789.0,356.0 659.0,417.0 633.0,424.0" style="fill:#C4C4C4;" />
<polygon data-section="Mid Side Orchestra/Front Mezzanine/Front Mezzanine Sides" data-priority="3" class="53016" points="82.0,392.0 95.0,399.0 108.0,406.0 121.0,412.0 134.0,418.0 147.0,423.0 160.0,428.0 173.0,432.0 186.0,436.0 199.0,440.0 212.0,443.0 225.0,446.0 238.0,449.0 251.0,452.0 264.0,454.0 277.0,456.0 277.0,439.0 225.0,429.0 212.0,426.0 186.0,419.0 56.0,358.0 56.0,375.0 69.0,384.0 82.0,392.0" style="fill:#C4C4C4;" />
<polygon data-section="Mid Side Orchestra/Front Mezzanine/Front Mezzanine Sides" data-priority="3" class="53016" points="69.0,316.0 82.0,324.0 95.0,331.0 108.0,338.0 121.0,344.0 134.0,350.0 147.0,355.0 160.0,360.0 173.0,364.0 186.0,368.0 199.0,372.0 212.0,375.0 225.0,378.0 238.0,381.0 251.0,384.0 264.0,386.0 277.0,388.0 277.0,371.0 277.0,354.0 277.0,337.0 277.0,320.0 277.0,303.0 225.0,293.0 212.0,290.0 108.0,253.0 69.0,282.0 56.0,307.0 69.0,316.0" style="fill:#C4C4C4;" />
<polygon data-section="Mid Side Orchestra/Front Mezzanine/Front Mezzanine Sides" data-priority="3" class="53016" points="44.0,715.0 44.0,732.0 56.0,756.0 69.0,765.0 82.0,773.0 95.0,780.0 108.0,787.0 121.0,793.0 134.0,799.0 147.0,804.0 160.0,809.0 173.0,813.0 186.0,817.0 199.0,821.0 212.0,824.0 225.0,827.0 238.0,830.0 251.0,833.0 264.0,835.0 277.0,837.0 277.0,820.0 264.0,818.0 238.0,813.0 225.0,810.0 134.0,765.0 69.0,663.0 56.0,654.0 44.0,647.0 44.0,664.0 44.0,681.0 44.0,698.0 44.0,715.0" style="fill:#C4C4C4;" />
<polygon data-section="Mid Side Orchestra/Front Mezzanine/Front Mezzanine Sides" data-priority="3" class="53016" points="325.0,847.0 338.0,850.0 351.0,852.0 364.0,854.0 377.0,856.0 390.0,857.0 403.0,858.0 416.0,859.0 429.0,859.0 442.0,858.0 455.0,857.0 468.0,856.0 481.0,854.0 494.0,852.0 507.0,850.0 520.0,847.0 533.0,844.0 533.0,827.0 520.0,830.0 351.0,835.0 325.0,830.0 312.0,827.0 312.0,844.0 325.0,847.0" style="fill:#C4C4C4;" />
<polygon data-section="Mid Side Orchestra/Front Mezzanine/Front Mezzanine Sides" data-priority="3" class="53016" points="659.0,814.0 672.0,810.0 685.0,806.0 698.0,801.0 711.0,796.0 724.0,790.0 737.0,784.0 750.0,777.0 763.0,770.0 776.0,762.0 789.0,753.0 801.0,729.0 801.0,712.0 801.0,695.0 801.0,678.0 801.0,661.0 801.0,644.0 789.0,651.0 776.0,660.0 711.0,762.0 620.0,807.0 607.0,810.0 581.0,815.0 568.0,817.0 568.0,834.0 581.0,832.0 594.0,830.0 607.0,827.0 620.0,824.0 633.0,821.0 646.0,818.0 659.0,814.0" style="fill:#C4C4C4;" />
</g>
<g class="grouped-Front Center Orchestra/Center and Side Orchestra/Mid Center Orchestra/Front Mezz">
<polygon data-section="Front Center Orchestra/Center and Side Orchestra/Mid Center Orchestra/Front Mezz" data-priority="3" class="53017" points="312.0,226.0 312.0,243.0 312.0,260.0 312.0,277.0 312.0,294.0 312.0,311.0 312.0,328.0 312.0,345.0 312.0,362.0 312.0,379.0 312.0,396.0 312.0,413.0 312.0,430.0 312.0,464.0 312.0,481.0 312.0,498.0 312.0,515.0 312.0,532.0 312.0,549.0 312.0,566.0 325.0,586.0 338.0,589.0 351.0,591.0 364.0,593.0 377.0,595.0 390.0,596.0 403.0,597.0 416.0,598.0 429.0,598.0 442.0,597.0 455.0,596.0 468.0,595.0 481.0,593.0 494.0,591.0 507.0,589.0 520.0,586.0 533.0,566.0 533.0,549.0 533.0,532.0 533.0,515.0 533.0,498.0 533.0,481.0 533.0,464.0 533.0,430.0 533.0,413.0 533.0,396.0 533.0,379.0 533.0,362.0 533.0,345.0 533.0,328.0 533.0,311.0 533.0,294.0 533.0,277.0 533.0,260.0 533.0,243.0 533.0,226.0 533.0,209.0 533.0,192.0 533.0,175.0 533.0,158.0 533.0,141.0 533.0,124.0 520.0,127.0 494.0,132.0 481.0,134.0 390.0,137.0 364.0,134.0 351.0,132.0 325.0,127.0 312.0,124.0 312.0,141.0 312.0,158.0 312.0,175.0 312.0,192.0 312.0,209.0 312.0,226.0" style="fill:#C4C4C4;" />
<polygon data-section="Front Center Orchestra/Center and Side Orchestra/Mid Center Orchestra/Front Mezz" data-priority="3" class="53017" points="44.0,470.0 56.0,511.0 134.0,571.0 147.0,576.0 160.0,581.0 173.0,585.0 186.0,589.0 199.0,593.0 212.0,596.0 225.0,599.0 238.0,602.0 251.0,605.0 264.0,607.0 277.0,609.0 277.0,592.0 277.0,575.0 277.0,558.0 277.0,541.0 277.0,524.0 277.0,507.0 277.0,490.0 277.0,473.0 277.0,456.0 277.0,439.0 225.0,429.0 212.0,426.0 186.0,419.0 173.0,415.0 121.0,395.0 56.0,358.0 44.0,419.0 43.0,436.0 44.0,470.0" style="fill:#C4C4C4;" />
<polygon data-section="Front Center Orchestra/Center and Side Orchestra/Mid Center Orchestra/Front Mezz" data-priority="3" class="53017" points="82.0,324.0 95.0,331.0 108.0,338.0 121.0,344.0 134.0,350.0 147.0,355.0 160.0,360.0 173.0,364.0 186.0,368.0 199.0,372.0 212.0,375.0 225.0,378.0 238.0,381.0 251.0,384.0 264.0,386.0 277.0,388.0 277.0,371.0 277.0,354.0 277.0,337.0 277.0,320.0 277.0,303.0 277.0,286.0 277.0,269.0 277.0,252.0 277.0,235.0 277.0,218.0 277.0,201.0 277.0,184.0 277.0,167.0 277.0,150.0 277.0,133.0 277.0,116.0 264.0,114.0 251.0,112.0 225.0,123.0 186.0,147.0 121.0,208.0 69.0,282.0 56.0,307.0 69.0,316.0 82.0,324.0" style="fill:#C4C4C4;" />
<polygon data-section="Front Center Orchestra/Center and Side Orchestra/Mid Center Orchestra/Front Mezz" data-priority="3" class="53017" points="568.0,522.0 568.0,539.0 568.0,556.0 568.0,573.0 568.0,590.0 568.0,607.0 581.0,605.0 594.0,603.0 607.0,600.0 620.0,597.0 633.0,594.0 646.0,591.0 659.0,587.0 672.0,583.0 685.0,579.0 698.0,574.0 711.0,569.0 789.0,509.0 801.0,468.0 802.0,434.0 801.0,417.0 789.0,356.0 724.0,393.0 672.0,413.0 659.0,417.0 633.0,424.0 620.0,427.0 568.0,437.0 568.0,454.0 568.0,471.0 568.0,488.0 568.0,505.0 568.0,522.0" style="fill:#C4C4C4;" />
<polygon data-section="Front Center Orchestra/Center and Side Orchestra/Mid Center Orchestra/Front Mezz" data-priority="3" class="53017" points="568.0,201.0 568.0,218.0 568.0,235.0 568.0,252.0 568.0,269.0 568.0,286.0 568.0,303.0 568.0,320.0 568.0,337.0 568.0,354.0 568.0,371.0 568.0,388.0 581.0,386.0 594.0,384.0 607.0,381.0 620.0,378.0 633.0,375.0 646.0,372.0 659.0,368.0 672.0,364.0 685.0,360.0 698.0,355.0 711.0,350.0 724.0,344.0 737.0,338.0 750.0,331.0 763.0,324.0 776.0,316.0 789.0,307.0 776.0,282.0 724.0,208.0 659.0,147.0 620.0,123.0 594.0,112.0 581.0,114.0 568.0,116.0 568.0,133.0 568.0,150.0 568.0,167.0 568.0,184.0 568.0,201.0" style="fill:#C4C4C4;" />
<polygon data-section="Front Center Orchestra/Center and Side Orchestra/Mid Center Orchestra/Front Mezz" data-priority="3" class="53017" points="44.0,715.0 44.0,732.0 56.0,756.0 69.0,765.0 82.0,773.0 95.0,780.0 108.0,787.0 121.0,793.0 134.0,799.0 147.0,804.0 160.0,809.0 173.0,813.0 186.0,817.0 199.0,821.0 212.0,824.0 225.0,827.0 238.0,830.0 251.0,833.0 264.0,835.0 277.0,837.0 277.0,820.0 264.0,818.0 238.0,813.0 225.0,810.0 134.0,765.0 69.0,663.0 56.0,654.0 44.0,647.0 44.0,664.0 44.0,681.0 44.0,698.0 44.0,715.0" style="fill:#C4C4C4;" />
<polygon data-section="Front Center Orchestra/Center and Side Orchestra/Mid Center Orchestra/Front Mezz" data-priority="3" class="53017" points="325.0,847.0 338.0,850.0 351.0,852.0 364.0,854.0 377.0,856.0 390.0,857.0 403.0,858.0 416.0,859.0 429.0,859.0 442.0,858.0 455.0,857.0 468.0,856.0 481.0,854.0 494.0,852.0 507.0,850.0 520.0,847.0 533.0,844.0 533.0,827.0 520.0,830.0 351.0,835.0 325.0,830.0 312.0,827.0 312.0,844.0 325.0,847.0" style="fill:#C4C4C4;" />
<polygon data-section="Front Center Orchestra/Center and Side Orchestra/Mid Center Orchestra/Front Mezz" data-priority="3" class="53017" points="620.0,807.0 607.0,810.0 581.0,815.0 568.0,817.0 568.0,834.0 581.0,832.0 594.0,830.0 607.0,827.0 620.0,824.0 633.0,821.0 646.0,818.0 659.0,814.0 672.0,810.0 685.0,806.0 698.0,801.0 711.0,796.0 724.0,790.0 737.0,784.0 750.0,777.0 763.0,770.0 776.0,762.0 789.0,753.0 801.0,729.0 801.0,712.0 801.0,695.0 801.0,678.0 801.0,661.0 801.0,644.0 789.0,651.0 776.0,660.0 711.0,762.0 620.0,807.0" style="fill:#C4C4C4;" />
</g>
<g class="grouped-Mid Side Orchestra/Rear Orchestra/Front Mezzanine Sides/Mid Mezzanine">
<polygon data-section="Mid Side Orchestra/Rear Orchestra/Front Mezzanine Sides/Mid Mezzanine" data-priority="3" class="53020" points="568.0,337.0 568.0,354.0 568.0,371.0 568.0,388.0 581.0,386.0 594.0,384.0 607.0,381.0 620.0,378.0 633.0,375.0 646.0,372.0 659.0,368.0 672.0,364.0 685.0,360.0 698.0,355.0 711.0,350.0 724.0,344.0 737.0,338.0 750.0,331.0 763.0,324.0 776.0,316.0 789.0,307.0 776.0,282.0 737.0,253.0 633.0,290.0 620.0,293.0 568.0,303.0 568.0,320.0 568.0,337.0" style="fill:#C4C4C4;" />
<polygon data-section="Mid Side Orchestra/Rear Orchestra/Front Mezzanine Sides/Mid Mezzanine" data-priority="3" class="53020" points="568.0,522.0 568.0,539.0 568.0,556.0 568.0,573.0 568.0,590.0 568.0,607.0 581.0,605.0 594.0,603.0 607.0,600.0 620.0,597.0 633.0,594.0 646.0,591.0 659.0,587.0 672.0,583.0 685.0,579.0 698.0,574.0 711.0,569.0 789.0,509.0 801.0,468.0 802.0,434.0 801.0,417.0 789.0,356.0 724.0,393.0 672.0,413.0 659.0,417.0 633.0,424.0 620.0,427.0 568.0,437.0 568.0,454.0 568.0,471.0 568.0,488.0 568.0,505.0 568.0,522.0" style="fill:#C4C4C4;" />
<polygon data-section="Mid Side Orchestra/Rear Orchestra/Front Mezzanine Sides/Mid Mezzanine" data-priority="3" class="53020" points="56.0,511.0 134.0,571.0 147.0,576.0 160.0,581.0 173.0,585.0 186.0,589.0 199.0,593.0 212.0,596.0 225.0,599.0 238.0,602.0 251.0,605.0 264.0,607.0 277.0,609.0 277.0,592.0 277.0,575.0 277.0,558.0 277.0,541.0 277.0,524.0 277.0,507.0 277.0,490.0 277.0,473.0 277.0,456.0 277.0,439.0 225.0,429.0 212.0,426.0 186.0,419.0 173.0,415.0 121.0,395.0 56.0,358.0 44.0,419.0 43.0,436.0 44.0,470.0 56.0,511.0" style="fill:#C4C4C4;" />
<polygon data-section="Mid Side Orchestra/Rear Orchestra/Front Mezzanine Sides/Mid Mezzanine" data-priority="3" class="53020" points="69.0,316.0 82.0,324.0 95.0,331.0 108.0,338.0 121.0,344.0 134.0,350.0 147.0,355.0 160.0,360.0 173.0,364.0 186.0,368.0 199.0,372.0 212.0,375.0 225.0,378.0 238.0,381.0 251.0,384.0 264.0,386.0 277.0,388.0 277.0,371.0 277.0,354.0 277.0,337.0 277.0,320.0 277.0,303.0 225.0,293.0 212.0,290.0 108.0,253.0 69.0,282.0 56.0,307.0 69.0,316.0" style="fill:#C4C4C4;" />
<polygon data-section="Mid Side Orchestra/Rear Orchestra/Front Mezzanine Sides/Mid Mezzanine" data-priority="3" class="53020" points="312.0,549.0 312.0,566.0 325.0,586.0 338.0,589.0 351.0,591.0 364.0,593.0 377.0,595.0 390.0,596.0 403.0,597.0 416.0,598.0 429.0,598.0 442.0,597.0 455.0,596.0 468.0,595.0 481.0,593.0 494.0,591.0 507.0,589.0 520.0,586.0 533.0,566.0 533.0,549.0 533.0,532.0 533.0,515.0 533.0,498.0 533.0,481.0 520.0,484.0 494.0,489.0 481.0,491.0 364.0,491.0 351.0,489.0 325.0,484.0 312.0,481.0 312.0,498.0 312.0,515.0 312.0,532.0 312.0,549.0" style="fill:#C4C4C4;" />
<polygon data-section="Mid Side Orchestra/Rear Orchestra/Front Mezzanine Sides/Mid Mezzanine" data-priority="3" class="53020" points="44.0,698.0 44.0,715.0 44.0,732.0 56.0,773.0 82.0,807.0 95.0,814.0 108.0,821.0 121.0,827.0 134.0,833.0 147.0,838.0 160.0,843.0 173.0,847.0 186.0,851.0 199.0,855.0 212.0,858.0 225.0,861.0 238.0,864.0 251.0,867.0 264.0,869.0 277.0,871.0 277.0,854.0 277.0,837.0 277.0,820.0 264.0,818.0 238.0,813.0 225.0,810.0 134.0,765.0 69.0,663.0 56.0,654.0 44.0,647.0 44.0,664.0 44.0,681.0 44.0,698.0" style="fill:#C4C4C4;" />
<polygon data-section="Mid Side Orchestra/Rear Orchestra/Front Mezzanine Sides/Mid Mezzanine" data-priority="3" class="53020" points="568.0,817.0 568.0,834.0 568.0,851.0 568.0,868.0 581.0,866.0 594.0,864.0 607.0,861.0 620.0,858.0 633.0,855.0 646.0,852.0 659.0,848.0 672.0,844.0 685.0,840.0 698.0,835.0 711.0,830.0 724.0,824.0 737.0,818.0 750.0,811.0 763.0,804.0 789.0,770.0 801.0,729.0 801.0,712.0 801.0,695.0 801.0,678.0 801.0,661.0 801.0,644.0 789.0,651.0 776.0,660.0 711.0,762.0 620.0,807.0 607.0,810.0 581.0,815.0 568.0,817.0" style="fill:#C4C4C4;" />
<polygon data-section="Mid Side Orchestra/Rear Orchestra/Front Mezzanine Sides/Mid Mezzanine" data-priority="3" class="53020" points="312.0,946.0 325.0,949.0 338.0,952.0 351.0,954.0 364.0,956.0 377.0,958.0 390.0,959.0 403.0,960.0 416.0,961.0 429.0,961.0 442.0,960.0 455.0,959.0 468.0,958.0 481.0,956.0 494.0,954.0 507.0,952.0 520.0,949.0 533.0,946.0 533.0,929.0 533.0,912.0 533.0,861.0 520.0,864.0 494.0,869.0 481.0,871.0 364.0,871.0 351.0,869.0 325.0,864.0 312.0,861.0 312.0,912.0 312.0,929.0 312.0,946.0" style="fill:#C4C4C4;" />
<polygon data-section="Mid Side Orchestra/Rear Orchestra/Front Mezzanine Sides/Mid Mezzanine" data-priority="3" class="53020" points="82.0,875.0 95.0,882.0 108.0,889.0 121.0,895.0 134.0,901.0 147.0,906.0 160.0,911.0 173.0,915.0 186.0,919.0 199.0,923.0 212.0,926.0 225.0,929.0 238.0,932.0 251.0,935.0 264.0,937.0 277.0,939.0 277.0,922.0 277.0,905.0 225.0,895.0 212.0,892.0 186.0,885.0 69.0,833.0 82.0,875.0" style="fill:#C4C4C4;" />
<polygon data-section="Mid Side Orchestra/Rear Orchestra/Front Mezzanine Sides/Mid Mezzanine" data-priority="3" class="53020" points="646.0,920.0 659.0,916.0 672.0,912.0 685.0,908.0 698.0,903.0 711.0,898.0 724.0,892.0 737.0,886.0 750.0,879.0 763.0,872.0 776.0,830.0 659.0,882.0 633.0,889.0 620.0,892.0 568.0,902.0 568.0,919.0 568.0,936.0 581.0,934.0 594.0,932.0 607.0,929.0 620.0,926.0 633.0,923.0 646.0,920.0" style="fill:#C4C4C4;" />
</g>
<g class="grouped-Front Center Orchestra/Center and Side Orchestra/Front Mezzanine">
<polygon data-section="Front Center Orchestra/Center and Side Orchestra/Front Mezzanine" data-priority="3" class="53023" points="312.0,260.0 312.0,277.0 312.0,294.0 312.0,311.0 312.0,328.0 312.0,345.0 312.0,362.0 312.0,379.0 312.0,396.0 312.0,413.0 312.0,430.0 312.0,464.0 312.0,481.0 312.0,498.0 312.0,515.0 312.0,532.0 312.0,549.0 312.0,566.0 325.0,586.0 338.0,589.0 351.0,591.0 364.0,593.0 377.0,595.0 390.0,596.0 403.0,597.0 416.0,598.0 429.0,598.0 442.0,597.0 455.0,596.0 468.0,595.0 481.0,593.0 494.0,591.0 507.0,589.0 520.0,586.0 533.0,566.0 533.0,549.0 533.0,532.0 533.0,515.0 533.0,498.0 533.0,481.0 533.0,464.0 533.0,430.0 533.0,413.0 533.0,396.0 533.0,379.0 533.0,362.0 533.0,345.0 533.0,328.0 533.0,311.0 533.0,294.0 533.0,277.0 533.0,260.0 533.0,243.0 533.0,226.0 533.0,209.0 533.0,192.0 533.0,175.0 533.0,158.0 533.0,141.0 533.0,124.0 520.0,127.0 494.0,132.0 481.0,134.0 390.0,137.0 364.0,134.0 351.0,132.0 325.0,127.0 312.0,124.0 312.0,141.0 312.0,158.0 312.0,175.0 312.0,192.0 312.0,209.0 312.0,226.0 312.0,243.0 312.0,260.0" style="fill:#C4C4C4;" />
<polygon data-section="Front Center Orchestra/Center and Side Orchestra/Front Mezzanine" data-priority="3" class="53023" points="44.0,470.0 56.0,511.0 134.0,571.0 147.0,576.0 160.0,581.0 173.0,585.0 186.0,589.0 199.0,593.0 212.0,596.0 225.0,599.0 238.0,602.0 251.0,605.0 264.0,607.0 277.0,609.0 277.0,592.0 277.0,575.0 277.0,558.0 277.0,541.0 277.0,524.0 277.0,507.0 277.0,490.0 277.0,473.0 277.0,456.0 277.0,439.0 225.0,429.0 212.0,426.0 186.0,419.0 173.0,415.0 121.0,395.0 56.0,358.0 44.0,419.0 43.0,436.0 44.0,470.0" style="fill:#C4C4C4;" />
<polygon data-section="Front Center Orchestra/Center and Side Orchestra/Front Mezzanine" data-priority="3" class="53023" points="82.0,324.0 95.0,331.0 108.0,338.0 121.0,344.0 134.0,350.0 147.0,355.0 160.0,360.0 173.0,364.0 186.0,368.0 199.0,372.0 212.0,375.0 225.0,378.0 238.0,381.0 251.0,384.0 264.0,386.0 277.0,388.0 277.0,371.0 277.0,354.0 277.0,337.0 277.0,320.0 277.0,303.0 277.0,286.0 277.0,269.0 277.0,252.0 277.0,235.0 277.0,218.0 277.0,201.0 277.0,184.0 277.0,167.0 277.0,150.0 277.0,133.0 277.0,116.0 264.0,114.0 251.0,112.0 225.0,123.0 186.0,147.0 121.0,208.0 69.0,282.0 56.0,307.0 69.0,316.0 82.0,324.0" style="fill:#C4C4C4;" />
<polygon data-section="Front Center Orchestra/Center and Side Orchestra/Front Mezzanine" data-priority="3" class="53023" points="568.0,522.0 568.0,539.0 568.0,556.0 568.0,573.0 568.0,590.0 568.0,607.0 581.0,605.0 594.0,603.0 607.0,600.0 620.0,597.0 633.0,594.0 646.0,591.0 659.0,587.0 672.0,583.0 685.0,579.0 698.0,574.0 711.0,569.0 789.0,509.0 801.0,468.0 802.0,434.0 801.0,417.0 789.0,356.0 724.0,393.0 672.0,413.0 659.0,417.0 633.0,424.0 620.0,427.0 568.0,437.0 568.0,454.0 568.0,471.0 568.0,488.0 568.0,505.0 568.0,522.0" style="fill:#C4C4C4;" />
<polygon data-section="Front Center Orchestra/Center and Side Orchestra/Front Mezzanine" data-priority="3" class="53023" points="568.0,201.0 568.0,218.0 568.0,235.0 568.0,252.0 568.0,269.0 568.0,286.0 568.0,303.0 568.0,320.0 568.0,337.0 568.0,354.0 568.0,371.0 568.0,388.0 581.0,386.0 594.0,384.0 607.0,381.0 620.0,378.0 633.0,375.0 646.0,372.0 659.0,368.0 672.0,364.0 685.0,360.0 698.0,355.0 711.0,350.0 724.0,344.0 737.0,338.0 750.0,331.0 763.0,324.0 776.0,316.0 789.0,307.0 776.0,282.0 724.0,208.0 659.0,147.0 620.0,123.0 594.0,112.0 581.0,114.0 568.0,116.0 568.0,133.0 568.0,150.0 568.0,167.0 568.0,184.0 568.0,201.0" style="fill:#C4C4C4;" />
<polygon data-section="Front Center Orchestra/Center and Side Orchestra/Front Mezzanine" data-priority="3" class="53023" points="44.0,715.0 44.0,732.0 56.0,756.0 69.0,765.0 82.0,773.0 95.0,780.0 108.0,787.0 121.0,793.0 134.0,799.0 147.0,804.0 160.0,809.0 173.0,813.0 186.0,817.0 199.0,821.0 212.0,824.0 225.0,827.0 238.0,830.0 251.0,833.0 264.0,835.0 277.0,837.0 277.0,820.0 264.0,818.0 238.0,813.0 225.0,810.0 134.0,765.0 69.0,663.0 56.0,654.0 44.0,647.0 44.0,664.0 44.0,681.0 44.0,698.0 44.0,715.0" style="fill:#C4C4C4;" />
<polygon data-section="Front Center Orchestra/Center and Side Orchestra/Front Mezzanine" data-priority="3" class="53023" points="325.0,847.0 338.0,850.0 351.0,852.0 364.0,854.0 377.0,856.0 390.0,857.0 403.0,858.0 416.0,859.0 429.0,859.0 442.0,858.0 455.0,857.0 468.0,856.0 481.0,854.0 494.0,852.0 507.0,850.0 520.0,847.0 533.0,844.0 533.0,827.0 520.0,830.0 351.0,835.0 325.0,830.0 312.0,827.0 312.0,844.0 325.0,847.0" style="fill:#C4C4C4;" />
<polygon data-section="Front Center Orchestra/Center and Side Orchestra/Front Mezzanine" data-priority="3" class="53023" points="620.0,807.0 607.0,810.0 581.0,815.0 568.0,817.0 568.0,834.0 581.0,832.0 594.0,830.0 607.0,827.0 620.0,824.0 633.0,821.0 646.0,818.0 659.0,814.0 672.0,810.0 685.0,806.0 698.0,801.0 711.0,796.0 724.0,790.0 737.0,784.0 750.0,777.0 763.0,770.0 776.0,762.0 789.0,753.0 801.0,729.0 801.0,712.0 801.0,695.0 801.0,678.0 801.0,661.0 801.0,644.0 789.0,651.0 776.0,660.0 711.0,762.0 620.0,807.0" style="fill:#C4C4C4;" />
</g>
<g class="grouped-Front Mezzanine/Front Mezzanine Sides/Mid Mezzanine">
<polygon data-section="Front Mezzanine/Front Mezzanine Sides/Mid Mezzanine" data-priority="3" class="53025" points="44.0,732.0 56.0,773.0 82.0,807.0 95.0,814.0 108.0,821.0 121.0,827.0 134.0,833.0 147.0,838.0 160.0,843.0 173.0,847.0 186.0,851.0 199.0,855.0 212.0,858.0 225.0,861.0 238.0,864.0 251.0,867.0 264.0,869.0 277.0,871.0 277.0,854.0 277.0,837.0 277.0,820.0 264.0,818.0 238.0,813.0 225.0,810.0 134.0,765.0 69.0,663.0 56.0,654.0 44.0,647.0 44.0,664.0 44.0,681.0 44.0,698.0 44.0,715.0 44.0,732.0" style="fill:#C4C4C4;" />
<polygon data-section="Front Mezzanine/Front Mezzanine Sides/Mid Mezzanine" data-priority="3" class="53025" points="312.0,929.0 312.0,946.0 325.0,949.0 338.0,952.0 351.0,954.0 364.0,956.0 377.0,958.0 390.0,959.0 403.0,960.0 416.0,961.0 429.0,961.0 442.0,960.0 455.0,959.0 468.0,958.0 481.0,956.0 494.0,954.0 507.0,952.0 520.0,949.0 533.0,946.0 533.0,929.0 533.0,912.0 533.0,861.0 533.0,844.0 533.0,827.0 520.0,830.0 494.0,835.0 481.0,837.0 364.0,837.0 351.0,835.0 325.0,830.0 312.0,827.0 312.0,844.0 312.0,861.0 312.0,912.0 312.0,929.0" style="fill:#C4C4C4;" />
<polygon data-section="Front Mezzanine/Front Mezzanine Sides/Mid Mezzanine" data-priority="3" class="53025" points="581.0,815.0 568.0,817.0 568.0,834.0 568.0,851.0 568.0,868.0 581.0,866.0 594.0,864.0 607.0,861.0 620.0,858.0 633.0,855.0 646.0,852.0 659.0,848.0 672.0,844.0 685.0,840.0 698.0,835.0 711.0,830.0 724.0,824.0 737.0,818.0 750.0,811.0 763.0,804.0 789.0,770.0 801.0,729.0 801.0,712.0 801.0,695.0 801.0,678.0 801.0,661.0 801.0,644.0 789.0,651.0 776.0,660.0 711.0,762.0 620.0,807.0 607.0,810.0 581.0,815.0" style="fill:#C4C4C4;" />
<polygon data-section="Front Mezzanine/Front Mezzanine Sides/Mid Mezzanine" data-priority="3" class="53025" points="82.0,875.0 95.0,882.0 108.0,889.0 121.0,895.0 134.0,901.0 147.0,906.0 160.0,911.0 173.0,915.0 186.0,919.0 199.0,923.0 212.0,926.0 225.0,929.0 238.0,932.0 251.0,935.0 264.0,937.0 277.0,939.0 277.0,922.0 277.0,905.0 225.0,895.0 212.0,892.0 186.0,885.0 69.0,833.0 82.0,875.0" style="fill:#C4C4C4;" />
<polygon data-section="Front Mezzanine/Front Mezzanine Sides/Mid Mezzanine" data-priority="3" class="53025" points="646.0,920.0 659.0,916.0 672.0,912.0 685.0,908.0 698.0,903.0 711.0,898.0 724.0,892.0 737.0,886.0 750.0,879.0 763.0,872.0 776.0,830.0 659.0,882.0 633.0,889.0 620.0,892.0 568.0,902.0 568.0,919.0 568.0,936.0 581.0,934.0 594.0,932.0 607.0,929.0 620.0,926.0 633.0,923.0 646.0,920.0" style="fill:#C4C4C4;" />
</g>
<g class="grouped-Mid Side Orchestra">
<polygon data-section="Mid Side Orchestra" data-priority="3" class="53026" points="568.0,337.0 568.0,354.0 568.0,371.0 568.0,388.0 581.0,386.0 594.0,384.0 607.0,381.0 620.0,378.0 633.0,375.0 646.0,372.0 659.0,368.0 672.0,364.0 685.0,360.0 698.0,355.0 711.0,350.0 724.0,344.0 737.0,338.0 750.0,331.0 763.0,324.0 776.0,316.0 789.0,307.0 776.0,282.0 737.0,253.0 633.0,290.0 620.0,293.0 568.0,303.0 568.0,320.0 568.0,337.0" style="fill:#C4C4C4;" />
<polygon data-section="Mid Side Orchestra" data-priority="3" class="53026" points="633.0,424.0 620.0,427.0 568.0,437.0 568.0,454.0 581.0,452.0 594.0,450.0 607.0,447.0 620.0,444.0 633.0,441.0 646.0,438.0 659.0,434.0 672.0,430.0 685.0,426.0 698.0,421.0 711.0,416.0 724.0,410.0 737.0,404.0 750.0,397.0 763.0,390.0 776.0,382.0 789.0,373.0 789.0,356.0 659.0,417.0 633.0,424.0" style="fill:#C4C4C4;" />
<polygon data-section="Mid Side Orchestra" data-priority="3" class="53026" points="82.0,392.0 95.0,399.0 108.0,406.0 121.0,412.0 134.0,418.0 147.0,423.0 160.0,428.0 173.0,432.0 186.0,436.0 199.0,440.0 212.0,443.0 225.0,446.0 238.0,449.0 251.0,452.0 264.0,454.0 277.0,456.0 277.0,439.0 225.0,429.0 212.0,426.0 186.0,419.0 56.0,358.0 56.0,375.0 69.0,384.0 82.0,392.0" style="fill:#C4C4C4;" />
<polygon data-section="Mid Side Orchestra" data-priority="3" class="53026" points="69.0,316.0 82.0,324.0 95.0,331.0 108.0,338.0 121.0,344.0 134.0,350.0 147.0,355.0 160.0,360.0 173.0,364.0 186.0,368.0 199.0,372.0 212.0,375.0 225.0,378.0 238.0,381.0 251.0,384.0 264.0,386.0 277.0,388.0 277.0,371.0 277.0,354.0 277.0,337.0 277.0,320.0 277.0,303.0 225.0,293.0 212.0,290.0 108.0,253.0 69.0,282.0 56.0,307.0 69.0,316.0" style="fill:#C4C4C4;" />
</g>
<g class="grouped-Front Mezzanine/Front Mezzanine Sides">
<polygon data-section="Front Mezzanine/Front Mezzanine Sides" data-priority="3" class="53029" points="44.0,715.0 44.0,732.0 56.0,756.0 69.0,765.0 82.0,773.0 95.0,780.0 108.0,787.0 121.0,793.0 134.0,799.0 147.0,804.0 160.0,809.0 173.0,813.0 186.0,817.0 199.0,821.0 212.0,824.0 225.0,827.0 238.0,830.0 251.0,833.0 264.0,835.0 277.0,837.0 277.0,820.0 264.0,818.0 238.0,813.0 225.0,810.0 134.0,765.0 69.0,663.0 56.0,654.0 44.0,647.0 44.0,664.0 44.0,681.0 44.0,698.0 44.0,715.0" style="fill:#C4C4C4;" />
<polygon data-section="Front Mezzanine/Front Mezzanine Sides" data-priority="3" class="53029" points="325.0,847.0 338.0,850.0 351.0,852.0 364.0,854.0 377.0,856.0 390.0,857.0 403.0,858.0 416.0,859.0 429.0,859.0 442.0,858.0 455.0,857.0 468.0,856.0 481.0,854.0 494.0,852.0 507.0,850.0 520.0,847.0 533.0,844.0 533.0,827.0 520.0,830.0 351.0,835.0 325.0,830.0 312.0,827.0 312.0,844.0 325.0,847.0" style="fill:#C4C4C4;" />
<polygon data-section="Front Mezzanine/Front Mezzanine Sides" data-priority="3" class="53029" points="659.0,814.0 672.0,810.0 685.0,806.0 698.0,801.0 711.0,796.0 724.0,790.0 737.0,784.0 750.0,777.0 763.0,770.0 776.0,762.0 789.0,753.0 801.0,729.0 801.0,712.0 801.0,695.0 801.0,678.0 801.0,661.0 801.0,644.0 789.0,651.0 776.0,660.0 711.0,762.0 620.0,807.0 607.0,810.0 581.0,815.0 568.0,817.0 568.0,834.0 581.0,832.0 594.0,830.0 607.0,827.0 620.0,824.0 633.0,821.0 646.0,818.0 659.0,814.0" style="fill:#C4C4C4;" />
</g>
<g class="grouped-Rear Orchestra/Front Mezzanine/Front Mezzanine Sides/Mid Mezzanine">
<polygon data-section="Rear Orchestra/Front Mezzanine/Front Mezzanine Sides/Mid Mezzanine" data-priority="3" class="58782" points="312.0,549.0 312.0,566.0 325.0,586.0 338.0,589.0 351.0,591.0 364.0,593.0 377.0,595.0 390.0,596.0 403.0,597.0 416.0,598.0 429.0,598.0 442.0,597.0 455.0,596.0 468.0,595.0 481.0,593.0 494.0,591.0 507.0,589.0 520.0,586.0 533.0,566.0 533.0,549.0 533.0,532.0 533.0,515.0 533.0,498.0 533.0,481.0 520.0,484.0 494.0,489.0 481.0,491.0 364.0,491.0 351.0,489.0 325.0,484.0 312.0,481.0 312.0,498.0 312.0,515.0 312.0,532.0 312.0,549.0" style="fill:#C4C4C4;" />
<polygon data-section="Rear Orchestra/Front Mezzanine/Front Mezzanine Sides/Mid Mezzanine" data-priority="3" class="58782" points="44.0,470.0 56.0,511.0 134.0,571.0 147.0,576.0 160.0,581.0 173.0,585.0 186.0,589.0 199.0,593.0 212.0,596.0 225.0,599.0 238.0,602.0 251.0,605.0 264.0,607.0 277.0,609.0 277.0,592.0 277.0,575.0 277.0,558.0 277.0,541.0 277.0,524.0 277.0,507.0 277.0,490.0 277.0,473.0 225.0,463.0 212.0,460.0 186.0,453.0 173.0,449.0 121.0,429.0 56.0,392.0 44.0,419.0 43.0,436.0 44.0,470.0" style="fill:#C4C4C4;" />
<polygon data-section="Rear Orchestra/Front Mezzanine/Front Mezzanine Sides/Mid Mezzanine" data-priority="3" class="58782" points="568.0,505.0 568.0,522.0 568.0,539.0 568.0,556.0 568.0,573.0 568.0,590.0 568.0,607.0 581.0,605.0 594.0,603.0 607.0,600.0 620.0,597.0 633.0,594.0 646.0,591.0 659.0,587.0 672.0,583.0 685.0,579.0 698.0,574.0 711.0,569.0 789.0,509.0 801.0,468.0 802.0,434.0 801.0,417.0 789.0,390.0 724.0,427.0 672.0,447.0 659.0,451.0 633.0,458.0 620.0,461.0 568.0,471.0 568.0,488.0 568.0,505.0" style="fill:#C4C4C4;" />
<polygon data-section="Rear Orchestra/Front Mezzanine/Front Mezzanine Sides/Mid Mezzanine" data-priority="3" class="58782" points="44.0,732.0 56.0,773.0 82.0,807.0 95.0,814.0 108.0,821.0 121.0,827.0 134.0,833.0 147.0,838.0 160.0,843.0 173.0,847.0 186.0,851.0 199.0,855.0 212.0,858.0 225.0,861.0 238.0,864.0 251.0,867.0 264.0,869.0 277.0,871.0 277.0,854.0 277.0,837.0 277.0,820.0 264.0,818.0 238.0,813.0 225.0,810.0 134.0,765.0 69.0,663.0 56.0,654.0 44.0,647.0 44.0,664.0 44.0,681.0 44.0,698.0 44.0,715.0 44.0,732.0" style="fill:#C4C4C4;" />
<polygon data-section="Rear Orchestra/Front Mezzanine/Front Mezzanine Sides/Mid Mezzanine" data-priority="3" class="58782" points="312.0,929.0 312.0,946.0 325.0,949.0 338.0,952.0 351.0,954.0 364.0,956.0 377.0,958.0 390.0,959.0 403.0,960.0 416.0,961.0 429.0,961.0 442.0,960.0 455.0,959.0 468.0,958.0 481.0,956.0 494.0,954.0 507.0,952.0 520.0,949.0 533.0,946.0 533.0,929.0 533.0,912.0 533.0,861.0 533.0,844.0 533.0,827.0 520.0,830.0 494.0,835.0 481.0,837.0 364.0,837.0 351.0,835.0 325.0,830.0 312.0,827.0 312.0,844.0 312.0,861.0 312.0,912.0 312.0,929.0" style="fill:#C4C4C4;" />
<polygon data-section="Rear Orchestra/Front Mezzanine/Front Mezzanine Sides/Mid Mezzanine" data-priority="3" class="58782" points="581.0,815.0 568.0,817.0 568.0,834.0 568.0,851.0 568.0,868.0 581.0,866.0 594.0,864.0 607.0,861.0 620.0,858.0 633.0,855.0 646.0,852.0 659.0,848.0 672.0,844.0 685.0,840.0 698.0,835.0 711.0,830.0 724.0,824.0 737.0,818.0 750.0,811.0 763.0,804.0 789.0,770.0 801.0,729.0 801.0,712.0 801.0,695.0 801.0,678.0 801.0,661.0 801.0,644.0 789.0,651.0 776.0,660.0 711.0,762.0 620.0,807.0 607.0,810.0 581.0,815.0" style="fill:#C4C4C4;" />
<polygon data-section="Rear Orchestra/Front Mezzanine/Front Mezzanine Sides/Mid Mezzanine" data-priority="3" class="58782" points="82.0,875.0 95.0,882.0 108.0,889.0 121.0,895.0 134.0,901.0 147.0,906.0 160.0,911.0 173.0,915.0 186.0,919.0 199.0,923.0 212.0,926.0 225.0,929.0 238.0,932.0 251.0,935.0 264.0,937.0 277.0,939.0 277.0,922.0 277.0,905.0 225.0,895.0 212.0,892.0 186.0,885.0 69.0,833.0 82.0,875.0" style="fill:#C4C4C4;" />
<polygon data-section="Rear Orchestra/Front Mezzanine/Front Mezzanine Sides/Mid Mezzanine" data-priority="3" class="58782" points="646.0,920.0 659.0,916.0 672.0,912.0 685.0,908.0 698.0,903.0 711.0,898.0 724.0,892.0 737.0,886.0 750.0,879.0 763.0,872.0 776.0,830.0 659.0,882.0 633.0,889.0 620.0,892.0 568.0,902.0 568.0,919.0 568.0,936.0 581.0,934.0 594.0,932.0 607.0,929.0 620.0,926.0 633.0,923.0 646.0,920.0" style="fill:#C4C4C4;" />
</g>
<g class="grouped-Mid Side Orchestra/Front Mezzanine Sides">
<polygon data-section="Mid Side Orchestra/Front Mezzanine Sides" data-priority="3" class="60305" points="568.0,337.0 568.0,354.0 568.0,371.0 568.0,388.0 581.0,386.0 594.0,384.0 607.0,381.0 620.0,378.0 633.0,375.0 646.0,372.0 659.0,368.0 672.0,364.0 685.0,360.0 698.0,355.0 711.0,350.0 724.0,344.0 737.0,338.0 750.0,331.0 763.0,324.0 776.0,316.0 789.0,307.0 776.0,282.0 737.0,253.0 633.0,290.0 620.0,293.0 568.0,303.0 568.0,320.0 568.0,337.0" style="fill:#C4C4C4;" />
<polygon data-section="Mid Side Orchestra/Front Mezzanine Sides" data-priority="3" class="60305" points="633.0,424.0 620.0,427.0 568.0,437.0 568.0,454.0 581.0,452.0 594.0,450.0 607.0,447.0 620.0,444.0 633.0,441.0 646.0,438.0 659.0,434.0 672.0,430.0 685.0,426.0 698.0,421.0 711.0,416.0 724.0,410.0 737.0,404.0 750.0,397.0 763.0,390.0 776.0,382.0 789.0,373.0 789.0,356.0 659.0,417.0 633.0,424.0" style="fill:#C4C4C4;" />
<polygon data-section="Mid Side Orchestra/Front Mezzanine Sides" data-priority="3" class="60305" points="82.0,392.0 95.0,399.0 108.0,406.0 121.0,412.0 134.0,418.0 147.0,423.0 160.0,428.0 173.0,432.0 186.0,436.0 199.0,440.0 212.0,443.0 225.0,446.0 238.0,449.0 251.0,452.0 264.0,454.0 277.0,456.0 277.0,439.0 225.0,429.0 212.0,426.0 186.0,419.0 56.0,358.0 56.0,375.0 69.0,384.0 82.0,392.0" style="fill:#C4C4C4;" />
<polygon data-section="Mid Side Orchestra/Front Mezzanine Sides" data-priority="3" class="60305" points="69.0,316.0 82.0,324.0 95.0,331.0 108.0,338.0 121.0,344.0 134.0,350.0 147.0,355.0 160.0,360.0 173.0,364.0 186.0,368.0 199.0,372.0 212.0,375.0 225.0,378.0 238.0,381.0 251.0,384.0 264.0,386.0 277.0,388.0 277.0,371.0 277.0,354.0 277.0,337.0 277.0,320.0 277.0,303.0 225.0,293.0 212.0,290.0 108.0,253.0 69.0,282.0 56.0,307.0 69.0,316.0" style="fill:#C4C4C4;" />
<polygon data-section="Mid Side Orchestra/Front Mezzanine Sides" data-priority="3" class="60305" points="44.0,715.0 44.0,732.0 56.0,756.0 69.0,765.0 82.0,773.0 95.0,780.0 108.0,787.0 121.0,793.0 134.0,799.0 147.0,804.0 160.0,809.0 173.0,813.0 186.0,817.0 199.0,821.0 212.0,824.0 225.0,827.0 238.0,830.0 251.0,833.0 264.0,835.0 277.0,837.0 277.0,820.0 264.0,818.0 238.0,813.0 225.0,810.0 134.0,765.0 69.0,663.0 56.0,654.0 44.0,647.0 44.0,664.0 44.0,681.0 44.0,698.0 44.0,715.0" style="fill:#C4C4C4;" />
<polygon data-section="Mid Side Orchestra/Front Mezzanine Sides" data-priority="3" class="60305" points="620.0,807.0 607.0,810.0 581.0,815.0 568.0,817.0 568.0,834.0 581.0,832.0 594.0,830.0 607.0,827.0 620.0,824.0 633.0,821.0 646.0,818.0 659.0,814.0 672.0,810.0 685.0,806.0 698.0,801.0 711.0,796.0 724.0,790.0 737.0,784.0 750.0,777.0 763.0,770.0 776.0,762.0 789.0,753.0 801.0,729.0 801.0,712.0 801.0,695.0 801.0,678.0 801.0,661.0 801.0,644.0 789.0,651.0 776.0,660.0 711.0,762.0 620.0,807.0" style="fill:#C4C4C4;" />
</g>
</g></svg>