<svg viewbox="0 0 692.0 1174.007" xmlns="http://www.w3.org/2000/svg">
<g id="stage">
<rect x="200" y="0" width="292.0" height="100" fill="#C4C4C4" />
<text font-size="28px" x="346.0" y="50.0" text-anchor="middle" dominant-baseline="middle">STAGE</text>
</g>
<g transform="translate(0, 100)">
<g class="primary-clusters">
<text x="346.0" y="85" font-size="28px" text-anchor="middle" dominant-baseline="middle">ORCHESTRA</text><text x="346.0" y="543.0" font-size="28px" text-anchor="middle" dominant-baseline="middle">MEZZANINE</text><g class="grouped-orchestra cluster0">
<polygon data-section="orchestra" data-priority="-1" class="n/a" points="67.0,307.0 67.0,324.0 67.0,341.0 67.0,358.0 67.0,375.0 67.0,392.0 67.0,409.0 67.0,426.0 80.0,466.0 93.0,472.0 106.0,478.0 119.0,483.0 132.0,488.0 145.0,492.0 236.0,492.0 236.0,475.0 236.0,458.0 236.0,441.0 236.0,424.0 236.0,407.0 236.0,390.0 236.0,373.0 236.0,356.0 236.0,339.0 236.0,322.0 236.0,305.0 210.0,302.0 197.0,300.0 119.0,279.0 93.0,268.0 80.0,262.0 67.0,256.0 67.0,273.0 67.0,290.0 67.0,307.0" style="fill:#C4C4C4;" />
</g>
<g class="grouped-orchestra cluster1">
<polygon data-section="orchestra" data-priority="-1" class="n/a" points="93.0,167.0 106.0,206.0 119.0,228.0 132.0,233.0 145.0,237.0 158.0,241.0 171.0,244.0 184.0,247.0 197.0,249.0 210.0,251.0 223.0,253.0 236.0,254.0 236.0,237.0 236.0,220.0 236.0,203.0 236.0,186.0 236.0,169.0 236.0,152.0 236.0,135.0 236.0,118.0 197.0,113.0 119.0,143.0 106.0,155.0 93.0,167.0" style="fill:#C4C4C4;" />
</g>
<g class="grouped-orchestra cluster2">
<polygon data-section="orchestra" data-priority="-1" class="n/a" points="268.0,240.0 268.0,257.0 268.0,274.0 268.0,291.0 268.0,308.0 268.0,325.0 268.0,342.0 268.0,359.0 268.0,376.0 268.0,393.0 268.0,410.0 268.0,427.0 268.0,444.0 268.0,461.0 268.0,478.0 268.0,495.0 281.0,496.0 307.0,497.0 333.0,498.0 359.0,498.0 385.0,497.0 411.0,496.0 424.0,495.0 424.0,478.0 424.0,461.0 424.0,444.0 424.0,427.0 424.0,410.0 424.0,393.0 424.0,376.0 424.0,359.0 424.0,342.0 424.0,325.0 424.0,308.0 424.0,291.0 424.0,274.0 424.0,257.0 424.0,240.0 424.0,223.0 424.0,206.0 424.0,189.0 424.0,172.0 424.0,155.0 424.0,138.0 424.0,121.0 398.0,122.0 320.0,123.0 294.0,122.0 268.0,121.0 268.0,138.0 268.0,155.0 268.0,172.0 268.0,189.0 268.0,206.0 268.0,223.0 268.0,240.0" style="fill:#C4C4C4;" />
</g>
<g class="grouped-orchestra cluster3">
<polygon data-section="orchestra" data-priority="-1" class="n/a" points="456.0,356.0 456.0,373.0 456.0,390.0 456.0,407.0 456.0,424.0 456.0,441.0 456.0,458.0 456.0,475.0 456.0,492.0 469.0,491.0 482.0,490.0 495.0,488.0 508.0,486.0 521.0,483.0 534.0,480.0 612.0,433.0 625.0,427.0 625.0,410.0 625.0,393.0 625.0,376.0 625.0,359.0 625.0,342.0 625.0,325.0 625.0,308.0 625.0,292.0 625.0,275.0 625.0,258.0 612.0,264.0 573.0,280.0 547.0,289.0 469.0,304.0 456.0,305.0 456.0,322.0 456.0,339.0 456.0,356.0" style="fill:#C4C4C4;" />
</g>
<g class="grouped-orchestra cluster4">
<polygon data-section="orchestra" data-priority="-1" class="n/a" points="456.0,186.0 456.0,203.0 456.0,220.0 456.0,237.0 456.0,254.0 469.0,253.0 482.0,252.0 495.0,250.0 508.0,248.0 521.0,245.0 534.0,242.0 547.0,238.0 560.0,234.0 573.0,229.0 586.0,208.0 599.0,169.0 573.0,144.0 495.0,114.0 456.0,118.0 456.0,135.0 456.0,152.0 456.0,169.0 456.0,186.0" style="fill:#C4C4C4;" />
</g>
<g class="grouped-mezzanine cluster0">
<polygon data-section="mezzanine" data-priority="-1" class="n/a" points="60.0,588.0 60.0,605.0 60.0,621.0 73.0,627.0 86.0,633.0 99.0,639.0 112.0,644.0 125.0,649.0 138.0,653.0 151.0,657.0 164.0,660.0 177.0,663.0 190.0,665.0 203.0,667.0 216.0,669.0 229.0,670.0 229.0,654.0 229.0,637.0 229.0,620.0 229.0,603.0 229.0,586.0 203.0,583.0 190.0,581.0 112.0,560.0 86.0,549.0 73.0,543.0 60.0,537.0 60.0,554.0 60.0,571.0 60.0,588.0" style="fill:#C4C4C4;" />
</g>
<g class="grouped-mezzanine cluster1">
<polygon data-section="mezzanine" data-priority="-1" class="n/a" points="261.0,607.0 261.0,624.0 261.0,641.0 261.0,658.0 261.0,675.0 274.0,676.0 300.0,677.0 326.0,678.0 339.0,678.0 352.0,678.0 365.0,678.0 391.0,677.0 417.0,676.0 430.0,675.0 430.0,658.0 430.0,641.0 430.0,624.0 430.0,607.0 430.0,590.0 404.0,591.0 378.0,592.0 287.0,591.0 261.0,590.0 261.0,607.0" style="fill:#C4C4C4;" />
</g>
<g class="grouped-mezzanine cluster2">
<polygon data-section="mezzanine" data-priority="-1" class="n/a" points="462.0,603.0 462.0,620.0 462.0,637.0 462.0,654.0 462.0,671.0 475.0,670.0 488.0,669.0 501.0,667.0 514.0,665.0 527.0,662.0 540.0,659.0 553.0,655.0 566.0,651.0 579.0,646.0 592.0,641.0 605.0,635.0 618.0,629.0 631.0,623.0 631.0,606.0 631.0,589.0 631.0,572.0 631.0,555.0 631.0,538.0 618.0,544.0 605.0,550.0 579.0,561.0 553.0,570.0 475.0,585.0 462.0,586.0 462.0,603.0" style="fill:#C4C4C4;" />
</g>
<g class="grouped-mezzanine cluster3">
<polygon data-section="mezzanine" data-priority="-1" class="n/a" points="60.0,729.0 60.0,746.0 60.0,762.0 60.0,779.0 60.0,796.0 73.0,802.0 164.0,818.0 177.0,821.0 190.0,823.0 203.0,825.0 216.0,827.0 229.0,828.0 229.0,811.0 229.0,795.0 229.0,778.0 151.0,714.0 60.0,678.0 60.0,695.0 60.0,712.0 60.0,729.0" style="fill:#C4C4C4;" />
</g>
<g class="grouped-mezzanine cluster4">
<polygon data-section="mezzanine" data-priority="-1" class="n/a" points="261.0,817.0 261.0,834.0 274.0,835.0 339.0,820.0 417.0,835.0 430.0,834.0 430.0,817.0 430.0,800.0 430.0,783.0 430.0,766.0 430.0,749.0 430.0,732.0 404.0,733.0 378.0,734.0 287.0,733.0 261.0,732.0 261.0,749.0 261.0,766.0 261.0,783.0 261.0,800.0 261.0,817.0" style="fill:#C4C4C4;" />
</g>
<g class="grouped-mezzanine cluster5">
<polygon data-section="mezzanine" data-priority="-1" class="n/a" points="462.0,796.0 462.0,813.0 462.0,830.0 475.0,829.0 488.0,828.0 501.0,826.0 514.0,824.0 527.0,821.0 618.0,805.0 631.0,799.0 631.0,782.0 631.0,765.0 631.0,748.0 631.0,731.0 631.0,714.0 631.0,697.0 631.0,680.0 540.0,716.0 462.0,779.0 462.0,796.0" style="fill:#C4C4C4;" />
</g>
</g>
<g class="grouped-Front Orchestra">
<polygon data-section="Front Orchestra" data-priority="1" class="38083" points="93.0,167.0 106.0,206.0 119.0,228.0 132.0,233.0 145.0,237.0 158.0,241.0 171.0,244.0 184.0,247.0 197.0,249.0 210.0,251.0 223.0,253.0 236.0,254.0 236.0,237.0 236.0,220.0 236.0,203.0 236.0,186.0 236.0,169.0 236.0,152.0 236.0,135.0 236.0,118.0 197.0,113.0 119.0,143.0 106.0,155.0 93.0,167.0" style="fill:#C4C4C4;" />
<polygon data-section="Front Orchestra" data-priority="1" class="38083" points="268.0,206.0 268.0,223.0 268.0,240.0 268.0,257.0 281.0,258.0 307.0,259.0 333.0,260.0 346.0,260.0 359.0,260.0 385.0,259.0 411.0,258.0 424.0,257.0 424.0,240.0 424.0,223.0 424.0,206.0 424.0,189.0 424.0,172.0 424.0,155.0 424.0,138.0 424.0,121.0 398.0,122.0 320.0,123.0 294.0,122.0 268.0,121.0 268.0,138.0 268.0,155.0 268.0,172.0 268.0,189.0 268.0,206.0" style="fill:#C4C4C4;" />
<polygon data-section="Front Orchestra" data-priority="1" class="38083" points="456.0,152.0 456.0,169.0 456.0,186.0 456.0,203.0 456.0,220.0 456.0,237.0 456.0,254.0 469.0,253.0 482.0,252.0 495.0,250.0 508.0,248.0 521.0,245.0 534.0,242.0 547.0,238.0 560.0,234.0 573.0,229.0 586.0,208.0 599.0,169.0 573.0,144.0 495.0,114.0 456.0,118.0 456.0,135.0 456.0,152.0" style="fill:#C4C4C4;" />
</g>
<g class="grouped-Front Mezzanine">
<polygon data-section="Front Mezzanine" data-priority="1" class="49781" points="261.0,590.0 261.0,607.0 261.0,624.0 261.0,641.0 261.0,658.0 261.0,675.0 274.0,676.0 300.0,677.0 326.0,678.0 339.0,678.0 352.0,678.0 365.0,678.0 391.0,677.0 417.0,676.0 430.0,675.0 430.0,658.0 430.0,641.0 430.0,624.0 430.0,607.0 430.0,590.0 404.0,591.0 313.0,592.0 287.0,591.0 261.0,590.0" style="fill:#C4C4C4;" />
<polygon data-section="Front Mezzanine" data-priority="1" class="49781" points="60.0,588.0 60.0,605.0 60.0,621.0 73.0,627.0 86.0,633.0 99.0,639.0 112.0,644.0 125.0,649.0 138.0,653.0 151.0,657.0 164.0,660.0 177.0,663.0 190.0,665.0 203.0,667.0 216.0,669.0 229.0,670.0 229.0,654.0 229.0,637.0 229.0,620.0 229.0,603.0 229.0,586.0 203.0,583.0 190.0,581.0 112.0,560.0 86.0,549.0 73.0,543.0 60.0,537.0 60.0,554.0 60.0,571.0 60.0,588.0" style="fill:#C4C4C4;" />
<polygon data-section="Front Mezzanine" data-priority="1" class="49781" points="462.0,603.0 462.0,620.0 462.0,637.0 462.0,654.0 462.0,671.0 475.0,670.0 488.0,669.0 501.0,667.0 514.0,665.0 527.0,662.0 540.0,659.0 553.0,655.0 566.0,651.0 579.0,646.0 592.0,641.0 605.0,635.0 618.0,629.0 631.0,623.0 631.0,606.0 631.0,589.0 631.0,572.0 631.0,555.0 631.0,538.0 618.0,544.0 605.0,550.0 579.0,561.0 553.0,570.0 475.0,585.0 462.0,586.0 462.0,603.0" style="fill:#C4C4C4;" />
</g>
<g class="grouped-Mid Premiums">
<polygon data-section="Mid Premiums" data-priority="2" class="38084" points="268.0,206.0 268.0,223.0 268.0,240.0 268.0,257.0 281.0,258.0 307.0,259.0 333.0,260.0 346.0,260.0 359.0,260.0 385.0,259.0 411.0,258.0 424.0,257.0 424.0,240.0 424.0,223.0 424.0,206.0 424.0,189.0 424.0,172.0 424.0,155.0 424.0,138.0 424.0,121.0 398.0,122.0 320.0,123.0 294.0,122.0 268.0,121.0 268.0,138.0 268.0,155.0 268.0,172.0 268.0,189.0 268.0,206.0" style="fill:#C4C4C4;" />
</g>
<g class="grouped-Premiums">
<polygon data-section="Premiums" data-priority="2" class="38085" points="268.0,206.0 268.0,223.0 268.0,240.0 268.0,257.0 281.0,258.0 307.0,259.0 333.0,260.0 346.0,260.0 359.0,260.0 385.0,259.0 411.0,258.0 424.0,257.0 424.0,240.0 424.0,223.0 424.0,206.0 424.0,189.0 424.0,172.0 424.0,155.0 424.0,138.0 424.0,121.0 398.0,122.0 320.0,123.0 294.0,122.0 268.0,121.0 268.0,138.0 268.0,155.0 268.0,172.0 268.0,189.0 268.0,206.0" style="fill:#C4C4C4;" />
</g>
<g class="grouped-Front Mezzanine Center">
<polygon data-section="Front Mezzanine Center" data-priority="2" class="49789" points="261.0,658.0 261.0,675.0 274.0,676.0 300.0,677.0 326.0,678.0 339.0,678.0 352.0,678.0 365.0,678.0 391.0,677.0 417.0,676.0 430.0,675.0 430.0,658.0 430.0,641.0 430.0,624.0 430.0,607.0 430.0,590.0 404.0,591.0 313.0,592.0 287.0,591.0 261.0,590.0 261.0,607.0 261.0,624.0 261.0,641.0 261.0,658.0" style="fill:#C4C4C4;" />
</g>
<g class="grouped-Mid Orchestra/Rear Orchestra Center/Front Mezzanine Center">
<polygon data-section="Mid Orchestra/Rear Orchestra Center/Front Mezzanine Center" data-priority="2" class="49791" points="268.0,359.0 268.0,376.0 268.0,393.0 268.0,410.0 268.0,427.0 268.0,444.0 268.0,461.0 268.0,478.0 268.0,495.0 281.0,496.0 307.0,497.0 333.0,498.0 359.0,498.0 385.0,497.0 411.0,496.0 424.0,495.0 424.0,478.0 424.0,461.0 424.0,444.0 424.0,427.0 424.0,410.0 424.0,393.0 424.0,376.0 424.0,359.0 424.0,342.0 424.0,325.0 424.0,308.0 424.0,291.0 424.0,274.0 398.0,275.0 372.0,276.0 294.0,275.0 268.0,274.0 268.0,291.0 268.0,308.0 268.0,325.0 268.0,342.0 268.0,359.0" style="fill:#C4C4C4;" />
<polygon data-section="Mid Orchestra/Rear Orchestra Center/Front Mezzanine Center" data-priority="2" class="49791" points="456.0,322.0 456.0,339.0 456.0,356.0 456.0,373.0 456.0,390.0 469.0,389.0 482.0,388.0 495.0,386.0 508.0,384.0 521.0,381.0 534.0,378.0 547.0,374.0 560.0,370.0 573.0,365.0 586.0,360.0 599.0,354.0 612.0,348.0 625.0,342.0 625.0,325.0 625.0,308.0 625.0,292.0 625.0,275.0 625.0,258.0 612.0,264.0 573.0,280.0 547.0,289.0 469.0,304.0 456.0,305.0 456.0,322.0" style="fill:#C4C4C4;" />
<polygon data-section="Mid Orchestra/Rear Orchestra Center/Front Mezzanine Center" data-priority="2" class="49791" points="67.0,307.0 67.0,324.0 67.0,341.0 80.0,347.0 93.0,353.0 106.0,359.0 119.0,364.0 132.0,369.0 145.0,373.0 158.0,377.0 171.0,380.0 184.0,383.0 197.0,385.0 210.0,387.0 223.0,389.0 236.0,390.0 236.0,373.0 236.0,356.0 236.0,339.0 236.0,322.0 236.0,305.0 210.0,302.0 197.0,300.0 119.0,279.0 93.0,268.0 80.0,262.0 67.0,256.0 67.0,273.0 67.0,290.0 67.0,307.0" style="fill:#C4C4C4;" />
<polygon data-section="Mid Orchestra/Rear Orchestra Center/Front Mezzanine Center" data-priority="2" class="49791" points="261.0,658.0 261.0,675.0 274.0,676.0 300.0,677.0 326.0,678.0 339.0,678.0 352.0,678.0 365.0,678.0 391.0,677.0 417.0,676.0 430.0,675.0 430.0,658.0 430.0,641.0 430.0,624.0 430.0,607.0 430.0,590.0 404.0,591.0 313.0,592.0 287.0,591.0 261.0,590.0 261.0,607.0 261.0,624.0 261.0,641.0 261.0,658.0" style="fill:#C4C4C4;" />
</g>
<g class="grouped-Mid Mezzanine Center/Rear Mezzanine Center">
<polygon data-section="Mid Mezzanine Center/Rear Mezzanine Center" data-priority="2" class="49802" points="261.0,749.0 261.0,766.0 261.0,783.0 261.0,800.0 261.0,817.0 261.0,834.0 274.0,835.0 352.0,820.0 417.0,835.0 430.0,834.0 430.0,817.0 430.0,800.0 430.0,783.0 430.0,766.0 430.0,749.0 404.0,750.0 313.0,751.0 287.0,750.0 261.0,749.0" style="fill:#C4C4C4;" />
</g>
<g class="grouped-Mid Orchestra Sides/Front Mezzanine">
<polygon data-section="Mid Orchestra Sides/Front Mezzanine" data-priority="3" class="49782" points="67.0,307.0 67.0,324.0 67.0,341.0 80.0,347.0 93.0,353.0 106.0,359.0 119.0,364.0 132.0,369.0 145.0,373.0 158.0,377.0 171.0,380.0 184.0,383.0 197.0,385.0 210.0,387.0 223.0,389.0 236.0,390.0 236.0,373.0 236.0,356.0 236.0,339.0 236.0,322.0 236.0,305.0 210.0,302.0 197.0,300.0 119.0,279.0 93.0,268.0 80.0,262.0 67.0,256.0 67.0,273.0 67.0,290.0 67.0,307.0" style="fill:#C4C4C4;" />
<polygon data-section="Mid Orchestra Sides/Front Mezzanine" data-priority="3" class="49782" points="456.0,322.0 456.0,339.0 456.0,356.0 456.0,373.0 456.0,390.0 469.0,389.0 482.0,388.0 495.0,386.0 508.0,384.0 521.0,381.0 534.0,378.0 547.0,374.0 560.0,370.0 573.0,365.0 586.0,360.0 599.0,354.0 612.0,348.0 625.0,342.0 625.0,325.0 625.0,308.0 625.0,292.0 625.0,275.0 625.0,258.0 612.0,264.0 573.0,280.0 547.0,289.0 469.0,304.0 456.0,305.0 456.0,322.0" style="fill:#C4C4C4;" />
<polygon data-section="Mid Orchestra Sides/Front Mezzanine" data-priority="3" class="49782" points="261.0,590.0 261.0,607.0 261.0,624.0 261.0,641.0 261.0,658.0 261.0,675.0 274.0,676.0 300.0,677.0 326.0,678.0 339.0,678.0 352.0,678.0 365.0,678.0 391.0,677.0 417.0,676.0 430.0,675.0 430.0,658.0 430.0,641.0 430.0,624.0 430.0,607.0 430.0,590.0 404.0,591.0 313.0,592.0 287.0,591.0 261.0,590.0" style="fill:#C4C4C4;" />
<polygon data-section="Mid Orchestra Sides/Front Mezzanine" data-priority="3" class="49782" points="60.0,588.0 60.0,605.0 60.0,621.0 73.0,627.0 86.0,633.0 99.0,639.0 112.0,644.0 125.0,649.0 138.0,653.0 151.0,657.0 164.0,660.0 177.0,663.0 190.0,665.0 203.0,667.0 216.0,669.0 229.0,670.0 229.0,654.0 229.0,637.0 229.0,620.0 229.0,603.0 229.0,586.0 203.0,583.0 190.0,581.0 112.0,560.0 86.0,549.0 73.0,543.0 60.0,537.0 60.0,554.0 60.0,571.0 60.0,588.0" style="fill:#C4C4C4;" />
<polygon data-section="Mid Orchestra Sides/Front Mezzanine" data-priority="3" class="49782" points="462.0,603.0 462.0,620.0 462.0,637.0 462.0,654.0 462.0,671.0 475.0,670.0 488.0,669.0 501.0,667.0 514.0,665.0 527.0,662.0 540.0,659.0 553.0,655.0 566.0,651.0 579.0,646.0 592.0,641.0 605.0,635.0 618.0,629.0 631.0,623.0 631.0,606.0 631.0,589.0 631.0,572.0 631.0,555.0 631.0,538.0 618.0,544.0 605.0,550.0 579.0,561.0 553.0,570.0 475.0,585.0 462.0,586.0 462.0,603.0" style="fill:#C4C4C4;" />
</g>
<g class="grouped-Mid Orchestra/Rear Orchestra Center/Front Orchestra Sides/Front Mezzanine Center">
<polygon data-section="Mid Orchestra/Rear Orchestra Center/Front Orchestra Sides/Front Mezzanine Center" data-priority="3" class="49783" points="268.0,359.0 268.0,376.0 268.0,393.0 268.0,410.0 268.0,427.0 268.0,444.0 268.0,461.0 268.0,478.0 268.0,495.0 281.0,496.0 307.0,497.0 333.0,498.0 359.0,498.0 385.0,497.0 411.0,496.0 424.0,495.0 424.0,478.0 424.0,461.0 424.0,444.0 424.0,427.0 424.0,410.0 424.0,393.0 424.0,376.0 424.0,359.0 424.0,342.0 424.0,325.0 424.0,308.0 424.0,291.0 424.0,274.0 398.0,275.0 372.0,276.0 294.0,275.0 268.0,274.0 268.0,291.0 268.0,308.0 268.0,325.0 268.0,342.0 268.0,359.0" style="fill:#C4C4C4;" />
<polygon data-section="Mid Orchestra/Rear Orchestra Center/Front Orchestra Sides/Front Mezzanine Center" data-priority="3" class="49783" points="456.0,322.0 456.0,339.0 456.0,356.0 456.0,373.0 456.0,390.0 469.0,389.0 482.0,388.0 495.0,386.0 508.0,384.0 521.0,381.0 534.0,378.0 547.0,374.0 560.0,370.0 573.0,365.0 586.0,360.0 599.0,354.0 612.0,348.0 625.0,342.0 625.0,325.0 625.0,308.0 625.0,292.0 625.0,275.0 625.0,258.0 612.0,264.0 573.0,280.0 547.0,289.0 469.0,304.0 456.0,305.0 456.0,322.0" style="fill:#C4C4C4;" />
<polygon data-section="Mid Orchestra/Rear Orchestra Center/Front Orchestra Sides/Front Mezzanine Center" data-priority="3" class="49783" points="67.0,307.0 67.0,324.0 67.0,341.0 80.0,347.0 93.0,353.0 106.0,359.0 119.0,364.0 132.0,369.0 145.0,373.0 158.0,377.0 171.0,380.0 184.0,383.0 197.0,385.0 210.0,387.0 223.0,389.0 236.0,390.0 236.0,373.0 236.0,356.0 236.0,339.0 236.0,322.0 236.0,305.0 210.0,302.0 197.0,300.0 119.0,279.0 93.0,268.0 80.0,262.0 67.0,256.0 67.0,273.0 67.0,290.0 67.0,307.0" style="fill:#C4C4C4;" />
<polygon data-section="Mid Orchestra/Rear Orchestra Center/Front Orchestra Sides/Front Mezzanine Center" data-priority="3" class="49783" points="93.0,167.0 106.0,206.0 119.0,228.0 132.0,233.0 145.0,237.0 158.0,241.0 171.0,244.0 184.0,247.0 197.0,249.0 210.0,251.0 223.0,253.0 236.0,254.0 236.0,237.0 236.0,220.0 236.0,203.0 236.0,186.0 236.0,169.0 236.0,152.0 236.0,135.0 236.0,118.0 197.0,113.0 119.0,143.0 106.0,155.0 93.0,167.0" style="fill:#C4C4C4;" />
<polygon data-section="Mid Orchestra/Rear Orchestra Center/Front Orchestra Sides/Front Mezzanine Center" data-priority="3" class="49783" points="456.0,152.0 456.0,169.0 456.0,186.0 456.0,203.0 456.0,220.0 456.0,237.0 456.0,254.0 469.0,253.0 482.0,252.0 495.0,250.0 508.0,248.0 521.0,245.0 534.0,242.0 547.0,238.0 560.0,234.0 573.0,229.0 586.0,208.0 599.0,169.0 573.0,144.0 495.0,114.0 456.0,118.0 456.0,135.0 456.0,152.0" style="fill:#C4C4C4;" />
<polygon data-section="Mid Orchestra/Rear Orchestra Center/Front Orchestra Sides/Front Mezzanine Center" data-priority="3" class="49783" points="261.0,658.0 261.0,675.0 274.0,676.0 300.0,677.0 326.0,678.0 339.0,678.0 352.0,678.0 365.0,678.0 391.0,677.0 417.0,676.0 430.0,675.0 430.0,658.0 430.0,641.0 430.0,624.0 430.0,607.0 430.0,590.0 404.0,591.0 313.0,592.0 287.0,591.0 261.0,590.0 261.0,607.0 261.0,624.0 261.0,641.0 261.0,658.0" style="fill:#C4C4C4;" />
</g>
<g class="grouped-Mid Mezzanine Sides/Rear Mezzanine Sides">
<polygon data-section="Mid Mezzanine Sides/Rear Mezzanine Sides" data-priority="3" class="49786" points="462.0,830.0 475.0,829.0 488.0,828.0 501.0,826.0 514.0,824.0 527.0,821.0 618.0,805.0 631.0,799.0 631.0,782.0 631.0,765.0 631.0,748.0 631.0,731.0 631.0,714.0 631.0,697.0 540.0,733.0 462.0,779.0 462.0,796.0 462.0,813.0 462.0,830.0" style="fill:#C4C4C4;" />
<polygon data-section="Mid Mezzanine Sides/Rear Mezzanine Sides" data-priority="3" class="49786" points="60.0,729.0 60.0,746.0 60.0,762.0 60.0,779.0 60.0,796.0 73.0,802.0 164.0,818.0 177.0,821.0 190.0,823.0 203.0,825.0 216.0,827.0 229.0,828.0 229.0,811.0 229.0,795.0 229.0,778.0 151.0,731.0 60.0,695.0 60.0,712.0 60.0,729.0" style="fill:#C4C4C4;" />
</g>
<g class="grouped-Mid Orchestra/Rear Orchestra Center/Front Orchestra Sides/Front Mezzanine">
<polygon data-section="Mid Orchestra/Rear Orchestra Center/Front Orchestra Sides/Front Mezzanine" data-priority="3" class="49788" points="268.0,359.0 268.0,376.0 268.0,393.0 268.0,410.0 268.0,427.0 268.0,444.0 268.0,461.0 268.0,478.0 268.0,495.0 281.0,496.0 307.0,497.0 333.0,498.0 359.0,498.0 385.0,497.0 411.0,496.0 424.0,495.0 424.0,478.0 424.0,461.0 424.0,444.0 424.0,427.0 424.0,410.0 424.0,393.0 424.0,376.0 424.0,359.0 424.0,342.0 424.0,325.0 424.0,308.0 424.0,291.0 424.0,274.0 398.0,275.0 372.0,276.0 294.0,275.0 268.0,274.0 268.0,291.0 268.0,308.0 268.0,325.0 268.0,342.0 268.0,359.0" style="fill:#C4C4C4;" />
<polygon data-section="Mid Orchestra/Rear Orchestra Center/Front Orchestra Sides/Front Mezzanine" data-priority="3" class="49788" points="456.0,322.0 456.0,339.0 456.0,356.0 456.0,373.0 456.0,390.0 469.0,389.0 482.0,388.0 495.0,386.0 508.0,384.0 521.0,381.0 534.0,378.0 547.0,374.0 560.0,370.0 573.0,365.0 586.0,360.0 599.0,354.0 612.0,348.0 625.0,342.0 625.0,325.0 625.0,308.0 625.0,292.0 625.0,275.0 625.0,258.0 612.0,264.0 573.0,280.0 547.0,289.0 469.0,304.0 456.0,305.0 456.0,322.0" style="fill:#C4C4C4;" />
<polygon data-section="Mid Orchestra/Rear Orchestra Center/Front Orchestra Sides/Front Mezzanine" data-priority="3" class="49788" points="67.0,307.0 67.0,324.0 67.0,341.0 80.0,347.0 93.0,353.0 106.0,359.0 119.0,364.0 132.0,369.0 145.0,373.0 158.0,377.0 171.0,380.0 184.0,383.0 197.0,385.0 210.0,387.0 223.0,389.0 236.0,390.0 236.0,373.0 236.0,356.0 236.0,339.0 236.0,322.0 236.0,305.0 210.0,302.0 197.0,300.0 119.0,279.0 93.0,268.0 80.0,262.0 67.0,256.0 67.0,273.0 67.0,290.0 67.0,307.0" style="fill:#C4C4C4;" />
<polygon data-section="Mid Orchestra/Rear Orchestra Center/Front Orchestra Sides/Front Mezzanine" data-priority="3" class="49788" points="93.0,167.0 106.0,206.0 119.0,228.0 132.0,233.0 145.0,237.0 158.0,241.0 171.0,244.0 184.0,247.0 197.0,249.0 210.0,251.0 223.0,253.0 236.0,254.0 236.0,237.0 236.0,220.0 236.0,203.0 236.0,186.0 236.0,169.0 236.0,152.0 236.0,135.0 236.0,118.0 197.0,113.0 119.0,143.0 106.0,155.0 93.0,167.0" style="fill:#C4C4C4;" />
<polygon data-section="Mid Orchestra/Rear Orchestra Center/Front Orchestra Sides/Front Mezzanine" data-priority="3" class="49788" points="456.0,152.0 456.0,169.0 456.0,186.0 456.0,203.0 456.0,220.0 456.0,237.0 456.0,254.0 469.0,253.0 482.0,252.0 495.0,250.0 508.0,248.0 521.0,245.0 534.0,242.0 547.0,238.0 560.0,234.0 573.0,229.0 586.0,208.0 599.0,169.0 573.0,144.0 495.0,114.0 456.0,118.0 456.0,135.0 456.0,152.0" style="fill:#C4C4C4;" />
<polygon data-section="Mid Orchestra/Rear Orchestra Center/Front Orchestra Sides/Front Mezzanine" data-priority="3" class="49788" points="261.0,590.0 261.0,607.0 261.0,624.0 261.0,641.0 261.0,658.0 261.0,675.0 274.0,676.0 300.0,677.0 326.0,678.0 339.0,678.0 352.0,678.0 365.0,678.0 391.0,677.0 417.0,676.0 430.0,675.0 430.0,658.0 430.0,641.0 430.0,624.0 430.0,607.0 430.0,590.0 404.0,591.0 313.0,592.0 287.0,591.0 261.0,590.0" style="fill:#C4C4C4;" />
<polygon data-section="Mid Orchestra/Rear Orchestra Center/Front Orchestra Sides/Front Mezzanine" data-priority="3" class="49788" points="60.0,588.0 60.0,605.0 60.0,621.0 73.0,627.0 86.0,633.0 99.0,639.0 112.0,644.0 125.0,649.0 138.0,653.0 151.0,657.0 164.0,660.0 177.0,663.0 190.0,665.0 203.0,667.0 216.0,669.0 229.0,670.0 229.0,654.0 229.0,637.0 229.0,620.0 229.0,603.0 229.0,586.0 203.0,583.0 190.0,581.0 112.0,560.0 86.0,549.0 73.0,543.0 60.0,537.0 60.0,554.0 60.0,571.0 60.0,588.0" style="fill:#C4C4C4;" />
<polygon data-section="Mid Orchestra/Rear Orchestra Center/Front Orchestra Sides/Front Mezzanine" data-priority="3" class="49788" points="462.0,603.0 462.0,620.0 462.0,637.0 462.0,654.0 462.0,671.0 475.0,670.0 488.0,669.0 501.0,667.0 514.0,665.0 527.0,662.0 540.0,659.0 553.0,655.0 566.0,651.0 579.0,646.0 592.0,641.0 605.0,635.0 618.0,629.0 631.0,623.0 631.0,606.0 631.0,589.0 631.0,572.0 631.0,555.0 631.0,538.0 618.0,544.0 605.0,550.0 579.0,561.0 553.0,570.0 475.0,585.0 462.0,586.0 462.0,603.0" style="fill:#C4C4C4;" />
</g>
<g class="grouped-Front Orchestra Sides">
<polygon data-section="Front Orchestra Sides" data-priority="3" class="49790" points="93.0,167.0 106.0,206.0 119.0,228.0 132.0,233.0 145.0,237.0 158.0,241.0 171.0,244.0 184.0,247.0 197.0,249.0 210.0,251.0 223.0,253.0 236.0,254.0 236.0,237.0 236.0,220.0 236.0,203.0 236.0,186.0 236.0,169.0 236.0,152.0 236.0,135.0 236.0,118.0 197.0,113.0 119.0,143.0 106.0,155.0 93.0,167.0" style="fill:#C4C4C4;" />
<polygon data-section="Front Orchestra Sides" data-priority="3" class="49790" points="456.0,152.0 456.0,169.0 456.0,186.0 456.0,203.0 456.0,220.0 456.0,237.0 456.0,254.0 469.0,253.0 482.0,252.0 495.0,250.0 508.0,248.0 521.0,245.0 534.0,242.0 547.0,238.0 560.0,234.0 573.0,229.0 586.0,208.0 599.0,169.0 573.0,144.0 495.0,114.0 456.0,118.0 456.0,135.0 456.0,152.0" style="fill:#C4C4C4;" />
</g>
<g class="grouped-Mid Orchestra Sides">
<polygon data-section="Mid Orchestra Sides" data-priority="3" class="51035" points="67.0,307.0 67.0,324.0 67.0,341.0 80.0,347.0 93.0,353.0 106.0,359.0 119.0,364.0 132.0,369.0 145.0,373.0 158.0,377.0 171.0,380.0 184.0,383.0 197.0,385.0 210.0,387.0 223.0,389.0 236.0,390.0 236.0,373.0 236.0,356.0 236.0,339.0 236.0,322.0 236.0,305.0 210.0,302.0 197.0,300.0 119.0,279.0 93.0,268.0 80.0,262.0 67.0,256.0 67.0,273.0 67.0,290.0 67.0,307.0" style="fill:#C4C4C4;" />
<polygon data-section="Mid Orchestra Sides" data-priority="3" class="51035" points="456.0,322.0 456.0,339.0 456.0,356.0 456.0,373.0 456.0,390.0 469.0,389.0 482.0,388.0 495.0,386.0 508.0,384.0 521.0,381.0 534.0,378.0 547.0,374.0 560.0,370.0 573.0,365.0 586.0,360.0 599.0,354.0 612.0,348.0 625.0,342.0 625.0,325.0 625.0,308.0 625.0,292.0 625.0,275.0 625.0,258.0 612.0,264.0 573.0,280.0 547.0,289.0 469.0,304.0 456.0,305.0 456.0,322.0" style="fill:#C4C4C4;" />
</g>
<g class="grouped-Mid Orchestra/Rear Orchestra Center/Front Orchestra Sides/Mid Orchestra Sides/Fr">
<polygon data-section="Mid Orchestra/Rear Orchestra Center/Front Orchestra Sides/Mid Orchestra Sides/Fr" data-priority="3" class="52304" points="268.0,189.0 268.0,206.0 268.0,223.0 268.0,240.0 268.0,257.0 268.0,274.0 268.0,291.0 268.0,308.0 268.0,325.0 268.0,342.0 268.0,359.0 268.0,376.0 268.0,393.0 268.0,410.0 268.0,427.0 268.0,444.0 268.0,461.0 268.0,478.0 268.0,495.0 281.0,496.0 307.0,497.0 333.0,498.0 359.0,498.0 385.0,497.0 411.0,496.0 424.0,495.0 424.0,478.0 424.0,461.0 424.0,444.0 424.0,427.0 424.0,410.0 424.0,393.0 424.0,376.0 424.0,359.0 424.0,342.0 424.0,325.0 424.0,308.0 424.0,291.0 424.0,274.0 424.0,257.0 424.0,240.0 424.0,223.0 424.0,206.0 424.0,189.0 424.0,172.0 424.0,155.0 424.0,138.0 424.0,121.0 398.0,122.0 320.0,123.0 294.0,122.0 268.0,121.0 268.0,138.0 268.0,155.0 268.0,172.0 268.0,189.0" style="fill:#C4C4C4;" />
<polygon data-section="Mid Orchestra/Rear Orchestra Center/Front Orchestra Sides/Mid Orchestra Sides/Fr" data-priority="3" class="52304" points="456.0,322.0 456.0,339.0 456.0,356.0 456.0,373.0 456.0,390.0 469.0,389.0 482.0,388.0 495.0,386.0 508.0,384.0 521.0,381.0 534.0,378.0 547.0,374.0 560.0,370.0 573.0,365.0 586.0,360.0 599.0,354.0 612.0,348.0 625.0,342.0 625.0,325.0 625.0,308.0 625.0,292.0 625.0,275.0 625.0,258.0 612.0,264.0 573.0,280.0 547.0,289.0 469.0,304.0 456.0,305.0 456.0,322.0" style="fill:#C4C4C4;" />
<polygon data-section="Mid Orchestra/Rear Orchestra Center/Front Orchestra Sides/Mid Orchestra Sides/Fr" data-priority="3" class="52304" points="67.0,307.0 67.0,324.0 67.0,341.0 80.0,347.0 93.0,353.0 106.0,359.0 119.0,364.0 132.0,369.0 145.0,373.0 158.0,377.0 171.0,380.0 184.0,383.0 197.0,385.0 210.0,387.0 223.0,389.0 236.0,390.0 236.0,373.0 236.0,356.0 236.0,339.0 236.0,322.0 236.0,305.0 210.0,302.0 197.0,300.0 119.0,279.0 93.0,268.0 80.0,262.0 67.0,256.0 67.0,273.0 67.0,290.0 67.0,307.0" style="fill:#C4C4C4;" />
<polygon data-section="Mid Orchestra/Rear Orchestra Center/Front Orchestra Sides/Mid Orchestra Sides/Fr" data-priority="3" class="52304" points="93.0,167.0 106.0,206.0 119.0,228.0 132.0,233.0 145.0,237.0 158.0,241.0 171.0,244.0 184.0,247.0 197.0,249.0 210.0,251.0 223.0,253.0 236.0,254.0 236.0,237.0 236.0,220.0 236.0,203.0 236.0,186.0 236.0,169.0 236.0,152.0 236.0,135.0 236.0,118.0 197.0,113.0 119.0,143.0 106.0,155.0 93.0,167.0" style="fill:#C4C4C4;" />
<polygon data-section="Mid Orchestra/Rear Orchestra Center/Front Orchestra Sides/Mid Orchestra Sides/Fr" data-priority="3" class="52304" points="456.0,152.0 456.0,169.0 456.0,186.0 456.0,203.0 456.0,220.0 456.0,237.0 456.0,254.0 469.0,253.0 482.0,252.0 495.0,250.0 508.0,248.0 521.0,245.0 534.0,242.0 547.0,238.0 560.0,234.0 573.0,229.0 586.0,208.0 599.0,169.0 573.0,144.0 495.0,114.0 456.0,118.0 456.0,135.0 456.0,152.0" style="fill:#C4C4C4;" />
</g>
<g class="grouped-Rear Orchestra Sides/Last Rows Orchestra/Front Mezzanine Sides">
<polygon data-section="Rear Orchestra Sides/Last Rows Orchestra/Front Mezzanine Sides" data-priority="3" class="53475" points="80.0,466.0 93.0,472.0 106.0,478.0 119.0,483.0 132.0,488.0 145.0,492.0 236.0,492.0 236.0,475.0 236.0,458.0 236.0,441.0 236.0,424.0 236.0,407.0 210.0,404.0 197.0,402.0 119.0,381.0 93.0,370.0 80.0,364.0 67.0,358.0 67.0,375.0 67.0,392.0 67.0,409.0 67.0,426.0 80.0,466.0" style="fill:#C4C4C4;" />
<polygon data-section="Rear Orchestra Sides/Last Rows Orchestra/Front Mezzanine Sides" data-priority="3" class="53475" points="456.0,424.0 456.0,441.0 456.0,458.0 456.0,475.0 456.0,492.0 469.0,491.0 482.0,490.0 495.0,488.0 508.0,486.0 521.0,483.0 534.0,480.0 625.0,427.0 625.0,410.0 625.0,393.0 625.0,376.0 625.0,359.0 612.0,365.0 599.0,371.0 573.0,382.0 469.0,406.0 456.0,407.0 456.0,424.0" style="fill:#C4C4C4;" />
<polygon data-section="Rear Orchestra Sides/Last Rows Orchestra/Front Mezzanine Sides" data-priority="3" class="53475" points="60.0,588.0 60.0,605.0 60.0,621.0 73.0,627.0 86.0,633.0 99.0,639.0 112.0,644.0 125.0,649.0 138.0,653.0 151.0,657.0 164.0,660.0 177.0,663.0 190.0,665.0 203.0,667.0 216.0,669.0 229.0,670.0 229.0,654.0 229.0,637.0 229.0,620.0 229.0,603.0 229.0,586.0 203.0,583.0 190.0,581.0 112.0,560.0 86.0,549.0 73.0,543.0 60.0,537.0 60.0,554.0 60.0,571.0 60.0,588.0" style="fill:#C4C4C4;" />
<polygon data-section="Rear Orchestra Sides/Last Rows Orchestra/Front Mezzanine Sides" data-priority="3" class="53475" points="462.0,603.0 462.0,620.0 462.0,637.0 462.0,654.0 462.0,671.0 475.0,670.0 488.0,669.0 501.0,667.0 514.0,665.0 527.0,662.0 540.0,659.0 553.0,655.0 566.0,651.0 579.0,646.0 592.0,641.0 605.0,635.0 618.0,629.0 631.0,623.0 631.0,606.0 631.0,589.0 631.0,572.0 631.0,555.0 631.0,538.0 618.0,544.0 605.0,550.0 579.0,561.0 553.0,570.0 475.0,585.0 462.0,586.0 462.0,603.0" style="fill:#C4C4C4;" />
</g>
</g></svg>