<svg viewbox="0 0 737.0 1106.8" xmlns="http://www.w3.org/2000/svg">
<g class="primary-clusters">
<text x="328.5" y="90" class="section-heading" style="text-transform:capitalize; font-weight:bold; transform:translateX(-5%);  font-size:30px; font-family:sans-serif;">orchestra</text>
<text x="328.5" y="503.0" class="section-heading" style="text-transform:capitalize; font-weight:bold; transform:translateX(-5%);  font-size:30px; font-family:sans-serif;">mezzanine</text>
<text x="328.5" y="823.0" class="section-heading" style="text-transform:capitalize; font-weight:bold; transform:translateX(-5%);  font-size:30px; font-family:sans-serif;">balcony</text>
<g class="grouped-orchestra cluster0">
<polygon data-section="orchestra" data-priority="-1" class="n/a" points="75.0,263.0 75.0,280.0 75.0,297.0 88.0,337.0 153.0,414.0 166.0,418.0 179.0,421.0 192.0,424.0 244.0,414.0 244.0,397.0 244.0,380.0 244.0,363.0 244.0,346.0 244.0,329.0 244.0,312.0 244.0,295.0 244.0,278.0 244.0,261.0 244.0,244.0 244.0,227.0 244.0,210.0 244.0,193.0 244.0,176.0 244.0,159.0 244.0,142.0 244.0,125.0 244.0,108.0 179.0,98.0 153.0,125.0 114.0,179.0 75.0,229.0 75.0,246.0 75.0,263.0" style="fill:#C4C4C4;" />
</g>
<g class="grouped-orchestra cluster1">
<polygon data-section="orchestra" data-priority="-1" class="n/a" points="276.0,282.0 276.0,299.0 276.0,316.0 276.0,333.0 276.0,350.0 276.0,367.0 276.0,384.0 282.0,401.0 295.0,419.0 321.0,420.0 347.0,421.0 438.0,453.0 451.0,452.0 458.0,383.0 458.0,366.0 458.0,349.0 458.0,332.0 458.0,315.0 458.0,298.0 458.0,281.0 458.0,264.0 458.0,230.0 458.0,196.0 451.0,146.0 445.0,129.0 438.0,113.0 425.0,113.0 399.0,114.0 308.0,113.0 295.0,113.0 282.0,146.0 276.0,197.0 276.0,231.0 276.0,265.0 276.0,282.0" style="fill:#C4C4C4;" />
</g>
<g class="grouped-orchestra cluster2">
<polygon data-section="orchestra" data-priority="-1" class="n/a" points="493.0,193.0 493.0,210.0 493.0,227.0 493.0,244.0 493.0,261.0 493.0,278.0 493.0,295.0 493.0,312.0 493.0,329.0 493.0,346.0 493.0,363.0 493.0,380.0 493.0,397.0 493.0,414.0 545.0,425.0 558.0,422.0 571.0,419.0 584.0,415.0 649.0,355.0 662.0,298.0 662.0,281.0 662.0,264.0 662.0,247.0 662.0,230.0 623.0,180.0 584.0,126.0 558.0,99.0 493.0,108.0 493.0,125.0 493.0,142.0 493.0,159.0 493.0,176.0 493.0,193.0" style="fill:#C4C4C4;" />
</g>
<g class="grouped-mezzanine cluster0">
<polygon data-section="mezzanine" data-priority="-1" class="n/a" points="57.0,541.0 70.0,632.0 83.0,655.0 96.0,661.0 109.0,667.0 122.0,672.0 200.0,761.0 213.0,763.0 226.0,765.0 239.0,766.0 239.0,749.0 239.0,732.0 239.0,715.0 239.0,698.0 239.0,681.0 239.0,664.0 239.0,647.0 239.0,630.0 239.0,613.0 239.0,596.0 239.0,579.0 239.0,562.0 239.0,545.0 239.0,528.0 213.0,525.0 200.0,523.0 96.0,491.0 83.0,485.0 70.0,479.0 57.0,490.0 57.0,507.0 57.0,524.0 57.0,541.0" style="fill:#C4C4C4;" />
</g>
<g class="grouped-mezzanine cluster1">
<polygon data-section="mezzanine" data-priority="-1" class="n/a" points="271.0,616.0 271.0,633.0 271.0,650.0 271.0,667.0 271.0,684.0 271.0,701.0 271.0,718.0 271.0,735.0 271.0,752.0 271.0,769.0 284.0,770.0 297.0,771.0 323.0,772.0 349.0,773.0 362.0,773.0 375.0,773.0 388.0,773.0 414.0,772.0 440.0,771.0 453.0,770.0 466.0,769.0 466.0,752.0 466.0,735.0 466.0,718.0 466.0,701.0 466.0,684.0 466.0,667.0 466.0,650.0 466.0,633.0 466.0,616.0 466.0,599.0 466.0,582.0 466.0,565.0 466.0,548.0 466.0,531.0 427.0,533.0 401.0,534.0 310.0,533.0 271.0,531.0 271.0,548.0 271.0,565.0 271.0,582.0 271.0,599.0 271.0,616.0" style="fill:#C4C4C4;" />
</g>
<g class="grouped-mezzanine cluster2">
<polygon data-section="mezzanine" data-priority="-1" class="n/a" points="498.0,613.0 498.0,630.0 498.0,647.0 498.0,664.0 498.0,681.0 498.0,698.0 498.0,715.0 498.0,732.0 498.0,749.0 498.0,766.0 511.0,765.0 524.0,764.0 537.0,762.0 615.0,673.0 628.0,668.0 641.0,662.0 654.0,656.0 667.0,633.0 680.0,542.0 680.0,525.0 680.0,508.0 680.0,491.0 667.0,480.0 654.0,486.0 641.0,492.0 615.0,503.0 511.0,527.0 498.0,528.0 498.0,545.0 498.0,562.0 498.0,579.0 498.0,596.0 498.0,613.0" style="fill:#C4C4C4;" />
</g>
<g class="grouped-balcony cluster0">
<polygon data-section="balcony" data-priority="-1" class="n/a" points="44.0,789.0 44.0,806.0 44.0,823.0 70.0,921.0 96.0,984.0 109.0,990.0 122.0,995.0 135.0,1000.0 148.0,1004.0 161.0,1008.0 174.0,1011.0 187.0,1014.0 200.0,1016.0 213.0,1018.0 226.0,1020.0 239.0,1021.0 239.0,1004.0 239.0,987.0 239.0,970.0 239.0,953.0 239.0,936.0 239.0,919.0 239.0,902.0 239.0,885.0 239.0,868.0 239.0,851.0 213.0,848.0 200.0,846.0 96.0,814.0 83.0,808.0 70.0,802.0 44.0,789.0" style="fill:#C4C4C4;" />
</g>
<g class="grouped-balcony cluster1">
<polygon data-section="balcony" data-priority="-1" class="n/a" points="271.0,922.0 271.0,939.0 271.0,956.0 284.0,957.0 297.0,958.0 323.0,959.0 349.0,960.0 362.0,960.0 375.0,960.0 388.0,960.0 414.0,959.0 440.0,958.0 453.0,957.0 466.0,956.0 466.0,939.0 466.0,922.0 466.0,905.0 466.0,888.0 466.0,871.0 466.0,854.0 427.0,856.0 401.0,857.0 310.0,856.0 271.0,854.0 271.0,871.0 271.0,888.0 271.0,905.0 271.0,922.0" style="fill:#C4C4C4;" />
</g>
<g class="grouped-balcony cluster2">
<polygon data-section="balcony" data-priority="-1" class="n/a" points="498.0,936.0 498.0,953.0 498.0,970.0 498.0,987.0 498.0,1004.0 498.0,1021.0 511.0,1020.0 524.0,1019.0 537.0,1017.0 550.0,1015.0 563.0,1012.0 576.0,1009.0 589.0,1005.0 602.0,1001.0 615.0,996.0 628.0,991.0 641.0,985.0 680.0,882.0 693.0,824.0 693.0,807.0 693.0,790.0 667.0,803.0 654.0,809.0 641.0,815.0 615.0,826.0 511.0,850.0 498.0,851.0 498.0,868.0 498.0,885.0 498.0,902.0 498.0,919.0 498.0,936.0" style="fill:#C4C4C4;" />
</g>
</g>
<g class="grouped-Orchestra">
<polygon data-section="Orchestra" data-priority="0" class="56819" points="276.0,282.0 276.0,299.0 276.0,316.0 276.0,333.0 276.0,350.0 276.0,367.0 276.0,384.0 282.0,401.0 295.0,419.0 321.0,420.0 347.0,421.0 438.0,453.0 451.0,452.0 458.0,383.0 458.0,366.0 458.0,349.0 458.0,332.0 458.0,315.0 458.0,298.0 458.0,281.0 458.0,264.0 458.0,230.0 458.0,196.0 451.0,146.0 445.0,129.0 438.0,113.0 425.0,113.0 334.0,114.0 308.0,113.0 295.0,113.0 282.0,146.0 276.0,197.0 276.0,231.0 276.0,265.0 276.0,282.0" style="fill:#C4C4C4;" />
<polygon data-section="Orchestra" data-priority="0" class="56819" points="493.0,210.0 493.0,227.0 493.0,244.0 493.0,261.0 493.0,278.0 493.0,295.0 493.0,312.0 493.0,329.0 493.0,346.0 493.0,363.0 493.0,380.0 493.0,397.0 493.0,414.0 545.0,425.0 558.0,422.0 571.0,419.0 584.0,415.0 649.0,355.0 662.0,298.0 662.0,281.0 662.0,264.0 662.0,247.0 662.0,230.0 623.0,180.0 584.0,126.0 558.0,99.0 493.0,108.0 493.0,125.0 493.0,142.0 493.0,159.0 493.0,176.0 493.0,193.0 493.0,210.0" style="fill:#C4C4C4;" />
<polygon data-section="Orchestra" data-priority="0" class="56819" points="75.0,280.0 75.0,297.0 88.0,337.0 153.0,414.0 166.0,418.0 179.0,421.0 192.0,424.0 244.0,414.0 244.0,397.0 244.0,380.0 244.0,363.0 244.0,346.0 244.0,329.0 244.0,312.0 244.0,295.0 244.0,278.0 244.0,261.0 244.0,244.0 244.0,227.0 244.0,210.0 244.0,193.0 244.0,176.0 244.0,159.0 244.0,142.0 244.0,125.0 244.0,108.0 179.0,98.0 153.0,125.0 114.0,179.0 75.0,229.0 75.0,246.0 75.0,263.0 75.0,280.0" style="fill:#C4C4C4;" />
</g>
<g class="grouped-Mid Mezzanine">
<polygon data-section="Mid Mezzanine" data-priority="1" class="33093" points="271.0,701.0 284.0,702.0 297.0,703.0 323.0,704.0 349.0,705.0 362.0,705.0 375.0,705.0 388.0,705.0 414.0,704.0 440.0,703.0 453.0,702.0 466.0,701.0 466.0,684.0 466.0,667.0 466.0,650.0 466.0,633.0 427.0,635.0 310.0,635.0 271.0,633.0 271.0,650.0 271.0,667.0 271.0,684.0 271.0,701.0" style="fill:#C4C4C4;" />
<polygon data-section="Mid Mezzanine" data-priority="1" class="33093" points="498.0,647.0 498.0,664.0 498.0,681.0 498.0,698.0 511.0,697.0 524.0,696.0 537.0,694.0 550.0,692.0 563.0,689.0 576.0,686.0 589.0,682.0 602.0,678.0 615.0,673.0 628.0,668.0 641.0,662.0 654.0,656.0 667.0,633.0 667.0,616.0 667.0,599.0 667.0,582.0 654.0,588.0 641.0,594.0 615.0,605.0 511.0,629.0 498.0,630.0 498.0,647.0" style="fill:#C4C4C4;" />
<polygon data-section="Mid Mezzanine" data-priority="1" class="33093" points="70.0,632.0 83.0,655.0 96.0,661.0 109.0,667.0 122.0,672.0 135.0,677.0 148.0,681.0 161.0,685.0 174.0,688.0 187.0,691.0 200.0,693.0 213.0,695.0 226.0,697.0 239.0,698.0 239.0,681.0 239.0,664.0 239.0,647.0 239.0,630.0 213.0,627.0 96.0,593.0 83.0,587.0 70.0,581.0 70.0,598.0 70.0,615.0 70.0,632.0" style="fill:#C4C4C4;" />
</g>
<g class="grouped-Rear Balcony">
<polygon data-section="Rear Balcony" data-priority="1" class="33095" points="96.0,984.0 109.0,990.0 122.0,995.0 135.0,1000.0 148.0,1004.0 161.0,1008.0 174.0,1011.0 187.0,1014.0 200.0,1016.0 213.0,1018.0 226.0,1020.0 239.0,1021.0 239.0,1004.0 96.0,967.0 96.0,984.0" style="fill:#C4C4C4;" />
<polygon data-section="Rear Balcony" data-priority="1" class="33095" points="498.0,1021.0 511.0,1020.0 524.0,1019.0 537.0,1017.0 550.0,1015.0 563.0,1012.0 576.0,1009.0 589.0,1005.0 602.0,1001.0 615.0,996.0 628.0,991.0 641.0,985.0 641.0,968.0 498.0,1004.0 498.0,1021.0" style="fill:#C4C4C4;" />
</g>
<g class="grouped-Front Balcony">
<polygon data-section="Front Balcony" data-priority="1" class="56816" points="271.0,922.0 271.0,939.0 284.0,940.0 297.0,941.0 323.0,942.0 349.0,943.0 362.0,943.0 375.0,943.0 388.0,943.0 440.0,941.0 453.0,940.0 466.0,939.0 466.0,922.0 466.0,905.0 466.0,888.0 466.0,871.0 466.0,854.0 427.0,856.0 310.0,856.0 271.0,854.0 271.0,871.0 271.0,888.0 271.0,905.0 271.0,922.0" style="fill:#C4C4C4;" />
<polygon data-section="Front Balcony" data-priority="1" class="56816" points="498.0,868.0 498.0,885.0 498.0,902.0 498.0,919.0 498.0,936.0 511.0,935.0 524.0,934.0 537.0,932.0 550.0,930.0 563.0,927.0 576.0,924.0 589.0,920.0 602.0,916.0 615.0,911.0 628.0,906.0 641.0,900.0 654.0,894.0 667.0,888.0 680.0,882.0 693.0,824.0 693.0,807.0 693.0,790.0 667.0,803.0 654.0,809.0 641.0,815.0 615.0,826.0 511.0,850.0 498.0,851.0 498.0,868.0" style="fill:#C4C4C4;" />
<polygon data-section="Front Balcony" data-priority="1" class="56816" points="70.0,802.0 44.0,789.0 44.0,806.0 44.0,823.0 57.0,864.0 70.0,887.0 83.0,893.0 96.0,899.0 109.0,905.0 122.0,910.0 135.0,915.0 148.0,919.0 161.0,923.0 174.0,926.0 187.0,929.0 200.0,931.0 213.0,933.0 226.0,935.0 239.0,936.0 239.0,919.0 239.0,902.0 239.0,885.0 239.0,868.0 239.0,851.0 213.0,848.0 96.0,814.0 83.0,808.0 70.0,802.0" style="fill:#C4C4C4;" />
</g>
<g class="grouped-Rear Mezzanine">
<polygon data-section="Rear Mezzanine" data-priority="1" class="56818" points="271.0,769.0 284.0,770.0 297.0,771.0 323.0,772.0 349.0,773.0 362.0,773.0 375.0,773.0 388.0,773.0 414.0,772.0 440.0,771.0 453.0,770.0 466.0,769.0 466.0,752.0 466.0,735.0 466.0,718.0 427.0,720.0 310.0,720.0 271.0,718.0 271.0,735.0 271.0,752.0 271.0,769.0" style="fill:#C4C4C4;" />
<polygon data-section="Rear Mezzanine" data-priority="1" class="56818" points="200.0,761.0 213.0,763.0 226.0,765.0 239.0,766.0 239.0,749.0 239.0,732.0 239.0,715.0 200.0,710.0 200.0,727.0 200.0,744.0 200.0,761.0" style="fill:#C4C4C4;" />
<polygon data-section="Rear Mezzanine" data-priority="1" class="56818" points="498.0,732.0 498.0,749.0 498.0,766.0 511.0,765.0 524.0,764.0 537.0,762.0 537.0,745.0 537.0,728.0 537.0,711.0 498.0,715.0 498.0,732.0" style="fill:#C4C4C4;" />
</g>
<g class="grouped-Orchestra Sides/Mid Mezzanine">
<polygon data-section="Orchestra Sides/Mid Mezzanine" data-priority="2" class="52300" points="493.0,227.0 493.0,244.0 493.0,261.0 493.0,278.0 493.0,295.0 493.0,312.0 493.0,329.0 493.0,346.0 493.0,363.0 493.0,380.0 493.0,397.0 493.0,414.0 545.0,425.0 558.0,422.0 571.0,419.0 584.0,415.0 649.0,355.0 662.0,298.0 662.0,281.0 662.0,264.0 662.0,247.0 662.0,230.0 623.0,180.0 584.0,126.0 558.0,99.0 493.0,108.0 493.0,125.0 493.0,142.0 493.0,159.0 493.0,176.0 493.0,193.0 493.0,210.0 493.0,227.0" style="fill:#C4C4C4;" />
<polygon data-section="Orchestra Sides/Mid Mezzanine" data-priority="2" class="52300" points="75.0,280.0 75.0,297.0 88.0,337.0 153.0,414.0 166.0,418.0 179.0,421.0 192.0,424.0 244.0,414.0 244.0,397.0 244.0,380.0 244.0,363.0 244.0,346.0 244.0,329.0 244.0,312.0 244.0,295.0 244.0,278.0 244.0,261.0 244.0,244.0 244.0,227.0 244.0,210.0 244.0,193.0 244.0,176.0 244.0,159.0 244.0,142.0 244.0,125.0 244.0,108.0 179.0,98.0 153.0,125.0 114.0,179.0 75.0,229.0 75.0,246.0 75.0,263.0 75.0,280.0" style="fill:#C4C4C4;" />
<polygon data-section="Orchestra Sides/Mid Mezzanine" data-priority="2" class="52300" points="271.0,701.0 284.0,702.0 297.0,703.0 323.0,704.0 349.0,705.0 362.0,705.0 375.0,705.0 388.0,705.0 414.0,704.0 440.0,703.0 453.0,702.0 466.0,701.0 466.0,684.0 466.0,667.0 466.0,650.0 466.0,633.0 427.0,635.0 310.0,635.0 271.0,633.0 271.0,650.0 271.0,667.0 271.0,684.0 271.0,701.0" style="fill:#C4C4C4;" />
<polygon data-section="Orchestra Sides/Mid Mezzanine" data-priority="2" class="52300" points="498.0,647.0 498.0,664.0 498.0,681.0 498.0,698.0 511.0,697.0 524.0,696.0 537.0,694.0 550.0,692.0 563.0,689.0 576.0,686.0 589.0,682.0 602.0,678.0 615.0,673.0 628.0,668.0 641.0,662.0 654.0,656.0 667.0,633.0 667.0,616.0 667.0,599.0 667.0,582.0 654.0,588.0 641.0,594.0 615.0,605.0 511.0,629.0 498.0,630.0 498.0,647.0" style="fill:#C4C4C4;" />
<polygon data-section="Orchestra Sides/Mid Mezzanine" data-priority="2" class="52300" points="70.0,632.0 83.0,655.0 96.0,661.0 109.0,667.0 122.0,672.0 135.0,677.0 148.0,681.0 161.0,685.0 174.0,688.0 187.0,691.0 200.0,693.0 213.0,695.0 226.0,697.0 239.0,698.0 239.0,681.0 239.0,664.0 239.0,647.0 239.0,630.0 213.0,627.0 96.0,593.0 83.0,587.0 70.0,581.0 70.0,598.0 70.0,615.0 70.0,632.0" style="fill:#C4C4C4;" />
</g>
<g class="grouped-Front Orchestra Sides">
<polygon data-section="Front Orchestra Sides" data-priority="3" class="56817" points="493.0,142.0 493.0,159.0 493.0,176.0 493.0,193.0 493.0,210.0 493.0,227.0 506.0,226.0 519.0,225.0 532.0,223.0 545.0,221.0 558.0,218.0 571.0,215.0 584.0,211.0 597.0,207.0 610.0,202.0 623.0,197.0 623.0,180.0 584.0,126.0 558.0,99.0 493.0,108.0 493.0,125.0 493.0,142.0" style="fill:#C4C4C4;" />
<polygon data-section="Front Orchestra Sides" data-priority="3" class="56817" points="114.0,179.0 114.0,196.0 127.0,201.0 140.0,206.0 153.0,210.0 166.0,214.0 179.0,217.0 192.0,220.0 205.0,222.0 218.0,224.0 231.0,226.0 244.0,227.0 244.0,210.0 244.0,193.0 244.0,176.0 244.0,159.0 244.0,142.0 244.0,125.0 244.0,108.0 179.0,98.0 153.0,125.0 114.0,179.0" style="fill:#C4C4C4;" />
</g>
<g class="grouped-Orchestra Center and Near Sides/Front Mezzanine">
<polygon data-section="Orchestra Center and Near Sides/Front Mezzanine" data-priority="4" class="33089" points="276.0,197.0 276.0,231.0 276.0,265.0 276.0,282.0 276.0,299.0 276.0,316.0 276.0,333.0 276.0,350.0 276.0,367.0 276.0,384.0 282.0,401.0 295.0,419.0 321.0,420.0 347.0,421.0 438.0,453.0 451.0,452.0 458.0,383.0 458.0,366.0 458.0,349.0 458.0,332.0 458.0,315.0 458.0,298.0 458.0,281.0 458.0,264.0 458.0,230.0 458.0,196.0 451.0,146.0 445.0,129.0 438.0,113.0 425.0,113.0 399.0,114.0 308.0,113.0 295.0,113.0 282.0,146.0 276.0,197.0" style="fill:#C4C4C4;" />
<polygon data-section="Orchestra Center and Near Sides/Front Mezzanine" data-priority="4" class="33089" points="218.0,173.0 205.0,239.0 205.0,256.0 205.0,273.0 205.0,290.0 205.0,307.0 205.0,324.0 205.0,341.0 205.0,358.0 205.0,375.0 218.0,394.0 231.0,413.0 244.0,414.0 244.0,397.0 244.0,380.0 244.0,363.0 244.0,346.0 244.0,329.0 244.0,312.0 244.0,295.0 244.0,278.0 244.0,261.0 244.0,244.0 244.0,227.0 244.0,210.0 244.0,193.0 244.0,176.0 244.0,159.0 244.0,142.0 244.0,125.0 244.0,108.0 231.0,107.0 218.0,173.0" style="fill:#C4C4C4;" />
<polygon data-section="Orchestra Center and Near Sides/Front Mezzanine" data-priority="4" class="33089" points="493.0,125.0 493.0,142.0 493.0,159.0 493.0,176.0 493.0,193.0 493.0,210.0 493.0,227.0 493.0,244.0 493.0,261.0 493.0,278.0 493.0,295.0 493.0,312.0 493.0,329.0 493.0,346.0 493.0,363.0 493.0,380.0 493.0,397.0 493.0,414.0 506.0,413.0 532.0,393.0 532.0,376.0 532.0,359.0 532.0,342.0 532.0,325.0 532.0,308.0 532.0,291.0 532.0,274.0 532.0,257.0 532.0,240.0 519.0,174.0 506.0,107.0 493.0,108.0 493.0,125.0" style="fill:#C4C4C4;" />
<polygon data-section="Orchestra Center and Near Sides/Front Mezzanine" data-priority="4" class="33089" points="271.0,599.0 271.0,616.0 284.0,617.0 297.0,618.0 323.0,619.0 349.0,620.0 362.0,620.0 375.0,620.0 388.0,620.0 414.0,619.0 440.0,618.0 453.0,617.0 466.0,616.0 466.0,599.0 466.0,582.0 466.0,565.0 466.0,548.0 466.0,531.0 427.0,533.0 336.0,534.0 310.0,533.0 271.0,531.0 271.0,548.0 271.0,565.0 271.0,582.0 271.0,599.0" style="fill:#C4C4C4;" />
<polygon data-section="Orchestra Center and Near Sides/Front Mezzanine" data-priority="4" class="33089" points="498.0,545.0 498.0,562.0 498.0,579.0 498.0,596.0 498.0,613.0 511.0,612.0 524.0,611.0 537.0,609.0 550.0,607.0 563.0,604.0 576.0,601.0 589.0,597.0 602.0,593.0 615.0,588.0 628.0,583.0 641.0,577.0 654.0,571.0 667.0,565.0 680.0,542.0 680.0,525.0 680.0,508.0 680.0,491.0 667.0,480.0 654.0,486.0 641.0,492.0 615.0,503.0 511.0,527.0 498.0,528.0 498.0,545.0" style="fill:#C4C4C4;" />
<polygon data-section="Orchestra Center and Near Sides/Front Mezzanine" data-priority="4" class="33089" points="70.0,564.0 83.0,570.0 96.0,576.0 109.0,582.0 122.0,587.0 135.0,592.0 148.0,596.0 161.0,600.0 174.0,603.0 187.0,606.0 200.0,608.0 213.0,610.0 226.0,612.0 239.0,613.0 239.0,596.0 239.0,579.0 239.0,562.0 239.0,545.0 239.0,528.0 213.0,525.0 200.0,523.0 96.0,491.0 83.0,485.0 70.0,479.0 57.0,490.0 57.0,507.0 57.0,524.0 57.0,541.0 70.0,564.0" style="fill:#C4C4C4;" />
</g>
<g class="grouped-Mezzanine Far Sides/Rear Mezzanine/Front Balcony">
<polygon data-section="Mezzanine Far Sides/Rear Mezzanine/Front Balcony" data-priority="4" class="52296" points="628.0,668.0 641.0,662.0 654.0,656.0 667.0,633.0 680.0,542.0 680.0,525.0 680.0,508.0 680.0,491.0 667.0,480.0 654.0,486.0 641.0,492.0 628.0,498.0 628.0,515.0 628.0,532.0 615.0,673.0 628.0,668.0" style="fill:#C4C4C4;" />
<polygon data-section="Mezzanine Far Sides/Rear Mezzanine/Front Balcony" data-priority="4" class="52296" points="57.0,541.0 70.0,632.0 83.0,655.0 96.0,661.0 109.0,667.0 122.0,672.0 109.0,531.0 109.0,514.0 109.0,497.0 96.0,491.0 83.0,485.0 70.0,479.0 57.0,490.0 57.0,507.0 57.0,524.0 57.0,541.0" style="fill:#C4C4C4;" />
<polygon data-section="Mezzanine Far Sides/Rear Mezzanine/Front Balcony" data-priority="4" class="52296" points="498.0,732.0 498.0,749.0 498.0,766.0 511.0,765.0 524.0,764.0 537.0,762.0 537.0,745.0 537.0,728.0 537.0,711.0 498.0,715.0 498.0,732.0" style="fill:#C4C4C4;" />
<polygon data-section="Mezzanine Far Sides/Rear Mezzanine/Front Balcony" data-priority="4" class="52296" points="200.0,761.0 213.0,763.0 226.0,765.0 239.0,766.0 239.0,749.0 239.0,732.0 239.0,715.0 200.0,710.0 200.0,727.0 200.0,744.0 200.0,761.0" style="fill:#C4C4C4;" />
<polygon data-section="Mezzanine Far Sides/Rear Mezzanine/Front Balcony" data-priority="4" class="52296" points="271.0,769.0 284.0,770.0 297.0,771.0 323.0,772.0 349.0,773.0 362.0,773.0 375.0,773.0 388.0,773.0 414.0,772.0 440.0,771.0 453.0,770.0 466.0,769.0 466.0,752.0 466.0,735.0 466.0,718.0 427.0,720.0 310.0,720.0 271.0,718.0 271.0,735.0 271.0,752.0 271.0,769.0" style="fill:#C4C4C4;" />
<polygon data-section="Mezzanine Far Sides/Rear Mezzanine/Front Balcony" data-priority="4" class="52296" points="271.0,922.0 271.0,939.0 284.0,940.0 297.0,941.0 323.0,942.0 349.0,943.0 362.0,943.0 375.0,943.0 388.0,943.0 440.0,941.0 453.0,940.0 466.0,939.0 466.0,922.0 466.0,905.0 466.0,888.0 466.0,871.0 466.0,854.0 427.0,856.0 310.0,856.0 271.0,854.0 271.0,871.0 271.0,888.0 271.0,905.0 271.0,922.0" style="fill:#C4C4C4;" />
<polygon data-section="Mezzanine Far Sides/Rear Mezzanine/Front Balcony" data-priority="4" class="52296" points="498.0,868.0 498.0,885.0 498.0,902.0 498.0,919.0 498.0,936.0 511.0,935.0 524.0,934.0 537.0,932.0 550.0,930.0 563.0,927.0 576.0,924.0 589.0,920.0 602.0,916.0 615.0,911.0 628.0,906.0 641.0,900.0 654.0,894.0 667.0,888.0 680.0,882.0 693.0,824.0 693.0,807.0 693.0,790.0 667.0,803.0 654.0,809.0 641.0,815.0 615.0,826.0 511.0,850.0 498.0,851.0 498.0,868.0" style="fill:#C4C4C4;" />
<polygon data-section="Mezzanine Far Sides/Rear Mezzanine/Front Balcony" data-priority="4" class="52296" points="70.0,802.0 44.0,789.0 44.0,806.0 44.0,823.0 57.0,864.0 70.0,887.0 83.0,893.0 96.0,899.0 109.0,905.0 122.0,910.0 135.0,915.0 148.0,919.0 161.0,923.0 174.0,926.0 187.0,929.0 200.0,931.0 213.0,933.0 226.0,935.0 239.0,936.0 239.0,919.0 239.0,902.0 239.0,885.0 239.0,868.0 239.0,851.0 213.0,848.0 96.0,814.0 83.0,808.0 70.0,802.0" style="fill:#C4C4C4;" />
</g>
<g class="grouped-Orchestra Far Side/Mezzanine Side">
<polygon data-section="Orchestra Far Side/Mezzanine Side" data-priority="4" class="52297" points="75.0,280.0 75.0,297.0 88.0,337.0 114.0,366.0 127.0,371.0 140.0,376.0 140.0,223.0 166.0,163.0 192.0,101.0 179.0,98.0 153.0,125.0 75.0,229.0 75.0,246.0 75.0,263.0 75.0,280.0" style="fill:#C4C4C4;" />
<polygon data-section="Orchestra Far Side/Mezzanine Side" data-priority="4" class="52297" points="597.0,224.0 610.0,338.0 610.0,355.0 610.0,372.0 623.0,367.0 636.0,361.0 649.0,355.0 662.0,298.0 662.0,281.0 662.0,264.0 662.0,247.0 662.0,230.0 584.0,126.0 558.0,99.0 545.0,102.0 571.0,164.0 597.0,224.0" style="fill:#C4C4C4;" />
<polygon data-section="Orchestra Far Side/Mezzanine Side" data-priority="4" class="52297" points="498.0,596.0 498.0,613.0 498.0,630.0 498.0,647.0 498.0,664.0 498.0,681.0 498.0,698.0 498.0,715.0 498.0,732.0 498.0,749.0 498.0,766.0 511.0,765.0 524.0,764.0 537.0,762.0 615.0,673.0 628.0,668.0 641.0,662.0 654.0,656.0 667.0,633.0 680.0,542.0 680.0,525.0 680.0,508.0 680.0,491.0 667.0,480.0 654.0,486.0 641.0,492.0 615.0,503.0 511.0,527.0 498.0,528.0 498.0,545.0 498.0,562.0 498.0,579.0 498.0,596.0" style="fill:#C4C4C4;" />
<polygon data-section="Orchestra Far Side/Mezzanine Side" data-priority="4" class="52297" points="83.0,655.0 96.0,661.0 109.0,667.0 122.0,672.0 200.0,761.0 213.0,763.0 226.0,765.0 239.0,766.0 239.0,749.0 239.0,732.0 239.0,715.0 239.0,698.0 239.0,681.0 239.0,664.0 239.0,647.0 239.0,630.0 239.0,613.0 239.0,596.0 239.0,579.0 239.0,562.0 239.0,545.0 239.0,528.0 213.0,525.0 200.0,523.0 96.0,491.0 83.0,485.0 70.0,479.0 57.0,490.0 57.0,507.0 57.0,524.0 57.0,541.0 70.0,632.0 83.0,655.0" style="fill:#C4C4C4;" />
</g>
</svg>