<svg viewbox="0 0 850.0 1001.884" xmlns="http://www.w3.org/2000/svg">
<g class="primary-clusters">
<text x="425.0" y="90" class="section-heading" style="text-anchor: middle; text-transform:capitalize; font-weight:bold; font-size:30px; font-family:sans-serif;">orchestra</text>
<text x="426.5" y="664.0" class="section-heading" style="text-anchor: middle; text-transform:capitalize; font-weight:bold; font-size:30px; font-family:sans-serif;">mezzanine</text>
<g class="grouped-orchestra cluster0">
<polygon data-section="orchestra" data-priority="-1" class="n/a" points="93.0,375.0 93.0,392.0 93.0,409.0 93.0,426.0 93.0,443.0 93.0,460.0 93.0,477.0 119.0,506.0 132.0,512.0 145.0,518.0 158.0,524.0 171.0,530.0 184.0,536.0 184.0,519.0 184.0,502.0 184.0,485.0 184.0,468.0 184.0,451.0 184.0,434.0 184.0,417.0 184.0,400.0 184.0,383.0 184.0,366.0 184.0,349.0 184.0,332.0 184.0,315.0 171.0,309.0 158.0,303.0 145.0,297.0 132.0,291.0 119.0,285.0 106.0,279.0 93.0,273.0 93.0,290.0 93.0,307.0 93.0,324.0 93.0,341.0 93.0,358.0 93.0,375.0" style="fill:#C4C4C4;" />
</g>
<g class="grouped-orchestra cluster1">
<polygon data-section="orchestra" data-priority="-1" class="n/a" points="117.0,218.0 109.0,232.0 121.0,239.0 145.0,250.0 157.0,255.0 169.0,260.0 193.0,269.0 241.0,186.0 272.0,130.0 260.0,125.0 236.0,116.0 196.0,133.0 125.0,204.0 117.0,218.0" style="fill:#C4C4C4;" />
</g>
<g class="grouped-orchestra cluster2">
<polygon data-section="orchestra" data-priority="-1" class="n/a" points="237.0,344.0 237.0,361.0 237.0,378.0 237.0,395.0 237.0,412.0 237.0,429.0 237.0,446.0 237.0,463.0 237.0,480.0 237.0,497.0 237.0,514.0 237.0,531.0 237.0,548.0 237.0,565.0 250.0,573.0 263.0,579.0 276.0,585.0 289.0,590.0 302.0,595.0 315.0,599.0 393.0,596.0 445.0,614.0 458.0,613.0 471.0,612.0 484.0,610.0 497.0,608.0 510.0,606.0 523.0,603.0 536.0,599.0 562.0,590.0 575.0,585.0 588.0,579.0 601.0,573.0 614.0,565.0 614.0,548.0 614.0,531.0 614.0,514.0 614.0,497.0 614.0,480.0 614.0,463.0 614.0,446.0 614.0,429.0 614.0,412.0 614.0,395.0 614.0,378.0 614.0,361.0 614.0,344.0 614.0,327.0 614.0,310.0 601.0,282.0 575.0,227.0 568.0,213.0 529.0,159.0 516.0,146.0 490.0,151.0 477.0,153.0 399.0,156.0 373.0,153.0 360.0,151.0 334.0,146.0 321.0,159.0 282.0,213.0 269.0,240.0 243.0,296.0 237.0,310.0 237.0,327.0 237.0,344.0" style="fill:#C4C4C4;" />
</g>
<g class="grouped-orchestra cluster3">
<polygon data-section="orchestra" data-priority="-1" class="n/a" points="666.0,400.0 666.0,417.0 666.0,434.0 666.0,451.0 666.0,468.0 666.0,485.0 666.0,502.0 666.0,519.0 666.0,536.0 679.0,530.0 692.0,524.0 705.0,518.0 718.0,512.0 731.0,506.0 757.0,477.0 757.0,460.0 757.0,443.0 757.0,426.0 757.0,409.0 757.0,392.0 757.0,375.0 757.0,358.0 757.0,341.0 757.0,324.0 757.0,307.0 757.0,290.0 757.0,273.0 744.0,279.0 731.0,285.0 718.0,291.0 705.0,297.0 692.0,303.0 679.0,309.0 666.0,315.0 666.0,332.0 666.0,349.0 666.0,366.0 666.0,383.0 666.0,400.0" style="fill:#C4C4C4;" />
</g>
<g class="grouped-orchestra cluster4">
<polygon data-section="orchestra" data-priority="-1" class="n/a" points="578.0,130.0 585.0,144.0 608.0,186.0 656.0,269.0 680.0,260.0 692.0,255.0 704.0,250.0 728.0,239.0 740.0,232.0 732.0,218.0 724.0,204.0 653.0,133.0 614.0,116.0 590.0,125.0 578.0,130.0" style="fill:#C4C4C4;" />
</g>
<g class="grouped-mezzanine cluster0">
<polygon data-section="mezzanine" data-priority="-1" class="n/a" points="102.0,688.0 95.0,799.0 73.0,847.0 84.0,857.0 96.0,867.0 108.0,876.0 121.0,883.0 147.0,896.0 160.0,901.0 173.0,906.0 186.0,911.0 199.0,915.0 225.0,922.0 238.0,925.0 251.0,928.0 264.0,931.0 277.0,933.0 290.0,935.0 303.0,937.0 316.0,939.0 342.0,942.0 355.0,943.0 368.0,944.0 394.0,945.0 407.0,945.0 420.0,945.0 433.0,945.0 446.0,945.0 459.0,945.0 485.0,944.0 498.0,943.0 511.0,942.0 537.0,939.0 550.0,937.0 563.0,935.0 576.0,933.0 602.0,928.0 615.0,925.0 628.0,922.0 641.0,918.0 654.0,914.0 667.0,910.0 680.0,905.0 693.0,900.0 706.0,895.0 719.0,889.0 732.0,882.0 745.0,875.0 757.0,866.0 780.0,847.0 758.0,798.0 750.0,688.0 778.0,625.0 778.0,608.0 764.0,597.0 736.0,608.0 709.0,618.0 709.0,635.0 709.0,652.0 621.0,754.0 608.0,757.0 595.0,760.0 582.0,763.0 569.0,766.0 556.0,768.0 530.0,771.0 517.0,772.0 504.0,773.0 491.0,774.0 478.0,775.0 452.0,776.0 413.0,776.0 400.0,776.0 374.0,775.0 361.0,774.0 348.0,773.0 335.0,772.0 309.0,769.0 296.0,767.0 283.0,765.0 270.0,763.0 257.0,760.0 244.0,757.0 231.0,754.0 143.0,652.0 143.0,635.0 143.0,618.0 116.0,608.0 88.0,597.0 74.0,608.0 74.0,625.0 102.0,688.0" style="fill:#C4C4C4;" />
</g>
</g>
<g class="grouped-Orchestra">
<polygon data-section="Orchestra" data-priority="0" class="52340" points="666.0,349.0 666.0,366.0 666.0,383.0 666.0,400.0 666.0,417.0 666.0,434.0 666.0,451.0 666.0,468.0 666.0,485.0 666.0,502.0 666.0,519.0 666.0,536.0 679.0,530.0 692.0,524.0 705.0,518.0 718.0,512.0 731.0,506.0 757.0,477.0 757.0,460.0 757.0,443.0 757.0,426.0 757.0,409.0 757.0,392.0 757.0,375.0 757.0,358.0 757.0,341.0 757.0,324.0 757.0,307.0 757.0,290.0 757.0,273.0 744.0,279.0 731.0,285.0 718.0,291.0 705.0,297.0 692.0,303.0 679.0,309.0 666.0,315.0 666.0,332.0 666.0,349.0" style="fill:#C4C4C4;" />
<polygon data-section="Orchestra" data-priority="0" class="52340" points="93.0,375.0 93.0,392.0 93.0,409.0 93.0,426.0 93.0,443.0 93.0,460.0 93.0,477.0 119.0,506.0 132.0,512.0 145.0,518.0 158.0,524.0 171.0,530.0 184.0,536.0 184.0,519.0 184.0,502.0 184.0,485.0 184.0,468.0 184.0,451.0 184.0,434.0 184.0,417.0 184.0,400.0 184.0,383.0 184.0,366.0 184.0,349.0 184.0,332.0 184.0,315.0 171.0,309.0 158.0,303.0 145.0,297.0 132.0,291.0 119.0,285.0 106.0,279.0 93.0,273.0 93.0,290.0 93.0,307.0 93.0,324.0 93.0,341.0 93.0,358.0 93.0,375.0" style="fill:#C4C4C4;" />
<polygon data-section="Orchestra" data-priority="0" class="52340" points="237.0,344.0 237.0,361.0 237.0,378.0 237.0,395.0 237.0,412.0 237.0,429.0 237.0,446.0 237.0,463.0 237.0,480.0 237.0,497.0 237.0,514.0 237.0,531.0 237.0,548.0 237.0,565.0 250.0,573.0 263.0,579.0 276.0,585.0 289.0,590.0 302.0,595.0 315.0,599.0 393.0,596.0 445.0,614.0 458.0,613.0 471.0,612.0 484.0,610.0 497.0,608.0 510.0,606.0 523.0,603.0 536.0,599.0 562.0,590.0 575.0,585.0 588.0,579.0 601.0,573.0 614.0,565.0 614.0,548.0 614.0,531.0 614.0,514.0 614.0,497.0 614.0,480.0 614.0,463.0 614.0,446.0 614.0,429.0 614.0,412.0 614.0,395.0 614.0,378.0 614.0,361.0 614.0,344.0 614.0,327.0 614.0,310.0 601.0,282.0 575.0,227.0 568.0,213.0 529.0,159.0 516.0,146.0 490.0,151.0 477.0,153.0 399.0,156.0 373.0,153.0 360.0,151.0 334.0,146.0 321.0,159.0 282.0,213.0 269.0,240.0 243.0,296.0 237.0,310.0 237.0,327.0 237.0,344.0" style="fill:#C4C4C4;" />
<polygon data-section="Orchestra" data-priority="0" class="52340" points="117.0,218.0 109.0,232.0 121.0,239.0 145.0,250.0 157.0,255.0 169.0,260.0 193.0,269.0 241.0,186.0 272.0,130.0 260.0,125.0 236.0,116.0 196.0,133.0 125.0,204.0 117.0,218.0" style="fill:#C4C4C4;" />
<polygon data-section="Orchestra" data-priority="0" class="52340" points="578.0,130.0 585.0,144.0 608.0,186.0 656.0,269.0 680.0,260.0 692.0,255.0 704.0,250.0 728.0,239.0 740.0,232.0 732.0,218.0 724.0,204.0 653.0,133.0 614.0,116.0 590.0,125.0 578.0,130.0" style="fill:#C4C4C4;" />
</g>
<g class="grouped-Last Row Mezzanine">
<polygon data-section="Last Row Mezzanine" data-priority="1" class="52328" points="84.0,857.0 96.0,867.0 108.0,876.0 121.0,883.0 147.0,896.0 160.0,901.0 173.0,906.0 186.0,911.0 199.0,915.0 225.0,922.0 238.0,925.0 251.0,928.0 264.0,931.0 277.0,933.0 290.0,935.0 303.0,937.0 316.0,939.0 342.0,942.0 355.0,943.0 368.0,944.0 394.0,945.0 407.0,945.0 420.0,945.0 433.0,945.0 446.0,945.0 459.0,945.0 485.0,944.0 498.0,943.0 511.0,942.0 537.0,939.0 550.0,937.0 563.0,935.0 576.0,933.0 602.0,928.0 615.0,925.0 628.0,922.0 641.0,918.0 654.0,914.0 667.0,910.0 680.0,905.0 693.0,900.0 706.0,895.0 719.0,889.0 732.0,882.0 745.0,875.0 757.0,866.0 780.0,847.0 758.0,814.0 628.0,869.0 602.0,875.0 511.0,889.0 498.0,890.0 485.0,891.0 381.0,892.0 329.0,888.0 290.0,883.0 251.0,876.0 238.0,873.0 212.0,866.0 95.0,815.0 73.0,847.0 84.0,857.0" style="fill:#C4C4C4;" />
</g>
<g class="grouped-Rear Mezzanine">
<polygon data-section="Rear Mezzanine" data-priority="1" class="52329" points="84.0,857.0 96.0,867.0 108.0,876.0 121.0,883.0 147.0,896.0 160.0,901.0 173.0,906.0 186.0,911.0 199.0,915.0 225.0,922.0 238.0,925.0 251.0,928.0 264.0,931.0 277.0,933.0 290.0,935.0 303.0,937.0 316.0,939.0 342.0,942.0 355.0,943.0 368.0,944.0 394.0,945.0 407.0,945.0 420.0,945.0 433.0,945.0 446.0,945.0 459.0,945.0 485.0,944.0 498.0,943.0 511.0,942.0 537.0,939.0 550.0,937.0 563.0,935.0 576.0,933.0 602.0,928.0 615.0,925.0 628.0,922.0 641.0,918.0 654.0,914.0 667.0,910.0 680.0,905.0 693.0,900.0 706.0,895.0 719.0,889.0 732.0,882.0 745.0,875.0 757.0,866.0 780.0,847.0 758.0,814.0 628.0,869.0 602.0,875.0 511.0,889.0 498.0,890.0 485.0,891.0 381.0,892.0 329.0,888.0 290.0,883.0 251.0,876.0 238.0,873.0 212.0,866.0 95.0,815.0 73.0,847.0 84.0,857.0" style="fill:#C4C4C4;" />
</g>
<g class="grouped-Mid Mezzanine">
<polygon data-section="Mid Mezzanine" data-priority="1" class="52330" points="121.0,815.0 134.0,822.0 160.0,833.0 173.0,838.0 186.0,842.0 199.0,846.0 212.0,850.0 225.0,854.0 238.0,857.0 251.0,860.0 264.0,863.0 277.0,865.0 290.0,867.0 303.0,869.0 316.0,871.0 329.0,872.0 342.0,873.0 355.0,874.0 368.0,875.0 381.0,876.0 394.0,877.0 407.0,877.0 420.0,877.0 433.0,877.0 446.0,877.0 459.0,877.0 472.0,876.0 485.0,875.0 498.0,874.0 511.0,873.0 524.0,872.0 550.0,869.0 563.0,867.0 576.0,865.0 589.0,862.0 602.0,859.0 615.0,856.0 628.0,853.0 641.0,850.0 654.0,846.0 667.0,842.0 680.0,837.0 693.0,832.0 706.0,827.0 719.0,821.0 732.0,814.0 745.0,806.0 725.0,750.0 608.0,789.0 491.0,807.0 452.0,809.0 361.0,807.0 309.0,801.0 296.0,799.0 244.0,790.0 127.0,750.0 108.0,807.0 121.0,815.0" style="fill:#C4C4C4;" />
</g>
<g class="grouped-Rear Orchestra">
<polygon data-section="Rear Orchestra" data-priority="1" class="56790" points="679.0,428.0 666.0,434.0 666.0,451.0 666.0,468.0 666.0,485.0 666.0,502.0 666.0,519.0 666.0,536.0 679.0,530.0 692.0,524.0 705.0,518.0 718.0,512.0 731.0,506.0 757.0,477.0 757.0,460.0 757.0,443.0 757.0,426.0 757.0,409.0 757.0,392.0 744.0,398.0 731.0,404.0 718.0,410.0 705.0,416.0 692.0,422.0 679.0,428.0" style="fill:#C4C4C4;" />
<polygon data-section="Rear Orchestra" data-priority="1" class="56790" points="237.0,548.0 237.0,565.0 250.0,573.0 263.0,579.0 276.0,585.0 289.0,590.0 302.0,595.0 315.0,599.0 393.0,596.0 445.0,614.0 458.0,613.0 471.0,612.0 484.0,610.0 497.0,608.0 510.0,606.0 523.0,603.0 536.0,599.0 562.0,590.0 575.0,585.0 588.0,579.0 601.0,573.0 614.0,565.0 614.0,548.0 614.0,531.0 614.0,514.0 614.0,497.0 614.0,480.0 614.0,463.0 614.0,446.0 562.0,471.0 484.0,491.0 458.0,494.0 393.0,494.0 367.0,491.0 289.0,471.0 237.0,446.0 237.0,463.0 237.0,480.0 237.0,497.0 237.0,514.0 237.0,531.0 237.0,548.0" style="fill:#C4C4C4;" />
<polygon data-section="Rear Orchestra" data-priority="1" class="56790" points="93.0,460.0 93.0,477.0 119.0,506.0 132.0,512.0 145.0,518.0 158.0,524.0 171.0,530.0 184.0,536.0 184.0,519.0 184.0,502.0 184.0,485.0 184.0,468.0 184.0,451.0 184.0,434.0 171.0,428.0 158.0,422.0 145.0,416.0 132.0,410.0 119.0,404.0 106.0,398.0 93.0,392.0 93.0,409.0 93.0,426.0 93.0,443.0 93.0,460.0" style="fill:#C4C4C4;" />
</g>
<g class="grouped-Mezzanine Sides">
<polygon data-section="Mezzanine Sides" data-priority="2" class="52333" points="95.0,799.0 73.0,847.0 84.0,857.0 96.0,867.0 108.0,876.0 121.0,883.0 147.0,896.0 160.0,901.0 173.0,906.0 186.0,911.0 199.0,915.0 225.0,922.0 238.0,925.0 251.0,928.0 264.0,931.0 277.0,933.0 290.0,935.0 309.1,920.0 329.0,839.0 309.0,769.0 296.0,767.0 283.0,765.0 270.0,763.0 257.0,760.0 244.0,757.0 231.0,754.0 143.0,652.0 143.0,635.0 143.0,618.0 88.0,597.0 74.0,608.0 74.0,625.0 102.0,688.0 95.0,799.0" style="fill:#C4C4C4;" />
<polygon data-section="Mezzanine Sides" data-priority="2" class="52333" points="524.0,839.0 543.1,920.0 563.0,935.0 576.0,933.0 602.0,928.0 615.0,925.0 628.0,922.0 641.0,918.0 654.0,914.0 667.0,910.0 680.0,905.0 693.0,900.0 706.0,895.0 719.0,889.0 732.0,882.0 745.0,875.0 757.0,866.0 780.0,847.0 758.0,798.0 750.0,688.0 778.0,625.0 778.0,608.0 764.0,597.0 709.0,618.0 709.0,635.0 709.0,652.0 621.0,754.0 608.0,757.0 595.0,760.0 582.0,763.0 569.0,766.0 556.0,768.0 543.0,770.0 524.0,839.0" style="fill:#C4C4C4;" />
</g>
<g class="grouped-Front Mezzanine Center">
<polygon data-section="Front Mezzanine Center" data-priority="2" class="52338" points="335.0,772.0 322.0,771.0 322.0,787.0 335.0,789.0 348.0,790.0 361.0,791.0 374.0,792.0 387.0,793.0 400.0,793.0 413.0,793.0 426.0,793.0 439.0,793.0 452.0,793.0 465.0,793.0 478.0,792.0 491.0,791.0 504.0,790.0 517.0,789.0 530.0,787.0 530.0,771.0 517.0,772.0 504.0,773.0 335.0,772.0" style="fill:#C4C4C4;" />
</g>
<g class="grouped-Premiums">
<polygon data-section="Premiums" data-priority="2" class="56789" points="250.0,283.0 263.0,289.0 276.0,295.0 289.0,300.0 302.0,305.0 315.0,309.0 328.0,313.0 341.0,316.0 354.0,318.0 367.0,320.0 380.0,322.0 393.0,323.0 406.0,324.0 419.0,325.0 432.0,325.0 445.0,324.0 458.0,323.0 471.0,322.0 484.0,320.0 497.0,318.0 510.0,316.0 523.0,313.0 536.0,309.0 549.0,305.0 562.0,300.0 575.0,295.0 588.0,289.0 601.0,282.0 575.0,227.0 568.0,213.0 529.0,159.0 516.0,146.0 490.0,151.0 477.0,153.0 373.0,153.0 360.0,151.0 334.0,146.0 321.0,159.0 282.0,213.0 269.0,240.0 250.0,283.0" style="fill:#C4C4C4;" />
</g>
<g class="grouped-Mid Premiums">
<polygon data-section="Mid Premiums" data-priority="2" class="58008" points="250.0,283.0 263.0,289.0 276.0,295.0 289.0,300.0 302.0,305.0 315.0,309.0 328.0,313.0 341.0,316.0 354.0,318.0 367.0,320.0 380.0,322.0 393.0,323.0 406.0,324.0 419.0,325.0 432.0,325.0 445.0,324.0 458.0,323.0 471.0,322.0 484.0,320.0 497.0,318.0 510.0,316.0 523.0,313.0 536.0,309.0 549.0,305.0 562.0,300.0 575.0,295.0 588.0,289.0 601.0,282.0 575.0,227.0 568.0,213.0 529.0,159.0 516.0,146.0 490.0,151.0 477.0,153.0 373.0,153.0 360.0,151.0 334.0,146.0 321.0,159.0 282.0,213.0 269.0,240.0 250.0,283.0" style="fill:#C4C4C4;" />
</g>
<g class="grouped-Front Mezzanine Sides">
<polygon data-section="Front Mezzanine Sides" data-priority="3" class="52334" points="127.0,733.0 140.0,740.0 153.0,746.0 166.0,751.0 192.0,760.0 205.0,764.0 218.0,768.0 231.0,771.0 244.0,774.0 257.0,777.0 283.0,782.0 296.0,784.0 309.0,786.0 309.0,769.0 296.0,767.0 283.0,765.0 270.0,763.0 257.0,760.0 143.0,618.0 88.0,597.0 74.0,608.0 74.0,625.0 102.0,688.0 127.0,733.0" style="fill:#C4C4C4;" />
<polygon data-section="Front Mezzanine Sides" data-priority="3" class="52334" points="660.0,760.0 673.0,756.0 686.0,751.0 699.0,746.0 712.0,740.0 725.0,734.0 750.0,688.0 778.0,625.0 778.0,608.0 764.0,597.0 709.0,618.0 595.0,760.0 582.0,763.0 569.0,766.0 556.0,768.0 543.0,770.0 543.0,786.0 556.0,784.0 569.0,782.0 595.0,777.0 608.0,774.0 621.0,771.0 634.0,768.0 647.0,764.0 660.0,760.0" style="fill:#C4C4C4;" />
</g>
<g class="grouped-Orchestra Front Sides/Rear Orchestra Center">
<polygon data-section="Orchestra Front Sides/Rear Orchestra Center" data-priority="3" class="52348" points="578.0,130.0 585.0,144.0 608.0,186.0 656.0,269.0 680.0,260.0 692.0,255.0 704.0,250.0 728.0,239.0 740.0,232.0 732.0,218.0 724.0,204.0 653.0,133.0 614.0,116.0 590.0,125.0 578.0,130.0" style="fill:#C4C4C4;" />
<polygon data-section="Orchestra Front Sides/Rear Orchestra Center" data-priority="3" class="52348" points="117.0,218.0 109.0,232.0 121.0,239.0 145.0,250.0 157.0,255.0 169.0,260.0 193.0,269.0 241.0,186.0 272.0,130.0 260.0,125.0 236.0,116.0 196.0,133.0 125.0,204.0 117.0,218.0" style="fill:#C4C4C4;" />
<polygon data-section="Orchestra Front Sides/Rear Orchestra Center" data-priority="3" class="52348" points="237.0,548.0 237.0,565.0 250.0,573.0 263.0,579.0 276.0,585.0 289.0,590.0 302.0,595.0 315.0,599.0 393.0,596.0 445.0,614.0 458.0,613.0 471.0,612.0 484.0,610.0 497.0,608.0 510.0,606.0 523.0,603.0 536.0,599.0 562.0,590.0 575.0,585.0 588.0,579.0 601.0,573.0 614.0,565.0 614.0,548.0 614.0,531.0 614.0,514.0 614.0,497.0 614.0,480.0 614.0,463.0 614.0,446.0 562.0,471.0 484.0,491.0 458.0,494.0 393.0,494.0 367.0,491.0 289.0,471.0 237.0,446.0 237.0,463.0 237.0,480.0 237.0,497.0 237.0,514.0 237.0,531.0 237.0,548.0" style="fill:#C4C4C4;" />
</g>
</svg>