<svg viewbox="0 0 689.0 1231.577" xmlns="http://www.w3.org/2000/svg">
<g id="stage">
<rect x="200" y="0" width="289.0" height="100" fill="#C4C4C4" />
<text font-size="28px" x="344.5" y="50.0" text-anchor="middle" dominant-baseline="middle" fill: rgb(80, 83, 104); font-family: -apple-system, system-ui, Segoe UI, Roboto, Ubuntu, Helvetica Neue, Helvetica, Arial, sans-serif; font-weight: 700; white-space: pre;>STAGE</text>
</g>
<g transform="translate(0, 100)">
<g class="primary-clusters">
<text x="344.5" y="85" font-size="28px" text-anchor="middle" dominant-baseline="middle" fill: rgb(80, 83, 104); font-family: -apple-system, system-ui, Segoe UI, Roboto, Ubuntu, Helvetica Neue, Helvetica, Arial, sans-serif; font-weight: 700; white-space: pre; text-transform:capitalize;>ORCHESTRA</text><text x="344.5" y="607.0" font-size="28px" text-anchor="middle" dominant-baseline="middle" fill: rgb(80, 83, 104); font-family: -apple-system, system-ui, Segoe UI, Roboto, Ubuntu, Helvetica Neue, Helvetica, Arial, sans-serif; font-weight: 700; white-space: pre; text-transform:capitalize;>MEZZANINE</text><g class="grouped-orchestra cluster0">
<polygon data-section="orchestra" data-priority="-1" class="n/a" points="65.0,342.0 65.0,359.0 65.0,376.0 65.0,393.0 79.0,467.0 92.0,473.0 105.0,478.0 118.0,483.0 131.0,487.0 144.0,491.0 157.0,494.0 183.0,499.0 196.0,501.0 209.0,503.0 222.0,504.0 221.0,385.0 221.0,368.0 221.0,351.0 221.0,334.0 221.0,317.0 221.0,300.0 221.0,283.0 221.0,266.0 182.0,261.0 65.0,291.0 65.0,308.0 65.0,325.0 65.0,342.0" style="fill:#C4C4C4;" />
</g>
<g class="grouped-orchestra cluster1">
<polygon data-section="orchestra" data-priority="-1" class="n/a" points="253.0,338.0 253.0,355.0 253.0,372.0 253.0,389.0 253.0,406.0 253.0,423.0 253.0,440.0 253.0,457.0 253.0,474.0 253.0,491.0 253.0,508.0 253.0,525.0 253.0,542.0 253.0,559.0 266.0,560.0 292.0,561.0 318.0,562.0 331.0,562.0 344.0,562.0 357.0,562.0 370.0,562.0 422.0,559.0 435.0,558.0 435.0,541.0 435.0,524.0 435.0,507.0 435.0,490.0 435.0,473.0 435.0,456.0 435.0,439.0 435.0,422.0 435.0,405.0 435.0,388.0 435.0,371.0 435.0,354.0 435.0,337.0 435.0,320.0 435.0,303.0 435.0,286.0 435.0,269.0 435.0,252.0 416.0,236.0 403.0,236.0 338.0,238.0 286.0,237.0 273.0,237.0 253.0,253.0 253.0,270.0 253.0,287.0 253.0,304.0 253.0,321.0 253.0,338.0" style="fill:#C4C4C4;" />
</g>
<g class="grouped-orchestra cluster2">
<polygon data-section="orchestra" data-priority="-1" class="n/a" points="467.0,351.0 467.0,368.0 467.0,385.0 467.0,402.0 467.0,419.0 467.0,436.0 467.0,453.0 467.0,470.0 467.0,487.0 467.0,504.0 480.0,503.0 493.0,502.0 506.0,500.0 532.0,495.0 545.0,492.0 558.0,488.0 571.0,484.0 584.0,479.0 597.0,474.0 610.0,468.0 623.0,394.0 623.0,377.0 623.0,360.0 623.0,343.0 623.0,326.0 623.0,309.0 623.0,292.0 571.0,280.0 506.0,262.0 467.0,266.0 467.0,283.0 467.0,300.0 467.0,317.0 467.0,334.0 467.0,351.0" style="fill:#C4C4C4;" />
</g>
<g class="grouped-mezzanine cluster0">
<polygon data-section="mezzanine" data-priority="-1" class="n/a" points="65.0,805.0 65.0,822.0 65.0,839.0 65.0,856.0 65.0,873.0 65.0,890.0 78.0,896.0 91.0,902.0 104.0,907.0 117.0,912.0 130.0,916.0 143.0,920.0 156.0,923.0 169.0,926.0 221.0,916.0 221.0,899.0 221.0,882.0 221.0,865.0 221.0,848.0 221.0,831.0 221.0,814.0 221.0,797.0 221.0,780.0 221.0,763.0 221.0,746.0 221.0,729.0 143.0,716.0 91.0,732.0 65.0,754.0 65.0,771.0 65.0,788.0 65.0,805.0" style="fill:#C4C4C4;" />
</g>
<g class="grouped-mezzanine cluster1">
<polygon data-section="mezzanine" data-priority="-1" class="n/a" points="65.0,618.0 65.0,635.0 78.0,641.0 91.0,647.0 104.0,652.0 117.0,657.0 130.0,661.0 143.0,665.0 156.0,668.0 169.0,671.0 182.0,673.0 195.0,675.0 208.0,677.0 221.0,678.0 221.0,661.0 221.0,644.0 221.0,627.0 195.0,624.0 91.0,596.0 78.0,607.0 65.0,618.0" style="fill:#C4C4C4;" />
</g>
<g class="grouped-mezzanine cluster2">
<polygon data-section="mezzanine" data-priority="-1" class="n/a" points="253.0,750.0 253.0,767.0 253.0,784.0 253.0,801.0 253.0,818.0 253.0,835.0 253.0,852.0 253.0,869.0 253.0,886.0 253.0,903.0 253.0,920.0 266.0,921.0 292.0,922.0 318.0,923.0 331.0,923.0 344.0,923.0 357.0,923.0 370.0,923.0 422.0,920.0 435.0,919.0 435.0,902.0 435.0,885.0 435.0,868.0 435.0,851.0 435.0,834.0 435.0,817.0 435.0,800.0 435.0,783.0 435.0,766.0 435.0,749.0 435.0,732.0 435.0,715.0 435.0,698.0 435.0,681.0 435.0,664.0 435.0,647.0 435.0,630.0 409.0,631.0 305.0,633.0 279.0,632.0 253.0,631.0 253.0,648.0 253.0,665.0 253.0,682.0 253.0,699.0 253.0,716.0 253.0,733.0 253.0,750.0" style="fill:#C4C4C4;" />
</g>
<g class="grouped-mezzanine cluster3">
<polygon data-section="mezzanine" data-priority="-1" class="n/a" points="467.0,814.0 467.0,831.0 467.0,848.0 467.0,865.0 467.0,882.0 467.0,899.0 467.0,916.0 519.0,927.0 532.0,924.0 545.0,921.0 558.0,917.0 571.0,913.0 584.0,908.0 597.0,903.0 610.0,897.0 623.0,891.0 623.0,874.0 623.0,857.0 623.0,840.0 623.0,823.0 623.0,806.0 623.0,789.0 623.0,772.0 623.0,755.0 597.0,733.0 545.0,717.0 467.0,729.0 467.0,746.0 467.0,763.0 467.0,780.0 467.0,797.0 467.0,814.0" style="fill:#C4C4C4;" />
</g>
<g class="grouped-mezzanine cluster4">
<polygon data-section="mezzanine" data-priority="-1" class="n/a" points="467.0,644.0 467.0,661.0 467.0,678.0 480.0,677.0 493.0,676.0 506.0,674.0 519.0,672.0 532.0,669.0 545.0,666.0 558.0,662.0 571.0,658.0 584.0,653.0 597.0,648.0 610.0,642.0 623.0,636.0 623.0,619.0 610.0,608.0 597.0,597.0 584.0,602.0 480.0,626.0 467.0,627.0 467.0,644.0" style="fill:#C4C4C4;" />
</g>
</g>
<g class="grouped-Mezzanine Center R-S, Side O-Q">
<polygon data-section="Mezzanine Center R-S, Side O-Q" data-priority="2" class="57849" points="253.0,750.0 253.0,767.0 253.0,784.0 253.0,801.0 253.0,818.0 253.0,835.0 253.0,852.0 253.0,869.0 253.0,886.0 253.0,903.0 253.0,920.0 266.0,921.0 292.0,922.0 318.0,923.0 331.0,923.0 344.0,923.0 357.0,923.0 370.0,923.0 422.0,920.0 435.0,919.0 435.0,902.0 435.0,885.0 435.0,868.0 435.0,851.0 435.0,834.0 435.0,817.0 435.0,800.0 435.0,783.0 435.0,766.0 435.0,749.0 435.0,732.0 435.0,715.0 435.0,698.0 435.0,681.0 435.0,664.0 435.0,647.0 435.0,630.0 409.0,631.0 305.0,633.0 279.0,632.0 253.0,631.0 253.0,648.0 253.0,665.0 253.0,682.0 253.0,699.0 253.0,716.0 253.0,733.0 253.0,750.0" style="fill:#C4C4C4;" />
<polygon data-section="Mezzanine Center R-S, Side O-Q" data-priority="2" class="57849" points="65.0,635.0 78.0,641.0 91.0,647.0 104.0,652.0 117.0,657.0 130.0,661.0 143.0,665.0 156.0,668.0 169.0,671.0 182.0,673.0 195.0,675.0 208.0,677.0 221.0,678.0 221.0,661.0 221.0,644.0 221.0,627.0 195.0,624.0 91.0,596.0 78.0,607.0 65.0,618.0 65.0,635.0" style="fill:#C4C4C4;" />
<polygon data-section="Mezzanine Center R-S, Side O-Q" data-priority="2" class="57849" points="65.0,788.0 65.0,805.0 65.0,822.0 65.0,839.0 65.0,856.0 65.0,873.0 65.0,890.0 78.0,896.0 91.0,902.0 104.0,907.0 117.0,912.0 130.0,916.0 143.0,920.0 156.0,923.0 169.0,926.0 221.0,916.0 221.0,899.0 221.0,882.0 221.0,865.0 221.0,848.0 221.0,831.0 221.0,814.0 221.0,797.0 221.0,780.0 221.0,763.0 221.0,746.0 221.0,729.0 143.0,716.0 91.0,732.0 65.0,754.0 65.0,771.0 65.0,788.0" style="fill:#C4C4C4;" />
<polygon data-section="Mezzanine Center R-S, Side O-Q" data-priority="2" class="57849" points="467.0,814.0 467.0,831.0 467.0,848.0 467.0,865.0 467.0,882.0 467.0,899.0 467.0,916.0 519.0,927.0 532.0,924.0 545.0,921.0 558.0,917.0 571.0,913.0 584.0,908.0 597.0,903.0 610.0,897.0 623.0,891.0 623.0,874.0 623.0,857.0 623.0,840.0 623.0,823.0 623.0,806.0 623.0,789.0 623.0,772.0 623.0,755.0 597.0,733.0 545.0,717.0 467.0,729.0 467.0,746.0 467.0,763.0 467.0,780.0 467.0,797.0 467.0,814.0" style="fill:#C4C4C4;" />
<polygon data-section="Mezzanine Center R-S, Side O-Q" data-priority="2" class="57849" points="467.0,644.0 467.0,661.0 467.0,678.0 480.0,677.0 493.0,676.0 506.0,674.0 519.0,672.0 532.0,669.0 545.0,666.0 558.0,662.0 571.0,658.0 584.0,653.0 597.0,648.0 610.0,642.0 623.0,636.0 623.0,619.0 610.0,608.0 597.0,597.0 584.0,602.0 480.0,626.0 467.0,627.0 467.0,644.0" style="fill:#C4C4C4;" />
</g>
<g class="grouped-Orchestra Center F-O, Side E-J/Mezzanine Center C-D, Side A-B">
<polygon data-section="Orchestra Center F-O, Side E-J/Mezzanine Center C-D, Side A-B" data-priority="2" class="57853" points="253.0,355.0 253.0,372.0 253.0,389.0 253.0,406.0 253.0,423.0 253.0,440.0 253.0,457.0 253.0,474.0 253.0,491.0 253.0,508.0 253.0,525.0 253.0,542.0 253.0,559.0 266.0,560.0 292.0,561.0 318.0,562.0 331.0,562.0 344.0,562.0 357.0,562.0 370.0,562.0 422.0,559.0 435.0,558.0 435.0,541.0 435.0,524.0 435.0,507.0 435.0,490.0 435.0,473.0 435.0,456.0 435.0,439.0 435.0,422.0 435.0,405.0 435.0,388.0 435.0,371.0 435.0,354.0 435.0,337.0 435.0,320.0 435.0,303.0 435.0,286.0 435.0,269.0 435.0,252.0 416.0,236.0 403.0,236.0 338.0,238.0 286.0,237.0 273.0,237.0 253.0,253.0 253.0,270.0 253.0,287.0 253.0,304.0 253.0,321.0 253.0,338.0 253.0,355.0" style="fill:#C4C4C4;" />
<polygon data-section="Orchestra Center F-O, Side E-J/Mezzanine Center C-D, Side A-B" data-priority="2" class="57853" points="65.0,342.0 65.0,359.0 65.0,376.0 65.0,393.0 79.0,467.0 92.0,473.0 105.0,478.0 118.0,483.0 131.0,487.0 144.0,491.0 157.0,494.0 183.0,499.0 196.0,501.0 209.0,503.0 222.0,504.0 221.0,385.0 221.0,368.0 221.0,351.0 221.0,334.0 221.0,317.0 221.0,300.0 221.0,283.0 221.0,266.0 182.0,261.0 65.0,291.0 65.0,308.0 65.0,325.0 65.0,342.0" style="fill:#C4C4C4;" />
<polygon data-section="Orchestra Center F-O, Side E-J/Mezzanine Center C-D, Side A-B" data-priority="2" class="57853" points="467.0,351.0 467.0,368.0 467.0,385.0 467.0,402.0 467.0,419.0 467.0,436.0 467.0,453.0 467.0,470.0 467.0,487.0 467.0,504.0 480.0,503.0 493.0,502.0 506.0,500.0 532.0,495.0 545.0,492.0 558.0,488.0 571.0,484.0 584.0,479.0 597.0,474.0 610.0,468.0 623.0,394.0 623.0,377.0 623.0,360.0 623.0,343.0 623.0,326.0 623.0,309.0 623.0,292.0 571.0,280.0 506.0,262.0 467.0,266.0 467.0,283.0 467.0,300.0 467.0,317.0 467.0,334.0 467.0,351.0" style="fill:#C4C4C4;" />
<polygon data-section="Orchestra Center F-O, Side E-J/Mezzanine Center C-D, Side A-B" data-priority="2" class="57853" points="253.0,750.0 253.0,767.0 253.0,784.0 253.0,801.0 253.0,818.0 253.0,835.0 253.0,852.0 253.0,869.0 253.0,886.0 253.0,903.0 253.0,920.0 266.0,921.0 292.0,922.0 318.0,923.0 331.0,923.0 344.0,923.0 357.0,923.0 370.0,923.0 422.0,920.0 435.0,919.0 435.0,902.0 435.0,885.0 435.0,868.0 435.0,851.0 435.0,834.0 435.0,817.0 435.0,800.0 435.0,783.0 435.0,766.0 435.0,749.0 435.0,732.0 435.0,715.0 435.0,698.0 435.0,681.0 435.0,664.0 435.0,647.0 435.0,630.0 409.0,631.0 305.0,633.0 279.0,632.0 253.0,631.0 253.0,648.0 253.0,665.0 253.0,682.0 253.0,699.0 253.0,716.0 253.0,733.0 253.0,750.0" style="fill:#C4C4C4;" />
<polygon data-section="Orchestra Center F-O, Side E-J/Mezzanine Center C-D, Side A-B" data-priority="2" class="57853" points="65.0,635.0 78.0,641.0 91.0,647.0 104.0,652.0 117.0,657.0 130.0,661.0 143.0,665.0 156.0,668.0 169.0,671.0 182.0,673.0 195.0,675.0 208.0,677.0 221.0,678.0 221.0,661.0 221.0,644.0 221.0,627.0 195.0,624.0 91.0,596.0 78.0,607.0 65.0,618.0 65.0,635.0" style="fill:#C4C4C4;" />
<polygon data-section="Orchestra Center F-O, Side E-J/Mezzanine Center C-D, Side A-B" data-priority="2" class="57853" points="65.0,788.0 65.0,805.0 65.0,822.0 65.0,839.0 65.0,856.0 65.0,873.0 65.0,890.0 78.0,896.0 91.0,902.0 104.0,907.0 117.0,912.0 130.0,916.0 143.0,920.0 156.0,923.0 169.0,926.0 221.0,916.0 221.0,899.0 221.0,882.0 221.0,865.0 221.0,848.0 221.0,831.0 221.0,814.0 221.0,797.0 221.0,780.0 221.0,763.0 221.0,746.0 221.0,729.0 143.0,716.0 91.0,732.0 65.0,754.0 65.0,771.0 65.0,788.0" style="fill:#C4C4C4;" />
<polygon data-section="Orchestra Center F-O, Side E-J/Mezzanine Center C-D, Side A-B" data-priority="2" class="57853" points="467.0,814.0 467.0,831.0 467.0,848.0 467.0,865.0 467.0,882.0 467.0,899.0 467.0,916.0 519.0,927.0 532.0,924.0 545.0,921.0 558.0,917.0 571.0,913.0 584.0,908.0 597.0,903.0 610.0,897.0 623.0,891.0 623.0,874.0 623.0,857.0 623.0,840.0 623.0,823.0 623.0,806.0 623.0,789.0 623.0,772.0 623.0,755.0 597.0,733.0 545.0,717.0 467.0,729.0 467.0,746.0 467.0,763.0 467.0,780.0 467.0,797.0 467.0,814.0" style="fill:#C4C4C4;" />
<polygon data-section="Orchestra Center F-O, Side E-J/Mezzanine Center C-D, Side A-B" data-priority="2" class="57853" points="467.0,644.0 467.0,661.0 467.0,678.0 480.0,677.0 493.0,676.0 506.0,674.0 519.0,672.0 532.0,669.0 545.0,666.0 558.0,662.0 571.0,658.0 584.0,653.0 597.0,648.0 610.0,642.0 623.0,636.0 623.0,619.0 610.0,608.0 597.0,597.0 584.0,602.0 480.0,626.0 467.0,627.0 467.0,644.0" style="fill:#C4C4C4;" />
</g>
<g class="grouped-Mezzanine Center P-Q, Side L-N">
<polygon data-section="Mezzanine Center P-Q, Side L-N" data-priority="2" class="57854" points="253.0,750.0 253.0,767.0 253.0,784.0 253.0,801.0 253.0,818.0 253.0,835.0 253.0,852.0 253.0,869.0 253.0,886.0 253.0,903.0 253.0,920.0 266.0,921.0 292.0,922.0 318.0,923.0 331.0,923.0 344.0,923.0 357.0,923.0 370.0,923.0 422.0,920.0 435.0,919.0 435.0,902.0 435.0,885.0 435.0,868.0 435.0,851.0 435.0,834.0 435.0,817.0 435.0,800.0 435.0,783.0 435.0,766.0 435.0,749.0 435.0,732.0 435.0,715.0 435.0,698.0 435.0,681.0 435.0,664.0 435.0,647.0 435.0,630.0 409.0,631.0 305.0,633.0 279.0,632.0 253.0,631.0 253.0,648.0 253.0,665.0 253.0,682.0 253.0,699.0 253.0,716.0 253.0,733.0 253.0,750.0" style="fill:#C4C4C4;" />
<polygon data-section="Mezzanine Center P-Q, Side L-N" data-priority="2" class="57854" points="65.0,635.0 78.0,641.0 91.0,647.0 104.0,652.0 117.0,657.0 130.0,661.0 143.0,665.0 156.0,668.0 169.0,671.0 182.0,673.0 195.0,675.0 208.0,677.0 221.0,678.0 221.0,661.0 221.0,644.0 221.0,627.0 195.0,624.0 91.0,596.0 78.0,607.0 65.0,618.0 65.0,635.0" style="fill:#C4C4C4;" />
<polygon data-section="Mezzanine Center P-Q, Side L-N" data-priority="2" class="57854" points="65.0,788.0 65.0,805.0 65.0,822.0 65.0,839.0 65.0,856.0 65.0,873.0 65.0,890.0 78.0,896.0 91.0,902.0 104.0,907.0 117.0,912.0 130.0,916.0 143.0,920.0 156.0,923.0 169.0,926.0 221.0,916.0 221.0,899.0 221.0,882.0 221.0,865.0 221.0,848.0 221.0,831.0 221.0,814.0 221.0,797.0 221.0,780.0 221.0,763.0 221.0,746.0 221.0,729.0 143.0,716.0 91.0,732.0 65.0,754.0 65.0,771.0 65.0,788.0" style="fill:#C4C4C4;" />
<polygon data-section="Mezzanine Center P-Q, Side L-N" data-priority="2" class="57854" points="467.0,814.0 467.0,831.0 467.0,848.0 467.0,865.0 467.0,882.0 467.0,899.0 467.0,916.0 519.0,927.0 532.0,924.0 545.0,921.0 558.0,917.0 571.0,913.0 584.0,908.0 597.0,903.0 610.0,897.0 623.0,891.0 623.0,874.0 623.0,857.0 623.0,840.0 623.0,823.0 623.0,806.0 623.0,789.0 623.0,772.0 623.0,755.0 597.0,733.0 545.0,717.0 467.0,729.0 467.0,746.0 467.0,763.0 467.0,780.0 467.0,797.0 467.0,814.0" style="fill:#C4C4C4;" />
<polygon data-section="Mezzanine Center P-Q, Side L-N" data-priority="2" class="57854" points="467.0,644.0 467.0,661.0 467.0,678.0 480.0,677.0 493.0,676.0 506.0,674.0 519.0,672.0 532.0,669.0 545.0,666.0 558.0,662.0 571.0,658.0 584.0,653.0 597.0,648.0 610.0,642.0 623.0,636.0 623.0,619.0 610.0,608.0 597.0,597.0 584.0,602.0 480.0,626.0 467.0,627.0 467.0,644.0" style="fill:#C4C4C4;" />
</g>
<g class="grouped-Mezzanine Center L-O, Side H-K">
<polygon data-section="Mezzanine Center L-O, Side H-K" data-priority="2" class="57855" points="253.0,750.0 253.0,767.0 253.0,784.0 253.0,801.0 253.0,818.0 253.0,835.0 253.0,852.0 253.0,869.0 253.0,886.0 253.0,903.0 253.0,920.0 266.0,921.0 292.0,922.0 318.0,923.0 331.0,923.0 344.0,923.0 357.0,923.0 370.0,923.0 422.0,920.0 435.0,919.0 435.0,902.0 435.0,885.0 435.0,868.0 435.0,851.0 435.0,834.0 435.0,817.0 435.0,800.0 435.0,783.0 435.0,766.0 435.0,749.0 435.0,732.0 435.0,715.0 435.0,698.0 435.0,681.0 435.0,664.0 435.0,647.0 435.0,630.0 409.0,631.0 305.0,633.0 279.0,632.0 253.0,631.0 253.0,648.0 253.0,665.0 253.0,682.0 253.0,699.0 253.0,716.0 253.0,733.0 253.0,750.0" style="fill:#C4C4C4;" />
<polygon data-section="Mezzanine Center L-O, Side H-K" data-priority="2" class="57855" points="65.0,635.0 78.0,641.0 91.0,647.0 104.0,652.0 117.0,657.0 130.0,661.0 143.0,665.0 156.0,668.0 169.0,671.0 182.0,673.0 195.0,675.0 208.0,677.0 221.0,678.0 221.0,661.0 221.0,644.0 221.0,627.0 195.0,624.0 91.0,596.0 78.0,607.0 65.0,618.0 65.0,635.0" style="fill:#C4C4C4;" />
<polygon data-section="Mezzanine Center L-O, Side H-K" data-priority="2" class="57855" points="65.0,788.0 65.0,805.0 65.0,822.0 65.0,839.0 65.0,856.0 65.0,873.0 65.0,890.0 78.0,896.0 91.0,902.0 104.0,907.0 117.0,912.0 130.0,916.0 143.0,920.0 156.0,923.0 169.0,926.0 221.0,916.0 221.0,899.0 221.0,882.0 221.0,865.0 221.0,848.0 221.0,831.0 221.0,814.0 221.0,797.0 221.0,780.0 221.0,763.0 221.0,746.0 221.0,729.0 143.0,716.0 91.0,732.0 65.0,754.0 65.0,771.0 65.0,788.0" style="fill:#C4C4C4;" />
<polygon data-section="Mezzanine Center L-O, Side H-K" data-priority="2" class="57855" points="467.0,814.0 467.0,831.0 467.0,848.0 467.0,865.0 467.0,882.0 467.0,899.0 467.0,916.0 519.0,927.0 532.0,924.0 545.0,921.0 558.0,917.0 571.0,913.0 584.0,908.0 597.0,903.0 610.0,897.0 623.0,891.0 623.0,874.0 623.0,857.0 623.0,840.0 623.0,823.0 623.0,806.0 623.0,789.0 623.0,772.0 623.0,755.0 597.0,733.0 545.0,717.0 467.0,729.0 467.0,746.0 467.0,763.0 467.0,780.0 467.0,797.0 467.0,814.0" style="fill:#C4C4C4;" />
<polygon data-section="Mezzanine Center L-O, Side H-K" data-priority="2" class="57855" points="467.0,644.0 467.0,661.0 467.0,678.0 480.0,677.0 493.0,676.0 506.0,674.0 519.0,672.0 532.0,669.0 545.0,666.0 558.0,662.0 571.0,658.0 584.0,653.0 597.0,648.0 610.0,642.0 623.0,636.0 623.0,619.0 610.0,608.0 597.0,597.0 584.0,602.0 480.0,626.0 467.0,627.0 467.0,644.0" style="fill:#C4C4C4;" />
</g>
<g class="grouped-Orchestra Front Side E-H/Mezzanine Front Center E-F/Mezzanine Outer Front Side A-D">
<polygon data-section="Orchestra Front Side E-H/Mezzanine Front Center E-F/Mezzanine Outer Front Side A-D" data-priority="3" class="38208" points="65.0,308.0 65.0,325.0 78.0,331.0 91.0,337.0 104.0,342.0 117.0,347.0 130.0,351.0 143.0,355.0 156.0,358.0 169.0,361.0 182.0,363.0 195.0,365.0 208.0,367.0 221.0,368.0 221.0,351.0 221.0,334.0 221.0,317.0 221.0,300.0 221.0,283.0 221.0,266.0 182.0,261.0 117.0,279.0 65.0,291.0 65.0,308.0" style="fill:#C4C4C4;" />
<polygon data-section="Orchestra Front Side E-H/Mezzanine Front Center E-F/Mezzanine Outer Front Side A-D" data-priority="3" class="38208" points="467.0,334.0 467.0,351.0 467.0,368.0 480.0,367.0 493.0,366.0 506.0,364.0 519.0,362.0 532.0,359.0 545.0,356.0 558.0,352.0 571.0,348.0 584.0,343.0 597.0,338.0 610.0,332.0 623.0,326.0 623.0,309.0 623.0,292.0 571.0,280.0 506.0,262.0 467.0,266.0 467.0,283.0 467.0,300.0 467.0,317.0 467.0,334.0" style="fill:#C4C4C4;" />
<polygon data-section="Orchestra Front Side E-H/Mezzanine Front Center E-F/Mezzanine Outer Front Side A-D" data-priority="3" class="38208" points="253.0,682.0 253.0,699.0 253.0,716.0 253.0,733.0 253.0,750.0 266.0,751.0 292.0,752.0 318.0,753.0 331.0,753.0 344.0,753.0 357.0,753.0 370.0,753.0 422.0,750.0 435.0,749.0 435.0,732.0 435.0,715.0 435.0,698.0 435.0,681.0 435.0,664.0 435.0,647.0 435.0,630.0 409.0,631.0 305.0,633.0 279.0,632.0 253.0,631.0 253.0,648.0 253.0,665.0 253.0,682.0" style="fill:#C4C4C4;" />
<polygon data-section="Orchestra Front Side E-H/Mezzanine Front Center E-F/Mezzanine Outer Front Side A-D" data-priority="3" class="38208" points="467.0,644.0 467.0,661.0 467.0,678.0 480.0,677.0 493.0,676.0 506.0,674.0 519.0,672.0 532.0,669.0 545.0,666.0 558.0,662.0 571.0,658.0 584.0,653.0 597.0,648.0 610.0,642.0 623.0,636.0 623.0,619.0 610.0,608.0 597.0,597.0 584.0,602.0 480.0,626.0 467.0,627.0 467.0,644.0" style="fill:#C4C4C4;" />
<polygon data-section="Orchestra Front Side E-H/Mezzanine Front Center E-F/Mezzanine Outer Front Side A-D" data-priority="3" class="38208" points="78.0,641.0 91.0,647.0 104.0,652.0 117.0,657.0 130.0,661.0 143.0,665.0 156.0,668.0 169.0,671.0 182.0,673.0 195.0,675.0 208.0,677.0 221.0,678.0 221.0,661.0 221.0,644.0 221.0,627.0 195.0,624.0 91.0,596.0 78.0,607.0 65.0,618.0 65.0,635.0 78.0,641.0" style="fill:#C4C4C4;" />
<polygon data-section="Orchestra Front Side E-H/Mezzanine Front Center E-F/Mezzanine Outer Front Side A-D" data-priority="3" class="38208" points="493.0,744.0 506.0,742.0 519.0,740.0 532.0,737.0 545.0,734.0 545.0,717.0 467.0,729.0 467.0,746.0 480.0,745.0 493.0,744.0" style="fill:#C4C4C4;" />
<polygon data-section="Orchestra Front Side E-H/Mezzanine Front Center E-F/Mezzanine Outer Front Side A-D" data-priority="3" class="38208" points="143.0,716.0 143.0,733.0 156.0,736.0 169.0,739.0 182.0,741.0 195.0,743.0 208.0,745.0 221.0,746.0 221.0,729.0 143.0,716.0" style="fill:#C4C4C4;" />
</g>
<g class="grouped-Orchestra Center F-N/Mezzanine Front Side A-B">
<polygon data-section="Orchestra Center F-N/Mezzanine Front Side A-B" data-priority="3" class="46593" points="253.0,355.0 253.0,372.0 253.0,389.0 253.0,406.0 253.0,423.0 253.0,440.0 253.0,457.0 253.0,474.0 253.0,491.0 253.0,508.0 253.0,525.0 253.0,542.0 253.0,559.0 266.0,560.0 292.0,561.0 318.0,562.0 331.0,562.0 344.0,562.0 357.0,562.0 370.0,562.0 422.0,559.0 435.0,558.0 435.0,541.0 435.0,524.0 435.0,507.0 435.0,490.0 435.0,473.0 435.0,456.0 435.0,439.0 435.0,422.0 435.0,405.0 435.0,388.0 435.0,371.0 435.0,354.0 435.0,337.0 435.0,320.0 435.0,303.0 435.0,286.0 435.0,269.0 435.0,252.0 416.0,236.0 403.0,236.0 338.0,238.0 286.0,237.0 273.0,237.0 253.0,253.0 253.0,270.0 253.0,287.0 253.0,304.0 253.0,321.0 253.0,338.0 253.0,355.0" style="fill:#C4C4C4;" />
<polygon data-section="Orchestra Center F-N/Mezzanine Front Side A-B" data-priority="3" class="46593" points="467.0,644.0 467.0,661.0 467.0,678.0 480.0,677.0 493.0,676.0 506.0,674.0 519.0,672.0 532.0,669.0 545.0,666.0 558.0,662.0 571.0,658.0 584.0,653.0 597.0,648.0 610.0,642.0 623.0,636.0 623.0,619.0 610.0,608.0 597.0,597.0 584.0,602.0 480.0,626.0 467.0,627.0 467.0,644.0" style="fill:#C4C4C4;" />
<polygon data-section="Orchestra Center F-N/Mezzanine Front Side A-B" data-priority="3" class="46593" points="78.0,641.0 91.0,647.0 104.0,652.0 117.0,657.0 130.0,661.0 143.0,665.0 156.0,668.0 169.0,671.0 182.0,673.0 195.0,675.0 208.0,677.0 221.0,678.0 221.0,661.0 221.0,644.0 221.0,627.0 195.0,624.0 91.0,596.0 78.0,607.0 65.0,618.0 65.0,635.0 78.0,641.0" style="fill:#C4C4C4;" />
<polygon data-section="Orchestra Center F-N/Mezzanine Front Side A-B" data-priority="3" class="46593" points="493.0,744.0 506.0,742.0 519.0,740.0 532.0,737.0 545.0,734.0 545.0,717.0 467.0,729.0 467.0,746.0 480.0,745.0 493.0,744.0" style="fill:#C4C4C4;" />
<polygon data-section="Orchestra Center F-N/Mezzanine Front Side A-B" data-priority="3" class="46593" points="143.0,716.0 143.0,733.0 156.0,736.0 169.0,739.0 182.0,741.0 195.0,743.0 208.0,745.0 221.0,746.0 221.0,729.0 143.0,716.0" style="fill:#C4C4C4;" />
</g>
<g class="grouped-Orchestra Center V-W, Rear Side S-T, Outer Side K-O/Mezzanine Center L-O, Side H">
<polygon data-section="Orchestra Center V-W, Rear Side S-T, Outer Side K-O/Mezzanine Center L-O, Side H" data-priority="3" class="57850" points="253.0,355.0 253.0,372.0 253.0,389.0 253.0,406.0 253.0,423.0 253.0,440.0 253.0,457.0 253.0,474.0 253.0,491.0 253.0,508.0 253.0,525.0 253.0,542.0 253.0,559.0 266.0,560.0 292.0,561.0 318.0,562.0 331.0,562.0 344.0,562.0 357.0,562.0 370.0,562.0 422.0,559.0 435.0,558.0 435.0,541.0 435.0,524.0 435.0,507.0 435.0,490.0 435.0,473.0 435.0,456.0 435.0,439.0 435.0,422.0 435.0,405.0 435.0,388.0 435.0,371.0 435.0,354.0 435.0,337.0 435.0,320.0 435.0,303.0 435.0,286.0 435.0,269.0 435.0,252.0 416.0,236.0 403.0,236.0 338.0,238.0 286.0,237.0 273.0,237.0 253.0,253.0 253.0,270.0 253.0,287.0 253.0,304.0 253.0,321.0 253.0,338.0 253.0,355.0" style="fill:#C4C4C4;" />
<polygon data-section="Orchestra Center V-W, Rear Side S-T, Outer Side K-O/Mezzanine Center L-O, Side H" data-priority="3" class="57850" points="65.0,342.0 65.0,359.0 65.0,376.0 65.0,393.0 79.0,467.0 92.0,473.0 105.0,478.0 118.0,483.0 131.0,487.0 144.0,491.0 157.0,494.0 183.0,499.0 196.0,501.0 209.0,503.0 222.0,504.0 221.0,385.0 221.0,368.0 221.0,351.0 221.0,334.0 221.0,317.0 221.0,300.0 221.0,283.0 221.0,266.0 182.0,261.0 65.0,291.0 65.0,308.0 65.0,325.0 65.0,342.0" style="fill:#C4C4C4;" />
<polygon data-section="Orchestra Center V-W, Rear Side S-T, Outer Side K-O/Mezzanine Center L-O, Side H" data-priority="3" class="57850" points="467.0,300.0 467.0,317.0 467.0,334.0 467.0,351.0 467.0,368.0 467.0,385.0 467.0,402.0 467.0,419.0 467.0,436.0 467.0,453.0 467.0,470.0 467.0,487.0 467.0,504.0 480.0,503.0 493.0,502.0 506.0,500.0 532.0,495.0 545.0,492.0 558.0,488.0 571.0,484.0 584.0,479.0 597.0,474.0 610.0,468.0 623.0,394.0 623.0,377.0 623.0,360.0 623.0,343.0 623.0,326.0 623.0,309.0 623.0,292.0 571.0,280.0 506.0,262.0 467.0,266.0 467.0,283.0 467.0,300.0" style="fill:#C4C4C4;" />
<polygon data-section="Orchestra Center V-W, Rear Side S-T, Outer Side K-O/Mezzanine Center L-O, Side H" data-priority="3" class="57850" points="253.0,750.0 253.0,767.0 253.0,784.0 253.0,801.0 253.0,818.0 253.0,835.0 253.0,852.0 253.0,869.0 253.0,886.0 253.0,903.0 253.0,920.0 266.0,921.0 292.0,922.0 318.0,923.0 331.0,923.0 344.0,923.0 357.0,923.0 370.0,923.0 422.0,920.0 435.0,919.0 435.0,902.0 435.0,885.0 435.0,868.0 435.0,851.0 435.0,834.0 435.0,817.0 435.0,800.0 435.0,783.0 435.0,766.0 435.0,749.0 435.0,732.0 435.0,715.0 435.0,698.0 435.0,681.0 435.0,664.0 435.0,647.0 435.0,630.0 409.0,631.0 305.0,633.0 279.0,632.0 253.0,631.0 253.0,648.0 253.0,665.0 253.0,682.0 253.0,699.0 253.0,716.0 253.0,733.0 253.0,750.0" style="fill:#C4C4C4;" />
<polygon data-section="Orchestra Center V-W, Rear Side S-T, Outer Side K-O/Mezzanine Center L-O, Side H" data-priority="3" class="57850" points="65.0,635.0 78.0,641.0 91.0,647.0 104.0,652.0 117.0,657.0 130.0,661.0 143.0,665.0 156.0,668.0 169.0,671.0 182.0,673.0 195.0,675.0 208.0,677.0 221.0,678.0 221.0,661.0 221.0,644.0 221.0,627.0 195.0,624.0 91.0,596.0 78.0,607.0 65.0,618.0 65.0,635.0" style="fill:#C4C4C4;" />
<polygon data-section="Orchestra Center V-W, Rear Side S-T, Outer Side K-O/Mezzanine Center L-O, Side H" data-priority="3" class="57850" points="65.0,788.0 65.0,805.0 65.0,822.0 65.0,839.0 65.0,856.0 65.0,873.0 65.0,890.0 78.0,896.0 91.0,902.0 104.0,907.0 117.0,912.0 130.0,916.0 143.0,920.0 156.0,923.0 169.0,926.0 221.0,916.0 221.0,899.0 221.0,882.0 221.0,865.0 221.0,848.0 221.0,831.0 221.0,814.0 221.0,797.0 221.0,780.0 221.0,763.0 221.0,746.0 221.0,729.0 143.0,716.0 91.0,732.0 65.0,754.0 65.0,771.0 65.0,788.0" style="fill:#C4C4C4;" />
<polygon data-section="Orchestra Center V-W, Rear Side S-T, Outer Side K-O/Mezzanine Center L-O, Side H" data-priority="3" class="57850" points="467.0,814.0 467.0,831.0 467.0,848.0 467.0,865.0 467.0,882.0 467.0,899.0 467.0,916.0 519.0,927.0 532.0,924.0 545.0,921.0 558.0,917.0 571.0,913.0 584.0,908.0 597.0,903.0 610.0,897.0 623.0,891.0 623.0,874.0 623.0,857.0 623.0,840.0 623.0,823.0 623.0,806.0 623.0,789.0 623.0,772.0 623.0,755.0 597.0,733.0 545.0,717.0 467.0,729.0 467.0,746.0 467.0,763.0 467.0,780.0 467.0,797.0 467.0,814.0" style="fill:#C4C4C4;" />
<polygon data-section="Orchestra Center V-W, Rear Side S-T, Outer Side K-O/Mezzanine Center L-O, Side H" data-priority="3" class="57850" points="467.0,644.0 467.0,661.0 467.0,678.0 480.0,677.0 493.0,676.0 506.0,674.0 519.0,672.0 532.0,669.0 545.0,666.0 558.0,662.0 571.0,658.0 584.0,653.0 597.0,648.0 610.0,642.0 623.0,636.0 623.0,619.0 610.0,608.0 597.0,597.0 584.0,602.0 480.0,626.0 467.0,627.0 467.0,644.0" style="fill:#C4C4C4;" />
</g>
<g class="grouped-Mezzanine Center H-K, Far Side C-D, Side G">
<polygon data-section="Mezzanine Center H-K, Far Side C-D, Side G" data-priority="4" class="57851" points="253.0,750.0 253.0,767.0 253.0,784.0 253.0,801.0 253.0,818.0 253.0,835.0 253.0,852.0 253.0,869.0 253.0,886.0 253.0,903.0 253.0,920.0 266.0,921.0 292.0,922.0 318.0,923.0 331.0,923.0 344.0,923.0 357.0,923.0 370.0,923.0 422.0,920.0 435.0,919.0 435.0,902.0 435.0,885.0 435.0,868.0 435.0,851.0 435.0,834.0 435.0,817.0 435.0,800.0 435.0,783.0 435.0,766.0 435.0,749.0 435.0,732.0 435.0,715.0 435.0,698.0 435.0,681.0 435.0,664.0 435.0,647.0 435.0,630.0 409.0,631.0 305.0,633.0 279.0,632.0 253.0,631.0 253.0,648.0 253.0,665.0 253.0,682.0 253.0,699.0 253.0,716.0 253.0,733.0 253.0,750.0" style="fill:#C4C4C4;" />
<polygon data-section="Mezzanine Center H-K, Far Side C-D, Side G" data-priority="4" class="57851" points="65.0,635.0 78.0,641.0 91.0,647.0 104.0,652.0 117.0,657.0 130.0,661.0 143.0,665.0 156.0,668.0 169.0,671.0 182.0,673.0 195.0,675.0 208.0,677.0 221.0,678.0 221.0,661.0 221.0,644.0 221.0,627.0 195.0,624.0 91.0,596.0 78.0,607.0 65.0,618.0 65.0,635.0" style="fill:#C4C4C4;" />
<polygon data-section="Mezzanine Center H-K, Far Side C-D, Side G" data-priority="4" class="57851" points="467.0,814.0 467.0,831.0 467.0,848.0 467.0,865.0 467.0,882.0 467.0,899.0 467.0,916.0 519.0,927.0 532.0,924.0 545.0,921.0 558.0,917.0 571.0,913.0 584.0,908.0 597.0,903.0 610.0,897.0 623.0,891.0 623.0,874.0 623.0,857.0 623.0,840.0 623.0,823.0 623.0,806.0 623.0,789.0 623.0,772.0 623.0,755.0 597.0,733.0 545.0,717.0 467.0,729.0 467.0,746.0 467.0,763.0 467.0,780.0 467.0,797.0 467.0,814.0" style="fill:#C4C4C4;" />
<polygon data-section="Mezzanine Center H-K, Far Side C-D, Side G" data-priority="4" class="57851" points="65.0,839.0 65.0,856.0 65.0,873.0 65.0,890.0 78.0,896.0 91.0,902.0 104.0,907.0 117.0,912.0 130.0,916.0 143.0,920.0 156.0,923.0 169.0,926.0 221.0,916.0 221.0,899.0 221.0,882.0 221.0,865.0 221.0,848.0 221.0,831.0 221.0,814.0 221.0,797.0 221.0,780.0 221.0,763.0 221.0,746.0 221.0,729.0 143.0,716.0 91.0,732.0 65.0,754.0 65.0,771.0 65.0,788.0 65.0,805.0 65.0,822.0 65.0,839.0" style="fill:#C4C4C4;" />
<polygon data-section="Mezzanine Center H-K, Far Side C-D, Side G" data-priority="4" class="57851" points="467.0,644.0 467.0,661.0 467.0,678.0 480.0,677.0 493.0,676.0 506.0,674.0 519.0,672.0 532.0,669.0 545.0,666.0 558.0,662.0 571.0,658.0 584.0,653.0 597.0,648.0 610.0,642.0 623.0,636.0 623.0,619.0 610.0,608.0 597.0,597.0 584.0,602.0 480.0,626.0 467.0,627.0 467.0,644.0" style="fill:#C4C4C4;" />
</g>
<g class="grouped-Orchestra Center P-R, Side K-O/Mezzanine Center E-G, Far Side A-B, Side C-D">
<polygon data-section="Orchestra Center P-R, Side K-O/Mezzanine Center E-G, Far Side A-B, Side C-D" data-priority="4" class="57852" points="253.0,355.0 253.0,372.0 253.0,389.0 253.0,406.0 253.0,423.0 253.0,440.0 253.0,457.0 253.0,474.0 253.0,491.0 253.0,508.0 253.0,525.0 253.0,542.0 253.0,559.0 266.0,560.0 292.0,561.0 318.0,562.0 331.0,562.0 344.0,562.0 357.0,562.0 370.0,562.0 422.0,559.0 435.0,558.0 435.0,541.0 435.0,524.0 435.0,507.0 435.0,490.0 435.0,473.0 435.0,456.0 435.0,439.0 435.0,422.0 435.0,405.0 435.0,388.0 435.0,371.0 435.0,354.0 435.0,337.0 435.0,320.0 435.0,303.0 435.0,286.0 435.0,269.0 435.0,252.0 416.0,236.0 403.0,236.0 338.0,238.0 286.0,237.0 273.0,237.0 253.0,253.0 253.0,270.0 253.0,287.0 253.0,304.0 253.0,321.0 253.0,338.0 253.0,355.0" style="fill:#C4C4C4;" />
<polygon data-section="Orchestra Center P-R, Side K-O/Mezzanine Center E-G, Far Side A-B, Side C-D" data-priority="4" class="57852" points="65.0,342.0 65.0,359.0 65.0,376.0 65.0,393.0 79.0,467.0 92.0,473.0 105.0,478.0 118.0,483.0 131.0,487.0 144.0,491.0 157.0,494.0 183.0,499.0 196.0,501.0 209.0,503.0 222.0,504.0 221.0,385.0 221.0,368.0 221.0,351.0 221.0,334.0 221.0,317.0 221.0,300.0 221.0,283.0 221.0,266.0 182.0,261.0 65.0,291.0 65.0,308.0 65.0,325.0 65.0,342.0" style="fill:#C4C4C4;" />
<polygon data-section="Orchestra Center P-R, Side K-O/Mezzanine Center E-G, Far Side A-B, Side C-D" data-priority="4" class="57852" points="467.0,351.0 467.0,368.0 467.0,385.0 467.0,402.0 467.0,419.0 467.0,436.0 467.0,453.0 467.0,470.0 467.0,487.0 467.0,504.0 480.0,503.0 493.0,502.0 506.0,500.0 532.0,495.0 545.0,492.0 558.0,488.0 571.0,484.0 584.0,479.0 597.0,474.0 610.0,468.0 623.0,394.0 623.0,377.0 623.0,360.0 623.0,343.0 623.0,326.0 623.0,309.0 623.0,292.0 571.0,280.0 506.0,262.0 467.0,266.0 467.0,283.0 467.0,300.0 467.0,317.0 467.0,334.0 467.0,351.0" style="fill:#C4C4C4;" />
<polygon data-section="Orchestra Center P-R, Side K-O/Mezzanine Center E-G, Far Side A-B, Side C-D" data-priority="4" class="57852" points="253.0,750.0 253.0,767.0 253.0,784.0 253.0,801.0 253.0,818.0 253.0,835.0 253.0,852.0 253.0,869.0 253.0,886.0 253.0,903.0 253.0,920.0 266.0,921.0 292.0,922.0 318.0,923.0 331.0,923.0 344.0,923.0 357.0,923.0 370.0,923.0 422.0,920.0 435.0,919.0 435.0,902.0 435.0,885.0 435.0,868.0 435.0,851.0 435.0,834.0 435.0,817.0 435.0,800.0 435.0,783.0 435.0,766.0 435.0,749.0 435.0,732.0 435.0,715.0 435.0,698.0 435.0,681.0 435.0,664.0 435.0,647.0 435.0,630.0 409.0,631.0 305.0,633.0 279.0,632.0 253.0,631.0 253.0,648.0 253.0,665.0 253.0,682.0 253.0,699.0 253.0,716.0 253.0,733.0 253.0,750.0" style="fill:#C4C4C4;" />
<polygon data-section="Orchestra Center P-R, Side K-O/Mezzanine Center E-G, Far Side A-B, Side C-D" data-priority="4" class="57852" points="65.0,635.0 78.0,641.0 91.0,647.0 104.0,652.0 117.0,657.0 130.0,661.0 143.0,665.0 156.0,668.0 169.0,671.0 182.0,673.0 195.0,675.0 208.0,677.0 221.0,678.0 221.0,661.0 221.0,644.0 221.0,627.0 195.0,624.0 91.0,596.0 78.0,607.0 65.0,618.0 65.0,635.0" style="fill:#C4C4C4;" />
<polygon data-section="Orchestra Center P-R, Side K-O/Mezzanine Center E-G, Far Side A-B, Side C-D" data-priority="4" class="57852" points="467.0,814.0 467.0,831.0 467.0,848.0 467.0,865.0 467.0,882.0 467.0,899.0 467.0,916.0 519.0,927.0 532.0,924.0 545.0,921.0 558.0,917.0 571.0,913.0 584.0,908.0 597.0,903.0 610.0,897.0 623.0,891.0 623.0,874.0 623.0,857.0 623.0,840.0 623.0,823.0 623.0,806.0 623.0,789.0 623.0,772.0 623.0,755.0 597.0,733.0 545.0,717.0 467.0,729.0 467.0,746.0 467.0,763.0 467.0,780.0 467.0,797.0 467.0,814.0" style="fill:#C4C4C4;" />
<polygon data-section="Orchestra Center P-R, Side K-O/Mezzanine Center E-G, Far Side A-B, Side C-D" data-priority="4" class="57852" points="65.0,839.0 65.0,856.0 65.0,873.0 65.0,890.0 78.0,896.0 91.0,902.0 104.0,907.0 117.0,912.0 130.0,916.0 143.0,920.0 156.0,923.0 169.0,926.0 221.0,916.0 221.0,899.0 221.0,882.0 221.0,865.0 221.0,848.0 221.0,831.0 221.0,814.0 221.0,797.0 221.0,780.0 221.0,763.0 221.0,746.0 221.0,729.0 143.0,716.0 91.0,732.0 65.0,754.0 65.0,771.0 65.0,788.0 65.0,805.0 65.0,822.0 65.0,839.0" style="fill:#C4C4C4;" />
<polygon data-section="Orchestra Center P-R, Side K-O/Mezzanine Center E-G, Far Side A-B, Side C-D" data-priority="4" class="57852" points="467.0,644.0 467.0,661.0 467.0,678.0 480.0,677.0 493.0,676.0 506.0,674.0 519.0,672.0 532.0,669.0 545.0,666.0 558.0,662.0 571.0,658.0 584.0,653.0 597.0,648.0 610.0,642.0 623.0,636.0 623.0,619.0 610.0,608.0 597.0,597.0 584.0,602.0 480.0,626.0 467.0,627.0 467.0,644.0" style="fill:#C4C4C4;" />
</g>
</g></svg>