<svg viewbox="0 0 693.0 1234.312" xmlns="http://www.w3.org/2000/svg">
<g id="stage">
<rect x="200" y="0" width="293.0" height="100" fill="#C4C4C4" />
<text font-size="28px" x="346.5" y="50.0" text-anchor="middle" dominant-baseline="middle" fill: rgb(80, 83, 104); font-family: -apple-system, system-ui, Segoe UI, Roboto, Ubuntu, Helvetica Neue, Helvetica, Arial, sans-serif; font-weight: 700; white-space: pre;>STAGE</text>
</g>
<g transform="translate(0, 100)">
<g class="primary-clusters">
<text x="346.5" y="85" font-size="28px" text-anchor="middle" dominant-baseline="middle" fill: rgb(80, 83, 104); font-family: -apple-system, system-ui, Segoe UI, Roboto, Ubuntu, Helvetica Neue, Helvetica, Arial, sans-serif; font-weight: 700; white-space: pre; text-transform:capitalize;>ORCHESTRA</text><text x="346.5" y="512.0" font-size="28px" text-anchor="middle" dominant-baseline="middle" fill: rgb(80, 83, 104); font-family: -apple-system, system-ui, Segoe UI, Roboto, Ubuntu, Helvetica Neue, Helvetica, Arial, sans-serif; font-weight: 700; white-space: pre; text-transform:capitalize;>MEZZANINE</text><text x="346.5" y="740.0" font-size="28px" text-anchor="middle" dominant-baseline="middle" fill: rgb(80, 83, 104); font-family: -apple-system, system-ui, Segoe UI, Roboto, Ubuntu, Helvetica Neue, Helvetica, Arial, sans-serif; font-weight: 700; white-space: pre; text-transform:capitalize;>BALCONY</text><g class="grouped-orchestra cluster0">
<polygon data-section="orchestra" data-priority="-1" class="n/a" points="74.0,367.0 74.0,384.0 87.0,407.0 100.0,413.0 113.0,418.0 126.0,423.0 139.0,427.0 152.0,431.0 165.0,434.0 178.0,437.0 191.0,439.0 217.0,443.0 230.0,444.0 230.0,427.0 230.0,410.0 230.0,393.0 230.0,376.0 230.0,359.0 230.0,342.0 230.0,325.0 230.0,308.0 230.0,291.0 230.0,274.0 230.0,257.0 230.0,240.0 230.0,223.0 230.0,206.0 230.0,189.0 230.0,172.0 230.0,155.0 230.0,138.0 178.0,131.0 165.0,145.0 100.0,209.0 61.0,258.0 61.0,275.0 74.0,367.0" style="fill:#C4C4C4;" />
</g>
<g class="grouped-orchestra cluster1">
<polygon data-section="orchestra" data-priority="-1" class="n/a" points="262.0,278.0 262.0,295.0 262.0,312.0 262.0,329.0 262.0,346.0 262.0,363.0 262.0,380.0 262.0,397.0 262.0,414.0 262.0,431.0 275.0,449.0 379.0,467.0 392.0,467.0 431.0,448.0 431.0,431.0 431.0,414.0 431.0,397.0 431.0,380.0 431.0,363.0 431.0,346.0 431.0,329.0 431.0,312.0 431.0,295.0 431.0,278.0 431.0,261.0 431.0,244.0 431.0,227.0 431.0,210.0 431.0,193.0 431.0,176.0 424.0,142.0 398.0,143.0 372.0,144.0 268.0,142.0 262.0,176.0 262.0,193.0 262.0,210.0 262.0,227.0 262.0,244.0 262.0,261.0 262.0,278.0" style="fill:#C4C4C4;" />
</g>
<g class="grouped-orchestra cluster2">
<polygon data-section="orchestra" data-priority="-1" class="n/a" points="463.0,240.0 463.0,257.0 463.0,274.0 463.0,291.0 463.0,308.0 463.0,325.0 463.0,342.0 463.0,359.0 463.0,376.0 463.0,393.0 463.0,410.0 463.0,427.0 463.0,444.0 476.0,443.0 502.0,440.0 515.0,438.0 528.0,435.0 541.0,432.0 554.0,428.0 567.0,424.0 580.0,419.0 593.0,414.0 606.0,408.0 619.0,385.0 619.0,368.0 632.0,277.0 632.0,260.0 593.0,210.0 528.0,146.0 515.0,132.0 463.0,138.0 463.0,155.0 463.0,172.0 463.0,189.0 463.0,206.0 463.0,223.0 463.0,240.0" style="fill:#C4C4C4;" />
</g>
<g class="grouped-mezzanine cluster0">
<polygon data-section="mezzanine" data-priority="-1" class="n/a" points="86.0,651.0 99.0,657.0 112.0,662.0 125.0,667.0 138.0,671.0 151.0,675.0 164.0,678.0 177.0,681.0 190.0,683.0 203.0,685.0 216.0,687.0 229.0,688.0 229.0,671.0 229.0,654.0 229.0,637.0 229.0,620.0 229.0,603.0 229.0,586.0 229.0,569.0 229.0,552.0 229.0,535.0 203.0,532.0 190.0,530.0 86.0,498.0 73.0,492.0 60.0,486.0 60.0,503.0 60.0,520.0 60.0,537.0 60.0,554.0 73.0,645.0 86.0,651.0" style="fill:#C4C4C4;" />
</g>
<g class="grouped-mezzanine cluster1">
<polygon data-section="mezzanine" data-priority="-1" class="n/a" points="261.0,624.0 261.0,641.0 261.0,658.0 261.0,675.0 261.0,692.0 274.0,693.0 300.0,694.0 326.0,695.0 339.0,695.0 352.0,695.0 365.0,695.0 391.0,694.0 417.0,693.0 430.0,692.0 430.0,675.0 430.0,658.0 430.0,641.0 430.0,624.0 430.0,607.0 430.0,590.0 430.0,573.0 430.0,556.0 430.0,539.0 404.0,540.0 378.0,541.0 287.0,540.0 261.0,539.0 261.0,556.0 261.0,573.0 261.0,590.0 261.0,607.0 261.0,624.0" style="fill:#C4C4C4;" />
</g>
<g class="grouped-mezzanine cluster2">
<polygon data-section="mezzanine" data-priority="-1" class="n/a" points="462.0,569.0 462.0,586.0 462.0,603.0 462.0,620.0 462.0,637.0 462.0,654.0 462.0,671.0 462.0,688.0 475.0,687.0 488.0,686.0 501.0,684.0 514.0,682.0 527.0,679.0 540.0,676.0 553.0,672.0 566.0,668.0 579.0,663.0 592.0,658.0 605.0,652.0 618.0,646.0 631.0,555.0 631.0,538.0 631.0,521.0 631.0,504.0 631.0,487.0 618.0,493.0 605.0,499.0 579.0,510.0 475.0,534.0 462.0,535.0 462.0,552.0 462.0,569.0" style="fill:#C4C4C4;" />
</g>
<g class="grouped-balcony cluster0">
<polygon data-section="balcony" data-priority="-1" class="n/a" points="74.0,840.0 87.0,863.0 113.0,891.0 126.0,896.0 139.0,900.0 152.0,904.0 165.0,907.0 178.0,910.0 191.0,912.0 204.0,914.0 217.0,916.0 230.0,917.0 230.0,900.0 230.0,883.0 230.0,866.0 230.0,849.0 230.0,832.0 230.0,815.0 230.0,798.0 230.0,781.0 230.0,764.0 204.0,761.0 191.0,759.0 87.0,727.0 74.0,721.0 61.0,715.0 61.0,732.0 74.0,840.0" style="fill:#C4C4C4;" />
</g>
<g class="grouped-balcony cluster1">
<polygon data-section="balcony" data-priority="-1" class="n/a" points="262.0,836.0 262.0,853.0 262.0,870.0 262.0,887.0 262.0,904.0 275.0,905.0 340.0,890.0 418.0,905.0 431.0,904.0 431.0,887.0 431.0,870.0 431.0,853.0 431.0,836.0 431.0,802.0 431.0,785.0 431.0,768.0 405.0,769.0 288.0,769.0 262.0,768.0 262.0,785.0 262.0,802.0 262.0,836.0" style="fill:#C4C4C4;" />
</g>
<g class="grouped-balcony cluster2">
<polygon data-section="balcony" data-priority="-1" class="n/a" points="463.0,798.0 463.0,815.0 463.0,832.0 463.0,849.0 463.0,866.0 463.0,883.0 463.0,900.0 476.0,899.0 489.0,898.0 502.0,896.0 515.0,894.0 528.0,891.0 541.0,888.0 554.0,884.0 567.0,880.0 580.0,875.0 593.0,870.0 606.0,864.0 619.0,841.0 632.0,733.0 632.0,716.0 619.0,722.0 606.0,728.0 580.0,739.0 476.0,763.0 463.0,764.0 463.0,781.0 463.0,798.0" style="fill:#C4C4C4;" />
</g>
</g>
<g class="grouped-Mezzanine J-K Balcony A-F">
<polygon data-section="Mezzanine J-K Balcony A-F" data-priority="0" class="59024" points="261.0,641.0 261.0,658.0 261.0,675.0 261.0,692.0 274.0,693.0 300.0,694.0 326.0,695.0 339.0,695.0 352.0,695.0 365.0,695.0 391.0,694.0 417.0,693.0 430.0,692.0 430.0,675.0 430.0,658.0 430.0,641.0 430.0,624.0 430.0,607.0 430.0,590.0 430.0,573.0 430.0,556.0 430.0,539.0 404.0,540.0 313.0,541.0 287.0,540.0 261.0,539.0 261.0,556.0 261.0,573.0 261.0,590.0 261.0,607.0 261.0,624.0 261.0,641.0" style="fill:#C4C4C4;" />
<polygon data-section="Mezzanine J-K Balcony A-F" data-priority="0" class="59024" points="60.0,554.0 73.0,645.0 86.0,651.0 99.0,657.0 112.0,662.0 125.0,667.0 138.0,671.0 151.0,675.0 164.0,678.0 177.0,681.0 190.0,683.0 203.0,685.0 216.0,687.0 229.0,688.0 229.0,671.0 229.0,654.0 229.0,637.0 229.0,620.0 229.0,603.0 229.0,586.0 229.0,569.0 229.0,552.0 229.0,535.0 203.0,532.0 190.0,530.0 86.0,498.0 73.0,492.0 60.0,486.0 60.0,503.0 60.0,520.0 60.0,537.0 60.0,554.0" style="fill:#C4C4C4;" />
<polygon data-section="Mezzanine J-K Balcony A-F" data-priority="0" class="59024" points="462.0,569.0 462.0,586.0 462.0,603.0 462.0,620.0 462.0,637.0 462.0,654.0 462.0,671.0 462.0,688.0 475.0,687.0 488.0,686.0 501.0,684.0 514.0,682.0 527.0,679.0 540.0,676.0 553.0,672.0 566.0,668.0 579.0,663.0 592.0,658.0 605.0,652.0 618.0,646.0 631.0,555.0 631.0,538.0 631.0,521.0 631.0,504.0 631.0,487.0 618.0,493.0 605.0,499.0 579.0,510.0 475.0,534.0 462.0,535.0 462.0,552.0 462.0,569.0" style="fill:#C4C4C4;" />
<polygon data-section="Mezzanine J-K Balcony A-F" data-priority="0" class="59024" points="61.0,715.0 61.0,732.0 74.0,840.0 87.0,863.0 113.0,891.0 126.0,896.0 139.0,900.0 152.0,904.0 165.0,907.0 178.0,910.0 191.0,912.0 204.0,914.0 217.0,916.0 230.0,917.0 230.0,900.0 230.0,883.0 230.0,866.0 230.0,849.0 230.0,832.0 230.0,815.0 230.0,798.0 230.0,781.0 230.0,764.0 204.0,761.0 191.0,759.0 87.0,727.0 74.0,721.0 61.0,715.0" style="fill:#C4C4C4;" />
<polygon data-section="Mezzanine J-K Balcony A-F" data-priority="0" class="59024" points="262.0,836.0 262.0,853.0 262.0,870.0 262.0,887.0 262.0,904.0 275.0,905.0 353.0,890.0 418.0,905.0 431.0,904.0 431.0,887.0 431.0,870.0 431.0,853.0 431.0,836.0 431.0,802.0 431.0,785.0 431.0,768.0 405.0,769.0 288.0,769.0 262.0,768.0 262.0,785.0 262.0,802.0 262.0,836.0" style="fill:#C4C4C4;" />
<polygon data-section="Mezzanine J-K Balcony A-F" data-priority="0" class="59024" points="463.0,798.0 463.0,815.0 463.0,832.0 463.0,849.0 463.0,866.0 463.0,883.0 463.0,900.0 476.0,899.0 489.0,898.0 502.0,896.0 515.0,894.0 528.0,891.0 541.0,888.0 554.0,884.0 567.0,880.0 580.0,875.0 593.0,870.0 606.0,864.0 619.0,841.0 632.0,733.0 632.0,716.0 619.0,722.0 606.0,728.0 580.0,739.0 476.0,763.0 463.0,764.0 463.0,781.0 463.0,798.0" style="fill:#C4C4C4;" />
</g>
<g class="grouped-Mezzanine J-K Balcony A-C">
<polygon data-section="Mezzanine J-K Balcony A-C" data-priority="0" class="59025" points="261.0,641.0 261.0,658.0 261.0,675.0 261.0,692.0 274.0,693.0 300.0,694.0 326.0,695.0 339.0,695.0 352.0,695.0 365.0,695.0 391.0,694.0 417.0,693.0 430.0,692.0 430.0,675.0 430.0,658.0 430.0,641.0 430.0,624.0 430.0,607.0 430.0,590.0 430.0,573.0 430.0,556.0 430.0,539.0 404.0,540.0 313.0,541.0 287.0,540.0 261.0,539.0 261.0,556.0 261.0,573.0 261.0,590.0 261.0,607.0 261.0,624.0 261.0,641.0" style="fill:#C4C4C4;" />
<polygon data-section="Mezzanine J-K Balcony A-C" data-priority="0" class="59025" points="60.0,554.0 73.0,645.0 86.0,651.0 99.0,657.0 112.0,662.0 125.0,667.0 138.0,671.0 151.0,675.0 164.0,678.0 177.0,681.0 190.0,683.0 203.0,685.0 216.0,687.0 229.0,688.0 229.0,671.0 229.0,654.0 229.0,637.0 229.0,620.0 229.0,603.0 229.0,586.0 229.0,569.0 229.0,552.0 229.0,535.0 203.0,532.0 190.0,530.0 86.0,498.0 73.0,492.0 60.0,486.0 60.0,503.0 60.0,520.0 60.0,537.0 60.0,554.0" style="fill:#C4C4C4;" />
<polygon data-section="Mezzanine J-K Balcony A-C" data-priority="0" class="59025" points="462.0,569.0 462.0,586.0 462.0,603.0 462.0,620.0 462.0,637.0 462.0,654.0 462.0,671.0 462.0,688.0 475.0,687.0 488.0,686.0 501.0,684.0 514.0,682.0 527.0,679.0 540.0,676.0 553.0,672.0 566.0,668.0 579.0,663.0 592.0,658.0 605.0,652.0 618.0,646.0 631.0,555.0 631.0,538.0 631.0,521.0 631.0,504.0 631.0,487.0 618.0,493.0 605.0,499.0 579.0,510.0 475.0,534.0 462.0,535.0 462.0,552.0 462.0,569.0" style="fill:#C4C4C4;" />
<polygon data-section="Mezzanine J-K Balcony A-C" data-priority="0" class="59025" points="61.0,715.0 61.0,732.0 74.0,840.0 87.0,863.0 113.0,891.0 126.0,896.0 139.0,900.0 152.0,904.0 165.0,907.0 178.0,910.0 191.0,912.0 204.0,914.0 217.0,916.0 230.0,917.0 230.0,900.0 230.0,883.0 230.0,866.0 230.0,849.0 230.0,832.0 230.0,815.0 230.0,798.0 230.0,781.0 230.0,764.0 204.0,761.0 191.0,759.0 87.0,727.0 74.0,721.0 61.0,715.0" style="fill:#C4C4C4;" />
<polygon data-section="Mezzanine J-K Balcony A-C" data-priority="0" class="59025" points="262.0,836.0 262.0,853.0 262.0,870.0 262.0,887.0 262.0,904.0 275.0,905.0 353.0,890.0 418.0,905.0 431.0,904.0 431.0,887.0 431.0,870.0 431.0,853.0 431.0,836.0 431.0,802.0 431.0,785.0 431.0,768.0 405.0,769.0 288.0,769.0 262.0,768.0 262.0,785.0 262.0,802.0 262.0,836.0" style="fill:#C4C4C4;" />
<polygon data-section="Mezzanine J-K Balcony A-C" data-priority="0" class="59025" points="463.0,798.0 463.0,815.0 463.0,832.0 463.0,849.0 463.0,866.0 463.0,883.0 463.0,900.0 476.0,899.0 489.0,898.0 502.0,896.0 515.0,894.0 528.0,891.0 541.0,888.0 554.0,884.0 567.0,880.0 580.0,875.0 593.0,870.0 606.0,864.0 619.0,841.0 632.0,733.0 632.0,716.0 619.0,722.0 606.0,728.0 580.0,739.0 476.0,763.0 463.0,764.0 463.0,781.0 463.0,798.0" style="fill:#C4C4C4;" />
</g>
<g class="grouped-Orchestra R-U">
<polygon data-section="Orchestra R-U" data-priority="0" class="59028" points="74.0,367.0 74.0,384.0 87.0,407.0 100.0,413.0 113.0,418.0 126.0,423.0 139.0,427.0 152.0,431.0 165.0,434.0 178.0,437.0 191.0,439.0 217.0,443.0 230.0,444.0 230.0,427.0 230.0,410.0 230.0,393.0 230.0,376.0 230.0,359.0 230.0,342.0 230.0,325.0 230.0,308.0 230.0,291.0 230.0,274.0 230.0,257.0 230.0,240.0 230.0,223.0 230.0,206.0 230.0,189.0 230.0,172.0 230.0,155.0 230.0,138.0 178.0,131.0 165.0,145.0 100.0,209.0 61.0,258.0 61.0,275.0 74.0,367.0" style="fill:#C4C4C4;" />
<polygon data-section="Orchestra R-U" data-priority="0" class="59028" points="262.0,278.0 262.0,295.0 262.0,312.0 262.0,329.0 262.0,346.0 262.0,363.0 262.0,380.0 262.0,397.0 262.0,414.0 262.0,431.0 275.0,449.0 379.0,467.0 392.0,467.0 431.0,448.0 431.0,431.0 431.0,414.0 431.0,397.0 431.0,380.0 431.0,363.0 431.0,346.0 431.0,329.0 431.0,312.0 431.0,295.0 431.0,278.0 431.0,261.0 431.0,244.0 431.0,227.0 431.0,210.0 431.0,193.0 431.0,176.0 424.0,142.0 398.0,143.0 372.0,144.0 268.0,142.0 262.0,176.0 262.0,193.0 262.0,210.0 262.0,227.0 262.0,244.0 262.0,261.0 262.0,278.0" style="fill:#C4C4C4;" />
<polygon data-section="Orchestra R-U" data-priority="0" class="59028" points="463.0,240.0 463.0,257.0 463.0,274.0 463.0,291.0 463.0,308.0 463.0,325.0 463.0,342.0 463.0,359.0 463.0,376.0 463.0,393.0 463.0,410.0 463.0,427.0 463.0,444.0 476.0,443.0 502.0,440.0 515.0,438.0 528.0,435.0 541.0,432.0 554.0,428.0 567.0,424.0 580.0,419.0 593.0,414.0 606.0,408.0 619.0,385.0 619.0,368.0 632.0,277.0 632.0,260.0 593.0,210.0 528.0,146.0 515.0,132.0 463.0,138.0 463.0,155.0 463.0,172.0 463.0,189.0 463.0,206.0 463.0,223.0 463.0,240.0" style="fill:#C4C4C4;" />
</g>
<g class="grouped-Balcony D-F Center">
<polygon data-section="Balcony D-F Center" data-priority="1" class="52989" points="262.0,870.0 262.0,887.0 262.0,904.0 275.0,905.0 353.0,890.0 418.0,905.0 431.0,904.0 431.0,887.0 431.0,870.0 431.0,853.0 431.0,836.0 431.0,802.0 431.0,785.0 431.0,768.0 405.0,769.0 288.0,769.0 262.0,768.0 262.0,785.0 262.0,802.0 262.0,836.0 262.0,853.0 262.0,870.0" style="fill:#C4C4C4;" />
</g>
<g class="grouped-Balcony A-J Center">
<polygon data-section="Balcony A-J Center" data-priority="1" class="55293" points="262.0,870.0 262.0,887.0 262.0,904.0 275.0,905.0 353.0,890.0 418.0,905.0 431.0,904.0 431.0,887.0 431.0,870.0 431.0,853.0 431.0,836.0 431.0,802.0 431.0,785.0 431.0,768.0 405.0,769.0 288.0,769.0 262.0,768.0 262.0,785.0 262.0,802.0 262.0,836.0 262.0,853.0 262.0,870.0" style="fill:#C4C4C4;" />
</g>
<g class="grouped-Premium Seats">
<polygon data-section="Premium Seats" data-priority="2" class="52993" points="262.0,210.0 262.0,227.0 262.0,244.0 262.0,261.0 262.0,278.0 275.0,279.0 301.0,280.0 327.0,281.0 340.0,281.0 353.0,281.0 366.0,281.0 392.0,280.0 418.0,279.0 431.0,278.0 431.0,261.0 431.0,244.0 431.0,227.0 431.0,210.0 431.0,193.0 431.0,176.0 424.0,142.0 398.0,143.0 372.0,144.0 268.0,142.0 262.0,176.0 262.0,193.0 262.0,210.0" style="fill:#C4C4C4;" />
</g>
<g class="grouped-Orchestra N-Q Sides">
<polygon data-section="Orchestra N-Q Sides" data-priority="2" class="52995" points="74.0,367.0 74.0,384.0 87.0,407.0 100.0,413.0 113.0,418.0 126.0,423.0 139.0,427.0 152.0,431.0 165.0,434.0 178.0,437.0 191.0,439.0 217.0,443.0 230.0,444.0 230.0,427.0 230.0,410.0 230.0,393.0 230.0,376.0 230.0,359.0 230.0,342.0 230.0,325.0 230.0,308.0 230.0,291.0 230.0,274.0 230.0,257.0 230.0,240.0 230.0,223.0 230.0,206.0 230.0,189.0 230.0,172.0 230.0,155.0 230.0,138.0 178.0,131.0 165.0,145.0 100.0,209.0 61.0,258.0 61.0,275.0 74.0,367.0" style="fill:#C4C4C4;" />
<polygon data-section="Orchestra N-Q Sides" data-priority="2" class="52995" points="463.0,240.0 463.0,257.0 463.0,274.0 463.0,291.0 463.0,308.0 463.0,325.0 463.0,342.0 463.0,359.0 463.0,376.0 463.0,393.0 463.0,410.0 463.0,427.0 463.0,444.0 476.0,443.0 502.0,440.0 515.0,438.0 528.0,435.0 541.0,432.0 554.0,428.0 567.0,424.0 580.0,419.0 593.0,414.0 606.0,408.0 619.0,385.0 619.0,368.0 632.0,277.0 632.0,260.0 593.0,210.0 528.0,146.0 515.0,132.0 463.0,138.0 463.0,155.0 463.0,172.0 463.0,189.0 463.0,206.0 463.0,223.0 463.0,240.0" style="fill:#C4C4C4;" />
</g>
<g class="grouped-Mezzanine A-E Center, A-D Sides">
<polygon data-section="Mezzanine A-E Center, A-D Sides" data-priority="2" class="55082" points="261.0,573.0 261.0,590.0 261.0,607.0 261.0,624.0 261.0,641.0 261.0,658.0 261.0,675.0 261.0,692.0 274.0,693.0 300.0,694.0 326.0,695.0 339.0,695.0 352.0,695.0 365.0,695.0 391.0,694.0 417.0,693.0 430.0,692.0 430.0,675.0 430.0,658.0 430.0,641.0 430.0,624.0 430.0,607.0 430.0,590.0 430.0,573.0 430.0,556.0 430.0,539.0 404.0,540.0 313.0,541.0 287.0,540.0 261.0,539.0 261.0,556.0 261.0,573.0" style="fill:#C4C4C4;" />
<polygon data-section="Mezzanine A-E Center, A-D Sides" data-priority="2" class="55082" points="86.0,651.0 99.0,657.0 112.0,662.0 125.0,667.0 138.0,671.0 151.0,675.0 164.0,678.0 177.0,681.0 190.0,683.0 203.0,685.0 216.0,687.0 229.0,688.0 229.0,671.0 229.0,654.0 229.0,637.0 229.0,620.0 229.0,603.0 229.0,586.0 229.0,569.0 229.0,552.0 229.0,535.0 203.0,532.0 190.0,530.0 86.0,498.0 73.0,492.0 60.0,486.0 60.0,503.0 60.0,520.0 60.0,537.0 60.0,554.0 73.0,645.0 86.0,651.0" style="fill:#C4C4C4;" />
<polygon data-section="Mezzanine A-E Center, A-D Sides" data-priority="2" class="55082" points="462.0,569.0 462.0,586.0 462.0,603.0 462.0,620.0 462.0,637.0 462.0,654.0 462.0,671.0 462.0,688.0 475.0,687.0 488.0,686.0 501.0,684.0 514.0,682.0 527.0,679.0 540.0,676.0 553.0,672.0 566.0,668.0 579.0,663.0 592.0,658.0 605.0,652.0 618.0,646.0 631.0,555.0 631.0,538.0 631.0,521.0 631.0,504.0 631.0,487.0 618.0,493.0 605.0,499.0 579.0,510.0 475.0,534.0 462.0,535.0 462.0,552.0 462.0,569.0" style="fill:#C4C4C4;" />
</g>
<g class="grouped-Orchestra K-U Sides">
<polygon data-section="Orchestra K-U Sides" data-priority="2" class="55085" points="74.0,367.0 74.0,384.0 87.0,407.0 100.0,413.0 113.0,418.0 126.0,423.0 139.0,427.0 152.0,431.0 165.0,434.0 178.0,437.0 191.0,439.0 217.0,443.0 230.0,444.0 230.0,427.0 230.0,410.0 230.0,393.0 230.0,376.0 230.0,359.0 230.0,342.0 230.0,325.0 230.0,308.0 230.0,291.0 230.0,274.0 230.0,257.0 230.0,240.0 230.0,223.0 230.0,206.0 230.0,189.0 230.0,172.0 230.0,155.0 230.0,138.0 178.0,131.0 165.0,145.0 100.0,209.0 61.0,258.0 61.0,275.0 74.0,367.0" style="fill:#C4C4C4;" />
<polygon data-section="Orchestra K-U Sides" data-priority="2" class="55085" points="463.0,240.0 463.0,257.0 463.0,274.0 463.0,291.0 463.0,308.0 463.0,325.0 463.0,342.0 463.0,359.0 463.0,376.0 463.0,393.0 463.0,410.0 463.0,427.0 463.0,444.0 476.0,443.0 502.0,440.0 515.0,438.0 528.0,435.0 541.0,432.0 554.0,428.0 567.0,424.0 580.0,419.0 593.0,414.0 606.0,408.0 619.0,385.0 619.0,368.0 632.0,277.0 632.0,260.0 593.0,210.0 528.0,146.0 515.0,132.0 463.0,138.0 463.0,155.0 463.0,172.0 463.0,189.0 463.0,206.0 463.0,223.0 463.0,240.0" style="fill:#C4C4C4;" />
</g>
<g class="grouped-Mezzanine G-H Sides">
<polygon data-section="Mezzanine G-H Sides" data-priority="2" class="59018" points="86.0,651.0 99.0,657.0 112.0,662.0 125.0,667.0 138.0,671.0 151.0,675.0 164.0,678.0 177.0,681.0 190.0,683.0 203.0,685.0 216.0,687.0 229.0,688.0 229.0,671.0 229.0,654.0 229.0,637.0 229.0,620.0 229.0,603.0 229.0,586.0 229.0,569.0 229.0,552.0 229.0,535.0 203.0,532.0 190.0,530.0 86.0,498.0 73.0,492.0 60.0,486.0 60.0,503.0 60.0,520.0 60.0,537.0 60.0,554.0 73.0,645.0 86.0,651.0" style="fill:#C4C4C4;" />
<polygon data-section="Mezzanine G-H Sides" data-priority="2" class="59018" points="462.0,569.0 462.0,586.0 462.0,603.0 462.0,620.0 462.0,637.0 462.0,654.0 462.0,671.0 462.0,688.0 475.0,687.0 488.0,686.0 501.0,684.0 514.0,682.0 527.0,679.0 540.0,676.0 553.0,672.0 566.0,668.0 579.0,663.0 592.0,658.0 605.0,652.0 618.0,646.0 631.0,555.0 631.0,538.0 631.0,521.0 631.0,504.0 631.0,487.0 618.0,493.0 605.0,499.0 579.0,510.0 475.0,534.0 462.0,535.0 462.0,552.0 462.0,569.0" style="fill:#C4C4C4;" />
</g>
<g class="grouped-Balcony G-J Sides">
<polygon data-section="Balcony G-J Sides" data-priority="2" class="59022" points="61.0,715.0 61.0,732.0 74.0,840.0 87.0,863.0 113.0,891.0 126.0,896.0 139.0,900.0 152.0,904.0 165.0,907.0 178.0,910.0 191.0,912.0 204.0,914.0 217.0,916.0 230.0,917.0 230.0,900.0 230.0,883.0 230.0,866.0 230.0,849.0 230.0,832.0 230.0,815.0 230.0,798.0 230.0,781.0 230.0,764.0 204.0,761.0 191.0,759.0 87.0,727.0 74.0,721.0 61.0,715.0" style="fill:#C4C4C4;" />
<polygon data-section="Balcony G-J Sides" data-priority="2" class="59022" points="463.0,798.0 463.0,815.0 463.0,832.0 463.0,849.0 463.0,866.0 463.0,883.0 463.0,900.0 476.0,899.0 489.0,898.0 502.0,896.0 515.0,894.0 528.0,891.0 541.0,888.0 554.0,884.0 567.0,880.0 580.0,875.0 593.0,870.0 606.0,864.0 619.0,841.0 632.0,733.0 632.0,716.0 619.0,722.0 606.0,728.0 580.0,739.0 476.0,763.0 463.0,764.0 463.0,781.0 463.0,798.0" style="fill:#C4C4C4;" />
</g>
<g class="grouped-Mezzanine A-H Sides">
<polygon data-section="Mezzanine A-H Sides" data-priority="2" class="59291" points="86.0,651.0 99.0,657.0 112.0,662.0 125.0,667.0 138.0,671.0 151.0,675.0 164.0,678.0 177.0,681.0 190.0,683.0 203.0,685.0 216.0,687.0 229.0,688.0 229.0,671.0 229.0,654.0 229.0,637.0 229.0,620.0 229.0,603.0 229.0,586.0 229.0,569.0 229.0,552.0 229.0,535.0 203.0,532.0 190.0,530.0 86.0,498.0 73.0,492.0 60.0,486.0 60.0,503.0 60.0,520.0 60.0,537.0 60.0,554.0 73.0,645.0 86.0,651.0" style="fill:#C4C4C4;" />
<polygon data-section="Mezzanine A-H Sides" data-priority="2" class="59291" points="462.0,569.0 462.0,586.0 462.0,603.0 462.0,620.0 462.0,637.0 462.0,654.0 462.0,671.0 462.0,688.0 475.0,687.0 488.0,686.0 501.0,684.0 514.0,682.0 527.0,679.0 540.0,676.0 553.0,672.0 566.0,668.0 579.0,663.0 592.0,658.0 605.0,652.0 618.0,646.0 631.0,555.0 631.0,538.0 631.0,521.0 631.0,504.0 631.0,487.0 618.0,493.0 605.0,499.0 579.0,510.0 475.0,534.0 462.0,535.0 462.0,552.0 462.0,569.0" style="fill:#C4C4C4;" />
</g>
<g class="grouped-Mezzanine A-E Center Sides">
<polygon data-section="Mezzanine A-E Center Sides" data-priority="3" class="55084" points="261.0,641.0 261.0,658.0 261.0,675.0 261.0,692.0 274.0,693.0 300.0,694.0 326.0,695.0 339.0,695.0 352.0,695.0 365.0,695.0 391.0,694.0 417.0,693.0 430.0,692.0 430.0,675.0 430.0,658.0 430.0,641.0 430.0,624.0 430.0,607.0 430.0,590.0 430.0,573.0 430.0,556.0 430.0,539.0 404.0,540.0 313.0,541.0 287.0,540.0 261.0,539.0 261.0,556.0 261.0,573.0 261.0,590.0 261.0,607.0 261.0,624.0 261.0,641.0" style="fill:#C4C4C4;" />
<polygon data-section="Mezzanine A-E Center Sides" data-priority="3" class="55084" points="60.0,554.0 73.0,645.0 86.0,651.0 99.0,657.0 112.0,662.0 125.0,667.0 138.0,671.0 151.0,675.0 164.0,678.0 177.0,681.0 190.0,683.0 203.0,685.0 216.0,687.0 229.0,688.0 229.0,671.0 229.0,654.0 229.0,637.0 229.0,620.0 229.0,603.0 229.0,586.0 229.0,569.0 229.0,552.0 229.0,535.0 203.0,532.0 190.0,530.0 86.0,498.0 73.0,492.0 60.0,486.0 60.0,503.0 60.0,520.0 60.0,537.0 60.0,554.0" style="fill:#C4C4C4;" />
<polygon data-section="Mezzanine A-E Center Sides" data-priority="3" class="55084" points="462.0,569.0 462.0,586.0 462.0,603.0 462.0,620.0 462.0,637.0 462.0,654.0 462.0,671.0 462.0,688.0 475.0,687.0 488.0,686.0 501.0,684.0 514.0,682.0 527.0,679.0 540.0,676.0 553.0,672.0 566.0,668.0 579.0,663.0 592.0,658.0 605.0,652.0 618.0,646.0 631.0,555.0 631.0,538.0 631.0,521.0 631.0,504.0 631.0,487.0 618.0,493.0 605.0,499.0 579.0,510.0 475.0,534.0 462.0,535.0 462.0,552.0 462.0,569.0" style="fill:#C4C4C4;" />
</g>
<g class="grouped-Orchestra R-U Mezzanine A-E Center Sides">
<polygon data-section="Orchestra R-U Mezzanine A-E Center Sides" data-priority="3" class="59034" points="74.0,367.0 74.0,384.0 87.0,407.0 100.0,413.0 113.0,418.0 126.0,423.0 139.0,427.0 152.0,431.0 165.0,434.0 178.0,437.0 191.0,439.0 217.0,443.0 230.0,444.0 230.0,427.0 230.0,410.0 230.0,393.0 230.0,376.0 230.0,359.0 230.0,342.0 230.0,325.0 230.0,308.0 230.0,291.0 230.0,274.0 230.0,257.0 230.0,240.0 230.0,223.0 230.0,206.0 230.0,189.0 230.0,172.0 230.0,155.0 230.0,138.0 178.0,131.0 165.0,145.0 100.0,209.0 61.0,258.0 61.0,275.0 74.0,367.0" style="fill:#C4C4C4;" />
<polygon data-section="Orchestra R-U Mezzanine A-E Center Sides" data-priority="3" class="59034" points="262.0,278.0 262.0,295.0 262.0,312.0 262.0,329.0 262.0,346.0 262.0,363.0 262.0,380.0 262.0,397.0 262.0,414.0 262.0,431.0 275.0,449.0 379.0,467.0 392.0,467.0 431.0,448.0 431.0,431.0 431.0,414.0 431.0,397.0 431.0,380.0 431.0,363.0 431.0,346.0 431.0,329.0 431.0,312.0 431.0,295.0 431.0,278.0 431.0,261.0 431.0,244.0 431.0,227.0 431.0,210.0 431.0,193.0 431.0,176.0 424.0,142.0 398.0,143.0 372.0,144.0 268.0,142.0 262.0,176.0 262.0,193.0 262.0,210.0 262.0,227.0 262.0,244.0 262.0,261.0 262.0,278.0" style="fill:#C4C4C4;" />
<polygon data-section="Orchestra R-U Mezzanine A-E Center Sides" data-priority="3" class="59034" points="463.0,240.0 463.0,257.0 463.0,274.0 463.0,291.0 463.0,308.0 463.0,325.0 463.0,342.0 463.0,359.0 463.0,376.0 463.0,393.0 463.0,410.0 463.0,427.0 463.0,444.0 476.0,443.0 502.0,440.0 515.0,438.0 528.0,435.0 541.0,432.0 554.0,428.0 567.0,424.0 580.0,419.0 593.0,414.0 606.0,408.0 619.0,385.0 619.0,368.0 632.0,277.0 632.0,260.0 593.0,210.0 528.0,146.0 515.0,132.0 463.0,138.0 463.0,155.0 463.0,172.0 463.0,189.0 463.0,206.0 463.0,223.0 463.0,240.0" style="fill:#C4C4C4;" />
<polygon data-section="Orchestra R-U Mezzanine A-E Center Sides" data-priority="3" class="59034" points="261.0,641.0 261.0,658.0 261.0,675.0 261.0,692.0 274.0,693.0 300.0,694.0 326.0,695.0 339.0,695.0 352.0,695.0 365.0,695.0 391.0,694.0 417.0,693.0 430.0,692.0 430.0,675.0 430.0,658.0 430.0,641.0 430.0,624.0 430.0,607.0 430.0,590.0 430.0,573.0 430.0,556.0 430.0,539.0 404.0,540.0 313.0,541.0 287.0,540.0 261.0,539.0 261.0,556.0 261.0,573.0 261.0,590.0 261.0,607.0 261.0,624.0 261.0,641.0" style="fill:#C4C4C4;" />
<polygon data-section="Orchestra R-U Mezzanine A-E Center Sides" data-priority="3" class="59034" points="60.0,554.0 73.0,645.0 86.0,651.0 99.0,657.0 112.0,662.0 125.0,667.0 138.0,671.0 151.0,675.0 164.0,678.0 177.0,681.0 190.0,683.0 203.0,685.0 216.0,687.0 229.0,688.0 229.0,671.0 229.0,654.0 229.0,637.0 229.0,620.0 229.0,603.0 229.0,586.0 229.0,569.0 229.0,552.0 229.0,535.0 203.0,532.0 190.0,530.0 86.0,498.0 73.0,492.0 60.0,486.0 60.0,503.0 60.0,520.0 60.0,537.0 60.0,554.0" style="fill:#C4C4C4;" />
<polygon data-section="Orchestra R-U Mezzanine A-E Center Sides" data-priority="3" class="59034" points="462.0,569.0 462.0,586.0 462.0,603.0 462.0,620.0 462.0,637.0 462.0,654.0 462.0,671.0 462.0,688.0 475.0,687.0 488.0,686.0 501.0,684.0 514.0,682.0 527.0,679.0 540.0,676.0 553.0,672.0 566.0,668.0 579.0,663.0 592.0,658.0 605.0,652.0 618.0,646.0 631.0,555.0 631.0,538.0 631.0,521.0 631.0,504.0 631.0,487.0 618.0,493.0 605.0,499.0 579.0,510.0 475.0,534.0 462.0,535.0 462.0,552.0 462.0,569.0" style="fill:#C4C4C4;" />
</g>
<g class="grouped-Balcony G-J Center, D-F Sides, A-F Extreme Sides">
<polygon data-section="Balcony G-J Center, D-F Sides, A-F Extreme Sides" data-priority="4" class="52979" points="262.0,870.0 262.0,887.0 262.0,904.0 275.0,905.0 353.0,890.0 418.0,905.0 431.0,904.0 431.0,887.0 431.0,870.0 431.0,853.0 431.0,836.0 431.0,802.0 431.0,785.0 431.0,768.0 405.0,769.0 288.0,769.0 262.0,768.0 262.0,785.0 262.0,802.0 262.0,836.0 262.0,853.0 262.0,870.0" style="fill:#C4C4C4;" />
<polygon data-section="Balcony G-J Center, D-F Sides, A-F Extreme Sides" data-priority="4" class="52979" points="61.0,715.0 61.0,732.0 74.0,840.0 87.0,863.0 113.0,891.0 126.0,896.0 139.0,900.0 152.0,904.0 165.0,907.0 178.0,910.0 191.0,912.0 204.0,914.0 217.0,916.0 230.0,917.0 230.0,900.0 230.0,883.0 230.0,866.0 230.0,849.0 230.0,832.0 230.0,815.0 230.0,798.0 230.0,781.0 230.0,764.0 204.0,761.0 191.0,759.0 87.0,727.0 74.0,721.0 61.0,715.0" style="fill:#C4C4C4;" />
<polygon data-section="Balcony G-J Center, D-F Sides, A-F Extreme Sides" data-priority="4" class="52979" points="463.0,798.0 463.0,815.0 463.0,832.0 463.0,849.0 463.0,866.0 463.0,883.0 463.0,900.0 476.0,899.0 489.0,898.0 502.0,896.0 515.0,894.0 528.0,891.0 541.0,888.0 554.0,884.0 567.0,880.0 580.0,875.0 593.0,870.0 606.0,864.0 619.0,841.0 632.0,733.0 632.0,716.0 619.0,722.0 606.0,728.0 580.0,739.0 476.0,763.0 463.0,764.0 463.0,781.0 463.0,798.0" style="fill:#C4C4C4;" />
</g>
<g class="grouped-Orchestra K-U Far Sides Mezzanine A-H Extreme Sides">
<polygon data-section="Orchestra K-U Far Sides Mezzanine A-H Extreme Sides" data-priority="4" class="52990" points="61.0,275.0 74.0,384.0 87.0,407.0 100.0,413.0 113.0,418.0 113.0,401.0 113.0,384.0 113.0,367.0 152.0,193.0 178.0,148.0 178.0,131.0 100.0,209.0 61.0,258.0 61.0,275.0" style="fill:#C4C4C4;" />
<polygon data-section="Orchestra K-U Far Sides Mezzanine A-H Extreme Sides" data-priority="4" class="52990" points="580.0,385.0 580.0,402.0 580.0,419.0 593.0,414.0 606.0,408.0 619.0,385.0 632.0,277.0 632.0,260.0 593.0,210.0 515.0,132.0 515.0,149.0 541.0,194.0 580.0,368.0 580.0,385.0" style="fill:#C4C4C4;" />
<polygon data-section="Orchestra K-U Far Sides Mezzanine A-H Extreme Sides" data-priority="4" class="52990" points="60.0,554.0 73.0,645.0 86.0,651.0 99.0,657.0 112.0,662.0 112.0,645.0 112.0,628.0 112.0,611.0 112.0,594.0 99.0,504.0 86.0,498.0 73.0,492.0 60.0,486.0 60.0,503.0 60.0,520.0 60.0,537.0 60.0,554.0" style="fill:#C4C4C4;" />
<polygon data-section="Orchestra K-U Far Sides Mezzanine A-H Extreme Sides" data-priority="4" class="52990" points="579.0,595.0 579.0,612.0 579.0,629.0 579.0,646.0 579.0,663.0 592.0,658.0 605.0,652.0 618.0,646.0 631.0,555.0 631.0,538.0 631.0,521.0 631.0,504.0 631.0,487.0 618.0,493.0 605.0,499.0 592.0,505.0 579.0,595.0" style="fill:#C4C4C4;" />
</g>
<g class="grouped-Orchestra D-M Far Sides">
<polygon data-section="Orchestra D-M Far Sides" data-priority="4" class="52991" points="61.0,275.0 74.0,384.0 87.0,407.0 100.0,413.0 113.0,418.0 113.0,401.0 113.0,384.0 113.0,367.0 152.0,193.0 178.0,148.0 178.0,131.0 100.0,209.0 61.0,258.0 61.0,275.0" style="fill:#C4C4C4;" />
<polygon data-section="Orchestra D-M Far Sides" data-priority="4" class="52991" points="580.0,385.0 580.0,402.0 580.0,419.0 593.0,414.0 606.0,408.0 619.0,385.0 632.0,277.0 632.0,260.0 593.0,210.0 515.0,132.0 515.0,149.0 541.0,194.0 580.0,368.0 580.0,385.0" style="fill:#C4C4C4;" />
</g>
<g class="grouped-Mezzanine A-H Extreme Sides">
<polygon data-section="Mezzanine A-H Extreme Sides" data-priority="4" class="52997" points="60.0,554.0 73.0,645.0 86.0,651.0 99.0,657.0 112.0,662.0 112.0,645.0 112.0,628.0 112.0,611.0 112.0,594.0 99.0,504.0 86.0,498.0 73.0,492.0 60.0,486.0 60.0,503.0 60.0,520.0 60.0,537.0 60.0,554.0" style="fill:#C4C4C4;" />
<polygon data-section="Mezzanine A-H Extreme Sides" data-priority="4" class="52997" points="579.0,595.0 579.0,612.0 579.0,629.0 579.0,646.0 579.0,663.0 592.0,658.0 605.0,652.0 618.0,646.0 631.0,555.0 631.0,538.0 631.0,521.0 631.0,504.0 631.0,487.0 618.0,493.0 605.0,499.0 592.0,505.0 579.0,595.0" style="fill:#C4C4C4;" />
</g>
<g class="grouped-Orchestra D-U Far Sides">
<polygon data-section="Orchestra D-U Far Sides" data-priority="4" class="52998" points="61.0,275.0 74.0,384.0 87.0,407.0 100.0,413.0 113.0,418.0 113.0,401.0 113.0,384.0 113.0,367.0 152.0,193.0 178.0,148.0 178.0,131.0 100.0,209.0 61.0,258.0 61.0,275.0" style="fill:#C4C4C4;" />
<polygon data-section="Orchestra D-U Far Sides" data-priority="4" class="52998" points="580.0,385.0 580.0,402.0 580.0,419.0 593.0,414.0 606.0,408.0 619.0,385.0 632.0,277.0 632.0,260.0 593.0,210.0 515.0,132.0 515.0,149.0 541.0,194.0 580.0,368.0 580.0,385.0" style="fill:#C4C4C4;" />
</g>
<g class="grouped-Orchestra K-U Far Sides">
<polygon data-section="Orchestra K-U Far Sides" data-priority="4" class="54871" points="61.0,275.0 74.0,384.0 87.0,407.0 100.0,413.0 113.0,418.0 113.0,401.0 113.0,384.0 113.0,367.0 152.0,193.0 178.0,148.0 178.0,131.0 100.0,209.0 61.0,258.0 61.0,275.0" style="fill:#C4C4C4;" />
<polygon data-section="Orchestra K-U Far Sides" data-priority="4" class="54871" points="580.0,385.0 580.0,402.0 580.0,419.0 593.0,414.0 606.0,408.0 619.0,385.0 632.0,277.0 632.0,260.0 593.0,210.0 515.0,132.0 515.0,149.0 541.0,194.0 580.0,368.0 580.0,385.0" style="fill:#C4C4C4;" />
</g>
<g class="grouped-Mezzanine F-H Center, A-D Far Sides, E-F Sides">
<polygon data-section="Mezzanine F-H Center, A-D Far Sides, E-F Sides" data-priority="4" class="59023" points="261.0,573.0 261.0,590.0 261.0,607.0 261.0,624.0 261.0,641.0 261.0,658.0 261.0,675.0 261.0,692.0 274.0,693.0 300.0,694.0 326.0,695.0 339.0,695.0 352.0,695.0 365.0,695.0 391.0,694.0 417.0,693.0 430.0,692.0 430.0,675.0 430.0,658.0 430.0,641.0 430.0,624.0 430.0,607.0 430.0,590.0 430.0,573.0 430.0,556.0 430.0,539.0 404.0,540.0 313.0,541.0 287.0,540.0 261.0,539.0 261.0,556.0 261.0,573.0" style="fill:#C4C4C4;" />
<polygon data-section="Mezzanine F-H Center, A-D Far Sides, E-F Sides" data-priority="4" class="59023" points="60.0,554.0 73.0,645.0 86.0,651.0 99.0,657.0 112.0,662.0 125.0,667.0 138.0,671.0 151.0,675.0 164.0,678.0 177.0,681.0 190.0,683.0 203.0,685.0 216.0,687.0 229.0,688.0 229.0,671.0 229.0,654.0 229.0,637.0 229.0,620.0 229.0,603.0 229.0,586.0 229.0,569.0 229.0,552.0 229.0,535.0 203.0,532.0 190.0,530.0 86.0,498.0 73.0,492.0 60.0,486.0 60.0,503.0 60.0,520.0 60.0,537.0 60.0,554.0" style="fill:#C4C4C4;" />
<polygon data-section="Mezzanine F-H Center, A-D Far Sides, E-F Sides" data-priority="4" class="59023" points="462.0,603.0 462.0,620.0 462.0,637.0 462.0,654.0 462.0,671.0 462.0,688.0 475.0,687.0 488.0,686.0 501.0,684.0 514.0,682.0 527.0,679.0 540.0,676.0 553.0,672.0 566.0,668.0 579.0,663.0 592.0,658.0 605.0,652.0 618.0,646.0 631.0,555.0 631.0,538.0 631.0,521.0 631.0,504.0 631.0,487.0 618.0,493.0 605.0,499.0 579.0,510.0 475.0,534.0 462.0,535.0 462.0,552.0 462.0,569.0 462.0,586.0 462.0,603.0" style="fill:#C4C4C4;" />
</g>
<g class="grouped-Orchestra K-U Far Sides Mezzanine G-H Sides">
<polygon data-section="Orchestra K-U Far Sides Mezzanine G-H Sides" data-priority="4" class="59026" points="61.0,275.0 74.0,384.0 87.0,407.0 100.0,413.0 113.0,418.0 113.0,401.0 113.0,384.0 113.0,367.0 152.0,193.0 178.0,148.0 178.0,131.0 100.0,209.0 61.0,258.0 61.0,275.0" style="fill:#C4C4C4;" />
<polygon data-section="Orchestra K-U Far Sides Mezzanine G-H Sides" data-priority="4" class="59026" points="580.0,385.0 580.0,402.0 580.0,419.0 593.0,414.0 606.0,408.0 619.0,385.0 632.0,277.0 632.0,260.0 593.0,210.0 515.0,132.0 515.0,149.0 541.0,194.0 580.0,368.0 580.0,385.0" style="fill:#C4C4C4;" />
<polygon data-section="Orchestra K-U Far Sides Mezzanine G-H Sides" data-priority="4" class="59026" points="86.0,651.0 99.0,657.0 112.0,662.0 125.0,667.0 138.0,671.0 151.0,675.0 164.0,678.0 177.0,681.0 190.0,683.0 203.0,685.0 216.0,687.0 229.0,688.0 229.0,671.0 229.0,654.0 229.0,637.0 229.0,620.0 229.0,603.0 229.0,586.0 229.0,569.0 229.0,552.0 229.0,535.0 203.0,532.0 190.0,530.0 86.0,498.0 73.0,492.0 60.0,486.0 60.0,503.0 60.0,520.0 60.0,537.0 60.0,554.0 73.0,645.0 86.0,651.0" style="fill:#C4C4C4;" />
<polygon data-section="Orchestra K-U Far Sides Mezzanine G-H Sides" data-priority="4" class="59026" points="462.0,569.0 462.0,586.0 462.0,603.0 462.0,620.0 462.0,637.0 462.0,654.0 462.0,671.0 462.0,688.0 475.0,687.0 488.0,686.0 501.0,684.0 514.0,682.0 527.0,679.0 540.0,676.0 553.0,672.0 566.0,668.0 579.0,663.0 592.0,658.0 605.0,652.0 618.0,646.0 631.0,555.0 631.0,538.0 631.0,521.0 631.0,504.0 631.0,487.0 618.0,493.0 605.0,499.0 579.0,510.0 475.0,534.0 462.0,535.0 462.0,552.0 462.0,569.0" style="fill:#C4C4C4;" />
</g>
<g class="grouped-Orchestra D-M Far Sides Mezzanine G-H Sides">
<polygon data-section="Orchestra D-M Far Sides Mezzanine G-H Sides" data-priority="4" class="59032" points="61.0,275.0 74.0,384.0 87.0,407.0 100.0,413.0 113.0,418.0 113.0,401.0 113.0,384.0 113.0,367.0 152.0,193.0 178.0,148.0 178.0,131.0 100.0,209.0 61.0,258.0 61.0,275.0" style="fill:#C4C4C4;" />
<polygon data-section="Orchestra D-M Far Sides Mezzanine G-H Sides" data-priority="4" class="59032" points="580.0,385.0 580.0,402.0 580.0,419.0 593.0,414.0 606.0,408.0 619.0,385.0 632.0,277.0 632.0,260.0 593.0,210.0 515.0,132.0 515.0,149.0 541.0,194.0 580.0,368.0 580.0,385.0" style="fill:#C4C4C4;" />
<polygon data-section="Orchestra D-M Far Sides Mezzanine G-H Sides" data-priority="4" class="59032" points="86.0,651.0 99.0,657.0 112.0,662.0 125.0,667.0 138.0,671.0 151.0,675.0 164.0,678.0 177.0,681.0 190.0,683.0 203.0,685.0 216.0,687.0 229.0,688.0 229.0,671.0 229.0,654.0 229.0,637.0 229.0,620.0 229.0,603.0 229.0,586.0 229.0,569.0 229.0,552.0 229.0,535.0 203.0,532.0 190.0,530.0 86.0,498.0 73.0,492.0 60.0,486.0 60.0,503.0 60.0,520.0 60.0,537.0 60.0,554.0 73.0,645.0 86.0,651.0" style="fill:#C4C4C4;" />
<polygon data-section="Orchestra D-M Far Sides Mezzanine G-H Sides" data-priority="4" class="59032" points="462.0,569.0 462.0,586.0 462.0,603.0 462.0,620.0 462.0,637.0 462.0,654.0 462.0,671.0 462.0,688.0 475.0,687.0 488.0,686.0 501.0,684.0 514.0,682.0 527.0,679.0 540.0,676.0 553.0,672.0 566.0,668.0 579.0,663.0 592.0,658.0 605.0,652.0 618.0,646.0 631.0,555.0 631.0,538.0 631.0,521.0 631.0,504.0 631.0,487.0 618.0,493.0 605.0,499.0 579.0,510.0 475.0,534.0 462.0,535.0 462.0,552.0 462.0,569.0" style="fill:#C4C4C4;" />
</g>
<g class="grouped-Mezzanine A-H Center Far Sides Sides">
<polygon data-section="Mezzanine A-H Center Far Sides Sides" data-priority="4" class="59035" points="261.0,573.0 261.0,590.0 261.0,607.0 261.0,624.0 261.0,641.0 261.0,658.0 261.0,675.0 261.0,692.0 274.0,693.0 300.0,694.0 326.0,695.0 339.0,695.0 352.0,695.0 365.0,695.0 391.0,694.0 417.0,693.0 430.0,692.0 430.0,675.0 430.0,658.0 430.0,641.0 430.0,624.0 430.0,607.0 430.0,590.0 430.0,573.0 430.0,556.0 430.0,539.0 404.0,540.0 313.0,541.0 287.0,540.0 261.0,539.0 261.0,556.0 261.0,573.0" style="fill:#C4C4C4;" />
<polygon data-section="Mezzanine A-H Center Far Sides Sides" data-priority="4" class="59035" points="60.0,554.0 73.0,645.0 86.0,651.0 99.0,657.0 112.0,662.0 125.0,667.0 138.0,671.0 151.0,675.0 164.0,678.0 177.0,681.0 190.0,683.0 203.0,685.0 216.0,687.0 229.0,688.0 229.0,671.0 229.0,654.0 229.0,637.0 229.0,620.0 229.0,603.0 229.0,586.0 229.0,569.0 229.0,552.0 229.0,535.0 203.0,532.0 190.0,530.0 86.0,498.0 73.0,492.0 60.0,486.0 60.0,503.0 60.0,520.0 60.0,537.0 60.0,554.0" style="fill:#C4C4C4;" />
<polygon data-section="Mezzanine A-H Center Far Sides Sides" data-priority="4" class="59035" points="462.0,603.0 462.0,620.0 462.0,637.0 462.0,654.0 462.0,671.0 462.0,688.0 475.0,687.0 488.0,686.0 501.0,684.0 514.0,682.0 527.0,679.0 540.0,676.0 553.0,672.0 566.0,668.0 579.0,663.0 592.0,658.0 605.0,652.0 618.0,646.0 631.0,555.0 631.0,538.0 631.0,521.0 631.0,504.0 631.0,487.0 618.0,493.0 605.0,499.0 579.0,510.0 475.0,534.0 462.0,535.0 462.0,552.0 462.0,569.0 462.0,586.0 462.0,603.0" style="fill:#C4C4C4;" />
</g>
<g class="grouped-Orchestra K-U Far Sides Mezzanine A-H Sides">
<polygon data-section="Orchestra K-U Far Sides Mezzanine A-H Sides" data-priority="4" class="60352" points="61.0,275.0 74.0,384.0 87.0,407.0 100.0,413.0 113.0,418.0 113.0,401.0 113.0,384.0 113.0,367.0 152.0,193.0 178.0,148.0 178.0,131.0 100.0,209.0 61.0,258.0 61.0,275.0" style="fill:#C4C4C4;" />
<polygon data-section="Orchestra K-U Far Sides Mezzanine A-H Sides" data-priority="4" class="60352" points="580.0,385.0 580.0,402.0 580.0,419.0 593.0,414.0 606.0,408.0 619.0,385.0 632.0,277.0 632.0,260.0 593.0,210.0 515.0,132.0 515.0,149.0 541.0,194.0 580.0,368.0 580.0,385.0" style="fill:#C4C4C4;" />
<polygon data-section="Orchestra K-U Far Sides Mezzanine A-H Sides" data-priority="4" class="60352" points="86.0,651.0 99.0,657.0 112.0,662.0 125.0,667.0 138.0,671.0 151.0,675.0 164.0,678.0 177.0,681.0 190.0,683.0 203.0,685.0 216.0,687.0 229.0,688.0 229.0,671.0 229.0,654.0 229.0,637.0 229.0,620.0 229.0,603.0 229.0,586.0 229.0,569.0 229.0,552.0 229.0,535.0 203.0,532.0 190.0,530.0 86.0,498.0 73.0,492.0 60.0,486.0 60.0,503.0 60.0,520.0 60.0,537.0 60.0,554.0 73.0,645.0 86.0,651.0" style="fill:#C4C4C4;" />
<polygon data-section="Orchestra K-U Far Sides Mezzanine A-H Sides" data-priority="4" class="60352" points="462.0,569.0 462.0,586.0 462.0,603.0 462.0,620.0 462.0,637.0 462.0,654.0 462.0,671.0 462.0,688.0 475.0,687.0 488.0,686.0 501.0,684.0 514.0,682.0 527.0,679.0 540.0,676.0 553.0,672.0 566.0,668.0 579.0,663.0 592.0,658.0 605.0,652.0 618.0,646.0 631.0,555.0 631.0,538.0 631.0,521.0 631.0,504.0 631.0,487.0 618.0,493.0 605.0,499.0 579.0,510.0 475.0,534.0 462.0,535.0 462.0,552.0 462.0,569.0" style="fill:#C4C4C4;" />
</g>
<g class="grouped-Orchestra D-M Far Sides Mezzanine A-H Center Far Sides Sides">
<polygon data-section="Orchestra D-M Far Sides Mezzanine A-H Center Far Sides Sides" data-priority="5" class="59027" points="61.0,275.0 74.0,384.0 87.0,407.0 100.0,413.0 113.0,418.0 113.0,401.0 113.0,384.0 113.0,367.0 152.0,193.0 178.0,148.0 178.0,131.0 100.0,209.0 61.0,258.0 61.0,275.0" style="fill:#C4C4C4;" />
<polygon data-section="Orchestra D-M Far Sides Mezzanine A-H Center Far Sides Sides" data-priority="5" class="59027" points="580.0,385.0 580.0,402.0 580.0,419.0 593.0,414.0 606.0,408.0 619.0,385.0 632.0,277.0 632.0,260.0 593.0,210.0 515.0,132.0 515.0,149.0 541.0,194.0 580.0,368.0 580.0,385.0" style="fill:#C4C4C4;" />
<polygon data-section="Orchestra D-M Far Sides Mezzanine A-H Center Far Sides Sides" data-priority="5" class="59027" points="261.0,573.0 261.0,590.0 261.0,607.0 261.0,624.0 261.0,641.0 261.0,658.0 261.0,675.0 261.0,692.0 274.0,693.0 300.0,694.0 326.0,695.0 339.0,695.0 352.0,695.0 365.0,695.0 391.0,694.0 417.0,693.0 430.0,692.0 430.0,675.0 430.0,658.0 430.0,641.0 430.0,624.0 430.0,607.0 430.0,590.0 430.0,573.0 430.0,556.0 430.0,539.0 404.0,540.0 313.0,541.0 287.0,540.0 261.0,539.0 261.0,556.0 261.0,573.0" style="fill:#C4C4C4;" />
<polygon data-section="Orchestra D-M Far Sides Mezzanine A-H Center Far Sides Sides" data-priority="5" class="59027" points="60.0,554.0 73.0,645.0 86.0,651.0 99.0,657.0 112.0,662.0 112.0,645.0 112.0,628.0 112.0,611.0 112.0,594.0 99.0,504.0 86.0,498.0 73.0,492.0 60.0,486.0 60.0,503.0 60.0,520.0 60.0,537.0 60.0,554.0" style="fill:#C4C4C4;" />
<polygon data-section="Orchestra D-M Far Sides Mezzanine A-H Center Far Sides Sides" data-priority="5" class="59027" points="579.0,595.0 579.0,612.0 579.0,629.0 579.0,646.0 579.0,663.0 592.0,658.0 605.0,652.0 618.0,646.0 631.0,555.0 631.0,538.0 631.0,521.0 631.0,504.0 631.0,487.0 618.0,493.0 605.0,499.0 592.0,505.0 579.0,595.0" style="fill:#C4C4C4;" />
</g>
<g class="grouped-Balcony A-J Center Sides Extreme Sides">
<polygon data-section="Balcony A-J Center Sides Extreme Sides" data-priority="7" class="52996" points="61.0,715.0 61.0,732.0 74.0,840.0 87.0,863.0 113.0,891.0 126.0,896.0 139.0,900.0 152.0,904.0 165.0,907.0 178.0,910.0 191.0,912.0 204.0,914.0 217.0,916.0 230.0,917.0 230.0,900.0 230.0,883.0 230.0,866.0 230.0,849.0 230.0,832.0 230.0,815.0 230.0,798.0 230.0,781.0 230.0,764.0 204.0,761.0 191.0,759.0 87.0,727.0 74.0,721.0 61.0,715.0" style="fill:#C4C4C4;" />
<polygon data-section="Balcony A-J Center Sides Extreme Sides" data-priority="7" class="52996" points="262.0,836.0 262.0,853.0 262.0,870.0 262.0,887.0 262.0,904.0 275.0,905.0 353.0,890.0 418.0,905.0 431.0,904.0 431.0,887.0 431.0,870.0 431.0,853.0 431.0,836.0 431.0,802.0 431.0,785.0 431.0,768.0 405.0,769.0 288.0,769.0 262.0,768.0 262.0,785.0 262.0,802.0 262.0,836.0" style="fill:#C4C4C4;" />
<polygon data-section="Balcony A-J Center Sides Extreme Sides" data-priority="7" class="52996" points="463.0,798.0 463.0,815.0 463.0,832.0 463.0,849.0 463.0,866.0 463.0,883.0 463.0,900.0 476.0,899.0 489.0,898.0 502.0,896.0 515.0,894.0 528.0,891.0 541.0,888.0 554.0,884.0 567.0,880.0 580.0,875.0 593.0,870.0 606.0,864.0 619.0,841.0 632.0,733.0 632.0,716.0 619.0,722.0 606.0,728.0 580.0,739.0 476.0,763.0 463.0,764.0 463.0,781.0 463.0,798.0" style="fill:#C4C4C4;" />
</g>
<g class="grouped-Balcony A-J Center Sides Extreme">
<polygon data-section="Balcony A-J Center Sides Extreme" data-priority="7" class="60770" points="61.0,715.0 61.0,732.0 74.0,840.0 87.0,863.0 113.0,891.0 126.0,896.0 139.0,900.0 152.0,904.0 165.0,907.0 178.0,910.0 191.0,912.0 204.0,914.0 217.0,916.0 230.0,917.0 230.0,900.0 230.0,883.0 230.0,866.0 230.0,849.0 230.0,832.0 230.0,815.0 230.0,798.0 230.0,781.0 230.0,764.0 204.0,761.0 191.0,759.0 87.0,727.0 74.0,721.0 61.0,715.0" style="fill:#C4C4C4;" />
<polygon data-section="Balcony A-J Center Sides Extreme" data-priority="7" class="60770" points="262.0,836.0 262.0,853.0 262.0,870.0 262.0,887.0 262.0,904.0 275.0,905.0 353.0,890.0 418.0,905.0 431.0,904.0 431.0,887.0 431.0,870.0 431.0,853.0 431.0,836.0 431.0,802.0 431.0,785.0 431.0,768.0 405.0,769.0 288.0,769.0 262.0,768.0 262.0,785.0 262.0,802.0 262.0,836.0" style="fill:#C4C4C4;" />
<polygon data-section="Balcony A-J Center Sides Extreme" data-priority="7" class="60770" points="463.0,798.0 463.0,815.0 463.0,832.0 463.0,849.0 463.0,866.0 463.0,883.0 463.0,900.0 476.0,899.0 489.0,898.0 502.0,896.0 515.0,894.0 528.0,891.0 541.0,888.0 554.0,884.0 567.0,880.0 580.0,875.0 593.0,870.0 606.0,864.0 619.0,841.0 632.0,733.0 632.0,716.0 619.0,722.0 606.0,728.0 580.0,739.0 476.0,763.0 463.0,764.0 463.0,781.0 463.0,798.0" style="fill:#C4C4C4;" />
</g>
</g></svg>